<?xml version="1.0" encoding="UTF-8"?><svg id="Layer_2" xmlns="http://www.w3.org/2000/svg" width="165.94" height="183.13" viewBox="0 0 165.94 183.13"><defs><style>.cls-1{fill:#0ce50c;}.cls-1,.cls-2,.cls-3,.cls-4{stroke-width:0px;}.cls-2{fill:#282001;}.cls-3{fill:#9f9;opacity:.4;}</style></defs><g id="Layer_1-2"><g id="Alien"><path class="cls-1" d="m165.6,99.54c-1.97,15.31-11.72,26.23-29.95,46.63-20.14,22.54-31.87,35.67-48.91,36.53-4.15.21-8.13-.34-12-1.51-16.1-4.93-30.26-20.96-46.9-39.83C11.01,122.28,2.59,112.74.9,99.06-3,67.64,26.32,10.28,69.78,1.22c4.51-.94,9.17-1.37,13.96-1.18,48.2,1.84,86.21,65.52,81.85,99.5Z"/><ellipse class="cls-2" cx="47.81" cy="110.12" rx="15.1" ry="29.55" transform="translate(-69.55 84.88) rotate(-54.4)"/><ellipse class="cls-4" cx="119.94" cy="110.02" rx="29.53" ry="15.11" transform="translate(-41.99 93.59) rotate(-36.74)"/><ellipse class="cls-4" cx="81.75" cy="144.72" rx="1" ry="5.29"/><ellipse class="cls-4" cx="86.74" cy="144.72" rx="1" ry="5.29"/><path class="cls-3" d="m95.7,181.19c-3.03,1.09-6.17,1.73-9.51,1.89-21.46,1.09-38.26-17.95-58.89-41.34C10.46,122.67,2.04,113.12.35,99.44-3.96,64.78,32.21-1.52,83.2.43c2.55.1,5.06.37,7.55.8C47.28,10.28,26.95,66.68,30.84,98.1c1.7,13.68,1.13,24.18,17.97,43.26,16.64,18.87,30.79,34.9,46.9,39.83Z"/></g></g></svg>