<?xml version="1.0" encoding="UTF-8"?><svg id="Layer_2" xmlns="http://www.w3.org/2000/svg" width="1927" height="1083" xmlns:xlink="http://www.w3.org/1999/xlink" viewBox="0 0 1927 1083"><defs><style>.cls-1{stroke:url(#linear-gradient-2);}.cls-1,.cls-2,.cls-3,.cls-4,.cls-5,.cls-6,.cls-7,.cls-8,.cls-9,.cls-10,.cls-11,.cls-12,.cls-13,.cls-14,.cls-15,.cls-16,.cls-17,.cls-18,.cls-19,.cls-20,.cls-21,.cls-22,.cls-23,.cls-24,.cls-25,.cls-26,.cls-27,.cls-28,.cls-29,.cls-30,.cls-31,.cls-32,.cls-33{fill:none;stroke-miterlimit:10;}.cls-2{stroke:url(#linear-gradient-3);}.cls-3{stroke:url(#linear-gradient-28);}.cls-4{stroke:url(#linear-gradient-9);}.cls-5{stroke:url(#linear-gradient-22);}.cls-6{stroke:url(#linear-gradient-19);}.cls-7{stroke:url(#linear-gradient-26);}.cls-8{stroke:url(#linear-gradient-4);}.cls-9{stroke:url(#linear-gradient-6);}.cls-10{stroke:url(#linear-gradient-18);}.cls-11{stroke:#fb931c;}.cls-12{stroke:url(#linear-gradient-13);}.cls-13{stroke:url(#linear-gradient-29);}.cls-14{stroke:url(#linear-gradient-16);}.cls-15{stroke:url(#linear-gradient-17);}.cls-16{stroke:url(#linear-gradient-30);}.cls-17{stroke:url(#linear-gradient-7);}.cls-18{stroke:url(#linear-gradient-21);}.cls-19{stroke:url(#linear-gradient-12);}.cls-20{stroke:url(#linear-gradient-5);}.cls-21{stroke:url(#linear-gradient-32);}.cls-22{stroke:url(#linear-gradient-20);}.cls-23{stroke:url(#linear-gradient-24);}.cls-24{stroke:url(#linear-gradient-31);}.cls-25{stroke:url(#linear-gradient);}.cls-26{stroke:url(#linear-gradient-25);}.cls-27{stroke:url(#linear-gradient-27);}.cls-28{stroke:url(#linear-gradient-23);}.cls-29{stroke:url(#linear-gradient-14);}.cls-30{stroke:url(#linear-gradient-11);}.cls-31{stroke:url(#linear-gradient-8);}.cls-32{stroke:url(#linear-gradient-10);}.cls-33{stroke:url(#linear-gradient-15);}</style><linearGradient id="linear-gradient" x1="1504.89" y1="637.83" x2="339.92" y2="641.75" gradientTransform="translate(-159.68 -43.23) rotate(-.01) scale(1.11 1.05) skewX(-.02)" gradientUnits="userSpaceOnUse"><stop offset="0" stop-color="#fffaf5" stop-opacity="0"/><stop offset=".44" stop-color="#fb8500"/><stop offset=".64" stop-color="#fb8500"/><stop offset="1" stop-color="#fffaf5" stop-opacity="0"/></linearGradient><linearGradient id="linear-gradient-2" x1="1503.25" y1="642.74" x2="339.74" y2="646.65" xlink:href="#linear-gradient"/><linearGradient id="linear-gradient-3" x1="1501.6" y1="647.65" x2="339.56" y2="651.56" xlink:href="#linear-gradient"/><linearGradient id="linear-gradient-4" x1="1499.95" y1="652.56" x2="339.37" y2="656.46" xlink:href="#linear-gradient"/><linearGradient id="linear-gradient-5" x1="1498.3" y1="657.46" x2="339.19" y2="661.37" xlink:href="#linear-gradient"/><linearGradient id="linear-gradient-6" x1="1496.65" y1="662.37" x2="339.01" y2="666.27" xlink:href="#linear-gradient"/><linearGradient id="linear-gradient-7" x1="1495" y1="667.27" x2="338.83" y2="671.16" xlink:href="#linear-gradient"/><linearGradient id="linear-gradient-8" x1="1493.35" y1="672.17" x2="338.64" y2="676.06" xlink:href="#linear-gradient"/><linearGradient id="linear-gradient-9" x1="1491.7" y1="676.66" x2="338.46" y2="680.54" xlink:href="#linear-gradient"/><linearGradient id="linear-gradient-10" x1="1490.04" y1="679.52" x2="338.27" y2="683.4" xlink:href="#linear-gradient"/><linearGradient id="linear-gradient-11" x1="1488.39" y1="682.38" x2="338.08" y2="686.25" xlink:href="#linear-gradient"/><linearGradient id="linear-gradient-12" x1="1486.73" y1="685.23" x2="337.89" y2="689.09" xlink:href="#linear-gradient"/><linearGradient id="linear-gradient-13" x1="1485.07" y1="688.07" x2="337.7" y2="691.93" xlink:href="#linear-gradient"/><linearGradient id="linear-gradient-14" x1="1483.42" y1="690.9" x2="337.52" y2="694.76" xlink:href="#linear-gradient"/><linearGradient id="linear-gradient-15" x1="1481.76" y1="693.73" x2="337.33" y2="697.58" xlink:href="#linear-gradient"/><linearGradient id="linear-gradient-16" x1="1480.1" y1="696.55" x2="337.14" y2="700.4" xlink:href="#linear-gradient"/><linearGradient id="linear-gradient-17" x1="1478.45" y1="699.37" x2="336.95" y2="703.21" xlink:href="#linear-gradient"/><linearGradient id="linear-gradient-18" x1="1476.79" y1="702.18" x2="336.76" y2="706.02" xlink:href="#linear-gradient"/><linearGradient id="linear-gradient-19" x1="1475.13" y1="704.99" x2="336.52" y2="708.82" xlink:href="#linear-gradient"/><linearGradient id="linear-gradient-20" x1="1473.48" y1="707.8" x2="336.19" y2="711.63" xlink:href="#linear-gradient"/><linearGradient id="linear-gradient-21" x1="1471.82" y1="710.6" x2="335.76" y2="714.43" xlink:href="#linear-gradient"/><linearGradient id="linear-gradient-22" x1="1470.16" y1="713.4" x2="335.25" y2="717.22" xlink:href="#linear-gradient"/><linearGradient id="linear-gradient-23" x1="1468.51" y1="716.19" x2="334.65" y2="720.01" xlink:href="#linear-gradient"/><linearGradient id="linear-gradient-24" x1="1466.85" y1="718.57" x2="333.96" y2="722.38" xlink:href="#linear-gradient"/><linearGradient id="linear-gradient-25" x1="1465.18" y1="718.89" x2="333.17" y2="722.7" xlink:href="#linear-gradient"/><linearGradient id="linear-gradient-26" x1="1463.52" y1="719.15" x2="332.3" y2="722.95" xlink:href="#linear-gradient"/><linearGradient id="linear-gradient-27" x1="1461.85" y1="719.36" x2="331.35" y2="723.16" xlink:href="#linear-gradient"/><linearGradient id="linear-gradient-28" x1="1460.19" y1="719.54" x2="330.31" y2="723.34" xlink:href="#linear-gradient"/><linearGradient id="linear-gradient-29" x1="1458.52" y1="719.69" x2="329.19" y2="723.49" xlink:href="#linear-gradient"/><linearGradient id="linear-gradient-30" x1="1456.85" y1="719.81" x2="327.99" y2="723.61" xlink:href="#linear-gradient"/><linearGradient id="linear-gradient-31" x1="1455.19" y1="719.92" x2="326.71" y2="723.72" xlink:href="#linear-gradient"/><linearGradient id="linear-gradient-32" x1="1453.52" y1="720.01" x2="325.36" y2="723.81" xlink:href="#linear-gradient"/></defs><g id="Layer_5"><rect class="cls-11" x=".5" y=".5" width="1926" height="1082" rx="12" ry="12"/><path class="cls-25" d="M1512.35,770.75c-207.25,135.01-119.55-21.56-141.3-18.77-21.76,2.79-46.33-10.82-49.12-31.68-1.53-11.4-54.76-2.96-59.72-13.43-5.35-11.29,37.95-36.44,25.02-35.98-12.93.45-25.54,4.47-38.47,4.62-37.78.42-142.2-50.63-108.46-66.93,107.9-52.14-150.62-96.58,8.05-116.53,37.46-4.71,47.36-65.16,36.25-99.75-8.7-27.07-60.96,37.2-90.49,38.45-13.47.57,2.02-83.26-10.01-77.41-31.26,15.2-63.9,31.54-83.39,59.46-22.48,32.21-23.21,73.42-32.47,111.14-9.26,37.72-35.2,78.33-75.58,80.41-35.11,1.8-67.5-26.91-102.04-20.58-12.11,2.22-22.95,8.63-32.66,15.92-18.54,13.91-34.08,31.47-45.37,51.27-14.14,24.81,25.18,84.1-4.17,86.92-20.27,1.95-84.51-23.99-102.94,19.76-23.06,54.74-104.75,47.26-84.37,18.08,52.1-74.61-143.55-4.37-165.25,70.14-13.61,46.73-103.18-51.43-136.56,55.11"/><path class="cls-1" d="M1510.5,771.93c-29.99,19.96-54.37,33.45-73.83,42.16-61.63,27.58-71.85,6.12-69.97-19.78,1.51-20.36,8.43-41.47.36-40.67-21.5,2.2-46.35-9.76-50.02-29.82-.39-2.15-2.74-3.58-6.2-4.64-14.46-4.45-47.81-1.76-51.56-10.66-4.88-11.6,36.79-36.54,23.12-36.21-12.72.31-24.95,4.12-37.47,4-12.81-.12-33.48-6.48-53.8-15.15-37.63-16.04-73.35-40.55-52.54-50.84,18.1-8.95,25.34-17.59,25.77-26.02,1.97-36.85-126.3-67.7-40.59-85.5,6.21-1.29,13.53-2.56,22.09-3.73,36.53-5.1,46.41-64.15,35.53-98.21-2.19-6.89-7.2-7.96-14-5.68-3.96,1.32-8.52,3.79-13.42,6.9-14.84,9.35-32.91,24.35-48.31,32.02-5.22,2.59-10.14,4.22-14.51,4.63-11.95,1.12-1.18-61.24-7.53-71.61-.8-1.3-1.77-1.79-3.12-1.14-31.01,14.83-63.45,29.62-83.1,55.51-22.71,29.83-23.35,68.48-33.82,104.88-10.8,37.55-37.23,77.55-75.82,80.9-33.47,2.91-63.31-23.81-96.31-16.46-4.69,1.04-9.25,2.84-13.79,4.96-6.62,3.09-12.93,6.61-18.8,10.88-4.45,3.24-8.71,6.77-12.77,10.47-13.07,11.92-23.98,26.06-32.51,41.39-6.93,12.56-.82,32.93,2.06,50.49,2.96,18.05,5.85,33.06-8.78,35.12-13.29,1.87-45.62-8.55-70.39-2.82-13.07,3.02-24.61,10.11-30.98,24.97-7.47,17.26-20.99,27.87-34.97,33.64-19.33,8.05-39.97,6.6-48.76-.73-4.76-3.96-5.94-9.71-1.33-16.69,34.12-51.9-50.58-34.22-112.09,6.06-25.98,17-48.19,38.12-55.28,59.95-14.88,45.82-102.61-47.66-133.99,58.1"/><path class="cls-2" d="M1508.65,773.11c-29.76,20.23-54.57,33.73-74.57,42.46-60.92,26.59-73.44,7.08-71.36-19.13,1.69-20.76,8.34-41.72.35-41.15-21.26,1.54-46.38-8.72-50.92-27.96-.49-2.07-2.9-3.45-6.33-4.58-14.51-4.78-45.98-3.21-49.47-12.59-4.43-11.9,35.63-36.64,21.23-36.44-12.52.17-24.37,3.77-36.46,3.38-12.38-.4-32.3-6.94-52.15-15.5-36.71-15.79-71.77-39.56-52.07-49.55,17.27-8.76,24.07-17.12,24.35-25.39,1.19-36.07-122.47-66.46-39.37-84.66,6.06-1.33,13.19-2.66,21.52-3.92,35.62-5.39,45.45-63.15,34.81-96.67-2.16-6.85-7.08-8.04-13.84-5.96-3.97,1.22-8.55,3.62-13.46,6.63-14.95,9.17-33.1,23.82-48.39,31.71-5.17,2.65-10.02,4.28-14.29,4.9-11.98,1.75-1.2-57.08-8.16-67.02-.85-1.22-1.79-1.71-3.14-1.08-30.76,14.45-63,27.69-82.82,51.56-22.94,27.45-23.59,63.57-35.16,98.62-12.37,37.47-39.28,76.75-76.07,81.4-31.84,4.02-59.16-20.72-90.59-12.34-4.45,1.19-8.85,3.17-13.42,5.36-6.65,3.18-13.13,6.2-19.11,10.41-4.53,3.19-8.82,6.75-12.91,10.48-13.11,11.97-23.9,26.4-32.29,41.97-6.97,12.93-.6,33.33.76,50.34,1.4,17.49,4.25,31.3-10.02,33.96-13.33,2.48-45.87-7.69-69.61-1-12.57,3.54-23.75,10.93-30.18,25.54-7.56,17.18-21.47,27.24-35.43,32.69-19.26,7.52-39.61,5.73-48.54-1.76-4.76-3.98-6.05-9.67-1.77-16.57,31.75-51.24-51.94-35.13-113.21,3.53-25.88,16.32-48.52,36.8-56.27,58.35-16.13,44.9-102.03-43.89-131.42,61.09"/><path class="cls-8" d="M1506.8,774.29c-29.53,20.51-54.76,34.01-75.3,42.76-60.19,25.64-75.02,8.04-72.76-18.48,1.87-21.16,8.26-41.97.34-41.62-21.01.92-46.43-7.71-51.82-26.09-.58-1.99-3.06-3.33-6.45-4.52-14.56-5.12-44.15-4.64-47.39-14.52-4-12.19,34.48-36.74,19.34-36.67-12.31.06-23.78,3.41-35.45,2.76-11.95-.67-31.13-7.39-50.51-15.84-35.79-15.55-70.19-38.57-51.59-48.26,16.43-8.56,22.82-16.65,22.93-24.76.48-35.29-118.64-65.22-38.15-83.81,5.91-1.37,12.84-2.78,20.94-4.12,34.7-5.74,44.49-62.14,34.09-95.12-2.13-6.8-6.97-8.12-13.68-6.23-3.98,1.12-8.58,3.44-13.5,6.36-15.08,8.96-33.27,23.33-48.48,31.4-5.11,2.71-9.91,4.35-14.08,5.18-12.04,2.4-1.18-52.87-8.79-62.44-.9-1.13-1.81-1.63-3.16-1.01-30.51,14.08-62.49,25.82-82.54,47.61-23.11,25.12-23.92,58.67-36.51,92.36-14,37.47-41.34,75.96-76.32,81.9-30.22,5.13-55.05-17.63-84.87-8.23-4.22,1.33-8.45,3.51-13.04,5.76-6.68,3.26-13.33,5.79-19.42,9.94-4.6,3.15-8.93,6.73-13.05,10.49-13.16,12.01-23.78,26.76-32.06,42.55-6.99,13.31-.39,33.81-.55,50.19-.16,17.08,2.64,29.56-11.27,32.79-13.4,3.11-46.13-6.82-68.84.83-12.07,4.06-22.92,11.74-29.38,26.1-7.69,17.08-21.94,26.63-35.89,31.73-19.18,7.02-39.25,4.86-48.31-2.79-4.76-4-6.16-9.64-2.21-16.45,29.32-50.64-53.29-36.03-114.32,1-25.79,15.63-48.85,35.47-57.26,56.75-17.37,43.98-101.46-40.11-128.84,64.07"/><path class="cls-20" d="M1504.95,775.46c-29.3,20.79-54.95,34.29-76.04,43.06-59.45,24.72-76.61,9-74.15-17.82,2.06-21.56,8.18-42.21.33-42.1-20.75.3-46.49-6.71-52.71-24.23-.68-1.92-3.22-3.21-6.57-4.47-14.6-5.46-42.33-6.06-45.3-16.45-3.57-12.47,33.33-36.83,17.44-36.89-12.1-.05-23.2,3.06-34.45,2.14-11.52-.94-29.96-7.85-48.86-16.19-34.87-15.3-68.61-37.58-51.11-46.97,15.59-8.37,21.56-16.18,21.51-24.13-.24-34.5-114.8-64-36.93-82.97,5.76-1.4,12.5-2.89,20.37-4.31,33.78-6.08,43.54-61.13,33.37-93.58-2.09-6.76-6.86-8.2-13.52-6.5-3.99,1.02-8.62,3.26-13.54,6.09-15.2,8.75-33.45,22.82-48.56,31.09-5.06,2.77-9.8,4.42-13.86,5.45-12.12,3.06-1.11-48.62-9.42-57.85-.94-1.04-1.83-1.55-3.17-.95-30.3,13.63-62.02,23.91-82.26,43.66-23.32,22.77-24.36,53.79-37.86,86.09-15.69,37.56-43.42,75.17-76.57,82.39-28.62,6.24-50.97-14.51-79.14-4.11-4,1.48-8.05,3.85-12.67,6.15-6.72,3.34-13.53,5.37-19.73,9.47-4.67,3.1-9.04,6.72-13.19,10.51-13.21,12.06-23.66,27.12-31.84,43.13-7,13.7-.23,34.39-1.85,50.04-1.73,16.84,1.02,27.86-12.51,31.63-13.48,3.75-46.4-5.94-68.06,2.65-11.58,4.59-22.09,12.55-28.57,26.66-7.82,16.99-22.41,26.02-36.35,30.77-19.1,6.52-38.9,3.99-48.09-3.82-4.76-4.01-6.27-9.6-2.66-16.33,26.88-50.04-54.65-36.94-115.44-1.53-25.69,14.95-49.18,34.15-58.25,55.15-18.59,43.06-100.88-36.34-126.27,67.06"/><path class="cls-9" d="M1503.1,776.64c-29.07,21.06-55.14,34.58-76.78,43.36-58.7,23.82-78.25,9.95-75.55-17.17,2.19-21.96,8.09-42.45.32-42.57-20.5-.32-46.58-5.73-53.61-22.37-.78-1.85-3.38-3.09-6.7-4.41-14.65-5.8-40.51-7.48-43.22-18.38-3.16-12.73,32.18-36.91,15.55-37.12-11.9-.15-22.62,2.71-33.44,1.52-11.1-1.22-28.78-8.31-47.22-16.54-33.95-15.06-67.03-36.59-50.63-45.67,14.75-8.17,20.31-15.7,20.09-23.5-.95-33.71-110.96-62.79-35.72-82.12,5.62-1.44,12.16-3.01,19.79-4.5,32.86-6.43,42.51-60.11,32.65-92.04-2.07-6.71-6.74-8.29-13.36-6.78-4.01.92-8.66,3.08-13.58,5.82-15.33,8.54-33.64,22.3-48.64,30.78-5,2.83-9.7,4.51-13.64,5.72-12.22,3.75-.98-44.35-10.05-53.26-.98-.96-1.85-1.47-3.19-.88-30.05,13.24-61.56,22.01-81.98,39.71-23.53,20.41-24.9,48.9-39.2,79.83-17.44,37.71-45.52,74.38-76.82,82.89-27.04,7.35-46.93-11.38-73.42,0-3.79,1.63-7.65,4.19-12.3,6.55-6.75,3.42-13.73,4.96-20.04,8.99-4.74,3.05-9.14,6.7-13.32,10.52-13.25,12.1-23.54,27.48-31.61,43.71-7.01,14.09-3.17,34.77-3.15,49.9-6.62,15.76-.61,26.19-13.76,30.46-13.58,4.41-46.68-5.04-67.28,4.48-11.09,5.13-21.26,13.37-27.77,27.22-7.95,16.89-22.88,25.41-36.81,29.81-19.02,6.02-38.52,3.1-47.87-4.84-4.75-4.04-6.38-9.57-3.1-16.21,24.45-49.45-56.01-37.85-116.56-4.06-25.6,14.26-49.5,32.82-59.24,53.56-19.8,42.13-100.31-32.56-123.7,70.05"/><path class="cls-17" d="M1501.24,777.82c-28.84,21.34-55.33,34.88-77.51,43.67-57.93,22.95-79.85,10.91-76.94-16.52,2.37-22.36,8.01-42.69.31-43.05-20.24-.94-46.7-4.77-54.51-20.5-.88-1.78-3.55-2.98-6.82-4.35-14.7-6.15-38.71-8.89-41.14-20.31-2.76-12.99,31.03-37,13.66-37.35-11.69-.24-22.04,2.35-32.44.9-10.68-1.49-27.61-8.76-45.57-16.88-33.03-14.81-65.46-35.6-50.16-44.38,13.9-7.98,19.05-15.23,18.67-22.87-1.66-32.93-107.11-61.6-34.5-81.28,5.47-1.48,11.82-3.12,19.21-4.69,31.95-6.78,41.54-59.1,31.93-90.49-2.04-6.67-6.63-8.38-13.2-7.05-4.02.81-8.69,2.9-13.62,5.55-15.46,8.33-33.82,21.79-48.73,30.47-4.95,2.88-9.6,4.61-13.42,6-12.33,4.46.6-42-10.68-48.67-.83-1.04-1.87-1.39-3.2-.81-29.81,12.86-61.1,20.11-81.7,35.76-23.75,18.06-25.54,44.01-40.55,73.57-19.25,37.92-47.64,73.6-77.07,83.39-25.48,8.47-42.92-8.21-67.7,4.13-3.58,1.78-7.25,4.52-11.93,6.94-6.79,3.5-13.93,4.53-20.35,8.52-4.81,3-9.25,6.68-13.46,10.53-13.3,12.15-23.41,27.84-31.39,44.28-7.02,14.48-3.6,35.2-4.45,49.75-8.86,15.16-2.23,24.55-15,29.3-13.69,5.1-46.98-4.13-66.51,6.3-10.62,5.67-20.43,14.18-26.97,27.78-8.08,16.8-23.35,24.8-37.27,28.86-18.94,5.52-38.17,2.22-47.65-5.87-4.75-4.06-6.49-9.54-3.54-16.09,22.01-48.87-57.37-38.76-117.68-6.59-25.51,13.58-49.81,31.49-60.23,51.96-20.99,41.2-99.74-28.79-121.13,73.03"/><path class="cls-31" d="M1499.39,779c-28.61,21.61-55.51,35.17-78.25,43.97-57.15,22.1-81.44,11.87-78.33-15.87,2.55-22.76,7.93-42.94.3-43.53-19.98-1.55-46.85-3.82-55.41-18.64-.99-1.72-3.71-2.86-6.95-4.29-14.75-6.5-36.91-10.3-39.05-22.25-2.38-13.25,29.88-37.08,11.77-37.58-11.48-.32-21.47,2-31.43.28-10.26-1.77-26.43-9.22-43.93-17.23-32.11-14.57-63.89-34.61-49.68-43.09,13.05-7.79,17.8-14.75,17.25-22.24-2.37-32.13-103.26-60.41-33.28-80.43,5.32-1.52,11.47-3.24,18.64-4.89,31.03-7.13,40.57-58.09,31.21-88.95-2.01-6.62-6.53-8.47-13.04-7.32-4.04.71-8.73,2.72-13.66,5.28-15.59,8.12-34.01,21.27-48.81,30.16-4.89,2.94-9.49,4.72-13.2,6.27-12.45,5.19.88-38.11-11.32-44.09-.84-.99-1.89-1.31-3.22-.75-29.57,12.47-60.65,18.21-81.42,31.81-23.97,15.71-26.29,39.11-41.9,67.31-21.13,38.17-49.79,72.84-77.32,83.88-23.95,9.61-38.95-4.98-61.97,8.24-3.38,1.94-6.85,4.86-11.55,7.34-6.82,3.58-14.13,4.12-20.65,8.05-4.89,2.95-9.36,6.67-13.6,10.54-13.34,12.19-23.29,28.21-31.16,44.86-7.03,14.87-4.03,35.63-5.75,49.6-11.09,14.56-3.87,22.94-16.25,28.13-13.81,5.8-47.28-3.19-65.73,8.13-10.15,6.22-19.61,14.99-26.17,28.34-8.21,16.71-23.82,24.19-37.73,27.9-18.85,5.02-37.81,1.35-47.42-6.9-4.75-4.07-6.6-9.5-3.98-15.97,19.58-48.3-58.72-39.67-118.8-9.12-25.41,12.89-50.11,30.16-61.22,50.36-22.16,40.27-99.16-25.01-118.56,76.02"/><path class="cls-4" d="M1497.54,780.18c-28.38,21.89-55.69,35.48-78.98,44.27-56.36,21.28-83.03,12.82-79.73-15.22,2.73-23.16,7.85-43.17.29-44-19.72-2.17-47.05-2.87-56.3-16.78-1.1-1.65-3.87-2.74-7.07-4.23-14.79-6.86-35.12-11.7-36.97-24.18-2-13.5,28.73-37.15,9.87-37.81-11.27-.39-20.89,1.64-30.43-.34-9.84-2.04-25.26-9.68-42.28-17.58-31.2-14.33-62.33-33.62-49.2-41.8,12.2-7.61,16.55-14.28,15.83-21.61-3.08-31.34-99.4-59.24-32.06-79.59,5.17-1.56,11.13-3.36,18.06-5.08,30.12-7.48,39.61-57.08,30.49-87.41-1.98-6.58-6.42-8.56-12.88-7.6-4.05.6-8.77,2.53-13.7,5.01-15.72,7.91-34.19,20.75-48.9,29.85-4.84,2.99-9.39,4.84-12.99,6.54-12.57,5.94,1.17-34.22-11.95-39.5-.86-.93-1.92-1.23-3.24-.68-29.32,12.08-60.19,16.31-81.13,27.86-24.2,13.36-27.12,34.18-43.24,61.05-23.08,38.46-51.95,72.1-77.56,84.38-22.43,10.76-35-1.7-56.25,12.36-3.19,2.11-6.45,5.2-11.18,7.73-6.85,3.66-14.33,3.7-20.96,7.58-4.96,2.9-9.47,6.65-13.74,10.55-13.39,12.23-23.16,28.57-30.94,45.44-7.04,15.26-4.47,36.06-7.05,49.45-13.33,13.97-5.49,21.35-17.49,26.97-13.94,6.53-47.59-2.23-64.96,9.96-9.68,6.79-18.78,15.8-25.37,28.9-8.34,16.61-24.29,23.59-38.19,26.94-18.77,4.53-37.45.48-47.2-7.93-4.75-4.09-6.72-9.47-4.43-15.84,17.15-47.73-60.08-40.58-119.92-11.65-25.32,12.2-50.41,28.83-62.22,48.76-23.32,39.35-98.59-21.24-115.99,79.01"/><path class="cls-32" d="M1495.69,781.35c-28.15,22.16-55.86,35.78-79.72,44.57-55.56,20.47-84.62,13.78-81.12-14.56,2.9-23.56,7.77-43.41.28-44.48-19.46-2.78-47.28-1.92-57.2-14.92-1.22-1.59-4.03-2.63-7.2-4.17-14.84-7.22-33.34-13.11-34.89-26.11-1.63-13.75,27.59-37.22,7.98-38.03-11.06-.46-20.32,1.28-29.42-.96-9.42-2.32-24.07-10.17-40.64-17.92-30.25-14.15-60.77-32.62-48.72-40.51,11.34-7.42,15.29-13.8,14.41-20.98-3.78-30.54-95.54-58.1-30.85-78.75,5.03-1.61,10.79-3.47,17.49-5.27,29.21-7.83,38.64-56.08,29.77-85.86-1.94-6.53-6.31-8.65-12.72-7.87-4.07.5-8.81,2.35-13.74,4.74-15.86,7.69-34.38,20.23-48.98,29.54-4.78,3.05-9.29,4.97-12.77,6.82-12.7,6.72,1.46-30.32-12.58-34.91-.87-.87-1.94-1.15-3.25-.62-29.08,11.7-59.75,14.41-80.85,23.91-24.44,11.01-32.97,26.66-44.59,54.79-31.72,33.55-54.14,71.38-77.81,84.88-20.94,11.94-31.07,1.66-50.53,16.48-3.01,2.29-6.05,5.54-10.81,8.13-6.89,3.74-14.53,3.29-21.27,7.11-5.03,2.85-9.58,6.64-13.88,10.56-13.44,12.28-23.03,28.94-30.71,46.02-7.04,15.65-4.9,36.49-8.35,49.3-15.56,13.37-7.12,19.8-18.74,25.81-14.07,7.27-47.89-1.25-64.18,11.78-9.22,7.37-17.96,16.61-24.57,29.46-8.48,16.52-24.75,22.98-38.65,25.98-18.68,4.04-37.09-.39-46.98-8.96-4.75-4.11-6.83-9.44-4.87-15.72,14.71-47.18-61.44-41.48-121.03-14.18-25.23,11.52-50.69,27.5-63.21,47.16-24.46,38.43-98.01-17.46-113.42,81.99"/><path class="cls-30" d="M1493.84,782.53c-27.92,22.44-56.04,36.09-80.45,44.87-54.75,19.69-86.21,14.74-82.52-13.91,3.08-23.96,7.69-43.65.27-44.96-19.2-3.38-47.56-.97-58.1-13.05-1.33-1.53-4.19-2.52-7.32-4.11-14.89-7.58-31.57-14.51-32.8-28.04s26.44-37.28,6.09-38.26c-10.85-.52-19.75.92-28.41-1.58-9.01-2.6-22.89-10.63-38.99-18.27-29.32-13.91-59.22-31.63-48.25-39.22,10.47-7.24,14.04-13.32,12.99-20.35-4.47-29.75-91.68-56.96-29.63-77.9,4.88-1.65,10.45-3.59,16.91-5.46,28.3-8.19,37.68-55.07,29.05-84.32-1.91-6.49-6.21-8.75-12.55-8.14-4.09.39-8.85,2.17-13.79,4.47-15.99,7.47-34.56,19.71-49.07,29.23-4.73,3.11-9.18,5.11-12.55,7.09-12.82,7.52,1.74-26.43-13.21-30.32-.88-.82-1.96-1.07-3.27-.55-28.83,11.31-59.31,12.51-80.57,19.96-24.68,8.65-34.05,21.46-45.93,48.52-34.22,33.09-56.33,70.71-78.06,85.37-19.47,13.14-27.13,5.11-44.81,20.6-2.83,2.48-5.65,5.87-10.43,8.52-6.92,3.83-14.72,2.87-21.58,6.64-5.1,2.8-9.69,6.62-14.02,10.58-13.48,12.32-22.9,29.3-30.49,46.6-7.05,16.05-5.33,36.92-9.65,49.16-17.79,12.78-8.74,18.26-19.98,24.64-14.19,8.04-48.19-.24-63.4,13.61-8.75,7.97-17.14,17.41-23.76,30.03-8.62,16.42-25.22,22.38-39.11,25.03-18.59,3.54-36.73-1.27-46.76-9.98-4.75-4.13-6.94-9.42-5.31-15.6,12.27-46.63-62.8-42.39-122.15-16.71-25.13,10.83-50.97,26.18-64.2,45.56-25.59,37.51-97.44-13.69-110.84,84.98"/><path class="cls-19" d="M1491.99,783.71c-27.69,22.71-56.21,36.41-81.19,45.18-53.93,18.93-87.79,15.7-83.91-13.26,3.27-24.36,7.61-43.89.26-45.43-18.94-3.99-47.87,0-59-11.19-1.46-1.47-4.35-2.4-7.44-4.05-14.93-7.95-29.8-15.91-30.72-29.97-.93-14.24,25.29-37.34,4.19-38.49-10.64-.58-19.18.56-27.41-2.2-8.6-2.88-21.71-11.09-37.35-18.62-28.4-13.67-57.68-30.63-47.77-37.93,9.6-7.06,12.79-12.85,11.57-19.72-5.16-28.95-87.81-55.85-28.41-77.06,4.74-1.69,10.11-3.71,16.33-5.65,27.39-8.54,36.71-54.06,28.33-82.78-1.88-6.44-6.1-8.85-12.39-8.42-4.11.28-8.89,1.98-13.83,4.2-16.13,7.26-34.75,19.19-49.15,28.92-4.68,3.16-9.07,5.26-12.33,7.36-12.93,8.35,2.03-22.54-13.84-25.74-.9-.76-1.98-.98-3.28-.49-28.59,10.93-58.88,10.6-80.29,16.01-24.93,6.3-35.13,16.26-47.28,42.26-36.71,32.63-58.54,70.07-78.31,85.87-18,14.38-20.46,11.9-39.08,24.71-2.11,3.14-5.25,6.21-10.06,8.92-6.96,3.91-14.92,2.46-21.89,6.17-5.17,2.76-9.8,6.6-14.16,10.59-13.53,12.37-22.76,29.67-30.26,47.18-7.05,16.44-5.76,37.35-10.95,49.01-20.03,12.18-10.35,16.75-21.23,23.48-14.31,8.84-48.49.8-62.63,15.43-8.28,8.57-16.33,18.22-22.96,30.59-8.76,16.32-25.68,21.77-39.57,24.07-18.5,3.06-36.38-2.14-46.53-11.01-4.74-4.14-7.05-9.39-5.76-15.48,9.82-46.1-64.15-43.3-123.27-19.24-25.04,10.15-51.25,24.85-65.19,43.96-26.7,36.59-96.86-9.92-108.27,87.97"/><path class="cls-12" d="M1490.14,784.89c-27.45,22.99-56.37,36.73-81.93,45.48-53.11,18.18-89.38,16.66-85.31-12.61,3.45-24.76,7.53-44.12.25-45.91-18.68-4.59-48.22,1-59.89-9.33-1.58-1.4-4.51-2.29-7.57-3.99-14.97-8.32-28.04-17.31-28.63-31.9-.59-14.49,24.15-37.39,2.3-38.72-10.43-.63-18.61.19-26.4-2.82-8.19-3.17-20.54-11.55-35.7-18.96-27.48-13.43-56.15-29.63-47.29-36.63,8.71-6.88,11.54-12.37,10.14-19.09-5.85-28.15-83.95-54.77-27.19-76.21,4.6-1.74,9.77-3.83,15.76-5.85,26.48-8.91,35.75-53.06,27.61-81.23-1.85-6.4-6-8.95-12.23-8.69-4.13.17-8.93,1.8-13.87,3.93-16.27,7.04-34.94,18.67-49.23,28.61-4.62,3.22-8.96,5.41-12.11,7.64-13.03,9.2,2.31-18.65-14.47-21.15-.91-.7-2-.9-3.3-.42-28.34,10.55-58.45,8.69-80.01,12.06-25.18,3.94-36.22,11.07-48.63,36-39.21,32.16-60.74,69.49-78.56,86.37-16.54,15.67-16.18,15.43-33.36,28.83-1.85,3.34-4.85,6.55-9.69,9.31-6.99,3.99-15.12,2.04-22.2,5.7-5.24,2.71-9.91,6.59-14.29,10.6-13.57,12.41-22.62,30.04-30.04,47.76-7.05,16.83-6.19,37.78-12.26,48.86-22.26,11.58-11.95,15.26-22.48,22.31-14.41,9.65-48.77,1.86-61.85,17.26-7.81,9.19-15.51,19.03-22.16,31.15-8.9,16.23-26.14,21.17-40.03,23.11-18.41,2.57-36.02-3.01-46.31-12.04-4.74-4.16-7.17-9.36-6.2-15.36,7.37-45.57-65.51-44.21-124.39-21.77-24.95,9.46-51.51,23.53-66.18,42.36-27.79,35.69-96.29-6.14-105.7,90.95"/><path class="cls-29" d="M1488.29,786.07c-27.22,23.26-56.54,37.06-82.66,45.78-52.28,17.45-90.97,17.61-86.7-11.95,3.63-25.16,7.45-44.36.24-46.39-18.42-5.19-48.59,2.01-60.79-7.46-1.71-1.33-4.67-2.18-7.69-3.93-15.01-8.7-26.29-18.71-26.55-33.83-.25-14.73,23-37.44.41-38.95-10.22-.68-18.05-.18-25.4-3.44-7.78-3.45-19.36-12.01-34.06-19.31-26.56-13.19-54.64-28.63-46.81-35.34,7.81-6.7,10.29-11.89,8.72-18.46-6.53-27.34-80.08-53.71-25.98-75.37,4.45-1.78,9.42-3.95,15.18-6.04,25.57-9.27,34.79-52.05,26.89-79.69-1.81-6.35-5.9-9.05-12.07-8.96-4.14.06-8.97,1.61-13.91,3.66-16.4,6.81-35.12,18.14-49.32,28.3-4.57,3.27-8.84,5.56-11.9,7.91-13.11,10.07,2.6-14.75-15.1-16.56-.93-.65-2.02-.82-3.32-.35-28.09,10.17-58.02,6.78-79.73,8.11-25.44,1.57-37.3,5.87-49.97,29.74-41.71,31.7-62.92,68.95-78.81,86.87-15.07,16.99-11.91,18.96-27.64,32.95-1.6,3.54-4.45,6.89-9.32,9.71-7.02,4.07-15.32,1.63-22.5,5.23-5.31,2.66-10.02,6.57-14.43,10.61-13.62,12.46-22.49,30.41-29.81,48.33-7.04,17.23-6.62,38.21-13.56,48.71-24.5,10.99-13.54,13.79-23.72,21.15-14.51,10.49-49.03,2.93-61.08,19.08-7.32,9.82-14.7,19.83-21.36,31.71-9.05,16.13-26.61,20.57-40.49,22.15-18.32,2.08-35.66-3.88-46.09-13.07-4.74-4.18-7.28-9.34-6.64-15.24,4.91-45.05-66.87-45.12-125.51-24.29-24.85,8.78-51.77,22.21-67.17,40.76-28.88,34.79-95.71-2.37-103.13,93.94"/><path class="cls-33" d="M1486.43,787.24c-26.99,23.54-56.7,37.4-83.4,46.08-51.44,16.74-92.55,18.57-88.1-11.3,3.81-25.56,7.37-44.59.23-46.86-18.15-5.78-48.99,3.06-61.69-5.6-1.85-1.26-4.83-2.07-7.82-3.87-15.05-9.08-24.55-20.11-24.47-35.76s21.85-37.48-1.49-39.17c-10.01-.73-17.48-.55-24.39-4.06-7.37-3.75-18.19-12.47-32.41-19.65-25.64-12.95-53.14-27.61-46.34-34.05,6.89-6.52,9.05-11.41,7.3-17.82-7.21-26.54-76.21-52.67-24.76-74.52,4.31-1.83,9.08-4.07,14.61-6.23,24.66-9.64,33.83-51.04,26.17-78.14-1.78-6.31-5.79-9.16-11.91-9.24-4.16-.05-9.01,1.43-13.95,3.39-16.54,6.59-35.31,17.62-49.4,27.99-4.52,3.32-8.72,5.72-11.68,8.18-13.18,10.96,2.89-10.86-15.73-11.97-.94-.59-2.04-.74-3.33-.29-27.84,9.79-57.59,4.85-79.44,4.16-25.7-.81-38.39.67-51.32,23.48-44.2,31.24-65.08,68.46-79.06,87.36-13.57,18.36-7.63,22.49-21.91,37.07-1.34,3.75-4.05,7.22-8.94,10.11-7.06,4.15-15.51,1.21-22.81,4.76-5.38,2.61-10.13,6.55-14.57,10.62-13.67,12.5-22.34,30.78-29.59,48.91-7.04,17.63-7.05,38.64-14.86,48.56-26.73,10.39-15.12,12.32-24.97,19.99-14.59,11.35-49.27,4.02-60.3,20.91-6.83,10.46-13.89,20.64-20.56,32.27-9.2,16.03-27.07,19.98-40.95,21.2-18.22,1.6-35.31-4.75-45.87-14.1-4.74-4.19-7.4-9.32-7.08-15.11,2.43-44.54-68.22-46.03-126.63-26.82-24.76,8.09-52.03,20.9-68.16,39.16-29.95,33.9-95.14,1.41-100.56,96.92"/><path class="cls-14" d="M1484.58,788.42c-26.76,23.81-56.86,37.74-84.13,46.38-50.59,16.04-94.14,19.53-89.49-10.65,4-25.96,7.29-44.82.22-47.34-17.89-6.37-49.4,4.13-62.59-3.74-1.98-1.18-4.99-1.96-7.94-3.81-15.09-9.46-22.81-21.51-22.38-37.69.4-15.23,20.71-37.51-3.38-39.4-9.8-.77-16.92-.93-23.39-4.68-6.97-4.04-17.01-12.93-30.77-20-24.71-12.71-51.67-26.57-45.86-32.76s7.8-10.94,5.88-17.19c-7.88-25.74-72.34-51.67-23.54-73.68,4.17-1.88,8.74-4.19,14.03-6.42,23.76-10.01,32.87-50.04,25.45-76.6-1.75-6.26-5.69-9.27-11.75-9.51-4.18-.17-9.05,1.24-13.99,3.12-16.68,6.37-35.5,17.1-49.49,27.68-4.46,3.38-8.59,5.88-11.46,8.46-13.23,11.87,3.17-6.97-16.36-7.39-.96-.53-2.06-.66-3.35-.22-27.6,9.41-57.17,2.92-79.16.21-25.96-3.2-39.47-4.52-52.67,17.22-46.7,30.78-67.2,68-79.3,87.86-12.04,19.76-3.35,26.01-16.19,41.19-1.08,3.95-3.65,7.56-8.57,10.5-7.09,4.23-15.71.8-23.12,4.29-5.45,2.57-10.24,6.54-14.71,10.63-13.71,12.55-22.2,31.15-29.36,49.49-7.04,18.02-7.48,39.07-16.16,48.42-28.96,9.8-16.69,10.88-26.21,18.82-14.65,12.22-49.5,5.12-59.52,22.73-6.32,11.1-13.08,21.44-19.76,32.83-9.34,15.93-27.53,19.38-41.41,20.24-18.13,1.12-34.95-5.62-45.64-15.12-4.74-4.21-7.52-9.29-7.53-14.99-.05-44.04-69.58-46.93-127.74-29.35-24.66,7.41-52.28,19.59-69.16,37.57-31.01,33.02-94.57,5.18-97.99,99.91"/><path class="cls-15" d="M1482.73,789.6c-26.53,24.09-57.02,38.09-84.87,46.69-49.74,15.36-95.72,20.49-90.88-10,4.18-26.36,7.21-45.06.21-47.82-17.63-6.96-49.81,5.23-63.48-1.87-2.12-1.1-5.15-1.85-8.07-3.75-15.12-9.85-21.08-22.91-20.3-39.62.72-15.48,19.56-37.53-5.27-39.63-9.59-.81-16.36-1.31-22.38-5.3-6.57-4.35-15.84-13.39-29.12-20.35-23.79-12.47-49.1-24.75-45.38-31.47,6-5.16,6.56-10.46,4.46-16.56-8.54-24.93-68.47-50.69-22.32-72.83,4.03-1.93,8.4-4.32,13.46-6.62,22.85-10.39,31.91-49.03,24.73-75.06-1.71-6.22-5.59-9.38-11.59-9.78-4.2-.28-9.09,1.05-14.03,2.86-16.82,6.14-35.69,16.57-49.57,27.37-4.41,3.43-8.47,6.05-11.24,8.73-13.25,12.79,3.46-3.07-17-2.8-.97-.48-2.08-.58-3.36-.16-27.35,9.03-56.74.99-78.88-3.74-26.21-5.59-40.56-9.72-54.01,10.95-49.19,30.31-69.28,67.57-79.55,88.36-10.47,21.18.92,29.54-10.47,45.3-.83,4.15-3.25,7.9-8.2,10.9-7.13,4.31-15.91.39-23.43,3.82-5.52,2.52-10.34,6.52-14.85,10.64-13.76,12.59-22.06,31.53-29.14,50.07-7.03,18.42-7.91,39.5-17.46,48.27-31.2,9.2-18.25,9.43-27.46,17.66-14.69,13.12-49.7,6.23-58.75,24.56-5.8,11.75-12.27,22.25-18.96,33.39-9.5,15.83-27.99,18.78-41.87,19.28-18.04.64-34.59-6.49-45.42-16.15-4.74-4.23-7.64-9.27-7.97-14.87-2.55-43.54-70.94-47.84-128.86-31.88-24.57,6.72-52.52,18.29-70.15,35.97-32.06,32.15-93.99,8.96-95.41,102.9"/><path class="cls-10" d="M1480.88,790.78c-26.3,24.36-57.18,38.45-85.6,46.99-48.89,14.69-97.3,21.45-92.28-9.34,4.37-26.76,7.13-45.29.2-48.29-17.37-7.55-50.23,6.35-64.38-.01-2.26-1.01-5.31-1.75-8.19-3.69-15.15-10.24-19.35-24.32-18.22-41.56,1.04-15.73,18.41-37.55-7.16-39.86-9.39-.85-15.79-1.7-21.37-5.92-6.16-4.65-14.66-13.84-27.48-20.69-22.87-12.22-47.49-23.7-44.91-30.18,5.19-4.91,5.31-9.98,3.04-15.93-9.2-24.13-64.61-49.76-21.11-71.99,3.89-1.99,8.06-4.44,12.88-6.81,21.95-10.77,30.96-48.03,24.01-73.51-1.68-6.17-5.49-9.49-11.43-10.06-4.22-.4-9.13.86-14.07,2.59-16.96,5.91-35.88,16.04-49.65,27.06-4.36,3.48-8.33,6.22-11.02,9-13.26,13.73,3.74.82-17.63,1.79-.99-.42-2.1-.5-3.38-.09-27.1,8.66-56.31-.95-78.6-7.69-26.46-7.99-41.64-14.91-55.36,4.69-51.69,29.85-71.31,67.15-79.8,88.85-8.85,22.62,5.2,33.07-4.74,49.42-.57,4.36-2.85,8.24-7.82,11.29-7.16,4.39-16.11-.03-23.74,3.35-5.59,2.47-10.45,6.51-14.99,10.66-13.81,12.63-21.92,31.9-28.91,50.65-7.02,18.82-8.35,39.93-18.76,48.12-33.43,8.6-19.8,8-28.7,16.49-14.71,14.03-49.89,7.34-57.97,26.38-5.26,12.41-11.46,23.05-18.15,33.96-9.65,15.73-28.45,18.19-42.33,18.32-17.94.17-34.24-7.36-45.2-17.18-4.74-4.24-7.76-9.25-8.41-14.75-5.07-43.04-72.3-48.75-129.98-34.41-24.48,6.03-52.76,16.99-71.14,34.37-33.1,31.29-93.42,12.73-92.84,105.88"/><path class="cls-6" d="M1479.03,791.96c-26.07,24.64-57.33,38.81-86.34,47.29-48.03,14.03-98.88,22.41-93.67-8.69,4.55-27.16,7.05-45.51.19-48.77-17.12-8.14-50.65,7.5-65.28,1.85-2.4-.92-5.47-1.64-8.31-3.64-15.18-10.64-17.63-25.72-16.13-43.49,1.35-15.99,17.26-37.55-9.06-40.09-9.18-.88-15.22-2.1-20.37-6.54-5.75-4.97-13.49-14.3-25.83-21.04-21.95-11.98-45.87-22.65-44.43-28.89,4.38-4.66,4.07-9.5,1.62-15.3-9.85-23.33-60.75-48.86-19.89-71.15,3.75-2.04,7.72-4.57,12.3-7,21.04-11.16,30-47.02,23.29-71.97-1.65-6.13-5.38-9.61-11.27-10.33-4.24-.52-9.17.68-14.11,2.32-17.11,5.68-36.07,15.52-49.74,26.75-4.3,3.54-8.2,6.39-10.81,9.28-13.24,14.68,4.03,4.71-18.26,6.38-1-.36-2.12-.42-3.39-.02-26.85,8.28-55.87-2.9-78.32-11.64-26.71-10.39-42.72-20.11-56.71-1.57-54.18,29.39-73.3,66.73-80.05,89.35-7.18,24.05,9.47,36.6.98,53.54-.31,4.56-2.45,8.57-7.45,11.69-7.2,4.48-16.3-.44-24.05,2.88-5.66,2.43-10.56,6.49-15.13,10.67-13.85,12.68-21.77,32.27-28.69,51.23-7.01,19.22-8.78,40.36-20.06,47.97-35.67,8.01-21.33,6.57-29.95,15.33-14.71,14.95-50.06,8.45-57.2,28.21-4.72,13.06-10.66,23.85-17.35,34.52-9.81,15.62-28.91,17.6-42.79,17.37-17.85-.3-33.88-8.23-44.98-18.21-4.74-4.26-7.89-9.23-8.86-14.63-7.61-42.54-73.65-49.66-131.1-36.94-24.38,5.35-52.99,15.7-72.13,32.77-34.14,30.44-92.84,16.5-90.27,108.87"/><path class="cls-22" d="M1477.18,793.13c-25.84,24.91-57.48,39.19-87.08,47.59-47.17,13.39-100.47,23.37-95.07-8.04,4.74-27.56,6.96-45.74.18-49.25-16.86-8.72-51.05,8.67-66.18,3.71-2.53-.83-5.62-1.53-8.44-3.58-15.21-11.03-15.92-27.13-14.05-45.42,1.66-16.24,16.11-37.55-10.95-40.32-8.97-.92-14.65-2.5-19.36-7.16-5.34-5.29-12.31-14.76-24.19-21.39-21.03-11.74-44.26-21.6-43.95-27.59,3.57-4.41,2.83-9.03.2-14.67-10.49-22.53-56.91-48-18.67-70.3,3.6-2.1,7.38-4.7,11.73-7.19,20.13-11.55,29.05-46.02,22.58-70.43-1.61-6.08-5.28-9.73-11.11-10.6-4.26-.64-9.21.49-14.15,2.05-17.25,5.44-36.26,14.99-49.82,26.44-4.25,3.59-8.06,6.55-10.59,9.55-13.2,15.63,4.32,8.6-18.89,10.96-1.02-.31-2.15-.33-3.41.04-26.6,7.91-55.43-4.85-78.04-15.59-26.95-12.8-43.81-25.31-58.05-7.83-56.68,28.92-75.25,66.29-80.3,89.85-5.46,25.48,13.75,40.13,6.7,57.66-.06,4.76-2.05,8.91-7.08,12.08-7.23,4.56-16.5-.85-24.36,2.41-5.74,2.38-10.67,6.47-15.27,10.68-13.9,12.72-21.62,32.64-28.46,51.8-7,19.62-8.21,42.89-21.36,47.82-36.16,13.56-22.86,5.15-31.19,14.17-14.69,15.89-50.21,9.55-56.42,30.03-4.16,13.71-9.85,24.65-16.55,35.08-9.97,15.52-29.38,17.01-43.26,16.41-17.76-.77-33.53-9.1-44.75-19.24-4.74-4.28-8.02-9.21-9.3-14.51-10.16-42.03-75.01-50.57-132.22-39.47-24.29,4.66-53.22,14.42-73.12,31.17-35.17,29.6-92.27,20.28-87.7,111.86"/><path class="cls-18" d="M1475.33,794.31c-25.61,25.19-57.63,39.58-87.81,47.89-46.31,12.76-102.05,24.33-96.46-7.39,4.92-27.96,6.88-45.97.17-49.72-16.61-9.3-51.45,9.86-67.08,5.58-2.67-.73-5.78-1.43-8.56-3.52-15.23-11.43-14.21-28.54-11.96-47.35,1.97-16.5,14.96-37.54-12.84-40.54-8.76-.95-14.08-2.9-18.36-7.78-4.92-5.61-11.14-15.22-22.54-21.73-20.11-11.49-42.64-20.55-43.47-26.3,2.77-4.16,1.59-8.55-1.22-14.04-11.13-21.74-53.07-47.18-17.45-69.46,3.46-2.17,7.04-4.82,11.15-7.38,19.22-11.96,28.09-45.02,21.86-68.88-1.58-6.04-5.18-9.85-10.95-10.88-4.28-.76-9.25.3-14.19,1.78-17.39,5.21-36.45,14.46-49.91,26.13-4.2,3.64-7.92,6.72-10.37,9.82-13.14,16.6,4.6,12.5-19.52,15.55-1.03-.25-2.17-.25-3.43.11-26.34,7.54-54.99-6.79-77.75-19.54-27.18-15.21-44.89-30.5-59.4-14.09-59.17,28.46-77.17,65.83-80.55,90.34-3.71,26.89,14.88,42.97,12.42,61.77-.64,4.93-1.65,9.25-6.71,12.48-7.26,4.64-16.7-1.27-24.66,1.94-5.81,2.33-10.78,6.46-15.4,10.69-13.94,12.77-21.47,33.02-28.24,52.38-6.99,20.01-8.84,43.19-22.67,47.68-38.72,12.58-24.38,3.73-32.44,13-14.64,16.84-50.34,10.65-55.64,31.86-3.59,14.35-9.05,25.45-15.75,35.64-10.13,15.41-29.84,16.42-43.72,15.45-17.66-1.24-33.17-9.97-44.53-20.26-4.74-4.29-8.15-9.18-9.74-14.39-12.73-41.52-76.37-51.48-133.34-42-24.2,3.98-53.45,13.14-74.11,29.57-36.2,28.77-91.69,24.05-85.13,114.84"/><path class="cls-5" d="M1473.48,795.49c-25.38,25.46-57.77,39.97-88.55,48.2-45.45,12.14-103.63,25.29-97.86-6.73,5.11-28.36,6.8-46.2.16-50.2-16.36-9.88-51.84,11.06-67.97,7.44-2.8-.63-5.94-1.32-8.69-3.46-15.25-11.84-12.5-29.95-9.88-49.28,2.27-16.76,13.8-37.51-14.74-40.77-8.56-.98-13.49-3.31-17.35-8.4-4.5-5.94-9.96-15.67-20.9-22.08-19.19-11.25-41.03-19.5-43-25.01,1.96-3.91.36-8.08-2.64-13.41-11.76-20.95-49.26-46.41-16.24-68.61,3.32-2.23,6.69-4.96,10.58-7.58,18.31-12.36,27.14-44.01,21.14-67.34-1.54-5.99-5.07-9.97-10.79-11.15-4.3-.89-9.29.11-14.23,1.51-17.54,4.97-36.64,13.93-49.99,25.82-4.15,3.69-7.77,6.89-10.15,10.1-13.05,17.57,5.16,20.58-20.15,20.14-1.06-.02-2.19-.17-3.44.17-26.09,7.17-54.54-8.74-77.47-23.49-27.41-17.62-45.98-35.7-60.75-20.35-61.67,28-79.06,65.35-80.8,90.84-1.92,28.27,19.4,46.77,18.15,65.89-.34,5.18-1.25,9.58-6.33,12.87-7.3,4.72-16.89-1.68-24.97,1.47-5.88,2.29-10.89,6.44-15.54,10.7-13.99,12.81-21.32,33.39-28.01,52.96s-9.44,43.46-23.97,47.53c-41.24,11.54-25.88,2.31-33.68,11.84-14.57,17.8-50.47,11.74-54.87,33.69-3.01,15-8.25,26.25-14.95,36.2-10.29,15.3-30.3,15.84-44.18,14.49-17.57-1.71-32.81-10.84-44.31-21.29-4.74-4.31-8.28-9.16-10.18-14.26-15.31-41-77.73-52.38-134.45-44.53-24.1,3.29-53.67,11.87-75.1,27.97-37.22,27.95-91.12,27.83-82.56,117.83"/><path class="cls-28" d="M1471.62,796.67c-25.15,25.74-57.92,40.38-89.28,48.5-44.58,11.53-105.21,26.25-99.25-6.08,5.3-28.76,6.71-46.42.15-50.68-16.11-10.45-52.21,12.28-68.87,9.3-2.94-.52-6.09-1.22-8.81-3.4-15.27-12.24-10.79-31.37-7.8-51.21,2.57-17.02,12.65-37.48-16.63-41-8.35-1-12.91-3.72-16.35-9.02-4.07-6.27-8.79-16.13-19.25-22.43-18.27-11-39.41-18.45-42.52-23.72,1.15-3.66-.88-7.6-4.06-12.78-12.38-20.16-45.47-45.68-15.02-67.77,3.17-2.3,6.35-5.09,10-7.77,17.39-12.78,26.19-43.01,20.42-65.8-1.51-5.95-4.96-10.09-10.63-11.42-4.31-1.01-9.33-.08-14.27,1.24-17.68,4.73-36.83,13.4-50.07,25.51-4.09,3.75-7.62,7.06-9.93,10.37-12.95,18.54,5.55,24.19-20.78,24.73-1.07.02-2.21-.09-3.46.24-25.84,6.8-54.08-10.69-77.19-27.44-27.64-20.03-47.06-40.89-62.09-26.61-64.16,27.54-80.94,64.85-81.04,91.34-.11,29.63,23.95,50.52,23.87,70.01-.02,5.42-.85,9.92-5.96,13.27-7.33,4.8-17.09-2.09-25.28,1-5.95,2.24-11,6.42-15.68,10.71-14.04,12.86-21.17,33.76-27.79,53.54-6.96,20.81-10.01,43.73-25.27,47.38-43.72,10.46-27.38.88-34.93,10.67-14.47,18.76-50.58,12.82-54.09,35.51-2.42,15.63-7.46,27.05-14.15,36.76-10.46,15.19-30.76,15.26-44.64,13.53-17.48-2.17-32.46-11.71-44.09-22.32-4.74-4.32-8.41-9.13-10.63-14.14-17.9-40.46-79.08-53.29-135.57-47.06-24.01,2.61-53.89,10.61-76.1,26.37-38.24,27.15-90.54,31.6-79.99,120.82"/><path class="cls-23" d="M1469.77,797.85c-24.92,26.02-58.06,40.8-90.02,48.8-43.71,10.94-106.73,27.22-100.64-5.43,5.54-29.14,6.63-46.65.14-51.15-15.86-11.03-52.57,13.5-69.77,11.17-3.07-.42-6.25-1.11-8.94-3.34-15.28-12.65-9.09-32.79-5.71-53.14,2.87-17.28,11.49-37.43-18.52-41.23-8.14-1.03-12.31-4.13-15.34-9.64-3.63-6.61-7.61-16.58-17.61-22.77-17.35-10.75-37.8-17.4-42.04-22.43.34-3.41-2.11-7.13-5.48-12.15-13-19.38-41.71-44.99-13.8-66.92,3.02-2.38,6-5.22,9.42-7.96,16.47-13.2,25.24-42.01,19.7-64.25-1.47-5.91-4.86-10.22-10.47-11.7-4.33-1.14-9.38-.28-14.31.97-17.82,4.48-37.03,12.87-50.16,25.2-4.04,3.8-7.47,7.23-9.72,10.64-12.82,19.51,5.9,27.75-21.41,29.31-1.08.06-2.23,0-3.47.31-25.59,6.44-53.63-12.64-76.91-31.39-27.86-22.43-46.2-43.43-63.44-32.88-61.37,37.56-82.81,64.31-81.29,91.83,1.71,30.96,28.51,54.23,29.59,74.13.31,5.65-.45,10.26-5.59,13.67-7.37,4.88-17.28-2.49-25.59.53-6.01,2.21-11.11,6.41-15.82,10.73-14.08,12.9-21.02,34.14-27.56,54.12-6.94,21.21-10.56,43.99-26.57,47.23-46.17,9.36-28.86-.54-36.17,9.51-14.35,19.73-50.69,13.89-53.32,37.34-1.82,16.26-6.66,27.84-13.35,37.32-10.63,15.07-31.23,14.68-45.1,12.58-17.39-2.63-32.11-12.58-43.86-23.35-4.74-4.34-8.54-9.1-11.07-14.02-20.5-39.91-80.44-54.2-136.69-49.59-23.91,1.92-54.12,9.35-77.09,24.77-39.26,26.35-89.97,35.38-77.41,123.8"/><path class="cls-26" d="M1467.92,799.02c-24.69,26.29-58.2,41.24-90.76,49.1-42.84,10.35-108.31,28.18-102.04-4.78,5.73-29.54,6.54-46.87.13-51.63-15.61-11.6-52.91,14.73-70.67,13.03-3.2-.31-6.4-1.01-9.06-3.28-15.29-13.07-7.4-34.2-3.63-55.07,3.17-17.55,10.33-37.37-20.42-41.46-7.94-1.05-11.71-4.54-14.33-10.26-3.18-6.94-6.44-17.04-15.96-23.12-16.44-10.5-36.18-16.35-41.56-21.14-.47-3.17-3.34-6.66-6.9-11.52-13.61-18.61-37.99-44.36-12.58-66.08,2.87-2.46,5.66-5.35,8.85-8.15,15.53-13.63,24.3-41,18.98-62.71-1.44-5.86-4.75-10.34-10.31-11.97-4.35-1.27-9.42-.47-14.36.7-17.97,4.24-37.22,12.34-50.24,24.9-3.99,3.85-7.32,7.39-9.5,10.92-12.68,20.49,6.23,31.28-22.04,33.9-1.09.1-2.25.07-3.49.37-25.34,6.07-53.17-14.58-76.63-35.34-28.08-24.84-47.61-48.86-64.78-39.14-64.48,36.51-84.67,63.76-81.54,92.33,3.54,32.27,33.09,57.89,35.32,78.24.64,5.87-.05,10.6-5.21,14.06-7.4,4.96-17.48-2.9-25.9.06-6.08,2.16-11.22,6.39-15.96,10.74-14.13,12.95-20.87,34.51-27.34,54.7-6.93,21.61-11.09,44.24-27.87,47.08-48.58,8.23-30.34-1.97-37.42,8.34-14.21,20.71-50.79,14.95-52.54,39.16-1.22,16.89-5.86,28.64-12.54,37.88-10.8,14.96-31.69,14.1-45.56,11.62-17.3-3.09-31.77-13.42-43.64-24.38-4.75-4.35-8.68-9.07-11.51-13.9-23.11-39.35-81.8-55.11-137.81-52.12-23.82,1.24-54.34,8.1-78.08,23.17-40.28,25.57-89.39,39.15-74.84,126.79"/><path class="cls-7" d="M1466.07,800.2c-24.46,26.57-58.33,41.68-91.49,49.4-41.98,9.78-109.9,29.14-103.43-4.12,5.91-29.94,6.45-47.1.12-52.11-15.37-12.18-53.25,15.97-71.56,14.89-3.33-.2-6.55-.9-9.19-3.22-15.3-13.48-5.7-35.63-1.54-57,3.46-17.81,9.16-37.3-22.31-41.68-7.73-1.08-11.11-4.95-13.33-10.88-2.73-7.27-5.27-17.49-14.32-23.47-15.52-10.25-34.57-15.3-41.09-19.85-1.28-2.92-4.57-6.19-8.32-10.89-14.22-17.84-34.31-43.76-11.37-65.24,2.71-2.54,5.31-5.49,8.27-8.35,14.59-14.06,23.35-40,18.26-61.17-1.4-5.82-4.64-10.47-10.15-12.24-4.36-1.4-9.46-.66-14.4.43-18.11,3.99-37.42,11.8-50.33,24.59-3.94,3.9-7.16,7.56-9.28,11.19-12.52,21.47,6.53,34.77-22.67,38.49-1.1.14-2.27.16-3.51.44-25.08,5.71-52.71-16.53-76.35-39.29-28.29-27.24-49.01-54.33-66.13-45.4-67.63,35.26-86.54,63.18-81.79,92.83,5.37,33.56,37.67,61.5,41.04,82.36.98,6.08.34,10.93-4.84,14.46-7.43,5.04-17.68-3.31-26.21-.42-6.15,2.11-11.33,6.38-16.1,10.75-14.18,12.99-20.71,34.89-27.11,55.28-6.91,22.01-11.6,44.49-29.17,46.94-50.96,7.1-31.81-3.4-38.67,7.18-14.05,21.68-50.88,16-51.76,40.99-.62,17.51-5.07,29.43-11.74,38.45-10.98,14.84-32.16,13.52-46.02,10.66-17.21-3.55-31.42-14.29-43.42-25.4-4.75-4.36-8.81-9.04-11.95-13.78-25.73-38.77-83.15-56.02-138.93-54.65-23.73.55-54.56,6.86-79.07,21.58-41.3,24.79-88.82,42.92-72.27,129.78"/><path class="cls-27" d="M1464.22,801.38c-24.23,26.84-58.47,42.14-92.23,49.71-41.11,9.21-111.48,30.09-104.83-3.47,6.09-30.34,6.36-47.32.11-52.58-15.13-12.75-53.56,17.22-72.46,16.76-3.45-.08-6.71-.8-9.31-3.16-15.3-13.9-4.01-37.05.54-58.93,3.76-18.08,8-37.21-24.2-41.91-7.53-1.1-10.49-5.36-12.32-11.5-2.26-7.6-4.09-17.94-12.67-23.81-14.61-10-32.95-14.25-40.61-18.55-2.08-2.67-5.8-5.72-9.74-10.26-14.83-17.08-30.68-43.2-10.15-64.39,2.55-2.63,4.96-5.63,7.7-8.54,13.64-14.51,22.4-39,17.54-59.62-1.36-5.77-4.53-10.6-9.99-12.52-4.37-1.53-9.5-.85-14.44.16-18.26,3.74-37.62,11.27-50.41,24.28-3.89,3.95-7,7.72-9.06,11.46-12.34,22.44,6.8,38.23-23.31,43.08-1.11.18-2.29.24-3.52.5-24.83,5.35-52.25-18.47-76.07-43.24-28.51-29.64-50.38-59.82-67.48-51.66-70.82,33.8-88.4,62.58-82.04,93.32,7.21,34.83,42.26,65.07,46.76,86.48,1.32,6.29.74,11.27-4.47,14.85-7.47,5.12-17.88-3.73-26.52-.89-6.23,2.07-11.43,6.36-16.24,10.76-14.22,13.03-20.56,35.26-26.89,55.85-6.89,22.41-12.1,44.74-30.47,46.79-53.31,5.95-33.27-4.83-39.91,6.02-13.87,22.66-50.98,17.04-50.99,42.81,0,18.12-4.28,30.22-10.94,39.01-11.15,14.71-32.63,12.94-46.48,9.7-17.13-4-31.06-15.16-43.2-26.43-4.74-4.38-8.95-9.01-12.4-13.66-28.34-38.18-84.51-56.93-140.05-57.18-23.63-.13-54.78,5.62-80.06,19.98-42.32,24.03-88.25,46.7-69.7,132.76"/><path class="cls-3" d="M1462.37,802.56c-24,27.12-58.6,42.62-92.96,50.01-40.24,8.65-113.07,31.05-106.22-2.82,6.28-30.74,6.27-47.54.1-53.06-14.89-13.32-53.87,18.46-73.36,18.62-3.58.03-6.86-.69-9.43-3.1-15.3-14.32-2.32-38.47,2.62-60.86,4.05-18.35,6.83-37.1-26.09-42.14-7.32-1.12-9.88-5.76-11.32-12.12-1.8-7.93-2.92-18.39-11.03-24.16-13.69-9.74-31.95-12.08-40.13-17.26-3.19-2.02-7.03-5.26-11.16-9.63-15.43-16.33-27.12-42.66-8.93-63.55,2.38-2.73,4.61-5.77,7.12-8.73,12.68-14.95,21.46-38,16.82-58.08-1.32-5.73-4.41-10.73-9.83-12.79-4.38-1.66-9.54-1.05-14.48-.11-18.4,3.49-37.81,10.74-50.49,23.97-3.84,4-6.84,7.88-8.84,11.74-12.15,23.41,7.04,41.67-23.94,47.67-1.12.22-2.31.32-3.54.57-24.58,4.99-51.78-20.41-75.78-47.19-28.72-32.04-51.73-65.34-68.82-57.92-74.01,32.13-90.27,61.96-82.29,93.82,9.04,36.08,46.84,68.61,52.48,90.6,1.67,6.48,1.14,11.61-4.1,15.25-7.5,5.21-18.07-4.14-26.82-1.36-6.3,2.02-11.54,6.34-16.37,10.77-14.27,13.08-20.4,35.63-26.66,56.43-6.86,22.82-12.58,44.98-31.77,46.64-55.63,4.81-34.73-6.27-41.16,4.85-13.66,23.64-51.07,18.08-50.21,44.64.6,18.73-3.49,31.01-10.14,39.57-11.34,14.59-33.09,12.37-46.94,8.75-17.04-4.46-30.7-16.03-42.97-27.46-4.74-4.4-9.08-8.97-12.84-13.54-30.96-37.57-85.87-57.83-141.16-59.71-23.54-.82-55,4.39-81.05,18.38-43.34,23.27-87.67,50.47-67.13,135.75"/><path class="cls-13" d="M1460.52,803.74c-23.77,27.39-58.73,43.12-93.7,50.31-39.37,8.1-114.65,32.01-107.62-2.17,6.46-31.14,6.18-47.77.09-53.54-14.66-13.89-54.17,19.71-74.26,20.48-3.7.14-7.01-.59-9.56-3.04-15.29-14.74-.64-39.9,4.71-62.8,4.34-18.62,5.65-36.98-27.99-42.37-7.12-1.14-9.26-6.16-10.31-12.74-1.32-8.25-1.75-18.84-9.38-24.51-12.78-9.49-30.07-11.36-39.65-15.97-3.87-1.86-8.26-4.8-12.58-9-16.04-15.59-23.62-42.14-7.71-62.7,2.19-2.83,4.25-5.9,6.55-8.92,11.7-15.4,20.52-37,16.1-56.53-1.29-5.69-4.3-10.86-9.67-13.06-4.39-1.8-9.58-1.24-14.52-.38-18.54,3.23-38.01,10.2-50.58,23.66-3.79,4.06-6.68,8.04-8.63,12.01-11.95,24.38,7.26,45.1-24.57,52.25-1.14.26-2.33.4-3.55.63-24.33,4.63-51.28-22.39-75.5-51.14-28.89-34.49-53.06-70.89-70.17-64.18-77.21,30.24-92.14,61.33-82.54,94.32,10.86,37.32,51.41,72.11,58.21,94.72,2.01,6.67,1.54,11.95-3.72,15.64-7.54,5.29-18.27-4.56-27.13-1.83-6.37,1.97-11.65,6.33-16.51,10.78-14.31,13.12-20.25,36.01-26.44,57.01-6.84,23.22-13.04,45.23-33.07,46.49-57.93,3.66-36.18-7.71-42.4,3.69-13.44,24.62-51.15,19.1-49.44,46.46,1.21,19.34-2.7,31.8-9.34,40.13-11.52,14.46-33.56,11.79-47.4,7.79-16.96-4.91-30.35-16.9-42.75-28.49-4.74-4.41-9.22-8.94-13.28-13.41-33.57-36.95-87.23-58.74-142.28-62.24-23.45-1.51-55.22,3.16-82.04,16.78-44.36,22.52-87.1,54.25-64.56,138.74"/><path class="cls-16" d="M1458.67,804.91c-23.54,27.67-58.86,43.63-94.43,50.61-38.51,7.56-116.24,32.97-109.01-1.52,6.64-31.54,6.09-47.99.08-54.01-14.42-14.47-54.45,20.96-75.15,22.34-3.82.26-7.17-.49-9.68-2.98-15.28-15.16,1.05-41.33,6.79-64.73,4.64-18.89,4.47-36.84-29.88-42.6-6.92-1.16-8.63-6.55-9.31-13.36-.84-8.56-.58-19.29-7.74-24.85-11.87-9.23-28.28-10.61-39.18-14.68-4.59-1.71-9.49-4.34-14-8.37-16.64-14.86-20.21-41.61-6.5-61.86,1.99-2.93,3.89-6.04,5.97-9.11,10.71-15.85,19.58-35.99,15.38-54.99-1.25-5.64-4.18-10.99-9.51-13.33-4.4-1.93-9.62-1.44-14.56-.65-18.69,2.97-38.23,9.65-50.66,23.35-3.75,4.1-6.52,8.2-8.41,12.28-11.73,25.34,7.44,48.51-25.2,56.84-1.16.29-2.35.49-3.57.7-24.07,4.32-50.83-24.32-75.22-55.09-29.11-36.87-54.35-76.46-71.52-70.45-80.39,28.15-94.01,60.69-82.78,94.81,12.68,38.55,55.97,75.59,63.93,98.83,2.35,6.85,1.94,12.28-3.35,16.04-7.57,5.37-18.47-4.97-27.44-2.3-6.44,1.93-11.76,6.31-16.65,10.8-14.36,13.17-20.05,36.39-26.21,57.59-6.78,23.63-13.5,45.47-34.38,46.34-60.21,2.52-37.62-9.16-43.65,2.52-13.2,25.59-51.24,20.12-48.66,48.29,1.83,19.94-1.91,32.58-8.54,40.69-11.71,14.33-34.04,11.22-47.86,6.83-16.88-5.36-29.99-17.77-42.53-29.52-4.74-4.43-9.35-8.9-13.73-13.29-36.18-36.32-88.58-59.65-143.4-64.76-23.35-2.19-55.44,1.94-83.04,15.18-45.39,21.78-86.52,58.02-61.99,141.72"/><path class="cls-24" d="M1456.81,806.09c-23.31,27.94-58.99,44.16-95.17,50.91-37.65,7.03-117.82,33.93-110.4-.86,6.83-31.94,5.99-48.2.07-54.49-14.21-15.02-54.73,22.21-76.05,24.21-3.94.37-7.32-.38-9.81-2.92-15.27-15.58,2.73-42.76,8.87-66.66,4.93-19.17,3.29-36.67-31.77-42.82-6.72-1.18-8.01-6.93-8.3-13.98-.37-8.87.57-19.73-6.09-25.2-10.98-8.95-26.56-9.83-38.7-13.39-5.35-1.57-10.71-3.88-15.42-7.74-17.25-14.13-16.89-41.06-5.28-61.01,1.77-3.04,3.53-6.18,5.39-9.31,9.7-16.3,18.66-35,14.66-53.45-1.2-5.6-4.06-11.13-9.35-13.61-4.41-2.07-9.67-1.64-14.6-.92-18.84,2.68-38.42,9.13-50.75,23.04-3.69,4.16-6.35,8.35-8.19,12.56-11.5,26.3,7.61,51.92-25.83,61.43-1.17.33-2.37.57-3.59.77-23.82,3.95-50.38-26.24-74.94-59.04-29.34-39.25-55.6-82.05-72.86-76.71-83.53,25.85-95.89,60.04-83.03,95.31,14.5,39.76,60.52,79.04,69.65,102.95,2.68,7.03,2.34,12.62-2.98,16.43-7.6,5.45-18.67-5.38-27.75-2.77-6.51,1.88-11.87,6.29-16.79,10.81-14.41,13.21-19.91,36.76-25.99,58.17-6.77,24.02-13.94,45.71-35.68,46.2-62.47,1.39-39.06-10.61-44.89,1.36-12.94,26.57-51.33,21.13-47.88,50.11,2.44,20.53-1.12,33.37-7.74,41.25-11.9,14.19-34.52,10.67-48.32,5.87-16.81-5.78-29.63-18.65-42.31-30.54-4.74-4.45-9.48-8.86-14.17-13.17-38.78-35.67-89.94-60.56-144.52-67.29-23.26-2.88-55.66.72-84.03,13.58-46.42,21.04-85.95,61.8-59.41,144.71"/><path class="cls-21" d="M1454.96,807.27c-23.08,28.22-59.12,44.71-95.91,51.22-36.79,6.5-119.41,34.89-111.8-.21,26.87-123.94-65.45-9.34-86.82-31.76-27.41-28.77,57.94-96.84-22.71-111.64-14.72-2.7-.62-30.52-11.74-40.15-14.68-12.7-39.5-7.51-55.06-19.2-17.86-13.42-13.65-40.46-4.06-60.17,9.59-19.71,23.24-40.09,18.76-61.4-1.17-5.56-3.94-11.26-9.19-13.88-4.41-2.21-9.71-1.83-14.64-1.19-18.97,2.45-38.61,8.6-50.83,22.73-26.6,30.76,5.2,66.45-34.43,78.85-52.29,16.36-119.79-153.94-152.47-145.12-212.58,57.35,29.35,190.84-10.51,219.71-7.64,5.53-18.86-5.8-28.06-3.24-6.58,1.83-11.98,6.28-16.93,10.82-30.78,28.23-20.14,104.62-62.74,104.79-64.71.26-40.49-12.07-46.14.2-12.67,27.53-51.41,22.14-47.11,51.94,8.64,59.84-34.39,54.71-55.71,46.73-16.72-6.26-29.28-19.52-42.08-31.57-43.99-41.42-99.35-73.51-160.25-82.87-60.9-9.37-187.9,27.14-141.86,159.68"/><image width="3649" height="2433" transform="translate(529 315) scale(.27)" xlink:href="png_cv.png"/></g></svg>