<?xml version="1.0" encoding="UTF-8"?><svg id="Layer_2" xmlns="http://www.w3.org/2000/svg" width="1444.55" height="599.07" xmlns:xlink="http://www.w3.org/1999/xlink" viewBox="0 0 1444.55 599.07"><defs><style>.cls-1{stroke:url(#linear-gradient-2);}.cls-1,.cls-2,.cls-3,.cls-4,.cls-5,.cls-6,.cls-7,.cls-8,.cls-9,.cls-10,.cls-11,.cls-12,.cls-13,.cls-14,.cls-15,.cls-16,.cls-17,.cls-18,.cls-19,.cls-20,.cls-21,.cls-22,.cls-23,.cls-24,.cls-25,.cls-26,.cls-27,.cls-28,.cls-29,.cls-30,.cls-31,.cls-32,.cls-33,.cls-34,.cls-35,.cls-36,.cls-37,.cls-38,.cls-39,.cls-40,.cls-41,.cls-42,.cls-43,.cls-44,.cls-45,.cls-46,.cls-47,.cls-48,.cls-49,.cls-50,.cls-51,.cls-52,.cls-53,.cls-54,.cls-55,.cls-56,.cls-57,.cls-58,.cls-59,.cls-60,.cls-61,.cls-62,.cls-63{fill:none;stroke-miterlimit:10;stroke-width:.75px;}.cls-2{stroke:url(#linear-gradient-10);}.cls-3{stroke:url(#linear-gradient-36);}.cls-4{stroke:url(#linear-gradient-15);}.cls-5{stroke:url(#linear-gradient-29);}.cls-6{stroke:url(#linear-gradient-35);}.cls-7{stroke:url(#linear-gradient-44);}.cls-8{stroke:url(#linear-gradient-3);}.cls-9{stroke:url(#linear-gradient-43);}.cls-10{stroke:url(#linear-gradient-42);}.cls-11{stroke:url(#linear-gradient-17);}.cls-12{stroke:url(#linear-gradient-47);}.cls-13{stroke:url(#linear-gradient-45);}.cls-14{stroke:url(#linear-gradient-33);}.cls-15{stroke:url(#linear-gradient);}.cls-16{stroke:url(#linear-gradient-7);}.cls-17{stroke:url(#linear-gradient-8);}.cls-18{stroke:url(#linear-gradient-26);}.cls-19{stroke:url(#linear-gradient-21);}.cls-20{stroke:url(#linear-gradient-24);}.cls-21{stroke:url(#linear-gradient-31);}.cls-22{stroke:url(#linear-gradient-60);}.cls-23{stroke:url(#linear-gradient-12);}.cls-24{stroke:url(#linear-gradient-19);}.cls-25{stroke:url(#linear-gradient-34);}.cls-26{stroke:url(#linear-gradient-59);}.cls-27{stroke:url(#linear-gradient-4);}.cls-28{stroke:url(#linear-gradient-51);}.cls-29{stroke:url(#linear-gradient-53);}.cls-30{stroke:url(#linear-gradient-56);}.cls-31{stroke:url(#linear-gradient-22);}.cls-32{stroke:url(#linear-gradient-39);}.cls-33{stroke:url(#linear-gradient-52);}.cls-34{stroke:url(#linear-gradient-57);}.cls-35{stroke:url(#linear-gradient-49);}.cls-36{stroke:url(#linear-gradient-48);}.cls-37{stroke:url(#linear-gradient-30);}.cls-38{stroke:url(#linear-gradient-40);}.cls-39{stroke:url(#linear-gradient-6);}.cls-40{stroke:url(#linear-gradient-58);}.cls-41{stroke:url(#linear-gradient-27);}.cls-42{stroke:url(#linear-gradient-46);}.cls-43{stroke:url(#linear-gradient-62);}.cls-44{stroke:url(#linear-gradient-32);}.cls-45{stroke:url(#linear-gradient-54);}.cls-46{stroke:url(#linear-gradient-14);}.cls-47{stroke:url(#linear-gradient-55);}.cls-48{stroke:url(#linear-gradient-11);}.cls-49{stroke:url(#linear-gradient-18);}.cls-50{stroke:url(#linear-gradient-61);}.cls-51{stroke:url(#linear-gradient-13);}.cls-52{stroke:url(#linear-gradient-25);}.cls-53{stroke:url(#linear-gradient-16);}.cls-54{stroke:url(#linear-gradient-37);}.cls-55{stroke:url(#linear-gradient-20);}.cls-56{stroke:url(#linear-gradient-50);}.cls-57{stroke:url(#linear-gradient-5);}.cls-58{stroke:url(#linear-gradient-9);}.cls-59{stroke:url(#linear-gradient-63);}.cls-60{stroke:url(#linear-gradient-38);}.cls-61{stroke:url(#linear-gradient-41);}.cls-62{stroke:url(#linear-gradient-28);}.cls-63{stroke:url(#linear-gradient-23);}</style><linearGradient id="linear-gradient" x1="33.33" y1="356.14" x2="1403.65" y2="356.14" gradientUnits="userSpaceOnUse"><stop offset="0" stop-color="#fffaf5" stop-opacity="0"/><stop offset=".23" stop-color="#fb8500"/><stop offset=".83" stop-color="#fb8500"/><stop offset="1" stop-color="#fffaf5" stop-opacity="0"/></linearGradient><linearGradient id="linear-gradient-2" x1="32.29" y1="354.78" x2="1404.97" y2="354.78" xlink:href="#linear-gradient"/><linearGradient id="linear-gradient-3" x1="31.25" y1="353.36" x2="1406.29" y2="353.36" xlink:href="#linear-gradient"/><linearGradient id="linear-gradient-4" x1="30.2" y1="351.93" x2="1407.61" y2="351.93" xlink:href="#linear-gradient"/><linearGradient id="linear-gradient-5" x1="29.16" y1="350.46" x2="1408.92" y2="350.46" xlink:href="#linear-gradient"/><linearGradient id="linear-gradient-6" x1="28.12" y1="348.94" x2="1410.24" y2="348.94" xlink:href="#linear-gradient"/><linearGradient id="linear-gradient-7" x1="27.09" y1="347.36" x2="1411.56" y2="347.36" xlink:href="#linear-gradient"/><linearGradient id="linear-gradient-8" x1="26.05" y1="345.7" x2="1412.88" y2="345.7" xlink:href="#linear-gradient"/><linearGradient id="linear-gradient-9" x1="25.01" y1="343.93" x2="1414.2" y2="343.93" xlink:href="#linear-gradient"/><linearGradient id="linear-gradient-10" x1="23.97" y1="342.04" x2="1415.52" y2="342.04" xlink:href="#linear-gradient"/><linearGradient id="linear-gradient-11" x1="22.94" y1="340.01" x2="1416.84" y2="340.01" xlink:href="#linear-gradient"/><linearGradient id="linear-gradient-12" x1="21.9" y1="337.85" x2="1418.16" y2="337.85" xlink:href="#linear-gradient"/><linearGradient id="linear-gradient-13" x1="20.87" y1="335.56" x2="1419.48" y2="335.56" xlink:href="#linear-gradient"/><linearGradient id="linear-gradient-14" x1="19.83" y1="333.15" x2="1420.8" y2="333.15" xlink:href="#linear-gradient"/><linearGradient id="linear-gradient-15" x1="18.8" y1="330.64" x2="1422.12" y2="330.64" xlink:href="#linear-gradient"/><linearGradient id="linear-gradient-16" x1="17.77" y1="328.04" x2="1423.44" y2="328.04" xlink:href="#linear-gradient"/><linearGradient id="linear-gradient-17" x1="16.73" y1="325.37" x2="1424.76" y2="325.37" xlink:href="#linear-gradient"/><linearGradient id="linear-gradient-18" x1="15.7" y1="322.64" x2="1426.08" y2="322.64" xlink:href="#linear-gradient"/><linearGradient id="linear-gradient-19" x1="14.67" y1="319.85" x2="1427.4" y2="319.85" xlink:href="#linear-gradient"/><linearGradient id="linear-gradient-20" x1="13.64" y1="317.02" x2="1428.72" y2="317.02" xlink:href="#linear-gradient"/><linearGradient id="linear-gradient-21" x1="12.61" y1="314.15" x2="1430.04" y2="314.15" xlink:href="#linear-gradient"/><linearGradient id="linear-gradient-22" x1="11.58" y1="311.26" x2="1431.36" y2="311.26" xlink:href="#linear-gradient"/><linearGradient id="linear-gradient-23" x1="10.52" y1="308.35" x2="1432.67" y2="308.35" xlink:href="#linear-gradient"/><linearGradient id="linear-gradient-24" x1="9.44" y1="305.42" x2="1433.99" y2="305.42" xlink:href="#linear-gradient"/><linearGradient id="linear-gradient-25" x1="8.32" y1="302.49" x2="1435.31" y2="302.49" xlink:href="#linear-gradient"/><linearGradient id="linear-gradient-26" x1="7.19" y1="299.56" x2="1436.63" y2="299.56" xlink:href="#linear-gradient"/><linearGradient id="linear-gradient-27" x1="6.03" y1="297.7" x2="1437.95" y2="297.7" xlink:href="#linear-gradient"/><linearGradient id="linear-gradient-28" x1="4.86" y1="296.36" x2="1439.27" y2="296.36" xlink:href="#linear-gradient"/><linearGradient id="linear-gradient-29" x1="3.66" y1="295.02" x2="1440.59" y2="295.02" xlink:href="#linear-gradient"/><linearGradient id="linear-gradient-30" x1="2.45" y1="293.64" x2="1441.91" y2="293.64" xlink:href="#linear-gradient"/><linearGradient id="linear-gradient-31" x1="1.23" y1="292.25" x2="1443.23" y2="292.25" xlink:href="#linear-gradient"/><linearGradient id="linear-gradient-32" x1="0" y1="290.86" x2="1444.55" y2="290.86" xlink:href="#linear-gradient"/><linearGradient id="linear-gradient-33" x1="3.66" y1="289.85" x2="1443.38" y2="289.85" xlink:href="#linear-gradient"/><linearGradient id="linear-gradient-34" x1="7.3" y1="288.85" x2="1442.22" y2="288.85" xlink:href="#linear-gradient"/><linearGradient id="linear-gradient-35" x1="10.92" y1="287.85" x2="1441.05" y2="287.85" xlink:href="#linear-gradient"/><linearGradient id="linear-gradient-36" x1="14.51" y1="286.84" x2="1439.89" y2="286.84" xlink:href="#linear-gradient"/><linearGradient id="linear-gradient-37" x1="18.07" y1="285.82" x2="1438.72" y2="285.82" xlink:href="#linear-gradient"/><linearGradient id="linear-gradient-38" x1="21.61" y1="284.8" x2="1437.56" y2="284.8" xlink:href="#linear-gradient"/><linearGradient id="linear-gradient-39" x1="25.1" y1="283.77" x2="1436.39" y2="283.77" xlink:href="#linear-gradient"/><linearGradient id="linear-gradient-40" x1="28.56" y1="284.26" x2="1435.22" y2="284.26" xlink:href="#linear-gradient"/><linearGradient id="linear-gradient-41" x1="31.98" y1="285.53" x2="1434.06" y2="285.53" xlink:href="#linear-gradient"/><linearGradient id="linear-gradient-42" x1="35.39" y1="286.82" x2="1432.89" y2="286.82" xlink:href="#linear-gradient"/><linearGradient id="linear-gradient-43" x1="38.8" y1="288.28" x2="1431.72" y2="288.28" xlink:href="#linear-gradient"/><linearGradient id="linear-gradient-44" x1="42.22" y1="289.71" x2="1430.55" y2="289.71" xlink:href="#linear-gradient"/><linearGradient id="linear-gradient-45" x1="45.63" y1="291.14" x2="1429.37" y2="291.14" xlink:href="#linear-gradient"/><linearGradient id="linear-gradient-46" x1="49.05" y1="292.54" x2="1428.2" y2="292.54" xlink:href="#linear-gradient"/><linearGradient id="linear-gradient-47" x1="52.46" y1="293.91" x2="1427.03" y2="293.91" xlink:href="#linear-gradient"/><linearGradient id="linear-gradient-48" x1="55.88" y1="295.25" x2="1425.85" y2="295.25" xlink:href="#linear-gradient"/><linearGradient id="linear-gradient-49" x1="59.3" y1="296.22" x2="1424.69" y2="296.22" xlink:href="#linear-gradient"/><linearGradient id="linear-gradient-50" x1="62.72" y1="297.47" x2="1423.55" y2="297.47" xlink:href="#linear-gradient"/><linearGradient id="linear-gradient-51" x1="66.14" y1="298.67" x2="1422.42" y2="298.67" xlink:href="#linear-gradient"/><linearGradient id="linear-gradient-52" x1="69.57" y1="299.83" x2="1421.29" y2="299.83" xlink:href="#linear-gradient"/><linearGradient id="linear-gradient-53" x1="72.99" y1="300.99" x2="1420.17" y2="300.99" xlink:href="#linear-gradient"/><linearGradient id="linear-gradient-54" x1="76.42" y1="301.34" x2="1419.05" y2="301.34" xlink:href="#linear-gradient"/><linearGradient id="linear-gradient-55" x1="79.85" y1="301.19" x2="1417.93" y2="301.19" xlink:href="#linear-gradient"/><linearGradient id="linear-gradient-56" x1="83.28" y1="301.06" x2="1416.82" y2="301.06" xlink:href="#linear-gradient"/><linearGradient id="linear-gradient-57" x1="86.71" y1="300.96" x2="1415.7" y2="300.96" xlink:href="#linear-gradient"/><linearGradient id="linear-gradient-58" x1="90.14" y1="300.88" x2="1414.57" y2="300.88" xlink:href="#linear-gradient"/><linearGradient id="linear-gradient-59" x1="93.58" y1="300.81" x2="1413.43" y2="300.81" xlink:href="#linear-gradient"/><linearGradient id="linear-gradient-60" x1="97.01" y1="300.76" x2="1412.28" y2="300.76" xlink:href="#linear-gradient"/><linearGradient id="linear-gradient-61" x1="100.44" y1="300.68" x2="1411.15" y2="300.68" xlink:href="#linear-gradient"/><linearGradient id="linear-gradient-62" x1="103.88" y1="300.61" x2="1410.33" y2="300.61" xlink:href="#linear-gradient"/><linearGradient id="linear-gradient-63" x1="107.31" y1="300.56" x2="1409.81" y2="300.56" xlink:href="#linear-gradient"/></defs><g id="Layer_5"><path class="cls-15" d="m33.6,511.16c45.82-48.38,65.58-125.18,127.27-150.38,20.1-8.21,42.28-9.56,63.99-10.03,31.36-.68,64.09.59,91.76,15.38,24.71,13.21,66.07,26.9,92.8,18.51,153-48,115.19,96.06,192,112,106,22,105.61,131.69,174.62,94.37,59.36-32.1,96.39-93.88,123.2-155.81,26.82-61.93,203.18-57.57,148.18-153.57-26.87-46.9,80.77-52.08,150-16s130.22-169.14,206.14-150.92"/><path class="cls-1" d="m32.57,513.44c43.63-50.34,72.15-126.7,128.19-153.11,17.85-8.41,40-11.48,62.04-13.03,8.24-.58,16.61-.66,24.85-.84,25.36-.56,48.01,5,68.54,16.57,3.46,1.95,7.25,3.88,11.36,5.63,25.39,10.95,61.94,20.35,83.33,14.47,142.06-39.13,117.46,96.42,195.84,113.65,103.84,22.82,105.71,129.26,174.31,93.35,14.02-7.29,26.82-16.24,38.54-26.47,37.95-33.08,64.86-79.36,85.73-126.04,8.32-18.53,29.8-31.26,54.24-42.64,56.49-26.35,128.17-45.14,91.9-111.79-20.67-37.98,42.28-50.56,102.73-37.45,15.24,3.35,31.17,8.83,45.6,15.98,14,7.01,27.52,5.16,40.55-2.18,29.36-16.54,52.04-61.21,80.26-96.22,26.83-33.19,54.14-57.29,84.32-49.89"/><path class="cls-8" d="m31.54,515.71c41.43-52.3,78.84-128.15,129.11-155.84,15.63-8.61,37.72-13.42,60.08-16.03,8.41-.99,16.98-1.54,25.3-1.74,27.26-.65,49.2,5.67,69.71,17.82,3.53,2.09,7.4,4.1,11.66,5.84,26.07,10.67,65.19,20.38,84.92,15.85,131.13-30.26,119.72,96.77,199.68,115.29,101.68,23.55,105.72,126.65,174,92.33,14-7.04,26.83-15.64,38.57-25.59,38.11-32.19,65.49-77.55,86.75-123.61,8.55-18.34,29.75-31.15,53.73-42.71,55.47-26.82,124.57-46.32,90.37-112.58-19.88-38.53,41.75-53,100.56-42.12,14.84,2.74,31.2,8.1,46.09,15.19s28.06,5.11,41.06-1.95c30.75-16.7,49.21-63.43,77.8-97.86,27.29-32.69,54.69-53.49,85.26-45.84"/><path class="cls-27" d="m30.51,517.98c39.23-54.26,85.7-129.57,130.03-158.57,13.47-8.81,35.44-15.35,58.13-19.04,8.58-1.39,17.36-2.23,25.76-2.64,29.16-1.42,50.38,6.36,70.88,19.07,3.59,2.23,7.54,4.33,11.96,6.06,26.72,10.44,68.44,20.41,86.51,17.24,120.19-21.39,121.98,97.09,203.52,116.94,99.53,24.22,105.78,124.13,173.69,91.31,13.98-6.76,26.85-15.05,38.6-24.72,38.27-31.31,66-75.8,87.77-121.19,8.72-18.18,29.69-31.04,53.21-42.78,54.44-27.3,121-47.54,88.85-113.38-19.09-39.11,41.18-55.35,98.39-46.79,14.43,2.16,31.22,7.4,46.58,14.39s28.61,5.07,41.58-1.73c32.16-16.86,46.37-65.66,75.33-99.5,27.75-32.19,55.25-49.69,86.21-41.8"/><path class="cls-57" d="m29.48,520.26c37.03-56.22,92.78-130.99,130.95-161.3,11.39-9.04,33.17-17.3,56.18-22.04,8.75-1.8,17.74-2.93,26.22-3.54,31.08-2.22,51.56,7.05,72.05,20.32,3.65,2.36,7.68,4.56,12.26,6.27,27.37,10.21,71.69,20.44,88.1,18.62,109.26-12.52,124.22,97.4,207.35,118.58,97.38,24.81,105.85,121.62,173.38,90.28,13.97-6.48,26.86-14.45,38.63-23.85,38.43-30.42,66.61-74.01,88.8-118.76,8.93-18,29.63-30.93,52.7-42.85,53.42-27.77,117.46-48.8,87.33-114.18-18.3-39.71,40.61-57.7,96.23-51.46,14.01,1.57,31.24,6.7,47.07,13.6,14.9,6.5,29.17,5.05,42.09-1.5,33.58-17.01,43.46-67.95,72.87-101.14,28.13-31.75,55.8-45.89,87.16-37.75"/><path class="cls-39" d="m28.45,522.53c34.83-58.18,100.12-132.5,131.87-164.03,9.39-9.33,30.9-19.25,54.22-25.05,8.92-2.22,18.11-3.65,26.67-4.44,33-3.05,52.74,7.76,73.22,21.57,3.71,2.5,7.82,4.79,12.56,6.48,28.02,9.99,74.94,20.51,89.69,20.01,98.33-3.37,126.46,97.68,211.19,120.23,95.24,25.34,105.93,119.11,173.08,89.26,13.96-6.21,26.85-13.89,38.66-22.98,38.52-29.62,67.21-72.22,89.82-116.34,9.13-17.82,29.58-30.81,52.18-42.91,52.4-28.24,113.96-50.1,85.81-114.98-17.5-40.32,40.03-60.05,94.06-56.13,13.6.99,31.26,6,47.55,12.81,15.19,6.34,29.73,5.03,42.6-1.27,35.02-17.15,40.61-70.19,70.4-102.78,28.58-31.26,56.36-42.09,88.1-33.71"/><path class="cls-16" d="m27.42,524.8c32.63-60.13,107.69-134.25,132.79-166.76,7.49-9.71,28.63-21.21,52.27-28.05,9.09-2.63,18.49-4.38,27.13-5.34,34.93-3.9,53.91,8.47,74.39,22.81,3.78,2.64,7.96,5.02,12.86,6.69,28.67,9.78,78.19,20.56,91.27,21.39,87.36,5.58,128.7,97.94,215.03,121.87,93.12,25.81,106,116.61,172.77,88.24,13.95-5.93,26.86-13.3,38.7-22.1,38.67-28.75,67.82-70.43,90.85-113.91,9.34-17.64,29.52-30.7,51.66-42.98,51.38-28.72,110.5-51.43,84.29-115.77-16.69-40.96,39.45-62.39,91.9-60.8,13.19.4,31.27,5.31,48.04,12.01,15.48,6.19,30.3,5.03,43.12-1.04,36.47-17.27,37.76-72.43,67.93-104.42s56.91-38.3,89.05-29.66"/><path class="cls-17" d="m26.38,527.08c30.44-62.09,109.3-140.64,133.71-169.49,3.57-11.15,26.35-23.17,50.32-31.06,9.27-3.05,18.87-5.11,27.59-6.24,36.85-4.78,55.08,9.18,75.57,24.06,3.84,2.79,8.1,5.25,13.15,6.9,29.31,9.56,81.43,20.6,92.86,22.78,76.37,14.54,130.93,98.17,218.87,123.52,91,26.22,106.09,114.11,172.46,87.21,13.94-5.65,26.87-12.71,38.73-21.23,38.82-27.88,68.43-68.63,91.87-111.48,9.55-17.46,29.46-30.59,51.15-43.05,50.35-29.19,107.08-52.8,82.77-116.57-15.86-41.62,38.85-64.74,89.73-65.47,12.77-.18,31.28,4.61,48.53,11.22,15.77,6.04,30.87,5.03,43.63-.82,37.92-17.38,34.91-74.66,65.47-106.06,29.47-30.29,57.46-34.5,90-25.62"/><path class="cls-58" d="m25.35,529.35c28.24-64.05,115.54-142.85,134.63-172.22,1.21-11.57,24.08-25.14,48.37-34.06,9.44-3.47,19.25-5.85,28.04-7.14,38.77-5.69,56.24,9.91,76.74,25.31,3.9,2.93,8.24,5.48,13.45,7.11,29.95,9.36,84.66,20.64,94.45,24.16,65.33,23.49,133.16,98.38,222.71,125.16,88.89,26.58,106.18,111.62,172.15,86.19,13.93-5.37,26.88-12.12,38.76-20.36,38.97-27.01,69.04-66.84,92.9-109.06,9.77-17.28,29.43-30.43,50.63-43.11,49.4-29.55,103.69-54.2,81.25-117.37-15.03-42.29,38.24-67.08,87.56-70.14,12.35-.77,31.3,3.92,49.02,10.42,16.06,5.89,31.46,5.04,44.14-.59,39.39-17.48,32.07-76.9,63-107.71,29.92-29.8,58.02-30.7,90.94-21.57"/><path class="cls-2" d="m24.32,531.62c26.04-66.01,121.79-145.06,135.55-174.94-1.15-11.99,21.81-27.11,46.41-37.06,9.61-3.89,19.63-6.6,28.5-8.04,40.7-6.62,57.4,10.64,77.91,26.56,3.96,3.07,8.38,5.72,13.75,7.32,30.59,9.15,87.89,20.68,96.04,25.54,54.25,32.4,135.39,98.57,226.55,126.81s106.27,109.13,171.84,85.17c13.93-5.09,26.89-11.53,38.79-19.48,39.12-26.14,69.66-65.04,93.92-106.63,9.98-17.1,29.38-30.32,50.12-43.18,48.38-30.02,100.35-55.62,79.72-118.16-14.18-42.99,37.63-69.41,85.4-74.81,11.92-1.35,31.31,3.23,49.51,9.63,16.34,5.74,32.04,5.06,44.65-.36,40.87-17.57,29.22-79.13,60.54-109.35,30.38-29.31,58.57-26.9,91.89-17.53"/><path class="cls-48" d="m23.29,533.9c23.84-67.97,128.03-147.26,136.47-177.67-3.51-12.41,19.53-29.08,44.46-40.07,9.78-4.31,20-7.35,28.96-8.94,42.61-7.57,58.56,11.37,79.08,27.81,4.02,3.22,8.52,5.95,14.05,7.53,31.23,8.95,91.12,20.7,97.63,26.93,43.14,41.24,137.63,98.72,230.39,128.45,84.7,27.15,106.37,106.65,171.54,84.15,13.92-4.81,26.9-10.94,38.82-18.61,39.28-25.26,70.27-63.25,94.95-104.21,10.19-16.92,29.33-30.2,49.6-43.25,47.37-30.48,97.05-57.08,78.2-118.96-13.31-43.7,37-71.73,83.23-79.49,11.5-1.93,31.32,2.55,50,8.83,16.63,5.59,32.63,5.09,45.17-.13,42.36-17.64,26.38-81.37,58.07-110.99s59.13-23.1,92.84-13.48"/><path class="cls-23" d="m22.26,536.17c21.64-69.93,134.28-149.47,137.39-180.4-5.87-12.83,17.26-31.06,42.51-43.07,9.95-4.73,20.38-8.11,29.41-9.84,44.53-8.55,59.71,12.11,80.25,29.06,4.08,3.36,8.66,6.18,14.35,7.74,31.87,8.75,94.35,20.72,99.22,28.31,32.07,50,139.86,98.84,234.23,130.1,82.62,27.36,106.47,104.18,171.23,83.12,13.91-4.52,26.91-10.35,38.86-17.74,39.44-24.39,70.9-61.45,95.97-101.78,10.41-16.74,29.27-30.09,49.08-43.31,46.35-30.95,93.79-58.56,76.68-119.76-12.42-44.42,36.37-74.05,81.07-84.16,11.07-2.5,31.33,1.86,50.49,8.04,16.91,5.45,33.22,5.12,45.68.1,43.85-17.69,23.54-83.6,55.6-112.63,31.28-28.32,59.68-19.31,93.78-9.44"/><path class="cls-51" d="m21.23,538.44c19.45-71.89,140.52-151.68,138.31-183.13-8.24-13.26,14.98-33.04,40.56-46.08,10.12-5.16,20.75-8.87,29.87-10.74,46.44-9.54,60.87,12.85,81.42,30.31,4.13,3.51,8.8,6.42,14.65,7.96,32.51,8.55,97.59,20.72,100.81,29.7,21.07,58.71,142.11,98.94,238.06,131.74,80.55,27.54,106.57,101.71,170.92,82.1,13.91-4.24,26.92-9.76,38.89-16.86,39.59-23.51,71.52-59.65,96.99-99.36,10.63-16.56,29.22-29.97,48.57-43.38,45.34-31.42,90.57-60.05,75.16-120.56-11.5-45.16,35.73-76.35,78.9-88.83,10.65-3.08,31.33,1.18,50.98,7.24,17.2,5.31,33.81,5.16,46.19.32,45.36-17.73,20.7-85.83,53.14-114.27s60.24-15.51,94.73-5.39"/><path class="cls-46" d="m20.2,540.72c17.25-73.84,146.77-153.89,139.23-185.86-10.6-13.68,12.7-35.02,38.6-49.08,10.28-5.58,21.13-9.63,30.32-11.64,48.34-10.56,62.01,13.6,82.59,31.56,4.19,3.66,8.94,6.65,14.95,8.17,33.15,8.36,100.84,20.73,102.4,31.08,10.14,67.43,144.36,99,241.9,133.39,78.49,27.67,106.68,99.25,170.61,81.08,13.9-3.95,26.93-9.16,38.92-15.99,39.75-22.63,72.15-57.85,98.02-96.93,10.84-16.38,29.17-29.86,48.05-43.45,44.32-31.89,87.4-61.57,73.64-121.35-10.57-45.91,35.09-78.63,76.73-93.5,10.22-3.65,31.34.5,51.47,6.45,17.48,5.17,34.41,5.21,46.71.55,46.87-17.75,17.86-88.06,50.67-115.91s60.79-11.71,95.68-1.35"/><path class="cls-4" d="m19.17,542.99c15.05-75.8,153.01-156.1,140.15-188.59-12.96-14.1,10.42-37.01,36.65-52.08,10.45-6.01,21.5-10.4,30.78-12.54,50.24-11.6,63.16,14.35,83.77,32.8,4.25,3.81,9.08,6.89,15.24,8.38,33.79,8.17,104.1,20.74,103.99,32.47-.74,76.19,146.62,99.02,245.74,135.03,76.45,27.77,106.8,96.8,170.3,80.05,13.9-3.66,26.94-8.57,38.95-15.12,39.91-21.75,72.78-56.05,99.04-94.5,11.06-16.2,29.11-29.75,47.54-43.51,43.3-32.36,84.27-63.11,72.12-122.15-9.6-46.68,34.44-80.9,74.57-98.17,9.79-4.21,31.35-.18,51.96,5.65,17.76,5.03,35.01,5.26,47.22.78,48.39-17.75,15.03-90.29,48.21-117.55s61.35-7.91,96.62,2.69"/><path class="cls-53" d="m18.14,545.26c12.85-77.76,164.12-161.49,141.07-191.32-12.91-16.7,8.13-38.99,34.7-55.09,10.62-6.43,21.87-11.17,31.24-13.44,52.13-12.65,64.3,15.1,84.94,34.05,4.31,3.95,9.22,7.12,15.54,8.59,34.42,7.98,107.36,20.76,105.58,33.85-11.6,84.99,148.89,99.01,249.58,136.68,74.41,27.84,106.91,94.35,169.99,79.03,13.9-3.38,26.96-7.98,38.99-14.24,40.08-20.87,73.42-54.25,100.07-92.08,11.28-16.02,29.06-29.64,47.02-43.58,42.29-32.83,81.18-64.65,70.6-122.95-8.61-47.45,33.8-83.15,72.4-102.84,9.36-4.77,31.36-.86,52.45,4.86,18.04,4.89,35.61,5.31,47.73,1.01,49.91-17.73,12.19-92.52,45.74-119.19s61.9-4.11,97.57,6.74"/><path class="cls-11" d="m17.11,547.54c10.65-79.72,169.62-163.81,141.99-194.05-15.61-17.09,5.85-40.98,32.75-58.09,10.78-6.86,22.24-11.94,31.69-14.34,54.02-13.72,65.44,15.86,86.11,35.3,4.36,4.1,9.36,7.36,15.84,8.8,35.06,7.79,110.62,20.79,107.16,35.24-22.46,93.82,151.18,98.96,253.42,138.32,72.39,27.87,107.03,91.92,169.69,78.01,13.9-3.08,26.97-7.39,39.02-13.37,40.24-19.99,74.06-52.45,101.09-89.65,11.51-15.83,29-29.52,46.5-43.65,41.27-33.3,78.13-66.21,69.08-123.74-7.59-48.23,33.16-85.39,70.24-107.51,8.93-5.33,31.36-1.53,52.94,4.06,18.33,4.75,36.21,5.37,48.25,1.23,51.44-17.68,9.36-94.74,43.27-120.84,33.58-25.84,62.46-.32,98.52,10.78"/><path class="cls-49" d="m16.07,549.81c8.45-81.68,175.22-166,142.91-196.78-18.28-17.41,3.56-42.97,30.79-61.1,10.95-7.29,22.61-12.71,32.15-15.24,55.89-14.81,66.58,16.61,87.28,36.55,4.42,4.25,9.49,7.59,16.14,9.01,35.7,7.61,113.88,20.81,108.75,36.62-33.33,102.67,153.48,98.87,257.26,139.97,70.37,27.87,107.15,89.49,169.38,76.99,13.9-2.79,26.98-6.79,39.05-12.5,40.4-19.1,74.7-50.64,102.12-87.23,11.73-15.65,28.95-29.41,45.99-43.72,40.25-33.78,75.12-67.77,67.55-124.54-6.53-49.02,32.53-87.61,68.07-112.18,8.51-5.88,31.37-2.21,53.42,3.27,18.61,4.62,36.81,5.43,48.76,1.46,52.98-17.62,6.53-96.96,40.81-122.48s63.01,3.48,99.46,14.83"/><path class="cls-24" d="m15.04,552.08c6.26-83.64,180.93-168.1,143.83-199.51-20.91-17.71,1.28-44.96,28.84-64.1,11.11-7.72,22.98-13.49,32.61-16.14,57.77-15.92,67.71,17.37,88.45,37.8,4.47,4.4,9.63,7.83,16.44,9.22,36.33,7.43,117.14,20.84,110.34,38-44.21,111.53,155.8,98.73,261.1,141.61,68.37,27.85,107.28,87.07,169.07,75.96,13.89-2.5,27-6.2,39.08-11.63,40.57-18.22,75.34-48.83,103.14-84.8,11.95-15.46,28.89-29.3,45.47-43.78,39.23-34.25,72.15-69.33,66.03-125.34-5.44-49.8,31.91-89.81,65.91-116.85,8.08-6.43,31.37-2.88,53.91,2.47,18.89,4.49,37.42,5.5,49.27,1.69,54.53-17.54,3.7-99.19,38.34-124.12,34.51-24.84,63.57,7.28,100.41,18.87"/><path class="cls-55" d="m14.01,554.36c4.06-85.6,186.71-170.14,144.75-202.24-23.51-17.98-1.01-46.95,26.89-67.11,11.28-8.15,23.35-14.27,33.06-17.04,59.63-17.04,68.84,18.13,89.62,39.05,4.52,4.55,9.77,8.07,16.74,9.43,36.97,7.24,120.4,20.87,111.93,39.39-55.09,120.4,158.14,98.54,264.94,143.26,66.38,27.79,107.4,84.66,168.76,74.94,13.89-2.2,27.01-5.6,39.11-10.75,40.73-17.33,75.98-47.02,104.17-82.37,12.18-15.28,28.83-29.19,44.96-43.85,38.21-34.73,69.21-70.9,64.51-126.14-4.31-50.59,31.31-92,63.74-121.52,7.66-6.98,31.38-3.55,54.4,1.68,19.17,4.35,38.02,5.57,49.78,1.92,56.08-17.43.87-101.41,35.88-125.76s64.12,11.08,101.36,22.92"/><path class="cls-19" d="m12.98,556.63c1.86-87.56,192.57-172.14,145.67-204.97-26.06-18.24-3.3-48.95,24.94-70.11,11.44-8.57,23.71-15.04,33.52-17.94,61.49-18.18,69.97,18.9,90.79,40.3,4.58,4.71,9.91,8.31,17.03,9.64,37.61,7.07,123.66,20.91,113.52,40.77-65.99,129.28,160.51,98.31,268.77,144.9,64.4,27.72,107.53,82.26,168.45,73.92,13.89-1.9,27.02-5.01,39.15-9.88,40.9-16.44,76.63-45.21,105.19-79.95,12.4-15.09,28.78-29.08,44.44-43.92,37.18-35.21,66.32-72.46,62.99-126.93-3.14-51.38,30.73-94.19,61.57-126.19,7.25-7.52,31.39-4.22,54.89.89,19.45,4.22,38.63,5.65,50.3,2.15,57.63-17.3-1.96-103.63,33.41-127.4,35.44-23.83,64.67,14.88,102.3,26.96"/><path class="cls-31" d="m11.95,558.9c-.34-89.51,198.48-174.12,146.58-207.7-28.59-18.5-5.6-50.94,22.98-73.11,11.6-9,24.08-15.82,33.98-18.84,63.34-19.33,71.1,19.66,91.97,41.55,4.63,4.86,10.05,8.54,17.33,9.86,38.24,6.89,126.95,20.96,115.11,42.16-76.65,138.29,162.9,98.02,272.61,146.55,62.44,27.62,107.65,79.86,168.15,72.9,13.89-1.6,27.04-4.41,39.18-9.01,41.07-15.54,77.28-43.39,106.21-77.52,12.63-14.9,28.72-28.98,43.92-43.98,36.16-35.69,63.45-74.02,61.47-127.73-1.93-52.16,30.16-96.37,59.41-130.86,6.84-8.06,31.39-4.88,55.38.09,19.74,4.09,39.23,5.73,50.81,2.37,59.2-17.14-4.79-105.84,30.94-129.04,35.91-23.32,65.23,18.67,103.25,31.01"/><path class="cls-63" d="m10.92,561.18c-2.54-91.47,204.44-176.08,147.5-210.43-31.1-18.76-7.89-52.93,21.03-76.12,11.77-9.43,24.44-16.6,34.43-19.74,65.18-20.49,72.23,20.42,93.14,42.79,4.68,5.01,10.19,8.78,17.63,10.07,38.88,6.71,130.2,20.99,116.7,43.54-87.58,147.16,165.32,97.67,276.45,148.19,60.49,27.5,107.78,77.48,167.84,71.87,13.89-1.3,27.05-3.81,39.21-8.13,41.23-14.65,77.93-41.57,107.24-75.1,12.86-14.71,28.66-28.87,43.41-44.05,35.13-36.17,60.62-75.56,59.95-128.53-.68-52.94,29.61-98.54,57.24-135.53,6.43-8.61,31.4-5.55,55.87-.7,20.02,3.96,39.84,5.81,51.32,2.6,60.76-16.96-7.62-108.06,28.48-130.68,36.38-22.81,65.78,22.47,104.2,35.05"/><path class="cls-20" d="m9.89,563.45c-4.73-93.43,210.43-178.04,148.42-213.16-33.59-19.02-10.19-54.93,19.08-79.12,11.93-9.86,24.81-17.38,34.89-20.64,67.02-21.66,73.35,21.19,94.31,44.04,4.73,5.16,10.33,9.02,17.93,10.28,39.51,6.54,133.46,21.02,118.29,44.93-98.52,156.03,167.78,97.26,280.29,149.84,58.55,27.36,107.9,75.1,167.53,70.85,13.89-.99,27.07-3.22,39.24-7.26,41.4-13.75,78.59-39.75,108.26-72.67,13.09-14.52,28.6-28.76,42.89-44.12,34.1-36.65,57.82-77.1,58.43-129.32.62-53.71,29.07-100.72,55.08-140.2,6.03-9.15,31.4-6.21,56.36-1.5,20.3,3.84,40.45,5.89,51.84,2.83,62.33-16.75-10.44-110.27,26.01-132.33,36.85-22.29,66.34,26.27,105.14,39.1"/><path class="cls-52" d="m8.86,565.72c-6.93-95.39,216.46-179.99,149.34-215.89-36.06-19.29-12.48-56.92,17.13-82.13,12.09-10.29,25.17-18.17,35.35-21.54,68.85-22.85,74.47,21.96,95.48,45.29,4.78,5.31,10.47,9.26,18.23,10.49,40.15,6.36,136.71,21.05,119.88,46.31-109.45,164.9,170.28,96.79,284.13,151.48,56.62,27.2,108.03,72.74,167.22,69.83,13.89-.68,27.08-2.62,39.28-6.39,41.57-12.85,79.25-37.93,109.29-70.25,13.32-14.33,28.54-28.65,42.37-44.18,33.08-37.14,55.05-78.62,56.9-130.12,1.96-54.47,28.55-102.9,52.91-144.87,5.63-9.7,31.41-6.88,56.85-2.29,20.58,3.71,41.05,5.98,52.35,3.06,63.91-16.51-13.27-112.48,23.55-133.97,37.32-21.78,66.89,30.07,106.09,43.14"/><path class="cls-18" d="m7.83,568c-9.13-97.35,222.51-181.94,150.26-218.61-38.52-19.56-14.78-58.92,15.17-85.13,12.25-10.72,25.53-18.95,35.8-22.44,70.68-24.05,75.59,22.73,96.65,46.54,4.83,5.47,10.6,9.5,18.53,10.7,40.79,6.19,139.96,21.08,121.47,47.69-120.39,173.77,172.82,96.24,287.97,153.13,54.71,27.03,108.15,70.38,166.91,68.8,13.89-.37,27.09-2.02,39.31-5.51,41.74-11.95,79.91-36.1,110.31-67.82,13.55-14.14,28.48-28.55,41.86-44.25,32.04-37.62,52.31-80.13,55.38-130.92,3.34-55.21,28.04-105.09,50.74-149.54,5.23-10.24,31.42-7.54,57.34-3.09,20.86,3.58,41.66,6.06,52.86,3.28,65.48-16.24-16.09-114.69,21.08-135.61,37.79-21.26,67.45,33.87,107.04,47.19"/><path class="cls-41" d="m6.8,570.27c-11.33-99.31,228.59-183.88,151.18-221.34-40.97-19.83-17.08-60.91,13.22-88.13,12.41-11.15,25.9-19.73,36.26-23.34,72.5-25.26,76.7,23.49,97.82,47.79,4.88,5.62,10.74,9.74,18.83,10.91,41.42,6.02,143.21,21.11,123.05,49.08-131.32,182.65,175.4,95.61,291.81,154.77,52.81,26.84,108.27,66.98,166.6,67.78,13.89.19,27.11-1.42,39.34-4.64,41.9-11.04,80.57-34.27,111.34-65.39,13.78-13.94,28.42-28.44,41.34-44.32,31.01-38.11,49.59-81.62,53.86-131.72,4.77-55.93,27.55-107.28,48.58-154.22,4.83-10.79,31.42-8.2,57.83-3.88,21.15,3.46,42.26,6.16,53.38,3.51,67.06-15.95-18.92-116.9,18.61-137.25,38.26-20.75,68,37.67,107.98,51.23"/><path class="cls-62" d="m5.77,572.54c-13.53-101.27,234.68-185.83,152.1-224.07-43.41-20.1-19.38-62.91,11.27-91.14,12.57-11.58,26.26-20.52,36.72-24.24,74.31-26.49,77.82,24.26,99,49.04,4.93,5.77,10.88,9.98,19.12,11.12,42.06,5.85,146.46,21.14,124.64,50.46-142.26,191.52,178.05,94.91,295.65,156.42,50.93,26.64,108.38,65.7,166.3,66.76,13.88.25,27.12-.82,39.37-3.77,42.07-10.13,81.23-32.44,112.36-62.97,14.02-13.74,28.33-28.36,40.83-44.39,29.9-38.65,46.89-83.08,52.34-132.51,6.25-56.63,27.06-109.49,46.41-158.89,4.44-11.34,31.43-8.86,58.32-4.68,21.43,3.33,42.86,6.25,53.89,3.74,68.65-15.62-21.74-119.1,16.15-138.89,38.73-20.23,68.56,41.46,108.93,55.28"/><path class="cls-5" d="m4.73,574.82c-15.73-103.22,240.79-187.78,153.02-226.8-45.84-20.38-21.72-64.95,9.32-94.14,12.71-12.03,26.62-21.3,37.17-25.14,76.11-27.72,78.93,25.03,100.17,50.29,4.98,5.93,11.02,10.23,19.42,11.33,42.69,5.75,149.71,21.17,126.23,51.85-153.19,200.39,180.75,94.11,299.48,158.06,49.07,26.43,108.49,63.37,165.99,65.74,13.88.57,27.14-.22,39.4-2.89,42.24-9.22,81.89-30.6,113.39-60.54,14.25-13.55,28.27-28.25,40.31-44.45,28.88-39.12,44.21-84.52,50.82-133.31,7.77-57.31,26.58-111.7,44.25-163.56,4.05-11.89,31.43-9.52,58.81-5.47,21.71,3.21,43.47,6.34,54.4,3.97,70.23-15.26-24.53-121.24,13.68-140.53,39.24-19.63,69.11,45.26,109.88,59.32"/><path class="cls-37" d="m3.7,577.09c-17.92-105.18,246.91-189.73,153.94-229.53-48.27-20.67-24.01-66.93,7.36-97.15,12.88-12.46,26.98-22.08,37.63-26.04,77.91-28.96,80.04,25.8,101.34,51.54,5.03,6.08,11.16,10.47,19.72,11.54,43.33,5.56,152.96,21.2,127.82,53.23-164.13,209.26,183.53,93.22,303.32,159.71,47.22,26.21,108.59,61.05,165.68,64.71,13.87.89,27.15.4,39.44-2.02,42.42-8.25,82.56-28.76,114.41-58.12,14.48-13.35,28.22-28.13,39.79-44.52,27.86-39.6,41.54-85.94,49.3-134.11,9.33-57.97,26.11-113.92,42.08-168.23,3.66-12.44,31.43-10.13,59.29-6.27,21.99,3.12,44.07,6.44,54.91,4.2,71.82-14.88-27.37-123.46,11.21-142.17,39.7-19.13,69.67,49.06,110.82,63.37"/><path class="cls-21" d="m2.67,579.36c-20.12-107.14,253.04-191.68,154.86-232.26-50.69-20.95-26.29-68.91,5.41-100.15,13.04-12.88,27.34-22.87,38.09-26.94,79.71-30.21,81.12,26.6,102.51,52.78,5.07,6.24,11.3,10.7,20.02,11.76,43.97,5.37,156.21,21.23,129.41,54.62-175.06,218.13,186.38,92.23,307.16,161.35,45.39,25.98,108.69,58.73,165.37,63.69,13.87,1.21,27.17,1,39.47-1.15,42.58-7.36,83.25-26.88,115.43-55.69,14.73-13.13,28.16-28.02,39.28-44.59,26.84-40.07,38.9-87.33,47.78-134.91,10.94-58.59,25.74-116.12,39.91-172.9,3.29-13,31.44-10.81,59.78-7.06,22.27,2.98,44.67,6.54,55.43,4.42,73.41-14.46-30.21-125.68,8.75-143.81,40.16-18.63,70.22,52.86,111.77,67.41"/><path class="cls-44" d="m1.64,581.64c-22.32-109.1,259.18-193.63,155.78-234.99-75-30,4.84-116.65,42-131,101-39,78,60.66,124,66,44.61,5.18,159.46,21.26,131,56-186,227,189.31,91.12,311,163,54.31,32.08,142.2,71.84,204.56,62.39,62.36-9.45,121.35-44.71,155.22-97.92,25.81-40.54,36.26-88.69,46.25-135.7,12.58-59.19,25.17-118.38,37.75-177.57,5.14-24.17,91.92,1.33,116.21-3.2,75-14-33.04-127.91,6.28-145.46,40.62-18.13,70.77,56.66,112.72,71.46"/><path class="cls-14" d="m5.05,574.02c-19.69-106.17,254.21-188.59,155.52-228.88-71.67-29.21,6.53-112.89,43.33-126.71,98.63-37.05,76.9,59.25,122.21,64.97,7.02.88,15.8,2.03,25.46,3.49,50.64,7.63,125.92,23.66,103.26,52.22-16.59,20.92-28.43,38.65-36.16,53.68-74.45,144.79,235.25,42.1,344.49,104.07,25.7,14.58,58.69,33.42,91.92,44.72,26.23,8.92,50.57,13.7,75.87,15.14,13.31.76,25.67,1.02,37.02-.11,21.83-2.17,42.85-7.02,63.4-15.85,37.03-16.05,71.14-43.01,93.89-76.46,11.37-16.72,17.87-37.58,24.74-56.83,10.05-28.14,19.79-50.63,25.84-78.3,12.67-57.91,24.99-115.84,37.51-173.68,5.23-23.81,89.46.42,113.23-4.26,72.96-14.36-31.17-124.91,7.17-142.37,39.66-18.13,69.04,53.75,109.51,67.65"/><path class="cls-25" d="m8.47,566.41c-17.06-103.24,249.24-183.55,155.27-222.76-68.34-28.41,8.21-109.13,44.65-122.43,96.24-35.11,75.81,57.84,120.42,63.95,6.9.93,15.49,2.13,24.95,3.62,49.51,7.8,122.91,23.84,101.49,51.8-15.69,20.48-26.83,37.79-34.05,52.46-69.54,141.19,231.55,41.12,339.71,100.05,26.41,14.39,60.28,35.64,93.22,45.8,26.67,8.23,48.74,10.49,74.55,10.98,13.75.26,26.08.86,37.27.35,21.45-.98,41.75-3.97,62.46-12.14,37.26-14.7,73.23-41.93,96.89-74.55,11.97-16.49,16.86-39.93,24.08-59.46,11.05-29.88,24.54-47.1,30.83-75.09,12.73-56.63,24.64-113.34,37.28-169.79,5.25-23.45,87-.49,110.25-5.31,70.92-14.71-29.29-121.92,8.06-139.28,38.7-18.13,67.3,50.84,106.31,63.84"/><path class="cls-6" d="m11.88,558.8c-14.43-100.31,244.27-178.51,155.01-216.65-65.01-27.62,9.89-105.37,45.98-118.14,93.84-33.2,74.71,56.42,118.62,62.92,6.78.98,15.19,2.22,24.44,3.75,48.39,7.98,119.91,24.02,99.73,51.38-14.78,20.03-25.22,36.93-31.94,51.23-64.62,137.57,227.93,40.06,334.93,96.04,27.14,14.2,61.89,37.83,94.52,46.87,27.14,7.53,46.91,7.27,73.23,6.82,14.19-.24,26.48,1.05,37.52.8,21.05-.48,40.64-.96,61.52-8.44,37.46-13.42,75.33-40.84,99.9-72.64,12.57-16.27,15.86-42.28,23.42-62.09,12.06-31.61,29.29-43.57,35.82-71.88,12.78-55.35,24.38-110.82,37.04-165.89,5.31-23.1,84.53-1.39,107.27-6.36,68.87-15.06-27.38-118.84,8.95-136.19,37.79-18.04,65.56,47.94,103.1,60.03"/><path class="cls-3" d="m15.29,551.19c-11.8-97.38,239.31-173.47,154.75-210.54-61.68-26.82,11.56-101.62,47.3-113.86,91.42-31.31,73.59,55.12,116.83,61.9,6.65,1.04,14.88,2.31,23.93,3.88,47.27,8.16,116.91,24.19,97.96,50.96-13.87,19.59-23.62,36.07-29.83,50-59.7,133.93,224.39,38.9,330.15,92.02,27.88,14,63.54,39.99,95.82,47.95,27.63,6.82,45.08,4.04,71.91,2.65,14.64-.75,26.87.52,37.77,1.25,20.65,1.38,39.52,2.05,60.57-4.73,37.66-12.14,77.46-39.74,102.91-70.73,13.18-16.04,14.87-44.62,22.76-64.73,13.08-33.34,34.04-40.05,40.82-68.66,12.81-54.07,24.13-108.29,36.8-162,5.37-22.74,82.07-2.3,104.29-7.42,66.82-15.4-25.49-115.82,9.84-133.09,36.85-18.02,63.82,45.03,99.9,56.22"/><path class="cls-54" d="m18.7,543.57c-9.17-94.45,234.34-168.43,154.49-204.43-58.35-26.03,13.22-97.86,48.63-109.57,88.99-29.43,72.49,53.73,115.04,60.87,6.53,1.1,14.58,2.4,23.41,4.02,46.14,8.33,113.91,24.37,96.2,50.53-12.95,19.14-22.01,35.2-27.72,48.78-54.77,130.26,220.92,37.66,325.37,88,28.63,13.8,65.2,42.11,97.13,49.03,28.15,6.1,43.26.79,70.59-1.51,15.09-1.27,27.25.35,38.02,1.7,20.23,2.55,38.4,5.06,59.63-1.03,37.85-10.86,79.6-38.64,105.92-68.82,13.79-15.82,13.89-46.96,22.1-67.36,14.11-35.06,38.78-36.52,45.81-65.45,12.83-52.8,23.88-105.77,36.57-158.11,5.43-22.38,79.6-3.2,101.31-8.47,64.77-15.73-23.61-112.8,10.73-130,35.9-17.99,62.08,42.12,96.69,52.41"/><path class="cls-60" d="m22.11,535.96c-6.55-91.51,229.46-163.58,154.24-198.31-54.95-25.37,14.88-94.11,49.95-105.29,86.54-27.58,71.39,52.34,113.25,59.84,6.4,1.15,14.28,2.5,22.9,4.15,45.02,8.51,110.92,24.53,94.44,50.11-12.04,18.69-20.4,34.33-25.61,47.55-49.83,126.56,217.52,36.33,320.59,83.98,29.4,13.59,66.89,44.2,98.43,50.1,28.69,5.36,41.43-2.47,69.27-5.67,15.54-1.79,27.63.17,38.27,2.16,19.81,3.7,37.28,8.07,58.69,2.67,38.04-9.58,81.76-37.54,108.92-66.91,14.42-15.59,12.92-49.3,21.44-69.99,15.15-36.79,43.52-32.99,50.8-62.24,12.82-51.53,23.63-103.25,36.33-154.22,5.49-22.02,77.14-4.1,98.33-9.52,62.72-16.05-21.72-109.78,11.61-126.91,34.96-17.97,60.34,39.22,93.48,48.6"/><path class="cls-32" d="m25.53,528.35c-3.92-88.58,224.51-158.57,153.98-192.2-51.61-24.6,16.53-90.36,51.28-101,84.08-25.76,70.28,50.95,111.46,58.82,6.28,1.2,13.97,2.59,22.39,4.28,43.9,8.69,107.92,24.69,92.67,49.69-11.12,18.23-18.79,33.45-23.5,46.33-44.89,122.82,214.17,34.91,315.81,79.96,30.17,13.37,68.6,46.26,99.73,51.18,29.24,4.62,39.61-5.73,67.95-9.83,15.98-2.31,28.01-.02,38.52,2.61,19.38,4.84,36.15,11.07,57.75,6.38,38.23-8.31,83.94-36.43,111.93-65,15.05-15.36,11.95-51.64,20.78-72.63,16.2-38.51,48.26-29.47,55.79-59.03,12.81-50.26,23.39-100.73,36.09-150.33,5.55-21.67,74.67-5,95.35-10.57,60.67-16.36-19.83-106.77,12.5-123.82,34.02-17.95,58.6,36.31,90.28,44.79"/><path class="cls-38" d="m28.94,520.74c-1.29-85.65,219.57-153.57,153.72-186.09-48.26-23.84,18.18-86.61,52.6-96.71,81.6-23.96,69.18,49.55,109.66,57.79,6.15,1.25,13.67,2.68,21.87,4.41,42.78,8.87,104.94,24.84,90.91,49.27-10.21,17.77-17.18,32.57-21.39,45.1-39.95,119.04,210.88,33.41,311.03,75.94,30.96,13.15,70.32,48.29,101.03,52.25,29.82,3.85,37.79-9.01,66.64-14,16.43-2.84,28.38-.21,38.77,3.06,18.94,5.97,35.03,14.08,56.81,10.08,38.41-7.05,86.13-35.31,114.94-63.09,15.69-15.13,10.99-53.97,20.11-75.26,17.25-40.23,52.99-25.94,60.78-55.82,12.78-48.99,23.16-98.21,35.86-146.44,5.61-21.31,72.2-5.89,92.37-11.63,58.61-16.66-17.94-103.75,13.39-120.73,33.08-17.93,56.86,33.4,87.07,40.98"/><path class="cls-61" d="m32.35,513.12c1.34-82.72,214.62-148.56,153.46-179.97-44.92-23.07,19.82-82.86,53.93-92.43,79.1-22.19,68.08,48.16,107.87,56.77,6.03,1.3,13.36,2.78,21.36,4.54,41.65,9.04,101.95,24.99,89.14,48.85-9.29,17.31-15.57,31.69-19.28,43.87-35.02,115.21,207.64,31.84,306.25,71.93,31.76,12.91,72.06,50.27,102.34,53.33s35.97-12.29,65.32-18.16c16.88-3.38,28.75-.42,39.02,3.51,18.5,7.08,33.9,17.08,55.87,13.79,38.59-5.78,88.33-34.19,117.94-61.18,16.33-14.89,10.03-56.31,19.45-77.89,18.32-41.94,57.72-22.41,65.77-52.61,12.74-47.73,22.93-95.69,35.62-142.54,5.68-20.95,69.72-6.78,89.39-12.68,56.55-16.95-16.06-100.74,14.28-117.64,32.14-17.91,55.12,30.5,83.87,37.17"/><path class="cls-10" d="m35.76,505.51c3.97-79.79,209.68-143.56,153.21-173.86-41.57-22.3,21.45-79.12,55.26-88.14,76.58-20.45,66.97,46.76,106.08,55.74,5.91,1.36,13.06,2.87,20.85,4.67,40.53,9.22,98.97,25.12,87.38,48.43-8.37,16.84-13.96,30.79-17.17,42.65-30.09,111.34,204.45,30.19,301.47,67.91,32.58,12.67,73.92,57.69,103.64,54.41,30.9-3.42,34.15-15.58,64-22.32,17.33-3.92,29.12-.63,39.27,3.97,18.06,8.17,32.77,20.08,54.93,17.49,38.77-4.53,90.54-33.05,120.95-59.27,16.99-14.65,9.07-58.64,18.79-80.53,19.39-43.65,62.44-18.88,70.77-49.39,12.68-46.47,22.7-93.16,35.38-138.65,5.74-20.59,67.25-7.67,86.41-13.73,54.49-17.23-14.17-97.73,15.17-114.55,31.2-17.89,53.39,27.59,80.66,33.37"/><path class="cls-9" d="m39.18,497.9c6.6-76.86,204.74-138.55,152.95-167.75-38.21-21.54,23.07-75.38,56.58-83.86,74.05-18.74,65.87,45.36,104.29,54.71,5.78,1.41,12.76,2.96,20.34,4.8,39.41,9.4,95.98,25.25,85.61,48.01-7.45,16.36-12.35,29.89-15.06,41.42-25.19,107.4,201.29,28.46,296.69,63.89,33.4,12.4,75.86,59.77,104.94,55.48,31.31-4.62,32.33-18.87,62.68-26.49,17.78-4.46,29.5-.85,39.53,4.42,17.62,9.25,31.64,23.07,53.98,21.19,38.95-3.27,92.77-31.91,123.96-57.36,17.64-14.4,8.12-60.97,18.13-83.16,20.46-45.36,67.16-15.36,75.76-46.18,12.61-45.21,22.48-90.64,35.15-134.76,5.81-20.24,64.78-8.56,83.43-14.79,52.43-17.5-12.28-94.72,16.06-111.46,30.25-17.87,51.65,24.68,77.46,29.56"/><path class="cls-7" d="m42.59,490.29c9.23-73.93,199.81-133.55,152.69-161.63-34.86-20.77,24.69-71.65,57.91-79.57,71.5-17.06,64.76,43.96,102.5,53.69,5.66,1.46,12.45,3.07,19.82,4.93,38.26,9.65,93,25.36,83.85,47.59-6.54,15.87-10.74,28.99-12.94,40.2-20.32,103.41,198.17,26.66,291.91,59.87,34.23,12.13,77.81,61.75,106.25,56.56,31.72-5.79,30.5-22.18,61.36-30.65,18.22-5,29.87-1.07,39.78,4.87,17.19,10.32,30.51,26.07,53.04,24.9,39.12-2.02,95.01-30.75,126.97-55.45,18.31-14.15,7.17-63.3,17.47-85.79,21.55-47.07,71.88-11.83,80.75-42.97,12.53-43.96,22.27-88.12,34.91-130.87,5.88-19.88,62.3-9.44,80.45-15.84,50.36-17.75-10.4-91.71,16.94-108.37,29.31-17.86,49.91,21.78,74.25,25.75"/><path class="cls-13" d="m46,482.67c11.86-71,194.89-128.55,152.43-155.52-31.5-20.01,26.3-67.92,59.23-75.29,68.93-15.42,63.66,42.56,100.7,52.66,5.53,1.51,12.14,3.17,19.31,5.06,37.14,9.83,90.02,25.46,82.09,47.17-5.62,15.37-9.13,28.07-10.83,38.97-15.48,99.34,195.08,24.8,287.14,55.85,35.07,11.83,79.76,63.63,107.55,57.63,32.13-6.93,28.67-25.48,60.04-34.81,18.67-5.55,30.25-1.31,40.03,5.32,16.76,11.37,29.38,29.06,52.1,28.6,39.3-.78,97.25-29.59,129.97-53.54,18.98-13.89,6.22-65.62,16.81-88.43,22.64-48.77,76.59-8.31,85.74-39.76,12.43-42.71,22.06-85.59,34.68-126.98,5.95-19.52,59.82-10.32,77.46-16.89,48.3-17.98-8.51-88.71,17.83-105.28,28.37-17.85,48.17,18.87,71.05,21.94"/><path class="cls-42" d="m49.41,475.06c14.49-68.07,189.97-123.55,152.18-149.41-28.13-19.25,27.9-64.2,60.56-71,66.34-13.81,62.55,41.15,98.91,51.64,5.41,1.56,11.84,3.26,18.8,5.19,36.01,10.01,87.04,25.54,80.32,46.75-4.71,14.87-7.53,27.14-8.72,37.74-10.71,95.2,192.02,22.86,282.36,51.83,35.93,11.52,81.7,65.42,108.85,58.71,32.54-8.05,26.84-28.79,58.72-38.98,19.11-6.1,30.64-1.55,40.28,5.78,16.34,12.41,28.24,32.58,51.16,32.31,39.47-.46,99.51-28.42,132.98-51.63,19.65-13.63,5.28-67.95,16.15-91.06,23.73-50.47,81.29-4.78,90.73-36.55,12.32-41.46,21.86-83.07,34.44-123.09,6.03-19.17,57.34-11.2,74.48-17.94,46.24-18.2-6.63-85.7,18.72-102.19,27.43-17.84,46.43,15.96,67.84,18.13"/><path class="cls-12" d="m52.83,467.45c17.12-65.14,185.06-118.55,151.92-143.29-24.75-18.48,29.5-60.49,61.88-66.71,63.74-12.25,61.45,39.75,97.12,50.61,5.28,1.61,11.54,3.35,18.28,5.32,34.89,10.19,84.05,25.61,78.56,46.32-3.81,14.35-5.93,26.21-6.61,36.52-6,90.99,188.99,20.87,277.58,47.82,36.78,11.19,83.62,67.14,110.15,59.78,32.95-9.13,25.01-32.11,57.4-43.14,19.55-6.66,31.03-1.79,40.53,6.23,15.94,13.45,27.11,35.03,50.22,36.01,39.65,1.69,101.77-27.23,135.99-49.72,20.33-13.36,4.34-70.28,15.48-93.69,24.83-52.17,85.99-1.26,95.73-33.34,12.21-40.21,21.66-80.54,34.2-119.19,6.1-18.81,54.87-12.07,71.5-19,44.18-18.4-4.74-82.7,19.61-99.1,26.48-17.83,44.69,13.06,64.63,14.32"/><path class="cls-36" d="m56.24,459.83c19.74-62.2,180.17-113.54,151.66-137.18-21.37-17.72,31.08-56.79,63.21-62.43,61.12-10.72,60.34,38.34,95.33,49.58,5.16,1.66,11.23,3.45,17.77,5.46,33.76,10.37,81.05,25.66,76.79,45.9-2.91,13.82-4.34,25.26-4.5,35.29-1.39,86.7,185.97,18.82,272.8,43.8,37.65,10.83,85.52,68.77,111.46,60.86,33.38-10.18,23.18-35.43,56.09-47.3,19.99-7.21,31.42-2.04,40.78,6.68,15.54,14.48,25.98,38.01,49.28,39.72,39.82,2.92,104.03-26.04,138.99-47.81,21.01-13.09,3.4-72.6,14.82-96.33,25.94-53.86,90.68,2.26,100.72-30.12,12.08-38.97,21.47-78.01,33.97-115.3,6.18-18.45,52.39-12.93,68.52-20.05,42.12-18.58-2.86-79.71,20.5-96.01,25.54-17.83,42.95,10.15,61.43,10.51"/><path class="cls-35" d="m59.65,452.22c22.37-59.27,175.3-108.53,151.4-131.07-17.97-16.95,32.66-53.11,64.53-58.14,58.49-9.24,59.24,36.92,93.54,48.56,5.03,1.71,10.93,3.54,17.26,5.59,32.64,10.55,78.04,25.69,75.03,45.48-2.02,13.28-2.76,24.31-2.39,34.07,3.1,82.34,182.98,16.7,268.02,39.78,38.53,10.45,86.22,65.06,112.76,61.94,35.38-4.16,21.34-38.75,54.77-51.46,20.43-7.77,31.82-2.29,41.03,7.13,15.15,15.5,24.85,40.99,48.34,43.42,40,4.14,106.3-24.83,142-45.91,21.69-12.8,2.46-74.92,14.16-98.96,27.05-55.56,95.36,5.78,105.71-26.91,11.94-37.73,21.29-75.48,33.73-111.41,6.26-18.09,49.91-13.79,65.54-21.1,40.06-18.74-.98-76.71,21.39-92.92,24.59-17.82,41.21,7.24,58.22,6.7"/><path class="cls-56" d="m63.06,444.61c25-56.34,170.45-103.5,151.15-124.96-14.55-16.17,34.23-49.44,65.86-53.86,55.84-7.81,58.14,35.51,91.75,47.53,4.91,1.76,10.62,3.63,16.74,5.72,31.51,10.73,75.02,25.7,73.26,45.06-1.15,12.73-1.19,23.35-.28,32.84,7.46,77.93,179.99,14.54,263.24,35.76,39.41,10.05,87.99,66.78,114.06,63.01,36-5.21,19.5-42.07,53.45-55.63,20.87-8.33,32.23-2.54,41.28,7.59,14.77,16.53,23.72,43.96,47.39,47.12,40.17,5.36,108.57-23.62,145.01-44,22.37-12.52,1.52-77.25,13.5-101.59,28.16-57.25,100.04,9.29,110.7-23.7,11.79-36.49,21.12-72.95,33.49-107.52,6.35-17.73,47.43-14.64,62.56-22.16,38.01-18.88.9-73.72,22.28-89.83,23.64-17.83,39.48,4.34,55.02,2.89"/><path class="cls-28" d="m66.47,437c27.63-53.41,165.63-98.44,150.89-118.84-11.11-15.37,35.8-45.78,67.19-49.57,53.18-6.42,57.04,34.09,89.95,46.51,4.79,1.8,10.32,3.73,16.23,5.85,30.39,10.91,71.97,25.7,71.5,44.64-.3,12.17.36,22.38,1.83,31.61,11.66,73.47,177.02,12.32,258.46,31.74,40.29,9.61,89.75,68.49,115.37,64.09,36.6-6.29,17.66-45.4,52.13-59.79,21.31-8.9,32.64-2.79,41.53,8.04,14.4,17.55,22.59,46.94,46.45,50.83,40.35,6.58,110.85-22.39,148.01-42.09,23.06-12.22.58-79.57,12.84-104.23,29.28-58.93,104.71,12.81,115.69-20.49,11.63-35.25,20.95-70.42,33.26-103.63,6.44-17.37,44.95-15.48,59.58-23.21,35.96-19,2.78-70.73,23.16-86.74,22.7-17.83,37.74,1.43,51.81-.92"/><path class="cls-33" d="m69.89,429.38c30.26-50.48,160.85-93.32,150.63-112.73-7.65-14.53,37.35-42.15,68.51-45.29,50.5-5.08,55.94,32.67,88.16,45.48,4.66,1.85,10.01,3.82,15.72,5.98,29.26,11.08,68.89,25.69,69.74,44.22.53,11.6,1.9,21.41,3.94,30.39,15.68,68.99,174.05,10.05,253.68,27.72,41.19,9.14,91.5,70.18,116.67,65.16,37.19-7.41,15.82-48.73,50.81-63.95,21.74-9.46,33.06-3.05,41.78,8.49,14.04,18.57,21.46,49.91,45.51,54.53,40.53,7.79,113.12-21.16,151.02-40.18,23.75-11.92-.35-81.89,12.18-106.86,30.41-60.62,109.36,16.32,120.68-17.28,11.47-34.02,20.79-67.88,33.02-99.74,6.53-17.01,42.48-16.31,56.6-24.26,33.92-19.09,4.66-67.74,24.05-83.65,21.75-17.84,36-1.48,48.61-4.72"/><path class="cls-29" d="m73.3,421.77c32.89-47.55,156.07-88.11,150.37-106.62-4.19-13.62,40-32.47,69.84-41,46.12-13.19,54.84,31.25,86.37,44.45,4.54,1.9,9.71,3.91,15.21,6.11,28.14,11.26,65.77,25.67,67.97,43.8,1.34,11.03,3.41,20.44,6.05,29.16,19.52,64.53,171.09,7.73,248.9,23.71,42.08,8.64,93.24,71.85,117.97,66.24,37.77-8.56,13.98-52.06,49.49-68.12,22.18-10.02,33.48-3.3,42.03,8.94,13.68,19.6,20.34,52.88,44.57,58.24,40.72,9,115.4-19.91,154.03-38.27,24.44-11.61-1.28-84.21,11.52-109.49,31.54-62.3,114.01,19.82,125.68-14.07,11.29-32.79,20.64-65.34,32.78-95.84,6.63-16.65,40.01-17.14,53.62-25.31,31.9-19.16,6.54-64.76,24.94-80.56,20.79-17.85,34.26-4.38,45.4-8.53"/><path class="cls-45" d="m76.71,414.16c35.52-44.62,151.22-82.77,150.12-100.5-.79-12.62,41.42-28.87,71.16-36.71,43.71-11.54,53.74,29.82,84.58,43.43,4.41,1.95,9.41,4,14.69,6.24,27.01,11.43,62.62,25.66,66.21,43.38,2.12,10.46,4.9,19.47,8.16,27.94,23.18,60.13,168.13,5.36,244.12,19.69,42.98,8.1,94.97,73.5,119.27,67.32,38.33-9.76,12.13-55.4,48.17-72.28,22.61-10.59,33.91-3.55,42.28,9.4,13.33,20.62,19.21,55.85,43.63,61.94,40.9,10.21,117.68-18.66,157.04-36.36,25.13-11.3-2.22-86.53,10.85-112.13,32.67-63.98,118.64,23.32,130.67-10.85,11.11-31.57,20.5-62.8,32.55-91.95,6.73-16.28,37.54-17.95,50.64-26.37,29.88-19.2,8.41-61.78,25.83-77.47,19.84-17.86,32.52-7.29,42.2-12.34"/><path class="cls-47" d="m80.12,406.55c38.15-41.69,146.21-77.37,149.86-94.39,2.48-11.58,42.81-25.37,72.49-32.43,41.31-9.82,52.64,28.39,82.79,42.4,4.29,1.99,9.1,4.1,14.18,6.37,25.89,11.6,59.42,25.67,64.44,42.96,2.88,9.91,6.36,18.52,10.27,26.71,26.67,55.81,165.16,2.95,239.34,15.67,43.89,7.52,96.68,75.15,120.58,68.39,38.86-10.99,10.28-58.73,46.86-76.44,23.04-11.16,34.34-3.81,42.53,9.85,12.99,21.65,18.09,58.81,42.69,65.65,41.09,11.41,119.96-17.4,160.04-34.45,25.82-10.98-3.15-88.85,10.19-114.76,33.8-65.65,123.27,26.82,135.66-7.64,10.91-30.35,20.37-60.25,32.31-88.06,6.84-15.92,35.09-18.76,47.66-27.42,27.88-19.22,10.28-58.8,26.72-74.38,18.88-17.88,30.78-10.2,38.99-16.15"/><path class="cls-30" d="m83.54,398.93c40.78-38.76,140.99-72.07,149.6-88.28,5.63-10.6,44.17-22.01,73.81-28.14,38.92-8.06,51.55,26.96,80.99,41.38,4.17,2.04,8.8,4.19,13.67,6.5,24.77,11.77,56.18,25.7,62.68,42.54,3.61,9.36,7.8,17.6,12.38,25.49,30.01,51.64,162.18.5,234.56,11.65,44.79,6.9,98.39,76.78,121.88,69.47,39.38-12.25,8.43-62.07,45.54-80.61,23.47-11.73,34.78-4.06,42.78,10.3,12.65,22.68,16.96,61.78,41.74,69.35,41.28,12.61,122.23-16.14,163.05-32.54,26.51-10.65-4.08-91.17,9.53-117.39,34.94-67.33,127.88,30.31,140.65-4.43,10.71-29.13,20.24-57.7,32.07-84.17,6.95-15.55,32.64-19.55,44.68-28.47,25.91-19.21,12.14-55.83,27.61-71.29,17.91-17.91,29.04-13.1,35.78-19.96"/><path class="cls-34" d="m86.95,391.32c43.41-35.83,135.7-66.95,149.34-82.16,8.73-9.74,45.51-18.8,75.14-23.86,36.53-6.23,50.46,25.53,79.2,40.35,4.05,2.09,8.49,4.28,13.15,6.63,23.65,11.94,52.9,25.77,60.91,42.12,4.33,8.84,9.21,16.7,14.49,24.26,33.26,47.63,159.2-1.99,229.78,7.63,45.69,6.23,100.07,78.4,123.18,70.54,39.86-13.55,6.58-65.4,44.22-84.77,23.9-12.3,35.22-4.3,43.04,10.75,12.32,23.72,15.84,64.74,40.8,73.05,41.47,13.81,124.51-14.86,166.06-30.63,27.2-10.32-5.01-93.48,8.87-120.03,36.08-69,132.47,33.79,145.64-1.22,10.51-27.92,20.13-55.15,31.84-80.28,7.07-15.17,30.2-20.32,41.7-29.53,23.95-19.17,14-52.86,28.49-68.2,16.94-17.93,27.3-16.01,32.58-23.77"/><path class="cls-40" d="m90.36,383.71c46.04-32.9,130.46-61.98,149.09-76.05,11.88-8.98,46.84-15.8,76.46-19.57,34.15-4.34,49.37,24.09,77.41,39.33,3.92,2.13,8.19,4.37,12.64,6.77,22.52,12.11,49.59,25.88,59.15,41.69,5.04,8.34,10.61,15.83,16.6,23.03,36.46,43.82,156.2-4.52,225,3.61,46.59,5.51,101.74,80.02,124.49,71.62,40.32-14.89,4.72-68.74,42.9-88.93,24.33-12.87,35.66-4.55,43.29,11.21,11.99,24.75,14.72,67.7,39.86,76.76,41.67,15.01,126.78-13.58,169.06-28.72,27.89-9.99-5.94-95.8,8.21-122.66,37.23-70.67,137.04,37.27,150.64,1.99,10.29-26.71,20.03-52.58,31.6-76.39,7.19-14.8,27.78-21.09,38.72-30.58,22.03-19.12,15.86-49.89,29.38-65.11,15.97-17.96,25.56-18.92,29.37-27.58"/><path class="cls-26" d="m93.77,376.1c48.66-29.96,125.31-57.07,148.83-69.94,15.09-8.26,48.22-17.83,77.79-15.29,31.72,2.73,48.28,22.65,75.62,38.3,3.8,2.18,7.89,4.46,12.13,6.9,21.4,12.28,46.26,26.05,57.39,41.27,5.75,7.87,12,15,18.71,21.81,39.68,40.23,153.18-7.09,220.22-.41,47.49,4.73,103.4,81.62,125.79,72.7,40.76-16.25,2.87-72.08,41.58-93.1,24.75-13.44,36.1-4.8,43.54,11.66,11.66,25.79,13.61,70.66,38.92,80.46,41.86,16.2,129.05-12.29,172.07-26.81,28.58-9.64-6.87-98.12,7.55-125.29,38.38-72.34,141.6,40.74,155.63,5.2,10.07-25.5,19.93-50.01,31.37-72.5,7.33-14.42,25.38-21.84,35.74-31.63,20.14-19.04,17.71-46.93,30.27-62.02,14.99-18,23.83-21.82,26.17-31.39"/><path class="cls-22" d="m97.18,368.48c51.29-27.03,120.23-52.16,148.57-63.82,18.34-7.55,49.82-14.64,79.12-11,29.09,3.61,47.2,21.2,73.83,37.27,3.68,2.22,7.58,4.55,11.61,7.03,20.29,12.45,42.94,26.27,55.62,40.85,6.46,7.43,13.39,14.21,20.82,20.58,42.96,36.83,150.14-9.68,215.44-4.42,48.38,3.9,105.04,83.23,127.09,73.77,41.16-17.65,1.01-75.42,40.26-97.26,25.18-14.01,36.54-5.04,43.79,12.11,11.34,26.84,12.49,73.62,37.98,84.17,42.06,17.4,131.32-11,175.08-24.9,29.27-9.3-7.8-100.43,6.88-127.93,39.53-74.01,146.13,44.19,160.62,8.42,9.84-24.3,19.85-47.44,31.13-68.6,7.47-14.03,23-22.58,32.76-32.68,18.29-18.95,19.56-43.97,31.16-58.93,13.99-18.04,22.09-24.73,22.96-35.2"/><path class="cls-50" d="m100.6,360.87c53.92-24.1,115.19-47.25,148.31-57.71,21.62-6.83,51.47-11.57,80.44-6.71,26.52,4.44,46.12,19.75,72.03,36.25,3.56,2.27,7.28,4.64,11.1,7.16,19.19,12.58,39.62,26.54,53.86,40.43,7.18,7.01,14.79,13.45,22.93,19.36,46.35,33.62,147.07-12.31,210.66-8.44,49.27,3,106.66,84.83,128.39,74.85,41.52-19.07-.89-78.84,38.94-101.42,25.58-14.63,36.99-5.28,44.04,12.56,11.02,27.88,11.4,76.53,37.04,87.87,42.3,18.51,133.58-9.7,178.09-22.99,29.95-8.95-8.68-102.72,6.22-130.56,40.81-75.61,150.64,47.64,165.61,11.63,9.61-23.11,19.78-44.85,30.89-64.71,7.63-13.63,20.66-23.3,29.78-33.74,16.48-18.86,21.39-41.01,32.05-55.84,12.99-18.08,20.35-27.64,19.76-39.01"/><path class="cls-43" d="m104.01,353.26c56.55-21.17,110.18-42.32,148.06-51.6,24.93-6.11,53.18-8.65,81.77-2.43,24.01,5.23,45.07,18.26,70.24,35.22,3.44,2.3,6.98,4.73,10.59,7.29,18.07,12.76,36.32,26.85,52.09,40.01,7.92,6.61,16.21,12.71,25.04,18.13,49.88,30.56,143.98-14.97,205.88-12.46,50.14,2.04,108.27,86.43,129.7,75.92,41.86-20.52-2.73-82.14,37.62-105.58,26.01-15.18,37.43-5.52,44.29,13.02,10.7,28.93,10.28,79.52,36.1,91.57,42.49,19.74,135.85-8.39,181.09-21.08,30.64-8.59-9.63-105.05,5.56-133.19,41.91-77.3,155.11,51.06,170.6,14.84,9.37-21.92,19.71-42.25,30.66-60.82,7.79-13.22,18.34-24.02,26.79-34.79,14.72-18.76,23.22-38.05,32.94-52.75,11.98-18.12,18.61-30.54,16.55-42.81"/><path class="cls-59" d="m107.42,345.65c132.63-40.88,199.1-86.23,309.42-2.01,25.45,19.43,49.02,41.82,77.48,56.49,53.57,27.62,140.84-17.66,201.1-16.48,51,1,109.85,88.03,131,77,42.16-22-4.57-85.44,36.31-109.75,67.69-40.25,37.01,87.77,79.69,108.75,42.68,20.97,138.11-7.09,184.1-19.17,31.32-8.23-10.58-107.38,4.9-135.83,43-79,159.56,54.47,175.59,18.05,41.41-94.05,111.71-150.54,101.41-189.05"/></g></svg>