<?xml version="1.0" encoding="UTF-8"?><svg id="Layer_2" xmlns="http://www.w3.org/2000/svg" width="776.51" height="368.69" xmlns:xlink="http://www.w3.org/1999/xlink" viewBox="0 0 776.51 368.69"><defs><style>.cls-1{stroke:url(#linear-gradient-2);}.cls-1,.cls-2,.cls-3,.cls-4,.cls-5,.cls-6,.cls-7,.cls-8,.cls-9,.cls-10,.cls-11,.cls-12,.cls-13,.cls-14,.cls-15,.cls-16,.cls-17,.cls-18,.cls-19,.cls-20,.cls-21,.cls-22,.cls-23,.cls-24,.cls-25,.cls-26,.cls-27,.cls-28,.cls-29,.cls-30,.cls-31,.cls-32{fill:none;stroke-miterlimit:10;}.cls-2{stroke:url(#linear-gradient-3);}.cls-3{stroke:url(#linear-gradient-28);}.cls-4{stroke:url(#linear-gradient-9);}.cls-5{stroke:url(#linear-gradient-22);}.cls-6{stroke:url(#linear-gradient-19);}.cls-7{stroke:url(#linear-gradient-26);}.cls-8{stroke:url(#linear-gradient-4);}.cls-9{stroke:url(#linear-gradient-6);}.cls-10{stroke:url(#linear-gradient-18);}.cls-11{stroke:url(#linear-gradient-13);}.cls-12{stroke:url(#linear-gradient-29);}.cls-13{stroke:url(#linear-gradient-16);}.cls-14{stroke:url(#linear-gradient-17);}.cls-15{stroke:url(#linear-gradient-30);}.cls-16{stroke:url(#linear-gradient-7);}.cls-17{stroke:url(#linear-gradient-21);}.cls-18{stroke:url(#linear-gradient-12);}.cls-19{stroke:url(#linear-gradient-5);}.cls-20{stroke:url(#linear-gradient-32);}.cls-21{stroke:url(#linear-gradient-20);}.cls-22{stroke:url(#linear-gradient-24);}.cls-23{stroke:url(#linear-gradient-31);}.cls-24{stroke:url(#linear-gradient);}.cls-25{stroke:url(#linear-gradient-25);}.cls-26{stroke:url(#linear-gradient-27);}.cls-27{stroke:url(#linear-gradient-23);}.cls-28{stroke:url(#linear-gradient-14);}.cls-29{stroke:url(#linear-gradient-11);}.cls-30{stroke:url(#linear-gradient-8);}.cls-31{stroke:url(#linear-gradient-10);}.cls-32{stroke:url(#linear-gradient-15);}</style><linearGradient id="linear-gradient" x1="0" y1="199.97" x2="766.73" y2="199.97" gradientUnits="userSpaceOnUse"><stop offset="0" stop-color="#fffaf5" stop-opacity="0"/><stop offset=".23" stop-color="#fb8500"/><stop offset=".83" stop-color="#fb8500"/><stop offset="1" stop-color="#fffaf5" stop-opacity="0"/></linearGradient><linearGradient id="linear-gradient-2" x1="1.09" y1="197.76" x2="766.87" y2="197.76" xlink:href="#linear-gradient"/><linearGradient id="linear-gradient-3" x1="2.19" y1="195.55" x2="767" y2="195.55" xlink:href="#linear-gradient"/><linearGradient id="linear-gradient-4" x1="3.28" y1="193.35" x2="767.13" y2="193.35" xlink:href="#linear-gradient"/><linearGradient id="linear-gradient-5" x1="4.38" y1="191.14" x2="767.26" y2="191.14" xlink:href="#linear-gradient"/><linearGradient id="linear-gradient-6" x1="5.47" y1="188.93" x2="767.39" y2="188.93" xlink:href="#linear-gradient"/><linearGradient id="linear-gradient-7" x1="6.57" y1="186.73" x2="767.53" y2="186.73" xlink:href="#linear-gradient"/><linearGradient id="linear-gradient-8" x1="7.66" y1="184.52" x2="767.66" y2="184.52" xlink:href="#linear-gradient"/><linearGradient id="linear-gradient-9" x1="8.76" y1="182.32" x2="767.79" y2="182.32" xlink:href="#linear-gradient"/><linearGradient id="linear-gradient-10" x1="9.85" y1="180.11" x2="767.92" y2="180.11" xlink:href="#linear-gradient"/><linearGradient id="linear-gradient-11" x1="10.95" y1="177.91" x2="768.05" y2="177.91" xlink:href="#linear-gradient"/><linearGradient id="linear-gradient-12" x1="12.04" y1="175.7" x2="768.18" y2="175.7" xlink:href="#linear-gradient"/><linearGradient id="linear-gradient-13" x1="13.14" y1="173.5" x2="768.31" y2="173.5" xlink:href="#linear-gradient"/><linearGradient id="linear-gradient-14" x1="14.23" y1="171.29" x2="768.44" y2="171.29" xlink:href="#linear-gradient"/><linearGradient id="linear-gradient-15" x1="15.32" y1="169.09" x2="768.57" y2="169.09" xlink:href="#linear-gradient"/><linearGradient id="linear-gradient-16" x1="16.42" y1="166.89" x2="768.7" y2="166.89" xlink:href="#linear-gradient"/><linearGradient id="linear-gradient-17" x1="17.51" y1="164.68" x2="768.83" y2="164.68" xlink:href="#linear-gradient"/><linearGradient id="linear-gradient-18" x1="18.61" y1="162.47" x2="768.98" y2="162.47" xlink:href="#linear-gradient"/><linearGradient id="linear-gradient-19" x1="19.7" y1="160.26" x2="769.17" y2="160.26" xlink:href="#linear-gradient"/><linearGradient id="linear-gradient-20" x1="20.8" y1="158.05" x2="769.43" y2="158.05" xlink:href="#linear-gradient"/><linearGradient id="linear-gradient-21" x1="21.89" y1="155.84" x2="769.74" y2="155.84" xlink:href="#linear-gradient"/><linearGradient id="linear-gradient-22" x1="22.99" y1="153.63" x2="770.1" y2="153.63" xlink:href="#linear-gradient"/><linearGradient id="linear-gradient-23" x1="24.09" y1="151.42" x2="770.52" y2="151.42" xlink:href="#linear-gradient"/><linearGradient id="linear-gradient-24" x1="25.18" y1="149.21" x2="770.99" y2="149.21" xlink:href="#linear-gradient"/><linearGradient id="linear-gradient-25" x1="26.28" y1="147.01" x2="771.52" y2="147.01" xlink:href="#linear-gradient"/><linearGradient id="linear-gradient-26" x1="27.37" y1="144.81" x2="772.09" y2="144.81" xlink:href="#linear-gradient"/><linearGradient id="linear-gradient-27" x1="28.47" y1="143.37" x2="772.71" y2="143.37" xlink:href="#linear-gradient"/><linearGradient id="linear-gradient-28" x1="29.56" y1="144.08" x2="773.38" y2="144.08" xlink:href="#linear-gradient"/><linearGradient id="linear-gradient-29" x1="30.66" y1="144.79" x2="774.1" y2="144.79" xlink:href="#linear-gradient"/><linearGradient id="linear-gradient-30" x1="31.75" y1="145.5" x2="774.86" y2="145.5" xlink:href="#linear-gradient"/><linearGradient id="linear-gradient-31" x1="32.85" y1="146.21" x2="775.66" y2="146.21" xlink:href="#linear-gradient"/><linearGradient id="linear-gradient-32" x1="33.94" y1="146.93" x2="776.51" y2="146.93" xlink:href="#linear-gradient"/></defs><g id="Layer_5"><path class="cls-24" d="m.28,109.16c123-83,70.75,13.57,83.64,11.89s27.41,6.78,29.03,19.68c.88,7.05,32.42,1.95,35.34,8.42,3.14,6.99-22.54,22.44-14.89,22.18s15.13-2.71,22.79-2.77c22.37-.18,84.11,31.58,64.09,41.59-64,32,89,60-5,72-22.19,2.83-28.18,40.17-21.66,61.57,5.1,16.75,36.17-22.86,53.66-23.57,7.98-.32-1.36,51.45,5.77,47.86,18.54-9.33,37.9-19.36,49.5-36.57,13.38-19.86,13.89-45.32,19.45-68.62,5.56-23.29,21-48.34,44.91-49.53,20.8-1.04,39.92,16.77,60.38,12.93,7.18-1.35,13.61-5.29,19.37-9.77,11.01-8.56,20.25-19.38,26.97-31.59,8.43-15.3-14.74-52.02,2.64-53.71,12.01-1.16,50,15,61-12,13.76-33.78,62.12-28.99,50-11-31,46,85,3,98-43,8.15-28.85,61,32,80.98-33.77"/><path class="cls-1" d="m1.38,108.43c17.76-12.25,32.21-20.53,43.74-25.87,36.13-16.74,42.5-4.04,41.5,11.73-.83,12.79-5.19,26.27-.31,25.77,12.77-1.36,27.49,6.05,29.59,18.51.18,1.1,1.15,1.9,2.61,2.53,7.77,3.35,29.22,1.32,31.52,7.05,2.87,7.18-21.86,22.51-13.77,22.33,7.53-.16,14.78-2.5,22.19-2.4,7.83.1,20.6,4.32,32.97,9.99,21.82,10,42,24.8,29.87,31.01-10.39,5.32-14.74,10.48-15.26,15.53-2.36,22.99,75.03,42.54,23.77,53.43-3.67.78-7.99,1.54-13.04,2.25-21.65,3.08-27.61,39.55-21.24,60.62,2.97,9.8,14.95.12,27.78-9.43,8.66-6.42,17.7-12.8,24.6-13.08,7.88-.33-.99,49.73,6.06,46.2,18.13-9.1,37-18.94,48.4-35.73,7.51-11.06,10.42-23.75,13.51-36.45,2.57-10.56,4.31-20.92,7.19-30.68,4.99-17.21,16.1-35.19,32.47-42.71,4.13-1.9,8.57-3.05,13.29-3.38,21.6-1.49,39.83,14.73,59.09,10.19,6.75-1.59,12.81-5.61,18.12-10.27,6.27-5.5,11.84-11.91,17.17-18.67,2.49-3.14,4.88-6.08,7.04-9.4.75-1.16,1.48-2.34,2.17-3.55.69-1.19,1.19-2.52,1.54-3.95,4.1-16.89-13.96-48.85,2.38-50.24,6.56-.56,16.69,2.84,27.75,3.38,13.19.64,27.44-1.25,33.06-16.03,7.82-20.55,28.23-26.73,40.89-24.83,8.65,1.29,13.76,6.43,9.16,13.69-1.55,2.47-2.69,4.68-3.45,6.66-10.01,25.88,44.68,10.84,78.66-16.06,11.52-9.12,20.84-19.65,24.31-30.51,9.01-28.23,60.91,29.71,79.66-35.71"/><path class="cls-2" d="m2.48,107.71c17.63-12.42,32.33-20.7,44.18-26.06,35.73-16.14,43.44-4.62,42.32,11.35-.95,13.06-5.13,26.44-.29,26.06,12.65-1,27.58,5.32,30.14,17.34.23,1.06,1.22,1.85,2.68,2.51,7.83,3.54,28.11,2.2,30.24,8.22,2.61,7.36-21.17,22.82-12.65,22.48,7.4-.3,14.44-2.28,21.6-2.03,7.57.27,19.88,4.6,31.96,10.2,21.29,9.84,41.11,24.2,29.63,30.23-9.91,5.2-14.01,10.2-14.42,15.16-1.88,22.51,72.75,41.75,23.05,52.88-3.58.8-7.79,1.6-12.69,2.36-21.11,3.26-27.04,38.93-20.81,59.68,2.89,9.58,14.53.35,27.04-8.82,8.46-6.16,17.3-12.33,24.07-12.62,7.78-.34-.62,48.01,6.35,44.54,17.73-8.87,36.1-18.52,47.29-34.88,7.76-11.34,10.11-24.28,13.74-36.86,2.98-10.3,5.04-19.91,8.2-28.78,5.58-15.68,16.9-31.82,33.14-39.16,4.22-1.91,8.73-3.06,13.48-3.47,22.4-1.95,39.75,12.68,57.8,7.46,6.33-1.84,12.01-5.95,16.87-10.78,5.76-5.73,10.74-12.41,16.16-19.12,2.55-3.15,5.09-5.75,7.36-9.02.79-1.14,1.55-2.32,2.28-3.52.72-1.19,1.26-2.52,1.64-3.95,4.57-16.91-13.09-49.45,3.55-50.72,7.61-.58,16.93,3.55,27.74,3.27,13-.34,27.6-1.64,32.9-16.56,7.48-21.07,27.97-26.97,40.63-24.96,8.6,1.34,13.72,6.47,9.48,13.68-1.44,2.45-2.46,4.66-3.13,6.64-8.81,25.88,45.15,12,79.2-13.81,11.54-8.75,21.14-18.95,24.97-29.65,9.86-27.61,60.82,27.41,78.35-37.64"/><path class="cls-8" d="m3.58,106.98c17.5-12.59,32.45-20.88,44.62-26.24,35.31-15.57,44.38-5.19,43.14,10.97-1.07,13.34-5.08,26.61-.26,26.36,12.52-.66,27.68,4.6,30.7,16.17.27,1.03,1.3,1.8,2.74,2.49,7.88,3.74,26.99,3.07,28.97,9.39,2.36,7.53-20.49,23-11.53,22.63,7.28-.31,14.09-2.07,21-1.65,7.3.44,19.15,4.88,30.94,10.4,20.76,9.69,40.22,23.6,29.38,29.45-9.42,5.09-13.27,9.93-13.58,14.79-1.41,22.02,70.47,40.97,22.33,52.34-3.49.82-7.58,1.67-12.35,2.48-20.56,3.47-26.48,38.32-20.38,58.73,2.82,9.37,14.08.54,26.29-8.22,8.24-5.92,16.9-11.87,23.54-12.16,7.69-.36-.25,46.3,6.65,42.88,17.32-8.64,35.21-18.1,46.19-34.04,8.01-11.63,9.78-24.8,13.98-37.26,3.38-10.04,5.74-18.9,9.21-26.88,6.14-14.15,17.7-28.44,33.81-35.61,4.32-1.92,8.89-3.08,13.66-3.57,23.21-2.43,39.67,10.64,56.51,4.72,5.9-2.08,11.23-6.29,15.62-11.29,5.26-5.98,9.65-12.91,15.15-19.56,2.62-3.17,5.3-5.43,7.68-8.64.83-1.12,1.62-2.29,2.38-3.49.76-1.19,1.33-2.52,1.75-3.95,5.05-16.92-12.23-50.03,4.71-51.2,8.67-.6,17.21,4.01,27.72,3.15,12.79-1.05,27.75-2.04,32.73-17.09,7.13-21.59,27.71-27.2,40.37-25.09,8.55,1.39,13.69,6.52,9.8,13.68-1.32,2.43-2.24,4.65-2.81,6.63-7.61,25.87,45.61,13.16,79.73-11.55,11.56-8.38,21.44-18.24,25.63-28.79,10.7-26.98,60.73,25.12,77.03-39.57"/><path class="cls-19" d="m4.67,106.26c17.36-12.76,32.57-21.06,45.06-26.43,34.89-15.01,45.36-5.77,43.97,10.59-1.16,13.62-5.02,26.77-.24,26.65,12.4-.32,27.78,3.89,31.26,14.99.31,1,1.38,1.76,2.81,2.47,7.93,3.94,25.89,3.94,27.7,10.57,2.11,7.7-19.81,23.18-10.41,22.77,7.15-.31,13.74-1.86,20.4-1.28,7.04.61,18.43,5.15,29.93,10.6,20.23,9.54,39.33,22.99,29.14,28.67-8.93,4.97-12.53,9.65-12.74,14.42-.93,21.53,68.18,40.2,21.62,51.8-3.4.85-7.38,1.74-12.01,2.59-20.02,3.68-25.91,37.7-19.96,57.78,2.74,9.16,13.66.76,25.55-7.62,8.03-5.67,16.5-11.4,23.01-11.7,7.59-.37.12,44.6,6.94,41.22,16.93-8.38,34.33-17.68,45.09-33.19,8.26-11.91,9.44-25.32,14.21-37.67,3.77-9.77,6.44-17.88,10.22-24.99,6.7-12.62,18.5-25.06,34.47-32.06,4.41-1.93,9.06-3.09,13.85-3.67,24.02-2.91,39.58,8.6,55.22,1.99,5.48-2.33,10.44-6.65,14.37-11.79,4.76-6.24,8.57-13.4,14.14-20.01,2.68-3.18,5.51-5.11,8-8.26.87-1.1,1.7-2.26,2.49-3.46.79-1.19,1.39-2.53,1.85-3.95,5.52-16.94-11.36-50.59,5.88-51.68,9.73-.62,17.44,3.63,27.71,3.04,12.67-.73,27.9-2.43,32.56-17.62,6.78-22.13,27.45-27.4,40.11-25.22,8.5,1.47,13.66,6.56,10.12,13.67-1.2,2.42-2.01,4.63-2.49,6.61-6.36,25.88,46.08,14.32,80.27-9.3,11.58-8.01,21.74-17.54,26.29-27.93,11.53-26.35,60.64,22.82,75.72-41.5"/><path class="cls-9" d="m5.77,105.54c17.23-12.94,32.68-21.24,45.5-26.61,34.46-14.46,46.31-6.34,44.79,10.21-1.28,13.9-4.97,27.01-.21,26.94,12.27-.18,27.9,3.19,31.82,13.82.36.97,1.45,1.71,2.87,2.44,7.98,4.14,24.78,4.81,26.43,11.74,1.87,7.87-19.13,23.34-9.29,22.92,7.03-.3,13.4-1.64,19.81-.9,6.78.78,17.7,5.43,28.92,10.8,19.7,9.38,38.44,22.39,28.9,27.88-8.44,4.86-11.79,9.37-11.9,14.05-.46,21.04,65.89,39.44,20.9,51.26-3.32.87-7.17,1.81-11.67,2.71-19.48,3.9-25.35,37.09-19.53,56.83,2.66,8.95,13.23.98,24.8-7.02,7.83-5.41,16.11-10.94,22.48-11.24,7.5-.38.49,42.88,7.23,39.57,16.53-8.14,33.44-17.25,43.99-32.35,8.51-12.19,9.09-25.82,14.45-38.08,4.15-9.5,7.15-16.86,11.23-23.09,7.26-11.08,19.3-21.68,35.14-28.51,4.51-1.95,9.22-3.11,14.03-3.77,24.83-3.4,39.5,6.56,53.93-.75,5.05-2.58,9.66-7.02,13.12-12.3,4.27-6.52,7.49-13.89,13.13-20.45,2.75-3.19,5.72-4.78,8.31-7.88.91-1.08,1.77-2.23,2.59-3.43.82-1.19,1.46-2.53,1.96-3.95,5.95-16.97-10.49-51.14,7.04-52.16,10.79-.63,17.7,3.88,27.69,2.93,12.52-1.19,28.05-2.84,32.39-18.16,6.42-22.66,27.19-27.63,39.85-25.35,8.45,1.52,13.62,6.61,10.44,13.66-1.09,2.4-1.78,4.61-2.17,6.59-5.14,25.87,46.55,15.48,80.81-7.05,11.59-7.64,22.03-16.83,26.95-27.07,12.35-25.72,60.54,20.53,74.4-43.43"/><path class="cls-16" d="m6.87,104.81c17.09-13.11,32.8-21.42,45.94-26.8,34.02-13.93,47.26-6.92,45.61,9.83-1.39,14.17-4.91,27.1-.19,27.24,12.15.35,28.03,2.49,32.38,12.65.4.94,1.53,1.66,2.93,2.42,8.03,4.34,23.69,5.67,25.16,12.92,1.63,8.03-18.46,23.5-8.17,23.07,6.9-.29,13.06-1.43,19.21-.53,6.53.95,16.98,5.71,27.91,11,19.17,9.23,37.56,21.79,28.65,27.1-7.95,4.75-11.06,9.09-11.05,13.68.01,20.55,63.6,38.68,20.19,50.72-3.23.9-6.97,1.88-11.33,2.82-18.94,4.11-24.78,36.47-19.1,55.89,2.59,8.74,12.8,1.2,24.05-6.42,7.62-5.16,15.71-10.47,21.95-10.77,7.4-.39.87,41.17,7.52,37.91,16.12-7.9,32.57-16.82,42.88-31.5,8.76-12.47,8.73-26.32,14.68-38.48,4.52-9.23,7.84-15.83,12.24-21.2,7.81-9.53,20.1-18.29,35.81-24.96,4.61-1.96,9.38-3.14,14.22-3.87,25.65-3.89,39.41,4.51,52.64-3.49,4.63-2.82,8.87-7.41,11.87-12.81,3.78-6.82,6.4-14.39,12.12-20.9,2.81-3.2,5.93-4.46,8.63-7.49.95-1.06,1.85-2.2,2.7-3.4.85-1.19,1.53-2.53,2.06-3.95,6.42-16.99-9.62-51.68,8.21-52.64,11.84-.63,17.97,4.12,27.68,2.81,12.38-1.66,28.19-3.24,32.22-18.69,6.06-23.2,26.93-27.86,39.59-25.48,8.4,1.58,13.59,6.66,10.76,13.65-.97,2.39-1.55,4.59-1.85,6.57-3.93,25.86,47.01,16.64,81.34-4.79,11.61-7.27,22.32-16.12,27.61-26.21,13.15-25.09,60.45,18.24,73.09-45.36"/><path class="cls-30" d="m7.97,104.09c16.96-13.28,32.91-21.6,46.37-26.99,33.57-13.42,48.21-7.49,46.44,9.45-1.51,14.45-4.86,27.27-.16,27.53,12.02.68,28.17,1.8,32.94,11.48.45.92,1.6,1.62,3,2.4,8.09,4.54,22.59,6.53,23.89,14.09,1.41,8.19-17.78,23.65-7.05,23.22,6.78-.28,12.71-1.21,18.61-.15,6.27,1.12,16.26,5.99,26.89,11.2,18.64,9.08,36.68,21.18,28.41,26.32-7.46,4.64-10.32,8.81-10.21,13.31.48,20.05,61.31,37.93,19.47,50.18-3.14.92-6.77,1.95-10.99,2.94-18.4,4.33-24.22,35.85-18.68,54.94,2.51,8.52,12.37,1.41,23.31-5.82,7.42-4.91,15.31-9.99,21.42-10.31,7.31-.38,1.24,39.46,7.81,36.25,15.72-7.67,31.69-16.38,41.78-30.66,9.01-12.75,8.36-26.82,14.92-38.89,4.87-8.96,8.53-14.8,13.25-19.3,8.34-7.96,20.91-14.9,36.47-21.41,4.7-1.97,9.54-3.16,14.4-3.97,26.46-4.4,39.35,2.5,51.35-6.22,4.21-3.06,8.08-7.81,10.62-13.31,3.29-7.13,5.32-14.88,11.11-21.34,2.88-3.21,6.14-4.14,8.95-7.11.99-1.04,1.92-2.18,2.81-3.37.89-1.19,1.59-2.53,2.17-3.96,6.89-17.01-8.75-52.22,9.38-53.12,12.9-.64,18.24,4.35,27.67,2.7,12.25-2.15,28.32-3.65,32.05-19.22,5.69-23.75,26.67-28.09,39.33-25.61,8.36,1.63,13.56,6.72,11.08,13.65-.85,2.37-1.33,4.57-1.54,6.55-2.72,25.85,47.48,17.8,81.88-2.54,11.63-6.9,22.6-15.42,28.27-25.35,13.94-24.45,60.36,15.94,71.77-47.29"/><path class="cls-4" d="m9.07,103.36c16.82-13.45,33.02-21.79,46.81-27.17,33.12-12.92,49.15-8.07,47.26,9.07-1.63,14.73-4.8,27.43-.13,27.83,11.9,1.02,28.33,1.11,33.5,10.3.5.89,1.68,1.57,3.06,2.38,8.14,4.75,21.5,7.39,22.62,15.27,1.18,8.34-17.11,22.92-5.93,23.36,6.66.26,12.37-.99,18.02.22,6.02,1.29,15.53,6.26,25.88,11.4,18.11,8.92,35.8,20.58,28.17,25.54-6.97,4.52-9.58,8.53-9.37,12.94.95,19.55,59.01,37.19,18.75,49.64-3.05.94-6.57,2.02-10.65,3.05-17.87,4.55-23.69,35.25-18.25,53.99,2.42,8.32,11.95,1.63,22.56-5.22,7.21-4.66,14.91-9.53,20.89-9.85,7.21-.39,1.61,37.74,8.11,34.59,15.31-7.43,30.82-15.95,40.68-29.81,9.27-13.03,7.97-27.32,15.15-39.3,5.21-8.68,9.21-13.76,14.26-17.4,8.86-6.4,21.71-11.51,37.14-17.86,4.8-1.98,9.71-3.19,14.58-4.07,27.27-4.92,39.27.46,50.05-8.96,3.78-3.3,7.28-8.23,9.37-13.82,2.79-7.47,4.24-15.37,10.1-21.79,2.94-3.22,6.35-3.81,9.27-6.73,1.03-1.02,1.99-2.15,2.91-3.34.92-1.19,1.66-2.53,2.28-3.96,7.36-17.03-7.88-52.76,10.54-53.6,13.96-.64,18.52,4.57,27.65,2.59,12.12-2.64,28.45-4.06,31.88-19.75,5.31-24.3,26.41-28.32,39.07-25.75,8.31,1.69,13.53,6.77,11.39,13.64-.73,2.36-1.1,4.55-1.22,6.54-1.51,25.84,47.95,18.96,82.41-.29,11.65-6.53,22.88-14.71,28.93-24.49,14.72-23.82,60.27,13.65,70.46-49.23"/><path class="cls-31" d="m10.17,102.64c16.69-13.62,33.12-21.98,47.25-27.36,32.66-12.43,50.1-8.64,48.08,8.7-1.75,15.01-4.75,27.59-.11,28.12,11.77,1.35,28.51.43,34.06,9.13.55.86,1.75,1.52,3.12,2.36,8.19,4.96,20.42,8.25,21.35,16.44s-16.43,22.97-4.81,23.51c6.53.3,12.03-.78,17.42.59,5.76,1.47,14.81,6.54,24.87,11.6,17.58,8.77,34.93,19.97,27.92,24.76-6.47,4.41-8.85,8.25-8.53,12.57,1.41,19.06,56.71,36.46,18.04,49.1-2.97.97-6.36,2.08-10.31,3.17-17.33,4.77-23.13,34.64-17.82,53.04,2.34,8.11,11.52,1.85,21.82-4.62,7.01-4.4,14.51-9.06,20.35-9.39,7.11-.4,1.98,36.03,8.4,32.93,14.91-7.2,29.95-15.51,39.58-28.97s7.56-27.82,15.39-39.7c5.54-8.42,9.88-12.72,15.28-15.51,9.36-4.83,22.52-8.11,37.81-14.31,4.9-1.99,9.87-3.22,14.77-4.17,28.08-5.45,39.19-1.58,48.76-11.69,3.36-3.55,6.46-8.65,8.12-14.33,2.28-7.82,3.16-15.86,9.09-22.24,3.01-3.24,6.55-3.49,9.59-6.35,1.07-1,2.07-2.12,3.02-3.31.95-1.19,1.73-2.54,2.38-3.96,7.83-17.05-7.01-53.28,11.71-54.08,15.02-.64,18.8,4.78,27.64,2.47,12.01-3.14,28.58-4.47,31.71-20.29,4.93-24.85,26.15-28.55,38.81-25.88,8.26,1.74,13.5,6.82,11.71,13.63-.62,2.34-.87,4.53-.9,6.52-.31,25.83,48.41,20.12,82.95,1.97,11.67-6.16,23.15-14,29.59-23.63,15.48-23.19,60.18,11.35,69.14-51.16"/><path class="cls-29" d="m11.27,101.92c16.55-13.79,33.23-22.17,47.69-27.54,32.19-11.95,51.05-9.22,48.91,8.32-1.86,15.28-4.69,27.75-.08,28.41,11.64,1.67,28.7-.26,34.62,7.96.6.84,1.83,1.48,3.19,2.33,8.24,5.17,19.34,9.1,20.08,17.62s-15.76,23.01-3.69,23.66c6.4.34,11.69-.56,16.82.97,5.51,1.64,14.08,6.82,23.85,11.8,17.05,8.62,34.06,19.37,27.68,23.97-5.96,4.31-8.11,7.97-7.69,12.2,1.87,18.56,54.41,35.75,17.32,48.56-2.88,1-6.16,2.16-9.96,3.28-16.79,4.99-22.57,34.02-17.4,52.1,2.26,7.89,11.09,2.07,21.07-4.02,6.8-4.15,14.11-8.59,19.82-8.93,7.02-.41,2.35,34.32,8.69,31.27,14.51-6.96,29.08-15.07,38.47-28.12s7.15-28.33,15.62-40.11c5.86-8.15,10.54-11.69,16.29-13.61,9.84-3.28,23.33-4.71,38.47-10.76,4.99-1.99,10.03-3.25,14.95-4.27,28.89-5.98,39.11-3.63,47.47-14.43,2.94-3.8,5.63-9.09,6.87-14.83,1.76-8.18,2.08-16.35,8.08-22.68,3.08-3.25,6.76-3.17,9.91-5.97,1.11-.98,2.14-2.09,3.12-3.28.99-1.19,1.8-2.54,2.49-3.96,8.3-17.06-6.14-53.81,12.87-54.56,16.08-.63,19.08,4.98,27.62,2.36,11.9-3.65,28.7-4.89,31.55-20.82,4.54-25.4,25.89-28.78,38.55-26.01,8.21,1.8,13.47,6.88,12.03,13.63-.5,2.33-.65,4.51-.58,6.5.9,25.82,48.88,21.28,83.48,4.22,11.69-5.79,23.42-13.3,30.25-22.78,16.24-22.57,60.09,9.06,67.83-53.09"/><path class="cls-18" d="m12.36,101.19c16.42-13.96,33.33-22.37,48.13-27.73,31.72-11.49,51.99-9.79,49.73,7.94-1.98,15.56-4.64,27.91-.06,28.71,11.51,2,28.92-.95,35.18,6.79.65.81,1.9,1.43,3.25,2.31,8.28,5.38,18.26,9.96,18.81,18.79s-15.08,23.05-2.57,23.8c6.28.38,11.35-.34,16.23,1.34,5.26,1.81,13.35,7.11,22.84,12,16.5,8.5,33.19,18.76,27.44,23.19-5.45,4.2-7.38,7.69-6.84,11.83,2.33,18.05,52.11,35.04,16.61,48.01-2.8,1.02-5.96,2.23-9.62,3.4-16.26,5.21-22.01,33.41-16.97,51.15,2.18,7.68,10.67,2.29,20.33-3.42,6.6-3.9,13.72-8.13,19.29-8.47,6.92-.42,2.72,32.6,8.98,29.61,14.1-6.73,28.22-14.63,37.37-27.28,10.04-13.87,6.72-28.83,15.86-40.52,6.17-7.89,11.19-10.67,17.3-11.71,10.3-1.75,24.14-1.31,39.14-7.21,5.09-2,10.19-3.28,15.14-4.37,29.7-6.52,39.04-5.67,46.18-17.17,2.51-4.04,4.79-9.53,5.62-15.34,1.21-8.54,1-16.84,7.07-23.13,3.14-3.26,6.97-2.84,10.23-5.58,1.15-.96,2.22-2.06,3.23-3.26,1.02-1.19,1.86-2.54,2.59-3.96,8.77-17.08-5.27-54.33,14.04-55.04,17.14-.62,19.36,5.17,27.61,2.25,11.79-4.18,28.82-5.3,31.38-21.35,4.14-25.96,25.63-29.01,38.29-26.14,8.16,1.85,13.45,6.93,12.35,13.62-.38,2.31-.42,4.49-.26,6.48,2.1,25.81,49.35,22.44,84.02,6.48,11.71-5.42,23.69-12.59,30.91-21.92,16.98-21.94,60,6.77,66.51-55.02"/><path class="cls-11" d="m13.46,100.47c16.28-14.13,33.44-22.57,48.57-27.92,31.24-11.03,52.93-10.37,50.56,7.56-2.1,15.84-4.59,28.07-.03,29,11.38,2.33,29.15-1.65,35.74,5.62.71.78,1.98,1.39,3.32,2.29,8.33,5.59,17.19,10.82,17.54,19.97s-14.4,23.09-1.45,23.95c6.15.41,11.02-.12,15.63,1.72,5.01,1.99,12.62,7.39,21.83,12.2,15.97,8.34,32.34,18.15,27.19,22.41s-6.64,7.41-6,11.47c2.78,17.55,49.81,34.35,15.89,47.47-2.71,1.05-5.76,2.3-9.28,3.52-15.73,5.44-21.45,32.79-16.54,50.2,2.1,7.47,10.24,2.51,19.58-2.82,6.39-3.64,13.32-7.66,18.76-8,6.83-.43,3.09,30.89,9.27,27.95,13.69-6.5,27.36-14.19,36.27-26.43,10.29-14.15,6.28-29.35,16.09-40.92,6.47-7.64,11.87-9.17,18.31-9.82,10.71-1.08,24.95,2.09,39.81-3.66,5.19-2.01,10.35-3.32,15.32-4.47,30.51-7.07,38.96-7.72,44.89-19.9,2.09-4.29,3.94-9.98,4.37-15.85.65-8.92-.08-17.33,6.06-23.57,3.21-3.27,7.18-2.52,10.55-5.2,1.19-.94,2.29-2.04,3.33-3.23,1.05-1.19,1.93-2.54,2.7-3.96,9.24-17.1-4.4-54.86,15.21-55.52,18.2-.61,19.65,5.34,27.59,2.13,11.68-4.72,28.93-5.72,31.21-21.88,3.74-26.51,25.37-29.24,38.03-26.27,8.11,1.9,13.42,6.99,12.67,13.61-.26,2.3-.19,4.47.06,6.46,3.3,25.8,49.81,23.6,84.55,8.73,11.72-5.05,23.95-11.89,31.57-21.06,17.71-21.33,59.91,4.47,65.2-56.95"/><path class="cls-28" d="m14.56,99.74c16.15-14.31,33.54-22.78,49-28.1,30.76-10.59,53.88-10.94,51.38,7.18-2.22,16.11-4.53,28.23,0,29.3,11.25,2.65,29.39-2.36,36.3,4.44.76.75,2.05,1.35,3.38,2.27,8.38,5.81,16.12,11.67,16.27,21.14s-13.73,23.12-.33,24.1c6.02.44,10.68.11,15.03,2.09,4.76,2.17,11.9,7.67,20.81,12.4,15.44,8.19,31.49,17.53,26.95,21.63s-5.91,7.12-5.16,11.1c3.23,17.05,47.5,33.68,15.17,46.93-2.63,1.08-5.56,2.37-8.94,3.63-15.19,5.66-20.88,32.17-16.12,49.25,2.03,7.26,9.82,2.72,18.83-2.22,6.19-3.39,12.92-7.2,18.23-7.54,6.73-.44,3.46,29.18,9.57,26.3,13.29-6.26,26.5-13.74,35.17-25.59,10.56-14.43,5.83-29.87,16.33-41.33,6.77-7.39,12.49-8.68,19.32-7.92,11.23,1.24,25.76,5.5,40.47-.11,5.29-2.02,10.51-3.35,15.51-4.57,31.32-7.63,38.88-9.76,43.6-22.64,1.67-4.54,3.07-10.42,3.12-16.35.07-9.29-1.15-17.82,5.05-24.02,3.28-3.28,7.39-2.2,10.87-4.82,1.22-.92,2.36-2.01,3.44-3.2,1.08-1.19,2-2.54,2.8-3.96,9.72-17.12-3.53-55.38,16.37-56s19.93,5.5,27.58,2.02c11.58-5.27,29.04-6.14,31.04-22.42,3.33-27.07,25.11-29.47,37.77-26.4,8.07,1.96,13.39,7.05,12.99,13.61-.14,2.29.03,4.45.38,6.44,4.51,25.78,50.28,24.76,85.09,10.98,11.74-4.68,24.21-11.19,32.23-20.2,18.44-20.72,59.82,2.18,63.88-58.88"/><path class="cls-32" d="m15.66,99.02c16.01-14.48,33.64-22.98,49.44-28.29,30.28-10.16,54.82-11.52,52.2,6.8-2.34,16.39-4.48,28.39.02,29.59,11.13,2.97,29.65-3.08,36.86,3.27.82.72,2.12,1.3,3.44,2.25,8.42,6.03,15.06,12.53,15,22.32-.06,9.27-13.05,23.15.79,24.25,5.9.47,10.35.33,14.44,2.47,4.51,2.35,11.18,7.95,19.8,12.6,14.91,8.04,30.65,16.91,26.71,20.84s-5.18,6.84-4.32,10.73c3.67,16.54,45.2,33.02,14.46,46.39-2.54,1.11-5.35,2.44-8.6,3.75-14.66,5.89-20.32,31.56-15.69,48.31,1.95,7.05,9.4,2.94,18.09-1.62,5.99-3.14,12.52-6.73,17.7-7.08,6.63-.45,3.83,27.46,9.86,24.64,12.88-6.03,25.64-13.3,34.06-24.74,10.82-14.7,5.37-30.41,16.56-41.74,7.05-7.14,13.15-7.69,20.33-6.03,11.71,2.72,26.57,8.91,41.14,3.44,5.39-2.02,10.67-3.39,15.69-4.67,32.12-8.19,38.79-11.81,42.31-25.37,1.24-4.79,2.19-10.86,1.87-16.86-.53-9.66-2.23-18.3,4.04-24.46,3.35-3.29,7.6-1.87,11.19-4.44,1.26-.9,2.44-1.98,3.55-3.17,1.12-1.19,2.07-2.55,2.91-3.96,10.19-17.14-2.66-55.9,17.54-56.48s20.21,5.65,27.57,1.91c11.47-5.84,29.14-6.55,30.87-22.95,2.92-27.63,24.85-29.7,37.51-26.53,8.02,2.01,13.37,7.11,13.31,13.6-.02,2.28.26,4.43.7,6.43,5.7,25.77,50.75,25.92,85.63,13.24,11.76-4.31,24.46-10.49,32.89-19.34,19.15-20.11,59.73-.12,62.57-60.81"/><path class="cls-13" d="m16.76,98.29c15.88-14.65,33.73-23.2,49.88-28.47,29.79-9.73,55.76-12.09,53.03,6.42-2.46,16.67-4.43,28.55.05,29.89,11,3.29,29.92-3.81,37.41,2.1.88.69,2.2,1.26,3.51,2.22,8.47,6.24,14,13.39,13.73,23.49-.25,9.43-12.37,23.18,1.91,24.39,5.77.49,10.01.56,13.84,2.84,4.26,2.54,10.45,8.23,18.79,12.8,14.38,7.89,29.83,16.28,26.46,20.06s-4.45,6.56-3.48,10.36c4.11,16.03,42.89,32.38,13.74,45.85-2.46,1.14-5.15,2.51-8.26,3.86-14.13,6.13-19.76,30.94-15.26,47.36,1.87,6.84,8.97,3.16,17.34-1.01,5.78-2.89,12.12-6.27,17.17-6.62,6.54-.46,4.2,25.75,10.15,22.98,12.48-5.8,24.79-12.85,32.96-23.9,11.08-14.98,4.9-30.95,16.79-42.14,7.34-6.9,13.81-6.71,21.34-4.13,12.21,4.19,27.39,12.32,41.81,6.99,5.48-2.03,10.83-3.42,15.88-4.77,32.92-8.77,38.71-13.86,41.02-28.11.82-5.03,1.31-11.3.62-17.37-1.14-10.02-3.31-18.79,3.03-24.91,3.41-3.3,7.81-1.55,11.5-4.05,1.3-.88,2.51-1.95,3.65-3.14,1.15-1.19,2.13-2.55,3.01-3.96,10.66-17.15-1.78-56.41,18.7-56.96s20.49,5.79,27.55,1.79c11.35-6.43,29.24-6.97,30.7-23.48,2.5-28.19,24.59-29.94,37.25-26.66,7.97,2.06,13.35,7.16,13.62,13.59.1,2.26.49,4.41,1.02,6.41,6.9,25.76,51.22,27.08,86.16,15.49,11.78-3.94,24.71-9.8,33.55-18.48,19.86-19.52,59.63-2.41,61.26-62.75"/><path class="cls-14" d="m17.86,97.57c15.74-14.82,33.83-23.41,50.32-28.66,29.3-9.32,56.7-12.67,53.85,6.04-2.58,16.94-4.37,28.7.07,30.18,10.87,3.61,30.2-4.55,37.97.93.94.66,2.27,1.21,3.57,2.2,8.51,6.46,12.94,14.25,12.45,24.67-.45,9.58-11.7,23.19,3.03,24.54,5.65.52,9.67.79,13.24,3.21,4.02,2.72,9.73,8.5,17.78,13,13.85,7.74,28.33,15.19,26.22,19.28-3.38,3.09-3.72,6.28-2.63,9.99,4.54,15.53,40.59,31.76,13.03,45.31-2.37,1.17-4.95,2.59-7.92,3.98-13.6,6.36-19.2,30.33-14.84,46.41,1.8,6.62,8.55,3.38,16.6-.41,5.58-2.63,11.72-5.8,16.64-6.16,6.44-.47,4.57,24.03,10.44,21.32,12.07-5.57,23.93-12.4,31.86-23.05,11.35-15.25,4.42-31.51,17.03-42.55,7.62-6.67,14.49-5.74,22.35-2.23,12.71,5.66,28.2,15.73,42.47,10.54,5.58-2.03,10.99-3.46,16.06-4.87,33.72-9.34,38.62-15.9,39.73-30.85.39-5.28.42-11.73-.63-17.87-1.77-10.37-4.38-19.28,2.02-25.35,3.48-3.3,8.02-1.23,11.82-3.67,1.34-.86,2.59-1.93,3.76-3.11,1.18-1.19,2.2-2.55,3.12-3.97,11.14-17.17-.91-56.93,19.87-57.44,22.44-.54,20.76,5.92,27.54,1.68,11.23-7.03,29.34-7.39,30.53-24.01,2.07-28.75,24.33-30.17,36.99-26.79,7.92,2.11,13.32,7.22,13.94,13.59.22,2.25.71,4.39,1.34,6.39,8.1,25.75,51.68,28.24,86.7,17.74,11.8-3.57,24.96-9.11,34.21-17.62,20.56-18.93,59.54-4.7,59.94-64.68"/><path class="cls-10" d="m18.96,96.85c15.61-14.99,33.92-23.64,50.76-28.85,28.81-8.91,57.64-13.24,54.67,5.67-2.71,17.22-4.32,28.86.1,30.47,10.74,3.92,30.48-5.31,38.53-.24,1,.63,2.35,1.17,3.64,2.18,8.55,6.69,11.88,15.1,11.18,25.84-.64,9.74-11.02,23.21,4.15,24.69,5.52.54,9.34,1.03,12.65,3.59,3.77,2.91,9,8.78,16.76,13.2,13.32,7.58,27.42,14.55,25.98,18.5-2.91,2.94-2.99,6-1.79,9.62,4.97,15.02,38.29,31.16,12.31,44.77-2.29,1.2-4.75,2.66-7.58,4.09-13.06,6.6-18.63,29.71-14.41,45.46,1.72,6.41,8.13,3.6,15.85.19,5.38-2.38,11.32-5.34,16.1-5.7,6.35-.48,4.94,22.32,10.73,19.66,11.66-5.34,23.08-11.95,30.76-22.21,11.61-15.52,3.94-32.07,17.26-42.96,7.89-6.45,15.16-4.76,23.37-.34,13.22,7.13,29.02,19.15,43.14,14.09,5.68-2.03,11.15-3.5,16.24-4.97,34.52-9.93,38.54-17.95,38.44-33.58-.04-5.53-.48-12.16-1.88-18.38-2.42-10.72-5.46-19.76,1.01-25.8,3.55-3.31,8.23-.9,12.14-3.29,1.38-.84,2.66-1.9,3.86-3.08,1.21-1.19,2.27-2.55,3.23-3.97,11.61-17.19-.04-57.45,21.04-57.91,23.49-.52,21.02,6.04,27.52,1.56,11.1-7.64,29.43-7.81,30.36-24.55,1.63-29.31,24.07-30.4,36.73-26.93,7.88,2.16,13.31,7.28,14.26,13.58.34,2.24.94,4.37,1.66,6.37,9.29,25.74,52.15,29.4,87.23,20,11.82-3.2,25.2-8.42,34.87-16.76,21.25-18.35,59.45-7,58.63-66.61"/><path class="cls-6" d="m20.05,96.12c15.47-15.16,34.01-23.86,51.2-29.03,28.31-8.52,58.58-13.82,55.5,5.29-2.83,17.5-4.26,29.02.12,30.77,10.62,4.24,30.76-6.08,39.09-1.42,1.06.59,2.42,1.13,3.7,2.16,8.59,6.91,10.83,15.96,9.91,27.02-.82,9.9-10.34,23.22,5.27,24.84,5.4.56,9,1.27,12.05,3.96,3.52,3.11,8.28,9.06,15.75,13.4,12.79,7.43,26.51,13.92,25.74,17.72-2.45,2.8-2.26,5.71-.95,9.25,5.4,14.52,36,30.58,11.59,44.23-2.21,1.23-4.55,2.74-7.23,4.21-12.53,6.85-18.07,29.1-13.98,44.52,1.64,6.2,7.71,3.82,15.11.79,5.18-2.13,10.93-4.87,15.57-5.23,6.25-.49,5.31,20.6,11.03,18,11.25-5.11,22.23-11.5,29.65-21.36,11.88-15.79,3.45-32.65,17.5-43.37,8.16-6.23,15.85-3.78,24.38,1.56,13.74,8.6,29.83,22.56,43.81,17.64,5.78-2.04,11.31-3.54,16.43-5.07,35.31-10.52,38.45-20,37.14-36.32-.46-5.78-1.38-12.58-3.14-18.89-3.07-11.05-6.53-20.25,0-26.25,3.62-3.32,8.44-.58,12.46-2.91,1.42-.82,2.73-1.87,3.97-3.05,1.25-1.19,2.34-2.55,3.33-3.97,12.09-17.2.83-57.96,22.2-58.39,24.55-.5,21.28,6.16,27.51,1.45,10.96-8.27,29.52-8.22,30.19-25.08,1.19-29.87,23.82-30.64,36.47-27.06,7.83,2.21,13.29,7.34,14.58,13.57.46,2.23,1.16,4.35,1.98,6.35,10.49,25.73,52.62,30.56,87.77,22.25,11.83-2.83,25.44-7.74,35.53-15.9,21.94-17.77,59.36-9.29,57.31-68.54"/><path class="cls-21" d="m21.15,95.4c15.34-15.33,34.11-24.1,51.63-29.22,27.81-8.12,59.52-14.39,56.32,4.91-2.95,17.77-4.21,29.17.15,31.06,10.49,4.55,31.04-6.86,39.65-2.59,1.12.56,2.49,1.08,3.76,2.14,8.63,7.13,9.78,16.83,8.64,28.19-1.01,10.06-9.66,23.22,6.39,24.98,5.27.58,8.66,1.51,11.45,4.34,3.27,3.31,7.55,9.34,14.74,13.6,12.26,7.28,25.6,13.28,25.49,16.93-1.98,2.65-1.54,5.43-.11,8.88,5.82,14.01,33.71,30.03,10.88,43.69-2.12,1.27-4.34,2.82-6.89,4.32-12,7.09-17.5,28.48-13.56,43.57,1.57,5.99,7.3,4.04,14.36,1.39,4.98-1.87,10.53-4.41,15.04-4.77,6.16-.5,5.68,18.89,11.32,16.34,10.85-4.88,21.38-11.05,28.55-20.52,12.16-16.06,2.96-33.24,17.73-43.77,8.44-6.02,16.53-2.8,25.39,3.46,14.27,10.07,30.65,25.98,44.48,21.19,5.88-2.04,11.47-3.58,16.61-5.16,36.1-11.12,38.36-22.04,35.85-39.05-.89-6.02-2.29-13-4.39-19.39-3.73-11.37-7.61-20.74-1.01-26.69,3.69-3.33,8.65-.26,12.78-2.53,1.46-.8,2.81-1.84,4.07-3.02,1.28-1.19,2.41-2.56,3.44-3.97,12.56-17.22,1.7-58.48,23.37-58.87,25.61-.47,21.53,6.26,27.49,1.34,10.8-8.92,29.61-8.64,30.03-25.61.75-30.42,23.56-30.87,36.21-27.19,7.78,2.27,13.27,7.4,14.9,13.57.58,2.21,1.39,4.33,2.3,6.33,11.68,25.72,53.08,31.72,88.3,24.5,11.85-2.46,25.69-7.06,36.19-15.04,22.63-17.21,59.27-11.59,56-70.47"/><path class="cls-17" d="m22.25,94.67c15.21-15.51,34.2-24.34,52.07-29.4,27.31-7.74,60.46-14.97,57.14,4.53-3.07,18.05-4.15,29.33.17,31.36,10.37,4.86,31.32-7.65,40.21-3.76,1.18.52,2.56,1.04,3.83,2.11,8.67,7.36,8.74,17.69,7.37,29.37-1.19,10.22-8.98,23.22,7.51,25.13,5.15.6,8.32,1.76,10.86,4.71,3.01,3.51,6.83,9.61,13.72,13.8,11.73,7.12,24.7,12.64,25.25,16.15-1.51,2.5-.81,5.15.73,8.51,6.23,13.51,31.43,29.5,10.16,43.14-2.04,1.31-4.14,2.89-6.55,4.44-11.46,7.35-16.94,27.86-13.13,42.62,1.49,5.78,6.88,4.27,13.62,1.99,4.78-1.62,10.13-3.94,14.51-4.31,6.06-.51,6.05,17.17,11.61,14.69,10.44-4.66,20.54-10.6,27.45-19.67,12.43-16.33,2.47-33.84,17.97-44.18,8.71-5.81,17.22-1.81,26.4,5.35,14.8,11.55,31.47,29.4,45.14,24.74,5.98-2.04,11.63-3.62,16.8-5.26,36.89-11.73,38.24-24.08,34.56-41.79-1.33-6.27-3.19-13.4-5.64-19.9-4.39-11.69-8.68-21.22-2.02-27.14,3.76-3.34,8.86.07,13.1-2.14,1.5-.78,2.88-1.81,4.18-2.99,1.31-1.18,2.47-2.56,3.54-3.97,13.04-17.24,2.57-58.99,24.53-59.35,26.67-.44,21.77,6.37,27.48,1.22,10.62-9.57,29.69-9.06,29.86-26.14.3-30.98,23.3-31.11,35.95-27.32,7.73,2.32,13.26,7.45,15.22,13.56.71,2.2,1.62,4.31,2.62,6.32,12.87,25.71,53.55,32.87,88.84,26.76,11.87-2.09,25.92-6.38,36.85-14.18,23.32-16.65,59.18-13.88,54.68-72.4"/><path class="cls-5" d="m23.35,93.95c15.07-15.68,34.28-24.58,52.51-29.59,26.81-7.37,61.4-15.55,57.97,4.15-3.2,18.33-4.1,29.48.2,31.65,10.24,5.17,31.6-8.45,40.77-4.93,1.24.48,2.64,1,3.89,2.09,8.71,7.59,7.69,18.55,6.1,30.54-1.38,10.38-8.3,23.21,8.63,25.28,5.02.61,7.97,2,10.26,5.09,2.75,3.71,6.1,9.89,12.71,14,11.2,6.97,23.79,12,25.01,15.37-1.04,2.36-.09,4.87,1.58,8.14,6.64,13.02,29.16,29,9.45,42.6-1.95,1.35-3.94,2.97-6.21,4.55-10.92,7.6-16.37,27.25-12.7,41.67,1.41,5.56,6.46,4.49,12.87,2.59,4.59-1.36,9.73-3.48,13.98-3.85,5.96-.52,6.41,15.45,11.9,13.03,10.03-4.43,19.69-10.14,26.35-18.83,12.71-16.59,1.97-34.45,18.2-44.59,8.98-5.61,17.91-.83,27.41,7.25,15.33,13.03,32.29,32.82,45.81,28.29,6.08-2.04,11.79-3.66,16.98-5.36,37.67-12.34,38.16-26.12,33.27-44.53-1.75-6.51-4.1-13.81-6.89-20.41-5.06-11.99-9.76-21.7-3.03-27.58,3.83-3.34,9.07.39,13.42-1.76,1.54-.76,2.96-1.79,4.28-2.96,1.35-1.18,2.54-2.56,3.65-3.97,13.51-17.25,3.44-59.5,25.7-59.83,27.73-.41,22.01,6.47,27.47,1.11,10.43-10.24,29.78-9.47,29.69-26.68-.16-31.54,23.04-31.34,35.69-27.45,7.69,2.37,13.24,7.51,15.53,13.55.83,2.19,1.84,4.29,2.94,6.3,14.06,25.71,54.02,34.03,89.37,29.01,11.89-1.72,26.16-5.71,37.51-13.33,24-16.11,59.09-16.17,53.37-74.33"/><path class="cls-27" d="m24.45,93.23c14.94-15.85,34.37-24.84,52.95-29.78,26.31-7,62.34-16.12,58.79,3.77-3.32,18.6-4.04,29.63.22,31.94,10.12,5.48,31.87-9.26,41.33-6.1,1.3.43,2.71.96,3.95,2.07,8.74,7.81,6.65,19.41,4.83,31.72-1.56,10.54-7.62,23.19,9.75,25.42,4.9.63,7.62,2.25,9.66,5.46,2.49,3.92,5.38,10.17,11.7,14.2,10.67,6.81,22.88,11.36,24.76,14.59-.57,2.21.63,4.59,2.42,7.77,7.04,12.52,26.9,28.53,8.73,42.06-1.87,1.39-3.73,3.05-5.87,4.67-10.38,7.87-15.8,26.63-12.27,40.73,1.34,5.35,6.05,4.72,12.12,3.19,4.39-1.1,9.33-3.01,13.45-3.39,5.87-.53,6.78,13.74,12.19,11.37,9.62-4.21,18.85-9.69,25.24-17.98,12.99-16.85,1.47-35.08,18.44-44.99,9.25-5.41,18.6.16,28.42,9.15,15.86,14.51,33.1,36.25,46.48,31.84,6.18-2.04,11.95-3.7,17.17-5.46,38.46-12.95,38.07-28.16,31.98-47.26-2.18-6.76-5.01-14.21-8.14-20.91-5.73-12.29-10.83-22.19-4.04-28.03,3.9-3.35,9.28.71,13.74-1.38,1.58-.74,3.03-1.76,4.39-2.93,1.38-1.18,2.61-2.56,3.75-3.97,13.99-17.27,4.31-60.01,26.87-60.31,28.79-.38,22.23,6.56,27.45,1,10.22-10.91,29.86-9.89,29.52-27.21-.62-32.09,22.78-31.58,35.43-27.58,7.64,2.42,13.23,7.56,15.85,13.55.95,2.17,2.07,4.27,3.26,6.28,15.25,25.7,54.48,35.19,89.91,31.27,11.91-1.35,26.4-5.05,38.17-12.47,24.68-15.57,59-18.47,52.05-76.27"/><path class="cls-22" d="m25.55,92.5c14.8-16.02,34.46-25.1,53.39-29.96,25.81-6.63,63.28-16.7,59.62,3.39-3.44,18.88-3.99,29.79.25,32.24,10,5.79,32.14-10.07,41.89-7.28,1.36.39,2.78.91,4.02,2.05,8.77,8.04,5.61,20.28,3.56,32.89-1.74,10.7-6.93,23.17,10.87,25.57,4.77.65,7.27,2.5,9.07,5.83,2.22,4.12,4.65,10.44,10.69,14.4,10.14,6.66,21.97,10.72,24.52,13.8-.11,2.06,1.35,4.31,3.26,7.4,7.44,12.03,24.67,28.08,8.01,41.52-1.78,1.43-3.53,3.13-5.53,4.79-9.83,8.13-15.23,26.01-11.85,39.78,1.26,5.14,5.64,4.95,11.38,3.79,4.2-.85,8.93-2.55,12.92-2.93,5.77-.54,7.15,12.02,12.49,9.71,9.21-3.98,18-9.23,24.14-17.14,13.28-17.11.97-35.71,18.67-45.4,9.53-5.22,19.29,1.15,29.43,11.04,16.4,16,33.92,39.67,47.14,35.39,6.28-2.04,12.1-3.75,17.35-5.56,39.24-13.57,37.99-30.2,30.69-50-2.6-7-5.91-14.6-9.39-21.42-6.4-12.58-11.91-22.67-5.05-28.47,3.97-3.36,9.49,1.04,14.06-1,1.62-.72,3.1-1.73,4.5-2.9,1.41-1.18,2.68-2.56,3.86-3.97,14.47-17.28,5.18-60.53,28.03-60.79,29.85-.35,22.45,6.66,27.44.88,9.99-11.58,29.93-10.3,29.35-27.74-1.09-32.64,22.52-31.82,35.17-27.71,7.59,2.46,13.22,7.62,16.17,13.54,1.08,2.16,2.29,4.25,3.58,6.26,16.44,25.7,54.95,36.35,90.45,33.52,11.93-.98,26.64-4.38,38.83-11.61,25.37-15.03,58.91-20.76,50.74-78.2"/><path class="cls-25" d="m26.65,91.78c14.67-16.19,34.54-25.36,53.83-30.15,25.3-6.28,64.18-17.28,60.44,3.01-3.61,19.15-3.93,29.94.28,32.53,9.88,6.1,32.4-10.9,42.45-8.45,1.42.35,2.85.87,4.08,2.03,8.8,8.27,4.57,21.15,2.29,34.07-1.92,10.87-6.25,23.13,11.99,25.72,4.65.66,6.91,2.75,8.47,6.21,1.95,4.33,3.93,10.72,9.67,14.6,9.61,6.5,21.06,10.09,24.28,13.02.36,1.92,2.07,4.03,4.1,7.03,7.83,11.55,22.45,27.66,7.3,40.98-1.69,1.48-3.32,3.21-5.19,4.9-9.28,8.4-14.67,25.4-11.42,38.83,1.19,4.93,5.23,5.18,10.63,4.39,4-.58,8.53-2.09,12.39-2.46,5.68-.56,7.52,10.3,12.78,8.05,8.8-3.76,17.16-8.77,23.04-16.29,13.57-17.36.48-36.35,18.91-45.81,9.8-5.03,19.98,2.14,30.44,12.94,16.93,17.48,34.74,43.1,47.81,38.94,6.39-2.03,12.26-3.79,17.53-5.66,40.01-14.2,37.91-32.25,29.4-52.73-3.03-7.25-6.82-14.99-10.64-21.93-7.08-12.86-12.98-23.15-6.06-28.92,4.04-3.37,9.69,1.36,14.38-.62,1.66-.7,3.18-1.7,4.6-2.87,1.44-1.18,2.75-2.56,3.97-3.98,14.97-17.27,6.05-61.04,29.2-61.27,30.91-.31,22.66,6.76,27.42.77,9.74-12.26,30.01-10.71,29.18-28.27-1.56-33.19,22.27-32.06,34.91-27.84,7.54,2.51,13.2,7.67,16.49,13.53,1.2,2.14,2.52,4.23,3.9,6.24,17.64,25.69,55.42,37.51,90.98,35.77,11.94-.61,26.87-3.73,39.49-10.75,26.05-14.51,58.81-23.06,49.42-80.13"/><path class="cls-7" d="m27.74,91.05c14.53-16.36,34.62-25.64,54.26-30.33,24.8-5.93,65.12-17.86,61.26,2.64-3.73,19.42-3.87,30.09.3,32.83,9.76,6.4,32.66-11.72,43.01-9.62,1.48.3,2.93.83,4.15,2,8.84,8.5,3.53,22.01,1.02,35.24-2.1,11.03-5.56,23.09,13.11,25.87,4.53.67,6.55,2.99,7.87,6.58,1.67,4.54,3.21,11,8.66,14.8,9.08,6.35,20.15,9.45,24.03,12.24.83,1.77,2.79,3.76,4.94,6.66,8.22,11.07,20.27,27.26,6.58,40.44-1.59,1.53-3.12,3.3-4.84,5.02-8.73,8.68-14.1,24.78-10.99,37.88,1.12,4.71,4.82,5.42,9.89,4.99,3.81-.32,8.14-1.62,11.85-2,5.58-.57,7.89,8.58,13.07,6.39,8.39-3.54,16.32-8.32,21.94-15.45,13.86-17.61-.02-37.01,19.14-46.21,10.08-4.84,20.67,3.13,31.46,14.83,17.47,18.97,35.56,46.53,48.48,42.49,6.49-2.03,12.42-3.83,17.72-5.76,40.79-14.83,37.82-34.29,28.11-55.47-3.45-7.5-7.72-15.37-11.89-22.43-7.75-13.14-14.05-23.64-7.07-29.36,4.11-3.37,9.9,1.68,14.69-.23,1.7-.68,3.25-1.67,4.71-2.84,1.48-1.18,2.82-2.56,4.07-3.98,15.45-17.28,6.92-61.55,30.36-61.75,31.97-.28,22.87,6.86,27.41.66,9.48-12.95,30.08-11.12,29.01-28.81-2.04-33.74,22.01-32.29,34.65-27.98,7.5,2.56,13.19,7.72,16.81,13.52,1.33,2.13,2.74,4.21,4.22,6.22,18.83,25.69,55.88,38.67,91.52,38.03,11.96-.24,27.11-3.07,40.15-9.89,26.74-13.99,58.72-25.35,48.11-82.06"/><path class="cls-26" d="m28.84,90.33c14.4-16.53,34.7-25.92,54.7-30.52,24.3-5.58,66.07-18.43,62.09,2.26-3.85,19.7-3.81,30.24.33,33.12,9.65,6.71,32.91-12.56,43.57-10.79,1.54.25,3,.79,4.21,1.98,8.86,8.74,2.5,22.88-.25,36.41-2.28,11.2-4.87,23.04,14.23,26.01,4.4.69,6.19,3.24,7.28,6.96,1.39,4.74,2.48,11.27,7.65,15,8.56,6.19,19.24,8.81,23.79,11.46,1.3,1.62,3.51,3.49,5.78,6.29,8.61,10.59,18.11,26.89,5.87,39.9-1.49,1.59-2.91,3.38-4.5,5.13-8.16,8.96-13.52,24.16-10.57,36.94,1.04,4.5,4.42,5.33,9.14,5.59,3.61.2,7.74-1.16,11.32-1.54,5.48-.58,8.25,6.86,13.36,4.73,7.98-3.32,15.48-7.86,20.83-14.6,14.17-17.85-.51-37.67,19.37-46.62,10.36-4.66,21.37,4.12,32.47,16.73,18,20.46,36.38,49.95,49.14,46.04,6.59-2.02,12.57-3.88,17.9-5.86,41.56-15.47,37.74-36.33,26.82-58.21-3.88-7.74-8.63-15.76-13.14-22.94-8.42-13.41-15.12-24.12-8.08-29.81,4.18-3.38,10.11,2.01,15.01.15,1.74-.65,3.33-1.65,4.81-2.81,1.51-1.18,2.88-2.57,4.18-3.98,15.92-17.3,7.79-62.06,31.53-62.23,33.03-.24,23.06,6.96,27.39.54,9.19-13.63,30.15-11.54,28.84-29.34-2.52-34.29,21.75-32.53,34.39-28.11,7.45,2.61,13.18,7.77,17.13,13.52,1.45,2.11,2.97,4.2,4.54,6.21,19.97,25.72,56.35,39.83,92.05,40.28,11.98.13,27.35-2.42,40.81-9.03,27.42-13.47,58.63-27.64,46.79-83.99"/><path class="cls-3" d="m29.94,89.6c14.26-16.7,34.79-26.22,55.14-30.71,23.8-5.25,67.01-19.01,62.91,1.88-3.97,19.98-3.75,30.4.35,33.42,9.53,7.01,33.15-13.39,44.13-11.97,1.59.21,3.07.74,4.27,1.96,8.89,8.97,1.46,23.75-1.52,37.59-2.45,11.36-4.18,22.98,15.35,26.16,4.28.7,5.82,3.48,6.68,7.33,1.1,4.94,1.76,11.54,6.63,15.2,8.03,6.03,18.68,7.54,23.55,10.68,1.94,1.25,4.23,3.21,6.63,5.92,9,10.13,16,26.52,5.15,39.36-1.39,1.65-2.7,3.46-4.16,5.25-7.59,9.24-12.95,23.54-10.14,35.99.97,4.29,4,5.91,8.4,6.19,3.43.22,7.34-.7,10.79-1.08,5.39-.6,8.62,5.14,13.65,3.07,7.56-3.1,14.64-7.4,19.73-13.76,14.48-18.09-1-38.34,19.61-47.03,10.64-4.49,22.06,5.11,33.48,18.63,18.54,21.95,37.2,53.39,49.81,49.59,6.69-2.01,12.73-3.92,18.09-5.96,42.33-16.11,37.66-38.37,25.53-60.94-4.3-7.99-9.53-16.14-14.39-23.45-9.09-13.68-16.2-24.6-9.09-30.25,4.25-3.38,10.32,2.33,15.33.53,1.78-.63,3.4-1.62,4.92-2.78,1.54-1.18,2.95-2.57,4.28-3.98,16.39-17.32,8.66-62.57,32.7-62.71,34.09-.2,23.25,7.07,27.38.43,8.89-14.31,30.22-11.94,28.68-29.87-3.01-34.84,21.5-32.77,34.13-28.24,7.41,2.66,13.17,7.82,17.45,13.51,1.57,2.09,3.19,4.18,4.86,6.19,21.17,25.72,56.82,40.99,92.59,42.53,12,.5,27.59-1.77,41.47-8.17,28.11-12.97,58.54-29.94,45.48-85.92"/><path class="cls-12" d="m31.04,88.88c14.13-16.88,34.86-26.52,55.58-30.89,23.3-4.91,67.95-19.59,63.73,1.5-4.09,20.25-3.69,30.55.38,33.71,9.42,7.32,33.38-14.23,44.69-13.14,1.65.16,3.14.7,4.34,1.94,8.92,9.2.43,24.62-2.79,38.76-2.63,11.53-3.48,22.91,16.47,26.31,4.16.71,5.45,3.72,6.08,7.71.81,5.14,1.04,11.82,5.62,15.4,7.5,5.87,17.62,7.08,23.3,9.89,2.33,1.15,4.94,2.94,7.47,5.55,9.38,9.67,13.92,26.17,4.43,38.82-1.28,1.71-2.49,3.55-3.82,5.36-7,9.53-12.38,22.92-9.71,35.04.9,4.08,3.59,6.16,7.65,6.8,3.23.5,6.94-.24,10.26-.62,5.29-.61,8.99,3.41,13.95,1.42,7.15-2.88,13.8-6.94,18.63-12.91,14.79-18.32-1.49-39.01,19.84-47.43,10.92-4.31,22.77,6.08,34.49,20.52,19.12,23.41,38.02,56.82,50.48,53.14,6.79-2.01,12.89-3.96,18.27-6.06,43.09-16.76,37.57-40.42,24.24-63.68-4.73-8.23-10.43-16.52-15.64-23.95-9.76-13.94-17.27-25.08-10.1-30.7,4.32-3.39,10.53,2.65,15.65.91,1.82-.61,3.47-1.59,5.02-2.75,1.57-1.18,3.02-2.57,4.39-3.98,16.87-17.33,9.52-63.08,33.86-63.19,35.15-.16,23.44,7.18,27.36.32,8.58-14.99,30.29-12.35,28.51-30.4-3.5-35.38,21.25-33.04,33.87-28.37,7.36,2.69,13.16,7.86,17.76,13.5,1.7,2.08,3.42,4.16,5.18,6.17,22.37,25.71,57.28,42.15,93.12,44.79,12.02.87,27.83-1.12,42.13-7.31,28.8-12.46,58.45-32.23,44.16-87.85"/><path class="cls-15" d="m32.14,88.16c13.99-17.05,34.94-26.84,56.02-31.08,22.8-4.58,68.89-20.16,64.56,1.12-4.21,20.53-3.63,30.7.4,34,9.31,7.62,33.61-15.07,45.24-14.31,1.71.11,3.21.66,4.4,1.92,8.94,9.44-.6,25.5-4.06,39.94-2.8,11.7-2.79,22.82,17.59,26.46,4.04.72,5.08,3.95,5.49,8.08.52,5.33.32,12.09,4.61,15.61,6.98,5.71,16.61,6.61,23.06,9.11,2.75,1.07,5.66,2.68,8.31,5.18,9.77,9.22,11.9,25.81,3.72,38.27-1.16,1.77-2.27,3.63-3.48,5.48-6.41,9.81-11.8,22.31-9.29,34.09.82,3.86,3.18,6.43,6.9,7.4,3.03.79,6.54.22,9.73-.16,5.19-.63,9.35,1.69,14.24-.24,6.74-2.67,12.97-6.47,17.53-12.07,15.12-18.55-1.98-39.69,20.08-47.84,11.21-4.14,23.46,7.08,35.5,22.42,19.64,24.91,38.84,60.25,51.14,56.69,6.9-2,13.04-4.01,18.46-6.16,43.85-17.41,37.49-42.46,22.94-66.41-5.15-8.48-11.33-16.89-16.89-24.46-10.43-14.2-18.33-25.55-11.11-31.15,4.4-3.38,10.74,2.98,15.97,1.3,1.85-.59,3.55-1.56,5.13-2.73,1.61-1.18,3.09-2.57,4.49-3.98,17.34-17.35,10.39-63.56,35.03-63.67,36.2-.06,23.61,7.3,27.35.2,8.25-15.66,30.36-12.76,28.34-30.94-4-35.92,20.99-33.27,33.61-28.5,7.32,2.75,13.15,7.91,18.08,13.5,1.82,2.06,3.65,4.14,5.5,6.15,23.57,25.7,57.75,43.31,93.66,47.04,12.04,1.24,28.06-.48,42.79-6.45,29.5-11.97,58.36-34.53,42.85-89.79"/><path class="cls-23" d="m33.24,87.43c13.86-17.22,35.02-27.17,56.46-31.26s69.84-20.74,65.38.74c-4.33,20.81-3.57,30.84.43,34.3,9.21,7.91,33.83-15.92,45.8-15.48,1.76.06,3.28.62,4.47,1.89,8.95,9.69-1.63,26.37-5.34,41.11-2.98,11.87-2.09,22.72,18.71,26.6,3.92.73,4.71,4.19,4.89,8.45.23,5.52-.4,12.36,3.59,15.81,6.46,5.54,15.64,6.12,22.82,8.33,3.19.98,6.37,2.41,9.15,4.81,10.16,8.77,9.92,25.44,3,37.73-1.03,1.83-2.06,3.71-3.14,5.59-5.81,10.1-11.2,21.68-8.86,33.15.76,3.65,2.75,6.7,6.16,8,2.82,1.08,6.14.69,9.2.31,5.1-.65,9.72-.04,14.53-1.9,6.33-2.45,12.13-6.01,16.43-11.22,15.46-18.76-2.47-40.38,20.31-48.25,11.5-3.97,24.14,8.08,36.51,24.32,20.17,26.41,39.66,63.69,51.81,60.24,7-1.99,13.19-4.06,18.64-6.26,44.58-18.15,37.41-44.5,21.65-69.15-5.58-8.73-12.23-17.26-18.14-24.97-11.09-14.46-19.41-26.03-12.13-31.59,4.47-3.39,10.95,3.3,16.29,1.68,1.89-.57,3.62-1.53,5.24-2.7,1.64-1.18,3.16-2.57,4.6-3.98,17.81-17.37,11.26-64.09,36.19-64.15,37.26-.04,23.79,7.42,27.34.09,7.91-16.33,30.43-13.17,28.17-31.47-4.5-36.46,20.73-33.5,33.35-28.63,7.27,2.8,13.14,7.95,18.4,13.49,1.95,2.04,3.87,4.12,5.82,6.13,24.77,25.7,58.22,44.47,94.2,49.29,12.05,1.61,28.31.16,43.45-5.59,30.19-11.47,58.27-36.82,41.53-91.72"/><path class="cls-20" d="m34.34,86.71c13.72-17.39,35.1-27.51,56.9-31.45s70.78-21.31,66.2.36c-16.16,76.54,38.74,5.91,51.35,19.81,16.17,17.83-34.5,59.73,13.23,69.04,8.71,1.7.31,18.86,6.87,24.83,8.67,7.88,23.38,4.72,32.57,11.98,10.55,8.33,8.01,25.03,2.28,37.19-5.72,12.16-13.84,24.72-11.23,37.91.68,3.44,2.31,6.97,5.41,8.6,2.61,1.37,5.74,1.15,8.67.77,11.24-1.47,22.88-5.23,30.15-13.94,15.82-18.96-2.95-41.08,20.55-48.65,31-10,70.63,95.38,90,90,126-35-17-118,6.66-135.75,4.53-3.4,11.16,3.62,16.61,2.06,3.9-1.12,7.11-3.86,10.05-6.65,18.28-17.38,12.13-64.61,37.36-64.63,38.32-.02,23.96,7.54,27.32-.02,7.56-16.99,30.49-13.57,28-32-5-37,20.47-33.74,33.09-28.76,9.89,3.9,17.3,12.12,24.86,19.6,25.97,25.69,58.68,45.63,94.73,51.55,36.05,5.91,111.33-16.38,84.33-98.38"/></g></svg>