<svg width="1440" height="294" viewBox="0 0 1440 294" fill="none" xmlns="http://www.w3.org/2000/svg">
<path d="M-24.7221 106.636C218.288 43.0144 107.655 114.208 132.274 112.597C156.893 110.985 183.376 116.627 184.887 125.87C185.702 130.921 246.062 126.265 250.811 130.835C255.915 135.773 205.406 147.702 219.928 147.277C234.451 146.851 248.915 144.853 263.432 144.572C305.827 143.745 418.941 164.702 379.81 172.536C254.716 197.581 541.15 212.988 361.645 224.559C319.271 227.289 303.416 254.375 313.182 269.588C320.82 281.495 384.456 251.993 417.671 250.937C432.826 250.458 408.883 288.043 422.822 285.235C459.067 277.936 496.95 270.108 521.001 257.349C548.744 242.626 552.784 224.269 566.129 207.311C579.474 190.36 611.745 171.834 657.179 170.232C696.704 168.835 730.771 181.07 769.991 177.667C783.754 176.47 796.41 173.432 807.861 170.025C829.75 163.516 848.559 155.434 862.763 146.429C880.578 135.144 841.123 109.413 874.249 107.655C897.138 106.445 967.148 116.903 991.245 97.1107C1021.39 72.3478 1112.41 74.2925 1087.28 87.6295C1023.01 121.732 1247.93 87.1438 1278.11 53.6015C1297.03 32.5648 1389.79 74.7541 1435.58 26.7525" stroke="url(#paint0_linear_78_21254)" stroke-miterlimit="10"/>
<path d="M-22.5349 105.877C12.5807 96.5036 40.9481 90.092 63.4304 85.8883C133.881 72.711 144.413 81.6592 140.616 93.0472C137.501 102.284 127.617 112.127 136.92 111.615C161.271 110.239 188.256 115.119 190.73 124.027C190.939 124.813 192.679 125.359 195.369 125.768C209.681 127.939 250.552 125.811 254.217 129.866C258.787 134.948 210.098 146.756 225.442 146.375C239.724 146.026 253.737 144.115 267.76 143.957C282.578 143.786 306.255 146.429 329 150.128C369.121 156.652 405.556 166.684 381.833 171.533C361.512 175.686 352.651 179.538 351.056 183.191C343.813 199.82 488.031 211.496 389.63 220.931C382.585 221.606 374.312 222.288 364.661 222.956C323.284 225.846 307.596 252.295 317.118 267.271C321.561 274.237 345.419 266.894 370.872 259.618C388.048 254.725 405.94 249.85 419.042 249.434C434.007 248.952 411.167 285.278 424.946 282.517C460.382 275.401 497.309 267.729 520.927 255.283C536.485 247.085 543.528 237.856 550.913 228.614C557.054 220.929 561.6 213.414 568.232 206.296C579.76 193.747 602.972 180.454 634.884 174.53C642.935 173.033 651.484 172.067 660.463 171.683C701.553 169.939 734.124 181.054 771.151 177.187C784.127 175.832 796.09 172.749 806.709 169.228C819.248 165.072 830.571 160.283 841.482 155.249C846.577 152.911 851.458 150.719 855.95 148.261C857.51 147.403 859.035 146.53 860.488 145.637C861.939 144.759 863.046 143.786 863.882 142.745C873.685 130.454 843.335 107.999 874.451 106.49C886.943 105.883 905.719 108.017 926.602 108.063C951.507 108.114 978.724 106.31 991.152 95.492C1008.44 80.4499 1047.84 75.3656 1071.59 76.3408C1087.82 77.0012 1096.88 80.5442 1087.29 85.9153C1084.06 87.7423 1081.63 89.3692 1079.95 90.8187C1057.87 109.767 1163.27 97.2379 1230.87 76.8105C1253.79 69.8849 1272.72 62.0122 1280.6 54.0836C1301.07 33.4737 1392.38 73.5882 1435.78 25.8931" stroke="url(#paint1_linear_78_21254)" stroke-miterlimit="10"/>
<path d="M-20.3457 105.128C14.5392 95.6405 43.3762 89.2243 66.4639 84.9986C136.075 72.2728 149.287 80.3277 145.241 91.8597C141.868 101.291 132.338 111.053 141.55 110.63C165.627 109.519 193.14 113.606 196.539 122.181C196.847 122.937 198.626 123.475 201.312 123.905C215.713 126.211 254.281 124.618 257.589 128.886C261.645 134.104 214.747 145.971 230.923 145.462C244.973 145.017 258.544 143.373 272.073 143.332C286.377 143.292 309.168 146.028 331.37 149.686C370.502 156.111 406.306 165.835 383.838 170.532C364.444 174.582 356.077 178.309 354.702 181.892C348.428 198.156 487.443 209.697 391.979 219.249C385.103 219.936 377.034 220.642 367.663 221.341C327.292 224.341 311.761 250.205 321.058 264.95C325.376 271.758 348.533 264.753 373.33 257.764C390.094 253.067 407.579 248.351 420.435 247.933C435.21 247.447 413.473 282.516 427.091 279.802C461.737 272.867 497.69 265.351 520.854 253.227C536.916 244.823 542.927 235.434 551.318 226.265C558.203 218.757 563.263 211.775 570.316 205.291C582.774 193.83 606.158 181.86 637.798 176.073C646.02 174.567 654.699 173.599 663.744 173.157C706.401 171.06 737.494 181.055 772.307 176.739C784.516 175.218 795.768 172.083 805.554 168.455C817.153 164.152 827.39 159.189 838.463 154.19C843.672 151.843 848.796 149.893 853.489 147.468C855.122 146.623 856.704 145.75 858.231 144.864C859.738 143.985 860.921 143.01 861.813 141.969C872.506 129.654 842.985 106.774 874.651 105.344C889.132 104.691 906.285 107.376 926.79 106.84C951.451 106.192 979.257 104.805 991.093 93.8991C1007.8 78.4985 1047.31 73.6166 1071.05 74.6717C1087.17 75.3702 1096.25 78.9049 1087.35 84.2269C1084.33 86.0353 1082.13 87.6579 1080.62 89.1041C1060.82 108.009 1164.68 96.3455 1232.28 76.7099C1255.19 70.0533 1274.6 62.4128 1283.14 54.5909C1305.14 34.4084 1395.01 72.4413 1436.06 25.0671" stroke="url(#paint2_linear_78_21254)" stroke-miterlimit="10"/>
<path d="M-18.1562 104.37C16.498 94.7684 45.8057 88.3406 69.4963 84.1073C138.234 71.8116 154.159 79.0022 149.864 90.6709C146.231 100.305 137.04 109.979 146.197 109.65C169.984 108.789 198.057 112.107 202.382 120.34C202.769 121.073 204.627 121.596 207.271 122.048C221.742 124.496 258.009 123.424 260.997 127.912C264.559 133.258 219.427 145.097 236.438 144.554C250.261 144.107 263.368 142.63 276.402 142.719C290.172 142.81 312.076 145.64 333.737 149.249C371.881 155.582 407.054 164.992 385.823 169.537C367.373 173.491 359.499 177.093 358.327 180.601C353.005 196.492 486.833 207.912 394.306 217.581C387.599 218.279 379.752 219.017 370.622 219.747C331.272 222.879 315.864 248.143 324.956 262.644C329.168 269.301 351.553 262.598 375.729 255.917C392.045 251.402 409.16 246.852 421.769 246.438C436.374 245.942 415.718 279.768 429.196 277.094C463.034 270.341 498.049 262.98 520.761 251.17C537.329 242.552 542.267 233.019 551.721 223.922C559.331 216.592 564.867 210.142 572.399 204.292C585.73 193.919 609.341 183.277 640.71 177.62C649.122 176.105 657.915 175.129 667.007 174.629C711.25 172.163 740.844 181.062 773.445 176.281C784.868 174.602 795.468 171.408 804.383 167.674C815.063 163.208 824.211 158.085 835.427 153.129C840.77 150.767 846.117 149.057 851.01 146.674C852.717 145.842 854.353 144.975 855.937 144.088C857.52 143.208 858.759 142.234 859.727 141.191C871.327 128.858 842.594 105.562 874.813 104.197C891.302 103.498 906.918 106.552 926.923 105.609C951.269 104.458 979.716 103.284 990.959 92.2987C1007.06 76.5403 1046.71 71.8675 1070.43 72.9953C1086.45 73.7318 1095.56 77.2652 1087.33 82.5384C1084.54 84.328 1082.53 85.9541 1081.21 87.3967C1063.69 106.25 1166 95.4602 1233.58 76.6232C1256.48 70.2352 1276.38 62.834 1285.58 55.1118C1309.09 35.3639 1397.55 71.3162 1436.21 24.2555" stroke="url(#paint3_linear_78_21254)" stroke-miterlimit="10"/>
<path d="M-15.9873 103.615C18.4174 93.8999 48.2145 87.4602 72.509 83.2123C140.375 71.3393 159.087 77.6651 154.486 89.4784C150.651 99.3133 141.76 108.893 150.825 108.66C174.341 108.048 202.954 110.604 208.207 118.483C208.674 119.193 210.608 119.707 213.231 120.173C227.771 122.764 261.776 122.211 264.405 126.926C267.473 132.401 224.107 144.213 241.955 143.628C255.529 143.185 268.193 141.867 280.733 142.08C293.989 142.302 315.009 145.218 336.126 148.785C373.281 155.026 407.826 164.116 387.849 168.516C370.343 172.366 362.964 175.844 361.992 179.283C357.64 194.801 486.244 206.107 396.693 215.886C390.153 216.602 382.51 217.365 373.641 218.119C335.293 221.383 320.047 246.041 328.896 260.304C332.981 266.811 354.668 260.431 378.189 254.036C394.075 249.709 410.801 245.326 423.163 244.91C437.579 244.41 418.023 276.995 431.343 274.353C464.406 267.803 498.47 260.576 520.709 249.086C537.782 240.263 541.63 230.579 552.148 221.546C560.462 214.401 566.493 208.484 574.506 203.252C588.71 193.966 612.549 184.653 643.629 179.125C652.211 177.601 661.154 176.623 670.294 176.058C716.123 173.226 744.198 181.028 774.606 175.791C785.262 173.946 795.173 170.685 803.233 166.866C812.996 162.23 821.072 156.961 832.413 152.034C837.87 149.664 843.461 148.188 848.554 145.845C850.334 145.027 852.045 144.167 853.685 143.279C855.324 142.399 856.622 141.416 857.664 140.38C870.154 128.023 842.243 104.332 875.016 103.017C893.513 102.272 907.6 105.092 927.116 104.352C951.193 103.436 980.234 101.745 990.885 90.6725C1006.39 74.5419 1046.16 70.1142 1069.86 71.2931C1085.78 72.0891 1094.94 75.5925 1087.38 80.8169C1084.82 82.5949 1083.02 84.2099 1081.87 85.6492C1066.71 104.465 1167.39 94.534 1234.97 76.488C1257.86 70.3686 1278.24 63.1994 1288.11 55.5841C1313.11 36.2711 1400.18 70.1364 1436.47 23.3958" stroke="url(#paint4_linear_78_21254)" stroke-miterlimit="10"/>
<path d="M-13.7971 102.861C20.3782 93.0251 50.6256 86.5813 75.5417 82.3257C142.519 70.8681 163.977 76.3448 159.109 88.295C155.014 98.3318 146.452 107.874 155.472 107.678C178.723 107.172 207.908 109.116 214.051 116.642C214.615 117.328 216.59 117.827 219.191 118.309C233.8 121.041 265.525 121.008 267.815 125.942C270.409 131.545 228.792 143.316 247.472 142.712C260.817 142.28 273.037 141.121 285.083 141.457C297.825 141.81 317.94 144.819 338.535 148.337C374.703 154.479 408.616 163.262 389.895 167.503C373.332 171.258 366.448 174.604 365.677 177.974C362.276 193.121 485.675 204.319 399.08 214.201C392.69 214.929 385.289 215.723 376.661 216.508C339.313 219.911 324.209 243.963 332.854 257.982C336.813 264.338 357.783 258.281 380.648 252.172C396.122 248.041 412.463 243.809 424.558 243.398C438.803 242.895 420.33 274.224 433.488 271.637C465.761 265.275 498.87 258.204 520.658 247.02C538.235 237.991 540.972 228.17 552.593 219.187C561.592 212.227 568.157 206.842 576.63 202.235C591.707 194.043 615.775 186.05 646.584 180.652C655.357 179.111 664.413 178.132 673.599 177.51C721.015 174.302 747.59 181.016 775.787 175.316C785.658 173.305 794.92 169.97 802.105 166.066C810.973 161.246 817.955 155.846 829.421 150.955C835.011 148.576 840.825 147.342 846.101 145.032C847.954 144.228 849.72 143.374 851.417 142.486C853.112 141.605 854.485 140.621 855.602 139.585C868.907 127.197 841.892 103.124 875.202 101.853C895.705 101.069 908.245 104.101 927.272 103.111C951.117 101.871 980.717 100.208 990.775 89.0556C1005.65 72.5605 1045.57 68.3486 1069.27 69.6001C1085.08 70.4341 1094.26 73.9365 1087.39 79.1047C1085.04 80.8643 1083.46 82.475 1082.49 83.9111C1069.65 102.676 1168.75 93.6169 1236.32 76.3612C1259.18 70.5106 1280.05 63.5804 1290.6 56.0644C1317.07 37.1865 1402.74 68.9731 1436.67 22.5449" stroke="url(#paint5_linear_78_21254)" stroke-miterlimit="10"/>
<path d="M-11.6073 102.101C22.3184 92.152 53.0551 85.6966 78.5749 81.4264C144.647 70.37 168.867 75.0053 163.731 87.0993C159.398 97.3302 151.181 106.735 160.099 106.691C183.056 106.571 212.859 107.624 219.873 114.796C220.517 115.46 222.57 115.943 225.129 116.447C239.808 119.321 269.292 119.799 271.203 124.967C273.324 130.69 233.436 142.428 252.966 141.804C266.062 141.385 277.86 140.377 289.393 140.836C301.64 141.319 320.85 144.422 340.904 147.891C376.083 153.941 409.385 162.41 391.881 166.5C376.262 170.158 369.853 173.374 369.32 176.674C366.87 191.449 485.065 202.54 401.445 212.525C395.223 213.271 388.026 214.09 379.659 214.899C343.313 218.433 328.37 241.879 336.789 255.669C340.642 261.874 360.875 256.14 383.086 250.317C398.13 246.374 414.082 242.309 425.93 241.902C439.985 241.395 422.631 271.477 435.611 268.93C467.074 262.757 499.285 255.84 520.565 244.969C538.646 235.735 540.253 225.778 552.977 216.853C562.642 210.078 569.719 205.231 578.694 201.235C594.623 194.144 618.939 187.47 649.479 182.194C658.441 180.643 667.612 179.649 676.862 178.976C725.883 175.395 750.921 181.013 776.926 174.857C786.029 172.687 794.607 169.258 800.935 165.283C808.909 160.264 814.778 154.741 826.388 149.885C832.092 147.498 838.149 146.497 843.624 144.236C845.55 143.444 847.391 142.597 849.144 141.708C850.896 140.827 852.344 139.843 853.518 138.805C867.712 126.393 841.517 101.941 875.383 100.705C897.872 99.8903 908.905 103.118 927.443 101.879C951.077 100.307 981.194 98.6874 990.679 87.4554C1004.94 70.589 1045 66.6001 1068.68 67.9241C1084.39 68.8032 1093.61 72.2971 1087.41 77.4095C1085.29 79.1576 1083.93 80.7572 1083.12 82.19C1072.57 100.904 1170.11 92.7166 1237.67 76.2581C1260.52 70.6758 1281.86 63.985 1293.08 56.5684C1320.99 38.1261 1405.32 67.8343 1436.89 21.7184" stroke="url(#paint6_linear_78_21254)" stroke-miterlimit="10"/>
<path d="M-9.41603 101.347C24.279 91.2847 55.4669 84.8182 81.5902 80.5336C146.74 69.8641 173.738 73.6801 168.355 85.9101C163.762 96.3425 155.882 105.659 164.747 105.703C187.416 105.825 217.849 106.138 225.716 112.95C226.457 113.598 228.55 114.066 231.106 114.584C245.873 117.6 273.079 118.589 274.632 123.983C276.318 129.827 238.14 141.524 258.501 140.888C271.367 140.48 282.703 139.631 293.743 140.213C305.476 140.827 323.8 144.022 343.294 147.443C377.485 153.401 410.177 161.548 393.907 165.495C379.23 169.058 373.317 172.142 372.985 175.373C371.486 189.77 484.475 200.767 403.813 210.848C397.759 211.605 390.765 212.456 382.659 213.296C347.312 216.97 332.513 239.803 340.707 253.355C344.435 259.403 363.951 253.992 385.526 248.461C400.159 244.706 415.703 240.814 427.306 240.398C441.187 239.902 424.916 268.723 437.737 266.215C468.411 260.223 499.684 253.476 520.496 242.904C539.08 233.465 539.538 223.371 553.404 214.496C563.697 207.907 571.325 203.598 580.799 200.219C597.54 194.243 622.165 188.872 652.397 183.718C661.53 182.159 670.833 181.156 680.129 180.426C730.739 176.456 754.309 181.023 778.068 174.389C786.404 172.061 794.299 168.529 799.767 164.499C806.85 159.273 811.622 153.641 823.357 148.821C829.193 146.426 835.475 145.658 841.15 143.438C843.149 142.66 845.046 141.812 846.873 140.93C848.701 140.047 850.187 139.063 851.456 138.017C866.539 125.581 841.163 100.749 875.586 99.5498C900.08 98.6964 909.588 102.12 927.634 100.647C951.079 98.728 981.675 97.1598 990.604 85.8547C1004.22 68.6103 1044.46 64.8511 1068.12 66.2477C1083.75 67.1644 1092.98 70.6645 1087.45 75.7212C1085.56 77.4506 1084.39 79.0466 1083.75 80.4761C1075.5 99.1395 1171.48 91.8227 1239.03 76.154C1261.87 70.8398 1283.66 64.3814 1295.58 57.071C1324.9 39.0719 1407.92 66.688 1437.1 20.8919" stroke="url(#paint7_linear_78_21254)" stroke-miterlimit="10"/>
<path d="M-7.22717 100.581C26.2183 90.405 57.8775 83.92 84.6207 79.6351C148.851 69.3448 178.606 72.3425 172.974 84.7158C168.122 95.3495 160.6 104.571 169.39 104.717C191.789 105.088 222.872 104.653 231.554 111.1C232.394 111.724 234.545 112.177 237.06 112.717C251.895 115.882 276.863 117.373 278.037 123.001C279.27 128.958 242.907 139.991 264.013 139.967C276.586 139.951 287.542 138.88 298.09 139.577C309.328 140.321 326.73 143.603 345.701 146.982C378.905 152.841 410.985 160.682 395.951 164.477C382.218 167.937 376.797 170.898 376.666 174.06C376.119 188.079 483.883 198.989 406.197 209.159C400.312 209.927 393.521 210.81 385.676 211.674C351.31 215.487 336.614 237.723 344.662 251.023C348.244 256.928 367.082 251.831 387.983 246.587C402.187 243.019 417.344 239.286 428.699 238.874C442.391 238.375 427.22 265.943 439.899 263.482C469.765 257.678 500.14 251.084 520.462 240.826C539.569 231.181 538.823 220.953 553.848 212.126C564.749 205.731 572.928 201.959 582.922 199.19C600.457 194.322 625.389 190.26 655.353 185.228C664.674 183.66 674.112 182.641 683.434 181.861C735.633 177.497 757.698 180.998 779.229 173.901C786.779 171.415 793.994 167.766 798.62 163.686C804.796 158.234 808.488 152.513 820.348 147.722C826.298 145.319 832.822 144.791 838.699 142.605C840.77 141.84 842.723 140.999 844.607 140.116C846.49 139.233 848.052 138.248 849.397 137.201C865.368 124.741 840.811 99.5305 875.772 98.3671C902.269 97.4829 910.274 101.088 927.79 99.3877C951.044 97.1224 982.119 95.6057 990.493 84.2275C1003.46 66.6055 1043.87 63.0756 1067.52 64.5375C1083.05 65.4993 1092.32 68.9908 1087.44 73.9922C1085.78 75.7102 1084.81 77.2951 1084.35 78.7286C1078.39 97.3417 1172.82 90.8948 1240.35 76.0154C1263.18 70.9693 1285.41 64.7502 1298.03 57.539C1328.75 39.9759 1410.46 65.5153 1437.29 20.0235" stroke="url(#paint8_linear_78_21254)" stroke-miterlimit="10"/>
<path d="M-5.03788 99.8251C28.1769 89.536 60.2694 83.0332 87.6525 78.7406C150.945 68.8225 183.493 71.0165 177.592 83.5332C172.482 94.368 165.298 103.495 174.015 103.735C196.125 104.348 227.913 103.18 237.373 109.262C238.31 109.863 240.502 110.3 242.994 110.862C257.898 114.177 280.646 116.17 281.425 122.024C282.203 127.879 247.582 139.022 269.505 139.057C281.826 139.075 292.363 138.133 302.399 138.954C313.122 139.835 329.64 143.203 348.071 146.532C380.287 152.299 411.776 159.819 397.937 163.472C385.165 166.836 380.201 169.666 380.289 172.759C380.673 186.408 483.233 197.231 408.543 207.482C402.806 208.268 396.259 209.168 388.653 210.071C355.288 214.022 340.733 235.654 348.576 248.71C352.033 254.465 370.154 249.69 390.42 244.73C404.213 241.357 418.963 237.783 430.054 237.369C443.556 236.866 429.483 263.19 442.003 260.768C471.081 255.145 500.537 248.72 520.373 238.76C540.209 228.8 538.012 218.547 554.253 209.777C565.745 203.561 574.473 200.34 585.026 198.173C603.317 194.42 628.612 191.665 658.289 186.748C667.8 185.17 677.352 184.136 686.738 183.305C740.527 178.54 761.087 180.983 780.408 173.431C787.192 170.779 793.669 167.022 797.491 162.892C802.742 157.205 805.371 151.404 817.357 146.641C823.441 144.223 830.17 143.936 836.265 141.789C838.41 141.039 840.436 140.204 842.377 139.32C844.317 138.437 845.955 137.443 847.355 136.404C864.215 123.919 840.474 98.3446 875.994 97.2027C904.494 96.288 910.997 100.067 928.002 98.1395C951.105 95.5202 982.62 94.0628 990.439 82.6044C1002.75 64.605 1043.34 61.3044 1066.98 62.8387C1082.4 63.8383 1091.71 67.3286 1087.51 72.2745C1086.05 73.9741 1085.32 75.5548 1085.02 76.9851C1081.34 95.5484 1174.22 89.9707 1241.75 75.887C1264.57 71.1086 1287.24 65.1293 1300.58 58.0169C1332.65 40.8903 1413.1 64.3464 1437.54 19.1735" stroke="url(#paint9_linear_78_21254)" stroke-miterlimit="10"/>
<path d="M-2.84384 99.0685C30.1214 88.6666 62.6848 82.1454 90.6874 77.8527C153.025 68.2997 188.383 69.6905 182.234 82.35C176.885 93.3783 170.037 102.418 178.681 102.753C200.505 103.6 233.015 101.699 243.232 107.423C244.267 108.008 246.518 108.431 248.989 109C263.961 112.463 284.493 114.95 284.873 121.046C285.253 127.141 252.299 138.044 275.058 138.147C287.127 138.198 297.244 137.392 306.767 138.335C316.996 139.347 332.592 142.807 350.481 146.088C381.709 151.763 412.607 158.969 399.985 162.464C388.192 165.739 383.685 168.432 383.974 171.457C385.29 184.728 482.643 195.485 410.931 205.803C405.362 206.608 399.017 207.54 391.693 208.459C359.327 212.55 344.915 233.57 352.533 246.396C355.864 251.994 373.268 247.548 392.881 242.873C406.244 239.688 420.607 236.279 431.451 235.862C444.783 235.356 431.789 260.436 444.15 258.054C472.437 252.618 500.976 246.355 520.305 236.7C539.635 227.046 537.226 216.141 554.662 207.427C566.725 201.398 576.004 198.714 587.114 197.162C606.125 194.509 631.82 193.075 661.191 188.274C670.871 186.694 680.558 185.637 689.989 184.756C745.368 179.59 764.423 180.968 781.534 172.961C787.552 170.143 793.275 166.264 796.309 162.104C800.618 156.177 802.202 150.301 814.312 145.575C820.529 143.148 827.482 143.094 833.778 140.989C835.995 140.251 838.077 139.423 840.074 138.539C842.089 137.655 843.783 136.661 845.259 135.62C863.006 123.119 840.084 97.1665 876.142 96.0538C906.643 95.1158 911.647 99.0536 928.12 96.9144C951.073 93.934 983.008 92.5363 990.308 81.0114C1001.94 62.6354 1042.74 59.5636 1066.36 61.1703C1081.68 62.2149 1091.02 65.7038 1087.49 70.5943C1086.27 72.2825 1085.72 73.8524 1085.62 75.2792C1084.23 93.7925 1175.55 89.0836 1243.06 75.7884C1265.88 71.2778 1288.97 65.5309 1303.03 58.5173C1336.46 41.8201 1415.64 63.2084 1437.72 18.3467" stroke="url(#paint10_linear_78_21254)" stroke-miterlimit="10"/>
<path d="M-0.673437 98.2998C32.061 87.7847 65.0586 81.2388 93.6995 76.9458C155.084 67.7432 193.229 68.3534 186.833 81.1485C181.226 92.3774 174.716 101.323 183.285 101.759C204.821 102.848 238.112 100.207 249.029 105.574C250.162 106.136 252.453 106.543 254.901 107.135C269.923 110.747 288.256 113.734 288.24 120.056C288.224 126.378 256.953 137.056 280.531 137.218C292.367 137.302 302.045 136.632 311.076 137.691C320.811 138.832 335.482 142.393 352.851 145.618C383.05 151.223 413.398 158.085 401.99 161.438C391.177 164.617 387.108 167.18 387.635 170.136C389.884 183.022 482.029 193.72 413.316 204.099C407.897 204.915 401.774 205.879 394.71 206.829C363.324 211.058 349.073 231.474 356.486 244.056C359.692 249.504 376.399 245.379 395.357 240.989C408.31 237.991 422.286 234.741 432.864 234.329C446.007 233.819 434.111 257.648 446.312 255.313C473.792 250.058 501.45 243.962 520.274 234.606C540.928 224.348 536.436 213.709 555.126 205.043C567.743 199.193 577.573 197.047 589.256 196.116C608.952 194.55 635.083 194.449 664.167 189.763C674.036 188.174 683.838 187.101 693.333 186.17C750.301 180.596 767.87 180.925 782.753 172.455C787.985 169.479 792.955 165.47 795.221 161.274C798.531 155.108 799.127 149.156 811.363 144.458C817.693 142.024 824.889 142.21 831.384 140.145C833.675 139.421 835.831 138.599 837.885 137.708C839.957 136.823 841.708 135.828 843.259 134.787C861.893 122.263 839.787 95.9462 876.404 94.8554C908.905 93.8944 912.413 97.9838 928.37 95.6394C951.175 92.2841 983.528 90.9675 990.291 79.3694C1001.23 60.61 1042.25 57.7738 1065.86 59.4529C1081.07 60.5353 1090.47 64.0226 1087.59 68.858C1086.6 70.5276 1086.26 72.0936 1086.33 73.5173C1087.21 91.9811 1177.01 88.1399 1244.51 75.6398C1267.31 71.3968 1290.83 65.8894 1305.61 58.9748C1340.35 42.7146 1418.31 62.0285 1438.02 17.4781" stroke="url(#paint11_linear_78_21254)" stroke-miterlimit="10"/>
<path d="M1.51985 97.5449C34.0047 86.9171 67.4742 80.3459 96.7343 76.053C157.148 67.2009 198.099 67.0238 191.473 79.9611C185.608 91.3906 179.436 100.241 187.951 100.772C209.199 102.102 243.29 98.7134 254.887 103.733C256.137 104.271 258.466 104.671 260.893 105.276C275.983 109.038 292.118 112.525 291.687 119.08C291.255 125.635 261.687 136.081 286.081 136.31C297.666 136.419 306.942 135.893 315.443 137.075C324.682 138.353 338.432 141.999 355.279 145.175C384.493 150.68 414.287 157.229 404.035 160.44C393.784 163.651 390.589 165.956 391.315 168.851C394.476 181.361 481.433 192.005 415.7 202.437C410.448 203.272 404.529 204.261 397.725 205.242C367.319 209.617 353.23 229.415 360.438 241.76C363.517 247.058 379.508 243.254 397.813 239.15C410.336 236.346 423.926 233.253 434.257 232.846C447.228 232.333 436.411 254.919 448.452 252.624C475.126 247.549 501.904 241.621 520.221 232.571C541.378 222.108 535.609 211.321 555.548 202.725C568.7 197.048 579.098 195.788 591.358 195.129C611.747 194.032 638.305 195.88 667.103 191.308C677.16 189.71 687.078 188.615 696.617 187.641C755.176 181.652 771.239 180.932 783.912 172.014C788.378 168.873 792.557 164.735 794.072 160.51C796.368 154.089 795.992 148.076 808.353 143.414C814.816 140.972 822.236 141.391 828.931 139.366C831.294 138.656 833.507 137.834 835.616 136.949C837.745 136.063 839.571 135.068 841.197 134.026C860.719 121.478 839.43 94.7916 876.604 93.7297C911.105 92.746 913.137 96.9721 928.54 94.4305C951.199 90.6931 983.95 89.4581 990.194 77.7936C1000.44 58.6583 1041.68 56.0504 1065.27 57.8018C1080.39 58.922 1089.82 62.4151 1087.61 67.188C1086.85 68.8463 1086.72 70.4013 1086.96 71.8218C1090.11 90.2364 1178.36 87.2625 1245.85 75.5498C1268.63 71.5745 1292.58 66.2993 1308.09 59.4905C1344.14 43.6532 1420.88 60.9009 1438.23 16.6683" stroke="url(#paint12_linear_78_21254)" stroke-miterlimit="10"/>
<path d="M3.71722 96.7761C35.9726 86.0281 69.876 79.4323 99.7529 75.1539C159.198 66.6376 202.97 65.6952 196.078 78.7681C189.955 90.3908 184.139 99.154 192.579 99.7861C213.542 101.351 248.451 97.2145 260.709 101.886C262.057 102.401 264.425 102.793 266.831 103.413C281.987 107.33 295.927 111.302 295.08 118.091C294.233 124.88 266.35 135.086 291.579 135.389C302.913 135.524 311.766 135.148 319.757 136.439C328.502 137.853 341.35 141.585 357.638 144.711C385.864 150.125 415.106 156.345 406.03 159.422C396.953 162.498 394.001 164.706 394.944 167.538C399.018 179.672 480.767 190.278 418.034 200.749C412.931 201.603 407.235 202.616 400.691 203.621C371.285 208.135 357.357 227.322 364.321 239.432C367.294 244.579 382.57 241.089 400.202 237.276C412.315 234.659 425.499 231.725 435.583 231.322C448.365 230.805 438.643 252.151 450.544 249.902C476.429 245.014 502.308 239.254 520.121 230.494C541.818 219.827 534.715 208.893 555.943 200.358C569.631 194.855 580.604 193.758 593.432 194.099C614.524 194.653 641.498 197.274 669.991 192.81C680.238 191.203 690.27 190.093 699.873 189.068C760.024 182.658 774.578 180.905 785.043 171.524C788.744 168.217 792.094 163.958 792.897 159.702C794.138 153.036 792.849 146.954 805.316 142.321C811.912 139.87 819.557 140.522 826.452 138.538C828.869 137.842 831.156 137.026 833.34 136.14C835.525 135.254 837.427 134.258 839.109 133.216C859.538 120.644 839.045 93.5951 876.758 92.5553C914.472 91.5156 913.798 95.9048 928.683 93.1797C951.215 89.0531 984.344 87.907 990.07 76.169C999.601 56.6511 1041.08 54.2783 1064.66 56.102C1079.69 57.2667 1089.15 60.7588 1087.61 65.4765C1087.07 67.1234 1087.13 68.6678 1087.56 70.0848C1093.01 88.4429 1179.7 86.3428 1247.19 75.4171C1269.95 71.7089 1294.32 66.6662 1310.56 59.9632C1347.91 44.5486 1423.45 59.7384 1438.42 15.8164" stroke="url(#paint13_linear_78_21254)" stroke-miterlimit="10"/>
<path d="M5.90751 96.0179C37.9131 85.1575 72.2692 78.5369 102.784 74.2584C161.262 66.0707 207.834 64.3642 200.694 77.5793C194.314 89.4021 188.835 98.0709 197.202 98.7973C217.897 100.595 253.644 95.7052 266.522 100.044C267.987 100.536 270.377 100.913 272.76 101.555C287.965 105.628 299.747 110.091 298.466 117.113C297.246 123.762 271.024 134.103 297.067 134.479C308.169 134.64 316.602 134.407 324.082 135.82C332.331 137.371 344.277 141.188 360.025 144.265C387.264 149.586 415.973 155.478 408.053 158.414C400.133 161.349 397.441 163.473 398.603 166.237C403.571 177.988 480.147 188.568 420.416 199.071C415.48 199.943 410.007 200.98 403.705 202.017C375.277 206.677 361.51 225.253 368.269 237.127C371.116 242.124 385.696 238.955 402.674 235.426C414.377 232.996 427.155 230.227 436.993 229.822C449.586 229.301 440.961 249.399 452.701 247.197C477.779 242.489 502.779 236.896 520.067 228.441C542.284 217.578 533.851 206.475 556.365 198.017C570.55 192.687 582.152 192.11 595.532 193.087C617.354 194.688 644.719 198.684 672.927 194.328C683.361 192.719 693.51 191.579 703.157 190.512C764.88 183.682 777.926 180.887 786.201 171.059C789.117 167.587 791.638 163.206 791.748 158.913C791.898 152.001 789.714 145.857 802.306 141.252C809.034 138.793 816.903 139.685 823.999 137.735C826.489 137.052 828.85 136.243 831.091 135.356C833.351 134.47 835.31 133.466 837.067 132.43C858.383 119.835 838.704 92.424 876.976 91.4063C915.247 90.3885 914.523 94.8556 928.889 91.9544C951.278 87.4249 984.78 86.3893 990.008 74.5775C998.826 54.6775 1040.55 52.5397 1064.11 54.4356C1079.04 55.638 1088.55 59.1357 1087.66 63.7914C1087.35 65.427 1087.63 66.9604 1088.22 68.3814C1095.92 86.6909 1181.11 85.4562 1248.58 75.3243C1271.34 71.8832 1296.09 67.0732 1313.09 60.4759C1351.71 45.4847 1426.07 58.6101 1438.68 15.0056" stroke="url(#paint14_linear_78_21254)" stroke-miterlimit="10"/>
<path d="M8.10171 95.2469C39.8767 84.2737 74.6499 77.6146 105.818 73.3573C163.31 65.4979 212.7 63.035 205.332 76.3848C198.694 88.4075 193.553 96.9821 201.864 97.8096C222.273 99.8414 258.897 94.19 272.356 98.2041C273.938 98.6726 276.366 99.042 278.729 99.6913C294.002 103.913 303.607 108.874 301.893 116.122C300.297 122.889 275.739 133.106 302.598 133.549C313.451 133.729 321.461 133.653 328.431 135.174C336.184 136.868 347.211 140.763 362.438 143.792C388.69 149.021 416.906 154.576 410.083 157.386C403.26 160.196 400.886 162.22 402.268 164.916C408.129 176.285 479.514 186.853 422.786 197.375C417.998 198.265 412.748 199.327 406.706 200.387C379.256 205.201 365.653 223.153 372.205 234.79C374.926 239.637 388.791 236.789 405.116 233.551C416.39 231.308 428.782 228.696 438.373 228.295C450.795 227.772 443.246 246.629 454.828 244.467C479.119 239.939 503.237 234.52 520.003 226.356C542.741 215.289 532.958 204.024 556.775 195.65C571.478 190.485 583.69 190.43 597.621 192.055C620.211 194.696 647.948 200.074 675.851 195.825C686.456 194.207 696.738 193.051 706.448 191.934C769.745 184.669 781.301 180.849 787.367 170.565C789.517 166.935 791.191 162.426 790.61 158.095C789.648 150.946 786.59 144.724 799.308 140.149C806.15 137.682 814.261 138.806 821.537 136.904C824.1 136.235 826.516 135.432 828.814 134.545C831.13 133.658 833.145 132.654 834.977 131.617C857.179 119.006 838.334 91.2327 877.127 90.2303C915.92 89.2279 915.184 93.7724 929.011 90.6954C951.24 85.7491 985.134 84.8307 989.863 72.9523C997.95 52.6703 1039.93 50.7599 1063.48 52.7352C1078.31 53.9753 1087.87 57.4714 1087.62 62.0727C1087.54 63.6898 1088.02 65.2194 1088.78 66.6373C1098.76 84.8983 1182.41 84.5284 1249.86 75.1827C1272.61 72.0086 1297.76 67.4239 1315.51 60.9393C1355.39 46.3568 1428.56 57.441 1438.83 14.1384" stroke="url(#paint15_linear_78_21254)" stroke-miterlimit="10"/>
<path d="M10.2937 94.4855C41.819 83.4 77.0458 76.7092 108.85 72.4592C165.359 64.9136 217.565 61.7023 209.949 75.194C203.054 87.4093 198.269 95.8893 206.488 96.8185C226.611 99.0838 264.131 92.6644 278.17 96.3614C279.868 96.8066 282.318 97.1613 284.658 97.8323C299.979 102.21 307.428 107.661 305.261 115.142C303.269 122.02 280.378 132.106 308.068 132.637C318.689 132.843 326.258 132.917 332.72 134.546C339.997 136.376 350.105 140.349 364.79 143.336C390.055 148.472 416.547 153.382 412.07 156.375C405.312 158.69 404.289 160.986 405.908 163.612C412.643 174.606 478.873 185.17 425.15 195.695C420.53 196.604 415.482 197.697 409.701 198.781C383.23 203.741 369.787 221.084 376.117 232.477C378.732 237.168 391.88 234.646 407.552 231.692C418.416 229.643 430.403 227.189 439.748 226.786C451.981 226.258 445.528 243.87 456.949 241.754C480.434 237.406 503.672 232.161 519.934 224.294C543.21 213.031 532.043 201.584 557.2 193.3C572.402 188.295 585.28 188.758 599.724 191.04C623.082 194.72 651.171 201.478 678.77 197.337C689.562 195.717 699.962 194.532 709.716 193.372C774.585 185.681 784.631 180.835 788.509 170.089C789.875 166.294 790.7 161.671 789.446 157.302C787.334 149.924 783.46 143.616 796.283 139.077C803.256 136.61 811.594 137.959 819.069 136.098C821.705 135.442 824.196 134.638 826.549 133.758C828.922 132.87 831.012 131.865 832.921 130.821C856.028 118.187 837.978 90.0522 877.329 89.0719C919.823 88.0209 915.877 92.6998 929.201 89.4608C951.271 84.0909 985.556 83.2971 989.785 71.3522C997.122 50.6891 1039.38 49.0129 1062.91 51.0603C1077.64 52.338 1087.24 55.8399 1087.65 60.3863C1087.8 61.9921 1088.47 63.5111 1089.43 64.9256C1101.68 83.1381 1183.78 83.6328 1251.24 75.0724C1273.98 72.1651 1299.52 67.8058 1318.03 61.4339C1359.15 47.2606 1431.16 56.3042 1439.06 13.3114" stroke="url(#paint16_linear_78_21254)" stroke-miterlimit="10"/>
<path d="M12.4873 93.7222C43.7819 82.524 79.4268 75.7878 111.883 71.5591C167.41 64.3271 222.43 60.3752 214.565 74.0088C207.394 86.424 202.965 94.8096 211.13 95.8326C230.968 98.3239 269.386 91.1301 284.002 94.5246C285.817 94.9464 288.305 95.2934 290.624 95.9789C305.992 100.519 311.287 106.445 308.687 114.159C306.318 121.155 285.092 131.11 313.595 131.723C323.967 131.947 331.131 132.186 337.084 133.922C343.865 135.895 353.055 139.946 367.199 142.883C391.48 147.921 417.308 152.498 414.115 155.37C408.264 157.561 407.749 159.756 409.587 162.314C417.196 172.926 478.27 183.506 427.534 194.021C423.062 194.948 418.238 196.067 412.718 197.174C387.242 202.287 373.963 219.006 380.067 230.164C382.557 234.705 395.009 232.503 410.01 229.833C420.464 227.969 432.046 225.674 441.126 225.275C453.188 224.744 447.81 241.118 459.073 239.042C481.752 234.873 504.128 229.801 519.868 222.225C543.663 210.765 531.132 199.136 557.609 190.942C573.293 186.089 586.836 187.085 601.832 190.009C625.977 194.727 654.418 202.872 681.714 198.831C692.694 197.209 703.21 195.995 713.008 194.791C779.451 186.66 788.005 180.797 789.675 169.603C790.257 165.643 790.214 160.907 788.307 156.493C785.007 148.885 780.335 142.499 793.285 137.981C800.39 135.506 808.952 137.094 816.628 135.267C819.337 134.624 821.883 133.827 824.292 132.946C826.721 132.058 828.887 131.053 830.871 130.007C854.865 117.351 837.629 88.855 877.536 87.9039C922.007 86.8388 916.557 91.6108 929.378 88.21C951.272 82.4098 985.946 81.7476 989.696 69.7287C996.264 48.6848 1038.82 47.2423 1062.34 49.3547C1076.98 50.6696 1086.64 54.1772 1087.68 58.6621C1088.06 60.2567 1088.94 61.7648 1090.06 63.1762C1104.57 81.3408 1185.16 82.6988 1252.6 74.9309C1275.32 72.2901 1301.24 68.1563 1320.51 61.8969C1362.87 48.1255 1433.74 55.1296 1439.28 12.4529" stroke="url(#paint17_linear_78_21254)" stroke-miterlimit="10"/>
<path d="M14.6633 92.9529C45.7081 81.6427 81.7885 74.8681 114.898 70.661C169.425 63.7282 227.275 59.0437 219.182 72.8185C211.753 85.433 207.681 93.7242 215.752 94.8487C235.324 97.5729 274.621 89.5912 289.814 92.6834C291.747 93.0748 294.254 93.4215 296.551 94.1215C311.968 98.8172 315.127 105.232 312.073 113.179C309.347 120.292 289.768 130.11 319.084 130.811C329.225 131.054 335.946 131.456 341.391 133.293C347.676 135.417 355.967 139.537 369.572 142.426C392.866 147.37 418.03 151.615 416.123 154.358C411.159 156.435 411.172 158.514 413.228 161.01C421.71 171.249 477.646 181.85 429.881 192.342C425.557 193.287 420.954 194.437 415.713 195.569C391.214 200.842 378.097 216.938 383.996 227.859C386.36 232.251 398.117 230.368 412.465 227.981C422.51 226.304 433.705 224.173 442.519 223.779C454.392 223.244 450.109 238.374 461.23 236.344C483.104 232.354 504.619 227.456 519.817 220.177C544.15 208.522 530.218 196.696 558.051 188.607C574.217 183.906 588.462 185.435 603.952 189.008C628.903 194.762 657.659 204.286 684.671 200.352C695.839 198.722 706.471 197.485 716.331 196.239C784.329 187.669 791.391 180.788 790.854 169.14C790.671 165.015 789.74 160.172 787.163 155.706C782.673 147.883 777.226 141.397 790.282 136.908C797.52 134.425 806.306 136.245 814.182 134.459C816.963 133.83 819.564 133.039 822.049 132.158C824.553 131.269 826.775 130.263 828.815 129.217C853.713 116.546 837.272 87.6889 877.719 86.7532C924.186 85.6739 917.213 90.539 929.55 86.9833C951.25 80.7393 986.329 80.2298 989.599 68.1371C995.398 46.7128 1038.27 45.4966 1061.75 47.6885C1076.29 49.041 1086 52.5541 1087.7 56.9774C1088.31 58.5607 1089.38 60.0582 1090.69 61.4663C1107.46 79.5828 1186.53 81.8037 1253.96 74.8204C1276.66 72.4464 1302.97 68.5306 1323.01 62.391C1366.6 49.0217 1436.33 53.9946 1439.49 11.6272" stroke="url(#paint18_linear_78_21254)" stroke-miterlimit="10"/>
<path d="M16.8599 92.188C47.6738 80.7656 84.1918 73.9386 117.914 69.7609C171.441 63.1345 232.12 57.7183 223.781 71.6271C216.096 84.4334 212.361 92.6306 220.377 93.8558C239.664 96.8057 279.86 88.0369 295.627 90.8414C297.677 91.2095 300.205 91.5416 302.479 92.2632C317.944 97.1143 318.967 104.024 315.463 112.189C312.36 119.42 294.448 129.093 324.575 129.883C334.467 130.144 340.764 130.71 345.702 132.654C351.489 134.928 358.863 139.119 371.947 141.958C394.255 146.81 418.757 150.715 418.116 153.331C414.059 155.286 414.56 157.263 416.854 159.69C426.191 169.548 477.004 180.199 432.231 190.646C428.073 191.617 423.693 192.791 418.696 193.94C395.173 199.366 382.238 214.838 387.894 225.524C390.15 229.766 401.212 228.203 414.87 226.099C424.505 224.615 435.297 222.634 443.864 222.244C455.566 221.706 452.357 235.6 463.32 233.61C484.406 229.799 505.042 225.074 519.718 218.085C544.608 206.234 529.258 194.205 558.425 186.235C575.092 181.679 590.001 183.747 606.004 187.969C631.78 194.76 660.851 205.669 687.559 201.835C698.915 200.203 709.664 198.937 719.566 197.656C789.118 188.639 794.686 180.756 791.962 168.654C790.994 164.371 789.177 159.415 785.966 154.903C780.266 146.873 774.044 140.28 787.225 135.827C794.595 133.336 803.605 135.388 811.681 133.642C814.536 133.027 817.211 132.243 819.732 131.361C822.293 130.472 824.591 129.458 826.705 128.419C852.489 115.725 836.861 86.5086 877.865 85.5952C926.326 84.5092 917.816 89.446 929.665 85.7498C951.137 79.0487 986.656 78.6986 989.464 66.539C994.493 44.742 1037.66 43.7523 1061.13 46.0163C1075.57 47.4134 1085.34 50.9249 1087.68 55.2937C1088.52 56.8587 1089.8 58.3525 1091.28 59.7575C1110.3 77.8263 1187.84 80.9095 1255.27 74.7105C1277.96 72.6028 1304.66 68.905 1325.45 62.8855C1370.27 49.904 1438.85 52.8545 1439.66 10.8033" stroke="url(#paint19_linear_78_21254)" stroke-miterlimit="10"/>
<path d="M19.0553 91.4179C49.6393 79.8764 86.5748 73.0045 120.946 68.8628C173.476 62.5282 236.982 56.3884 228.395 70.4382C220.453 83.4433 217.074 91.5461 224.998 92.8727C244.019 96.0478 285.095 86.4856 301.435 89.0098C303.603 89.3475 306.149 89.6794 308.422 90.408C323.935 95.4216 322.842 102.811 318.868 111.209C315.407 118.556 299.143 128.085 330.08 128.971C339.742 129.25 345.595 129.988 350.046 132.025C355.318 134.449 361.814 138.702 374.338 141.499C395.661 146.252 419.518 149.823 420.141 152.319C416.991 154.152 418 156.028 420.512 158.387C430.683 167.872 476.411 178.579 434.597 188.959C430.586 189.956 426.43 191.148 421.691 192.327C399.162 197.921 386.373 212.756 391.823 223.206C393.954 227.299 404.319 226.061 417.327 224.233C426.553 222.935 436.939 221.119 445.26 220.726C456.773 220.185 454.657 232.836 465.459 230.899C485.742 227.26 505.534 222.715 519.668 216.024C545.096 203.977 528.349 191.738 558.868 183.887C576.018 179.476 591.626 182.09 608.126 186.946C634.726 194.779 664.113 207.065 690.5 203.332C702.043 201.698 712.908 200.403 722.873 199.079C793.981 189.61 797.997 180.733 793.142 168.168C791.372 163.721 788.703 158.673 784.844 154.094C777.934 145.857 770.956 139.163 784.245 134.733C791.747 132.233 800.98 134.524 809.256 132.82C812.183 132.218 814.913 131.44 817.51 130.558C820.125 129.676 822.481 128.654 824.671 127.614C851.359 114.898 836.523 85.3295 878.067 84.4317C928.522 83.3392 918.454 88.3549 929.856 84.5034C951.061 77.346 987.04 77.1549 989.387 64.9285C993.627 42.7523 1037.11 41.9887 1060.57 44.3318C1074.9 45.7664 1084.74 49.2759 1087.72 53.5908C1088.8 55.1442 1090.27 56.6275 1091.92 58.0366C1113.2 76.0579 1189.23 79.9951 1256.65 74.5943C1279.33 72.7527 1306.39 69.2734 1327.97 63.3735C1374.01 50.7798 1441.46 51.7163 1439.89 9.97398" stroke="url(#paint20_linear_78_21254)" stroke-miterlimit="10"/>
<path d="M21.2521 90.6521C51.5863 78.9989 88.9402 72.0751 123.981 67.9621C175.515 61.9119 241.846 55.0563 233.031 69.2468C224.813 82.4507 221.791 90.4521 229.659 91.8793C248.396 95.2799 290.372 84.9175 307.283 87.1689C309.569 87.4762 312.153 87.8075 314.386 88.5509C329.945 93.7268 326.72 101.596 322.295 110.218C318.457 117.683 303.861 127.061 335.607 128.05C345.021 128.34 350.43 129.249 354.392 131.392C359.149 133.966 364.747 138.289 376.75 141.037C397.088 145.697 420.282 148.929 422.188 151.304C419.944 153.023 421.441 154.79 424.21 157.081C435.214 166.201 475.875 176.977 437.02 187.277C433.175 188.299 429.223 189.516 424.746 190.712C403.211 196.465 390.585 210.678 395.812 220.886C397.817 224.822 407.487 223.91 419.824 222.365C428.659 221.259 438.622 219.593 446.697 219.205C458.021 218.66 456.979 230.07 467.64 228.179C487.117 224.719 506.048 220.354 519.662 213.945C545.644 201.71 527.466 189.247 559.336 181.523C576.969 177.249 593.277 180.409 610.271 185.912C637.695 194.787 667.399 208.45 693.483 204.817C705.214 203.181 716.195 201.857 726.204 200.49C798.847 190.569 801.406 180.699 794.347 167.673C791.811 163.067 788.235 157.914 783.745 153.274C775.604 144.845 767.873 138.036 781.287 133.635C788.92 131.135 798.38 133.65 806.854 131.986C809.854 131.398 812.66 130.62 815.292 129.745C817.983 128.861 820.395 127.84 822.66 126.799C850.232 114.068 836.209 84.1404 878.311 83.2579C930.759 82.1592 919.135 87.2464 930.087 83.254C951.009 75.6267 987.482 75.6154 989.351 63.3082C992.785 40.7532 1036.6 40.2224 1060.04 42.6374C1074.29 44.1093 1084.17 47.6246 1087.78 51.8783C1089.09 53.4207 1090.75 54.8934 1092.59 56.2991C1116.12 74.2804 1190.64 79.0709 1258.03 74.4535C1280.7 72.8779 1308.14 69.6095 1330.49 63.8295C1377.75 51.6094 1444.06 50.5474 1440.14 9.11331" stroke="url(#paint21_linear_78_21254)" stroke-miterlimit="10"/>
<path d="M23.446 89.8879C53.549 78.1231 91.3234 71.1333 127.013 67.0638C177.55 61.2978 246.704 53.7348 237.643 68.0587C229.169 81.4536 226.503 89.3607 234.278 90.8891C252.75 94.5145 295.589 83.3464 313.088 85.3321C315.493 85.602 318.095 85.9401 320.306 86.6979C335.895 92.0292 330.573 100.384 325.678 109.238C321.483 116.819 308.537 126.039 341.091 127.131C350.274 127.439 355.222 128.519 358.696 130.755C362.937 133.486 367.657 137.871 379.121 140.57C398.475 145.13 421.006 148.03 424.176 150.285C422.837 151.882 424.823 153.549 427.828 155.771C439.648 164.519 475.276 175.391 439.345 185.591C435.647 186.638 431.937 187.879 427.702 189.099C407.159 195.027 394.698 208.597 399.699 218.576C401.598 222.362 410.571 221.776 422.221 220.506C430.645 219.593 440.205 218.084 448.034 217.693C459.187 217.144 459.218 227.321 469.72 225.47C488.394 222.182 506.481 217.997 519.535 211.884C546.072 199.461 526.464 186.76 559.7 179.184C577.817 175.048 594.823 178.76 612.313 184.904C640.561 194.819 670.561 209.865 696.363 206.324C708.28 204.687 719.379 203.333 729.449 201.924C803.647 191.552 804.71 180.688 795.464 167.208C792.146 162.438 787.68 157.193 782.56 152.493C773.188 143.872 764.724 136.941 778.244 132.569C786.009 130.061 795.693 132.808 804.367 131.185C807.44 130.61 810.3 129.839 813.008 128.963C815.755 128.079 818.242 127.057 820.563 126.016C849.039 113.263 835.808 82.9846 878.468 82.1175C932.908 81.013 919.692 86.1648 930.213 82.0385C950.813 73.9423 987.8 74.1034 989.207 61.7296C991.833 38.8035 1035.98 38.4912 1059.41 40.9853C1073.56 42.4946 1083.51 46.0079 1087.75 50.2149C1089.29 51.739 1091.16 53.2081 1093.17 54.6108C1118.94 72.5449 1191.94 78.1954 1259.34 74.3677C1282.01 73.0579 1309.82 69.9933 1332.94 64.3476C1381.41 52.5013 1446.6 49.435 1440.3 8.30959" stroke="url(#paint22_linear_78_21254)" stroke-miterlimit="10"/>
<path d="M25.6386 89.1141C55.4915 77.238 93.7052 70.182 130.041 66.1632C179.583 60.681 251.559 52.4044 242.27 66.8684C233.54 80.4612 231.211 88.2746 238.931 89.9035C257.138 93.7535 300.838 81.7804 318.927 83.4935C321.451 83.7331 324.072 84.0638 326.279 84.8428C341.897 90.3365 334.48 99.1756 329.117 108.247C324.565 115.945 313.286 125.007 346.629 126.209C355.563 126.536 360.067 127.786 363.074 130.115C366.781 132.995 370.624 137.442 381.566 140.098C399.935 144.566 421.803 147.127 426.256 149.255C425.805 150.73 428.297 152.297 431.54 154.45C444.173 162.834 474.825 173.808 441.764 183.894C438.232 184.967 434.725 186.233 430.751 187.477C411.219 193.571 398.904 206.505 403.662 216.249C405.434 219.887 413.731 219.625 424.712 218.63C432.747 217.902 441.883 216.551 449.466 216.164C460.43 215.612 461.552 224.549 471.913 222.744C489.783 219.634 507.009 215.629 519.543 209.798C546.653 197.187 525.597 184.248 560.18 176.813C578.801 172.807 596.486 177.079 614.472 183.855C643.563 194.818 673.862 211.23 699.342 207.791C711.447 206.152 722.644 204.762 732.776 203.317C808.51 192.488 808.114 180.638 796.664 166.697C792.58 161.769 787.225 156.433 781.457 151.659C770.854 142.852 761.638 135.799 775.283 131.456C783.18 128.94 793.088 131.926 801.962 130.337C805.108 129.775 808.023 129.011 810.806 128.134C813.609 127.25 816.172 126.227 818.568 125.186C847.946 112.419 835.509 81.7749 878.706 80.9308C935.138 79.8206 920.33 85.044 930.44 80.7692C950.681 72.205 988.199 72.5454 989.165 60.0975C990.965 36.8007 1035.47 36.7066 1058.88 39.2796C1072.93 40.8191 1082.96 44.3448 1087.83 48.4909C1089.61 50.0036 1091.65 51.4625 1093.85 52.8619C1121.87 70.7563 1193.36 77.2585 1260.76 74.2131C1283.41 73.169 1311.6 70.3152 1335.49 64.7966C1385.19 53.3236 1449.23 48.262 1440.59 7.44439" stroke="url(#paint23_linear_78_21254)" stroke-miterlimit="10"/>
<path d="M27.8341 88.3502C57.4559 76.3628 96.0709 69.2414 133.073 65.2658C181.603 60.0533 256.342 51.0791 246.882 65.6821C237.802 79.467 235.923 87.1848 243.569 88.9144C261.511 92.9889 306.056 80.1975 324.75 81.6595C327.391 81.8688 330.031 82.1993 332.217 82.9928C347.863 88.6486 338.352 97.9718 332.519 107.268C327.609 115.088 317.983 123.972 352.13 125.299C360.835 125.637 364.857 127.065 367.395 129.492C370.567 132.53 373.553 137.038 383.937 139.645C401.321 144.013 422.525 146.25 428.261 148.251C428.715 149.612 431.696 151.07 435.176 153.155C448.602 161.182 474.315 172.272 444.125 182.223C440.758 183.329 437.475 184.612 433.743 185.873C415.223 192.14 403.034 204.44 407.587 213.942C409.253 217.43 416.854 217.492 427.147 216.773C434.771 216.244 443.506 215.035 450.841 214.66C461.636 214.097 463.829 221.803 474.031 220.044C491.097 217.106 507.479 213.287 519.474 207.745C547.156 194.954 524.673 181.762 560.603 174.475C579.708 170.6 598.09 175.431 616.572 182.846C646.487 194.849 677.102 212.641 702.281 209.294C714.591 207.661 725.887 206.235 736.062 204.748C813.313 193.455 811.478 180.62 797.822 166.232C792.955 161.14 786.71 155.719 780.314 150.87C768.459 141.886 758.53 134.704 772.282 130.383C780.311 127.859 790.425 131.077 799.518 129.527C802.736 128.98 805.725 128.222 808.545 127.345C811.405 126.461 814.042 125.437 816.514 124.388C846.83 111.62 835.15 80.6055 878.905 79.777C937.327 78.6686 920.909 83.9563 930.607 79.5404C950.453 70.502 988.557 71.0278 989.063 58.5063C990.036 34.8392 1034.91 34.9628 1058.29 37.615C1072.24 39.1919 1082.32 42.7159 1087.84 46.8081C1089.86 48.3025 1092.1 49.7578 1094.47 51.1542C1124.76 69.0017 1194.72 76.3623 1262.1 74.0989C1284.72 73.3205 1313.29 70.6632 1337.96 65.2858C1388.88 54.1721 1451.77 47.1238 1440.77 6.62084" stroke="url(#paint24_linear_78_21254)" stroke-miterlimit="10"/>
<path d="M30.015 87.5781C59.3866 75.4797 98.4239 68.2785 136.07 64.3681C183.608 59.4247 261.165 49.7531 251.456 64.5032C242.121 78.4783 240.598 86.1022 248.15 87.9398C265.828 92.2314 311.216 78.637 330.515 79.841C333.275 80.0129 335.951 80.35 338.117 81.1507C353.81 86.9683 342.188 96.768 335.887 106.288C330.62 114.225 322.662 122.936 357.595 124.388C366.072 124.737 369.613 126.336 371.683 128.862C374.301 132.057 376.448 136.626 386.292 139.184C402.692 143.459 423.234 145.357 430.233 147.238C431.591 148.479 435.058 149.844 438.777 151.853C452.996 159.524 473.844 170.742 446.434 180.545C443.25 181.683 440.152 182.991 436.701 184.268C419.189 190.716 407.148 202.368 411.476 211.634C413.036 214.965 419.94 215.367 429.566 214.915C436.8 214.577 445.131 213.525 452.183 213.148C462.788 212.582 466.072 219.05 476.113 217.338C492.377 214.57 507.917 210.93 519.372 205.678C547.626 192.706 523.7 179.248 560.972 172.131C580.58 168.386 599.641 173.775 618.639 181.822C649.396 194.87 680.31 214.035 705.188 210.781C717.684 209.146 729.096 207.691 739.334 206.161C818.121 194.405 814.807 180.593 798.966 165.745C793.335 160.488 786.199 154.989 779.156 150.067C766.069 140.904 755.41 133.586 769.267 129.302C777.427 126.777 787.766 130.218 797.038 128.718C800.329 128.183 803.373 127.432 806.269 126.555C809.203 125.67 811.896 124.646 814.425 123.596C845.642 110.815 834.754 79.4435 879.048 78.631C939.46 77.5176 921.431 82.8766 930.737 78.3192C950.169 68.8003 988.859 69.5186 988.925 56.9161C989.052 32.8794 1034.3 33.2278 1057.67 35.9446C1071.53 37.5585 1081.67 41.0809 1087.82 45.1194C1090.08 46.6026 1092.5 48.0477 1095.06 49.4408C1127.59 67.249 1196.03 75.46 1263.42 73.9847C1286.03 73.4716 1314.98 71.0178 1340.41 65.7748C1392.57 55.02 1454.3 45.9938 1440.95 5.79817" stroke="url(#paint25_linear_78_21254)" stroke-miterlimit="10"/>
<path d="M32.1531 86.9076C61.2976 74.6935 100.743 67.4093 139.056 63.554C185.606 58.8763 266.006 48.5089 256.05 63.3962C246.456 77.5728 245.289 85.0977 252.768 87.0361C270.201 91.552 316.402 77.1286 336.325 78.0883C339.204 78.2229 341.897 78.5668 344.042 79.382C359.744 85.37 346.066 95.6481 339.277 105.388C333.65 113.45 327.363 121.978 363.084 123.554C371.312 123.921 374.392 125.691 376.012 128.316C378.078 131.661 379.367 136.293 388.691 138.809C404.127 142.984 423.988 144.55 432.268 146.313C434.532 147.432 438.486 148.705 442.442 150.639C457.454 157.955 473.473 169.323 448.823 178.962C445.822 180.14 442.929 181.459 439.72 182.754C423.253 189.384 411.338 200.391 415.402 209.432C416.835 212.616 423.121 213.112 432.004 213.163C438.798 213.203 446.759 212.114 453.564 211.74C463.982 211.17 468.336 216.403 478.238 214.737C493.7 212.138 508.399 208.682 519.298 203.717C548.164 190.567 522.777 176.833 561.377 169.875C581.492 166.252 601.249 172.208 620.725 180.895C652.307 194.991 683.541 215.524 708.1 212.368C720.784 210.737 732.297 209.239 742.597 207.673C822.909 195.441 818.155 180.654 800.112 165.343C793.697 159.927 785.672 154.335 778.001 149.337C763.681 140.002 752.29 132.546 766.257 128.282C774.549 125.749 785.113 129.429 794.586 127.961C797.949 127.447 801.07 126.688 804.001 125.817C806.992 124.931 809.744 123.9 812.365 122.856C844.471 110.049 834.395 78.3198 879.249 77.521C941.657 76.4072 921.979 81.8329 930.913 77.1251C949.876 67.1304 989.214 68.0247 988.839 55.352C988.123 30.9392 1033.75 31.5034 1057.1 34.2988C1070.86 35.9499 1081.08 39.4709 1087.86 43.464C1090.35 44.9293 1092.97 46.3783 1095.7 47.7687C1130.38 65.5642 1197.42 74.6014 1264.79 73.9041C1287.4 73.6551 1316.73 71.3958 1342.93 66.2918C1396.3 55.8912 1456.91 44.8826 1441.2 4.9838" stroke="url(#paint26_linear_78_21254)" stroke-miterlimit="10"/>
<path d="M34.1437 86.4978C63.0532 74.1555 102.958 66.7633 141.929 62.9704C187.507 58.5353 270.755 47.4619 260.542 62.5062C250.683 76.8964 249.867 84.3355 257.255 86.3755C274.429 91.1105 321.457 75.8556 342.03 76.5547C345.008 76.6591 347.741 76.9952 349.864 77.8325C365.597 83.9863 349.816 94.7605 342.552 104.735C336.582 112.923 331.942 121.275 368.458 122.986C376.46 123.363 379.04 125.305 380.21 128.032C381.704 131.53 382.171 136.227 390.938 138.702C405.394 142.78 425.333 143.553 434.162 145.656C437.679 146.494 441.773 147.828 445.986 149.696C461.79 156.675 473.077 168.185 451.065 177.672C448.244 178.89 445.556 180.221 442.587 181.542C427.158 188.363 415.344 198.734 419.181 207.549C420.506 210.587 426.038 211.657 434.317 211.731C440.77 211.79 448.265 211.02 454.826 210.649C465.079 210.066 470.502 214.074 480.248 212.451C494.895 210.018 508.777 206.743 519.143 202.052C548.632 188.71 521.783 174.686 561.741 167.884C582.371 164.37 602.809 170.902 622.783 180.234C655.212 195.385 686.746 217.314 711.015 214.236C723.889 212.608 735.524 211.069 745.89 209.458C827.753 196.731 821.562 180.959 801.315 165.181C794.136 159.596 785.219 153.923 776.903 148.839C761.348 139.325 749.207 131.727 763.305 127.486C771.733 124.949 782.524 128.854 792.201 127.424C795.637 126.923 798.814 126.169 801.823 125.296C804.871 124.409 807.699 123.375 810.378 122.33C843.384 109.483 834.128 77.3729 879.555 76.5821C943.974 75.4597 922.638 80.9658 931.224 76.1027C949.708 65.6224 989.719 66.703 988.929 53.9358C987.358 29.1282 1033.41 29.9031 1056.74 32.777C1070.42 34.4647 1080.69 37.9862 1088.1 41.9288C1090.82 43.3771 1093.63 44.8239 1096.55 46.2121C1133.5 63.9814 1199.04 73.8679 1266.43 73.9405C1289.03 73.953 1318.75 71.8831 1345.73 66.9113C1400.36 56.8363 1459.84 43.8364 1441.79 4.2126" stroke="url(#paint27_linear_78_21254)" stroke-miterlimit="10"/>
<path d="M36.1372 86.0966C64.8318 73.6187 105.139 66.1264 144.805 62.4024C189.408 58.2177 275.506 46.4299 265.037 61.6312C254.913 76.2283 254.45 83.5812 261.766 85.7228C278.697 90.6841 326.517 74.5827 347.757 75.0349C350.855 75.1015 353.607 75.4445 355.727 76.2964C371.492 82.6163 353.626 93.8872 345.869 104.09C339.535 112.41 336.582 120.572 373.873 122.426C381.649 122.813 383.73 124.928 384.448 127.762C385.37 131.414 385.014 136.183 393.244 138.611C406.72 142.591 425.697 143.163 436.096 145.008C440.362 145.763 445.082 146.967 449.553 148.76C466.131 155.403 472.756 167.069 453.329 176.388C450.708 177.648 448.204 178.998 445.477 180.331C431.123 187.347 419.374 197.077 422.984 205.665C424.202 208.557 429.038 209.966 436.633 210.306C442.677 210.57 449.774 209.934 456.092 209.566C466.159 208.977 472.673 211.744 482.28 210.178C496.13 207.912 509.175 204.816 519.007 200.408C549.119 186.882 520.809 172.559 562.106 165.922C583.248 162.524 604.407 169.61 624.842 179.596C658.196 195.781 689.952 219.122 713.929 216.13C726.995 214.497 738.751 212.926 749.165 211.269C832.562 198.039 824.932 181.282 802.5 165.037C794.537 159.289 784.748 153.527 775.784 148.365C758.994 138.68 746.123 130.932 760.335 126.707C768.898 124.158 779.916 128.297 789.796 126.905C793.307 126.416 796.54 125.667 799.606 124.793C802.712 123.904 805.616 122.868 808.371 121.82C842.296 108.942 833.823 76.443 879.824 75.6602C946.254 74.5289 923.261 80.1158 931.479 75.0975C949.464 64.1315 990.17 65.391 988.943 52.5368C986.517 27.3414 1033 28.2985 1056.29 31.2725C1069.88 32.9829 1080.23 36.5116 1088.25 40.4111C1091.22 41.8492 1094.22 43.2866 1097.31 44.6728C1136.53 62.4082 1200.54 73.1529 1267.95 74.0036C1290.55 74.2779 1320.66 72.3977 1348.41 67.5582C1404.3 57.8161 1462.66 42.8229 1442.24 3.46813" stroke="url(#paint28_linear_78_21254)" stroke-miterlimit="10"/>
<path d="M38.1287 85.6906C66.5882 73.0844 107.34 65.4699 147.679 61.8223C191.309 57.8814 280.257 45.3921 269.551 60.7434C259.161 75.5545 259.052 82.8139 266.276 85.0576C282.967 90.2383 331.579 73.2966 353.467 73.5016C356.685 73.5305 359.455 73.8803 361.554 74.7472C377.33 81.2408 357.397 93.009 349.146 103.441C342.468 111.894 341.168 119.849 379.251 121.86C386.8 122.258 388.383 124.538 388.668 127.481C389.018 131.279 387.839 136.122 395.529 138.515C408.043 142.397 426.135 142.761 438.027 144.362C443.097 145.047 448.406 146.114 453.117 147.826C470.487 154.138 472.546 165.945 455.61 175.098C453.208 176.398 450.89 177.761 448.384 179.12C435.107 186.326 423.44 195.426 426.786 203.781C427.878 206.519 432.033 208.289 438.948 208.875C444.581 209.352 451.282 208.842 457.355 208.477C467.238 207.875 474.824 209.414 484.294 207.89C497.348 205.784 509.572 202.884 518.853 198.744C549.626 185.032 519.817 170.405 562.472 163.931C584.147 160.643 605.967 168.314 626.901 178.938C661.063 196.188 693.157 220.914 716.824 218.009C730.1 216.377 741.942 214.76 752.44 213.064C837.371 199.33 828.322 181.593 803.665 164.881C794.938 158.964 784.256 153.127 774.646 147.873C756.619 138.017 743.035 130.127 757.344 125.91C766.059 123.363 777.287 127.729 787.369 126.375C790.935 125.899 794.263 125.155 797.388 124.272C800.57 123.381 803.532 122.343 806.345 121.294C841.171 108.375 833.515 75.5162 880.092 74.7198C948.51 73.6226 923.845 79.2551 931.754 74.0664C949.202 62.6219 990.641 64.0528 988.979 51.1045C985.678 25.5214 1032.59 26.6896 1055.87 29.7348C1069.38 31.4891 1079.79 35.0111 1088.44 38.867C1091.64 40.2879 1094.85 41.7227 1098.11 43.1069C1139.6 60.8079 1202.11 72.4118 1269.53 74.0346C1292.13 74.5711 1322.61 72.874 1351.15 68.1736C1408.32 58.7503 1465.54 41.7689 1442.78 2.68392" stroke="url(#paint29_linear_78_21254)" stroke-miterlimit="10"/>
<path d="M40.122 85.2764C68.3652 72.5418 109.543 64.798 150.555 61.2413C191.566 57.6846 285.029 44.3455 274.047 59.8544C263.391 74.8798 263.637 82.0383 270.787 84.3981C287.256 89.7911 336.622 72.0088 359.196 71.9729C362.515 71.9642 365.322 72.3206 367.42 73.1949C383.187 79.8699 361.208 92.1217 352.444 102.783C345.402 111.369 345.796 119.11 384.651 121.278C391.974 121.686 393.056 124.14 392.89 127.185C392.669 131.13 390.666 136.045 397.798 138.398C409.351 142.175 426.634 142.321 439.943 143.693C445.856 144.301 451.697 145.232 456.667 146.868C474.83 152.849 472.396 164.791 457.857 173.792C455.692 175.133 453.522 176.509 451.258 177.886C439.076 185.288 427.513 193.736 430.573 201.879C431.577 204.47 434.976 206.595 441.267 207.426C446.469 208.116 452.791 207.74 458.62 207.378C468.337 206.763 476.997 207.065 486.31 205.592C498.566 203.652 509.952 200.934 518.698 197.078C550.149 183.193 518.825 168.241 562.819 161.939C585.027 158.759 607.488 167.016 628.941 178.28C663.93 196.596 696.342 222.714 719.717 219.888C733.185 218.258 745.131 216.595 755.694 214.86C842.114 200.559 831.691 181.905 804.829 164.719C795.319 158.633 783.762 152.721 773.507 147.374C754.262 137.347 739.91 129.308 754.33 125.114C763.182 122.556 774.636 127.155 784.922 125.839C788.562 125.375 791.946 124.637 795.147 123.752C798.387 122.859 801.426 121.82 804.315 120.768C840.042 107.81 833.21 74.554 880.34 73.7802C950.773 72.6592 924.426 78.3949 932.007 73.0431C948.898 61.1201 991.089 62.7223 988.991 49.687C984.815 23.7163 1032.15 25.0957 1055.43 28.2123C1068.84 30.0038 1079.32 33.5188 1088.61 37.3308C1092.05 38.7341 1095.43 40.167 1098.88 41.5488C1142.65 59.222 1203.64 71.6793 1271.08 74.0753C1293.67 74.8747 1324.57 73.3599 1353.87 68.7994C1412.3 59.7027 1468.39 40.7307 1443.27 1.91709" stroke="url(#paint30_linear_78_21254)" stroke-miterlimit="10"/>
<path d="M42.115 84.8699C70.1226 72.0073 111.747 64.1269 153.431 60.6612C195.114 57.1955 289.782 43.307 278.545 58.966C238.887 114.274 351.083 62.0568 373.27 71.6425C401.719 83.9384 300.939 115.449 390.069 120.711C406.334 121.672 388.411 134.213 400.103 138.296C415.557 143.685 443.744 140.987 460.254 145.917C479.209 151.573 472.42 163.612 460.14 172.492C447.88 181.372 431.034 190.609 434.399 199.981C435.276 202.425 437.937 204.906 443.604 205.982C448.376 206.887 454.319 206.637 459.904 206.278C481.329 204.893 503.783 201.856 518.563 195.402C550.728 181.353 517.873 166.061 563.203 159.944C623.001 151.866 685.388 226.188 722.649 221.763C965.026 192.972 704.547 137.732 751.39 124.318C760.359 121.749 772.058 126.582 782.547 125.304C790.054 124.387 796.449 122.329 802.339 120.244C838.966 107.254 832.958 73.6006 880.66 72.8419C953.11 71.697 925.061 77.5365 932.313 72.0216C948.627 59.6273 991.572 61.4008 989.057 48.2714C984.005 21.913 1031.77 23.497 1055.04 26.6922C1073.27 29.1943 1086.3 34.8643 1099.71 39.9998C1145.75 57.6373 1205.22 70.9568 1272.67 74.1342C1340.12 77.3044 1485.1 59.1154 1443.81 1.1691" stroke="url(#paint31_linear_78_21254)" stroke-miterlimit="10"/>
<defs>
<linearGradient id="paint0_linear_78_21254" x1="-36.2178" y1="172.062" x2="1372.55" y2="408.201" gradientUnits="userSpaceOnUse">
<stop stop-color="#FFFAF5" stop-opacity="0"/>
<stop offset="0.23" stop-color="#FB8500"/>
<stop offset="0.83" stop-color="#FB8500"/>
<stop offset="1" stop-color="#FFFAF5" stop-opacity="0"/>
</linearGradient>
<linearGradient id="paint1_linear_78_21254" x1="-33.8621" y1="170.218" x2="1373.06" y2="405.929" gradientUnits="userSpaceOnUse">
<stop stop-color="#FFFAF5" stop-opacity="0"/>
<stop offset="0.23" stop-color="#FB8500"/>
<stop offset="0.83" stop-color="#FB8500"/>
<stop offset="1" stop-color="#FFFAF5" stop-opacity="0"/>
</linearGradient>
<linearGradient id="paint2_linear_78_21254" x1="-31.4842" y1="168.376" x2="1373.55" y2="403.648" gradientUnits="userSpaceOnUse">
<stop stop-color="#FFFAF5" stop-opacity="0"/>
<stop offset="0.23" stop-color="#FB8500"/>
<stop offset="0.83" stop-color="#FB8500"/>
<stop offset="1" stop-color="#FFFAF5" stop-opacity="0"/>
</linearGradient>
<linearGradient id="paint3_linear_78_21254" x1="-29.1277" y1="166.54" x2="1374.04" y2="401.378" gradientUnits="userSpaceOnUse">
<stop stop-color="#FFFAF5" stop-opacity="0"/>
<stop offset="0.23" stop-color="#FB8500"/>
<stop offset="0.83" stop-color="#FB8500"/>
<stop offset="1" stop-color="#FFFAF5" stop-opacity="0"/>
</linearGradient>
<linearGradient id="paint4_linear_78_21254" x1="-26.7516" y1="164.692" x2="1374.53" y2="399.091" gradientUnits="userSpaceOnUse">
<stop stop-color="#FFFAF5" stop-opacity="0"/>
<stop offset="0.23" stop-color="#FB8500"/>
<stop offset="0.83" stop-color="#FB8500"/>
<stop offset="1" stop-color="#FFFAF5" stop-opacity="0"/>
</linearGradient>
<linearGradient id="paint5_linear_78_21254" x1="-24.3926" y1="162.848" x2="1375.02" y2="396.812" gradientUnits="userSpaceOnUse">
<stop stop-color="#FFFAF5" stop-opacity="0"/>
<stop offset="0.23" stop-color="#FB8500"/>
<stop offset="0.83" stop-color="#FB8500"/>
<stop offset="1" stop-color="#FFFAF5" stop-opacity="0"/>
</linearGradient>
<linearGradient id="paint6_linear_78_21254" x1="-22.0174" y1="161.012" x2="1375.53" y2="394.539" gradientUnits="userSpaceOnUse">
<stop stop-color="#FFFAF5" stop-opacity="0"/>
<stop offset="0.23" stop-color="#FB8500"/>
<stop offset="0.83" stop-color="#FB8500"/>
<stop offset="1" stop-color="#FFFAF5" stop-opacity="0"/>
</linearGradient>
<linearGradient id="paint7_linear_78_21254" x1="-19.6576" y1="159.168" x2="1376.03" y2="392.256" gradientUnits="userSpaceOnUse">
<stop stop-color="#FFFAF5" stop-opacity="0"/>
<stop offset="0.23" stop-color="#FB8500"/>
<stop offset="0.83" stop-color="#FB8500"/>
<stop offset="1" stop-color="#FFFAF5" stop-opacity="0"/>
</linearGradient>
<linearGradient id="paint8_linear_78_21254" x1="-17.284" y1="157.326" x2="1376.52" y2="389.974" gradientUnits="userSpaceOnUse">
<stop stop-color="#FFFAF5" stop-opacity="0"/>
<stop offset="0.23" stop-color="#FB8500"/>
<stop offset="0.83" stop-color="#FB8500"/>
<stop offset="1" stop-color="#FFFAF5" stop-opacity="0"/>
</linearGradient>
<linearGradient id="paint9_linear_78_21254" x1="-14.9267" y1="155.482" x2="1377.01" y2="387.691" gradientUnits="userSpaceOnUse">
<stop stop-color="#FFFAF5" stop-opacity="0"/>
<stop offset="0.23" stop-color="#FB8500"/>
<stop offset="0.83" stop-color="#FB8500"/>
<stop offset="1" stop-color="#FFFAF5" stop-opacity="0"/>
</linearGradient>
<linearGradient id="paint10_linear_78_21254" x1="-12.5472" y1="153.644" x2="1377.5" y2="385.409" gradientUnits="userSpaceOnUse">
<stop stop-color="#FFFAF5" stop-opacity="0"/>
<stop offset="0.23" stop-color="#FB8500"/>
<stop offset="0.83" stop-color="#FB8500"/>
<stop offset="1" stop-color="#FFFAF5" stop-opacity="0"/>
</linearGradient>
<linearGradient id="paint11_linear_78_21254" x1="-10.1914" y1="151.795" x2="1377.99" y2="383.116" gradientUnits="userSpaceOnUse">
<stop stop-color="#FFFAF5" stop-opacity="0"/>
<stop offset="0.23" stop-color="#FB8500"/>
<stop offset="0.83" stop-color="#FB8500"/>
<stop offset="1" stop-color="#FFFAF5" stop-opacity="0"/>
</linearGradient>
<linearGradient id="paint12_linear_78_21254" x1="-7.81305" y1="149.959" x2="1378.49" y2="380.835" gradientUnits="userSpaceOnUse">
<stop stop-color="#FFFAF5" stop-opacity="0"/>
<stop offset="0.23" stop-color="#FB8500"/>
<stop offset="0.83" stop-color="#FB8500"/>
<stop offset="1" stop-color="#FFFAF5" stop-opacity="0"/>
</linearGradient>
<linearGradient id="paint13_linear_78_21254" x1="-5.44987" y1="148.111" x2="1378.99" y2="378.545" gradientUnits="userSpaceOnUse">
<stop stop-color="#FFFAF5" stop-opacity="0"/>
<stop offset="0.23" stop-color="#FB8500"/>
<stop offset="0.83" stop-color="#FB8500"/>
<stop offset="1" stop-color="#FFFAF5" stop-opacity="0"/>
</linearGradient>
<linearGradient id="paint14_linear_78_21254" x1="-3.09381" y1="146.274" x2="1379.47" y2="376.26" gradientUnits="userSpaceOnUse">
<stop stop-color="#FFFAF5" stop-opacity="0"/>
<stop offset="0.23" stop-color="#FB8500"/>
<stop offset="0.83" stop-color="#FB8500"/>
<stop offset="1" stop-color="#FFFAF5" stop-opacity="0"/>
</linearGradient>
<linearGradient id="paint15_linear_78_21254" x1="-0.716647" y1="144.432" x2="1379.97" y2="373.972" gradientUnits="userSpaceOnUse">
<stop stop-color="#FFFAF5" stop-opacity="0"/>
<stop offset="0.23" stop-color="#FB8500"/>
<stop offset="0.83" stop-color="#FB8500"/>
<stop offset="1" stop-color="#FFFAF5" stop-opacity="0"/>
</linearGradient>
<linearGradient id="paint16_linear_78_21254" x1="1.64173" y1="142.586" x2="1380.46" y2="371.678" gradientUnits="userSpaceOnUse">
<stop stop-color="#FFFAF5" stop-opacity="0"/>
<stop offset="0.23" stop-color="#FB8500"/>
<stop offset="0.83" stop-color="#FB8500"/>
<stop offset="1" stop-color="#FFFAF5" stop-opacity="0"/>
</linearGradient>
<linearGradient id="paint17_linear_78_21254" x1="4.02017" y1="140.738" x2="1380.99" y2="369.387" gradientUnits="userSpaceOnUse">
<stop stop-color="#FFFAF5" stop-opacity="0"/>
<stop offset="0.23" stop-color="#FB8500"/>
<stop offset="0.83" stop-color="#FB8500"/>
<stop offset="1" stop-color="#FFFAF5" stop-opacity="0"/>
</linearGradient>
<linearGradient id="paint18_linear_78_21254" x1="6.37969" y1="138.893" x2="1381.59" y2="367.109" gradientUnits="userSpaceOnUse">
<stop stop-color="#FFFAF5" stop-opacity="0"/>
<stop offset="0.23" stop-color="#FB8500"/>
<stop offset="0.83" stop-color="#FB8500"/>
<stop offset="1" stop-color="#FFFAF5" stop-opacity="0"/>
</linearGradient>
<linearGradient id="paint19_linear_78_21254" x1="8.76105" y1="137.044" x2="1382.33" y2="364.841" gradientUnits="userSpaceOnUse">
<stop stop-color="#FFFAF5" stop-opacity="0"/>
<stop offset="0.23" stop-color="#FB8500"/>
<stop offset="0.83" stop-color="#FB8500"/>
<stop offset="1" stop-color="#FFFAF5" stop-opacity="0"/>
</linearGradient>
<linearGradient id="paint20_linear_78_21254" x1="11.1207" y1="135.198" x2="1383.15" y2="362.593" gradientUnits="userSpaceOnUse">
<stop stop-color="#FFFAF5" stop-opacity="0"/>
<stop offset="0.23" stop-color="#FB8500"/>
<stop offset="0.83" stop-color="#FB8500"/>
<stop offset="1" stop-color="#FFFAF5" stop-opacity="0"/>
</linearGradient>
<linearGradient id="paint21_linear_78_21254" x1="13.5016" y1="133.35" x2="1384.06" y2="360.354" gradientUnits="userSpaceOnUse">
<stop stop-color="#FFFAF5" stop-opacity="0"/>
<stop offset="0.23" stop-color="#FB8500"/>
<stop offset="0.83" stop-color="#FB8500"/>
<stop offset="1" stop-color="#FFFAF5" stop-opacity="0"/>
</linearGradient>
<linearGradient id="paint22_linear_78_21254" x1="15.8795" y1="131.504" x2="1385.08" y2="358.129" gradientUnits="userSpaceOnUse">
<stop stop-color="#FFFAF5" stop-opacity="0"/>
<stop offset="0.23" stop-color="#FB8500"/>
<stop offset="0.83" stop-color="#FB8500"/>
<stop offset="1" stop-color="#FFFAF5" stop-opacity="0"/>
</linearGradient>
<linearGradient id="paint23_linear_78_21254" x1="18.2355" y1="129.656" x2="1386.19" y2="355.922" gradientUnits="userSpaceOnUse">
<stop stop-color="#FFFAF5" stop-opacity="0"/>
<stop offset="0.23" stop-color="#FB8500"/>
<stop offset="0.83" stop-color="#FB8500"/>
<stop offset="1" stop-color="#FFFAF5" stop-opacity="0"/>
</linearGradient>
<linearGradient id="paint24_linear_78_21254" x1="20.6132" y1="127.819" x2="1387.41" y2="353.737" gradientUnits="userSpaceOnUse">
<stop stop-color="#FFFAF5" stop-opacity="0"/>
<stop offset="0.23" stop-color="#FB8500"/>
<stop offset="0.83" stop-color="#FB8500"/>
<stop offset="1" stop-color="#FFFAF5" stop-opacity="0"/>
</linearGradient>
<linearGradient id="paint25_linear_78_21254" x1="22.9748" y1="125.981" x2="1388.7" y2="351.564" gradientUnits="userSpaceOnUse">
<stop stop-color="#FFFAF5" stop-opacity="0"/>
<stop offset="0.23" stop-color="#FB8500"/>
<stop offset="0.83" stop-color="#FB8500"/>
<stop offset="1" stop-color="#FFFAF5" stop-opacity="0"/>
</linearGradient>
<linearGradient id="paint26_linear_78_21254" x1="25.2001" y1="124.791" x2="1390.02" y2="350.175" gradientUnits="userSpaceOnUse">
<stop stop-color="#FFFAF5" stop-opacity="0"/>
<stop offset="0.23" stop-color="#FB8500"/>
<stop offset="0.83" stop-color="#FB8500"/>
<stop offset="1" stop-color="#FFFAF5" stop-opacity="0"/>
</linearGradient>
<linearGradient id="paint27_linear_78_21254" x1="26.9901" y1="125.436" x2="1391.22" y2="350.984" gradientUnits="userSpaceOnUse">
<stop stop-color="#FFFAF5" stop-opacity="0"/>
<stop offset="0.23" stop-color="#FB8500"/>
<stop offset="0.83" stop-color="#FB8500"/>
<stop offset="1" stop-color="#FFFAF5" stop-opacity="0"/>
</linearGradient>
<linearGradient id="paint28_linear_78_21254" x1="28.8025" y1="126.083" x2="1392.52" y2="351.805" gradientUnits="userSpaceOnUse">
<stop stop-color="#FFFAF5" stop-opacity="0"/>
<stop offset="0.23" stop-color="#FB8500"/>
<stop offset="0.83" stop-color="#FB8500"/>
<stop offset="1" stop-color="#FFFAF5" stop-opacity="0"/>
</linearGradient>
<linearGradient id="paint29_linear_78_21254" x1="30.5936" y1="126.727" x2="1393.89" y2="352.634" gradientUnits="userSpaceOnUse">
<stop stop-color="#FFFAF5" stop-opacity="0"/>
<stop offset="0.23" stop-color="#FB8500"/>
<stop offset="0.83" stop-color="#FB8500"/>
<stop offset="1" stop-color="#FFFAF5" stop-opacity="0"/>
</linearGradient>
<linearGradient id="paint30_linear_78_21254" x1="32.4039" y1="127.37" x2="1395.34" y2="353.466" gradientUnits="userSpaceOnUse">
<stop stop-color="#FFFAF5" stop-opacity="0"/>
<stop offset="0.23" stop-color="#FB8500"/>
<stop offset="0.83" stop-color="#FB8500"/>
<stop offset="1" stop-color="#FFFAF5" stop-opacity="0"/>
</linearGradient>
<linearGradient id="paint31_linear_78_21254" x1="34.1945" y1="128.022" x2="1396.87" y2="354.318" gradientUnits="userSpaceOnUse">
<stop stop-color="#FFFAF5" stop-opacity="0"/>
<stop offset="0.23" stop-color="#FB8500"/>
<stop offset="0.83" stop-color="#FB8500"/>
<stop offset="1" stop-color="#FFFAF5" stop-opacity="0"/>
</linearGradient>
</defs>
</svg>
