<svg width="1228" height="294" viewBox="0 0 1228 294" fill="none" xmlns="http://www.w3.org/2000/svg">
<path d="M30.9602 106.636C228.655 43.0144 137.552 114.208 157.455 112.597C177.357 110.985 198.574 116.627 199.552 125.87C200.078 130.921 248.892 126.265 252.604 130.835C256.593 135.773 215.537 147.702 227.263 147.277C238.989 146.851 250.71 144.853 262.428 144.572C296.65 143.745 387.353 164.702 355.582 172.536C254.016 197.581 484.683 212.988 339.573 224.559C305.319 227.289 291.823 254.375 299.305 269.588C305.157 281.495 357.261 251.993 384.083 250.937C396.321 250.458 376.027 288.043 387.345 285.235C416.774 277.936 447.539 270.108 467.273 257.349C490.037 242.626 493.774 224.269 504.981 207.311C516.188 190.36 542.704 171.834 579.398 170.232C611.319 168.835 638.482 181.07 670.209 177.667C681.344 176.47 691.632 173.432 700.959 170.025C718.786 163.516 734.17 155.434 745.863 146.429C760.529 135.144 729.37 109.413 756.139 107.655C774.635 106.445 830.84 116.903 850.795 97.1107C875.756 72.3478 949.137 74.2925 928.517 87.6295C875.777 121.732 1058.12 87.1438 1083.34 53.6015C1099.15 32.5648 1172.89 74.7541 1211.07 26.7525" stroke="url(#paint0_linear_78_21254)" stroke-miterlimit="10"/>
<path d="M32.7444 105.877C61.3165 96.5036 84.3677 90.092 102.614 85.8883C159.79 72.711 168.053 81.6592 164.694 93.0472C161.94 102.284 153.71 112.127 161.228 111.615C180.908 110.239 202.55 115.119 204.314 124.027C204.462 124.813 205.852 125.359 208.01 125.768C219.5 127.939 252.526 125.811 255.377 129.866C258.931 134.948 219.346 146.756 231.734 146.375C243.264 146.026 254.619 144.115 265.935 143.957C277.893 143.786 296.925 146.429 315.177 150.128C347.373 156.652 376.504 166.684 357.24 171.533C340.739 175.686 333.49 179.538 332.109 183.191C325.832 199.82 441.87 211.496 362.244 220.931C356.543 221.606 349.851 222.288 342.048 222.956C308.594 225.846 295.249 252.295 302.541 267.271C305.944 274.237 325.382 266.894 346.104 259.618C360.088 254.725 374.648 249.85 385.229 249.434C397.313 248.952 377.942 285.278 389.129 282.517C417.901 275.401 447.89 267.729 467.267 255.283C480.032 247.085 485.953 237.856 492.151 228.614C497.306 220.929 501.169 213.414 506.704 206.296C516.331 193.747 535.402 180.454 561.3 174.53C567.834 173.033 574.755 172.067 582.009 171.683C615.202 169.939 641.188 181.054 671.158 177.187C681.661 175.832 691.392 172.749 700.05 169.228C710.274 165.072 719.533 160.283 728.466 155.249C732.637 152.911 736.632 150.719 740.319 148.261C741.6 147.403 742.853 146.53 744.049 145.637C745.242 144.759 746.16 143.786 746.861 142.745C755.09 130.454 731.191 107.999 756.332 106.49C766.425 105.883 781.517 108.017 798.361 108.063C818.451 108.114 840.455 106.31 850.762 95.492C865.102 80.4499 897.02 75.3656 916.153 76.3408C929.227 77.0012 936.442 80.5442 928.567 85.9153C925.911 87.7423 923.912 89.3692 922.52 90.8187C904.213 109.767 989.565 97.2379 1044.63 76.8105C1063.3 69.8849 1078.77 62.0122 1085.34 54.0836C1102.39 33.4737 1175 73.5882 1211.26 25.8931" stroke="url(#paint1_linear_78_21254)" stroke-miterlimit="10"/>
<path d="M34.53 105.128C62.9189 95.6405 86.349 89.2243 105.084 84.9986C161.571 72.2728 172.02 80.3277 168.455 91.8597C165.488 101.291 157.547 111.053 164.989 110.63C184.441 109.519 206.529 113.606 209.048 122.181C209.277 122.937 210.698 123.475 212.853 123.905C224.411 126.211 255.565 124.618 258.123 128.886C261.259 134.104 223.116 145.971 236.179 145.462C247.525 145.017 258.516 143.373 269.431 143.332C280.971 143.292 299.285 146.028 317.1 149.686C348.501 156.111 377.131 165.835 358.884 170.532C343.133 174.582 336.286 178.309 335.084 181.892C329.599 198.156 441.442 209.697 364.183 219.249C358.618 219.936 352.09 220.642 344.512 221.341C311.866 224.341 298.664 250.205 305.78 264.95C309.086 271.758 327.949 264.753 348.135 257.764C361.781 253.067 376.009 248.351 386.391 247.933C398.322 247.447 379.874 282.516 390.93 279.802C419.06 272.867 448.259 265.351 467.261 253.227C480.438 244.823 485.531 235.434 492.539 226.265C498.289 218.757 502.553 211.775 508.412 205.291C518.76 193.83 537.935 181.86 563.61 176.073C570.282 174.567 577.309 173.599 584.618 173.157C619.083 171.06 643.906 181.055 672.102 176.739C681.991 175.218 691.15 172.083 699.139 168.455C708.608 164.152 716.995 159.189 726.058 154.19C730.321 151.843 734.505 149.893 738.355 147.468C739.694 146.623 740.993 145.75 742.248 144.864C743.487 143.985 744.466 143.01 745.213 141.969C754.16 129.654 730.941 106.774 756.523 105.344C768.222 104.691 781.989 107.376 798.545 106.84C818.456 106.192 840.923 104.805 850.755 93.8991C864.633 78.4985 896.637 73.6166 915.755 74.6717C928.745 75.3702 935.977 78.9049 928.659 84.2269C926.174 86.0353 924.358 87.6579 923.105 89.1041C906.636 108.009 990.726 96.3455 1045.77 76.7099C1064.42 70.0533 1080.28 62.4128 1087.37 54.5909C1105.65 34.4084 1177.16 72.4413 1211.5 25.0671" stroke="url(#paint2_linear_78_21254)" stroke-miterlimit="10"/>
<path d="M36.3162 104.37C64.522 94.7684 88.3321 88.3406 107.554 84.1073C163.325 71.8117 175.984 79.0022 172.216 90.6709C169.034 100.305 161.367 109.979 168.763 109.65C187.975 108.789 210.535 112.107 213.81 120.34C214.103 121.073 215.588 121.596 217.709 122.048C229.319 124.496 258.604 123.424 260.897 127.912C263.632 133.258 226.915 145.097 240.652 144.554C251.815 144.107 262.427 142.63 272.939 142.719C284.045 142.81 301.642 145.64 319.022 149.249C349.627 155.582 377.757 164.992 360.512 169.537C345.524 173.491 339.079 177.093 338.042 180.601C333.334 196.492 440.997 207.912 366.103 217.581C360.674 218.279 354.325 219.017 346.941 219.747C315.115 222.879 302.028 248.143 308.985 262.644C312.209 269.301 330.442 262.598 350.119 255.917C363.399 251.402 377.324 246.852 387.506 246.438C399.301 245.942 381.757 279.768 392.699 277.094C420.172 270.341 448.611 262.981 467.24 251.17C480.831 242.552 485.063 233.019 492.926 223.922C499.256 216.592 503.89 210.142 510.118 204.292C521.142 193.919 540.467 183.277 565.92 177.62C572.745 176.105 579.864 175.129 587.211 174.629C622.966 172.163 646.608 181.062 673.032 176.281C682.291 174.602 690.925 171.408 698.214 167.674C706.947 163.208 714.46 158.085 723.636 153.129C728.008 150.767 732.366 149.057 736.376 146.674C737.774 145.842 739.117 144.975 740.418 144.088C741.717 143.208 742.743 142.234 743.55 141.191C753.23 128.858 730.657 105.562 756.684 104.197C770.004 103.498 782.522 106.552 798.685 105.609C818.355 104.458 841.334 103.284 850.69 92.2987C864.089 76.5403 896.194 71.8675 915.298 72.9953C928.205 73.7318 935.466 77.2652 928.69 82.5384C926.391 84.328 924.728 85.9541 923.627 87.3967C908.998 106.25 991.811 95.4602 1046.82 76.6232C1065.46 70.2352 1081.71 62.834 1089.33 55.1118C1108.81 35.3639 1179.24 71.3162 1211.65 24.2555" stroke="url(#paint3_linear_78_21254)" stroke-miterlimit="10"/>
<path d="M38.085 103.615C66.0925 93.8999 90.2977 87.4602 110.007 83.2123C165.064 71.3393 179.994 77.6651 175.975 89.4784C172.625 99.3133 165.203 108.893 172.522 108.66C191.508 108.048 214.524 110.604 218.557 118.483C218.915 119.193 220.462 119.707 222.565 120.173C234.227 122.764 261.674 122.211 263.672 126.926C266.005 132.401 230.713 144.213 245.126 143.628C256.089 143.185 266.339 141.867 276.45 142.08C287.137 142.302 304.018 145.218 320.961 148.785C350.771 155.026 378.402 164.116 362.172 168.516C347.949 172.366 341.906 175.844 341.032 179.283C337.117 194.801 440.569 206.107 368.072 215.886C362.778 216.602 356.593 217.365 349.419 218.119C318.398 221.383 305.456 246.041 312.223 260.304C315.35 266.81 333.011 260.431 352.151 254.036C365.08 249.709 378.687 245.326 388.67 244.91C400.312 244.41 383.688 276.995 394.502 274.353C421.345 267.803 449.013 260.576 467.252 249.086C481.255 240.263 484.611 230.579 493.331 221.546C500.224 214.401 505.244 208.484 511.844 203.252C523.545 193.966 543.018 184.653 568.234 179.125C575.197 177.601 582.438 176.623 589.825 176.058C626.869 173.226 649.315 181.028 673.981 175.791C682.626 173.946 690.706 170.685 697.307 166.866C705.304 162.23 711.956 156.961 721.234 152.034C725.698 149.664 730.246 148.188 734.416 145.845C735.873 145.027 737.276 144.167 738.622 143.279C739.967 142.399 741.039 141.416 741.907 140.38C752.304 128.023 730.406 104.332 756.878 103.017C771.819 102.272 783.11 105.092 798.873 104.352C818.319 103.436 841.791 101.745 850.672 90.6725C863.596 74.5419 895.794 70.1142 914.889 71.2931C927.708 72.0891 935.004 75.5925 928.771 80.8169C926.657 82.5949 925.163 84.2099 924.2 85.6492C911.483 104.465 992.961 94.534 1047.95 76.488C1066.57 70.3686 1083.2 63.1994 1091.36 55.5841C1112.03 36.2711 1181.38 70.1364 1211.88 23.3958" stroke="url(#paint4_linear_78_21254)" stroke-miterlimit="10"/>
<path d="M39.8717 102.861C67.6972 93.0251 92.2659 86.5813 112.477 82.3257C166.806 70.8681 183.973 76.3448 179.735 88.295C176.171 98.3318 169.015 107.874 176.296 107.678C195.066 107.172 218.559 109.116 223.319 116.642C223.757 117.328 225.337 117.827 227.422 118.309C239.136 121.041 264.73 121.008 266.449 125.942C268.395 131.545 234.516 143.316 249.601 142.712C260.377 142.28 270.266 141.121 279.975 141.457C290.245 141.81 306.393 144.819 322.916 148.337C351.932 154.479 379.062 163.262 363.849 167.503C350.39 171.258 344.749 174.604 344.039 177.974C340.901 193.121 440.156 204.319 370.042 214.201C364.869 214.928 358.877 215.723 351.897 216.508C321.679 219.911 308.868 243.963 315.477 257.982C318.506 264.338 335.579 258.281 354.184 252.172C366.775 248.041 380.067 243.809 389.835 243.398C401.34 242.895 385.621 274.224 396.303 271.637C422.504 265.275 449.397 258.204 467.265 247.02C481.68 237.991 484.143 228.17 493.753 219.187C501.193 212.227 506.629 206.842 513.585 202.235C525.961 194.043 545.585 186.05 570.579 180.652C577.696 179.111 585.028 178.132 592.454 177.51C630.788 174.302 652.052 181.016 674.947 175.316C682.962 173.305 690.52 169.97 696.418 166.066C703.698 161.246 709.471 155.846 718.848 150.955C723.419 148.576 728.142 147.342 732.458 145.032C733.974 144.228 735.421 143.374 736.813 142.486C738.203 141.605 739.336 140.621 740.265 139.585C751.321 127.197 730.155 103.124 757.059 101.853C773.619 101.069 783.656 104.101 799.031 103.111C818.299 101.871 842.221 100.208 850.625 89.0556C863.058 72.5605 895.37 68.3486 914.451 69.6001C927.187 70.4341 934.498 73.9365 928.823 79.1047C926.879 80.8643 925.569 82.475 924.744 83.9111C913.896 102.676 994.082 93.6169 1049.04 76.3612C1067.63 70.5105 1084.65 63.5804 1093.35 56.0644C1115.2 37.1865 1183.48 68.9731 1212.07 22.5449" stroke="url(#paint5_linear_78_21254)" stroke-miterlimit="10"/>
<path d="M41.6583 102.101C69.2854 92.1521 94.249 85.6966 114.947 81.4264C168.536 70.37 187.954 75.0053 183.496 87.0993C179.733 97.3302 172.86 106.735 180.055 106.691C198.578 106.571 222.593 107.624 228.064 114.796C228.567 115.46 230.21 115.943 232.261 116.447C244.028 119.321 267.8 119.799 269.208 124.967C270.769 130.69 238.286 142.428 254.057 141.804C264.633 141.385 274.176 140.377 283.468 140.836C293.335 141.319 308.751 144.422 324.839 147.891C353.06 153.941 379.705 162.41 365.478 166.5C352.782 170.158 347.528 173.374 347.013 176.674C344.651 191.449 439.711 202.54 371.994 212.525C366.955 213.271 361.128 214.09 354.358 214.899C324.945 218.433 312.28 241.879 318.712 255.669C321.658 261.874 338.13 256.14 356.199 250.317C368.438 246.374 381.413 242.309 390.981 241.902C402.333 241.395 387.549 271.477 398.087 268.93C423.629 262.757 449.794 255.84 467.244 244.969C482.07 235.735 483.626 225.778 494.123 216.853C502.096 210.078 507.932 205.231 515.276 201.235C528.31 194.144 548.101 187.47 572.875 182.194C580.145 180.643 587.569 179.649 595.048 178.976C634.687 175.395 654.739 181.013 675.878 174.857C683.278 172.687 690.287 169.258 695.495 165.283C702.059 160.264 706.937 154.741 716.43 149.885C721.093 147.498 726.006 146.497 730.481 144.236C732.055 143.444 733.562 142.597 735 141.708C736.436 140.827 737.63 139.843 738.604 138.805C750.378 126.393 729.883 101.941 757.235 100.705C775.398 99.8903 784.214 103.118 799.201 101.879C818.308 100.307 842.646 98.6874 850.59 87.4554C862.532 70.589 894.957 66.6001 914.025 67.9241C926.676 68.8032 934.018 72.2971 928.886 77.4095C927.127 79.1576 925.987 80.7572 925.299 82.19C916.304 100.904 995.199 92.7166 1050.13 76.2581C1068.71 70.6758 1086.09 63.985 1095.34 56.5684C1118.34 38.1261 1185.59 67.8343 1212.26 21.7184" stroke="url(#paint6_linear_78_21254)" stroke-miterlimit="10"/>
<path d="M43.4453 101.347C70.8893 91.2847 96.2172 84.8182 117.403 80.5336C170.238 69.8641 191.917 73.6801 187.256 85.9101C183.279 96.3425 176.68 105.659 183.83 105.703C202.114 105.825 226.657 106.138 232.825 112.95C233.406 113.598 235.082 114.066 237.131 114.584C248.965 117.6 270.887 118.589 271.999 123.983C273.207 129.827 242.104 141.524 258.546 140.888C268.936 140.48 278.102 139.631 286.993 140.213C296.442 140.827 311.141 144.022 326.778 147.443C354.205 153.401 380.366 161.548 367.138 165.495C355.205 169.058 350.354 172.142 350.002 175.373C348.419 189.77 439.281 200.767 373.947 210.848C369.044 211.605 363.38 212.456 356.819 213.296C328.209 216.97 315.675 239.803 321.933 253.355C324.783 259.403 340.667 253.992 358.216 248.461C370.118 244.706 382.759 240.814 392.13 240.398C403.341 239.902 389.464 268.723 399.872 266.215C424.773 260.223 450.177 253.476 467.241 242.904C482.479 233.465 483.112 223.371 494.528 214.496C503.004 207.907 509.27 203.598 517 200.219C530.661 194.243 550.666 188.872 575.189 183.718C582.597 182.159 590.128 181.156 597.646 180.426C638.577 176.456 657.471 181.023 676.811 174.389C683.596 172.061 690.057 168.529 694.573 164.499C700.423 159.273 704.42 153.641 714.012 148.821C718.782 146.426 723.87 145.658 728.506 143.438C730.139 142.66 731.691 141.812 733.188 140.93C734.685 140.047 735.91 139.063 736.961 138.017C749.452 125.581 729.628 100.749 757.429 99.5498C777.21 98.6964 784.791 102.12 799.388 100.647C818.35 98.728 843.073 97.1598 850.571 85.8547C862.008 68.6103 894.56 64.8511 913.614 66.2477C926.197 67.1644 933.553 70.6645 928.963 75.7212C927.391 77.4506 926.403 79.0466 925.854 80.4761C918.711 99.1395 996.331 91.8227 1051.23 76.154C1069.8 70.8398 1087.54 64.3814 1097.35 57.071C1121.47 39.0719 1187.72 66.688 1212.46 20.8919" stroke="url(#paint7_linear_78_21254)" stroke-miterlimit="10"/>
<path d="M45.2311 100.581C72.4768 90.405 98.1853 83.92 119.871 79.635C171.954 69.3448 195.88 72.3425 191.013 84.7158C186.823 95.3495 180.514 104.571 187.601 104.717C205.661 105.088 230.747 104.653 237.583 111.1C238.244 111.724 239.968 112.177 241.983 112.717C253.868 115.882 273.971 117.373 274.772 123.001C275.611 128.958 245.99 139.991 263.016 139.967C273.159 139.951 282.026 138.88 290.517 139.577C299.563 140.321 313.516 143.603 328.732 146.982C355.365 152.841 381.04 160.682 368.813 164.477C357.644 167.937 353.194 170.898 353.006 174.06C352.2 188.079 438.85 198.989 375.915 209.159C371.147 209.927 365.646 210.81 359.295 211.674C331.473 215.487 319.038 237.723 325.184 251.023C327.92 256.928 343.249 251.831 360.247 246.587C371.798 243.019 384.122 239.286 393.294 238.874C404.352 238.375 391.395 265.943 401.688 263.482C425.932 257.678 450.607 251.084 467.269 240.826C482.933 231.181 482.598 220.953 494.948 212.126C503.909 205.731 510.606 201.959 518.74 199.19C533.012 194.322 553.231 190.26 577.533 185.228C585.094 183.66 592.734 182.641 600.274 181.861C642.498 177.497 660.206 180.998 677.761 173.901C683.916 171.415 689.831 167.766 693.669 163.686C698.793 158.234 701.92 152.513 711.613 147.722C716.476 145.319 721.753 144.791 726.55 142.605C728.241 141.84 729.838 140.999 731.381 140.116C732.923 139.233 734.209 138.248 735.321 137.201C748.53 124.741 729.376 99.5305 757.61 98.3671C779.008 97.4829 785.371 101.088 799.546 99.3877C818.364 97.1224 843.472 95.6057 850.523 84.2275C861.44 66.6055 894.135 63.0756 913.176 64.5375C925.675 65.4993 933.062 68.9908 929 73.9922C927.612 75.7102 926.794 77.2951 926.381 78.7286C921.091 97.3417 997.435 90.8948 1052.3 76.0154C1070.85 70.9693 1088.94 64.7502 1099.31 57.539C1124.55 39.9759 1189.8 65.5153 1212.63 20.0235" stroke="url(#paint8_linear_78_21254)" stroke-miterlimit="10"/>
<path d="M47.0168 99.8251C74.0793 89.536 100.138 83.0332 122.34 78.7406C173.656 68.8225 199.856 71.0165 194.77 83.5332C190.365 94.368 184.332 103.495 191.358 103.735C209.178 104.348 234.852 103.18 242.325 109.262C243.066 109.863 244.822 110.3 246.818 110.862C258.755 114.177 277.054 116.17 277.53 122.024C278.005 127.879 249.785 139.022 267.471 139.057C277.41 139.075 285.934 138.133 294.009 138.954C302.637 139.835 315.874 143.203 330.655 146.532C356.494 152.299 381.701 159.819 370.441 163.472C360.051 166.836 355.973 169.666 355.963 172.759C355.917 186.408 438.371 197.231 377.851 207.482C373.203 208.268 367.897 209.168 361.738 210.071C334.719 214.022 322.415 235.654 328.402 248.71C331.04 254.465 345.783 249.69 362.261 244.73C373.475 241.357 385.468 237.783 394.426 237.369C405.331 236.866 393.293 263.19 403.456 260.768C427.059 255.145 450.989 248.72 467.25 238.76C483.511 228.8 482.006 218.547 495.336 209.777C504.769 203.561 511.894 200.34 520.463 198.173C535.316 194.42 555.794 191.665 579.863 186.748C587.576 185.17 595.309 184.136 602.902 183.305C646.419 178.54 662.941 180.983 678.724 173.431C684.265 170.779 689.588 167.022 692.779 162.892C697.163 157.205 699.435 151.404 709.228 146.641C714.199 144.223 719.635 143.936 724.608 141.789C726.358 141.039 728.014 140.204 729.602 139.32C731.191 138.437 732.538 137.443 733.694 136.404C747.62 123.919 729.135 98.3446 757.819 97.2027C780.833 96.288 785.981 100.067 799.749 98.1395C818.455 95.5202 843.916 94.0628 850.522 82.6044C860.919 64.605 893.756 61.3044 912.784 62.8387C925.198 63.8383 932.616 67.3286 929.096 72.2745C927.879 73.9741 927.245 75.5548 926.969 76.9851C923.515 95.5484 998.586 89.9707 1053.43 75.887C1071.97 71.1086 1090.41 65.1293 1101.35 58.0169C1127.67 40.8903 1191.96 64.3464 1212.86 19.1735" stroke="url(#paint9_linear_78_21254)" stroke-miterlimit="10"/>
<path d="M48.8066 99.0685C75.6707 88.6666 102.11 82.1454 124.811 77.8527C175.348 68.2997 203.835 69.6905 198.545 82.35C193.943 93.3783 188.184 102.418 195.148 102.753C212.731 103.6 239.007 101.699 247.1 107.423C247.92 108.008 249.724 108.431 251.703 109C263.691 112.463 280.189 114.95 280.337 121.046C280.485 127.141 253.616 138.044 271.974 138.147C281.709 138.198 289.891 137.392 297.549 138.335C305.775 139.347 318.265 142.807 332.611 146.088C357.655 151.763 382.393 158.969 372.119 162.464C362.521 165.739 358.815 168.432 358.969 171.457C359.685 184.728 437.94 195.485 379.821 205.803C375.308 206.608 370.165 207.54 364.233 208.459C338.017 212.55 325.843 233.57 331.654 246.396C334.196 251.994 348.351 247.548 364.294 242.873C375.158 239.688 386.833 236.279 395.592 235.862C406.36 235.356 395.224 260.436 405.258 258.054C428.219 252.618 451.405 246.355 467.249 236.7C483.094 227.046 481.435 216.141 495.728 207.427C505.616 201.398 513.171 198.714 522.174 197.162C537.579 194.509 558.345 193.075 582.164 188.274C590.014 186.694 597.856 185.637 605.487 184.756C650.296 179.59 665.632 180.968 679.644 172.961C684.572 170.143 689.29 166.264 691.846 162.104C695.476 156.177 696.907 150.301 706.8 145.575C711.878 143.148 717.489 143.094 722.622 140.989C724.43 140.251 726.131 139.423 727.765 138.539C729.414 137.655 730.807 136.661 732.024 135.62C746.666 123.119 728.851 97.1665 757.968 96.0538C782.598 95.1158 786.532 99.0536 799.876 96.9144C818.47 93.934 844.269 92.5363 850.458 81.0114C860.319 62.6354 893.314 59.5636 912.328 61.1703C924.659 62.2149 932.106 65.7038 929.128 70.5943C928.096 72.2825 927.616 73.8524 927.493 75.2792C925.891 93.7925 999.687 89.0836 1054.49 75.7884C1073.01 71.2778 1091.79 65.5309 1103.32 58.5173C1130.72 41.8201 1194.04 63.2084 1213.02 18.3467" stroke="url(#paint10_linear_78_21254)" stroke-miterlimit="10"/>
<path d="M50.5777 98.2998C77.2587 87.7847 104.049 81.2388 127.265 76.9458C177.024 67.7432 207.78 68.3534 202.287 81.1485C197.471 92.3774 191.987 101.323 198.888 101.759C216.233 102.848 243.158 100.207 251.825 105.574C252.724 106.136 254.561 106.543 256.521 107.135C268.545 110.747 283.257 113.734 283.079 120.056C282.902 126.378 257.397 137.056 276.414 137.218C285.959 137.302 293.784 136.632 301.042 137.691C308.865 138.832 320.608 142.393 334.536 145.618C358.752 151.223 383.055 158.085 373.765 161.438C364.959 164.617 361.61 167.18 361.957 170.136C363.436 183.022 437.492 193.72 381.79 204.099C377.397 204.915 372.432 205.879 366.709 206.829C341.28 211.058 329.252 231.474 334.904 244.056C337.348 249.504 350.933 245.379 366.342 240.989C376.869 237.991 388.228 234.741 396.772 234.329C407.388 233.819 397.171 257.648 407.074 255.313C429.379 250.058 451.85 243.962 467.279 234.606C484.208 224.348 480.861 213.709 496.165 205.043C506.495 199.193 514.48 197.047 523.93 196.116C539.859 194.55 560.942 194.449 584.526 189.763C592.529 188.174 600.464 187.101 608.148 186.17C654.25 180.596 668.414 180.925 680.641 172.455C684.939 169.479 689.053 165.47 690.99 161.274C693.821 155.108 694.457 149.156 704.45 144.458C709.62 142.024 715.42 142.21 720.714 140.145C722.58 139.421 724.341 138.599 726.021 137.708C727.716 136.823 729.154 135.828 730.432 134.787C745.791 122.263 728.643 95.9462 758.211 94.8554C784.455 93.8944 787.178 97.9838 800.112 95.6394C818.596 92.2841 844.729 90.9675 850.487 79.3694C859.799 60.61 892.965 57.7738 911.966 59.4529C924.213 60.5353 931.706 64.0226 929.255 68.858C928.409 70.5276 928.097 72.0936 928.112 73.5173C928.345 91.9811 1000.88 88.1399 1055.66 75.6398C1074.17 71.3968 1093.29 65.8894 1105.39 58.9748C1133.84 42.7146 1196.22 62.0285 1213.28 17.4781" stroke="url(#paint11_linear_78_21254)" stroke-miterlimit="10"/>
<path d="M52.3667 97.5449C78.8491 86.9171 106.02 80.3459 129.736 76.053C178.703 67.2009 211.743 67.0238 206.061 79.9611C201.032 91.3906 195.822 100.241 202.677 100.772C219.784 102.102 247.373 98.7134 256.598 103.733C257.592 104.271 259.461 104.671 261.403 105.276C273.478 109.038 286.404 112.525 285.885 119.08C285.366 125.635 261.242 136.081 280.915 136.31C290.257 136.419 297.754 135.893 304.58 137.075C312.001 138.353 322.998 141.999 336.506 145.175C359.929 150.68 383.794 157.229 375.44 160.44C367.087 163.651 364.45 165.956 364.959 168.851C367.184 181.361 437.055 192.005 383.756 202.437C379.498 203.272 374.697 204.261 369.183 205.242C344.54 209.617 332.659 229.415 338.152 241.76C340.498 247.058 353.497 243.254 368.371 239.15C378.546 236.346 389.589 233.253 397.934 232.846C408.412 232.333 399.097 254.919 408.871 252.624C430.521 247.549 452.277 241.621 467.29 232.571C484.629 222.108 480.256 211.321 496.565 202.725C507.323 197.048 515.744 195.788 525.651 195.129C542.127 194.032 563.504 195.88 586.854 191.308C595.009 189.71 603.038 188.615 610.759 187.641C658.155 181.652 671.131 180.932 681.587 172.014C685.272 168.873 688.751 164.735 690.083 160.51C692.103 154.089 691.956 148.076 702.049 143.414C707.326 140.972 713.301 141.391 718.755 139.366C720.68 138.656 722.486 137.834 724.211 136.949C725.951 136.063 727.45 135.068 728.789 134.026C744.865 121.478 728.385 94.7916 758.402 93.7297C786.259 92.746 787.788 96.9721 800.281 94.4305C818.657 90.6931 845.109 89.4581 850.45 77.7936C859.211 58.6583 892.55 56.0504 911.538 57.8018C923.701 58.922 931.223 62.4151 929.316 67.188C928.654 68.8463 928.511 70.4013 928.664 71.8218C930.733 90.2364 1002 87.2625 1056.75 75.5498C1075.22 71.5745 1094.68 66.2993 1107.37 59.4905C1136.87 43.6532 1198.33 60.9009 1213.48 16.6683" stroke="url(#paint12_linear_78_21254)" stroke-miterlimit="10"/>
<path d="M54.1593 96.7761C80.4598 86.0281 107.982 79.4323 132.195 75.1539C180.372 66.6376 215.707 65.6952 209.807 78.7681C204.565 90.3908 199.645 99.154 206.437 99.7861C223.307 101.351 251.576 97.2145 261.343 101.886C262.417 102.401 264.317 102.793 266.242 103.413C278.366 107.33 289.509 111.302 288.648 118.091C287.788 124.88 265.029 135.086 285.373 135.389C294.513 135.524 301.665 135.148 308.078 136.439C315.095 137.853 325.362 141.585 338.421 144.711C361.05 150.125 384.478 156.345 377.075 159.422C369.673 162.498 367.234 164.706 367.922 167.538C370.892 179.672 436.563 190.278 385.683 200.749C381.544 201.603 376.923 202.616 371.618 203.621C347.778 208.135 336.043 227.322 341.345 239.432C343.609 244.579 356.024 241.089 370.347 237.276C380.186 234.659 390.898 231.725 399.044 231.322C409.369 230.805 400.97 252.151 410.629 249.902C431.638 245.014 452.664 239.254 467.263 230.494C485.043 219.827 479.598 208.893 496.946 200.358C508.131 194.855 517.011 193.758 527.351 194.099C544.352 194.653 566.044 197.274 589.145 192.81C597.453 191.203 605.575 190.093 613.349 189.068C662.04 182.658 673.826 180.905 682.513 171.524C685.584 168.217 688.398 163.958 689.156 159.702C690.331 153.036 689.45 146.954 699.628 142.321C705.012 139.87 711.162 140.522 716.776 138.538C718.745 137.842 720.61 137.026 722.396 136.14C724.181 135.254 725.741 134.258 727.126 133.216C743.933 120.644 728.106 93.5951 758.557 92.5553C789.008 91.5156 788.35 95.9048 800.428 93.1797C818.713 89.0531 845.467 87.907 850.393 76.169C858.589 56.6511 892.115 54.2783 911.089 56.102C923.183 57.2667 930.72 60.7588 929.355 65.4765C928.877 67.1234 928.889 68.6678 929.194 70.0848C933.114 88.4429 1003.1 86.3428 1057.83 75.4171C1076.29 71.7089 1096.08 66.6662 1109.36 59.9632C1139.89 44.5486 1200.43 59.7384 1213.65 15.8164" stroke="url(#paint13_linear_78_21254)" stroke-miterlimit="10"/>
<path d="M55.9457 96.0179C82.0476 85.1575 109.935 78.5369 134.663 74.2584C182.051 66.0706 219.666 64.3642 213.561 77.5793C208.106 89.4021 203.461 98.0709 210.192 98.7973C226.84 100.595 255.804 95.7052 266.08 100.044C267.249 100.536 269.167 100.913 271.073 101.555C283.232 105.628 292.621 110.091 291.405 117.113C290.248 123.762 268.825 134.103 289.824 134.479C298.776 134.64 305.585 134.407 311.582 135.82C318.196 137.371 327.734 141.188 340.357 144.265C362.193 149.586 385.199 155.478 378.734 158.414C372.268 161.349 370.041 163.473 370.907 166.237C374.608 177.988 436.107 188.568 387.648 199.071C383.644 199.943 379.202 200.98 374.09 202.017C351.036 206.677 339.447 225.253 344.59 237.127C346.756 242.124 358.6 238.955 372.389 235.426C381.893 232.996 392.273 230.227 400.22 229.822C410.392 229.301 402.911 249.399 412.44 247.197C432.793 242.489 453.105 236.896 467.273 228.441C485.478 217.578 478.964 206.475 497.346 198.017C508.928 192.687 518.302 192.11 529.071 193.087C546.633 194.688 568.605 198.684 591.474 194.328C599.933 192.719 608.15 191.579 615.96 190.512C665.93 183.682 676.527 180.887 683.458 171.059C685.901 167.587 688.049 163.206 688.25 158.913C688.551 152.001 686.949 145.857 697.227 141.252C702.719 138.793 709.043 139.685 714.818 137.735C716.845 137.052 718.77 136.243 720.601 135.356C722.448 134.47 724.054 133.466 725.498 132.43C743.022 119.835 727.861 92.424 758.762 91.4063C789.662 90.3885 788.962 94.8556 800.626 91.9544C818.805 87.4249 845.859 86.3893 850.384 74.5775C858.016 54.6775 891.728 52.5397 910.689 54.4356C922.7 55.638 930.28 59.1357 929.443 63.7914C929.15 65.427 929.331 66.9604 929.773 68.3814C935.512 86.6909 1004.26 85.4562 1058.96 75.3242C1077.41 71.8832 1097.5 67.0732 1111.39 60.4758C1142.93 45.4847 1202.57 58.6101 1213.88 15.0056" stroke="url(#paint14_linear_78_21254)" stroke-miterlimit="10"/>
<path d="M57.7357 95.2469C83.6545 84.2737 111.88 77.6146 137.134 73.3573C183.718 65.4979 223.626 63.035 217.334 76.3848C211.665 88.4075 207.295 96.9821 213.979 97.8096C230.39 99.8414 260.081 94.19 270.835 98.2041C272.098 98.6726 274.048 99.042 275.937 99.6913C288.148 103.913 295.767 108.874 294.195 116.122C292.731 122.889 272.654 133.106 294.31 133.549C303.061 133.729 309.524 133.653 315.108 135.174C321.318 136.868 330.112 140.763 342.316 143.792C363.358 149.021 385.975 154.576 380.398 157.386C374.82 160.196 372.853 162.22 373.897 164.916C378.33 176.285 435.641 186.853 389.604 197.375C385.718 198.265 381.455 199.327 376.554 200.387C354.284 205.201 342.843 223.153 347.826 234.79C349.895 239.637 361.153 236.789 374.407 233.551C383.56 231.308 393.625 228.696 401.373 228.295C411.407 227.772 404.827 246.629 414.226 244.467C433.939 239.939 453.537 234.52 467.275 226.356C485.906 215.289 478.307 204.024 497.739 195.65C509.734 190.485 519.587 190.43 530.783 192.055C548.938 194.696 571.173 200.074 593.793 195.825C602.39 194.207 610.715 193.051 618.578 191.934C669.829 184.669 679.25 180.849 684.412 170.565C686.241 166.935 687.709 162.426 687.353 158.095C686.763 150.946 684.458 144.724 694.837 140.149C700.42 137.682 706.935 138.806 712.854 136.904C714.939 136.235 716.909 135.432 718.785 134.545C720.677 133.658 722.329 132.654 723.834 131.617C742.073 119.006 727.593 91.2327 758.914 90.2303C790.235 89.2279 789.522 93.7724 800.757 90.6954C818.818 85.7491 846.185 84.8307 850.309 72.9523C857.361 52.6703 891.277 50.7599 910.222 52.7352C922.15 53.9753 929.776 57.4714 929.45 62.0727C929.343 63.6898 929.691 65.2194 930.27 66.6373C937.844 84.8983 1005.34 84.5284 1059.99 75.1827C1078.43 72.0086 1098.83 67.4239 1113.32 60.9393C1145.87 46.3568 1204.61 57.441 1214.02 14.1384" stroke="url(#paint15_linear_78_21254)" stroke-miterlimit="10"/>
<path d="M59.5243 94.4855C85.2446 83.4 113.837 76.7092 139.604 72.4592C185.387 64.9136 227.585 61.7023 221.09 75.194C215.209 87.4093 211.128 95.8893 217.734 96.8185C233.909 99.0838 264.344 92.6644 275.573 96.3614C276.931 96.8066 278.898 97.1613 280.768 97.8323C293.014 102.21 298.881 107.661 296.938 115.142C295.152 122.02 276.423 132.106 298.747 132.637C307.309 132.843 313.413 132.917 318.584 134.546C324.407 136.376 332.457 140.349 344.226 143.336C364.474 148.472 385.717 153.382 382.028 156.375C376.515 158.69 375.631 160.986 376.868 163.612C382.015 174.606 435.168 185.17 391.555 195.695C387.804 196.604 383.704 197.697 379.012 198.781C357.528 203.741 346.233 221.084 351.042 232.477C353.029 237.168 363.702 234.646 376.422 231.692C385.239 229.643 394.972 227.189 402.522 226.786C412.404 226.258 406.74 243.87 416.009 241.754C435.067 237.406 453.95 232.161 467.273 224.294C486.343 213.031 477.633 201.584 498.143 193.3C510.537 188.295 520.914 188.758 532.506 191.04C551.254 194.72 573.737 201.478 596.11 197.337C604.858 195.717 613.278 194.532 621.177 193.372C673.707 185.681 681.937 180.835 685.346 170.089C686.547 166.294 687.333 161.671 686.435 157.302C684.923 149.924 681.962 143.616 692.425 139.077C698.115 136.61 704.806 137.959 710.885 136.098C713.028 135.442 715.058 134.638 716.979 133.758C718.916 132.87 720.629 131.865 722.196 130.821C741.166 118.187 727.338 90.0522 759.108 89.0719C793.415 88.0209 790.11 92.6998 800.943 89.4609C818.887 84.091 846.566 83.2971 850.288 71.3522C856.745 50.6891 890.878 49.0129 909.811 51.0603C921.655 52.338 929.31 55.8399 929.525 60.3863C929.603 61.9921 930.105 63.5111 930.837 64.9256C940.244 83.1381 1006.46 83.6328 1061.11 75.0724C1079.53 72.1651 1100.25 67.8058 1115.34 61.4339C1148.89 47.2606 1206.74 56.3042 1214.23 13.3114" stroke="url(#paint16_linear_78_21254)" stroke-miterlimit="10"/>
<path d="M61.3137 93.7222C86.8508 82.524 115.781 75.7878 142.074 71.5591C187.056 64.3271 231.544 60.3753 224.845 74.0088C218.736 86.424 214.945 94.8096 221.505 95.8326C237.444 98.324 268.623 91.1301 280.325 94.5246C281.779 94.9464 283.777 95.2934 285.629 95.9789C297.909 100.519 302.026 106.445 299.727 114.159C297.634 121.155 280.252 131.11 303.23 131.723C311.591 131.947 317.363 132.186 322.121 133.922C327.54 135.895 334.847 139.946 346.182 142.883C365.638 147.921 386.354 152.498 383.704 155.37C378.927 157.561 378.454 159.756 379.87 162.314C385.732 172.926 434.725 183.506 393.522 194.021C389.89 194.948 385.969 196.067 381.487 197.174C360.803 202.287 349.655 219.006 354.289 230.164C356.179 234.705 366.282 232.503 378.452 229.833C386.934 227.969 396.338 225.674 403.673 225.275C413.417 224.744 408.652 241.118 417.792 239.042C436.196 234.873 454.379 229.801 467.274 222.225C486.768 210.765 476.961 199.136 498.534 190.942C511.313 186.089 522.212 187.085 534.233 190.009C553.588 194.727 576.32 202.872 598.445 198.831C607.345 197.209 615.86 195.995 623.795 194.791C677.607 186.66 684.66 180.797 686.299 169.603C686.872 165.643 686.96 160.907 685.537 156.493C683.073 148.885 679.47 142.499 690.035 137.981C695.831 135.506 702.696 137.094 708.936 135.267C711.138 134.624 713.213 133.827 715.179 132.946C717.162 132.058 718.935 131.053 720.563 130.007C740.249 117.351 727.087 88.855 759.305 87.9039C795.208 86.8388 790.687 91.6108 801.119 88.21C818.932 82.4098 846.921 81.7476 850.258 69.7287C856.105 48.6848 890.471 47.2423 909.391 49.3547C921.167 50.6697 928.866 54.1772 929.593 58.6621C929.855 60.2567 930.527 61.7648 931.396 63.1762C942.621 81.3408 1007.6 82.6988 1062.21 74.9309C1080.61 72.2901 1101.62 68.1563 1117.34 61.8969C1151.86 48.1255 1208.85 55.1296 1214.43 12.4529" stroke="url(#paint17_linear_78_21254)" stroke-miterlimit="10"/>
<path d="M63.0891 92.9529C88.4277 81.6427 117.71 74.8681 144.529 70.661C188.697 63.7282 235.487 59.0437 228.6 72.8185C222.278 85.433 218.777 93.7242 225.259 94.8487C240.977 97.5729 272.886 89.5912 285.062 92.6834C286.611 93.0748 288.624 93.4215 290.459 94.1215C302.774 98.8172 305.155 105.232 302.485 113.179C300.1 120.292 284.05 130.11 307.681 130.811C315.855 131.054 321.267 131.456 325.612 133.293C330.626 135.417 337.207 139.537 348.107 142.426C366.77 147.37 386.96 151.615 385.35 154.358C381.291 156.435 381.248 158.514 382.841 161.01C389.417 171.249 434.264 181.85 395.459 192.342C391.946 193.287 388.203 194.437 383.946 195.569C364.045 200.842 353.044 216.938 357.519 227.859C359.311 232.251 368.844 230.368 380.481 227.981C388.628 226.304 397.715 224.173 404.835 223.779C414.427 223.244 410.578 238.374 419.603 236.344C437.352 232.354 454.836 227.456 467.286 220.177C487.219 208.522 476.288 196.696 498.952 188.607C512.115 183.906 523.567 185.435 535.97 189.008C555.948 194.762 578.898 204.286 600.791 200.352C609.843 198.722 618.452 197.485 626.439 196.239C681.516 187.669 687.392 180.788 687.262 169.14C687.222 165.015 686.597 160.172 684.635 155.706C681.216 147.883 676.991 141.397 687.641 136.908C693.544 134.425 700.584 136.245 706.984 134.459C709.245 133.83 711.363 133.039 713.39 132.158C715.434 131.269 717.253 130.263 718.926 129.217C739.341 116.546 726.829 87.6889 759.483 86.7532C796.996 85.6739 791.244 90.5391 801.289 86.9833C818.957 80.7393 847.269 80.2298 850.222 68.1371C855.458 46.7128 890.072 45.4966 908.962 47.6885C920.656 49.041 928.399 52.5541 929.653 56.9774C930.1 58.5607 930.925 60.0582 931.947 61.4663C945.005 79.5828 1008.73 81.8037 1063.31 74.8204C1081.68 72.4464 1103.01 68.5306 1119.34 62.391C1154.85 49.0217 1210.97 53.9946 1214.63 11.6272" stroke="url(#paint18_linear_78_21254)" stroke-miterlimit="10"/>
<path d="M64.8808 92.188C90.036 80.7656 119.673 73.9386 146.986 69.7609C190.339 63.1345 239.43 57.7183 232.341 71.6271C225.807 84.4334 222.581 92.6306 229.016 93.8558C244.498 96.8057 277.153 88.0369 289.799 90.8414C291.443 91.2095 293.474 91.5416 295.29 92.2632C307.639 97.1143 308.284 104.024 305.245 112.189C302.553 119.42 287.852 129.093 312.135 129.883C320.108 130.144 325.173 130.71 329.105 132.654C333.715 134.928 339.554 139.119 350.036 141.958C367.905 146.81 387.569 150.715 386.984 153.331C383.66 155.286 384.013 157.263 385.8 159.69C393.076 169.548 433.789 180.2 397.399 190.646C394.02 191.617 390.456 192.791 386.394 193.94C367.277 199.366 356.439 214.838 360.723 225.524C362.433 229.766 371.397 228.203 382.471 226.099C390.282 224.615 399.039 222.634 405.96 222.244C415.414 221.706 412.464 235.6 421.359 233.61C438.469 229.799 455.239 225.074 467.26 218.085C487.648 206.234 475.579 194.205 499.315 186.235C512.879 181.679 524.852 183.747 537.652 187.969C558.269 194.76 581.436 205.669 603.082 201.835C612.286 200.203 620.989 198.937 629.011 197.656C685.354 188.639 690.051 180.756 688.168 168.654C687.499 164.371 686.162 159.415 683.69 154.903C679.3 146.873 674.453 140.28 685.203 135.827C691.213 133.336 698.428 135.388 704.988 133.642C707.307 133.027 709.485 132.243 711.542 131.361C713.631 130.472 715.512 129.458 717.244 128.419C738.375 115.725 726.528 86.5086 759.631 85.5952C798.753 84.5092 791.759 89.446 801.414 85.7498C818.91 79.0487 847.572 78.6986 850.155 66.539C854.779 44.742 889.627 43.7523 908.504 46.0163C920.113 47.4134 927.901 50.9249 929.681 55.2937C930.313 56.8587 931.307 58.3525 932.466 59.7575C947.341 77.8263 1009.81 80.9095 1064.37 74.7105C1082.72 72.6028 1104.36 68.905 1121.29 62.8855C1157.79 49.904 1213.04 52.8545 1214.79 10.8033" stroke="url(#paint19_linear_78_21254)" stroke-miterlimit="10"/>
<path d="M66.6721 91.4179C91.645 79.8764 121.62 73.0045 149.456 68.8628C191.997 62.5282 243.387 56.3884 236.094 70.4382C229.349 83.4433 226.412 91.5461 232.769 92.8726C248.031 96.0478 281.416 86.4856 294.532 89.0098C296.272 89.3475 298.318 89.6794 300.133 90.408C312.516 95.4216 311.442 102.811 308.017 111.209C305.034 118.556 291.666 128.085 316.6 128.971C324.386 129.25 329.089 129.988 332.626 132.025C336.816 134.449 341.946 138.702 351.976 141.499C369.054 146.252 388.207 149.823 388.644 152.319C386.055 154.152 386.82 156.028 388.785 158.387C396.744 167.872 433.354 178.579 399.351 188.959C396.09 189.956 392.706 191.148 388.853 192.327C370.533 197.921 359.83 212.756 363.954 223.206C365.566 227.299 373.96 226.061 384.501 224.233C391.977 222.935 400.403 221.119 407.126 220.726C416.428 220.185 414.392 232.836 423.156 230.899C439.613 227.26 455.697 222.715 467.274 216.024C488.1 203.977 474.91 191.738 499.734 183.887C513.684 179.476 526.207 182.09 539.391 186.946C560.645 194.779 584.032 207.065 605.416 203.332C614.77 201.698 623.569 200.403 631.642 199.079C689.252 189.61 692.723 180.733 689.134 168.168C687.822 163.721 685.8 158.673 682.806 154.094C677.446 145.857 671.991 139.163 682.827 134.733C688.944 132.233 696.333 134.524 703.053 132.82C705.43 132.218 707.653 131.44 709.771 130.558C711.904 129.676 713.831 128.654 715.624 127.614C737.485 114.898 726.287 85.3295 759.824 84.4316C800.554 83.3392 792.302 88.3549 801.6 84.5034C818.893 77.346 847.922 77.1549 850.134 64.9285C854.133 42.7523 889.23 41.9887 908.092 44.3318C919.617 45.7664 927.466 49.2759 929.757 53.5908C930.588 55.1442 931.735 56.6275 933.031 58.0366C949.723 76.0579 1010.95 79.9951 1065.48 74.5943C1083.83 72.7527 1105.75 69.2734 1123.31 63.3735C1160.78 50.7798 1215.16 51.7163 1214.99 9.97398" stroke="url(#paint20_linear_78_21254)" stroke-miterlimit="10"/>
<path d="M68.4642 90.6521C93.2384 78.9989 123.552 72.0751 151.927 67.9621C193.658 61.9119 247.346 55.0563 239.865 69.2468C232.891 82.4507 230.245 90.4521 236.555 91.8793C251.582 95.2799 285.714 84.9175 299.298 87.1689C301.134 87.4762 303.21 87.8075 304.992 88.5509C317.409 93.7268 314.601 101.596 310.807 110.218C307.517 117.683 295.498 127.061 321.082 128.05C328.669 128.34 333.009 129.249 336.149 131.392C339.919 133.966 344.322 138.289 353.934 141.037C370.22 145.697 388.846 148.929 390.322 151.304C388.467 153.023 389.629 154.79 391.802 157.081C400.442 166.201 432.963 176.977 401.35 187.277C398.222 188.299 395.002 189.516 391.359 190.712C373.837 196.465 363.281 210.678 367.231 220.886C368.747 224.822 376.571 223.91 386.564 222.365C393.72 221.259 401.801 219.593 408.325 219.205C417.474 218.66 416.337 230.07 424.986 228.179C440.789 224.719 456.173 220.354 467.323 213.945C488.602 201.71 474.262 189.247 500.173 181.523C514.509 177.249 527.582 180.409 541.148 185.912C563.04 194.787 586.646 208.45 607.783 204.817C617.289 203.181 626.182 201.857 634.292 200.49C693.152 190.569 695.473 180.699 690.118 167.673C688.193 163.067 685.442 157.914 681.941 153.274C675.593 144.845 669.534 138.036 680.469 133.635C686.692 131.135 694.258 133.65 701.137 131.986C703.573 131.398 705.856 130.62 708.003 129.745C710.197 128.861 712.169 127.84 714.023 126.799C736.597 114.068 726.064 84.1404 760.051 83.2579C802.39 82.1592 792.88 87.2464 801.819 83.254C818.896 75.6267 848.319 75.6154 850.147 63.3082C853.505 40.7532 888.865 40.2224 907.714 42.6374C919.171 44.1093 927.048 47.6246 929.851 51.8783C930.867 53.4207 932.168 54.8934 933.616 56.2991C952.123 74.2804 1012.12 79.0709 1066.6 74.4535C1084.93 72.8779 1107.15 69.6095 1125.33 63.8295C1163.78 51.6094 1217.3 50.5474 1215.22 9.11331" stroke="url(#paint21_linear_78_21254)" stroke-miterlimit="10"/>
<path d="M70.2539 89.8879C94.8445 78.1231 125.499 71.1333 154.396 67.0638C195.315 61.2978 251.299 53.7348 243.616 68.0587C236.431 81.4536 234.075 89.3607 240.307 90.8891C255.114 94.5145 289.963 83.3464 304.028 85.3321C305.962 85.602 308.051 85.9401 309.816 86.6979C322.252 92.0292 317.742 100.384 313.562 109.238C309.981 116.819 299.297 126.039 325.53 127.131C332.93 127.439 336.893 128.519 339.638 130.755C342.988 133.486 346.682 137.871 355.859 140.57C371.353 145.13 389.453 148.03 391.952 150.285C390.83 151.882 392.389 153.549 394.756 155.771C404.063 164.519 432.521 175.391 403.27 185.591C400.259 186.638 397.234 187.879 393.785 189.099C377.059 195.027 366.653 208.597 370.428 218.576C371.861 222.362 379.115 221.776 388.546 220.506C395.366 219.593 403.117 218.084 409.443 217.693C418.455 217.144 418.214 227.321 426.734 225.47C441.884 222.182 456.585 217.997 467.275 211.884C489.006 199.461 473.519 186.76 500.527 179.184C515.25 175.048 528.872 178.76 542.822 184.904C565.351 194.819 589.161 209.865 610.067 206.324C619.724 204.687 628.712 203.333 636.873 201.924C696.999 191.552 698.14 180.688 691.032 167.208C688.479 162.438 685.013 157.193 681.005 152.493C673.669 143.872 667.021 136.941 678.042 132.569C684.371 130.061 692.112 132.808 699.152 131.185C701.646 130.61 703.973 129.839 706.18 128.963C708.419 128.079 710.453 127.057 712.352 126.016C735.656 113.263 725.771 82.9846 760.207 82.1175C804.153 81.013 793.358 86.1648 801.952 82.0385C818.782 73.9423 848.615 74.1034 850.072 61.7296C852.788 38.8035 888.413 38.4912 907.247 40.9853C918.621 42.4946 926.559 46.0079 929.871 50.2149C931.072 51.739 932.54 53.2081 934.126 54.6108C954.449 72.5449 1013.19 78.1954 1067.66 74.3677C1085.98 73.0579 1108.5 69.9933 1127.29 64.3476C1166.7 52.5013 1219.37 49.435 1215.37 8.30959" stroke="url(#paint22_linear_78_21254)" stroke-miterlimit="10"/>
<path d="M72.043 89.1141C96.4349 77.238 127.446 70.182 156.863 66.1632C196.972 60.681 255.251 52.4044 247.38 66.8684C239.983 80.4612 237.901 88.2746 244.087 89.9035C258.674 93.7535 294.239 81.7804 308.787 83.4935C310.816 83.7331 312.922 84.0638 314.683 84.8429C327.138 90.3365 320.925 99.1756 316.362 108.247C312.49 115.945 303.155 125.007 330.021 126.209C337.22 126.536 340.821 127.786 343.186 130.115C346.101 132.995 349.086 137.442 357.844 140.098C372.546 144.566 390.12 147.127 393.657 149.255C393.255 150.73 395.225 152.297 397.785 154.45C407.757 162.834 432.199 173.808 405.265 183.894C402.388 184.967 399.526 186.233 396.287 187.477C380.373 193.571 370.101 206.505 373.685 216.249C375.021 219.887 381.721 219.625 390.605 218.63C397.105 217.902 404.511 216.551 410.638 216.164C419.497 215.612 420.17 224.549 428.575 222.744C443.071 219.634 457.072 215.629 467.336 209.798C489.534 197.187 472.885 184.248 500.977 176.813C516.102 172.807 530.258 177.079 544.591 183.855C567.773 194.818 591.788 211.23 612.433 207.791C622.24 206.152 631.309 204.762 639.52 203.317C700.897 192.488 700.887 180.638 692.013 166.697C688.847 161.769 684.666 156.433 680.137 151.659C671.813 142.852 664.562 135.799 675.683 131.456C682.119 128.94 690.034 131.926 697.234 130.337C699.786 129.775 702.158 129.011 704.426 128.134C706.71 127.25 708.804 126.227 710.764 125.186C734.796 112.419 725.561 81.7749 760.431 80.9308C805.984 79.8206 793.902 85.044 802.169 80.7692C818.721 72.205 848.978 72.5454 850.081 60.0975C852.14 36.8007 888.045 36.7066 906.864 39.2796C918.156 40.8191 926.152 44.3448 929.976 48.4909C931.376 50.0036 932.983 51.4625 934.721 52.8619C956.858 70.7563 1014.36 77.2585 1068.81 74.2131C1087.11 73.169 1109.93 70.3152 1129.34 64.7966C1169.73 53.3236 1221.53 48.262 1215.62 7.44439" stroke="url(#paint23_linear_78_21254)" stroke-miterlimit="10"/>
<path d="M73.834 88.3502C98.0422 76.3628 129.379 69.2414 159.332 65.2658C198.618 60.0533 259.143 51.0791 251.131 65.6821C243.447 79.467 241.731 87.1848 247.854 88.9144C262.222 92.9889 298.49 80.1975 313.532 81.6595C315.657 81.8688 317.778 82.1993 319.521 82.9927C331.995 88.6486 324.08 97.9718 319.133 107.268C314.968 115.088 306.971 123.972 334.483 125.299C341.497 125.637 344.704 127.065 346.689 129.492C349.168 132.53 351.459 137.038 359.768 139.645C373.679 144.013 390.726 146.25 395.301 148.251C395.631 149.612 397.998 151.07 400.751 153.155C411.373 161.182 431.827 172.272 407.214 182.223C404.469 183.329 401.787 184.612 398.743 185.873C383.639 192.14 373.486 204.44 376.912 213.942C378.165 217.43 384.295 217.492 392.618 216.773C398.782 216.244 405.86 215.035 411.787 214.66C420.51 214.097 422.078 221.803 430.353 220.044C444.197 217.106 457.513 213.287 467.333 207.745C489.998 194.954 472.204 181.762 501.378 174.475C516.891 170.6 531.595 175.43 546.311 182.846C570.131 194.849 594.365 212.641 614.765 209.294C624.737 207.661 633.887 206.235 642.134 204.748C704.747 193.455 703.601 180.62 692.959 166.232C689.165 161.14 684.269 155.719 679.235 150.87C669.906 141.886 662.083 134.704 673.29 130.383C679.833 127.859 687.908 131.077 695.283 129.527C697.893 128.98 700.325 128.222 702.623 127.345C704.952 126.461 707.107 125.437 709.128 124.388C733.917 111.62 725.302 80.6055 760.621 79.777C807.779 78.6686 794.397 83.9563 802.336 79.5403C818.581 70.502 849.306 71.0278 850.04 58.5063C851.441 34.8392 887.642 34.9628 906.431 37.615C917.64 39.1919 925.682 42.7159 930.03 46.8081C931.616 48.3025 933.39 49.7578 935.265 51.1542C959.232 69.0017 1015.48 76.3623 1069.89 74.0989C1088.17 73.3205 1111.28 70.6632 1131.32 65.2858C1172.69 54.172 1223.6 47.1238 1215.79 6.62084" stroke="url(#paint24_linear_78_21254)" stroke-miterlimit="10"/>
<path d="M75.6131 87.5781C99.6225 75.4797 131.302 68.2785 161.773 64.3681C200.25 59.4247 263.068 49.7531 254.852 64.5032C246.957 78.4783 245.53 86.1022 251.575 87.9398C265.724 92.2314 302.692 78.637 318.23 79.841C320.452 80.0129 322.602 80.35 324.328 81.1507C336.836 86.9683 327.205 96.768 321.874 106.288C317.419 114.225 310.773 122.936 338.915 124.388C345.744 124.737 348.559 126.336 350.163 128.862C352.192 132.057 353.805 136.626 361.68 139.184C374.799 143.459 391.32 145.357 396.917 147.238C397.981 148.479 400.742 149.844 403.69 151.853C414.96 159.524 431.487 170.742 409.119 180.545C406.522 181.683 403.988 182.991 401.171 184.268C386.876 190.716 376.859 202.368 380.109 211.634C381.281 214.965 386.84 215.367 394.617 214.915C400.461 214.577 407.209 213.525 412.908 213.148C421.478 212.582 423.959 219.05 432.104 217.338C445.295 214.57 457.927 210.93 467.305 205.678C490.435 192.706 471.484 179.248 501.737 172.131C517.653 168.386 532.888 173.775 548.005 181.822C572.477 194.87 596.916 214.035 617.07 210.781C627.194 209.146 636.438 207.691 644.736 206.161C708.6 194.405 706.287 180.593 693.895 165.745C689.489 160.488 683.876 154.989 678.322 150.067C668.004 140.904 659.595 133.586 670.885 129.302C677.534 126.777 685.785 130.218 693.304 128.718C695.972 128.183 698.448 127.432 700.806 126.555C703.197 125.67 705.396 124.646 707.463 123.596C732.979 110.815 725.013 79.4435 760.766 78.631C809.53 77.5176 794.846 82.8766 802.472 78.3192C818.396 68.8003 849.588 69.5186 849.97 56.9161C850.698 32.8794 887.193 33.2278 905.97 35.9446C917.111 37.5585 925.198 41.0809 930.056 45.1194C931.841 46.6026 933.754 48.0477 935.781 49.4408C961.562 67.249 1016.56 75.46 1070.96 73.9847C1089.22 73.4716 1112.63 71.0178 1133.29 65.7748C1175.64 55.02 1225.68 45.9938 1215.96 5.79817" stroke="url(#paint25_linear_78_21254)" stroke-miterlimit="10"/>
<path d="M77.3555 86.9076C101.185 74.6935 133.195 67.4093 164.203 63.5541C201.877 58.8763 267.006 48.5089 258.587 63.3962C250.478 77.5728 249.341 85.0977 255.324 87.0361C269.27 91.552 306.915 77.1286 322.962 78.0883C325.281 78.2229 327.445 78.5668 329.154 79.382C341.665 85.37 330.363 95.6481 324.633 105.388C319.884 113.45 314.589 121.978 343.365 123.554C349.993 123.921 352.432 125.691 353.67 128.316C355.25 131.661 356.168 136.293 363.625 138.809C375.968 142.984 391.949 144.55 398.583 146.313C400.381 147.432 403.537 148.705 406.678 150.639C418.598 157.955 431.225 169.323 411.088 178.962C408.636 180.14 406.268 181.459 403.646 182.754C390.189 189.384 380.29 200.391 383.333 209.432C384.407 212.616 389.465 213.112 396.629 213.163C402.109 213.203 408.559 212.114 414.059 211.74C422.478 211.17 425.854 216.403 433.885 214.737C446.426 212.138 458.375 208.682 467.296 203.717C490.924 190.567 470.802 176.833 502.122 169.876C518.444 166.252 534.227 172.208 549.712 180.895C574.822 194.991 599.484 215.524 619.378 212.368C629.653 210.737 638.98 209.239 647.329 207.673C712.436 195.441 708.986 180.654 694.829 165.343C689.795 159.927 683.467 154.335 677.409 149.337C666.1 140.002 657.106 132.546 668.483 128.282C675.239 125.749 683.665 129.429 691.345 127.961C694.071 127.447 696.609 126.688 698.997 125.817C701.432 124.931 703.679 123.9 705.821 122.856C732.054 110.049 724.752 78.3198 760.957 77.5211C811.331 76.4072 795.315 81.8329 802.645 77.1251C818.203 67.1304 849.914 68.0247 849.941 55.352C850 30.9392 886.793 31.5034 905.557 34.2988C916.616 35.9499 924.763 39.4709 930.13 43.464C932.1 44.9293 934.179 46.3783 936.344 47.7687C963.858 65.5642 1017.71 74.6014 1072.07 73.9041C1090.32 73.6551 1114.03 71.3958 1135.3 66.2918C1178.63 55.8912 1227.81 44.8826 1216.17 4.98379" stroke="url(#paint26_linear_78_21254)" stroke-miterlimit="10"/>
<path d="M78.9719 86.4978C102.615 74.1555 134.999 66.7633 166.536 62.9704C203.419 58.5353 270.864 47.4619 262.234 62.5062C253.905 76.8964 253.054 84.3355 258.961 86.3755C272.691 91.1105 311.026 75.8556 327.604 76.5547C330.004 76.6591 332.2 76.9952 333.891 77.8325C346.423 83.9863 333.412 94.7605 327.292 104.735C322.263 112.923 318.301 121.275 347.714 122.986C354.16 123.363 356.191 125.305 357.064 128.032C358.178 131.53 358.433 136.227 365.44 138.702C376.996 142.78 393.061 143.553 400.128 145.656C402.943 146.494 406.211 147.828 409.562 149.696C422.129 156.675 430.934 168.185 412.93 177.672C410.623 178.89 408.419 180.221 405.99 181.542C393.365 188.363 383.565 198.734 386.431 207.549C387.421 210.587 391.856 211.657 398.532 211.731C403.736 211.79 409.802 211.02 415.106 210.649C423.391 210.066 427.662 214.074 435.566 212.451C447.446 210.018 458.729 206.743 467.214 202.052C491.351 188.71 470.057 174.686 502.468 167.884C519.201 164.37 535.519 170.902 551.39 180.234C577.155 195.385 602.023 217.314 621.681 214.236C632.109 212.608 641.535 211.069 649.939 209.458C716.31 196.731 711.726 180.959 695.804 165.181C690.158 159.596 683.113 153.923 676.536 148.839C664.236 139.325 654.64 131.727 666.123 127.486C672.988 124.949 681.592 128.854 689.435 127.424C692.22 126.923 694.803 126.169 697.252 125.296C699.735 124.409 702.043 123.375 704.231 122.33C731.192 109.483 724.561 77.3729 761.228 76.5821C813.224 75.4597 795.87 80.9658 802.923 76.1027C818.106 65.6224 850.356 66.703 850.05 53.9358C849.43 29.1282 886.562 29.9031 905.301 32.777C916.295 34.4647 924.489 37.9862 930.366 41.9288C932.522 43.3771 934.754 44.8239 937.071 46.2121C966.417 63.9814 1019.03 73.8679 1073.39 73.9405C1091.63 73.953 1115.65 71.8831 1137.54 66.9113C1181.88 56.8363 1230.2 43.8364 1216.67 4.2126" stroke="url(#paint27_linear_78_21254)" stroke-miterlimit="10"/>
<path d="M80.5905 86.0966C104.064 73.6187 136.775 66.1264 168.87 62.4024C204.961 58.2177 274.724 46.4299 265.883 61.6312C257.335 76.2283 256.77 83.5812 262.616 85.7228C276.146 90.6841 315.142 74.5827 332.264 75.0349C334.762 75.1015 336.972 75.4445 338.661 76.2964C351.214 82.6163 336.508 93.8872 329.984 104.09C324.658 112.41 322.064 120.572 352.098 122.426C358.361 122.813 359.984 124.928 360.49 127.762C361.139 131.414 360.727 136.183 367.303 138.611C378.07 142.591 393.364 143.163 401.705 145.008C405.127 145.763 408.903 146.967 412.463 148.76C425.664 155.403 430.704 167.069 414.79 176.388C412.643 177.648 410.588 178.998 408.353 180.331C396.591 187.347 386.859 197.077 389.548 205.665C390.455 208.557 394.32 209.966 400.438 210.306C405.306 210.57 411.048 209.934 416.154 209.566C424.291 208.977 429.474 211.744 437.265 210.178C448.497 207.912 459.101 204.816 467.147 200.408C491.791 186.882 469.326 172.559 502.813 165.922C519.957 162.524 536.842 169.61 553.067 179.596C579.553 195.781 604.562 219.122 623.982 216.13C634.566 214.497 644.09 212.926 652.534 211.269C720.155 198.039 714.437 181.282 696.764 165.037C690.49 159.289 682.743 153.527 675.646 148.365C662.353 138.68 652.172 130.932 663.747 126.707C670.722 124.158 679.502 128.297 687.508 126.905C690.353 126.416 692.981 125.667 695.477 124.793C698.006 123.904 700.376 122.868 702.626 121.82C730.329 108.942 724.34 76.443 761.469 75.6602C815.089 74.5289 796.394 80.1158 803.155 75.0975C817.949 64.1315 850.754 65.391 850.099 52.5368C848.798 27.3414 886.273 28.2985 904.985 31.2725C915.901 32.9829 924.156 36.5116 930.527 40.4111C932.882 41.8491 935.268 43.2866 937.722 44.6728C968.902 62.4082 1020.26 73.1529 1074.61 74.0036C1092.84 74.2779 1117.18 72.3977 1139.69 67.5582C1185.03 57.8161 1232.5 42.8229 1217.06 3.46813" stroke="url(#paint28_linear_78_21254)" stroke-miterlimit="10"/>
<path d="M82.2079 85.6906C105.495 73.0844 138.568 65.4699 171.205 61.8223C206.504 57.8814 278.584 45.3921 269.547 60.7434C260.78 75.5545 260.503 82.8139 266.272 85.0575C279.602 90.2382 319.258 73.2966 336.91 73.5016C339.506 73.5305 341.731 73.8803 343.402 74.7472C355.959 81.2408 339.573 93.009 332.645 103.441C327.038 111.894 325.782 119.849 356.451 121.86C362.531 122.258 363.748 124.538 363.901 127.481C364.085 131.279 363.008 136.122 369.149 138.515C379.143 142.397 393.728 142.761 403.28 144.362C407.353 145.047 411.607 146.114 415.363 147.826C429.212 154.138 430.565 165.945 416.664 175.098C414.692 176.398 412.787 177.761 410.73 179.12C399.832 186.326 390.182 195.426 392.665 203.781C393.474 206.519 396.78 208.289 402.343 208.875C406.874 209.352 412.293 208.842 417.202 208.477C425.19 207.875 431.27 209.414 438.949 207.89C449.535 205.784 459.471 202.883 467.067 198.744C492.248 185.032 468.582 170.405 503.161 163.931C520.732 160.643 538.134 168.314 554.745 178.938C581.855 196.188 607.101 220.914 626.269 218.009C637.022 216.377 646.617 214.76 655.129 213.064C724.001 199.33 717.163 181.593 697.708 164.881C690.822 158.964 682.357 153.127 674.741 147.873C660.455 138.017 649.703 130.127 661.355 125.91C668.453 123.363 677.396 127.729 685.565 126.375C688.454 125.899 691.158 125.155 693.702 124.272C696.292 123.381 698.708 122.343 701.005 121.294C729.436 108.375 724.116 75.5162 761.711 74.7198C816.932 73.6226 796.888 79.2551 803.404 74.0664C817.777 62.6219 851.169 64.0528 850.165 51.1045C848.169 25.5214 885.982 26.6896 904.686 29.7348C915.537 31.4891 923.839 35.0111 930.72 38.867C933.261 40.2879 935.814 41.7227 938.406 43.1069C971.42 60.8079 1021.54 72.4118 1075.89 74.0346C1094.11 74.5711 1118.74 72.874 1141.89 68.1736C1188.25 58.7503 1234.85 41.7689 1217.51 2.68392" stroke="url(#paint29_linear_78_21254)" stroke-miterlimit="10"/>
<path d="M83.8269 85.2764C106.942 72.5418 140.363 64.798 173.54 61.2413C206.716 57.6846 282.461 44.3455 273.198 59.8544C264.21 74.8798 264.222 82.0383 269.928 84.3981C283.074 89.7911 323.361 72.0088 341.572 71.9729C344.25 71.9642 346.505 72.3206 348.175 73.1949C360.72 79.8699 342.67 92.1217 335.323 102.783C329.418 111.369 329.534 119.11 360.823 121.278C366.719 121.686 367.529 124.14 367.316 127.185C367.035 131.13 365.291 136.045 370.983 138.398C380.204 142.175 394.143 142.321 404.843 143.693C409.598 144.301 414.286 145.232 418.252 146.868C432.748 152.849 430.474 164.791 418.511 173.792C416.73 175.133 414.943 176.509 413.08 177.886C403.061 185.288 393.512 193.736 395.769 201.879C396.511 204.47 399.198 206.595 404.252 207.426C408.43 208.116 413.54 207.74 418.251 207.378C426.106 206.763 433.085 207.064 440.636 205.592C450.573 203.652 459.829 200.934 466.985 197.078C492.718 183.193 467.839 168.241 503.493 161.939C521.491 158.759 539.396 167.016 556.408 178.28C584.157 196.596 609.624 222.714 628.554 219.888C639.461 218.258 649.142 216.595 657.708 214.86C727.796 200.559 719.874 181.905 698.652 164.719C691.138 158.633 681.969 152.721 673.835 147.374C658.571 137.347 647.203 129.308 658.945 125.114C666.153 122.555 675.273 127.155 683.605 125.839C686.554 125.375 689.303 124.637 691.908 123.752C694.545 122.859 697.023 121.82 699.381 120.768C728.54 107.81 723.895 74.554 761.935 73.7802C818.783 72.6592 797.379 78.3949 803.634 73.0431C817.571 61.1201 851.565 62.7223 850.212 49.687C847.52 23.7163 885.672 25.0957 904.367 28.2123C915.138 30.0038 923.504 33.5188 930.894 37.3308C933.636 38.7341 936.327 40.167 939.071 41.5488C973.919 59.222 1022.8 71.6793 1077.14 74.0753C1095.34 74.8747 1120.31 73.3599 1144.07 68.7994C1191.44 59.7027 1237.18 40.7307 1217.92 1.91709" stroke="url(#paint30_linear_78_21254)" stroke-miterlimit="10"/>
<path d="M85.4449 84.8699C108.374 72.0074 142.158 64.1269 175.875 60.6612C209.591 57.1955 286.322 43.307 276.849 58.966C243.416 114.274 335.285 62.0569 352.934 71.6425C375.564 83.9384 293.443 115.449 365.208 120.711C378.304 121.672 363.519 134.213 372.845 138.296C385.171 143.685 407.979 140.987 421.17 145.917C436.314 151.573 430.524 163.612 420.386 172.492C410.264 181.372 396.434 190.609 398.905 199.981C399.548 202.425 401.631 204.906 406.174 205.982C410 206.887 414.801 206.637 419.316 206.278C436.635 204.893 454.828 201.856 466.92 195.402C493.233 181.353 467.128 166.061 503.854 159.944C552.304 151.866 600.696 226.189 630.87 221.763C827.148 192.972 618.456 137.732 656.594 124.318C663.896 121.749 673.208 126.582 681.703 125.304C687.782 124.387 692.995 122.329 697.801 120.244C727.687 107.254 723.716 73.6006 762.217 72.8419C820.693 71.6971 797.914 77.5365 803.908 72.0216C817.391 59.6273 851.988 61.4008 850.301 48.2714C846.913 21.913 885.404 23.497 904.091 26.6922C918.735 29.1943 929.1 34.8643 939.778 39.9998C976.461 57.6373 1024.09 70.9568 1078.42 74.1342C1132.75 77.3044 1250.18 59.1154 1218.38 1.16909" stroke="url(#paint31_linear_78_21254)" stroke-miterlimit="10"/>
<defs>
<linearGradient id="paint0_linear_78_21254" x1="19.9826" y1="172.062" x2="1158.76" y2="355.707" gradientUnits="userSpaceOnUse">
<stop stop-color="#FFFAF5" stop-opacity="0"/>
<stop offset="0.23" stop-color="#FB8500"/>
<stop offset="0.83" stop-color="#FB8500"/>
<stop offset="1" stop-color="#FFFAF5" stop-opacity="0"/>
</linearGradient>
<linearGradient id="paint1_linear_78_21254" x1="21.931" y1="170.218" x2="1159.21" y2="353.544" gradientUnits="userSpaceOnUse">
<stop stop-color="#FFFAF5" stop-opacity="0"/>
<stop offset="0.23" stop-color="#FB8500"/>
<stop offset="0.83" stop-color="#FB8500"/>
<stop offset="1" stop-color="#FFFAF5" stop-opacity="0"/>
</linearGradient>
<linearGradient id="paint2_linear_78_21254" x1="23.8972" y1="168.376" x2="1159.64" y2="351.375" gradientUnits="userSpaceOnUse">
<stop stop-color="#FFFAF5" stop-opacity="0"/>
<stop offset="0.23" stop-color="#FB8500"/>
<stop offset="0.83" stop-color="#FB8500"/>
<stop offset="1" stop-color="#FFFAF5" stop-opacity="0"/>
</linearGradient>
<linearGradient id="paint3_linear_78_21254" x1="25.8462" y1="166.54" x2="1160.07" y2="349.215" gradientUnits="userSpaceOnUse">
<stop stop-color="#FFFAF5" stop-opacity="0"/>
<stop offset="0.23" stop-color="#FB8500"/>
<stop offset="0.83" stop-color="#FB8500"/>
<stop offset="1" stop-color="#FFFAF5" stop-opacity="0"/>
</linearGradient>
<linearGradient id="paint4_linear_78_21254" x1="27.8106" y1="164.692" x2="1160.51" y2="347.041" gradientUnits="userSpaceOnUse">
<stop stop-color="#FFFAF5" stop-opacity="0"/>
<stop offset="0.23" stop-color="#FB8500"/>
<stop offset="0.83" stop-color="#FB8500"/>
<stop offset="1" stop-color="#FFFAF5" stop-opacity="0"/>
</linearGradient>
<linearGradient id="paint5_linear_78_21254" x1="29.7619" y1="162.848" x2="1160.94" y2="344.872" gradientUnits="userSpaceOnUse">
<stop stop-color="#FFFAF5" stop-opacity="0"/>
<stop offset="0.23" stop-color="#FB8500"/>
<stop offset="0.83" stop-color="#FB8500"/>
<stop offset="1" stop-color="#FFFAF5" stop-opacity="0"/>
</linearGradient>
<linearGradient id="paint6_linear_78_21254" x1="31.726" y1="161.012" x2="1161.39" y2="342.71" gradientUnits="userSpaceOnUse">
<stop stop-color="#FFFAF5" stop-opacity="0"/>
<stop offset="0.23" stop-color="#FB8500"/>
<stop offset="0.83" stop-color="#FB8500"/>
<stop offset="1" stop-color="#FFFAF5" stop-opacity="0"/>
</linearGradient>
<linearGradient id="paint7_linear_78_21254" x1="33.6774" y1="159.168" x2="1161.83" y2="340.54" gradientUnits="userSpaceOnUse">
<stop stop-color="#FFFAF5" stop-opacity="0"/>
<stop offset="0.23" stop-color="#FB8500"/>
<stop offset="0.83" stop-color="#FB8500"/>
<stop offset="1" stop-color="#FFFAF5" stop-opacity="0"/>
</linearGradient>
<linearGradient id="paint8_linear_78_21254" x1="35.6403" y1="157.326" x2="1162.26" y2="338.371" gradientUnits="userSpaceOnUse">
<stop stop-color="#FFFAF5" stop-opacity="0"/>
<stop offset="0.23" stop-color="#FB8500"/>
<stop offset="0.83" stop-color="#FB8500"/>
<stop offset="1" stop-color="#FFFAF5" stop-opacity="0"/>
</linearGradient>
<linearGradient id="paint9_linear_78_21254" x1="37.5898" y1="155.482" x2="1162.7" y2="336.2" gradientUnits="userSpaceOnUse">
<stop stop-color="#FFFAF5" stop-opacity="0"/>
<stop offset="0.23" stop-color="#FB8500"/>
<stop offset="0.83" stop-color="#FB8500"/>
<stop offset="1" stop-color="#FFFAF5" stop-opacity="0"/>
</linearGradient>
<linearGradient id="paint10_linear_78_21254" x1="39.5575" y1="153.644" x2="1163.13" y2="334.031" gradientUnits="userSpaceOnUse">
<stop stop-color="#FFFAF5" stop-opacity="0"/>
<stop offset="0.23" stop-color="#FB8500"/>
<stop offset="0.83" stop-color="#FB8500"/>
<stop offset="1" stop-color="#FFFAF5" stop-opacity="0"/>
</linearGradient>
<linearGradient id="paint11_linear_78_21254" x1="41.5063" y1="151.795" x2="1163.56" y2="331.852" gradientUnits="userSpaceOnUse">
<stop stop-color="#FFFAF5" stop-opacity="0"/>
<stop offset="0.23" stop-color="#FB8500"/>
<stop offset="0.83" stop-color="#FB8500"/>
<stop offset="1" stop-color="#FFFAF5" stop-opacity="0"/>
</linearGradient>
<linearGradient id="paint12_linear_78_21254" x1="43.4726" y1="149.959" x2="1164" y2="329.685" gradientUnits="userSpaceOnUse">
<stop stop-color="#FFFAF5" stop-opacity="0"/>
<stop offset="0.23" stop-color="#FB8500"/>
<stop offset="0.83" stop-color="#FB8500"/>
<stop offset="1" stop-color="#FFFAF5" stop-opacity="0"/>
</linearGradient>
<linearGradient id="paint13_linear_78_21254" x1="45.4272" y1="148.111" x2="1164.44" y2="327.508" gradientUnits="userSpaceOnUse">
<stop stop-color="#FFFAF5" stop-opacity="0"/>
<stop offset="0.23" stop-color="#FB8500"/>
<stop offset="0.83" stop-color="#FB8500"/>
<stop offset="1" stop-color="#FFFAF5" stop-opacity="0"/>
</linearGradient>
<linearGradient id="paint14_linear_78_21254" x1="47.3753" y1="146.274" x2="1164.87" y2="325.339" gradientUnits="userSpaceOnUse">
<stop stop-color="#FFFAF5" stop-opacity="0"/>
<stop offset="0.23" stop-color="#FB8500"/>
<stop offset="0.83" stop-color="#FB8500"/>
<stop offset="1" stop-color="#FFFAF5" stop-opacity="0"/>
</linearGradient>
<linearGradient id="paint15_linear_78_21254" x1="49.3409" y1="144.432" x2="1165.31" y2="323.165" gradientUnits="userSpaceOnUse">
<stop stop-color="#FFFAF5" stop-opacity="0"/>
<stop offset="0.23" stop-color="#FB8500"/>
<stop offset="0.83" stop-color="#FB8500"/>
<stop offset="1" stop-color="#FFFAF5" stop-opacity="0"/>
</linearGradient>
<linearGradient id="paint16_linear_78_21254" x1="51.2919" y1="142.586" x2="1165.74" y2="320.986" gradientUnits="userSpaceOnUse">
<stop stop-color="#FFFAF5" stop-opacity="0"/>
<stop offset="0.23" stop-color="#FB8500"/>
<stop offset="0.83" stop-color="#FB8500"/>
<stop offset="1" stop-color="#FFFAF5" stop-opacity="0"/>
</linearGradient>
<linearGradient id="paint17_linear_78_21254" x1="53.2587" y1="140.739" x2="1166.21" y2="318.81" gradientUnits="userSpaceOnUse">
<stop stop-color="#FFFAF5" stop-opacity="0"/>
<stop offset="0.23" stop-color="#FB8500"/>
<stop offset="0.83" stop-color="#FB8500"/>
<stop offset="1" stop-color="#FFFAF5" stop-opacity="0"/>
</linearGradient>
<linearGradient id="paint18_linear_78_21254" x1="55.2102" y1="138.893" x2="1166.73" y2="316.644" gradientUnits="userSpaceOnUse">
<stop stop-color="#FFFAF5" stop-opacity="0"/>
<stop offset="0.23" stop-color="#FB8500"/>
<stop offset="0.83" stop-color="#FB8500"/>
<stop offset="1" stop-color="#FFFAF5" stop-opacity="0"/>
</linearGradient>
<linearGradient id="paint19_linear_78_21254" x1="57.1791" y1="137.044" x2="1167.36" y2="314.485" gradientUnits="userSpaceOnUse">
<stop stop-color="#FFFAF5" stop-opacity="0"/>
<stop offset="0.23" stop-color="#FB8500"/>
<stop offset="0.83" stop-color="#FB8500"/>
<stop offset="1" stop-color="#FFFAF5" stop-opacity="0"/>
</linearGradient>
<linearGradient id="paint20_linear_78_21254" x1="59.131" y1="135.198" x2="1168.06" y2="312.343" gradientUnits="userSpaceOnUse">
<stop stop-color="#FFFAF5" stop-opacity="0"/>
<stop offset="0.23" stop-color="#FB8500"/>
<stop offset="0.83" stop-color="#FB8500"/>
<stop offset="1" stop-color="#FFFAF5" stop-opacity="0"/>
</linearGradient>
<linearGradient id="paint21_linear_78_21254" x1="61.0997" y1="133.35" x2="1168.83" y2="310.208" gradientUnits="userSpaceOnUse">
<stop stop-color="#FFFAF5" stop-opacity="0"/>
<stop offset="0.23" stop-color="#FB8500"/>
<stop offset="0.83" stop-color="#FB8500"/>
<stop offset="1" stop-color="#FFFAF5" stop-opacity="0"/>
</linearGradient>
<linearGradient id="paint22_linear_78_21254" x1="63.066" y1="131.504" x2="1169.69" y2="308.085" gradientUnits="userSpaceOnUse">
<stop stop-color="#FFFAF5" stop-opacity="0"/>
<stop offset="0.23" stop-color="#FB8500"/>
<stop offset="0.83" stop-color="#FB8500"/>
<stop offset="1" stop-color="#FFFAF5" stop-opacity="0"/>
</linearGradient>
<linearGradient id="paint23_linear_78_21254" x1="65.015" y1="129.656" x2="1170.62" y2="305.975" gradientUnits="userSpaceOnUse">
<stop stop-color="#FFFAF5" stop-opacity="0"/>
<stop offset="0.23" stop-color="#FB8500"/>
<stop offset="0.83" stop-color="#FB8500"/>
<stop offset="1" stop-color="#FFFAF5" stop-opacity="0"/>
</linearGradient>
<linearGradient id="paint24_linear_78_21254" x1="66.9809" y1="127.819" x2="1171.64" y2="303.886" gradientUnits="userSpaceOnUse">
<stop stop-color="#FFFAF5" stop-opacity="0"/>
<stop offset="0.23" stop-color="#FB8500"/>
<stop offset="0.83" stop-color="#FB8500"/>
<stop offset="1" stop-color="#FFFAF5" stop-opacity="0"/>
</linearGradient>
<linearGradient id="paint25_linear_78_21254" x1="68.9336" y1="125.981" x2="1172.73" y2="301.805" gradientUnits="userSpaceOnUse">
<stop stop-color="#FFFAF5" stop-opacity="0"/>
<stop offset="0.23" stop-color="#FB8500"/>
<stop offset="0.83" stop-color="#FB8500"/>
<stop offset="1" stop-color="#FFFAF5" stop-opacity="0"/>
</linearGradient>
<linearGradient id="paint26_linear_78_21254" x1="70.7598" y1="124.791" x2="1173.81" y2="300.466" gradientUnits="userSpaceOnUse">
<stop stop-color="#FFFAF5" stop-opacity="0"/>
<stop offset="0.23" stop-color="#FB8500"/>
<stop offset="0.83" stop-color="#FB8500"/>
<stop offset="1" stop-color="#FFFAF5" stop-opacity="0"/>
</linearGradient>
<linearGradient id="paint27_linear_78_21254" x1="72.1868" y1="125.436" x2="1174.78" y2="301.208" gradientUnits="userSpaceOnUse">
<stop stop-color="#FFFAF5" stop-opacity="0"/>
<stop offset="0.23" stop-color="#FB8500"/>
<stop offset="0.83" stop-color="#FB8500"/>
<stop offset="1" stop-color="#FFFAF5" stop-opacity="0"/>
</linearGradient>
<linearGradient id="paint28_linear_78_21254" x1="73.6321" y1="126.083" x2="1175.83" y2="301.96" gradientUnits="userSpaceOnUse">
<stop stop-color="#FFFAF5" stop-opacity="0"/>
<stop offset="0.23" stop-color="#FB8500"/>
<stop offset="0.83" stop-color="#FB8500"/>
<stop offset="1" stop-color="#FFFAF5" stop-opacity="0"/>
</linearGradient>
<linearGradient id="paint29_linear_78_21254" x1="75.0605" y1="126.727" x2="1176.93" y2="302.718" gradientUnits="userSpaceOnUse">
<stop stop-color="#FFFAF5" stop-opacity="0"/>
<stop offset="0.23" stop-color="#FB8500"/>
<stop offset="0.83" stop-color="#FB8500"/>
<stop offset="1" stop-color="#FFFAF5" stop-opacity="0"/>
</linearGradient>
<linearGradient id="paint30_linear_78_21254" x1="76.5043" y1="127.37" x2="1178.09" y2="303.48" gradientUnits="userSpaceOnUse">
<stop stop-color="#FFFAF5" stop-opacity="0"/>
<stop offset="0.23" stop-color="#FB8500"/>
<stop offset="0.83" stop-color="#FB8500"/>
<stop offset="1" stop-color="#FFFAF5" stop-opacity="0"/>
</linearGradient>
<linearGradient id="paint31_linear_78_21254" x1="77.9316" y1="128.022" x2="1179.33" y2="304.259" gradientUnits="userSpaceOnUse">
<stop stop-color="#FFFAF5" stop-opacity="0"/>
<stop offset="0.23" stop-color="#FB8500"/>
<stop offset="0.83" stop-color="#FB8500"/>
<stop offset="1" stop-color="#FFFAF5" stop-opacity="0"/>
</linearGradient>
</defs>
</svg>
