<svg width="1446" height="600" viewBox="0 0 1446 600" fill="none" xmlns="http://www.w3.org/2000/svg">
<path d="M34.2266 511.785C80.0466 463.405 99.8066 386.605 161.497 361.405C181.597 353.195 203.777 351.845 225.487 351.375C256.847 350.695 289.577 351.965 317.247 366.755C341.957 379.965 383.317 393.656 410.047 385.266C563.047 337.266 525.237 481.326 602.047 497.266C708.047 519.266 707.657 628.955 776.667 591.635C836.027 559.535 873.057 497.756 899.867 435.826C926.687 373.896 1103.05 378.255 1048.05 282.255C1021.18 235.355 1128.82 230.175 1198.05 266.255C1267.28 302.335 1328.27 97.1155 1404.19 115.335" stroke="url(#paint0_linear_77_21054)" stroke-width="0.75" stroke-miterlimit="10"/>
<path d="M33.1963 514.066C76.8263 463.726 105.346 387.365 161.386 360.955C179.236 352.545 201.386 349.475 223.426 347.925C231.666 347.345 240.036 347.265 248.276 347.085C273.636 346.525 296.286 352.086 316.816 363.656C320.276 365.606 324.066 367.536 328.176 369.286C353.566 380.236 390.116 389.636 411.506 383.756C553.566 344.626 528.966 480.176 607.346 497.406C711.186 520.226 713.056 626.666 781.656 590.756C795.676 583.466 808.476 574.515 820.196 564.285C858.146 531.205 885.056 484.926 905.926 438.246C914.246 419.716 935.726 406.986 960.166 395.606C1016.66 369.256 1088.34 350.466 1052.07 283.816C1031.4 245.836 1094.35 233.256 1154.8 246.366C1170.04 249.716 1185.97 255.196 1200.4 262.346C1214.4 269.356 1227.92 267.506 1240.95 260.166C1270.31 243.626 1292.99 198.956 1321.21 163.946C1348.04 130.756 1375.35 106.656 1405.53 114.056" stroke="url(#paint1_linear_77_21054)" stroke-width="0.75" stroke-miterlimit="10"/>
<path d="M32.166 516.336C73.596 464.036 111.006 388.186 161.276 360.496C176.906 351.886 198.996 347.076 221.356 344.466C229.766 343.476 238.336 342.926 246.656 342.726C273.916 342.076 295.856 348.396 316.366 360.546C319.896 362.636 323.766 364.646 328.026 366.386C354.096 377.056 393.216 386.766 412.946 382.236C544.076 351.976 532.666 479.006 612.626 497.526C714.306 521.076 718.346 624.175 786.626 589.855C800.626 582.815 813.456 574.216 825.196 564.266C863.306 532.076 890.686 486.716 911.946 440.656C920.496 422.316 941.696 409.506 965.676 397.946C1021.15 371.126 1090.25 351.626 1056.05 285.366C1036.17 246.836 1097.8 232.366 1156.61 243.246C1171.45 245.986 1187.81 251.346 1202.7 258.436C1217.59 265.526 1230.76 263.546 1243.76 256.486C1274.51 239.786 1292.97 193.056 1321.56 158.626C1348.85 125.936 1376.25 105.136 1406.82 112.786" stroke="url(#paint2_linear_77_21054)" stroke-width="0.75" stroke-miterlimit="10"/>
<path d="M31.1367 518.605C70.3667 464.345 116.837 389.035 161.167 360.035C174.637 351.225 196.607 344.685 219.297 340.995C227.877 339.605 236.657 338.765 245.057 338.355C274.217 336.935 295.437 344.715 315.937 357.425C319.527 359.655 323.477 361.755 327.897 363.485C354.617 373.925 396.337 383.895 414.407 380.725C534.597 359.335 536.387 477.815 617.927 497.665C717.457 521.885 723.707 621.795 791.617 588.975C805.597 582.215 818.467 573.925 830.217 564.255C868.487 532.945 896.217 488.455 917.987 443.065C926.707 424.885 947.677 412.025 971.197 400.285C1025.64 372.985 1092.2 352.745 1060.05 286.905C1040.96 247.795 1101.23 231.555 1158.44 240.115C1172.87 242.275 1189.66 247.515 1205.02 254.505C1220.38 261.495 1233.63 259.575 1246.6 252.775C1278.76 235.915 1292.97 187.115 1321.93 153.275C1349.68 121.085 1377.18 103.585 1408.14 111.475" stroke="url(#paint3_linear_77_21054)" stroke-width="0.75" stroke-miterlimit="10"/>
<path d="M30.1064 520.886C67.1364 464.666 122.886 389.896 161.056 359.586C172.446 350.546 194.226 342.286 217.236 337.546C225.986 335.746 234.976 334.616 243.456 334.006C274.536 331.786 295.016 341.056 315.506 354.326C319.156 356.686 323.186 358.886 327.766 360.596C355.136 370.806 399.456 381.036 415.866 379.216C525.126 366.696 540.086 476.616 623.216 497.796C720.596 522.606 729.066 619.416 796.596 588.076C810.566 581.596 823.456 573.626 835.226 564.226C873.656 533.806 901.836 490.216 924.026 445.466C932.956 427.466 953.656 414.536 976.726 402.616C1030.15 374.846 1094.19 353.816 1064.06 288.436C1045.76 248.726 1104.67 230.736 1160.29 236.976C1174.3 238.546 1191.53 243.676 1207.36 250.576C1222.26 257.076 1236.53 255.626 1249.45 249.076C1283.03 232.066 1292.91 181.126 1322.32 147.936C1350.45 116.186 1378.12 102.046 1409.48 110.186" stroke="url(#paint4_linear_77_21054)" stroke-width="0.75" stroke-miterlimit="10"/>
<path d="M29.0762 523.156C63.9062 464.976 129.196 390.656 160.946 359.126C170.336 349.796 191.846 339.876 215.166 334.076C224.086 331.856 233.276 330.426 241.836 329.636C274.836 326.586 294.576 337.396 315.056 351.206C318.766 353.706 322.876 355.996 327.616 357.686C355.636 367.676 402.556 378.196 417.306 377.696C515.636 374.326 543.766 475.376 628.496 497.926C723.736 523.266 734.426 617.036 801.576 587.186C815.536 580.976 828.426 573.296 840.236 564.206C878.756 534.586 907.446 491.986 930.056 447.866C939.186 430.046 959.636 417.056 982.236 404.956C1034.64 376.716 1096.2 354.856 1068.05 289.976C1050.55 249.656 1108.08 229.926 1162.11 233.846C1175.71 234.836 1193.37 239.846 1209.66 246.656C1224.85 252.996 1239.39 251.686 1252.26 245.386C1287.28 228.236 1292.87 175.196 1322.66 142.606C1351.24 111.346 1379.02 100.516 1410.76 108.896" stroke="url(#paint5_linear_77_21054)" stroke-width="0.75" stroke-miterlimit="10"/>
<path d="M28.0459 525.426C60.6759 465.296 135.736 391.176 160.836 358.666C168.326 348.956 189.466 337.456 213.106 330.616C222.196 327.986 231.596 326.236 240.236 325.276C275.166 321.376 294.146 333.746 314.626 348.086C318.406 350.726 322.586 353.106 327.486 354.776C356.156 364.556 405.676 375.336 418.756 376.166C506.116 381.746 547.456 474.106 633.786 498.036C726.906 523.846 739.786 614.646 806.556 586.276C820.506 580.346 833.416 572.976 845.256 564.176C883.926 535.426 913.076 493.746 936.106 450.266C945.446 432.626 965.626 419.566 987.766 407.286C1039.15 378.566 1098.27 355.856 1072.06 291.516C1055.37 250.556 1111.51 229.126 1163.96 230.716C1177.15 231.116 1195.23 236.026 1212 242.726C1227.48 248.916 1242.3 247.756 1255.12 241.686C1291.59 224.416 1292.88 169.256 1323.05 137.266C1353.22 105.276 1379.96 98.9655 1412.1 107.606" stroke="url(#paint6_linear_77_21054)" stroke-width="0.75" stroke-miterlimit="10"/>
<path d="M27.0059 527.706C57.4459 465.616 136.306 387.066 160.716 358.216C164.286 347.066 187.066 335.046 211.036 327.156C220.306 324.106 229.906 322.046 238.626 320.916C275.476 316.136 293.706 330.096 314.196 344.976C318.036 347.766 322.296 350.226 327.346 351.876C356.656 361.436 408.776 372.476 420.206 374.656C496.576 389.196 551.136 472.826 639.076 498.176C730.076 524.396 745.166 612.286 811.536 585.386C825.476 579.736 838.406 572.676 850.266 564.156C889.086 536.276 918.696 495.526 942.136 452.676C951.686 435.216 971.596 422.086 993.286 409.626C1043.64 380.436 1100.37 356.825 1076.06 293.055C1060.2 251.435 1114.91 228.316 1165.79 227.586C1178.56 227.406 1197.07 232.195 1214.32 238.805C1230.09 244.845 1245.19 243.836 1257.95 237.986C1295.87 220.606 1292.86 163.326 1323.42 131.926C1352.89 101.636 1380.88 97.4255 1413.42 106.306" stroke="url(#paint7_linear_77_21054)" stroke-width="0.75" stroke-miterlimit="10"/>
<path d="M25.9766 529.975C54.2166 465.925 141.517 387.125 160.607 357.755C161.817 346.185 184.687 332.616 208.977 323.696C218.417 320.226 228.227 317.845 237.017 316.555C275.787 310.865 293.257 326.465 313.757 341.865C317.657 344.795 321.997 347.346 327.207 348.976C357.157 358.336 411.867 369.615 421.657 373.135C486.987 396.625 554.817 471.516 644.367 498.296C733.257 524.876 750.547 609.915 816.517 584.485C830.447 579.115 843.397 572.365 855.277 564.125C894.247 537.115 924.317 497.285 948.177 455.065C957.947 437.785 977.607 424.635 998.807 411.955C1048.21 382.405 1102.5 357.755 1080.06 294.585C1065.03 252.295 1118.3 227.506 1167.62 224.446C1179.97 223.676 1198.92 228.366 1216.64 234.866C1232.7 240.756 1248.1 239.905 1260.78 234.275C1300.17 216.795 1292.85 157.375 1323.78 126.566C1353.7 96.7655 1381.8 95.8655 1414.72 104.996" stroke="url(#paint8_linear_77_21054)" stroke-width="0.75" stroke-miterlimit="10"/>
<path d="M24.9463 532.245C50.9863 466.235 146.736 387.185 160.496 357.305C159.346 345.315 182.306 330.195 206.906 320.245C216.516 316.355 226.536 313.645 235.406 312.205C276.106 305.585 292.806 322.845 313.316 338.765C317.276 341.835 321.696 344.485 327.066 346.085C357.656 355.235 414.956 366.765 423.106 371.625C477.356 404.025 558.496 470.195 649.656 498.435C740.816 526.675 755.926 607.565 821.496 583.605C835.426 578.515 848.386 572.075 860.286 564.125C899.406 537.985 929.946 499.085 954.206 457.495C964.186 440.395 983.586 427.175 1004.33 414.315C1052.71 384.295 1104.68 358.695 1084.05 296.155C1069.87 253.165 1121.68 226.745 1169.45 221.345C1181.37 219.995 1200.76 224.575 1218.96 230.975C1235.3 236.715 1251 236.035 1263.61 230.615C1304.48 213.045 1292.83 151.485 1324.15 121.265C1354.53 91.9555 1382.72 94.3655 1416.04 103.735" stroke="url(#paint9_linear_77_21054)" stroke-width="0.75" stroke-miterlimit="10"/>
<path d="M23.916 534.526C47.756 466.556 151.946 387.266 160.386 356.856C156.876 344.446 179.916 327.776 204.846 316.786C214.626 312.476 224.846 309.436 233.806 307.846C276.416 300.276 292.366 319.216 312.886 335.656C316.906 338.876 321.406 341.606 326.936 343.186C358.166 352.136 418.056 363.886 424.566 370.116C467.706 411.356 562.196 468.836 654.956 498.566C739.656 525.716 761.326 605.216 826.496 582.716C840.416 577.906 853.396 571.776 865.316 564.106C904.596 538.846 935.586 500.856 960.266 459.896C970.456 442.976 989.596 429.696 1009.87 416.646C1057.24 386.166 1106.92 359.566 1088.07 297.686C1074.76 253.986 1125.07 225.956 1171.3 218.196C1182.8 216.266 1202.62 220.746 1221.3 227.026C1237.93 232.616 1253.93 232.116 1266.47 226.896C1308.83 209.256 1292.85 145.526 1324.54 115.906C1356.23 86.2856 1383.67 92.8056 1417.38 102.426" stroke="url(#paint10_linear_77_21054)" stroke-width="0.75" stroke-miterlimit="10"/>
<path d="M22.8867 536.796C44.5267 466.866 157.167 387.326 160.277 356.396C154.407 343.566 177.537 325.336 202.787 313.326C212.737 308.596 223.167 305.216 232.197 303.486C276.727 294.936 291.907 315.596 312.447 332.546C316.527 335.906 321.107 338.726 326.797 340.286C358.667 349.036 421.147 361.006 426.017 368.596C458.087 418.596 565.877 467.436 660.247 498.696C742.867 526.056 766.717 602.876 831.477 581.816C845.387 577.296 858.387 571.466 870.337 564.076C909.777 539.686 941.237 502.626 966.307 462.296C976.717 445.556 995.577 432.206 1015.39 418.986C1061.74 388.036 1109.18 360.426 1092.07 299.226C1079.65 254.806 1128.44 225.176 1173.14 215.066C1184.21 212.566 1204.47 216.926 1223.63 223.106C1240.54 228.556 1256.85 228.226 1269.31 223.206C1313.16 205.516 1292.85 139.606 1324.91 110.576C1356.19 82.2555 1384.59 91.2655 1418.69 101.136" stroke="url(#paint11_linear_77_21054)" stroke-width="0.75" stroke-miterlimit="10"/>
<path d="M21.8564 539.065C41.3064 467.175 162.376 387.385 160.166 355.935C151.926 342.675 175.146 322.895 200.726 309.855C210.846 304.695 221.476 300.985 230.596 299.115C277.036 289.575 291.466 311.965 312.016 329.425C316.146 332.935 320.816 335.845 326.666 337.385C359.176 345.935 424.256 358.105 427.476 367.085C448.546 425.795 569.586 466.025 665.536 498.825C746.086 526.365 772.106 600.535 836.456 580.925C850.366 576.685 863.376 571.165 875.346 564.065C914.936 540.555 946.866 504.415 972.336 464.705C982.966 448.145 1001.56 434.735 1020.91 421.325C1066.25 389.905 1111.48 361.275 1096.07 300.765C1084.57 255.605 1131.8 224.415 1174.97 211.935C1185.62 208.855 1206.3 213.115 1225.95 219.175C1243.15 224.485 1259.76 224.335 1272.14 219.495C1317.5 201.765 1292.84 133.665 1325.28 105.225C1357.72 76.7855 1385.52 89.7155 1420.01 99.8355" stroke="url(#paint12_linear_77_21054)" stroke-width="0.75" stroke-miterlimit="10"/>
<path d="M20.8262 541.346C38.0762 467.506 167.596 387.456 160.056 355.486C149.456 341.806 172.756 320.466 198.656 306.406C208.936 300.826 219.786 296.776 228.976 294.766C277.316 284.206 290.986 308.366 311.566 326.326C315.756 329.986 320.506 332.976 326.516 334.496C359.666 342.856 427.356 355.226 428.916 365.576C439.056 433.006 573.276 464.576 670.816 498.966C749.306 526.636 777.496 598.216 841.426 580.046C855.326 576.096 868.356 570.886 880.346 564.056C920.096 541.426 952.496 506.206 978.366 467.126C989.206 450.746 1007.54 437.266 1026.42 423.676C1070.74 391.786 1113.82 362.106 1100.06 302.326C1089.49 256.416 1135.15 223.696 1176.79 208.826C1187.01 205.176 1208.13 209.326 1228.26 215.276C1245.74 220.446 1262.67 220.486 1274.97 215.826C1321.84 198.076 1292.83 127.766 1325.64 99.9155C1358.45 72.0655 1386.43 88.2055 1421.32 98.5655" stroke="url(#paint13_linear_77_21054)" stroke-width="0.75" stroke-miterlimit="10"/>
<path d="M19.7959 543.615C34.8459 467.815 172.806 387.515 159.946 355.025C146.986 340.925 170.366 318.015 196.596 302.945C207.046 296.935 218.096 292.545 227.376 290.405C277.616 278.805 290.536 304.755 311.146 323.205C315.396 327.015 320.226 330.095 326.386 331.585C360.176 339.755 430.486 352.325 430.376 364.055C429.636 440.245 576.996 463.075 676.116 499.085C752.566 526.855 782.916 595.885 846.416 579.135C860.316 575.475 873.356 570.565 885.366 564.015C925.276 542.265 958.146 507.965 984.406 469.515C995.466 453.315 1013.52 439.765 1031.95 426.005C1075.25 393.645 1116.22 362.895 1104.07 303.855C1094.47 257.175 1138.51 222.955 1178.64 205.685C1188.43 201.475 1209.99 205.505 1230.6 211.335C1248.36 216.365 1265.61 216.595 1277.82 212.115C1326.21 194.365 1292.85 121.825 1326.03 94.5655C1359.21 67.3055 1387.38 86.6555 1422.65 97.2555" stroke="url(#paint14_linear_77_21054)" stroke-width="0.75" stroke-miterlimit="10"/>
<path d="M18.7666 545.885C31.6166 468.125 182.887 384.395 159.837 354.565C146.927 337.865 167.967 315.575 194.537 299.475C205.157 293.045 216.407 288.305 225.777 286.035C277.907 273.385 290.077 301.135 310.717 320.085C315.027 324.035 319.937 327.205 326.257 328.675C360.677 336.655 433.617 349.435 431.837 362.525C420.237 447.515 580.727 461.535 681.417 499.205C755.827 527.045 788.327 593.555 851.407 578.235C865.307 574.855 878.367 570.255 890.397 563.995C930.477 543.125 963.817 509.745 990.467 471.915C1001.75 455.895 1019.53 442.275 1037.49 428.335C1079.78 395.505 1118.67 363.685 1108.09 305.385C1099.48 257.935 1141.89 222.235 1180.49 202.545C1189.85 197.775 1211.85 201.685 1232.94 207.405C1250.98 212.295 1268.55 212.715 1280.67 208.415C1330.58 190.685 1292.86 115.895 1326.41 89.2255C1359.96 62.5555 1388.31 85.1155 1423.98 95.9655" stroke="url(#paint15_linear_77_21054)" stroke-width="0.75" stroke-miterlimit="10"/>
<path d="M17.7363 548.166C28.3863 468.446 187.356 384.356 159.726 354.116C144.116 337.026 165.576 313.136 192.476 296.026C203.256 289.166 214.716 284.086 224.166 281.686C278.186 267.966 289.606 297.546 310.276 316.986C314.636 321.086 319.636 324.346 326.116 325.786C361.176 333.576 436.736 346.576 433.276 361.026C410.816 454.846 584.456 459.986 686.696 499.346C759.086 527.216 793.726 591.266 856.386 577.356C870.286 574.276 883.356 569.966 895.406 563.986C935.646 543.996 969.466 511.536 996.496 474.336C1008.01 458.506 1025.5 444.816 1043 430.686C1084.27 397.386 1121.13 364.476 1112.08 306.946C1104.49 258.716 1145.24 221.556 1182.32 199.436C1191.25 194.106 1213.68 197.906 1235.26 203.496C1253.59 208.246 1271.47 208.866 1283.51 204.726C1334.95 187.046 1292.87 109.986 1326.78 83.8856C1360.36 58.0456 1389.24 83.5656 1425.3 94.6656" stroke="url(#paint16_linear_77_21054)" stroke-width="0.75" stroke-miterlimit="10"/>
<path d="M16.6963 550.436C25.1463 468.756 191.916 384.436 159.606 353.656C141.326 336.246 163.166 310.686 190.396 292.556C201.346 285.266 213.006 279.846 222.546 277.316C278.436 262.506 289.126 293.926 309.826 313.866C314.246 318.116 319.316 321.456 325.966 322.876C361.666 330.486 439.846 343.686 434.716 359.496C401.386 462.166 588.196 458.366 691.976 499.466C762.346 527.336 799.126 588.956 861.356 576.456C875.256 573.666 888.336 569.666 900.406 563.956C940.806 544.856 975.106 513.316 1002.53 476.726C1014.26 461.076 1031.48 447.316 1048.52 433.006C1088.77 399.226 1123.64 365.236 1116.07 308.466C1109.54 259.446 1148.6 220.856 1184.14 196.286C1192.65 190.406 1215.51 194.076 1237.56 199.556C1256.17 204.176 1274.37 204.986 1286.32 201.016C1339.3 183.396 1292.85 104.056 1327.13 78.5356C1361.41 53.0156 1390.14 82.0155 1426.59 93.3655" stroke="url(#paint17_linear_77_21054)" stroke-width="0.75" stroke-miterlimit="10"/>
<path d="M15.666 552.706C21.926 469.066 196.596 384.605 159.496 353.195C138.586 335.485 160.776 308.235 188.336 289.095C199.446 281.375 211.316 275.605 220.946 272.955C278.716 257.035 288.656 290.325 309.396 310.755C313.866 315.155 319.026 318.585 325.836 319.975C362.166 327.405 442.976 340.815 436.176 357.975C391.966 469.505 591.976 456.705 697.276 499.585C765.646 527.435 804.556 586.655 866.346 575.545C880.236 573.045 893.346 569.345 905.426 563.915C945.996 545.695 980.766 515.085 1008.57 479.115C1020.52 463.655 1037.46 449.815 1054.04 435.335C1093.27 401.085 1126.19 366.005 1120.07 309.995C1114.63 260.195 1151.98 220.185 1185.98 193.145C1194.06 186.715 1217.35 190.265 1239.89 195.615C1258.78 200.105 1277.31 201.115 1289.16 197.305C1343.69 179.765 1292.86 98.1155 1327.5 73.1855C1362.01 48.3455 1391.07 80.4655 1427.91 92.0555" stroke="url(#paint18_linear_77_21054)" stroke-width="0.75" stroke-miterlimit="10"/>
<path d="M14.6367 554.986C18.6967 469.386 201.347 384.846 159.387 352.746C135.877 334.766 158.377 305.796 186.277 285.636C197.557 277.486 209.627 271.366 219.337 268.596C278.967 251.556 288.177 286.726 308.957 307.646C313.477 312.196 318.727 315.716 325.697 317.076C362.667 324.316 446.097 337.946 437.627 356.466C382.537 476.866 595.767 455.006 702.567 499.726C768.947 527.516 809.967 584.386 871.327 574.666C885.217 572.466 898.337 569.066 910.437 563.916C951.167 546.586 986.417 516.896 1014.61 481.546C1026.79 466.266 1043.44 452.356 1059.57 437.696C1097.78 402.966 1128.78 366.796 1124.08 311.556C1119.77 260.966 1155.39 219.556 1187.82 190.036C1195.48 183.056 1219.2 186.486 1242.22 191.716C1261.39 196.066 1280.24 197.286 1292 193.636C1348.08 176.206 1292.87 92.2256 1327.88 67.8756C1362.89 43.5256 1392 78.9556 1429.24 90.7956" stroke="url(#paint19_linear_77_21054)" stroke-width="0.75" stroke-miterlimit="10"/>
<path d="M13.6064 557.256C15.4664 469.696 206.176 385.116 159.276 352.286C133.216 334.046 155.976 303.336 184.216 282.176C195.656 273.606 207.926 267.136 217.736 264.236C279.226 246.056 287.706 283.136 308.526 304.536C313.106 309.246 318.436 312.846 325.556 314.176C363.166 321.246 449.216 335.086 439.076 354.946C373.086 484.226 599.586 453.256 707.846 499.846C772.246 527.566 815.376 582.106 876.296 573.766C890.186 571.866 903.316 568.756 915.446 563.886C956.346 547.446 992.076 518.676 1020.64 483.936C1033.04 468.846 1049.42 454.856 1065.08 440.016C1102.26 404.806 1131.4 367.556 1128.07 313.086C1124.93 261.706 1158.8 218.896 1189.64 186.896C1196.89 179.376 1221.03 182.676 1244.53 187.786C1263.98 192.006 1283.16 193.436 1294.83 189.936C1352.46 172.636 1292.87 86.3055 1328.24 62.5355C1363.68 38.7055 1392.91 77.4155 1430.54 89.4955" stroke="url(#paint20_linear_77_21054)" stroke-width="0.75" stroke-miterlimit="10"/>
<path d="M12.5766 559.526C12.2366 470.016 211.057 385.406 159.157 351.826C130.567 333.326 153.557 300.886 182.137 278.716C193.737 269.716 206.217 262.896 216.117 259.876C279.457 240.546 287.217 279.536 308.087 301.426C312.717 306.286 318.137 309.966 325.417 311.286C363.657 318.176 452.367 332.246 440.527 353.446C363.877 491.736 603.427 451.466 713.137 499.996C775.577 527.616 820.787 579.856 881.287 572.896C895.177 571.296 908.327 568.486 920.467 563.886C961.537 548.346 997.747 520.496 1026.68 486.366C1039.31 471.466 1055.4 457.386 1070.6 442.386C1106.76 406.696 1134.05 368.366 1132.07 314.656C1130.14 262.496 1162.23 218.286 1191.48 183.796C1198.32 175.736 1222.87 178.916 1246.86 183.886C1266.6 187.976 1286.09 189.616 1297.67 186.256C1356.87 169.116 1292.88 80.4155 1328.61 57.2155C1364.52 33.8955 1393.84 75.8855 1431.86 88.2255" stroke="url(#paint21_linear_77_21054)" stroke-width="0.75" stroke-miterlimit="10"/>
<path d="M11.5466 561.806C9.00664 470.336 215.987 385.726 159.047 351.376C127.947 332.616 151.157 298.446 180.077 275.256C191.847 265.826 204.517 258.656 214.507 255.516C279.687 235.026 286.737 275.936 307.647 298.306C312.327 303.316 317.837 307.086 325.277 308.376C364.157 315.086 455.477 329.366 441.977 351.916C354.397 499.076 607.297 449.586 718.427 500.106C778.917 527.606 826.207 577.586 886.267 571.976C900.157 570.676 913.317 568.166 925.477 563.846C966.707 549.196 1003.41 522.276 1032.72 488.746C1045.58 474.036 1061.38 459.876 1076.13 444.696C1111.26 408.526 1136.75 369.136 1136.08 316.166C1135.4 263.226 1165.69 217.626 1193.32 180.636C1199.75 172.026 1224.72 175.086 1249.19 179.936C1269.21 183.896 1289.03 185.746 1300.51 182.536C1361.27 165.576 1292.89 74.4756 1328.99 51.8556C1365.37 29.0456 1394.77 74.3256 1433.19 86.9056" stroke="url(#paint22_linear_77_21054)" stroke-width="0.75" stroke-miterlimit="10"/>
<path d="M10.5164 564.076C5.78639 470.646 220.946 386.036 158.936 350.916C125.346 331.896 148.746 295.986 178.016 271.796C189.946 261.936 202.826 254.416 212.906 251.156C279.926 229.496 286.256 272.346 307.216 295.196C311.946 300.356 317.546 304.216 325.146 305.476C364.656 312.016 458.606 326.496 443.436 350.406C344.916 506.436 611.216 447.666 723.726 500.246C782.276 527.606 831.626 575.346 891.256 571.096C905.146 570.106 918.326 567.876 930.496 563.836C971.896 550.086 1009.09 524.086 1038.76 491.166C1051.85 476.646 1067.36 462.406 1081.65 447.046C1115.75 410.396 1139.47 369.946 1140.08 317.726C1140.7 264.016 1169.15 217.006 1195.16 177.526C1201.19 168.376 1226.56 171.316 1251.52 176.026C1271.82 179.866 1291.97 181.916 1303.36 178.856C1365.69 162.106 1292.92 68.5855 1329.37 46.5255C1366.22 24.2355 1395.71 72.7955 1434.51 85.6255" stroke="url(#paint23_linear_77_21054)" stroke-width="0.75" stroke-miterlimit="10"/>
<path d="M9.48633 566.346C2.55633 470.956 225.946 386.356 158.826 350.456C122.766 331.166 146.346 293.536 175.956 268.326C188.046 258.036 201.126 250.156 211.306 246.786C280.156 223.936 285.776 268.746 306.786 292.076C311.566 297.386 317.256 301.336 325.016 302.566C365.166 308.926 461.726 323.616 444.896 348.876C335.446 513.776 615.176 445.666 729.026 500.356C785.646 527.556 837.056 573.096 896.246 570.186C910.136 569.506 923.326 567.566 935.526 563.796C977.096 550.946 1014.78 525.866 1044.82 493.546C1058.14 479.216 1073.36 464.896 1087.19 449.366C1120.27 412.226 1142.24 370.746 1144.09 319.246C1146.05 264.776 1172.64 216.346 1197 174.376C1202.63 164.676 1228.41 167.496 1253.85 172.086C1274.43 175.796 1294.9 178.066 1306.2 175.146C1370.11 158.636 1292.93 62.6655 1329.75 41.1755C1367.07 19.3955 1396.64 71.2455 1435.84 84.3155" stroke="url(#paint24_linear_77_21054)" stroke-width="0.75" stroke-miterlimit="10"/>
<path d="M8.45588 568.625C-0.674123 471.275 230.966 386.685 158.716 350.015C120.196 330.455 143.936 291.095 173.886 264.885C186.136 254.165 199.416 245.935 209.686 242.445C280.366 218.395 285.276 265.175 306.336 288.985C311.166 294.455 316.936 298.485 324.866 299.685C365.656 305.875 464.826 320.765 446.336 347.375C325.946 521.145 619.156 443.615 734.306 500.505C789.016 527.535 842.456 570.885 901.216 569.305C915.106 568.935 928.306 567.285 940.526 563.795C982.266 551.845 1020.44 527.695 1050.84 495.975C1064.39 481.835 1079.32 467.425 1092.7 451.725C1124.74 414.105 1145.01 371.595 1148.08 320.805C1151.42 265.595 1176.12 215.715 1198.82 171.265C1204.05 161.025 1230.24 163.725 1256.16 168.175C1277.02 171.755 1297.82 174.235 1309.02 171.455C1374.5 155.215 1292.93 56.7655 1330.1 35.8455C1367.89 14.5855 1397.55 69.7155 1437.14 83.0355" stroke="url(#paint25_linear_77_21054)" stroke-width="0.75" stroke-miterlimit="10"/>
<path d="M7.4261 570.896C-3.9039 471.586 236.016 387.016 158.606 349.556C117.636 329.726 141.526 288.646 171.826 261.426C184.236 250.276 197.726 241.696 208.086 238.086C280.586 212.826 284.786 261.576 305.906 285.876C310.786 291.496 316.646 295.616 324.736 296.786C366.156 302.806 467.946 317.896 447.786 345.866C316.466 528.516 623.186 441.476 739.596 500.636C792.406 527.476 847.866 567.616 906.196 568.416C920.086 568.606 933.306 566.996 945.536 563.776C987.436 552.736 1026.11 529.506 1056.88 498.386C1070.66 484.446 1085.3 469.946 1098.22 454.066C1129.23 415.956 1147.81 372.446 1152.08 322.346C1156.85 266.416 1179.63 215.066 1200.66 168.126C1205.49 157.336 1232.08 159.926 1258.49 164.246C1279.64 167.706 1300.75 170.406 1311.87 167.756C1378.93 151.806 1292.95 50.8556 1330.48 30.5056C1368.74 9.75557 1398.48 68.1756 1438.46 81.7356" stroke="url(#paint26_linear_77_21054)" stroke-width="0.75" stroke-miterlimit="10"/>
<path d="M6.39659 573.166C-7.13341 471.896 241.077 387.336 158.497 349.096C115.087 328.996 139.117 286.186 169.767 257.956C182.337 246.376 196.027 237.436 206.487 233.716C280.797 207.226 284.307 257.976 305.487 282.756C310.417 288.526 316.367 292.736 324.607 293.876C366.667 299.726 471.067 315.016 449.247 344.336C306.987 535.856 627.297 439.246 744.897 500.756C795.827 527.396 853.277 566.456 911.197 567.516C925.077 567.766 938.317 566.696 950.567 563.746C992.637 553.616 1031.8 531.306 1062.93 500.776C1076.95 487.036 1091.26 472.416 1103.76 456.386C1133.66 417.736 1150.65 373.306 1156.1 323.876C1162.35 267.246 1183.16 214.386 1202.51 164.986C1206.95 153.646 1233.94 156.126 1260.83 160.306C1282.26 163.636 1303.69 166.556 1314.72 164.046C1383.37 148.426 1292.98 44.9455 1330.87 25.1555C1369.6 4.92555 1399.43 66.6155 1439.8 80.4355" stroke="url(#paint27_linear_77_21054)" stroke-width="0.75" stroke-miterlimit="10"/>
<path d="M5.35646 575.446C-10.3735 472.226 246.146 387.666 158.376 348.646C112.536 328.266 136.656 283.696 167.696 254.506C180.406 242.476 194.316 233.206 204.866 229.366C280.976 201.646 283.796 254.396 305.036 279.656C310.016 285.586 316.056 289.886 324.456 290.986C367.146 296.736 474.166 312.156 450.686 342.836C297.496 543.226 631.436 436.946 750.166 500.896C799.236 527.326 858.656 564.266 916.156 566.636C930.036 567.206 943.296 566.416 955.556 563.746C997.796 554.526 1037.45 533.146 1068.95 503.206C1083.2 489.656 1097.22 474.956 1109.26 458.756C1138.14 419.636 1153.47 374.236 1160.08 325.446C1167.85 268.136 1186.66 213.746 1204.33 161.886C1208.38 149.996 1235.76 152.366 1263.14 156.416C1284.85 159.626 1306.61 162.756 1317.54 160.386C1387.77 145.126 1293.01 39.1456 1331.22 19.8556C1370.46 0.22556 1400.33 65.1156 1441.1 79.1756" stroke="url(#paint28_linear_77_21054)" stroke-width="0.75" stroke-miterlimit="10"/>
<path d="M4.32649 577.716C-13.5935 472.536 251.236 387.985 158.266 348.185C109.996 327.515 134.256 281.255 165.626 251.035C178.506 238.575 192.606 228.955 203.256 224.995C281.166 196.035 283.296 250.795 304.596 276.535C309.626 282.615 315.756 287.006 324.316 288.076C367.646 293.636 477.277 309.275 452.137 341.305C288.007 550.565 635.666 434.526 755.456 501.016C802.676 527.226 864.046 562.065 921.136 565.725C935.006 566.615 948.286 566.126 960.576 563.706C1003 555.456 1043.14 534.945 1074.99 505.585C1089.47 492.235 1103.21 477.455 1114.78 461.065C1142.64 421.465 1156.32 375.125 1164.08 326.955C1173.41 268.985 1190.19 213.035 1206.16 158.725C1209.82 146.285 1237.59 148.595 1265.45 152.455C1287.44 155.575 1309.52 158.895 1320.36 156.655C1392.18 141.775 1292.99 33.1955 1331.57 14.4855C1371.27 -4.64451 1401.24 63.5455 1442.39 77.8555" stroke="url(#paint29_linear_77_21054)" stroke-width="0.75" stroke-miterlimit="10"/>
<path d="M3.29617 579.986C-16.8238 472.846 256.336 388.306 158.156 347.726C107.466 326.776 131.866 278.816 163.566 247.576C176.606 234.696 190.906 224.706 201.656 220.636C281.366 190.426 282.776 247.236 304.166 273.416C309.236 279.656 315.466 284.116 324.186 285.176C368.156 290.546 480.396 306.406 453.596 339.796C278.536 557.926 639.976 432.026 760.756 501.146C806.146 527.126 869.446 559.876 926.126 564.836C939.996 566.046 953.296 565.836 965.596 563.686C1008.18 556.326 1048.85 536.806 1081.03 507.996C1095.76 494.866 1109.19 479.976 1120.31 463.406C1147.15 423.336 1159.21 376.076 1168.09 328.496C1179.03 269.906 1193.83 212.376 1208 155.596C1211.29 142.596 1239.44 144.786 1267.78 148.536C1290.05 151.516 1312.45 155.076 1323.21 152.956C1396.62 138.496 1293 27.2756 1331.96 9.14556C1372.12 -9.48444 1402.18 62.0056 1443.73 76.5556" stroke="url(#paint30_linear_77_21054)" stroke-width="0.75" stroke-miterlimit="10"/>
<path d="M2.26626 582.266C-20.0537 473.166 261.446 388.636 158.046 347.276C83.0463 317.276 162.886 230.626 200.046 216.276C301.046 177.276 278.046 276.936 324.046 282.276C368.656 287.456 483.506 303.536 455.046 338.276C269.046 565.276 644.356 429.396 766.046 501.276C820.356 533.356 908.246 573.116 970.606 563.666C1032.97 554.216 1091.96 518.956 1125.83 465.746C1151.64 425.206 1162.09 377.056 1172.08 330.046C1184.66 270.856 1197.25 211.666 1209.83 152.476C1214.97 128.306 1301.75 153.806 1326.04 149.276C1401.04 135.276 1293 21.3655 1332.32 3.81553C1372.94 -14.3145 1403.09 60.4755 1445.04 75.2755" stroke="url(#paint31_linear_77_21054)" stroke-width="0.75" stroke-miterlimit="10"/>
<path d="M5.67625 574.646C-14.0137 468.476 259.886 386.056 161.196 345.766C89.5263 316.556 167.726 232.876 204.526 219.056C303.156 182.006 281.426 278.306 326.736 284.026C333.756 284.906 342.536 286.056 352.196 287.516C402.836 295.146 478.116 311.176 455.456 339.736C438.866 360.656 427.026 378.386 419.296 393.416C344.846 538.206 654.546 435.516 763.786 497.486C789.486 512.066 822.476 530.906 855.706 542.206C881.936 551.126 906.276 555.906 931.576 557.346C944.886 558.106 957.246 558.366 968.596 557.236C990.426 555.066 1011.45 550.216 1032 541.386C1069.03 525.336 1103.14 498.376 1125.89 464.926C1137.26 448.206 1143.76 427.346 1150.63 408.096C1160.68 379.956 1170.42 357.466 1176.47 329.796C1189.14 271.886 1201.46 213.956 1213.98 156.116C1219.21 132.306 1303.44 156.536 1327.21 151.856C1400.17 137.496 1296.04 26.9455 1334.38 9.48553C1374.04 -8.64447 1403.42 63.2355 1443.89 77.1355" stroke="url(#paint32_linear_77_21054)" stroke-width="0.75" stroke-miterlimit="10"/>
<path d="M9.09648 567.035C-7.96352 463.795 258.336 383.485 164.366 344.275C96.0265 315.865 172.576 235.146 209.016 221.846C305.256 186.736 284.826 279.686 329.436 285.796C336.336 286.726 344.926 287.925 354.386 289.415C403.896 297.215 477.296 313.255 455.876 341.215C440.186 361.695 429.046 379.005 421.826 393.675C352.286 534.865 653.376 434.795 761.536 493.725C787.946 508.115 821.816 529.366 854.756 539.526C881.426 547.756 903.496 550.015 929.306 550.505C943.056 550.765 955.386 551.365 966.576 550.855C988.026 549.875 1008.33 546.886 1029.04 538.716C1066.3 524.016 1102.27 496.785 1125.93 464.165C1137.9 447.675 1142.79 424.235 1150.01 404.705C1161.06 374.825 1174.55 357.605 1180.84 329.615C1193.57 272.985 1205.48 216.276 1218.12 159.826C1223.37 136.375 1305.12 159.336 1328.37 154.516C1399.29 139.806 1299.08 32.5955 1336.43 15.2355C1375.13 -2.8945 1403.73 66.0755 1442.74 79.0755" stroke="url(#paint33_linear_77_21054)" stroke-width="0.75" stroke-miterlimit="10"/>
<path d="M12.5066 559.426C-1.92338 459.116 256.777 380.916 167.517 342.776C102.507 315.156 177.407 237.406 213.497 224.636C307.337 191.436 288.207 281.056 332.117 287.556C338.897 288.536 347.307 289.776 356.557 291.306C404.947 299.286 476.467 315.326 456.287 342.686C441.507 362.716 431.067 379.616 424.347 393.916C359.727 531.486 652.277 433.976 759.277 489.956C786.417 504.156 821.167 527.786 853.797 536.826C880.937 544.356 900.707 544.096 927.027 543.646C941.217 543.406 953.507 544.696 964.547 544.446C985.597 543.966 1005.19 543.486 1026.07 536.006C1063.53 522.586 1101.4 495.166 1125.97 463.366C1138.54 447.096 1141.83 421.086 1149.39 401.276C1161.45 369.666 1178.68 357.706 1185.21 329.396C1197.99 274.046 1209.59 218.576 1222.25 163.506C1227.56 140.406 1306.78 162.116 1329.52 157.146C1398.39 142.086 1302.14 38.3056 1338.47 20.9556C1376.26 2.91555 1404.03 68.8956 1441.57 80.9856" stroke="url(#paint34_linear_77_21054)" stroke-width="0.75" stroke-miterlimit="10"/>
<path d="M15.916 551.816C4.11596 454.436 255.226 378.346 170.666 341.276C108.986 314.456 182.226 239.656 217.966 227.416C309.386 196.106 291.556 282.536 334.796 289.316C341.446 290.356 349.676 291.626 358.726 293.196C405.996 301.356 475.636 317.386 456.686 344.156C442.816 363.746 433.066 380.226 426.856 394.156C367.156 528.086 651.246 433.056 757.006 486.176C784.886 500.176 820.546 526.166 852.826 534.126C880.456 540.946 897.906 538.166 924.736 536.776C939.376 536.026 951.606 537.296 962.506 538.026C983.156 539.406 1002.03 540.076 1023.08 533.296C1060.74 521.156 1100.54 493.556 1125.99 462.566C1139.17 446.526 1140.86 417.946 1148.75 397.836C1161.83 364.496 1182.79 357.786 1189.57 329.176C1202.38 275.106 1213.7 220.886 1226.37 167.176C1231.74 144.436 1308.44 164.876 1330.66 159.756C1397.48 144.356 1305.17 43.9356 1340.5 26.6656C1377.35 8.64555 1404.32 71.6956 1440.4 82.8856" stroke="url(#paint35_linear_77_21054)" stroke-width="0.75" stroke-miterlimit="10"/>
<path d="M19.3264 544.195C10.1564 449.745 253.666 375.766 173.816 339.766C115.466 313.736 187.036 241.905 222.446 230.195C311.436 200.765 294.936 283.925 337.486 291.065C344.016 292.165 352.066 293.465 360.896 295.085C407.036 303.415 474.806 319.455 457.096 345.615C444.146 364.755 435.086 380.815 429.376 394.395C374.606 524.655 650.296 432.055 754.746 482.395C783.376 496.195 819.946 524.505 851.876 531.425C880.026 537.525 895.136 532.215 922.466 529.915C937.556 528.645 949.716 530.265 960.486 531.615C980.716 534.165 998.886 536.676 1020.12 530.586C1057.97 519.726 1099.72 491.946 1126.04 461.766C1139.83 445.946 1139.93 414.805 1148.14 394.405C1162.25 359.345 1186.92 357.885 1193.95 328.955C1206.78 276.155 1217.83 223.185 1230.52 170.845C1235.95 148.465 1310.12 167.645 1331.83 162.375C1396.6 146.645 1308.22 49.5755 1342.56 32.3755C1378.46 14.3855 1404.64 74.4955 1439.25 84.7855" stroke="url(#paint36_linear_77_21054)" stroke-width="0.75" stroke-miterlimit="10"/>
<path d="M22.7366 536.586C16.1866 445.076 252.197 373.005 176.977 338.275C122.027 312.905 191.857 244.166 226.927 232.986C313.467 205.406 298.317 285.326 340.177 292.826C346.577 293.976 354.457 295.325 363.077 296.975C408.097 305.485 473.997 321.505 457.517 347.085C445.477 365.775 437.117 381.415 431.907 394.635C382.077 521.195 649.427 430.965 752.497 478.615C781.897 492.205 819.387 522.816 850.927 528.716C879.617 534.076 892.357 526.245 920.197 523.045C935.737 521.255 947.827 523.216 958.467 525.206C978.277 528.906 995.747 533.275 1017.16 527.875C1055.2 518.295 1098.92 490.335 1126.08 460.965C1140.5 445.375 1139 411.665 1147.52 390.975C1162.67 354.185 1191.04 357.985 1198.32 328.735C1211.14 277.205 1221.95 225.486 1234.65 174.516C1240.14 152.496 1311.79 170.415 1332.98 164.995C1395.7 148.945 1311.26 55.2155 1344.59 38.0855C1379.55 20.1155 1404.93 77.3055 1438.07 86.6855" stroke="url(#paint37_linear_77_21054)" stroke-width="0.75" stroke-miterlimit="10"/>
<path d="M26.1564 528.976C22.2364 440.396 250.666 370.406 180.136 336.776C128.526 312.176 196.666 246.416 231.416 235.776C315.496 210.016 301.696 286.726 342.876 294.596C349.156 295.796 356.846 297.186 365.266 298.876C409.166 307.566 473.186 323.566 457.936 348.566C446.816 366.796 439.146 382.016 434.436 394.896C389.546 517.716 648.606 429.806 750.246 474.856C780.416 488.226 818.846 521.116 849.976 526.036C879.216 530.656 889.586 520.306 917.926 516.206C933.906 513.896 945.936 516.186 956.446 518.816C975.826 523.656 992.596 529.886 1014.2 525.196C1052.43 516.886 1098.14 488.766 1126.13 460.196C1141.18 444.836 1138.08 408.556 1146.91 387.566C1163.11 349.056 1195.17 358.096 1202.7 328.536C1215.51 278.276 1226.09 227.806 1238.79 178.206C1244.34 156.536 1313.46 173.206 1334.14 167.636C1394.81 151.276 1314.31 60.8656 1346.64 43.8156C1380.66 25.8656 1405.24 80.1256 1436.92 88.6056" stroke="url(#paint38_linear_77_21054)" stroke-width="0.75" stroke-miterlimit="10"/>
<path d="M29.5662 521.366C28.2762 435.716 249.136 367.796 183.286 335.276C135.026 311.436 201.466 248.666 235.886 238.566C317.486 214.606 305.066 288.116 345.546 296.356C351.696 297.606 359.216 299.036 367.416 300.766C410.196 309.636 472.356 325.606 458.326 350.036C448.116 367.806 441.146 382.606 436.936 395.136C396.986 514.176 647.816 428.546 747.966 471.076C778.926 484.226 818.286 519.366 848.996 523.326C878.816 527.176 886.786 514.316 915.636 509.326C932.066 506.486 944.016 509.116 954.406 512.386C973.346 518.356 989.436 526.466 1011.22 522.466C1049.63 515.416 1097.35 487.156 1126.16 459.376C1141.85 444.246 1137.15 405.406 1146.27 384.116C1163.52 343.886 1199.26 358.176 1207.05 328.296C1219.83 279.306 1230.21 230.086 1242.91 181.856C1248.52 160.546 1315.11 175.966 1335.28 170.226C1393.89 153.566 1317.34 66.4756 1348.67 49.4956C1381.75 31.5656 1405.53 82.8956 1435.74 90.4756" stroke="url(#paint39_linear_77_21054)" stroke-width="0.75" stroke-miterlimit="10"/>
<path d="M32.9766 513.745C34.3166 431.025 247.597 365.185 186.437 333.775C141.517 310.705 206.257 250.915 240.367 241.345C319.467 219.155 308.447 289.505 348.237 298.115C354.267 299.415 361.597 300.895 369.597 302.655C411.247 311.695 471.547 327.645 458.737 351.505C449.447 368.815 443.167 383.195 439.457 395.375C404.437 510.585 647.097 427.215 745.707 467.305C777.467 480.215 817.767 517.575 848.047 520.635C878.327 523.695 884.017 508.345 913.367 502.475C930.247 499.095 942.117 502.055 952.387 505.985C970.887 513.065 986.287 523.066 1008.26 519.776C1046.85 513.996 1096.59 485.585 1126.2 458.595C1142.53 443.705 1136.23 402.285 1145.65 380.705C1163.97 338.765 1203.37 358.295 1211.42 328.095C1224.16 280.365 1234.35 232.405 1247.04 185.555C1252.72 164.605 1316.76 178.775 1336.43 172.875C1392.98 155.925 1320.37 72.1355 1350.71 55.2355C1382.85 37.3255 1405.83 85.7355 1434.58 92.4055" stroke="url(#paint40_linear_77_21054)" stroke-width="0.75" stroke-miterlimit="10"/>
<path d="M36.3867 506.136C40.3567 426.346 246.067 362.576 189.597 332.276C148.027 309.976 211.047 253.156 244.857 244.136C321.437 223.686 311.827 290.896 350.937 299.876C356.847 301.236 363.997 302.746 371.787 304.546C412.317 313.766 470.757 329.666 459.167 352.976C450.797 369.816 445.207 383.766 441.997 395.626C411.907 506.966 646.447 425.816 743.467 463.536C776.047 476.206 817.387 521.226 847.107 517.946C878.007 514.526 881.257 502.366 911.107 495.626C928.437 491.706 940.227 494.996 950.377 499.596C968.437 507.766 983.147 519.676 1005.31 517.086C1044.08 512.556 1095.85 484.036 1126.26 457.816C1143.25 443.166 1135.33 399.176 1145.05 377.286C1164.44 333.636 1207.49 358.406 1215.82 327.896C1228.5 281.426 1238.52 234.736 1251.2 189.246C1256.94 168.656 1318.45 181.576 1337.61 175.516C1392.1 158.286 1323.44 77.7856 1352.78 60.9656C1383.98 43.0756 1406.17 88.5556 1433.44 94.3356" stroke="url(#paint41_linear_77_21054)" stroke-width="0.75" stroke-miterlimit="10"/>
<path d="M39.8066 498.525C46.4066 421.665 244.547 359.975 192.757 330.775C154.547 309.235 215.827 255.395 249.337 246.915C323.387 228.175 315.207 292.275 353.627 301.625C359.407 303.035 366.387 304.585 373.967 306.425C413.377 315.825 469.947 331.675 459.577 354.435C452.127 370.795 447.227 384.325 444.517 395.855C419.327 503.256 645.807 424.315 741.207 459.745C774.607 472.145 817.067 519.515 846.147 515.225C877.457 510.605 878.477 496.355 908.827 488.735C926.607 484.275 938.327 487.885 948.357 493.155C965.977 502.405 979.997 516.225 1002.34 514.345C1041.29 511.075 1095.11 482.435 1126.3 456.985C1143.94 442.585 1134.42 396.016 1144.43 373.826C1164.89 328.465 1211.59 358.465 1220.19 327.645C1232.8 282.435 1242.67 237.005 1255.34 192.885C1261.15 172.645 1320.12 184.325 1338.77 178.095C1391.2 160.595 1326.49 83.3755 1354.83 66.6355C1385.08 48.7655 1406.48 91.3155 1432.29 96.1955" stroke="url(#paint42_linear_77_21054)" stroke-width="0.75" stroke-miterlimit="10"/>
<path d="M43.2158 490.915C52.4458 416.985 243.026 357.365 195.906 329.285C161.046 308.515 220.596 257.635 253.816 249.715C325.316 232.655 318.576 293.675 356.316 303.405C361.976 304.865 368.766 306.475 376.136 308.335C414.396 317.985 469.136 333.695 459.986 355.925C453.446 371.795 449.246 384.915 447.046 396.125C426.726 499.535 645.216 422.785 738.956 455.995C773.186 468.125 816.766 517.745 845.206 512.555C876.926 506.765 875.706 490.375 906.566 481.905C924.786 476.905 936.436 480.835 946.346 486.775C963.536 497.095 976.856 512.845 999.386 511.675C1038.51 509.655 1094.4 480.925 1126.36 456.225C1144.67 442.075 1133.53 392.925 1143.83 370.435C1165.38 323.365 1215.71 358.605 1224.58 327.465C1237.11 283.505 1246.85 239.345 1259.49 196.595C1265.37 176.715 1321.79 187.155 1339.94 180.755C1390.3 163.005 1329.54 89.0455 1356.88 72.3855C1386.19 54.5255 1406.79 94.1655 1431.13 98.1355" stroke="url(#paint43_linear_77_21054)" stroke-width="0.75" stroke-miterlimit="10"/>
<path d="M46.626 483.296C58.486 412.296 241.516 354.746 199.056 327.776C167.556 307.766 225.356 259.856 258.286 252.486C327.216 237.066 321.946 295.046 358.986 305.146C364.516 306.656 371.126 308.316 378.296 310.206C415.436 320.036 468.316 335.666 460.386 357.376C454.766 372.746 451.256 385.446 449.556 396.346C434.076 495.686 644.636 421.146 736.696 452.196C771.766 464.026 816.456 515.826 844.246 509.826C876.376 502.896 872.916 484.346 904.286 475.016C922.956 469.466 934.536 473.706 944.316 480.336C961.076 491.706 973.696 509.396 996.416 508.936C1035.72 508.156 1093.67 479.346 1126.39 455.396C1145.37 441.506 1132.61 389.776 1143.2 366.966C1165.84 318.196 1219.79 358.656 1228.94 327.206C1241.37 284.496 1251 241.616 1263.62 200.226C1269.57 180.706 1323.44 189.906 1341.08 183.336C1389.38 165.356 1332.57 94.6255 1358.91 78.0555C1387.28 60.2055 1407.08 96.9255 1429.96 99.9955" stroke="url(#paint44_linear_77_21054)" stroke-width="0.75" stroke-miterlimit="10"/>
<path d="M50.0361 475.686C64.5261 407.616 240.006 352.136 202.216 326.276C174.086 307.026 230.116 262.076 262.776 255.276C329.116 241.466 325.326 296.426 361.686 306.916C367.096 308.476 373.526 310.176 380.486 312.106C416.496 322.116 467.526 337.646 460.806 358.856C456.096 373.726 453.276 385.996 452.086 396.596C441.376 491.796 644.106 419.456 734.446 448.426C770.376 459.946 816.146 513.846 843.296 507.136C875.836 499.086 870.136 478.346 902.016 468.156C921.126 462.056 932.656 466.606 942.296 473.936C958.636 486.346 970.536 506.516 993.456 506.246C1032.93 505.786 1092.97 477.826 1126.44 454.616C1146.09 440.986 1131.72 386.666 1142.59 363.556C1166.32 313.086 1223.88 358.776 1233.32 327.006C1245.64 285.546 1255.18 243.936 1267.76 203.916C1273.79 184.746 1325.1 192.716 1342.24 185.976C1388.48 167.776 1335.61 100.276 1360.96 83.7855C1388.39 65.9455 1407.39 99.7455 1428.8 101.916" stroke="url(#paint45_linear_77_21054)" stroke-width="0.75" stroke-miterlimit="10"/>
<path d="M53.4561 468.076C70.5761 402.936 238.516 349.526 205.376 324.786C180.626 306.306 234.876 264.296 267.256 258.076C330.996 245.826 328.706 297.826 364.376 308.686C369.656 310.296 375.916 312.036 382.656 314.006C417.546 324.196 466.706 339.616 461.216 360.326C457.406 374.676 455.286 386.536 454.606 396.846C448.606 487.836 643.596 417.716 732.186 444.666C768.966 455.856 815.806 511.806 842.336 504.446C875.286 495.316 867.346 472.336 899.736 461.306C919.286 454.646 930.766 459.516 940.266 467.536C956.206 480.986 967.376 502.566 990.486 503.546C1030.14 505.236 1092.26 476.316 1126.48 453.826C1146.81 440.466 1130.82 383.546 1141.96 360.136C1166.79 307.966 1227.95 358.876 1237.69 326.796C1249.9 286.586 1259.35 246.256 1271.89 207.606C1277.99 188.796 1326.76 195.536 1343.39 188.606C1387.57 170.206 1338.65 105.906 1363 89.5056C1389.48 71.6756 1407.69 102.566 1427.63 103.826" stroke="url(#paint46_linear_77_21054)" stroke-width="0.75" stroke-miterlimit="10"/>
<path d="M56.8662 460.456C76.6062 398.256 237.036 346.916 208.526 323.276C187.156 305.556 239.606 266.486 271.736 260.846C332.856 250.126 332.076 299.186 367.066 310.426C372.226 312.086 378.296 313.876 384.836 315.886C418.596 326.256 465.886 341.546 461.626 361.786C458.716 375.606 457.286 387.046 457.126 397.076C455.736 483.776 643.096 415.896 729.926 440.876C767.576 451.706 815.446 509.646 841.386 501.736C874.766 491.556 864.566 466.306 897.476 454.436C917.466 447.226 928.896 452.396 938.256 461.116C953.796 475.596 964.236 499.126 987.536 500.836C1027.36 503.756 1091.57 474.796 1126.53 453.026C1147.54 439.936 1129.93 380.426 1141.35 356.696C1167.29 302.836 1232.03 358.956 1242.07 326.576C1254.15 287.606 1263.54 248.566 1276.04 211.276C1282.22 192.826 1328.43 198.346 1344.56 191.226C1386.68 172.646 1341.7 111.516 1365.06 95.2155C1390.6 77.3855 1408.01 105.366 1426.49 105.726" stroke="url(#paint47_linear_77_21054)" stroke-width="0.75" stroke-miterlimit="10"/>
<path d="M60.2764 452.846C82.6464 393.576 235.576 344.316 211.676 321.776C193.706 304.826 244.336 268.666 276.206 263.636C334.696 254.396 335.446 300.556 369.746 312.196C374.776 313.906 380.676 315.736 387.006 317.786C419.646 328.336 465.046 343.476 462.036 363.266C460.016 376.546 459.276 387.576 459.646 397.336C462.746 479.676 642.626 414.036 727.666 437.116C766.196 447.566 813.886 502.176 840.426 499.056C875.806 494.896 861.766 460.306 895.196 447.596C915.626 439.826 927.016 445.306 936.226 454.726C951.376 470.226 961.076 495.716 984.566 498.146C1024.57 502.286 1090.87 473.316 1126.57 452.236C1148.26 439.436 1129.03 377.316 1140.73 353.276C1167.78 297.716 1236.09 359.056 1246.44 326.366C1258.38 288.636 1267.73 250.886 1280.17 214.956C1286.43 196.866 1330.08 201.166 1345.71 193.856C1385.77 175.116 1344.73 117.146 1367.1 100.936C1391.69 83.1155 1408.31 108.176 1425.32 107.636" stroke="url(#paint48_linear_77_21054)" stroke-width="0.75" stroke-miterlimit="10"/>
<path d="M63.6865 445.236C88.6865 388.896 234.137 341.736 214.837 320.276C200.287 304.106 249.067 270.836 280.697 266.416C336.537 258.606 338.837 301.926 372.447 313.946C377.357 315.706 383.067 317.576 389.187 319.666C420.697 330.396 464.207 345.366 462.447 364.726C461.297 377.456 461.257 388.076 462.167 397.566C469.627 475.496 642.157 412.106 725.407 433.326C764.817 443.376 813.397 500.106 839.467 496.336C875.467 491.126 858.967 454.266 892.917 440.706C913.787 432.376 925.147 438.166 934.197 448.296C948.967 464.826 957.917 492.256 981.587 495.416C1021.76 500.776 1090.16 471.796 1126.6 451.416C1148.97 438.896 1128.12 374.166 1140.1 349.826C1168.26 292.576 1240.14 359.116 1250.8 326.126C1262.59 289.636 1271.92 253.176 1284.29 218.606C1290.64 200.876 1331.72 203.966 1346.85 196.446C1384.86 177.566 1347.75 122.726 1369.13 106.616C1392.77 88.7855 1408.61 110.956 1424.15 109.506" stroke="url(#paint49_linear_77_21054)" stroke-width="0.75" stroke-miterlimit="10"/>
<path d="M67.0967 437.626C94.7267 384.216 232.727 339.186 217.987 318.786C206.877 303.416 253.787 273.006 285.177 269.216C338.357 262.796 342.217 303.306 375.127 315.726C379.917 317.526 385.447 319.456 391.357 321.576C421.747 332.486 463.327 347.276 462.857 366.216C462.557 378.386 463.217 388.596 464.687 397.826C476.347 471.296 641.707 410.146 723.147 429.566C763.437 439.176 812.897 498.056 838.517 493.656C875.117 487.366 856.177 448.256 890.647 433.866C911.957 424.966 923.287 431.076 932.177 441.906C946.577 459.456 954.767 488.846 978.627 492.736C1018.98 499.316 1089.48 470.346 1126.64 450.646C1149.7 438.426 1127.22 371.076 1139.48 346.416C1168.76 287.486 1244.19 359.226 1255.17 325.926C1266.8 290.676 1276.12 255.506 1288.43 222.296C1294.87 204.926 1333.38 206.816 1348.01 199.086C1383.97 180.086 1350.79 128.356 1371.17 112.346C1393.87 94.5155 1408.91 113.776 1422.98 111.426" stroke="url(#paint50_linear_77_21054)" stroke-width="0.75" stroke-miterlimit="10"/>
<path d="M70.5166 430.005C100.777 379.525 231.367 336.685 221.147 317.275C213.497 302.745 258.497 275.125 289.657 271.985C340.157 266.905 345.597 304.655 377.817 317.465C382.477 319.315 387.827 321.285 393.537 323.445C422.797 334.525 462.427 349.135 463.277 367.665C463.807 379.265 465.177 389.075 467.217 398.055C482.897 467.045 641.267 408.105 720.897 425.775C762.087 434.915 812.397 495.955 837.567 490.935C874.757 483.525 853.387 442.205 888.377 426.985C910.117 417.525 921.437 423.935 930.157 435.475C944.197 454.045 951.617 485.385 975.667 490.005C1016.2 497.795 1088.79 468.846 1126.69 449.826C1150.44 437.906 1126.34 367.935 1138.87 342.965C1169.28 282.345 1248.23 359.285 1259.55 325.685C1271.02 291.665 1280.34 257.805 1292.57 225.945C1299.1 208.935 1335.05 209.635 1349.17 201.685C1383.09 182.595 1353.83 133.945 1373.22 118.035C1394.97 100.195 1409.22 116.555 1421.83 113.315" stroke="url(#paint51_linear_77_21054)" stroke-width="0.75" stroke-miterlimit="10"/>
<path d="M73.9258 422.396C106.816 374.846 229.996 334.286 224.296 315.776C220.106 302.156 264.296 283.306 294.136 274.776C340.256 261.586 348.976 306.026 380.506 319.226C385.046 321.126 390.216 323.136 395.716 325.336C423.856 336.596 461.486 351.006 463.686 369.136C465.026 380.166 467.096 389.576 469.736 398.296C489.256 462.826 640.826 406.026 718.636 422.006C760.716 430.646 811.876 493.856 836.606 488.246C874.376 479.686 850.586 436.186 886.096 420.126C908.276 410.106 919.576 416.826 928.126 429.066C941.806 448.666 948.466 481.946 972.696 487.306C1013.42 496.306 1088.1 467.396 1126.73 449.036C1151.17 437.426 1125.45 364.826 1138.25 339.546C1169.79 277.246 1252.26 359.366 1263.93 325.476C1275.22 292.686 1284.57 260.136 1296.71 229.636C1303.34 212.986 1336.72 212.496 1350.33 204.326C1382.23 185.166 1356.87 139.566 1375.27 123.766C1396.06 105.916 1409.53 119.386 1420.67 115.236" stroke="url(#paint52_linear_77_21054)" stroke-width="0.75" stroke-miterlimit="10"/>
<path d="M77.3359 414.786C112.856 370.166 228.556 332.016 227.456 314.286C226.666 301.666 268.876 285.416 298.616 277.576C342.326 266.036 352.356 307.396 383.196 321.006C387.606 322.956 392.606 325.006 397.886 327.246C424.896 338.676 460.506 352.906 464.096 370.626C466.216 381.086 468.996 390.096 472.256 398.566C495.436 458.696 640.386 403.926 716.376 418.256C759.356 426.356 811.346 491.756 835.646 485.576C873.976 475.816 847.776 430.176 883.816 413.296C906.426 402.706 917.726 409.746 926.096 422.696C939.426 443.316 945.306 478.546 969.726 484.636C1010.63 494.846 1087.41 465.976 1126.77 448.276C1151.9 436.976 1124.55 361.746 1137.62 336.146C1170.29 272.166 1256.26 359.466 1268.29 325.296C1279.4 293.726 1288.79 262.496 1300.84 233.346C1307.57 217.066 1338.38 215.396 1351.48 206.976C1381.36 187.776 1359.89 145.196 1377.31 129.506C1397.15 111.646 1409.83 122.216 1419.51 117.166" stroke="url(#paint53_linear_77_21054)" stroke-width="0.75" stroke-miterlimit="10"/>
<path d="M80.7461 407.176C118.896 365.486 226.956 329.806 230.606 312.786C233.086 301.206 273.416 287.416 303.096 280.356C344.406 270.536 355.736 308.746 385.886 322.756C390.176 324.746 394.986 326.856 400.066 329.126C425.956 340.726 459.486 354.796 464.506 372.086C467.386 381.996 470.866 390.606 474.776 398.796C501.446 454.606 639.936 401.746 714.116 414.466C758.006 421.986 810.796 489.616 834.696 482.856C873.556 471.866 844.976 424.126 881.556 406.416C904.596 395.256 915.896 402.606 924.086 416.266C937.076 437.916 942.176 475.076 966.776 481.916C1007.87 493.326 1086.74 464.516 1126.82 447.466C1152.64 436.486 1123.67 358.616 1137.01 332.706C1170.81 267.056 1260.28 359.526 1272.67 325.066C1283.58 294.716 1293.04 264.816 1304.98 237.006C1311.82 221.086 1340.07 218.246 1352.64 209.586C1380.52 190.366 1362.92 150.786 1379.36 135.206C1398.24 117.326 1410.14 125.006 1418.35 119.056" stroke="url(#paint54_linear_77_21054)" stroke-width="0.75" stroke-miterlimit="10"/>
<path d="M84.166 399.556C124.946 360.796 225.156 327.486 233.766 311.276C239.396 300.676 277.936 289.266 307.576 283.136C346.496 275.076 359.126 310.096 388.566 324.516C392.736 326.556 397.366 328.706 402.236 331.016C427.006 342.786 458.416 356.716 464.916 373.556C468.526 382.916 472.716 391.156 477.296 399.046C507.306 450.686 639.476 399.546 711.856 410.696C756.646 417.596 810.246 487.476 833.736 480.166C873.116 467.916 842.166 418.096 879.276 399.556C902.746 387.826 914.056 395.496 922.056 409.856C934.706 432.536 939.016 471.636 963.796 479.206C1005.08 491.816 1086.03 463.066 1126.85 446.666C1153.36 436.016 1122.77 355.496 1136.38 329.276C1171.32 261.946 1264.26 359.586 1277.03 324.846C1287.74 295.716 1297.27 267.146 1309.1 240.676C1316.05 225.126 1341.74 221.126 1353.78 212.206C1379.69 192.996 1365.92 156.376 1381.39 140.916C1399.3 123.006 1410.43 127.816 1417.17 120.956" stroke="url(#paint55_linear_77_21054)" stroke-width="0.75" stroke-miterlimit="10"/>
<path d="M87.5762 391.946C130.986 356.116 223.276 324.996 236.916 309.786C245.646 300.046 282.426 290.986 312.056 285.926C348.586 279.696 362.516 311.456 391.256 326.276C395.306 328.366 399.746 330.556 404.406 332.906C428.056 344.846 457.306 358.676 465.316 375.026C469.646 383.866 474.526 391.726 479.806 399.286C513.066 446.916 639.006 397.296 709.586 406.916C755.276 413.146 809.656 485.316 832.766 477.456C872.626 463.906 839.346 412.056 876.986 392.686C900.886 380.386 912.206 388.386 920.026 403.436C932.346 427.156 935.866 468.176 960.826 476.486C1002.3 490.296 1085.34 461.626 1126.89 445.856C1154.09 435.536 1121.88 352.376 1135.76 325.826C1171.84 256.826 1268.23 359.616 1281.4 324.606C1291.91 296.686 1301.53 269.456 1313.24 244.326C1320.31 229.156 1343.44 224.006 1354.94 214.796C1378.89 195.626 1368.94 161.936 1383.43 146.596C1400.37 128.666 1410.73 130.586 1416.01 122.826" stroke="url(#paint56_linear_77_21054)" stroke-width="0.75" stroke-miterlimit="10"/>
<path d="M90.9863 384.335C137.026 351.435 221.446 322.355 240.076 308.285C251.956 299.305 286.916 292.485 316.536 288.715C350.686 284.375 365.906 312.806 393.946 328.046C397.866 330.176 402.136 332.415 406.586 334.815C429.106 346.925 456.176 360.695 465.736 376.505C470.776 384.845 476.346 392.335 482.336 399.535C518.796 443.355 638.536 395.015 707.336 403.145C753.926 408.655 809.076 483.166 831.826 474.766C872.146 459.876 836.546 406.025 874.726 385.835C899.056 372.965 910.386 381.286 918.016 397.046C930.006 421.796 932.736 464.745 957.876 473.805C999.546 488.815 1084.66 460.225 1126.94 445.085C1154.83 435.095 1121 349.285 1135.15 322.425C1172.38 251.755 1272.19 359.695 1285.79 324.415C1296.08 297.705 1305.82 271.835 1317.39 248.025C1324.58 233.225 1345.17 226.936 1356.11 217.446C1378.14 198.326 1371.97 167.556 1385.49 152.336C1401.46 134.376 1411.05 133.415 1414.86 124.755" stroke="url(#paint57_linear_77_21054)" stroke-width="0.75" stroke-miterlimit="10"/>
<path d="M94.3965 376.726C143.056 346.766 219.707 319.656 243.227 306.786C258.317 298.526 291.447 288.956 321.017 291.496C352.737 294.226 369.297 314.146 396.637 329.796C400.437 331.976 404.527 334.256 408.767 336.696C430.167 348.976 455.026 362.746 466.156 377.966C471.906 385.836 478.156 392.966 484.866 399.776C524.546 440.006 638.046 392.686 705.086 399.366C752.576 404.096 808.486 480.986 830.876 472.066C871.636 455.816 833.746 399.986 872.456 378.966C897.206 365.526 908.556 374.166 915.996 390.626C927.656 416.416 929.606 461.286 954.916 471.086C996.776 487.286 1083.97 458.796 1126.99 444.276C1155.57 434.636 1120.12 346.156 1134.54 318.986C1172.92 246.646 1276.14 359.726 1290.17 324.186C1300.24 298.686 1310.1 274.176 1321.54 251.686C1328.87 237.266 1346.92 229.846 1357.28 220.056C1377.42 201.016 1374.99 173.126 1387.55 158.036C1402.54 140.036 1411.38 136.216 1413.72 126.646" stroke="url(#paint58_linear_77_21054)" stroke-width="0.75" stroke-miterlimit="10"/>
<path d="M97.8066 369.106C149.097 342.076 218.037 316.946 246.377 305.286C264.717 297.736 296.197 290.646 325.497 294.286C354.587 297.896 372.697 315.486 399.327 331.556C403.007 333.776 406.907 336.106 410.937 338.586C431.227 351.036 453.877 364.856 466.557 379.436C473.017 386.866 479.947 393.646 487.377 400.016C530.337 436.846 637.517 390.336 702.817 395.596C751.197 399.496 807.857 478.826 829.907 469.366C871.067 451.716 830.917 393.946 870.167 372.106C895.347 358.096 906.707 367.066 913.957 384.216C925.297 411.056 926.447 457.836 951.937 468.386C993.997 485.786 1083.26 457.386 1127.02 443.486C1156.29 434.186 1119.22 343.056 1133.9 315.556C1173.43 241.546 1280.03 359.746 1294.52 323.976C1304.36 299.676 1314.37 276.536 1325.65 255.376C1333.12 241.346 1348.65 232.796 1358.41 222.696C1376.7 203.746 1377.97 178.726 1389.57 163.766C1403.56 145.726 1411.66 139.036 1412.53 128.566" stroke="url(#paint59_linear_77_21054)" stroke-width="0.75" stroke-miterlimit="10"/>
<path d="M101.227 361.496C155.147 337.396 216.417 314.246 249.537 303.786C271.157 296.956 301.007 292.216 329.977 297.076C356.497 301.516 376.097 316.826 402.007 333.326C405.567 335.596 409.287 337.966 413.107 340.486C432.297 353.066 452.727 367.026 466.967 380.916C474.147 387.926 481.757 394.366 489.897 400.276C536.247 433.896 636.967 387.966 700.557 391.836C749.827 394.836 807.217 476.666 828.947 466.686C870.467 447.616 828.057 387.846 867.887 365.266C893.467 350.636 904.877 359.986 911.927 377.826C922.947 405.706 923.327 454.356 948.967 465.696C991.267 484.206 1082.55 455.996 1127.06 442.706C1157.01 433.756 1118.38 339.986 1133.28 312.146C1174.09 236.536 1283.92 359.786 1298.89 323.776C1308.5 300.666 1318.67 278.926 1329.78 259.066C1337.41 245.436 1350.44 235.766 1359.56 225.326C1376.04 206.466 1380.95 184.316 1391.61 169.486C1404.6 151.406 1411.96 141.846 1411.37 130.476" stroke="url(#paint60_linear_77_21054)" stroke-width="0.75" stroke-miterlimit="10"/>
<path d="M104.637 353.885C161.187 332.715 214.817 311.565 252.697 302.285C277.627 296.175 305.877 293.635 334.467 299.855C358.477 305.085 379.537 318.116 404.707 335.076C408.147 337.376 411.687 339.805 415.297 342.365C433.367 355.125 451.617 369.215 467.387 382.375C475.307 388.985 483.597 395.085 492.427 400.505C542.307 431.065 636.407 385.536 698.307 388.046C748.447 390.086 806.577 474.475 828.007 463.965C869.867 443.445 825.277 381.825 865.627 358.385C891.637 343.205 903.057 352.865 909.917 371.405C920.617 400.335 920.197 450.925 946.017 462.975C988.507 482.715 1081.87 454.585 1127.11 441.895C1157.75 433.305 1117.48 336.845 1132.67 308.705C1174.58 231.405 1287.78 359.766 1303.27 323.546C1312.64 301.626 1322.98 281.295 1333.93 262.725C1341.72 249.505 1352.27 238.705 1360.72 227.935C1375.44 209.175 1383.94 189.885 1393.66 175.185C1405.64 157.065 1412.27 144.645 1410.21 132.375" stroke="url(#paint61_linear_77_21054)" stroke-width="0.75" stroke-miterlimit="10"/>
<path d="M108.046 346.276C240.676 305.396 307.146 260.046 417.466 344.266C442.916 363.696 466.486 386.086 494.946 400.756C548.516 428.376 635.786 383.096 696.046 384.276C747.046 385.276 805.896 472.306 827.046 461.276C869.206 439.276 822.476 375.836 863.356 351.526C931.046 311.276 900.366 439.296 943.046 460.276C985.726 481.246 1081.16 453.186 1127.15 441.106C1158.47 432.876 1116.57 333.726 1132.05 305.276C1175.05 226.276 1291.61 359.746 1307.64 323.326C1349.05 229.276 1419.35 172.786 1409.05 134.276" stroke="url(#paint62_linear_77_21054)" stroke-width="0.75" stroke-miterlimit="10"/>
<defs>
<linearGradient id="paint0_linear_77_21054" x1="33.9566" y1="356.765" x2="1404.28" y2="356.765" gradientUnits="userSpaceOnUse">
<stop stop-color="#FFFAF5" stop-opacity="0"/>
<stop offset="0.23" stop-color="#FB8500"/>
<stop offset="0.83" stop-color="#FB8500"/>
<stop offset="1" stop-color="#FFFAF5" stop-opacity="0"/>
</linearGradient>
<linearGradient id="paint1_linear_77_21054" x1="32.9163" y1="355.406" x2="1405.6" y2="355.406" gradientUnits="userSpaceOnUse">
<stop stop-color="#FFFAF5" stop-opacity="0"/>
<stop offset="0.23" stop-color="#FB8500"/>
<stop offset="0.83" stop-color="#FB8500"/>
<stop offset="1" stop-color="#FFFAF5" stop-opacity="0"/>
</linearGradient>
<linearGradient id="paint2_linear_77_21054" x1="31.876" y1="353.986" x2="1406.92" y2="353.986" gradientUnits="userSpaceOnUse">
<stop stop-color="#FFFAF5" stop-opacity="0"/>
<stop offset="0.23" stop-color="#FB8500"/>
<stop offset="0.83" stop-color="#FB8500"/>
<stop offset="1" stop-color="#FFFAF5" stop-opacity="0"/>
</linearGradient>
<linearGradient id="paint3_linear_77_21054" x1="30.8267" y1="352.555" x2="1408.24" y2="352.555" gradientUnits="userSpaceOnUse">
<stop stop-color="#FFFAF5" stop-opacity="0"/>
<stop offset="0.23" stop-color="#FB8500"/>
<stop offset="0.83" stop-color="#FB8500"/>
<stop offset="1" stop-color="#FFFAF5" stop-opacity="0"/>
</linearGradient>
<linearGradient id="paint4_linear_77_21054" x1="29.7864" y1="351.086" x2="1409.55" y2="351.086" gradientUnits="userSpaceOnUse">
<stop stop-color="#FFFAF5" stop-opacity="0"/>
<stop offset="0.23" stop-color="#FB8500"/>
<stop offset="0.83" stop-color="#FB8500"/>
<stop offset="1" stop-color="#FFFAF5" stop-opacity="0"/>
</linearGradient>
<linearGradient id="paint5_linear_77_21054" x1="28.7462" y1="349.566" x2="1410.87" y2="349.566" gradientUnits="userSpaceOnUse">
<stop stop-color="#FFFAF5" stop-opacity="0"/>
<stop offset="0.23" stop-color="#FB8500"/>
<stop offset="0.83" stop-color="#FB8500"/>
<stop offset="1" stop-color="#FFFAF5" stop-opacity="0"/>
</linearGradient>
<linearGradient id="paint6_linear_77_21054" x1="27.7159" y1="347.986" x2="1412.19" y2="347.986" gradientUnits="userSpaceOnUse">
<stop stop-color="#FFFAF5" stop-opacity="0"/>
<stop offset="0.23" stop-color="#FB8500"/>
<stop offset="0.83" stop-color="#FB8500"/>
<stop offset="1" stop-color="#FFFAF5" stop-opacity="0"/>
</linearGradient>
<linearGradient id="paint7_linear_77_21054" x1="26.6759" y1="346.326" x2="1413.51" y2="346.326" gradientUnits="userSpaceOnUse">
<stop stop-color="#FFFAF5" stop-opacity="0"/>
<stop offset="0.23" stop-color="#FB8500"/>
<stop offset="0.83" stop-color="#FB8500"/>
<stop offset="1" stop-color="#FFFAF5" stop-opacity="0"/>
</linearGradient>
<linearGradient id="paint8_linear_77_21054" x1="25.6366" y1="344.555" x2="1414.83" y2="344.555" gradientUnits="userSpaceOnUse">
<stop stop-color="#FFFAF5" stop-opacity="0"/>
<stop offset="0.23" stop-color="#FB8500"/>
<stop offset="0.83" stop-color="#FB8500"/>
<stop offset="1" stop-color="#FFFAF5" stop-opacity="0"/>
</linearGradient>
<linearGradient id="paint9_linear_77_21054" x1="24.5963" y1="342.665" x2="1416.15" y2="342.665" gradientUnits="userSpaceOnUse">
<stop stop-color="#FFFAF5" stop-opacity="0"/>
<stop offset="0.23" stop-color="#FB8500"/>
<stop offset="0.83" stop-color="#FB8500"/>
<stop offset="1" stop-color="#FFFAF5" stop-opacity="0"/>
</linearGradient>
<linearGradient id="paint10_linear_77_21054" x1="23.566" y1="340.636" x2="1417.47" y2="340.636" gradientUnits="userSpaceOnUse">
<stop stop-color="#FFFAF5" stop-opacity="0"/>
<stop offset="0.23" stop-color="#FB8500"/>
<stop offset="0.83" stop-color="#FB8500"/>
<stop offset="1" stop-color="#FFFAF5" stop-opacity="0"/>
</linearGradient>
<linearGradient id="paint11_linear_77_21054" x1="22.5267" y1="338.476" x2="1418.79" y2="338.476" gradientUnits="userSpaceOnUse">
<stop stop-color="#FFFAF5" stop-opacity="0"/>
<stop offset="0.23" stop-color="#FB8500"/>
<stop offset="0.83" stop-color="#FB8500"/>
<stop offset="1" stop-color="#FFFAF5" stop-opacity="0"/>
</linearGradient>
<linearGradient id="paint12_linear_77_21054" x1="21.4964" y1="336.185" x2="1420.11" y2="336.185" gradientUnits="userSpaceOnUse">
<stop stop-color="#FFFAF5" stop-opacity="0"/>
<stop offset="0.23" stop-color="#FB8500"/>
<stop offset="0.83" stop-color="#FB8500"/>
<stop offset="1" stop-color="#FFFAF5" stop-opacity="0"/>
</linearGradient>
<linearGradient id="paint13_linear_77_21054" x1="20.4562" y1="333.776" x2="1421.43" y2="333.776" gradientUnits="userSpaceOnUse">
<stop stop-color="#FFFAF5" stop-opacity="0"/>
<stop offset="0.23" stop-color="#FB8500"/>
<stop offset="0.83" stop-color="#FB8500"/>
<stop offset="1" stop-color="#FFFAF5" stop-opacity="0"/>
</linearGradient>
<linearGradient id="paint14_linear_77_21054" x1="19.4259" y1="331.265" x2="1422.75" y2="331.265" gradientUnits="userSpaceOnUse">
<stop stop-color="#FFFAF5" stop-opacity="0"/>
<stop offset="0.23" stop-color="#FB8500"/>
<stop offset="0.83" stop-color="#FB8500"/>
<stop offset="1" stop-color="#FFFAF5" stop-opacity="0"/>
</linearGradient>
<linearGradient id="paint15_linear_77_21054" x1="18.3966" y1="328.665" x2="1424.07" y2="328.665" gradientUnits="userSpaceOnUse">
<stop stop-color="#FFFAF5" stop-opacity="0"/>
<stop offset="0.23" stop-color="#FB8500"/>
<stop offset="0.83" stop-color="#FB8500"/>
<stop offset="1" stop-color="#FFFAF5" stop-opacity="0"/>
</linearGradient>
<linearGradient id="paint16_linear_77_21054" x1="17.3563" y1="325.996" x2="1425.39" y2="325.996" gradientUnits="userSpaceOnUse">
<stop stop-color="#FFFAF5" stop-opacity="0"/>
<stop offset="0.23" stop-color="#FB8500"/>
<stop offset="0.83" stop-color="#FB8500"/>
<stop offset="1" stop-color="#FFFAF5" stop-opacity="0"/>
</linearGradient>
<linearGradient id="paint17_linear_77_21054" x1="16.3263" y1="323.266" x2="1426.71" y2="323.266" gradientUnits="userSpaceOnUse">
<stop stop-color="#FFFAF5" stop-opacity="0"/>
<stop offset="0.23" stop-color="#FB8500"/>
<stop offset="0.83" stop-color="#FB8500"/>
<stop offset="1" stop-color="#FFFAF5" stop-opacity="0"/>
</linearGradient>
<linearGradient id="paint18_linear_77_21054" x1="15.296" y1="320.475" x2="1428.03" y2="320.475" gradientUnits="userSpaceOnUse">
<stop stop-color="#FFFAF5" stop-opacity="0"/>
<stop offset="0.23" stop-color="#FB8500"/>
<stop offset="0.83" stop-color="#FB8500"/>
<stop offset="1" stop-color="#FFFAF5" stop-opacity="0"/>
</linearGradient>
<linearGradient id="paint19_linear_77_21054" x1="14.2667" y1="317.646" x2="1429.35" y2="317.646" gradientUnits="userSpaceOnUse">
<stop stop-color="#FFFAF5" stop-opacity="0"/>
<stop offset="0.23" stop-color="#FB8500"/>
<stop offset="0.83" stop-color="#FB8500"/>
<stop offset="1" stop-color="#FFFAF5" stop-opacity="0"/>
</linearGradient>
<linearGradient id="paint20_linear_77_21054" x1="13.2364" y1="314.776" x2="1430.67" y2="314.776" gradientUnits="userSpaceOnUse">
<stop stop-color="#FFFAF5" stop-opacity="0"/>
<stop offset="0.23" stop-color="#FB8500"/>
<stop offset="0.83" stop-color="#FB8500"/>
<stop offset="1" stop-color="#FFFAF5" stop-opacity="0"/>
</linearGradient>
<linearGradient id="paint21_linear_77_21054" x1="12.2066" y1="311.886" x2="1431.99" y2="311.886" gradientUnits="userSpaceOnUse">
<stop stop-color="#FFFAF5" stop-opacity="0"/>
<stop offset="0.23" stop-color="#FB8500"/>
<stop offset="0.83" stop-color="#FB8500"/>
<stop offset="1" stop-color="#FFFAF5" stop-opacity="0"/>
</linearGradient>
<linearGradient id="paint22_linear_77_21054" x1="11.1466" y1="308.976" x2="1433.3" y2="308.976" gradientUnits="userSpaceOnUse">
<stop stop-color="#FFFAF5" stop-opacity="0"/>
<stop offset="0.23" stop-color="#FB8500"/>
<stop offset="0.83" stop-color="#FB8500"/>
<stop offset="1" stop-color="#FFFAF5" stop-opacity="0"/>
</linearGradient>
<linearGradient id="paint23_linear_77_21054" x1="10.0664" y1="306.046" x2="1434.62" y2="306.046" gradientUnits="userSpaceOnUse">
<stop stop-color="#FFFAF5" stop-opacity="0"/>
<stop offset="0.23" stop-color="#FB8500"/>
<stop offset="0.83" stop-color="#FB8500"/>
<stop offset="1" stop-color="#FFFAF5" stop-opacity="0"/>
</linearGradient>
<linearGradient id="paint24_linear_77_21054" x1="8.94633" y1="303.116" x2="1435.94" y2="303.116" gradientUnits="userSpaceOnUse">
<stop stop-color="#FFFAF5" stop-opacity="0"/>
<stop offset="0.23" stop-color="#FB8500"/>
<stop offset="0.83" stop-color="#FB8500"/>
<stop offset="1" stop-color="#FFFAF5" stop-opacity="0"/>
</linearGradient>
<linearGradient id="paint25_linear_77_21054" x1="7.81588" y1="300.185" x2="1437.26" y2="300.185" gradientUnits="userSpaceOnUse">
<stop stop-color="#FFFAF5" stop-opacity="0"/>
<stop offset="0.23" stop-color="#FB8500"/>
<stop offset="0.83" stop-color="#FB8500"/>
<stop offset="1" stop-color="#FFFAF5" stop-opacity="0"/>
</linearGradient>
<linearGradient id="paint26_linear_77_21054" x1="6.6561" y1="298.326" x2="1438.58" y2="298.326" gradientUnits="userSpaceOnUse">
<stop stop-color="#FFFAF5" stop-opacity="0"/>
<stop offset="0.23" stop-color="#FB8500"/>
<stop offset="0.83" stop-color="#FB8500"/>
<stop offset="1" stop-color="#FFFAF5" stop-opacity="0"/>
</linearGradient>
<linearGradient id="paint27_linear_77_21054" x1="5.48659" y1="296.986" x2="1439.9" y2="296.986" gradientUnits="userSpaceOnUse">
<stop stop-color="#FFFAF5" stop-opacity="0"/>
<stop offset="0.23" stop-color="#FB8500"/>
<stop offset="0.83" stop-color="#FB8500"/>
<stop offset="1" stop-color="#FFFAF5" stop-opacity="0"/>
</linearGradient>
<linearGradient id="paint28_linear_77_21054" x1="4.28646" y1="295.646" x2="1441.22" y2="295.646" gradientUnits="userSpaceOnUse">
<stop stop-color="#FFFAF5" stop-opacity="0"/>
<stop offset="0.23" stop-color="#FB8500"/>
<stop offset="0.83" stop-color="#FB8500"/>
<stop offset="1" stop-color="#FFFAF5" stop-opacity="0"/>
</linearGradient>
<linearGradient id="paint29_linear_77_21054" x1="3.07649" y1="294.265" x2="1442.54" y2="294.265" gradientUnits="userSpaceOnUse">
<stop stop-color="#FFFAF5" stop-opacity="0"/>
<stop offset="0.23" stop-color="#FB8500"/>
<stop offset="0.83" stop-color="#FB8500"/>
<stop offset="1" stop-color="#FFFAF5" stop-opacity="0"/>
</linearGradient>
<linearGradient id="paint30_linear_77_21054" x1="1.85617" y1="292.876" x2="1443.86" y2="292.876" gradientUnits="userSpaceOnUse">
<stop stop-color="#FFFAF5" stop-opacity="0"/>
<stop offset="0.23" stop-color="#FB8500"/>
<stop offset="0.83" stop-color="#FB8500"/>
<stop offset="1" stop-color="#FFFAF5" stop-opacity="0"/>
</linearGradient>
<linearGradient id="paint31_linear_77_21054" x1="0.626259" y1="291.486" x2="1445.18" y2="291.486" gradientUnits="userSpaceOnUse">
<stop stop-color="#FFFAF5" stop-opacity="0"/>
<stop offset="0.23" stop-color="#FB8500"/>
<stop offset="0.83" stop-color="#FB8500"/>
<stop offset="1" stop-color="#FFFAF5" stop-opacity="0"/>
</linearGradient>
<linearGradient id="paint32_linear_77_21054" x1="4.28625" y1="290.476" x2="1444.01" y2="290.476" gradientUnits="userSpaceOnUse">
<stop stop-color="#FFFAF5" stop-opacity="0"/>
<stop offset="0.23" stop-color="#FB8500"/>
<stop offset="0.83" stop-color="#FB8500"/>
<stop offset="1" stop-color="#FFFAF5" stop-opacity="0"/>
</linearGradient>
<linearGradient id="paint33_linear_77_21054" x1="7.92648" y1="289.476" x2="1442.85" y2="289.476" gradientUnits="userSpaceOnUse">
<stop stop-color="#FFFAF5" stop-opacity="0"/>
<stop offset="0.23" stop-color="#FB8500"/>
<stop offset="0.83" stop-color="#FB8500"/>
<stop offset="1" stop-color="#FFFAF5" stop-opacity="0"/>
</linearGradient>
<linearGradient id="paint34_linear_77_21054" x1="11.5466" y1="288.476" x2="1441.68" y2="288.476" gradientUnits="userSpaceOnUse">
<stop stop-color="#FFFAF5" stop-opacity="0"/>
<stop offset="0.23" stop-color="#FB8500"/>
<stop offset="0.83" stop-color="#FB8500"/>
<stop offset="1" stop-color="#FFFAF5" stop-opacity="0"/>
</linearGradient>
<linearGradient id="paint35_linear_77_21054" x1="15.136" y1="287.466" x2="1440.52" y2="287.466" gradientUnits="userSpaceOnUse">
<stop stop-color="#FFFAF5" stop-opacity="0"/>
<stop offset="0.23" stop-color="#FB8500"/>
<stop offset="0.83" stop-color="#FB8500"/>
<stop offset="1" stop-color="#FFFAF5" stop-opacity="0"/>
</linearGradient>
<linearGradient id="paint36_linear_77_21054" x1="18.6964" y1="286.445" x2="1439.35" y2="286.445" gradientUnits="userSpaceOnUse">
<stop stop-color="#FFFAF5" stop-opacity="0"/>
<stop offset="0.23" stop-color="#FB8500"/>
<stop offset="0.83" stop-color="#FB8500"/>
<stop offset="1" stop-color="#FFFAF5" stop-opacity="0"/>
</linearGradient>
<linearGradient id="paint37_linear_77_21054" x1="22.2366" y1="285.426" x2="1438.19" y2="285.426" gradientUnits="userSpaceOnUse">
<stop stop-color="#FFFAF5" stop-opacity="0"/>
<stop offset="0.23" stop-color="#FB8500"/>
<stop offset="0.83" stop-color="#FB8500"/>
<stop offset="1" stop-color="#FFFAF5" stop-opacity="0"/>
</linearGradient>
<linearGradient id="paint38_linear_77_21054" x1="25.7264" y1="284.396" x2="1437.02" y2="284.396" gradientUnits="userSpaceOnUse">
<stop stop-color="#FFFAF5" stop-opacity="0"/>
<stop offset="0.23" stop-color="#FB8500"/>
<stop offset="0.83" stop-color="#FB8500"/>
<stop offset="1" stop-color="#FFFAF5" stop-opacity="0"/>
</linearGradient>
<linearGradient id="paint39_linear_77_21054" x1="29.1862" y1="284.886" x2="1435.85" y2="284.886" gradientUnits="userSpaceOnUse">
<stop stop-color="#FFFAF5" stop-opacity="0"/>
<stop offset="0.23" stop-color="#FB8500"/>
<stop offset="0.83" stop-color="#FB8500"/>
<stop offset="1" stop-color="#FFFAF5" stop-opacity="0"/>
</linearGradient>
<linearGradient id="paint40_linear_77_21054" x1="32.6066" y1="286.155" x2="1434.69" y2="286.155" gradientUnits="userSpaceOnUse">
<stop stop-color="#FFFAF5" stop-opacity="0"/>
<stop offset="0.23" stop-color="#FB8500"/>
<stop offset="0.83" stop-color="#FB8500"/>
<stop offset="1" stop-color="#FFFAF5" stop-opacity="0"/>
</linearGradient>
<linearGradient id="paint41_linear_77_21054" x1="36.0167" y1="287.446" x2="1433.52" y2="287.446" gradientUnits="userSpaceOnUse">
<stop stop-color="#FFFAF5" stop-opacity="0"/>
<stop offset="0.23" stop-color="#FB8500"/>
<stop offset="0.83" stop-color="#FB8500"/>
<stop offset="1" stop-color="#FFFAF5" stop-opacity="0"/>
</linearGradient>
<linearGradient id="paint42_linear_77_21054" x1="39.4266" y1="288.905" x2="1432.35" y2="288.905" gradientUnits="userSpaceOnUse">
<stop stop-color="#FFFAF5" stop-opacity="0"/>
<stop offset="0.23" stop-color="#FB8500"/>
<stop offset="0.83" stop-color="#FB8500"/>
<stop offset="1" stop-color="#FFFAF5" stop-opacity="0"/>
</linearGradient>
<linearGradient id="paint43_linear_77_21054" x1="42.8458" y1="290.335" x2="1431.18" y2="290.335" gradientUnits="userSpaceOnUse">
<stop stop-color="#FFFAF5" stop-opacity="0"/>
<stop offset="0.23" stop-color="#FB8500"/>
<stop offset="0.83" stop-color="#FB8500"/>
<stop offset="1" stop-color="#FFFAF5" stop-opacity="0"/>
</linearGradient>
<linearGradient id="paint44_linear_77_21054" x1="46.256" y1="291.766" x2="1430" y2="291.766" gradientUnits="userSpaceOnUse">
<stop stop-color="#FFFAF5" stop-opacity="0"/>
<stop offset="0.23" stop-color="#FB8500"/>
<stop offset="0.83" stop-color="#FB8500"/>
<stop offset="1" stop-color="#FFFAF5" stop-opacity="0"/>
</linearGradient>
<linearGradient id="paint45_linear_77_21054" x1="49.6761" y1="293.166" x2="1428.83" y2="293.166" gradientUnits="userSpaceOnUse">
<stop stop-color="#FFFAF5" stop-opacity="0"/>
<stop offset="0.23" stop-color="#FB8500"/>
<stop offset="0.83" stop-color="#FB8500"/>
<stop offset="1" stop-color="#FFFAF5" stop-opacity="0"/>
</linearGradient>
<linearGradient id="paint46_linear_77_21054" x1="53.0861" y1="294.536" x2="1427.66" y2="294.536" gradientUnits="userSpaceOnUse">
<stop stop-color="#FFFAF5" stop-opacity="0"/>
<stop offset="0.23" stop-color="#FB8500"/>
<stop offset="0.83" stop-color="#FB8500"/>
<stop offset="1" stop-color="#FFFAF5" stop-opacity="0"/>
</linearGradient>
<linearGradient id="paint47_linear_77_21054" x1="56.5062" y1="295.876" x2="1426.48" y2="295.876" gradientUnits="userSpaceOnUse">
<stop stop-color="#FFFAF5" stop-opacity="0"/>
<stop offset="0.23" stop-color="#FB8500"/>
<stop offset="0.83" stop-color="#FB8500"/>
<stop offset="1" stop-color="#FFFAF5" stop-opacity="0"/>
</linearGradient>
<linearGradient id="paint48_linear_77_21054" x1="59.9264" y1="296.846" x2="1425.32" y2="296.846" gradientUnits="userSpaceOnUse">
<stop stop-color="#FFFAF5" stop-opacity="0"/>
<stop offset="0.23" stop-color="#FB8500"/>
<stop offset="0.83" stop-color="#FB8500"/>
<stop offset="1" stop-color="#FFFAF5" stop-opacity="0"/>
</linearGradient>
<linearGradient id="paint49_linear_77_21054" x1="63.3465" y1="298.096" x2="1424.18" y2="298.096" gradientUnits="userSpaceOnUse">
<stop stop-color="#FFFAF5" stop-opacity="0"/>
<stop offset="0.23" stop-color="#FB8500"/>
<stop offset="0.83" stop-color="#FB8500"/>
<stop offset="1" stop-color="#FFFAF5" stop-opacity="0"/>
</linearGradient>
<linearGradient id="paint50_linear_77_21054" x1="66.7667" y1="299.296" x2="1423.05" y2="299.296" gradientUnits="userSpaceOnUse">
<stop stop-color="#FFFAF5" stop-opacity="0"/>
<stop offset="0.23" stop-color="#FB8500"/>
<stop offset="0.83" stop-color="#FB8500"/>
<stop offset="1" stop-color="#FFFAF5" stop-opacity="0"/>
</linearGradient>
<linearGradient id="paint51_linear_77_21054" x1="70.1966" y1="300.455" x2="1421.92" y2="300.455" gradientUnits="userSpaceOnUse">
<stop stop-color="#FFFAF5" stop-opacity="0"/>
<stop offset="0.23" stop-color="#FB8500"/>
<stop offset="0.83" stop-color="#FB8500"/>
<stop offset="1" stop-color="#FFFAF5" stop-opacity="0"/>
</linearGradient>
<linearGradient id="paint52_linear_77_21054" x1="73.6158" y1="301.616" x2="1420.8" y2="301.616" gradientUnits="userSpaceOnUse">
<stop stop-color="#FFFAF5" stop-opacity="0"/>
<stop offset="0.23" stop-color="#FB8500"/>
<stop offset="0.83" stop-color="#FB8500"/>
<stop offset="1" stop-color="#FFFAF5" stop-opacity="0"/>
</linearGradient>
<linearGradient id="paint53_linear_77_21054" x1="77.0459" y1="301.966" x2="1419.68" y2="301.966" gradientUnits="userSpaceOnUse">
<stop stop-color="#FFFAF5" stop-opacity="0"/>
<stop offset="0.23" stop-color="#FB8500"/>
<stop offset="0.83" stop-color="#FB8500"/>
<stop offset="1" stop-color="#FFFAF5" stop-opacity="0"/>
</linearGradient>
<linearGradient id="paint54_linear_77_21054" x1="80.4761" y1="301.816" x2="1418.56" y2="301.816" gradientUnits="userSpaceOnUse">
<stop stop-color="#FFFAF5" stop-opacity="0"/>
<stop offset="0.23" stop-color="#FB8500"/>
<stop offset="0.83" stop-color="#FB8500"/>
<stop offset="1" stop-color="#FFFAF5" stop-opacity="0"/>
</linearGradient>
<linearGradient id="paint55_linear_77_21054" x1="83.906" y1="301.686" x2="1417.45" y2="301.686" gradientUnits="userSpaceOnUse">
<stop stop-color="#FFFAF5" stop-opacity="0"/>
<stop offset="0.23" stop-color="#FB8500"/>
<stop offset="0.83" stop-color="#FB8500"/>
<stop offset="1" stop-color="#FFFAF5" stop-opacity="0"/>
</linearGradient>
<linearGradient id="paint56_linear_77_21054" x1="87.3362" y1="301.586" x2="1416.33" y2="301.586" gradientUnits="userSpaceOnUse">
<stop stop-color="#FFFAF5" stop-opacity="0"/>
<stop offset="0.23" stop-color="#FB8500"/>
<stop offset="0.83" stop-color="#FB8500"/>
<stop offset="1" stop-color="#FFFAF5" stop-opacity="0"/>
</linearGradient>
<linearGradient id="paint57_linear_77_21054" x1="90.7663" y1="301.506" x2="1415.2" y2="301.506" gradientUnits="userSpaceOnUse">
<stop stop-color="#FFFAF5" stop-opacity="0"/>
<stop offset="0.23" stop-color="#FB8500"/>
<stop offset="0.83" stop-color="#FB8500"/>
<stop offset="1" stop-color="#FFFAF5" stop-opacity="0"/>
</linearGradient>
<linearGradient id="paint58_linear_77_21054" x1="94.2065" y1="301.436" x2="1414.06" y2="301.436" gradientUnits="userSpaceOnUse">
<stop stop-color="#FFFAF5" stop-opacity="0"/>
<stop offset="0.23" stop-color="#FB8500"/>
<stop offset="0.83" stop-color="#FB8500"/>
<stop offset="1" stop-color="#FFFAF5" stop-opacity="0"/>
</linearGradient>
<linearGradient id="paint59_linear_77_21054" x1="97.6366" y1="301.386" x2="1412.91" y2="301.386" gradientUnits="userSpaceOnUse">
<stop stop-color="#FFFAF5" stop-opacity="0"/>
<stop offset="0.23" stop-color="#FB8500"/>
<stop offset="0.83" stop-color="#FB8500"/>
<stop offset="1" stop-color="#FFFAF5" stop-opacity="0"/>
</linearGradient>
<linearGradient id="paint60_linear_77_21054" x1="101.067" y1="301.306" x2="1411.78" y2="301.306" gradientUnits="userSpaceOnUse">
<stop stop-color="#FFFAF5" stop-opacity="0"/>
<stop offset="0.23" stop-color="#FB8500"/>
<stop offset="0.83" stop-color="#FB8500"/>
<stop offset="1" stop-color="#FFFAF5" stop-opacity="0"/>
</linearGradient>
<linearGradient id="paint61_linear_77_21054" x1="104.507" y1="301.236" x2="1410.96" y2="301.236" gradientUnits="userSpaceOnUse">
<stop stop-color="#FFFAF5" stop-opacity="0"/>
<stop offset="0.23" stop-color="#FB8500"/>
<stop offset="0.83" stop-color="#FB8500"/>
<stop offset="1" stop-color="#FFFAF5" stop-opacity="0"/>
</linearGradient>
<linearGradient id="paint62_linear_77_21054" x1="107.936" y1="301.186" x2="1410.44" y2="301.186" gradientUnits="userSpaceOnUse">
<stop stop-color="#FFFAF5" stop-opacity="0"/>
<stop offset="0.23" stop-color="#FB8500"/>
<stop offset="0.83" stop-color="#FB8500"/>
<stop offset="1" stop-color="#FFFAF5" stop-opacity="0"/>
</linearGradient>
</defs>
</svg>
