<svg width="2595" height="1385" viewBox="0 0 2595 1385" fill="none" xmlns="http://www.w3.org/2000/svg">
<path d="M2592.75 966.323C2183.66 1277.74 2356.45 916.725 2313.46 923.179C2270.48 929.633 2221.89 898.283 2216.28 850.182C2213.23 823.895 2108.06 843.378 2098.22 819.283C2087.62 793.252 2173.06 735.243 2147.54 736.324C2122.02 737.405 2097.1 746.653 2071.54 746.988C1996.9 747.984 1790.36 630.396 1857.01 592.763C2070.05 472.457 1559.05 370.219 1872.52 324.09C1946.52 313.21 1965.9 173.824 1943.8 94.0846C1926.51 31.6715 1823.48 179.89 1765.13 182.792C1738.5 184.102 1768.83 -9.1653 1745.1 4.33081C1683.38 39.4058 1618.95 77.1041 1580.52 141.475C1536.19 215.758 1534.9 310.746 1516.73 397.749C1498.55 484.714 1447.44 578.389 1367.67 583.175C1298.28 587.356 1234.19 521.192 1165.98 535.814C1142.05 540.955 1120.65 555.746 1101.51 572.543C1064.91 604.636 1034.25 645.135 1012.02 690.782C984.143 747.982 1062.05 884.633 1004.09 891.189C964.029 895.691 837 835.956 800.732 936.841C755.365 1063.06 593.917 1045.89 634.068 978.602C736.765 806.546 350.387 968.643 307.753 1140.44C281.026 1248.18 103.687 1021.94 38.0827 1267.59" stroke="url(#paint0_linear_77_20815)" stroke-miterlimit="10"/>
<path d="M2589.09 969.062C2530.03 1015.02 2481.95 1046.12 2443.56 1066.21C2323.27 1129.18 2301.81 1081.89 2304.89 1023.05C2307.45 975.323 2321.78 924.971 2305.51 926.907C2262.92 932.166 2213.68 904.736 2206.47 858.284C2205.85 854.183 2202.6 851.212 2197.72 848.883C2171.74 836.498 2100.19 844.383 2092.43 823.04C2082.73 796.296 2165 738.748 2138.01 739.537C2112.89 740.243 2088.73 749.077 2064.01 748.812C2037.88 748.552 1995.2 732.994 1953.83 712.021C1880.86 675.032 1813.28 620.112 1853.65 596.77C1888.24 576.772 1902.67 557.46 1904.32 538.613C1911.82 452.813 1653.27 381.002 1824.14 339.633C1836.37 336.67 1850.78 333.772 1867.62 331.05C1939.81 319.246 1959.1 183.106 1937.51 104.595C1927.44 68.079 1887.62 104.365 1844.96 140.177C1816.17 164.253 1786.11 188.185 1763.09 189.33C1736.8 190.675 1765.59 3.79459 1742.12 17.0657C1681.77 51.2767 1618.96 88.2592 1581.19 151.061C1556.31 192.43 1546.81 239.813 1536.7 287.236C1528.3 326.668 1522.66 365.342 1513.21 401.794C1496.84 466.069 1460.06 533.306 1405.55 561.597C1391.8 568.745 1377.01 573.099 1361.26 574.399C1289.21 580.271 1228.12 520.025 1163.92 537.241C1141.42 543.271 1121.27 558.356 1103.62 575.817C1082.79 596.426 1064.31 620.42 1046.63 645.716C1038.38 657.466 1030.45 668.468 1023.29 680.885C1020.81 685.223 1018.39 689.636 1016.11 694.16C1013.83 698.609 1012.18 703.578 1011.04 708.918C997.629 771.987 1058.41 890.954 1003.91 896.376C982.028 898.56 948.171 886.023 911.256 884.169C867.233 881.973 819.713 889.23 801.2 944.45C775.439 1021.23 707.434 1044.58 665.158 1037.67C636.274 1032.99 619.139 1013.88 634.371 986.734C639.503 977.497 643.271 969.236 645.775 961.838C678.757 865.146 496.509 922.047 383.558 1022.89C345.266 1057.08 314.337 1096.5 302.934 1137.06C273.327 1242.51 99.2049 1027.11 37.6994 1271.44" stroke="url(#paint1_linear_77_20815)" stroke-miterlimit="10"/>
<path d="M2585.43 971.764C2526.81 1018.35 2477.89 1049.46 2438.43 1069.62C2319.47 1130.35 2293.56 1087.49 2297.03 1027.9C2299.99 979.16 2313.72 929.185 2297.58 930.673C2255.38 934.587 2205.46 911.226 2196.73 866.422C2195.94 862.47 2192.62 859.538 2187.74 857.097C2161.56 844.004 2093.91 849.297 2086.7 826.87C2077.87 799.451 2156.97 741.431 2128.55 742.823C2103.86 744.05 2080.4 751.538 2056.51 750.71C2031.24 749.812 1990.09 733.837 1949.69 713.121C1878.49 676.721 1812.12 623.438 1850.33 600.776C1883.32 581.233 1896.92 562.521 1898.21 544.011C1904.11 460.009 1654.77 389.315 1820.43 347.073C1832.37 344.037 1846.4 340.991 1862.74 338.085C1933.13 325.617 1952.34 192.462 1931.21 115.143C1921.41 79.4464 1882.72 114.048 1841.13 148.439C1813 171.542 1783.6 194.688 1761.01 195.868C1735.06 197.249 1762.3 16.7542 1739.1 29.8003C1680.08 63.1475 1618.94 99.4139 1581.87 160.608C1556.16 203.025 1548.53 251.333 1536.62 298.316C1526.84 336.784 1520.12 372.665 1509.72 405.801C1491.36 464.377 1453.84 524.752 1399.77 552.37C1385.72 559.557 1370.69 563.912 1354.85 565.511C1280.13 573.11 1222 518.783 1161.86 538.519C1140.76 545.475 1121.88 560.89 1105.74 578.979C1086.61 600.439 1070.1 625.431 1052.13 650.542C1043.67 662.33 1035.23 672.066 1027.71 684.298C1025.09 688.562 1022.58 692.975 1020.16 697.463C1017.78 701.913 1016 706.882 1014.75 712.222C999.778 775.372 1059.23 896.509 1003.73 901.488C978.346 903.762 947.179 888.49 911.112 889.691C867.739 891.148 819.042 896.21 801.598 951.946C776.98 1030.66 708.704 1052.97 666.427 1045.65C637.708 1040.78 620.54 1021.71 634.571 994.754C639.337 985.593 642.704 977.334 644.908 969.937C673.886 873.263 494.055 925.825 380.853 1022.61C342.488 1055.41 310.619 1093.61 298.013 1133.58C265.559 1236.72 94.6207 1032.21 37.1802 1275.13" stroke="url(#paint2_linear_77_20815)" stroke-miterlimit="10"/>
<path d="M2581.77 974.503C2523.58 1021.72 2473.83 1052.87 2433.31 1073.04C2315.74 1131.64 2285.3 1093.05 2289.18 1032.74C2292.53 982.96 2305.7 933.398 2289.62 934.4C2247.85 937.044 2197.18 917.641 2186.92 874.522C2186 870.683 2182.55 867.826 2177.73 865.273C2151.38 851.435 2087.62 854.211 2080.91 830.663C2072.91 802.606 2148.91 744.563 2119.02 746.073C2094.73 747.335 2072.04 753.999 2048.97 752.533C2024.61 750.997 1984.99 734.605 1945.56 714.183C1876.13 678.335 1810.97 626.725 1847.05 604.744C1878.4 585.619 1891.17 567.507 1892.12 549.372C1896.47 467.205 1656.31 397.553 1816.76 354.438C1828.39 351.329 1842.03 348.098 1857.93 345.007C1926.48 331.764 1945.67 201.668 1924.98 125.616C1915.42 90.7011 1877.99 123.805 1837.39 156.662C1809.99 178.867 1781.19 201.189 1759.04 202.367C1733.38 203.822 1759.12 29.6383 1736.15 42.4969C1678.5 74.9801 1618.96 110.531 1582.58 170.155C1556.04 213.658 1550.34 262.815 1536.53 309.359C1525.42 346.863 1517.68 379.95 1506.23 409.77C1485.98 462.647 1447.63 516.124 1393.99 543.106C1379.61 550.331 1364.38 554.725 1348.47 556.622C1271.06 566.024 1215.92 517.504 1159.83 539.833C1140.17 547.678 1122.46 563.461 1107.89 582.178C1090.43 604.563 1075.9 630.479 1057.65 655.367C1048.96 667.231 1040.05 675.701 1032.16 687.71C1029.41 691.901 1026.8 696.277 1024.28 700.765C1021.76 705.215 1019.88 710.185 1018.5 715.526C1001.93 778.72 1060.13 901.989 1003.62 906.599C974.697 908.963 946.125 891.889 911.069 895.25C868.408 899.352 818.505 903.262 802.131 959.48C778.689 1040.13 710.108 1061.35 667.829 1053.66C639.276 1048.6 622.042 1029.54 634.906 1002.77C639.271 993.688 642.305 985.393 644.175 977.998C669.149 881.378 491.768 929.566 378.315 1022.24C339.877 1053.67 307.069 1090.6 293.258 1130.02C257.991 1230.82 90.2038 1037.19 36.8618 1278.75" stroke="url(#paint3_linear_77_20815)" stroke-miterlimit="10"/>
<path d="M2578.15 977.205C2520.43 1025.06 2469.81 1056.24 2428.22 1076.46C2312.04 1132.96 2276.95 1098.64 2281.33 1037.59C2284.98 986.761 2297.64 937.648 2281.7 938.165C2240.32 939.539 2188.93 924.056 2177.14 882.697C2176.09 878.971 2172.51 876.152 2167.73 873.524C2141.2 858.94 2081.27 859.201 2075.12 834.493C2067.96 805.798 2140.85 747.731 2109.49 749.397C2085.64 750.657 2063.67 756.535 2041.44 754.468C2017.94 752.295 1979.86 735.523 1941.4 715.358C1873.74 680.062 1809.78 630.163 1843.7 608.825C1873.41 590.155 1885.35 572.644 1885.97 554.846C1888.73 474.513 1657.81 405.866 1812.99 361.916C1824.32 358.696 1837.59 355.318 1853.02 352.08C1919.77 338.061 1938.87 211.062 1918.69 136.238C1909.4 102.106 1873.1 133.601 1833.56 165.036C1806.86 186.304 1778.68 207.803 1756.97 209.017C1731.65 210.507 1755.84 42.6354 1733.14 55.3436C1676.78 86.8512 1618.87 121.798 1583.22 179.815C1555.85 224.366 1552.13 274.41 1536.41 320.551C1523.99 357.054 1515.21 387.347 1502.72 413.926C1480.56 461.103 1441.39 507.683 1388.21 534.028C1373.53 541.292 1358.03 545.687 1342.06 547.92C1261.95 559.124 1209.85 516.411 1157.77 541.297C1139.52 550.069 1123.04 566.257 1110.01 585.489C1094.22 608.836 1081.63 635.603 1063.15 660.342C1054.26 672.244 1044.84 679.485 1036.59 691.273C1033.7 695.389 1030.95 699.729 1028.33 704.217C1025.72 708.667 1023.74 713.675 1022.22 718.979C1004.08 782.255 1060.95 907.544 1003.44 911.86C970.984 914.314 945.188 898.571 910.928 900.921C868.662 903.828 817.869 910.391 802.566 967.126C780.301 1049.78 711.413 1069.74 669.134 1061.79C640.746 1056.43 623.446 1037.52 635.143 1010.94C639.108 1001.9 641.775 993.64 643.345 986.247C664.147 889.608 489.35 933.493 375.646 1022.11C337.135 1052.15 303.387 1087.85 288.373 1126.68C250.326 1225.15 85.6562 1042.43 36.3791 1282.6" stroke="url(#paint4_linear_77_20815)" stroke-miterlimit="10"/>
<path d="M2574.49 979.907C2517.21 1028.43 2465.79 1059.62 2423.1 1079.84C2308.34 1134.28 2268.67 1104.16 2273.47 1042.4C2277.52 990.524 2289.62 941.563 2273.74 941.893C2232.8 942.742 2180.59 930.397 2167.34 890.798C2166.12 887.185 2162.47 884.44 2157.72 881.737C2131.02 866.408 2074.95 864.152 2069.34 838.323C2062.97 808.991 2132.79 750.975 2099.96 752.684C2076.51 753.905 2055.28 758.997 2033.87 756.329C2011.24 753.517 1974.72 736.329 1937.2 716.458C1871.31 681.751 1808.57 633.488 1840.31 612.869C1868.4 594.616 1879.5 577.743 1879.79 560.282C1880.99 481.784 1659.29 414.104 1809.22 369.356C1820.28 366.063 1833.12 362.5 1848.12 359.077C1913.06 344.246 1932.11 220.343 1912.37 146.786C1903.34 113.436 1868.2 143.322 1829.72 173.334C1803.69 193.63 1776.15 214.38 1754.89 215.592C1729.87 217.118 1752.56 55.6321 1730.13 68.078C1675.1 98.6845 1618.82 132.915 1583.86 189.4C1555.66 234.999 1553.95 285.855 1536.26 331.669C1522.57 367.17 1512.68 394.67 1499.17 417.971C1475.12 459.411 1435.12 499.129 1382.37 524.839C1367.35 532.179 1351.65 536.574 1335.62 539.106C1252.82 552.15 1203.7 515.207 1155.67 542.686C1138.86 552.384 1123.55 569.015 1112.09 588.763C1097.95 613.148 1087.32 640.689 1068.61 665.243C1059.48 677.183 1049.6 683.158 1041.01 694.76C1037.99 698.803 1035.14 703.105 1032.42 707.594C1029.7 712.045 1027.59 717.053 1025.94 722.358C1006.37 785.752 1061.78 912.987 1003.3 917.046C967.305 919.553 944.174 902.828 910.854 906.517C869.096 911.138 817.302 917.519 803.068 974.734C782.013 1059.36 712.787 1078.2 670.505 1069.88C642.284 1064.33 624.95 1045.42 635.447 1019.07C639.045 1010.1 641.312 1001.85 642.581 994.458C659.313 897.873 487 937.383 373.044 1021.93C334.494 1050.6 299.806 1085.03 283.555 1123.31C242.762 1219.44 81.209 1047.6 35.997 1286.4" stroke="url(#paint5_linear_77_20815)" stroke-miterlimit="10"/>
<path d="M2570.83 982.647C2514.02 1031.8 2461.73 1063.03 2417.97 1083.29C2304.68 1135.75 2260.38 1109.79 2265.62 1047.28C2270.03 994.4 2281.56 946.112 2265.81 945.658C2225.26 944.529 2172.24 936.776 2157.56 898.936C2156.21 895.435 2152.43 892.766 2147.74 889.951C2120.88 873.877 2068.6 869.142 2063.58 842.117C2058.01 812.184 2124.8 754.181 2090.47 755.934C2067.45 757.116 2046.91 761.458 2026.37 758.19C2004.57 754.741 1969.62 737.135 1933.06 717.558C1868.95 683.403 1807.38 636.814 1837.02 616.875C1863.47 599.04 1873.78 582.804 1873.67 565.681C1873.31 489.018 1660.82 422.305 1805.48 376.76C1816.24 373.355 1828.71 369.645 1843.24 366.075C1906.38 350.468 1925.34 229.662 1906.07 157.297C1897.29 124.729 1863.34 153.006 1825.92 181.596C1800.58 200.956 1773.67 220.883 1752.85 222.092C1728.17 223.654 1749.28 68.5174 1727.15 80.7755C1673.48 110.481 1618.74 143.996 1584.57 198.91C1555.54 245.557 1555.87 297.225 1536.21 342.675C1521.28 377.174 1510.31 401.844 1495.71 421.941C1469.81 457.606 1428.94 490.464 1376.62 515.575C1361.27 522.954 1345.37 527.425 1329.24 530.218C1243.71 545.102 1197.66 513.965 1153.64 544.001C1138.24 554.589 1124.16 571.773 1114.24 591.962C1101.74 617.459 1093.12 645.737 1074.14 670.106C1064.81 682.085 1054.42 686.831 1045.46 698.174C1042.31 702.142 1039.32 706.408 1036.51 710.897C1033.69 715.348 1031.44 720.357 1029.7 725.662C1008.55 789.138 1062.63 918.318 1003.15 922.158C963.656 924.68 943.124 907.049 910.744 912.077C869.461 918.449 816.731 924.572 803.534 982.268C783.688 1068.91 714.124 1086.59 671.841 1077.9C643.785 1072.12 626.385 1053.25 635.715 1027.13C638.913 1018.2 640.813 1009.98 641.782 1002.59C654.476 906.065 484.646 941.199 370.44 1021.64C331.817 1048.93 296.222 1082.1 278.734 1119.82C235.261 1213.61 76.7254 1052.65 35.5786 1290.1" stroke="url(#paint6_linear_77_20815)" stroke-miterlimit="10"/>
<path d="M2567.17 985.349C2510.8 1035.14 2457.71 1066.41 2412.88 1086.71C2301.08 1137.26 2252.13 1115.35 2257.76 1052.13C2262.57 998.201 2273.54 950.326 2257.85 949.424C2217.73 947.062 2163.82 943.118 2147.75 907.075C2146.23 903.65 2142.38 901.055 2137.7 898.165C2110.63 881.346 2062.22 874.132 2057.75 845.948C2052.92 815.415 2116.7 757.462 2080.9 759.222C2058.28 760.365 2038.51 763.92 2018.81 760.051C1997.87 755.964 1964.45 737.941 1928.9 718.659C1866.55 685.056 1806.16 640.177 1833.67 620.882C1858.49 603.464 1867.96 587.867 1867.52 571.081C1865.6 496.29 1662.33 430.469 1801.74 384.163C1812.2 380.685 1824.3 376.79 1838.37 373.036C1899.69 356.616 1918.6 238.944 1899.81 167.808C1891.29 136.06 1858.51 162.727 1822.12 189.858C1797.44 208.282 1771.2 227.348 1750.81 228.63C1726.43 230.154 1746.03 81.4401 1724.16 93.5104C1671.83 122.352 1618.68 155.077 1585.25 208.496C1555.39 256.191 1557.79 308.671 1536.09 353.794C1519.99 387.29 1507.87 409.13 1492.19 425.986C1464.49 455.802 1422.66 481.874 1370.84 506.386C1355.19 513.803 1339.06 518.313 1322.86 521.405C1234.63 538.203 1191.51 512.649 1151.61 545.354C1137.61 556.83 1124.78 574.607 1116.39 595.162C1105.53 621.808 1098.88 650.749 1079.66 674.933C1070.1 686.95 1059.24 690.466 1049.91 701.587C1046.63 705.481 1043.54 709.747 1040.59 714.2C1037.64 718.652 1035.33 723.661 1033.41 729.004C1010.7 792.561 1063.46 923.688 1002.98 927.308C959.94 929.883 942.041 911.344 910.601 917.637C869.759 925.835 816.16 931.664 803.966 989.803C785.364 1078.49 715.428 1094.98 673.143 1085.91C645.22 1079.95 627.786 1061.04 635.949 1035.15C638.747 1026.3 640.313 1018.08 640.982 1010.69C649.639 914.219 482.26 944.978 367.801 1021.36C329.106 1047.27 292.639 1079.21 273.88 1116.34C227.76 1207.75 72.2088 1057.75 35.1603 1293.8" stroke="url(#paint7_linear_77_20815)" stroke-miterlimit="10"/>
<path d="M2563.51 988.088C2507.61 1038.51 2453.68 1069.86 2407.76 1090.13C2297.45 1138.81 2243.88 1120.94 2249.91 1056.97C2255.11 1002 2265.48 954.576 2249.89 953.151C2210.17 949.519 2155.34 949.421 2137.94 915.212C2136.26 911.899 2132.31 909.38 2127.69 906.378C2100.45 888.776 2055.83 879.121 2051.96 849.74C2047.89 818.644 2108.69 763.988 2071.37 762.508C2049.15 761.635 2030.11 766.381 2011.24 761.949C1991.13 757.224 1959.32 738.821 1924.7 719.796C1864.12 686.781 1804.9 643.54 1830.28 624.925C1853.47 607.962 1862.11 592.965 1861.34 576.516C1857.85 503.597 1663.83 438.632 1797.97 391.603C1808.13 388.052 1819.86 383.972 1833.46 380.07C1893.01 362.837 1911.94 248.224 1893.48 178.392C1885.27 147.389 1853.58 172.485 1818.29 198.193C1794.3 215.682 1768.69 233.961 1748.74 235.242C1724.69 236.801 1742.75 94.4735 1721.12 106.319C1670.15 134.259 1618.53 166.268 1585.86 218.117C1555.13 266.861 1559.7 320.152 1535.94 364.948C1518.69 397.405 1505.43 416.414 1488.64 430.067C1459.18 454.071 1416.38 473.32 1365 497.233C1349.01 504.689 1332.65 509.274 1316.41 512.628C1225.5 531.378 1185.37 511.481 1149.55 546.779C1136.99 559.145 1125.39 577.588 1118.5 598.472C1109.32 626.379 1104.61 655.872 1085.16 679.907C1075.4 691.962 1064.03 694.213 1054.33 705.148C1050.91 708.968 1047.73 713.198 1044.68 717.651C1041.63 722.103 1039.18 727.113 1037.13 732.457C1012.85 796.095 1064.28 929.167 1002.83 932.568C956.259 935.158 940.958 915.788 910.525 923.307C870.125 933.331 815.657 938.865 804.466 997.448C787.141 1088.18 716.799 1103.48 674.513 1094.08C646.756 1087.89 629.255 1069.02 636.285 1043.36C638.682 1034.54 639.882 1026.37 640.25 1018.94C644.87 922.521 479.94 948.904 365.264 1021.22C326.496 1045.75 289.156 1076.43 269.126 1113C220.394 1202.07 67.7927 1062.95 34.8095 1297.68" stroke="url(#paint8_linear_77_20815)" stroke-miterlimit="10"/>
<path d="M2559.85 990.79C2504.38 1041.84 2449.69 1073.27 2402.63 1093.54C2293.85 1140.39 2235.59 1126.5 2242.05 1061.78C2247.65 1005.76 2257.46 958.789 2241.96 956.879C2202.67 952.013 2146.82 955.688 2128.16 923.313C2126.31 920.113 2122.3 917.668 2117.71 914.554C2090.3 896.169 2049.44 884.073 2046.21 853.533C2042.97 822.993 2100.66 767.604 2061.87 765.758C2040.08 764.733 2021.75 768.842 2003.74 763.809C1984.49 758.409 1954.21 739.626 1920.56 720.895C1861.76 688.433 1803.68 646.902 1827 628.931C1848.51 612.386 1856.39 598.026 1855.25 581.914C1850.24 510.83 1665.43 446.72 1794.26 399.005C1804.16 395.344 1815.45 391.154 1828.61 387.03C1886.36 368.984 1905.23 257.468 1887.22 188.902C1879.28 158.681 1848.75 182.168 1814.48 206.454C1791.16 222.97 1766.21 240.463 1746.73 241.779C1723.01 243.374 1739.54 107.395 1718.17 119.053C1668.53 146.129 1618.48 177.349 1586.56 227.702C1554.65 278.055 1561.79 331.596 1535.85 376.028C1517.5 407.52 1503.09 423.624 1485.12 434.111C1453.96 452.265 1410.1 464.692 1359.18 488.044C1342.86 495.538 1326.3 500.199 1309.96 503.814C1216.35 524.553 1179.22 510.277 1147.45 548.131C1136.29 561.424 1126.03 580.495 1120.59 601.708C1113.1 630.914 1110.3 660.921 1090.61 684.808C1080.62 696.939 1068.81 697.922 1058.72 708.636C1055.16 712.382 1051.84 716.575 1048.69 721.028C1045.54 725.481 1042.96 730.529 1040.82 735.835C1014.96 799.555 1065.07 934.498 1002.62 937.754C952.508 940.36 939.807 920.195 910.347 928.941C870.322 940.829 815.052 946.031 804.864 1005.09C788.816 1097.87 718.068 1111.98 675.78 1102.2C648.19 1095.83 630.622 1076.96 636.485 1051.53C638.516 1042.79 639.314 1034.61 639.382 1027.19C639.998 930.824 477.519 952.832 362.558 1021.04C323.717 1044.19 285.537 1073.61 264.204 1109.63C212.925 1196.36 63.2081 1068.16 34.3233 1301.48" stroke="url(#paint9_linear_77_20815)" stroke-miterlimit="10"/>
<path d="M2556.2 993.492C2501.19 1045.18 2445.67 1076.68 2397.51 1096.92C2290.29 1141.97 2227.31 1132.06 2234.17 1066.59C2240.13 1009.56 2249.37 963.003 2233.97 960.608C2195.11 954.546 2138.21 961.994 2118.32 931.414C2116.31 928.289 2112.19 925.92 2107.64 922.768C2080.06 903.601 2042.96 889.101 2040.35 857.327C2037.74 825.553 2092.57 771.258 2052.28 769.008C2030.92 767.833 2013.28 771.267 1996.14 765.634C1977.73 759.595 1949.05 740.395 1916.36 721.959C1859.33 690.048 1802.4 650.191 1823.61 632.938C1843.43 616.773 1850.54 603.088 1849.07 587.314C1842.53 518.102 1666.94 454.735 1790.49 406.409C1800.09 402.636 1811.01 398.261 1823.67 394.028C1879.62 375.169 1898.44 266.787 1880.89 199.413C1873.22 170.012 1843.85 191.852 1810.65 214.716C1788.03 230.296 1763.7 246.966 1744.66 248.317C1721.24 249.948 1736.26 120.318 1715.15 131.788C1666.85 157.963 1618.36 188.43 1587.24 237.25C1556.12 286.07 1563.84 343.04 1535.77 387.109C1516.35 417.598 1500.79 430.872 1481.63 438.118C1448.85 450.497 1403.86 456.028 1353.44 478.817C1336.82 486.313 1320.02 491.087 1303.62 494.963C1207.32 517.691 1173.18 509.072 1145.45 549.484C1135.71 563.702 1126.81 583.476 1122.77 604.908C1117.03 635.449 1116.09 665.932 1096.18 689.634C1085.95 701.803 1073.67 701.558 1063.2 712.049C1059.52 715.721 1056.1 719.877 1052.85 724.331C1049.56 728.784 1046.88 733.832 1044.6 739.14C1017.18 802.904 1065.96 939.792 1002.54 942.866C948.895 945.449 938.794 924.564 910.339 934.462C870.69 948.252 814.651 953.121 805.399 1012.59C790.662 1107.41 719.475 1120.33 677.185 1110.18C649.76 1103.59 632.126 1084.71 636.822 1059.51C638.453 1050.81 638.918 1042.67 638.652 1035.25C635.23 938.941 475.201 956.573 360.023 1020.72C321.109 1042.49 282.089 1070.67 259.452 1106.14C205.628 1190.57 58.794 1073.21 33.9742 1305.18" stroke="url(#paint10_linear_77_20815)" stroke-miterlimit="10"/>
<path d="M2552.57 996.231C2498.01 1048.55 2441.72 1080.17 2392.42 1100.38C2286.76 1143.7 2219.09 1137.65 2226.35 1071.48C2232.7 1013.4 2241.38 967.29 2226.08 964.372C2187.64 957.078 2129.6 968.336 2108.58 939.552C2106.4 936.539 2102.22 934.245 2097.7 930.981C2069.98 911.031 2036.61 894.09 2034.63 861.157C2032.65 828.224 2084.58 774.949 2042.82 772.332C2021.86 771.005 2004.95 773.765 1988.64 767.568C1971.06 760.892 1943.98 741.238 1912.23 723.133C1857.04 691.662 1801.18 653.629 1820.29 637.019C1838.41 621.271 1844.79 608.224 1842.93 592.787C1834.86 525.484 1668.47 462.824 1786.72 413.923C1796.05 410.078 1806.57 405.518 1818.77 401.1C1872.94 381.428 1891.67 276.143 1874.56 210.036C1867.17 181.416 1838.92 201.647 1806.78 223.089C1784.82 237.734 1761.13 253.617 1742.55 254.967C1719.47 256.634 1732.95 133.389 1712.11 144.635C1665.17 169.946 1618.18 199.622 1587.85 246.946C1554.57 298.835 1565.89 354.596 1535.58 398.339C1515.12 427.862 1498.42 438.306 1478.05 442.275C1443.71 448.953 1397.52 447.512 1347.56 469.74C1330.61 477.274 1313.61 482.124 1297.11 486.262C1198.11 511.016 1166.93 507.98 1143.29 550.985C1134.98 566.093 1127.46 586.607 1124.79 608.293C1120.89 640.17 1121.72 671.131 1101.57 694.684C1091.15 706.891 1078.36 705.38 1067.53 715.649C1063.7 719.247 1060.15 723.366 1056.8 727.857C1053.42 732.311 1050.64 737.36 1048.22 742.668C1019.24 806.513 1066.69 945.273 1002.27 948.202C945.082 950.763 937.58 929.195 910.099 940.208C870.825 955.973 814.016 960.398 805.734 1020.31C792.341 1117.22 720.681 1128.91 678.39 1118.38C651.131 1111.6 633.397 1092.73 636.959 1067.75C638.19 1059.13 638.288 1051 637.722 1043.57C630.296 947.319 472.684 960.576 357.254 1020.62C318.267 1041.01 278.408 1067.93 254.467 1102.84C198.163 1184.94 54.1463 1078.45 33.4251 1309.06" stroke="url(#paint11_linear_77_20815)" stroke-miterlimit="10"/>
<path d="M2548.91 998.933C2494.82 1051.88 2437.7 1083.62 2387.3 1103.79C2283.23 1145.4 2210.84 1143.25 2218.46 1076.32C2225.21 1017.2 2233.32 971.541 2218.09 968.138C2180.08 959.611 2120.85 974.716 2098.74 947.69C2096.36 944.791 2092.11 942.533 2087.63 939.195C2059.74 918.462 2030.09 899.08 2028.77 864.95C2027.46 830.821 2076.45 778.603 2033.22 775.582C2012.7 774.142 1996.45 776.19 1981.04 769.392C1964.29 762.041 1938.81 742.006 1908 724.196C1854.58 693.315 1799.79 656.955 1816.91 640.988C1834.02 625.021 1838.94 613.248 1836.74 598.112C1827.18 532.68 1669.98 470.689 1782.95 421.252C1791.98 417.296 1802.13 412.588 1813.86 407.986C1866.26 387.464 1884.9 285.35 1868.24 220.472C1861.11 192.635 1834.03 211.256 1802.95 231.276C1781.68 244.948 1758.63 260.045 1740.48 261.392C1717.69 263.096 1729.67 146.2 1709.09 157.257C1663.52 181.705 1618.03 210.591 1588.49 256.382C1554.39 309.319 1568.01 365.965 1535.47 409.27C1514 437.866 1496.01 443.652 1474.53 446.17C1438.81 450.354 1391.24 438.735 1341.75 460.401C1324.46 467.975 1307.26 472.937 1290.7 477.299C1189.01 504.116 1160.82 506.664 1141.23 552.188C1134.33 568.222 1128.25 589.476 1126.91 611.381C1124.88 644.667 1127.45 676.03 1107.07 699.398C1096.41 711.644 1083.15 708.903 1071.95 718.95C1067.99 722.474 1064.34 726.594 1060.89 731.048C1057.4 735.503 1054.49 740.552 1051.94 745.86C1021.39 809.787 1067.51 950.455 1002.09 953.202C941.368 955.741 936.433 933.565 909.99 945.656C871.092 963.433 813.548 967.414 806.202 1027.73C794.152 1126.68 722.02 1137.18 679.727 1126.29C652.634 1119.32 634.833 1100.4 637.228 1075.7C638.059 1067.11 637.79 1059.02 636.923 1051.6C625.494 955.398 470.332 964.279 354.651 1020.26C315.625 1039.27 274.926 1064.96 249.648 1099.28C190.898 1179.11 49.6646 1083.47 33.0083 1312.68" stroke="url(#paint12_linear_77_20815)" stroke-miterlimit="10"/>
<path d="M2545.25 1001.67C2491.6 1055.29 2433.71 1087.14 2382.2 1107.21C2279.73 1147.16 2202.59 1148.81 2210.64 1081.17C2217.79 1021.04 2225.3 975.792 2210.17 971.866C2172.58 962.143 2112.13 981.096 2088.97 955.829C2086.42 953.042 2082.1 950.822 2077.65 947.409C2049.59 925.856 2023.67 904.107 2023.02 868.781C2022.36 833.455 2068.46 782.331 2023.73 778.87C2003.63 777.315 1988.09 778.614 1973.54 771.291C1957.62 763.264 1933.71 742.85 1903.9 725.333C1852.25 695.004 1798.54 660.393 1813.62 645.032C1828.7 629.671 1833.23 618.385 1830.66 603.548C1819.6 539.989 1671.61 478.591 1779.28 428.692C1788.04 424.625 1797.79 419.77 1809.05 415.021C1859.65 393.686 1878.2 294.706 1862.04 231.057C1855.15 204.002 1829.23 221.052 1799.25 239.612C1778.65 252.348 1756.25 266.659 1738.54 268.004C1716.09 269.743 1726.52 159.197 1706.18 170.029C1661.93 193.575 1617.97 221.672 1589.23 266.004C1554.23 319.99 1570.27 377.521 1535.41 420.425C1512.94 448.093 1493.88 452.988 1471.07 450.252C1433.58 445.789 1385.03 430.107 1336.03 451.249C1318.41 458.861 1301.02 463.899 1284.35 468.522C1179.97 497.441 1154.77 505.497 1139.23 553.615C1133.73 570.576 1129.16 592.532 1129.09 614.655C1129 649.313 1133.21 681.117 1112.63 704.336C1101.73 716.62 1088 712.65 1076.43 722.475C1072.38 725.925 1068.59 730.008 1065.01 734.463C1061.42 738.918 1058.37 743.967 1055.73 749.276C1023.57 813.285 1068.4 955.824 1002.01 958.425C935.617 961.027 935.417 938.196 909.947 951.29C871.392 971.118 813.144 974.616 806.735 1035.38C796.062 1136.41 723.424 1145.68 681.13 1134.41C654.169 1127.22 636.335 1108.31 637.563 1083.83C637.993 1075.28 637.391 1067.23 636.191 1059.81C620.724 963.701 468.012 968.17 352.08 1020.08C312.981 1037.71 271.476 1062.18 244.861 1095.91C183.665 1173.47 45.2148 1088.64 32.657 1316.49" stroke="url(#paint13_linear_77_20815)" stroke-miterlimit="10"/>
<path d="M2541.6 1004.37C2488.41 1058.63 2429.72 1090.59 2377.08 1110.63C2276.2 1148.97 2194.34 1154.4 2202.79 1086.02C2210.33 1024.84 2217.27 980.043 2202.24 975.631C2165.05 964.713 2103.35 987.551 2079.19 963.967C2076.44 961.293 2072.09 959.148 2067.67 955.623C2039.48 933.25 2017.22 909.097 2017.26 872.574C2017.31 837.991 2060.43 786.022 2014.23 782.119C1994.54 780.451 1979.69 781.038 1966.01 773.114C1950.92 764.413 1928.57 743.618 1899.73 726.396C1849.85 696.619 1797.18 663.757 1810.27 649.038C1823.35 634.32 1827.44 623.446 1824.51 608.947C1811.99 547.296 1673.15 486.419 1775.51 436.096C1783.96 431.918 1793.32 426.915 1804.14 421.981C1852.96 399.796 1871.44 303.95 1855.71 241.53C1849.09 215.258 1824.3 230.699 1795.38 247.836C1775.44 259.637 1753.71 273.124 1736.43 274.505C1714.31 276.28 1723.2 172.119 1703.13 182.727C1660.25 205.409 1617.79 232.715 1589.88 275.515C1554.01 330.511 1572.45 389.039 1535.29 431.469C1511.89 458.207 1491.54 460.348 1467.55 454.259C1428.44 444.282 1378.75 421.405 1330.22 442.022C1312.27 449.636 1294.67 454.824 1277.94 459.672C1170.89 490.691 1148.7 504.292 1137.17 554.929C1133.11 572.817 1130.04 595.475 1131.2 617.854C1133.13 653.883 1138.94 686.091 1118.12 709.162C1106.99 721.484 1092.79 716.249 1080.85 725.888C1076.66 729.264 1072.74 733.31 1069.06 737.765C1065.34 742.221 1062.19 747.308 1059.41 752.581C1025.69 816.67 1069.19 961.081 1001.8 963.537C934.403 965.994 934.269 942.753 909.77 956.812C871.591 978.765 812.64 981.67 807.133 1042.88C797.838 1145.99 724.694 1154.03 682.398 1142.39C655.604 1135.01 637.669 1116.06 637.764 1091.85C637.794 1083.34 636.824 1075.33 635.324 1067.87C615.886 971.818 465.558 971.911 349.374 1019.72C310.203 1035.97 267.925 1059.21 239.939 1092.35C176.364 1167.65 40.6307 1093.66 32.1378 1320.11" stroke="url(#paint14_linear_77_20815)" stroke-miterlimit="10"/>
<path d="M2537.94 1007.11C2485.18 1062 2425.76 1094.15 2371.95 1114.05C2272.71 1150.78 2186.09 1159.96 2194.9 1090.86C2202.84 1028.64 2209.22 984.292 2194.25 979.358C2157.49 967.244 2094.47 994.005 2069.38 972.066C2066.43 969.505 2062.02 967.398 2057.63 963.835C2029.27 940.679 2010.7 914.086 2011.44 876.403C2012.12 841.221 2052.34 789.75 2004.67 785.443C1985.41 783.698 1971.26 783.499 1958.44 775.048C1944.18 765.635 1923.44 744.497 1895.53 727.57C1847.42 698.344 1795.73 667.269 1806.91 653.118C1818.1 638.968 1821.66 628.581 1818.36 614.419C1804.38 554.678 1674.72 494.245 1771.77 443.572C1779.96 439.283 1788.91 434.133 1799.27 429.052C1846.32 405.979 1864.7 313.342 1849.42 252.151C1843.07 226.661 1819.44 240.493 1791.57 256.17C1772.33 267.036 1751.23 279.737 1734.39 281.116C1712.57 282.927 1719.96 185.115 1700.15 195.535C1658.6 217.353 1617.63 243.832 1590.55 285.173C1553.82 341.218 1574.7 400.705 1535.21 442.623C1510.83 468.47 1489.24 467.855 1464.07 458.339C1423.26 442.885 1372.47 412.776 1324.44 432.869C1306.19 440.521 1288.36 445.784 1271.53 450.894C1161.82 484.088 1142.58 503.161 1135.11 556.355C1132.45 575.132 1130.92 598.529 1133.32 621.164C1137.28 658.528 1144.67 691.213 1123.61 714.136C1112.29 726.496 1097.58 720.032 1085.3 729.412C1080.98 732.713 1076.96 736.723 1073.17 741.179C1069.36 745.635 1066.11 750.722 1063.19 755.995C1027.9 820.129 1070.05 966.411 1001.72 968.759C933.389 971.108 933.253 947.457 909.76 962.481C871.991 986.633 812.303 988.907 807.699 1050.52C799.814 1155.72 726.131 1162.57 683.833 1150.52C657.205 1142.95 639.17 1124 638.165 1100.02C637.795 1091.59 636.459 1083.57 634.658 1076.12C611.216 980.119 463.305 975.837 346.903 1019.58C307.659 1034.45 264.609 1056.5 235.252 1089.01C169.298 1162.12 36.3141 1098.86 31.8532 1323.99" stroke="url(#paint15_linear_77_20815)" stroke-miterlimit="10"/>
<path d="M2534.28 1009.82C2481.99 1065.33 2421.77 1097.64 2366.83 1117.46C2269.21 1152.66 2177.84 1165.55 2187.04 1095.71C2195.38 1032.48 2201.16 988.581 2186.32 983.124C2149.99 969.814 2085.62 1000.54 2059.6 980.205C2056.46 977.757 2052.01 975.724 2047.66 972.05C2019.16 948.074 2004.25 919.077 2005.71 880.197C2007.06 844.452 2044.38 793.516 1995.2 788.693C1976.34 786.835 1962.92 785.886 1950.97 776.91C1937.51 766.821 1918.37 745.341 1891.43 728.67C1845.09 699.997 1796.65 672.414 1803.63 657.125C1814.86 645.549 1815.94 633.643 1812.24 619.819C1796.84 561.949 1676.28 501.925 1768.03 450.976C1775.92 446.577 1784.5 441.242 1794.39 436.013C1839.67 412.09 1857.97 322.587 1843.16 262.663C1837.04 237.992 1814.57 250.177 1787.77 264.433C1769.2 274.325 1748.76 286.24 1732.35 287.654C1710.87 289.501 1716.71 198.075 1697.16 208.27C1656.98 229.224 1617.51 254.876 1591.23 294.722C1553.6 351.777 1576.99 412.336 1535.09 453.704C1509.77 478.697 1486.83 475.328 1460.55 462.347C1418.04 441.417 1366.19 404.074 1318.66 423.643C1300.07 431.297 1282.04 436.71 1265.15 442.044C1152.78 477.376 1136.54 501.92 1133.08 557.708C1131.86 577.411 1131.86 601.473 1135.47 624.364C1141.54 663.024 1150.4 696.226 1129.14 718.963C1117.58 731.324 1102.4 723.668 1089.76 732.825C1085.3 736.053 1081.15 740.063 1077.26 744.482C1073.34 748.939 1069.96 754.027 1066.91 759.338C1030.02 823.553 1070.87 971.706 1001.54 973.909C926.671 976.249 932.172 952.126 909.617 968.041C872.258 994.43 811.834 996.036 808.132 1058.06C801.691 1165.34 727.436 1170.96 685.136 1158.53C658.674 1150.78 640.572 1131.79 638.4 1108.04C637.63 1099.65 635.96 1091.67 633.825 1084.22C606.379 988.273 460.919 979.616 344.232 1019.29C304.915 1032.78 261.092 1053.64 230.364 1085.52C162.065 1156.44 31.7642 1103.92 31.4018 1327.69" stroke="url(#paint16_linear_77_20815)" stroke-miterlimit="10"/>
<path d="M2530.62 1012.52C2478.77 1068.66 2417.81 1101.2 2361.71 1120.88C2265.72 1154.54 2169.58 1171.11 2179.19 1100.52C2187.95 1036.24 2193.14 992.794 2178.36 986.852C2142.46 972.383 2076.74 1007.1 2049.8 988.306C2046.45 985.97 2041.94 983.975 2037.61 980.226C2008.98 955.392 1997.73 924.066 1999.89 883.99C2001.87 847.645 2036.29 797.244 1985.64 791.942C1967.21 790.008 1954.46 788.235 1943.37 778.733C1930.74 767.932 1913.2 746.109 1887.23 729.733C1842.66 701.648 1795.5 675.851 1800.24 661.094C1809.9 650.084 1810.12 638.667 1806.06 625.18C1789.23 569.219 1677.78 509.491 1764.26 458.341C1771.88 453.831 1780.06 448.349 1789.48 442.973C1832.95 418.162 1851.17 331.868 1836.83 273.173C1830.99 249.285 1809.64 259.861 1783.94 272.694C1766.02 281.65 1746.25 292.779 1730.31 294.191C1709.13 296.074 1713.46 210.997 1694.18 221.004C1655.36 241.094 1617.36 265.919 1591.9 304.306C1553.41 362.373 1579.27 424.002 1535 464.821C1508.78 488.998 1484.49 482.799 1457.03 466.429C1412.8 440.021 1359.88 395.409 1312.85 414.49C1293.93 422.146 1275.7 427.709 1258.74 433.267C1143.71 470.812 1130.43 500.789 1131.01 559.097C1131.24 579.726 1132.81 604.453 1137.58 627.637C1145.83 667.594 1156.12 701.274 1134.63 723.9C1122.84 736.3 1107.18 727.377 1094.18 736.35C1089.58 739.504 1085.33 743.477 1081.35 747.896C1077.33 752.353 1073.81 757.442 1070.63 762.753C1032.17 827.05 1071.7 977.074 1001.36 979.095C922.989 981.376 931.125 956.868 909.508 973.675C872.593 1002.34 811.431 1003.24 808.599 1065.7C803.635 1175.07 728.774 1179.46 686.473 1166.7C660.144 1158.75 641.941 1139.73 638.669 1116.24C637.498 1107.89 635.462 1099.95 633.027 1092.5C601.61 996.613 458.533 983.581 341.629 1019.16C302.239 1031.27 257.677 1050.93 225.545 1082.19C154.934 1150.95 27.2821 1109.16 30.9847 1331.53" stroke="url(#paint17_linear_77_20815)" stroke-miterlimit="10"/>
<path d="M2526.99 1015.26C2475.62 1072.04 2413.9 1104.76 2356.62 1124.3C2262.29 1156.49 2161.37 1176.7 2171.34 1105.37C2180.5 1040.04 2185.08 997.044 2170.44 990.579C2134.93 974.916 2067.9 1013.71 2040.02 996.444C2036.48 994.258 2031.93 992.263 2027.64 988.439C1998.87 962.786 1991.25 929.056 1994.14 887.783C1996.71 850.839 2028.26 801.009 1976.15 795.192C1958.12 793.181 1946.1 790.585 1935.87 780.594C1924.08 769.043 1908.1 746.915 1883.1 730.833C1840.3 703.3 1794.42 679.288 1796.92 665.1C1805.05 654.619 1804.37 643.766 1799.94 630.579C1781.69 576.489 1679.32 517.02 1760.55 465.744C1767.91 461.123 1775.69 455.456 1784.61 449.933C1826.31 424.197 1844.44 341.112 1830.54 283.646C1824.96 260.54 1804.75 269.507 1780.11 280.918C1762.85 288.939 1743.71 299.244 1728.24 300.655C1707.39 302.573 1710.18 223.882 1691.14 233.664C1653.68 252.891 1617.15 276.888 1592.55 313.779C1553.16 372.857 1581.56 435.632 1534.85 475.828C1507.73 499.187 1482.03 490.159 1453.48 470.361C1407.49 438.478 1353.57 386.632 1307 405.189C1287.75 412.884 1269.32 418.56 1252.26 424.342C1134.61 464.099 1124.28 499.51 1128.92 560.374C1130.55 581.93 1133.73 607.285 1139.7 630.799C1150.13 671.977 1161.82 706.248 1140.13 728.726C1128.1 741.164 1111.97 731.013 1098.6 739.763C1093.87 742.843 1089.52 746.779 1085.4 751.199C1081.25 755.656 1077.63 760.746 1074.35 766.057C1034.29 830.399 1072.52 982.293 1001.22 984.207C919.31 986.428 930.114 961.535 909.401 979.197C872.963 1010.21 811.031 1010.29 809.068 1073.2C805.582 1184.65 730.081 1187.85 687.812 1174.67C661.649 1166.54 643.346 1147.49 638.941 1124.26C637.37 1115.95 634.999 1108.05 632.231 1100.6C596.81 1004.77 456.15 987.359 338.994 1018.87C299.565 1029.6 254.23 1048.11 220.694 1078.7C147.771 1145.31 22.7687 1114.22 30.5698 1335.22" stroke="url(#paint18_linear_77_20815)" stroke-miterlimit="10"/>
<path d="M2523.34 1017.96C2472.4 1075.37 2409.91 1108.36 2351.53 1127.71C2258.86 1158.41 2153.15 1182.26 2163.52 1110.21C2173.07 1043.88 2177.09 1001.33 2162.51 994.344C2127.44 977.522 2059.05 1020.39 2030.25 1004.58C2026.5 1002.51 2021.92 1000.59 2017.67 996.652C1988.75 970.178 1984.76 934.008 1988.38 891.613C1991.59 854.069 2020.24 804.849 1966.65 798.516C1949.06 796.428 1937.73 793.008 1928.38 782.491C1917.41 770.19 1903.03 747.757 1878.97 731.969C1837.94 704.988 1793.33 682.798 1793.64 669.18C1800.2 659.266 1798.69 648.901 1793.86 636.051C1774.21 583.87 1680.89 524.511 1756.85 473.221C1763.9 468.452 1771.28 462.637 1779.77 457.005C1819.7 430.381 1837.7 350.504 1824.31 294.267C1818.97 271.944 1799.89 279.302 1776.37 289.29C1759.78 296.338 1741.31 305.894 1726.26 307.303C1705.72 309.257 1707 236.915 1688.22 246.51C1652.1 264.872 1617.06 288.042 1593.29 323.475C1552.97 383.564 1583.95 447.522 1534.84 487.019C1506.77 509.599 1479.72 497.704 1450.06 474.479C1402.28 437.119 1347.36 378.004 1301.29 396.073C1281.7 403.769 1263.08 409.595 1245.95 415.564C1125.67 457.571 1118.31 498.342 1126.96 561.762C1130.02 584.207 1134.81 610.227 1141.92 634.034C1154.55 676.397 1167.65 711.296 1145.72 733.589C1133.46 746.065 1116.86 734.684 1103.12 743.212C1098.26 746.218 1093.77 750.117 1089.59 754.538C1085.33 758.995 1081.59 764.123 1078.17 769.398C1036.54 833.82 1073.45 987.586 1001.14 989.355C915.695 991.48 929.2 966.314 909.392 984.755C873.499 1018.19 810.728 1017.42 809.602 1080.73C807.592 1194.22 731.486 1196.23 689.215 1182.69C663.218 1174.33 644.815 1155.28 639.276 1132.28C637.305 1124.05 634.568 1116.15 631.499 1108.7C592.107 1012.92 453.864 991.136 336.457 1018.58C296.956 1027.93 250.848 1045.29 215.941 1075.21C140.707 1139.75 18.3531 1119.31 30.2191 1338.92" stroke="url(#paint19_linear_77_20815)" stroke-miterlimit="10"/>
<path d="M2519.68 1020.7C2469.17 1078.78 2405.95 1112 2346.4 1131.13C2255.4 1160.4 2144.9 1187.85 2155.66 1115.06C2165.61 1047.68 2169.03 1005.58 2154.59 998.073C2119.9 980.092 2050.2 1027.07 2020.47 1012.68C2016.53 1010.76 2011.91 1008.84 2007.66 1004.87C1978.61 977.535 1978.21 939 1982.59 895.407C1986.39 857.263 2012.18 808.653 1957.12 801.767C1939.93 799.603 1929.33 795.321 1920.81 784.353C1910.71 771.302 1897.86 748.601 1874.8 733.07C1835.55 706.679 1792.18 686.274 1790.28 673.188C1795.28 663.839 1792.9 653.964 1787.71 641.451C1766.7 591.142 1682.36 531.855 1753.11 480.662C1759.9 475.745 1766.88 469.82 1774.89 464.003C1813.01 436.417 1830.97 359.824 1818.02 304.816C1812.95 283.275 1794.99 288.986 1772.54 297.59C1756.61 303.702 1738.8 312.435 1724.19 313.879C1703.97 315.869 1703.72 249.913 1685.21 259.245C1650.45 276.781 1616.84 299.087 1593.93 333.023C1552.72 394.124 1586.24 459.302 1534.68 498.1C1505.71 519.901 1477.25 505.102 1446.5 478.525C1396.93 435.651 1341.02 369.302 1295.48 386.885C1275.56 394.582 1256.73 400.558 1239.5 406.751C1116.6 451.046 1112.29 497.138 1124.86 563.153C1129.4 586.524 1135.72 613.096 1144 637.309C1158.84 680.856 1173.31 716.346 1151.18 738.528C1138.69 751.042 1121.62 738.395 1107.5 746.701C1102.51 749.633 1097.92 753.495 1093.6 757.916C1089.25 762.337 1085.4 767.502 1081.86 772.778C1038.62 837.282 1074.24 992.881 1000.97 994.542C911.979 996.571 928.219 971.094 909.249 990.39C873.967 1026.25 810.325 1024.62 810.034 1088.34C809.536 1203.92 732.79 1204.74 690.517 1190.78C664.686 1182.24 646.15 1163.18 639.511 1140.41C637.106 1132.22 634.035 1124.36 630.666 1116.87C587.304 1021.15 451.444 995.028 333.786 1018.33C294.211 1026.3 247.398 1042.51 211.053 1071.77C133.507 1134.22 13.8026 1124.41 29.7671 1342.65" stroke="url(#paint20_linear_77_20815)" stroke-miterlimit="10"/>
<path d="M2516.02 1023.4C2465.99 1082.11 2402.03 1115.59 2341.28 1134.55C2251.94 1162.43 2136.65 1193.45 2147.77 1119.91C2158.16 1051.48 2160.98 1009.87 2146.59 1001.84C2112.34 982.698 2041.29 1033.82 2010.63 1020.82C2006.49 1019.05 2001.81 1017.13 1997.62 1013.08C1968.43 984.891 1971.66 943.989 1976.77 899.236C1981.2 860.493 2004.09 812.53 1947.56 805.053C1930.8 802.85 1920.93 797.707 1913.24 786.213C1904 772.412 1892.73 749.406 1870.6 734.169C1833.12 708.33 1791.02 689.748 1786.9 677.193C1790.33 668.374 1787.12 659.024 1781.49 646.849C1759.13 598.374 1683.72 539.086 1749.27 488.064C1755.76 483 1762.37 476.927 1769.92 471C1806.23 442.49 1824.1 369.105 1811.62 315.363C1806.83 294.642 1789.99 298.707 1768.63 305.888C1753.34 311.028 1736.22 319.011 1722.05 320.453C1702.17 322.48 1700.41 262.909 1682.13 272.017C1648.73 288.688 1616.59 310.13 1594.51 342.645C1552.36 404.72 1588.49 471.192 1534.5 509.255C1504.62 530.314 1474.75 512.611 1442.92 482.606C1391.55 434.219 1334.64 360.637 1289.6 377.732C1269.34 385.431 1250.32 391.557 1233.03 397.974C1107.53 444.556 1106.11 495.97 1122.73 564.579C1128.68 588.839 1136.64 616.039 1146.05 640.62C1163.13 685.276 1178.97 721.431 1156.61 743.465C1143.88 755.98 1126.34 742.141 1111.86 750.225C1106.73 753.083 1102.01 756.946 1097.62 761.33C1093.14 765.751 1089.19 770.917 1085.51 776.193C1040.71 840.741 1074.99 998.212 1000.72 999.765C908.197 1001.7 927.172 975.948 909.04 996.023C874.403 1034.37 809.822 1031.78 810.401 1095.98C811.447 1213.64 734.028 1213.23 691.754 1198.91C666.055 1190.18 647.452 1171.08 639.713 1148.58C636.908 1140.42 633.504 1132.6 629.801 1125.12C582.468 1029.41 448.992 998.955 331.116 1018.19C291.469 1024.78 243.916 1039.88 206.167 1068.47C126.343 1128.91 9.25403 1129.65 29.2836 1346.53" stroke="url(#paint21_linear_77_20815)" stroke-miterlimit="10"/>
<path d="M2512.36 1026.1C2462.76 1085.45 2398.07 1119.27 2336.15 1137.97C2248.48 1164.46 2128.4 1199.01 2139.92 1124.75C2150.7 1055.32 2152.92 1014.16 2138.67 1005.6C2104.81 985.307 2032.47 1040.61 2000.85 1028.96C1996.51 1027.37 1991.8 1025.42 1987.64 1021.29C1958.35 992.285 1965.14 948.98 1971.01 903.031C1976.04 863.688 1996.06 816.408 1938.06 808.341C1921.7 806.062 1912.6 800.058 1905.74 788.112C1897.37 773.525 1887.62 750.25 1866.47 735.308C1830.75 710.057 1789.94 693.26 1783.61 681.238C1785.48 672.985 1781.44 664.124 1775.41 652.287C1751.72 605.682 1685.19 546.244 1745.6 495.506C1751.82 490.293 1758 484.073 1765.11 477.999C1799.62 448.489 1817.4 378.425 1805.39 325.875C1800.84 305.936 1785.13 308.354 1764.9 314.15C1750.27 318.317 1733.81 325.514 1720.07 326.992C1700.49 329.054 1697.23 275.832 1679.21 284.752C1647.18 300.597 1616.47 321.174 1595.28 352.194C1552.21 415.242 1590.95 483.083 1534.48 520.299C1503.7 540.615 1472.41 519.972 1439.5 486.576C1386.34 432.676 1328.46 351.823 1283.88 368.469C1263.3 376.169 1244.07 382.446 1226.68 389.087C1098.55 437.956 1100.1 494.692 1120.73 565.857C1128.12 591.044 1137.68 618.796 1148.23 643.745C1167.55 689.511 1184.73 726.37 1162.17 748.255C1149.21 760.808 1131.19 745.74 1116.34 753.602C1111.08 756.385 1106.26 760.212 1101.74 764.596C1097.16 769.018 1093.07 774.184 1089.29 779.461C1042.89 844.091 1075.88 1003.39 1000.61 1004.84C904.548 1006.68 926.325 980.691 908.997 1001.51C875.071 1042.36 809.519 1038.84 810.934 1103.45C813.523 1223.15 735.432 1221.59 693.156 1206.85C667.624 1197.93 648.887 1178.84 640.047 1156.53C636.842 1148.45 633.071 1140.63 629.068 1133.15C577.764 1037.49 446.705 1002.66 328.544 1017.8C288.824 1023.01 240.533 1037.02 201.379 1064.87C119.277 1123.31 4.80374 1134.63 28.9319 1350.16" stroke="url(#paint22_linear_77_20815)" stroke-miterlimit="10"/>
<path d="M2508.7 1028.84C2459.57 1088.82 2394.12 1122.98 2331.03 1141.38C2245.01 1166.49 2120.14 1204.6 2132.03 1129.6C2143.2 1059.12 2144.86 1018.41 2130.68 1009.33C2097.21 987.875 2023.59 1047.36 1991.01 1037.1C1986.47 1035.66 1981.72 1033.74 1977.57 1029.51C1948.17 999.64 1958.52 953.932 1965.15 906.86C1970.79 866.918 1987.9 820.323 1928.47 811.627C1912.54 809.272 1904.17 802.406 1898.11 790.01C1890.63 774.672 1882.42 751.13 1862.2 736.444C1828.26 711.746 1788.72 696.771 1780.16 685.318C1780.49 677.632 1775.58 669.259 1769.16 657.759C1744.14 612.988 1686.39 553.363 1741.76 502.982C1747.68 497.622 1753.49 491.254 1760.13 485.033C1792.8 454.561 1810.53 387.78 1799.03 336.459C1794.74 317.302 1780.13 318.074 1761 322.485C1747 325.717 1731.24 332.128 1717.93 333.603C1698.69 335.701 1693.88 288.865 1676.1 297.56C1645.43 312.542 1616.18 332.254 1595.82 361.852C1551.79 425.875 1593.17 495.085 1534.26 531.491C1502.54 551.102 1469.87 527.48 1435.88 490.732C1380.89 431.281 1322.05 343.232 1278.01 359.391C1257.08 367.092 1237.69 373.556 1220.2 380.384C1089.48 431.577 1093.92 493.598 1118.6 567.358C1127.39 593.434 1138.56 621.738 1150.28 647.13C1171.84 693.968 1190.39 731.529 1167.6 753.266C1154.4 765.858 1135.91 749.524 1120.7 757.201C1115.3 759.91 1110.38 763.699 1105.73 768.084C1101.04 772.507 1096.83 777.674 1092.91 782.951C1044.91 847.625 1076.61 1008.84 1000.37 1010.14C900.766 1011.88 925.345 985.618 908.788 1007.25C875.64 1050.6 809.083 1046.11 811.301 1111.16C815.467 1232.91 736.671 1230.2 694.393 1215.05C669.026 1205.98 650.156 1186.81 640.216 1164.77C636.578 1156.73 632.506 1148.95 628.169 1141.47C572.894 1045.83 444.22 1006.66 325.807 1017.73C286.014 1021.56 236.984 1034.46 196.425 1061.61C112.013 1118.05 0.187896 1139.91 28.3811 1354.07" stroke="url(#paint23_linear_77_20815)" stroke-miterlimit="10"/>
<path d="M2505.04 1031.54C2456.35 1092.15 2390.2 1126.65 2325.91 1144.8C2241.59 1168.59 2112.03 1210.19 2124.18 1134.45C2135.91 1062.95 2136.81 1022.7 2122.72 1013.1C2089.65 990.483 2014.78 1054.23 1981.2 1045.23C1976.46 1043.95 1971.68 1042.03 1967.56 1037.72C1938.06 1007 1951.96 958.886 1959.36 910.654C1965.59 870.075 1979.84 824.275 1918.94 814.878C1903.41 812.483 1895.83 804.719 1890.57 791.834C1884 775.709 1877.29 751.899 1858.07 737.508C1825.9 713.398 1787.63 700.172 1776.84 689.288C1775.61 682.13 1769.87 674.284 1763.04 663.121C1736.73 620.147 1687.68 560.259 1738.02 510.349C1743.64 504.803 1749.05 498.325 1755.26 491.994C1786.09 460.522 1803.8 397.024 1792.74 346.97C1788.69 328.596 1775.2 327.722 1757.2 330.747C1743.86 332.969 1728.77 338.668 1715.89 340.104C1696.95 342.275 1690.63 301.788 1673.12 310.258C1643.81 324.413 1616 343.224 1596.5 371.363C1551.5 436.323 1595.49 506.976 1534.14 542.535C1501.52 561.441 1467.44 534.841 1432.36 494.702C1375.58 429.738 1315.74 334.419 1272.19 350.127C1250.9 357.793 1231.34 364.444 1213.79 371.497C1080.51 425.051 1087.81 492.357 1116.54 568.636C1126.77 595.638 1139.54 624.458 1152.4 650.293C1176.23 698.165 1196.09 736.467 1173.09 758.093C1159.66 770.723 1140.73 753.16 1125.12 760.614C1119.59 763.25 1114.53 767.002 1109.81 771.388C1105.03 775.811 1100.68 780.978 1096.63 786.293C1046.96 850.937 1077.43 1014.09 1000.19 1015.29C897.05 1016.89 924.464 990.398 908.678 1012.81C876.376 1058.69 808.713 1053.2 811.767 1118.7C817.511 1242.49 737.975 1238.62 695.729 1223.06C670.528 1213.81 651.558 1194.64 640.485 1172.83C636.446 1164.86 632.007 1157.09 627.37 1149.61C568.091 1054.02 441.834 1010.48 323.203 1017.48C283.371 1019.93 233.602 1031.79 191.605 1058.16C104.915 1112.67 -4.26147 1145.04 27.9967 1357.81" stroke="url(#paint24_linear_77_20815)" stroke-miterlimit="10"/>
<path d="M2501.41 1034.28C2453.19 1095.52 2386.31 1130.44 2320.85 1148.22C2238.19 1170.7 2103.84 1215.79 2116.39 1139.26C2128.52 1066.75 2128.82 1026.95 2114.86 1016.79C2082.18 993.052 2006.06 1060.98 1971.49 1053.3C1966.55 1052.2 1961.7 1050.24 1957.61 1045.9C1927.98 1014.31 1945.48 963.838 1953.64 914.446C1960.47 873.268 1971.82 828.227 1909.47 818.127C1894.35 815.693 1887.57 807.067 1883.11 793.694C1877.46 776.781 1872.22 752.704 1853.97 738.607C1823.57 715.049 1786.58 703.645 1773.59 693.293C1770.79 686.702 1764.21 679.307 1756.99 668.519C1729.39 627.341 1688.91 567.118 1734.38 517.75C1739.66 512.02 1744.74 505.394 1750.45 498.953C1779.44 466.445 1797.1 406.305 1786.51 357.48C1782.69 339.925 1770.34 337.33 1753.43 339.007C1740.72 340.256 1726.29 345.169 1713.92 346.64C1695.31 348.848 1687.45 314.747 1670.2 322.992C1642.26 336.319 1615.88 354.266 1597.24 380.947C1551.28 446.843 1597.91 519.015 1534.12 553.614C1500.57 571.816 1465.1 542.237 1428.9 498.746C1370.3 428.23 1309.49 325.678 1266.44 340.937C1244.82 348.604 1225.06 355.405 1207.41 362.682C1071.54 418.598 1081.77 491.152 1114.51 570.024C1126.14 597.953 1140.52 627.251 1154.55 653.528C1180.62 702.436 1201.81 741.515 1178.62 762.955C1164.96 775.587 1145.55 756.831 1129.6 764.026C1123.94 766.588 1118.78 770.303 1113.93 774.689C1109.01 779.113 1104.56 784.281 1100.41 789.596C1049.14 854.284 1078.32 1019.31 1000.11 1020.4C893.434 1021.91 923.683 995.139 908.634 1018.33C877.211 1066.78 808.442 1060.25 812.299 1126.23C819.654 1252.07 739.379 1247.01 697.131 1231.12C672.063 1221.67 652.993 1202.51 640.819 1180.92C636.347 1173 631.608 1165.26 626.637 1157.78C563.388 1062.21 439.547 1014.33 320.632 1017.23C280.727 1018.3 230.219 1029.08 186.817 1054.71C97.8167 1107.29 -8.71165 1150.13 27.6117 1361.54" stroke="url(#paint25_linear_77_20815)" stroke-miterlimit="10"/>
<path d="M2497.75 1036.98C2449.97 1098.86 2382.38 1134.18 2315.72 1151.63C2234.73 1172.8 2095.55 1221.35 2108.5 1144.1C2121.03 1070.56 2120.72 1031.24 2106.86 1020.55C2074.55 995.66 1997.25 1067.88 1961.65 1061.44C1956.51 1060.53 1951.63 1058.53 1947.57 1054.11C1917.86 1021.63 1938.86 968.792 1947.81 918.277C1955.24 876.462 1963.69 832.254 1899.91 821.452C1885.22 818.941 1879.2 809.454 1875.5 795.592C1870.79 777.93 1867.05 753.585 1849.73 739.745C1821.07 716.777 1785.39 707.158 1770.16 697.338C1765.8 691.313 1758.39 684.369 1750.77 673.956C1721.87 634.574 1689.91 573.904 1730.54 525.192C1735.49 519.238 1740.2 512.54 1745.47 505.989C1772.56 472.444 1790.2 415.662 1780.15 368.028C1776.6 351.256 1765.31 348.208 1749.56 347.307C1737.51 346.613 1723.75 351.747 1711.81 353.216C1693.53 355.459 1684.17 327.744 1667.15 335.764C1640.58 348.265 1615.62 365.311 1597.88 390.533C1550.89 457.329 1600.19 531.056 1534 564.732C1499.51 582.267 1462.63 549.672 1425.38 502.791C1364.99 426.724 1303.18 316.977 1260.66 331.748C1238.71 339.38 1218.78 346.405 1201.03 353.869C1062.6 412.183 1075.68 489.947 1112.48 571.414C1125.55 600.232 1141.53 630.083 1156.7 656.803C1185.01 706.707 1207.54 746.565 1184.14 767.894C1170.25 780.563 1150.37 760.542 1134.05 767.552C1128.26 770.002 1122.97 773.755 1118.05 778.104C1113.03 782.528 1108.48 787.734 1104.16 793.013C1051.32 857.782 1079.18 1024.64 999.962 1025.62C889.75 1027 922.901 999.992 908.557 1024.01C878.112 1074.99 808.138 1067.49 812.798 1133.88C821.762 1261.76 740.748 1255.55 698.499 1239.24C673.597 1229.61 654.393 1210.45 641.119 1189.05C636.247 1181.2 631.141 1173.43 625.87 1165.95C558.816 1070.29 437.192 1018.18 318.059 1017.02C278.081 1016.71 226.835 1026.45 182.028 1051.3C90.7503 1101.95 -13.1631 1155.26 27.2587 1365.31" stroke="url(#paint26_linear_77_20815)" stroke-miterlimit="10"/>
<path d="M2494.1 1039.72C2446.79 1102.23 2378.43 1138.04 2310.6 1155.09C2231.27 1175.02 2087.31 1226.98 2100.65 1148.99C2113.57 1074.39 2112.67 1035.52 2098.94 1024.32C2067.03 998.303 1988.54 1074.75 1951.88 1069.61C1946.57 1068.85 1941.62 1066.89 1937.6 1062.36C1907.79 1029.03 1932.34 973.781 1942.06 922.107C1950.05 879.692 1955.64 836.318 1890.42 824.738C1876.12 822.188 1870.94 811.84 1868.01 797.49C1864.26 779.077 1861.95 754.464 1845.64 740.881C1818.75 718.502 1783.18 713.023 1766.88 701.38C1760.39 696.745 1752.71 689.466 1744.66 679.391C1714.47 641.731 1690.84 580.689 1726.84 532.631C1731.45 526.455 1735.79 519.684 1740.64 512.985C1765.81 478.405 1783.47 424.98 1773.89 378.575C1770.58 362.585 1760.44 356.585 1745.76 355.605C1734.31 354.834 1721.28 358.322 1709.77 359.79C1691.8 362.107 1680.92 340.74 1664.17 348.535C1639 360.21 1615.44 376.354 1598.56 400.154C1550.54 467.85 1602.52 543.169 1533.89 575.887C1498.46 592.791 1460.19 557.143 1421.87 506.872C1359.65 425.255 1296.87 308.236 1254.85 322.595C1232.56 330.191 1212.44 337.404 1194.59 345.092C1053.6 405.805 1069.54 488.78 1110.39 572.803C1124.86 602.547 1142.45 632.876 1158.78 660.076C1189.34 710.978 1213.24 751.613 1189.61 772.793C1175.48 785.464 1155.13 764.251 1138.44 771.039C1132.51 773.415 1127.12 777.131 1122.07 781.481C1116.95 785.905 1112.27 791.111 1107.85 796.391C1053.44 861.242 1079.97 1029.94 999.755 1030.81C886.005 1032.05 922.059 1004.77 908.385 1029.6C878.952 1083.11 807.739 1074.58 813.168 1141.45C823.777 1271.38 741.957 1264.01 699.739 1247.3C674.97 1237.48 655.666 1218.31 641.292 1197.15C636.019 1189.37 630.58 1181.6 624.975 1174.13C553.917 1078.48 434.71 1022.03 315.326 1016.81C275.276 1015.12 223.291 1023.81 177.079 1047.89C83.4906 1096.68 -17.7747 1160.43 26.7121 1369.08" stroke="url(#paint27_linear_77_20815)" stroke-miterlimit="10"/>
<path d="M2490.44 1042.42C2443.56 1105.6 2374.55 1141.86 2305.48 1158.47C2227.81 1177.12 2079.06 1232.54 2092.8 1153.8C2106.12 1078.19 2104.61 1039.77 2090.98 1028.04C2059.43 1000.87 1979.83 1081.61 1942.07 1077.71C1936.56 1077.14 1931.58 1075.15 1927.56 1070.54C1897.64 1036.35 1925.72 978.697 1936.24 925.9C1944.83 882.849 1947.48 840.383 1880.86 827.988C1866.96 825.4 1862.61 814.189 1860.44 799.314C1857.66 780.15 1856.78 755.233 1841.44 741.944C1816.32 720.155 1782.53 715.787 1763.53 705.387C1755.74 701.13 1747 694.491 1738.51 684.791C1707.06 648.852 1691.64 587.363 1723.1 540.034C1727.35 533.636 1731.35 526.755 1735.76 519.983C1758.97 484.329 1776.7 434.299 1767.6 389.123C1764.53 373.915 1755.52 366.195 1741.96 363.866C1731.17 362.048 1718.8 364.862 1707.73 366.328C1690.09 368.68 1677.68 353.737 1661.16 361.233C1637.35 372.08 1615.22 387.323 1599.2 409.665C1550.15 478.223 1604.81 555.172 1533.77 586.893C1497.4 603.13 1457.69 564.541 1418.35 510.842C1354.17 423.787 1290.56 299.422 1249.04 313.331C1226.42 320.928 1206.09 328.291 1188.18 336.204C1044.66 399.353 1063.47 487.538 1108.32 574.118C1124.24 604.752 1143.39 635.595 1160.9 663.238C1193.69 715.1 1218.93 756.55 1195.1 777.62C1180.74 790.329 1159.92 767.887 1142.86 774.452C1136.8 776.754 1131.31 780.434 1126.16 784.784C1120.94 789.209 1116.12 794.415 1111.57 799.695C1055.56 864.59 1080.83 1035.16 999.611 1035.92C882.324 1037.03 921.279 1009.47 908.31 1035.12C879.923 1091.17 807.437 1081.64 813.669 1148.95C825.922 1280.88 743.297 1272.51 701.11 1255.27C676.507 1245.34 657.069 1226.14 641.628 1205.17C635.922 1197.43 630.149 1189.7 624.243 1182.23C549.181 1086.64 432.425 1025.81 312.79 1016.48C272.667 1013.41 219.943 1021.07 172.327 1044.37C76.4271 1091.27 -22.1902 1165.45 26.3951 1372.74" stroke="url(#paint28_linear_77_20815)" stroke-miterlimit="10"/>
<path d="M2486.78 1045.13C2440.37 1108.94 2370.63 1145.76 2300.35 1161.89C2224.35 1179.3 2070.8 1238.09 2084.91 1158.64C2098.62 1081.99 2096.52 1044.06 2083.02 1031.81C2051.83 1003.52 1971.11 1088.52 1932.29 1085.85C1926.59 1085.46 1921.57 1083.43 1917.58 1078.75C1887.6 1043.66 1919.17 983.613 1930.48 929.694C1939.64 886.005 1939.42 844.522 1871.36 831.238C1857.86 828.61 1854.34 816.576 1852.91 801.175C1851.09 781.298 1851.64 756.077 1837.27 743.007C1813.89 721.807 1781.74 718.589 1760.18 709.356C1750.98 705.404 1741.25 699.44 1732.36 690.152C1699.61 655.898 1692.24 594.039 1719.33 547.437C1723.17 540.818 1726.84 533.863 1730.85 526.944C1752.08 490.254 1769.87 443.544 1761.3 399.634C1758.5 385.246 1750.58 375.692 1738.15 372.128C1728.03 369.225 1716.33 371.402 1705.69 372.866C1688.38 375.291 1674.46 366.697 1658.18 373.967C1635.73 384.026 1615 398.292 1599.88 419.25C1549.73 488.671 1607.13 567.287 1533.65 598.011C1496.31 613.618 1455.25 571.939 1414.83 514.887C1348.89 422.243 1284.25 290.683 1243.26 304.142C1220.27 311.703 1199.81 319.291 1181.76 327.39C1035.72 392.975 1057.35 486.334 1106.29 575.47C1123.61 607.03 1144.37 638.315 1163.05 666.474C1198.08 719.297 1224.63 761.525 1200.63 782.52C1186 795.194 1164.74 771.559 1147.32 777.902C1141.15 780.13 1135.49 783.773 1130.24 788.161C1124.89 792.587 1119.97 797.793 1115.32 803.074C1057.74 868.051 1081.68 1040.34 999.466 1041.11C878.673 1041.86 920.564 1014.22 908.2 1040.76C880.924 1099.3 807.1 1088.8 814.135 1156.59C828.064 1290.54 744.633 1281.01 702.445 1263.4C677.975 1253.25 658.437 1234.08 641.896 1213.3C635.79 1205.64 629.649 1197.91 623.444 1190.44C544.377 1094.9 430.038 1029.7 310.151 1016.31C269.955 1011.86 216.527 1018.51 167.472 1040.99C69.2288 1086.07 -26.7071 1170.65 25.9433 1376.58" stroke="url(#paint29_linear_77_20815)" stroke-miterlimit="10"/>
<path d="M2483.12 1047.87C2437.15 1112.31 2366.71 1149.73 2295.23 1165.3C2223.75 1180.87 2062.52 1243.69 2077.05 1163.49C2091.17 1085.79 2088.47 1048.39 2075.06 1035.54C2044.2 1006.16 1962.44 1095.42 1922.49 1093.95C1916.61 1093.75 1911.53 1091.69 1907.54 1086.97C1877.52 1050.95 1912.55 988.566 1924.69 933.524C1934.44 889.199 1931.3 848.735 1861.83 834.562C1848.74 831.896 1846.04 819 1845.37 803.11C1844.52 782.521 1846.51 756.994 1833.14 744.182C1811.49 723.608 1780.85 721.577 1756.86 713.437C1746.2 709.827 1735.56 704.539 1726.25 695.626C1692.2 663.056 1692.73 600.864 1715.62 554.915C1719.03 548.073 1722.44 541.045 1726.01 534.016C1745.23 496.253 1763.03 452.974 1755.04 410.219C1752.44 396.613 1745.75 385.264 1734.35 380.464C1724.93 376.476 1713.85 377.979 1703.65 379.441C1686.64 381.939 1671.22 379.731 1655.2 386.739C1634.11 395.971 1614.82 409.336 1600.55 428.834C1549.27 499.044 1609.45 579.439 1533.56 609.129C1495.25 624.106 1452.88 579.336 1411.34 518.931C1343.61 420.699 1277.97 281.906 1237.48 294.953C1214.16 302.478 1193.54 310.29 1175.38 318.576C1026.92 386.933 1051.27 485.129 1104.26 576.859C1123.02 609.346 1145.35 641.071 1165.2 669.748C1202.44 723.531 1230.39 766.573 1206.19 787.421C1191.33 800.132 1169.59 775.269 1151.8 781.39C1145.5 783.544 1139.75 787.15 1134.36 791.538C1128.91 795.964 1123.86 801.172 1119.08 806.453C1059.93 871.511 1082.54 1045.71 999.355 1046.29C875.024 1046.98 919.851 1018.96 908.124 1046.35C881.994 1107.39 806.797 1095.93 814.635 1164.16C830.241 1300.11 746.005 1289.44 703.815 1271.45C679.51 1261.11 659.84 1241.99 642.198 1221.39C635.658 1213.81 629.218 1206.08 622.678 1198.61C539.608 1103.09 427.686 1033.56 307.548 1016.1C267.312 1010.27 213.079 1015.91 162.652 1037.58C62.0983 1080.81 -31.1897 1175.78 25.5592 1380.35" stroke="url(#paint30_linear_77_20815)" stroke-miterlimit="10"/>
<path d="M2479.46 1050.57C2433.96 1115.64 2362.78 1153.7 2290.1 1168.72C2217.42 1183.73 2054.27 1249.24 2069.2 1168.34C2121.88 882.565 1939.83 1146.85 1897.53 1095.18C1843.28 1028.9 2011.68 871.851 1852.26 837.812C1823.17 831.596 1850.92 767.458 1828.94 745.282C1799.88 716.01 1750.84 728.012 1720.06 701.062C1684.72 670.139 1692.93 607.802 1711.85 562.355C1730.74 516.908 1757.63 469.935 1748.71 420.766C1746.38 407.943 1740.89 394.798 1730.52 388.762C1721.79 383.689 1711.34 384.555 1701.57 386.015C1664.09 391.662 1625.31 405.858 1601.19 438.456C1548.71 509.417 1611.7 591.665 1533.41 620.246C1430.13 658.002 1296.18 265.449 1231.63 285.801C811.758 418.197 1290.27 725.761 1211.61 792.321C1196.55 805.071 1174.31 778.979 1156.15 784.877C1143.16 789.112 1132.49 799.38 1122.73 809.831C1062.01 874.934 1083.3 1051.04 999.108 1051.48C871.241 1052.11 919.035 1023.7 907.946 1051.95C882.995 1115.44 806.425 1103.02 815.033 1171.73C832.317 1309.69 747.274 1297.9 705.083 1279.51C672.018 1265.1 647.159 1234.54 621.811 1206.75C534.736 1111.28 425.265 1037.37 304.875 1015.81C184.486 994.285 -66.3513 1078.53 25.073 1384.05" stroke="url(#paint31_linear_77_20815)" stroke-miterlimit="10"/>
<defs>
<linearGradient id="paint0_linear_77_20815" x1="2592.21" y1="627.546" x2="33.748" y2="638.663" gradientUnits="userSpaceOnUse">
<stop stop-color="#FFFAF5" stop-opacity="0"/>
<stop offset="0.23" stop-color="#FB8500"/>
<stop offset="0.83" stop-color="#FB8500"/>
<stop offset="1" stop-color="#FFFAF5" stop-opacity="0"/>
</linearGradient>
<linearGradient id="paint1_linear_77_20815" x1="2588.61" y1="635.807" x2="33.317" y2="646.91" gradientUnits="userSpaceOnUse">
<stop stop-color="#FFFAF5" stop-opacity="0"/>
<stop offset="0.23" stop-color="#FB8500"/>
<stop offset="0.83" stop-color="#FB8500"/>
<stop offset="1" stop-color="#FFFAF5" stop-opacity="0"/>
</linearGradient>
<linearGradient id="paint2_linear_77_20815" x1="2584.98" y1="644.067" x2="32.9178" y2="655.157" gradientUnits="userSpaceOnUse">
<stop stop-color="#FFFAF5" stop-opacity="0"/>
<stop offset="0.23" stop-color="#FB8500"/>
<stop offset="0.83" stop-color="#FB8500"/>
<stop offset="1" stop-color="#FFFAF5" stop-opacity="0"/>
</linearGradient>
<linearGradient id="paint3_linear_77_20815" x1="2581.37" y1="652.29" x2="32.5193" y2="663.366" gradientUnits="userSpaceOnUse">
<stop stop-color="#FFFAF5" stop-opacity="0"/>
<stop offset="0.23" stop-color="#FB8500"/>
<stop offset="0.83" stop-color="#FB8500"/>
<stop offset="1" stop-color="#FFFAF5" stop-opacity="0"/>
</linearGradient>
<linearGradient id="paint4_linear_77_20815" x1="2577.74" y1="660.551" x2="32.1224" y2="671.612" gradientUnits="userSpaceOnUse">
<stop stop-color="#FFFAF5" stop-opacity="0"/>
<stop offset="0.23" stop-color="#FB8500"/>
<stop offset="0.83" stop-color="#FB8500"/>
<stop offset="1" stop-color="#FFFAF5" stop-opacity="0"/>
</linearGradient>
<linearGradient id="paint5_linear_77_20815" x1="2574.14" y1="668.811" x2="31.7262" y2="679.859" gradientUnits="userSpaceOnUse">
<stop stop-color="#FFFAF5" stop-opacity="0"/>
<stop offset="0.23" stop-color="#FB8500"/>
<stop offset="0.83" stop-color="#FB8500"/>
<stop offset="1" stop-color="#FFFAF5" stop-opacity="0"/>
</linearGradient>
<linearGradient id="paint6_linear_77_20815" x1="2570.51" y1="677.034" x2="31.294" y2="688.068" gradientUnits="userSpaceOnUse">
<stop stop-color="#FFFAF5" stop-opacity="0"/>
<stop offset="0.23" stop-color="#FB8500"/>
<stop offset="0.83" stop-color="#FB8500"/>
<stop offset="1" stop-color="#FFFAF5" stop-opacity="0"/>
</linearGradient>
<linearGradient id="paint7_linear_77_20815" x1="2566.9" y1="685.295" x2="30.8956" y2="696.315" gradientUnits="userSpaceOnUse">
<stop stop-color="#FFFAF5" stop-opacity="0"/>
<stop offset="0.23" stop-color="#FB8500"/>
<stop offset="0.83" stop-color="#FB8500"/>
<stop offset="1" stop-color="#FFFAF5" stop-opacity="0"/>
</linearGradient>
<linearGradient id="paint8_linear_77_20815" x1="2563.27" y1="693.518" x2="30.4968" y2="704.524" gradientUnits="userSpaceOnUse">
<stop stop-color="#FFFAF5" stop-opacity="0"/>
<stop offset="0.23" stop-color="#FB8500"/>
<stop offset="0.83" stop-color="#FB8500"/>
<stop offset="1" stop-color="#FFFAF5" stop-opacity="0"/>
</linearGradient>
<linearGradient id="paint9_linear_77_20815" x1="2559.66" y1="701.778" x2="30.0967" y2="712.77" gradientUnits="userSpaceOnUse">
<stop stop-color="#FFFAF5" stop-opacity="0"/>
<stop offset="0.23" stop-color="#FB8500"/>
<stop offset="0.83" stop-color="#FB8500"/>
<stop offset="1" stop-color="#FFFAF5" stop-opacity="0"/>
</linearGradient>
<linearGradient id="paint10_linear_77_20815" x1="2556.03" y1="710.002" x2="29.7005" y2="720.98" gradientUnits="userSpaceOnUse">
<stop stop-color="#FFFAF5" stop-opacity="0"/>
<stop offset="0.23" stop-color="#FB8500"/>
<stop offset="0.83" stop-color="#FB8500"/>
<stop offset="1" stop-color="#FFFAF5" stop-opacity="0"/>
</linearGradient>
<linearGradient id="paint11_linear_77_20815" x1="2552.43" y1="718.262" x2="29.3038" y2="729.226" gradientUnits="userSpaceOnUse">
<stop stop-color="#FFFAF5" stop-opacity="0"/>
<stop offset="0.23" stop-color="#FB8500"/>
<stop offset="0.83" stop-color="#FB8500"/>
<stop offset="1" stop-color="#FFFAF5" stop-opacity="0"/>
</linearGradient>
<linearGradient id="paint12_linear_77_20815" x1="2548.8" y1="726.485" x2="28.907" y2="737.435" gradientUnits="userSpaceOnUse">
<stop stop-color="#FFFAF5" stop-opacity="0"/>
<stop offset="0.23" stop-color="#FB8500"/>
<stop offset="0.83" stop-color="#FB8500"/>
<stop offset="1" stop-color="#FFFAF5" stop-opacity="0"/>
</linearGradient>
<linearGradient id="paint13_linear_77_20815" x1="2545.2" y1="734.746" x2="28.5082" y2="745.682" gradientUnits="userSpaceOnUse">
<stop stop-color="#FFFAF5" stop-opacity="0"/>
<stop offset="0.23" stop-color="#FB8500"/>
<stop offset="0.83" stop-color="#FB8500"/>
<stop offset="1" stop-color="#FFFAF5" stop-opacity="0"/>
</linearGradient>
<linearGradient id="paint14_linear_77_20815" x1="2541.59" y1="742.969" x2="28.1091" y2="753.891" gradientUnits="userSpaceOnUse">
<stop stop-color="#FFFAF5" stop-opacity="0"/>
<stop offset="0.23" stop-color="#FB8500"/>
<stop offset="0.83" stop-color="#FB8500"/>
<stop offset="1" stop-color="#FFFAF5" stop-opacity="0"/>
</linearGradient>
<linearGradient id="paint15_linear_77_20815" x1="2537.96" y1="751.191" x2="27.7097" y2="762.099" gradientUnits="userSpaceOnUse">
<stop stop-color="#FFFAF5" stop-opacity="0"/>
<stop offset="0.23" stop-color="#FB8500"/>
<stop offset="0.83" stop-color="#FB8500"/>
<stop offset="1" stop-color="#FFFAF5" stop-opacity="0"/>
</linearGradient>
<linearGradient id="paint16_linear_77_20815" x1="2534.36" y1="759.452" x2="27.3114" y2="770.346" gradientUnits="userSpaceOnUse">
<stop stop-color="#FFFAF5" stop-opacity="0"/>
<stop offset="0.23" stop-color="#FB8500"/>
<stop offset="0.83" stop-color="#FB8500"/>
<stop offset="1" stop-color="#FFFAF5" stop-opacity="0"/>
</linearGradient>
<linearGradient id="paint17_linear_77_20815" x1="2530.72" y1="767.712" x2="26.8466" y2="778.593" gradientUnits="userSpaceOnUse">
<stop stop-color="#FFFAF5" stop-opacity="0"/>
<stop offset="0.23" stop-color="#FB8500"/>
<stop offset="0.83" stop-color="#FB8500"/>
<stop offset="1" stop-color="#FFFAF5" stop-opacity="0"/>
</linearGradient>
<linearGradient id="paint18_linear_77_20815" x1="2527.12" y1="775.973" x2="26.2515" y2="786.84" gradientUnits="userSpaceOnUse">
<stop stop-color="#FFFAF5" stop-opacity="0"/>
<stop offset="0.23" stop-color="#FB8500"/>
<stop offset="0.83" stop-color="#FB8500"/>
<stop offset="1" stop-color="#FFFAF5" stop-opacity="0"/>
</linearGradient>
<linearGradient id="paint19_linear_77_20815" x1="2523.49" y1="784.233" x2="25.4201" y2="795.088" gradientUnits="userSpaceOnUse">
<stop stop-color="#FFFAF5" stop-opacity="0"/>
<stop offset="0.23" stop-color="#FB8500"/>
<stop offset="0.83" stop-color="#FB8500"/>
<stop offset="1" stop-color="#FFFAF5" stop-opacity="0"/>
</linearGradient>
<linearGradient id="paint20_linear_77_20815" x1="2519.89" y1="792.494" x2="24.4203" y2="803.338" gradientUnits="userSpaceOnUse">
<stop stop-color="#FFFAF5" stop-opacity="0"/>
<stop offset="0.23" stop-color="#FB8500"/>
<stop offset="0.83" stop-color="#FB8500"/>
<stop offset="1" stop-color="#FFFAF5" stop-opacity="0"/>
</linearGradient>
<linearGradient id="paint21_linear_77_20815" x1="2516.25" y1="800.754" x2="23.2553" y2="811.587" gradientUnits="userSpaceOnUse">
<stop stop-color="#FFFAF5" stop-opacity="0"/>
<stop offset="0.23" stop-color="#FB8500"/>
<stop offset="0.83" stop-color="#FB8500"/>
<stop offset="1" stop-color="#FFFAF5" stop-opacity="0"/>
</linearGradient>
<linearGradient id="paint22_linear_77_20815" x1="2512.62" y1="809.015" x2="21.889" y2="819.839" gradientUnits="userSpaceOnUse">
<stop stop-color="#FFFAF5" stop-opacity="0"/>
<stop offset="0.23" stop-color="#FB8500"/>
<stop offset="0.83" stop-color="#FB8500"/>
<stop offset="1" stop-color="#FFFAF5" stop-opacity="0"/>
</linearGradient>
<linearGradient id="paint23_linear_77_20815" x1="2509.01" y1="817.275" x2="20.356" y2="828.089" gradientUnits="userSpaceOnUse">
<stop stop-color="#FFFAF5" stop-opacity="0"/>
<stop offset="0.23" stop-color="#FB8500"/>
<stop offset="0.83" stop-color="#FB8500"/>
<stop offset="1" stop-color="#FFFAF5" stop-opacity="0"/>
</linearGradient>
<linearGradient id="paint24_linear_77_20815" x1="2505.38" y1="825.498" x2="18.6228" y2="836.304" gradientUnits="userSpaceOnUse">
<stop stop-color="#FFFAF5" stop-opacity="0"/>
<stop offset="0.23" stop-color="#FB8500"/>
<stop offset="0.83" stop-color="#FB8500"/>
<stop offset="1" stop-color="#FFFAF5" stop-opacity="0"/>
</linearGradient>
<linearGradient id="paint25_linear_77_20815" x1="2501.78" y1="833.721" x2="16.7557" y2="844.519" gradientUnits="userSpaceOnUse">
<stop stop-color="#FFFAF5" stop-opacity="0"/>
<stop offset="0.23" stop-color="#FB8500"/>
<stop offset="0.83" stop-color="#FB8500"/>
<stop offset="1" stop-color="#FFFAF5" stop-opacity="0"/>
</linearGradient>
<linearGradient id="paint26_linear_77_20815" x1="2498.13" y1="839.11" x2="14.7079" y2="849.901" gradientUnits="userSpaceOnUse">
<stop stop-color="#FFFAF5" stop-opacity="0"/>
<stop offset="0.23" stop-color="#FB8500"/>
<stop offset="0.83" stop-color="#FB8500"/>
<stop offset="1" stop-color="#FFFAF5" stop-opacity="0"/>
</linearGradient>
<linearGradient id="paint27_linear_77_20815" x1="2494.48" y1="836.476" x2="12.4652" y2="847.261" gradientUnits="userSpaceOnUse">
<stop stop-color="#FFFAF5" stop-opacity="0"/>
<stop offset="0.23" stop-color="#FB8500"/>
<stop offset="0.83" stop-color="#FB8500"/>
<stop offset="1" stop-color="#FFFAF5" stop-opacity="0"/>
</linearGradient>
<linearGradient id="paint28_linear_77_20815" x1="2490.8" y1="833.843" x2="10.0519" y2="844.623" gradientUnits="userSpaceOnUse">
<stop stop-color="#FFFAF5" stop-opacity="0"/>
<stop offset="0.23" stop-color="#FB8500"/>
<stop offset="0.83" stop-color="#FB8500"/>
<stop offset="1" stop-color="#FFFAF5" stop-opacity="0"/>
</linearGradient>
<linearGradient id="paint29_linear_77_20815" x1="2487.15" y1="831.211" x2="7.50278" y2="841.986" gradientUnits="userSpaceOnUse">
<stop stop-color="#FFFAF5" stop-opacity="0"/>
<stop offset="0.23" stop-color="#FB8500"/>
<stop offset="0.83" stop-color="#FB8500"/>
<stop offset="1" stop-color="#FFFAF5" stop-opacity="0"/>
</linearGradient>
<linearGradient id="paint30_linear_77_20815" x1="2483.47" y1="828.578" x2="4.82197" y2="839.349" gradientUnits="userSpaceOnUse">
<stop stop-color="#FFFAF5" stop-opacity="0"/>
<stop offset="0.23" stop-color="#FB8500"/>
<stop offset="0.83" stop-color="#FB8500"/>
<stop offset="1" stop-color="#FFFAF5" stop-opacity="0"/>
</linearGradient>
<linearGradient id="paint31_linear_77_20815" x1="2479.82" y1="825.908" x2="1.97229" y2="836.675" gradientUnits="userSpaceOnUse">
<stop stop-color="#FFFAF5" stop-opacity="0"/>
<stop offset="0.23" stop-color="#FB8500"/>
<stop offset="0.83" stop-color="#FB8500"/>
<stop offset="1" stop-color="#FFFAF5" stop-opacity="0"/>
</linearGradient>
</defs>
</svg>
