<?xml version="1.0" encoding="UTF-8"?><svg id="Layer_2" xmlns="http://www.w3.org/2000/svg" width="1647.91" height="592.06" xmlns:xlink="http://www.w3.org/1999/xlink" viewBox="0 0 1647.91 592.06"><defs><style>.cls-1{fill:url(#linear-gradient-38);}.cls-1,.cls-2,.cls-3,.cls-4,.cls-5,.cls-6,.cls-7,.cls-8,.cls-9,.cls-10,.cls-11,.cls-12,.cls-13,.cls-14,.cls-15,.cls-16,.cls-17,.cls-18,.cls-19,.cls-20,.cls-21,.cls-22,.cls-23,.cls-24,.cls-25,.cls-26,.cls-27,.cls-28,.cls-29,.cls-30,.cls-31,.cls-32,.cls-33,.cls-34,.cls-35,.cls-36,.cls-37,.cls-38,.cls-39,.cls-40,.cls-41,.cls-42,.cls-43{stroke-width:0px;}.cls-2{fill:url(#linear-gradient-12);}.cls-3{fill:url(#linear-gradient-17);}.cls-4{fill:url(#linear-gradient-19);}.cls-5{fill:url(#linear-gradient-33);}.cls-6{fill:url(#linear-gradient);}.cls-7{fill:url(#linear-gradient-21);}.cls-8{fill:url(#linear-gradient-6);}.cls-9{fill:url(#linear-gradient-42);}.cls-10{fill:url(#linear-gradient-15);}.cls-11{fill:url(#linear-gradient-11);}.cls-12{fill:url(#linear-gradient-5);}.cls-13{fill:url(#linear-gradient-31);}.cls-14{fill:url(#linear-gradient-34);}.cls-15{fill:url(#linear-gradient-41);}.cls-16{fill:url(#linear-gradient-40);}.cls-17{fill:url(#linear-gradient-13);}.cls-18{fill:url(#linear-gradient-23);}.cls-19{fill:url(#linear-gradient-25);}.cls-20{fill:url(#linear-gradient-43);}.cls-21{fill:url(#linear-gradient-16);}.cls-22{fill:url(#linear-gradient-22);}.cls-23{fill:url(#linear-gradient-35);}.cls-24{fill:url(#linear-gradient-32);}.cls-25{fill:url(#linear-gradient-20);}.cls-26{fill:url(#linear-gradient-14);}.cls-27{fill:url(#linear-gradient-2);}.cls-28{fill:url(#linear-gradient-7);}.cls-29{fill:url(#linear-gradient-39);}.cls-30{fill:url(#linear-gradient-3);}.cls-31{fill:url(#linear-gradient-9);}.cls-32{fill:url(#linear-gradient-27);}.cls-33{fill:url(#linear-gradient-36);}.cls-34{fill:url(#linear-gradient-8);}.cls-35{fill:url(#linear-gradient-24);}.cls-36{fill:url(#linear-gradient-26);}.cls-37{fill:url(#linear-gradient-18);}.cls-38{fill:url(#linear-gradient-30);}.cls-39{fill:url(#linear-gradient-29);}.cls-40{fill:url(#linear-gradient-28);}.cls-41{fill:url(#linear-gradient-10);}.cls-42{fill:url(#linear-gradient-4);}.cls-43{fill:url(#linear-gradient-37);}</style><linearGradient id="linear-gradient" x1="11.94" y1="382.16" x2="1468.66" y2="382.16" gradientUnits="userSpaceOnUse"><stop offset="0" stop-color="#fffaf5"/><stop offset=".03" stop-color="#fef5eb"/><stop offset=".09" stop-color="#fee9d2"/><stop offset=".17" stop-color="#fdd5a8"/><stop offset=".25" stop-color="#fcb96e"/><stop offset=".35" stop-color="#fb9726"/><stop offset=".4" stop-color="#fb8500"/><stop offset=".57" stop-color="#fb8500"/><stop offset=".67" stop-color="#fb8500"/><stop offset=".77" stop-color="#fb8500"/><stop offset="1" stop-color="#fffaf5"/></linearGradient><linearGradient id="linear-gradient-2" x1="13.37" y1="380.65" x2="1468.66" y2="380.65" xlink:href="#linear-gradient"/><linearGradient id="linear-gradient-3" x1="14.8" y1="378.99" x2="1468.67" y2="378.99" xlink:href="#linear-gradient"/><linearGradient id="linear-gradient-4" x1="16.23" y1="377.32" x2="1468.69" y2="377.32" xlink:href="#linear-gradient"/><linearGradient id="linear-gradient-5" x1="17.67" y1="375.6" x2="1468.71" y2="375.6" xlink:href="#linear-gradient"/><linearGradient id="linear-gradient-6" x1="19.12" y1="373.92" x2="1468.75" y2="373.92" xlink:href="#linear-gradient"/><linearGradient id="linear-gradient-7" x1="20.54" y1="372.18" x2="1468.76" y2="372.18" xlink:href="#linear-gradient"/><linearGradient id="linear-gradient-8" x1="20.45" y1="370.5" x2="1468.97" y2="370.5" xlink:href="#linear-gradient"/><linearGradient id="linear-gradient-9" x1="19.36" y1="370.82" x2="1468.81" y2="370.82" xlink:href="#linear-gradient"/><linearGradient id="linear-gradient-10" x1="18.22" y1="371.89" x2="1468.84" y2="371.89" xlink:href="#linear-gradient"/><linearGradient id="linear-gradient-11" x1="16.91" y1="373.22" x2="1468.81" y2="373.22" xlink:href="#linear-gradient"/><linearGradient id="linear-gradient-12" x1="15.53" y1="374.69" x2="1468.81" y2="374.69" xlink:href="#linear-gradient"/><linearGradient id="linear-gradient-13" x1="14.07" y1="376.17" x2="1468.77" y2="376.17" xlink:href="#linear-gradient"/><linearGradient id="linear-gradient-14" x1="12.88" y1="377.6" x2="1469.03" y2="377.6" xlink:href="#linear-gradient"/><linearGradient id="linear-gradient-15" x1="11.71" y1="379.16" x2="1469.35" y2="379.16" xlink:href="#linear-gradient"/><linearGradient id="linear-gradient-16" x1="9.44" y1="380.45" x2="1468.6" y2="380.45" xlink:href="#linear-gradient"/><linearGradient id="linear-gradient-17" x1="7.87" y1="381.69" x2="1468.56" y2="381.69" xlink:href="#linear-gradient"/><linearGradient id="linear-gradient-18" x1="6.6" y1="382.65" x2="1468.83" y2="382.65" xlink:href="#linear-gradient"/><linearGradient id="linear-gradient-19" x1="5.04" y1="383.43" x2="1468.82" y2="383.43" xlink:href="#linear-gradient"/><linearGradient id="linear-gradient-20" x1="3.34" y1="383.79" x2="1468.68" y2="383.79" xlink:href="#linear-gradient"/><linearGradient id="linear-gradient-21" x1="1.63" y1="383.52" x2="1468.54" y2="383.52" xlink:href="#linear-gradient"/><linearGradient id="linear-gradient-22" x1="0" y1="382.89" x2="1468.49" y2="382.89" xlink:href="#linear-gradient"/><linearGradient id="linear-gradient-23" x1="3.05" y1="380.36" x2="1477.04" y2="380.36" xlink:href="#linear-gradient"/><linearGradient id="linear-gradient-24" x1="6.2" y1="377.43" x2="1485.71" y2="377.43" xlink:href="#linear-gradient"/><linearGradient id="linear-gradient-25" x1="9.07" y1="369.56" x2="1494.18" y2="369.56" xlink:href="#linear-gradient"/><linearGradient id="linear-gradient-26" x1="11.61" y1="359.59" x2="1502.33" y2="359.59" xlink:href="#linear-gradient"/><linearGradient id="linear-gradient-27" x1="15.16" y1="350.1" x2="1511.49" y2="350.1" xlink:href="#linear-gradient"/><linearGradient id="linear-gradient-28" x1="17.39" y1="340.42" x2="1519.36" y2="340.42" xlink:href="#linear-gradient"/><linearGradient id="linear-gradient-29" x1="20.2" y1="330.92" x2="1527.83" y2="330.92" xlink:href="#linear-gradient"/><linearGradient id="linear-gradient-30" x1="22.94" y1="321.7" x2="1536.26" y2="321.7" xlink:href="#linear-gradient"/><linearGradient id="linear-gradient-31" x1="25.73" y1="312.66" x2="1544.77" y2="312.66" xlink:href="#linear-gradient"/><linearGradient id="linear-gradient-32" x1="28.17" y1="303.88" x2="1552.99" y2="303.88" xlink:href="#linear-gradient"/><linearGradient id="linear-gradient-33" x1="30.88" y1="295.91" x2="1561.55" y2="295.91" xlink:href="#linear-gradient"/><linearGradient id="linear-gradient-34" x1="33.43" y1="289.65" x2="1570.05" y2="289.65" xlink:href="#linear-gradient"/><linearGradient id="linear-gradient-35" x1="35.91" y1="284.39" x2="1578.58" y2="284.39" xlink:href="#linear-gradient"/><linearGradient id="linear-gradient-36" x1="38.19" y1="279.2" x2="1587.08" y2="279.2" xlink:href="#linear-gradient"/><linearGradient id="linear-gradient-37" x1="40.21" y1="273.95" x2="1595.52" y2="273.95" xlink:href="#linear-gradient"/><linearGradient id="linear-gradient-38" x1="41.84" y1="268.76" x2="1603.87" y2="268.76" xlink:href="#linear-gradient"/><linearGradient id="linear-gradient-39" x1="43.04" y1="263.51" x2="1612.19" y2="263.51" xlink:href="#linear-gradient"/><linearGradient id="linear-gradient-40" x1="43.71" y1="258.3" x2="1620.52" y2="258.3" xlink:href="#linear-gradient"/><linearGradient id="linear-gradient-41" x1="43.87" y1="253.18" x2="1628.9" y2="253.18" xlink:href="#linear-gradient"/><linearGradient id="linear-gradient-42" x1="43.98" y1="247.95" x2="1637.32" y2="247.95" xlink:href="#linear-gradient"/><linearGradient id="linear-gradient-43" x1="44.08" y1="242.73" x2="1645.73" y2="242.73" xlink:href="#linear-gradient"/></defs><g id="Layer_1-2"><path class="cls-6" d="m1468.37,208.85c-59.08,50.81-123.92,96.58-192.28,134.05-25.35,13.89-52.11,27.88-80.63,33.82-23.75,4.94-48.23,3.62-71.6-2.63-48.86-13.07-91.31-44.2-130.97-74.39-42.69-32.5-84.1-67.46-131.14-93.67-43.9-24.46-93.16-39.5-143.66-31.25-28.87,4.72-55.81,16.46-79.65,33.3-22.14,15.64-41.3,34.87-61.94,52.35s-44.33,33.18-71.43,40.03c-30.13,7.61-61.65,5.23-91.06-4.14-27.76-8.84-54.16-21.18-82.64-27.87-38.41-9.03-78.65-9.72-117.69-4.78-16.94,2.14-33.73,5.39-50.25,9.72-5.84,1.53-14.12,2.49-19.33,5.57-3.05,1.81-5.6,6.58-7.78,9.39-3.47,4.47-6.88,8.98-10.22,13.54-19.74,26.92-38.64,55.9-50.62,87.24-9.77,25.56-15.48,52.52-20.89,79.26-4.61,22.76-12.66,44.91-20.74,66.62-6.88,18.48-14.24,36.78-21.79,54.99-.74,1.78,2.16,2.56,2.89.8,13.15-31.7,26.08-63.69,36.02-96.57,5.36-17.71,8.28-35.87,12.61-53.82,7.9-32.75,18.46-63.07,35.5-92.19,10.42-17.82,22.07-34.91,34.5-51.39,3.51-4.65,7.54-12.54,12.77-15.43,2.17-1.2,5.3-1.62,7.71-2.32,7.69-2.23,15.44-4.23,23.24-5.99,40.3-9.1,82.47-12.11,123.55-7.05,31.79,3.91,61.29,14.38,91.07,25.63,26.6,10.05,53.22,17.31,81.92,16.19,27.88-1.09,54.28-9.65,77.67-24.8,22.33-14.46,41.28-33.32,61.26-50.71,22.18-19.3,46.16-36.52,74.08-46.45,52.04-18.52,106.53-10.3,155.38,13.33,48.56,23.5,90.85,58.05,133.28,90.86,39.51,30.56,80.28,62.34,127.39,80.32,21.03,8.03,43.4,12.84,65.99,12.34,25.05-.55,48.54-8.12,71.2-18.35,32.22-14.54,62.84-32.75,92.61-51.73,32.79-20.91,64.69-43.28,95.44-67.11,14.42-11.17,28.53-22.71,42.36-34.6,1.47-1.26-.66-3.37-2.12-2.12h0Z"/><path class="cls-27" d="m1468.39,208.77c-50.29,41.02-103.53,78.42-159.57,111.2-51.1,29.89-107.4,61.62-168.74,52.18-65.67-10.11-121.55-54.91-173.34-93.48-47.61-35.46-96.2-72.99-152.87-92.77-52.2-18.22-109.17-16.15-158.28,10.18-40.64,21.79-70.66,58.06-110.21,81.33-22,12.94-46.4,20.29-71.92,21.41-34.82,1.53-65.88-9.81-98.24-20.95-28.47-9.79-57.53-16.63-87.65-18.48-33.69-2.07-67.73.89-100.68,8.12-12.45,2.73-24.76,6.08-36.89,9.99-6.4,2.06-9.06,7.41-13.13,12.66-5.56,7.17-10.97,14.45-16.2,21.86-16.25,23-31.53,47.31-42.33,73.41-9.21,22.25-14.4,45.95-20.14,69.26-2.97,12.08-5.08,24.19-8.76,36.13-5.18,16.8-11.91,33.09-18.24,49.48-5.83,15.1-11.66,30.2-17.72,45.22-.72,1.79,2.18,2.57,2.89.8,12.58-31.16,26.04-62.58,35.96-94.7,6.52-21.1,10.05-43.01,15.74-64.35,7.36-27.61,17.37-53.05,31.83-77.71,8.12-13.84,17-27.24,26.37-40.26,5.74-7.98,11.48-16.2,17.91-23.63,5.04-5.83,11.53-6.9,18.77-8.98,61.82-17.83,128.57-20.8,190.64-2.61,30.48,8.93,59.66,22.84,91.45,26.71,26.56,3.24,54.23.34,79.14-9.6,42.3-16.88,72.61-52.04,109.17-77.76,46.26-32.55,102.31-44.61,157.63-31.19,59,14.31,109.87,51.29,157.87,86.84,50.83,37.65,102.38,80.73,163.74,99.71,30.48,9.43,62.76,11.1,93.67,2.66,23.92-6.53,46.68-17.69,68.56-29.15,56.99-29.85,111.45-65.79,162.42-104.98,11.23-8.63,22.28-17.48,33.26-26.43,1.5-1.22-.64-3.33-2.12-2.12h0Z"/><path class="cls-30" d="m1468.4,208.69c-50.58,39.15-103.08,75.48-158.82,106.96-50.59,28.58-106.51,58.93-166.57,51.41-65.57-8.21-122.16-50.69-174.45-88-47.81-34.11-96.12-70.29-151.87-90.43-51.67-18.67-108.08-18.87-158.13,5.03-41.74,19.93-73.08,54.96-112.95,77.73-21.99,12.56-46.17,19.97-71.49,21.35-33.97,1.85-64.72-8.2-96.6-18.37-28.23-9.01-56.96-15.46-86.62-17.08-32.94-1.8-66.19,1.27-98.36,8.5-12.36,2.78-24.58,6.19-36.61,10.16-6.42,2.12-8.22,3.01-12.58,8.47-5.53,6.92-10.93,13.95-16.18,21.1-17.62,24.01-34.28,49.42-46.17,76.82-9.78,22.53-15.27,46.52-21.16,70.26-2.78,11.21-5,22.49-8.32,33.58-4.97,16.63-11.98,32.42-18.6,48.43s-12.01,30.95-18.01,46.42c-.7,1.8,2.2,2.58,2.89.8,6-15.47,11.67-31.08,18.01-46.42s13.62-31.8,18.6-48.43c6.32-21.12,10.11-42.94,16.03-64.19,7.81-28.05,18.97-53.66,34.17-78.49,8.76-14.32,18.31-28.15,28.36-41.59,3.23-4.32,6.52-8.6,9.86-12.84,2.74-3.48,5.28-7.62,9.35-9.49,5.02-2.31,10.86-3.59,16.15-5.16,61.31-18.19,126.88-20.93,188.73-3.85,29.96,8.27,58.89,20.87,90.09,23.87,26.15,2.51,53.03-.66,77.5-10.37,41.96-16.66,73.07-50.52,110.47-74.59,48.1-30.95,105.09-40.06,160.43-25.17,58.01,15.61,108.36,51.52,156.61,85.93,50.6,36.08,102.52,76.78,163.39,93.54,30.28,8.34,62.08,9.16,92.44.71,23.93-6.66,46.8-17.43,68.88-28.64,56.09-28.47,109.62-62.8,160.13-100.22,11.3-8.37,22.4-17.01,33.52-25.61,1.52-1.18-.61-3.29-2.12-2.12h0Z"/><path class="cls-42" d="m1468.71,208.38c-50.89,37.37-102.87,72.68-158.38,102.94-50.38,27.46-105.94,56.45-165.08,50.43-65.12-6.63-122.12-46.53-174.7-82.46-48.51-33.15-97.23-68.51-152.93-88.66-51.56-18.66-107.61-20.26-158.38,1.92-42.19,18.43-74.65,51.9-114.8,73.67-22.54,12.22-47.14,19.38-72.79,20.6-33.68,1.61-64.44-8.22-96.35-17.4-59.51-17.13-120.96-19.08-181.3-4.45-12.17,2.95-24.19,6.53-36.01,10.66-6.3,2.2-8.16,3.19-12.49,8.57-5.61,6.96-11.09,14.03-16.41,21.21-17.91,24.14-34.87,49.71-46.91,77.36-9.9,22.72-15.43,46.87-21.49,70.8-2.84,11.22-5.28,22.48-8.72,33.54-5.16,16.61-12.54,32.19-19.61,48.03-6.05,13.55-10.95,27.49-16.03,41.42-.66,1.82,2.24,2.6,2.89.8,5.86-16.06,11.72-31.95,18.82-47.52,6.27-13.75,12.33-27.47,16.82-41.93,6.56-21.09,10.55-42.91,16.5-64.18,7.99-28.57,19.45-54.69,35.09-79.88,8.82-14.21,18.41-27.95,28.49-41.3,3.28-4.35,6.62-8.65,10.01-12.91,2.56-3.22,5.01-7.29,8.64-9.27,4.64-2.54,10.7-3.76,15.73-5.36,59.91-19.06,124.21-22.86,185.45-7.96,29.71,7.23,58.46,18.89,89.05,22.06,26.23,2.72,53.27-.17,78.05-9.32,42.11-15.56,74.23-47.9,112.14-70.73,48.65-29.29,105.09-37.23,160.04-22.69,57.32,15.17,107.61,49.43,155.96,82.49,51.05,34.91,103.25,73.9,163.89,90.09,29.72,7.93,60.86,9.05,90.8,1.52,24.03-6.04,47.05-16.31,69.3-27.04,56.2-27.13,109.87-60.29,160.69-96.43,11.97-8.51,23.7-17.33,35.53-26.02,1.54-1.13.05-3.74-1.51-2.59h0Z"/><path class="cls-12" d="m1468.72,208.3c-51.36,35.78-103.14,70.16-158.66,99.27-50.62,26.54-106.19,54.05-164.94,48.61-64.35-5.96-121.34-43.3-174.09-77.76-48.91-31.95-97.78-66.14-153.14-86.12-51.55-18.61-107.67-21.19-159.04-.46-42.31,17.08-75.75,48.79-116.06,69.38-22.67,11.58-47.18,18.4-72.65,19.61-33.75,1.6-64.89-8.03-97.15-16.28-59.25-15.13-120.3-15.71-179.54.11-11.55,3.08-22.93,6.75-34.14,10.9-6.48,2.4-8.04,3.92-12.56,9.5-5.38,6.65-10.65,13.4-15.78,20.24-18.43,24.59-35.93,50.65-48.1,78.98-9.81,22.83-15.25,46.98-21.5,70.92-3.07,11.75-5.81,23.5-9.65,35.04-5.32,16.02-12.79,30.98-20.11,46.14-5.61,11.61-9.86,23.44-13.86,35.68-.6,1.84,2.29,2.63,2.89.8,4.55-13.9,9.7-27.13,16.16-40.28,6.83-13.92,13.34-27.85,18.17-42.61,6.77-20.69,10.9-42.11,16.68-63.08,8.12-29.44,19.73-56.47,35.92-82.38,9.07-14.51,18.95-28.51,29.33-42.1,3.05-4,6.15-7.96,9.29-11.89,2.49-3.11,5.35-8.02,8.86-10.15,4.36-2.65,10.48-3.91,15.31-5.55,58.47-19.88,121.44-24.75,181.98-12,29.47,6.21,58.06,16.89,88.12,20.16,26.82,2.92,54.44.19,79.92-8.8,42.38-14.95,75.61-46.19,114.51-67.58,49.44-27.19,105.89-33.18,160.25-18.36,56.91,15.51,107.2,48.72,155.99,80.73s102.69,69.72,162.28,84.72c30.12,7.58,61.55,8.48,91.79.97,23.8-5.91,46.69-15.64,68.88-25.93,55.97-25.95,109.51-57.86,160.37-92.7,12.03-8.24,23.83-16.81,35.79-25.14,1.57-1.1.08-3.7-1.51-2.59h0Z"/><path class="cls-8" d="m1468.73,208.22c-51.09,33.76-102.06,66.79-156.79,94.5-51.44,26.05-107.81,52.82-166.95,47.89-64.1-5.35-121.46-40.66-174.78-73.9-49.26-30.71-98.34-63.62-153.41-83.12-51.83-18.35-107.95-21.42-159.91-1.78-42.69,16.13-77.38,46.61-118.51,65.68-23.69,10.99-49.17,17.03-75.3,17.56-32.76.66-63.53-8.94-95.19-15.79-58.76-12.71-119.1-11.45-176.85,5.77-10.77,3.21-21.38,6.94-31.82,11.08-5.71,2.26-8.06,5.94-12,10.79-5.34,6.58-10.56,13.25-15.66,20.02-18.55,24.64-36.16,50.79-48.17,79.32-9.61,22.83-15.05,46.87-21.36,70.72-3.25,12.28-6.34,24.48-10.58,36.47-5.48,15.49-13,29.92-20.57,44.46-5.07,9.72-8.99,19.09-11.69,29.69-.48,1.87,2.42,2.67,2.89.8,6.69-26.24,23.24-48.63,32.26-74.15,7.54-21.32,11.95-43.5,17.93-65.26,8.22-29.91,19.87-57.48,36.39-83.77,8.67-13.79,18.1-27.1,27.98-40.05,5.78-7.57,11.48-15.8,18.08-22.69,3.75-3.92,10.1-5.37,15.12-7.22,56.71-20.84,118.11-27.17,177.73-16.91,29.36,5.05,57.87,14.68,87.48,18.28,26.97,3.29,54.71,1.13,80.65-7.07,42.75-13.51,77.13-43.05,116.47-63.38,50.7-26.2,107.6-31.4,162.57-16.38,56.56,15.45,106.96,47.49,156.16,78.35,51.11,32.06,103.68,66.81,163.25,80.59,29.71,6.87,60.56,7.52,90.3.45,24.4-5.79,47.92-15.38,70.76-25.58,55.35-24.72,108.42-55.19,159-88.52,12.09-7.97,23.96-16.27,36.05-24.26,1.6-1.06.1-3.66-1.51-2.59h0Z"/><path class="cls-28" d="m1468.74,208.15c-25.94,16.26-51.38,33.18-77.88,48.56s-53.69,30-81.37,43.35c-51.9,25.04-108.18,49.88-167.1,44.79-63.58-5.49-120.94-38.9-174.66-70.85-49.24-29.28-98.26-60.6-152.74-79.39-51.94-17.92-107.84-21.33-160.17-2.91-44.2,15.57-80.89,45.94-124.22,63.24-24.87,9.93-51.38,14.71-78.16,14.12-32.23-.72-63.16-10.38-94.75-15.68-58.12-9.74-117.56-5.62-173.36,13.63-5.02,1.73-9.99,3.57-14.93,5.51-3.84,1.51-9.12,2.75-12.51,5.15-5.43,3.86-10.02,11.93-14.16,17.14-5.12,6.42-10.13,12.93-15.01,19.54-17.58,23.81-34.05,49.1-45,76.72-9.52,24.03-15.41,49.28-21.86,74.26-7.1,27.46-18.51,52.2-32.25,76.94-3.88,6.99-7.62,13.2-8.07,21.21-.11,1.93,2.89,1.92,3,0,.58-10.3,7.56-19.46,12.45-28.29,6.82-12.3,13.13-24.79,18.06-37.98,7.94-21.21,12.61-43.3,18.52-65.1,7.99-29.52,19.07-57.12,35.2-83.16,8.43-13.62,17.67-26.74,27.35-39.51,5.39-7.1,10.93-14.09,16.59-20.99,2.79-3.4,5.33-7.1,9.22-9.25,2.6-1.44,5.74-2.38,8.5-3.48,54.25-21.46,113.16-29.25,171.1-21.88,29.82,3.79,58.73,12.46,88.51,16.37,27.26,3.58,55.16,2.1,81.67-5.33,44.07-12.35,80.21-41.12,121.09-60.43,51.49-24.32,108.26-28.06,163.02-12.97,55.82,15.38,106.01,45.99,155.28,75.48,51.05,30.56,103.53,63.2,162.32,76.24,29.16,6.47,59.37,7.31,88.64,1.06,24.82-5.29,48.83-14.54,72.13-24.43,55.91-23.72,109.59-53.32,160.87-85.8,12.12-7.68,24.03-15.68,36.19-23.3,1.63-1.02.13-3.62-1.51-2.59h0Z"/><path class="cls-34" d="m1468.75,208.07c-25.89,15.39-51.19,31.63-77.5,46.31-27.17,15.15-54.85,29.42-83.11,42.42-52.22,24.03-108.5,47.28-167.13,42.4-63.7-5.3-121.61-37.13-176.19-68.05-50.16-28.41-100.14-58.82-155.28-76.7-52.59-17.05-108.65-19.67-161.31-1.39-44.33,15.39-82.39,44.43-126.89,59.33-26.54,8.89-54.61,12.23-82.51,10.17-30.26-2.24-59.76-10.39-89.85-14.09-58.29-7.16-117.5-.23-172.15,21.45-4.15,1.64-8.26,3.37-12.35,5.14-5.86,2.55-8.49,5.9-12.61,10.87-10.39,12.52-20.42,25.33-29.86,38.58-17.63,24.74-32.87,50.9-42.83,79.69-8.21,23.73-12.94,48.36-20.27,72.33-4.2,13.75-9.31,27.34-15.73,40.2s-13.79,23.96-20.46,36.08c-2.14,3.88-3.89,6.14.38,7.63,1.83.64,2.61-2.26.8-2.89-1.42-.49-.79-.01-.81-.19-.02-.19,3.6-5.43,4.23-6.5,3.26-5.59,6.62-11.12,9.84-16.74,7.21-12.56,13.57-25.48,18.6-39.07,7.74-20.91,12.43-42.62,18.33-64.07,8.4-30.49,20.29-58.79,37.32-85.48,8.96-14.03,18.76-27.52,29.01-40.64,4.99-6.38,10.1-12.68,15.3-18.9,4.71-5.64,9.1-7.88,15.71-10.64,53.12-22.18,110.95-30.67,168.24-24.91,29.99,3.01,59.18,10.72,89.07,14.17,26.82,3.09,54.13,1.57,80.26-5.37,44.16-11.73,81.35-38.94,122.97-56.68,52.33-22.3,109.02-24.46,163.61-9.19,55.83,15.61,106.38,45.43,156.39,73.93,51.53,29.36,104.76,60.14,163.7,71.42,29.29,5.61,59.4,5.72,88.55-.79,24.8-5.54,48.86-14.41,72.32-24.06,54.49-22.42,106.97-50.2,157.3-80.77,12.19-7.4,24.18-15.14,36.45-22.42,1.66-.99.15-3.58-1.51-2.59h0Z"/><path class="cls-31" d="m1468.76,207.99c-25.21,14.2-49.79,29.41-75.3,43.1-26.56,14.26-53.58,27.68-81.12,39.94-51.66,23-107.55,45.62-165.1,43.02-62.07-2.81-119.59-30.65-173.5-59.29-49.71-26.41-98.57-55.35-151.76-74.41-51.1-18.31-105.73-25.34-159-12.42-46.1,11.18-85.57,37.71-129.57,54.25-24.58,9.24-50.32,14.52-76.6,15-31.08.57-61.29-6.56-91.94-10.47-57.7-7.35-116.13-3.27-171.01,16.77-9.02,3.29-17.89,6.97-26.62,10.95-11.82,5.38-19.64,18.73-27.58,28.77-19.02,24.05-36.96,49.5-49.83,77.43-11.18,24.27-17.52,50.09-24.33,75.81s-15.27,50.16-28.5,73.1c-5.43,9.42-13.09,18.57-17.48,28.49-.61,1.37.64,2.74,2.05,2.05,1.68-.82,3.03-3.25,4.38-4.53s-.72-3.45-2.12-2.12c-1.11,1.05-2.44,3.41-3.77,4.06l2.05,2.05c4.39-9.92,12.05-19.08,17.48-28.49,7.05-12.21,12.98-24.93,17.85-38.16,7.85-21.34,12.55-43.53,18.77-65.36,8.61-30.21,20.98-58.15,38.18-84.46,9.25-14.15,19.35-27.73,29.91-40.92,5-6.25,9.96-12.67,15.36-18.59,4.12-4.51,8.61-6.38,14.08-8.78,52.26-22.96,109.32-31.98,166.19-27.65,29.49,2.24,58.34,8.81,87.72,11.76,27.46,2.76,55.2,1.04,81.93-5.94,44.69-11.67,83.32-37.96,126.43-53.68,53.39-19.46,109.98-18.92,164.18-2.91,54.55,16.11,104.43,44.51,154.19,71.4,51.54,27.86,104.92,56.32,163.35,66.09,28.89,4.83,58.39,4.56,87.05-1.7,24.97-5.46,49.28-13.99,73.02-23.36,54.24-21.41,106.61-48.01,156.96-77.36,11.86-6.92,23.56-14.12,35.53-20.86,1.68-.95.17-3.54-1.51-2.59h0Z"/><path class="cls-41" d="m1468.77,207.91c-25.96,13.86-51.26,28.85-77.48,42.25s-55.12,27.09-83.43,38.94c-51.5,21.57-106.56,41.98-163.25,39.25-61.74-2.97-119.33-29.09-173.71-56.47-50.29-25.32-99.75-53.16-153.21-71.4-51.48-17.57-106.11-24.23-159.58-11.95-46.13,10.59-86.69,35.52-131.36,50.22-25.49,8.39-52.04,12.78-78.9,12.54-30.76-.27-61-6.74-91.57-9.33-56.44-4.78-113.35,1.53-166.05,22.91-8.34,3.38-17.98,6.54-25.52,11.49-4.78,3.14-8.52,8.91-12.21,13.3-4.99,5.95-9.91,11.96-14.71,18.06-18.45,23.46-35.69,48.35-47.91,75.68-10.72,23.98-16.84,49.33-23.67,74.58-6.88,25.42-15.65,50-29.11,72.76-5.57,9.42-11.25,19.93-18.47,28.23l2.36.3c.73,1.63,1.51-1.17,2.33-2.41,1.36-2.07,2.8-4.08,4.28-6.07,1.16-1.55-1.45-3.04-2.59-1.51-1.62,2.17-7.96,8.5-6.61,11.51.38.85,1.77.98,2.36.3,6.64-7.63,11.88-17.15,17.09-25.75,7.01-11.58,13.11-23.61,18.14-36.18,8.44-21.11,13.57-43.08,19.55-64.95,8.26-30.19,19.68-58.63,36.43-85.16,8.57-13.58,18.03-26.59,27.96-39.21,4.54-5.77,9.18-11.46,13.89-17.08s8.75-11.8,15-15.07c47.81-25.05,104.02-35.28,157.56-34.32,30.26.54,59.89,5.5,89.88,8.85,27.86,3.11,55.85,2.74,83.35-3.02,46.2-9.68,86.71-34.47,131-49.64,53.43-18.31,109.47-18.19,163.7-3.18,111.79,30.95,204.76,112.96,320.46,131.8,28.71,4.67,58.01,4.68,86.59-.93,25.01-4.91,49.44-12.93,73.3-21.78,54.35-20.16,106.88-45.59,157.55-73.67,12.72-7.05,25.26-14.44,38.09-21.29,1.7-.91.19-3.5-1.51-2.59h0Z"/><path class="cls-11" d="m1468.78,207.84c-25.97,13.13-51.28,27.47-77.45,40.23-27.47,13.41-55.38,25.96-83.79,37.26-52.54,20.9-108.29,40.16-165.6,37.35-61.85-3.04-119.93-27.84-175.07-54.13-50.5-24.08-100.23-50.55-153.6-67.9s-107.01-23.27-160.96-11.53c-46.2,10.05-87.85,33.26-133.15,46.1-26.86,7.61-54.6,11-82.51,9.99-30-1.09-59.67-6.25-89.68-7.45-54.97-2.2-109.91,6.27-160.3,28.78-7.65,3.42-18.02,6.65-23.6,13.03-9.31,10.63-18.42,21.44-27.12,32.57-17.67,22.6-33.95,46.66-45.52,73-10.64,24.23-16.61,49.74-23.71,75.11s-16.6,50.74-30.71,73.73c-3.13,5.1-6.4,10.13-9.78,15.07-2.35,3.43-5.08,9.08-8.54,11.47l2.05.54c-.53-.99,8.27-13.2,9.29-14.76s-1.53-3.12-2.59-1.51c-2.91,4.43-5.95,8.92-8.3,13.68-.6,1.21-1.73,2.74-.99,4.1.36.68,1.4.99,2.05.54,2.06-1.42,3.61-4.07,5.07-6.08,3.69-5.06,7.18-10.27,10.56-15.54,7.54-11.74,14.27-23.92,19.79-36.75,9.07-21.06,14.72-43.03,20.62-65.12,7.89-29.52,18.22-57.87,34.08-84.11,15.39-25.47,34.08-48.79,53.57-71.21,6.75-7.76,16.8-11.42,26.08-15.54,10.97-4.86,22.2-9.12,33.64-12.74,29.29-9.26,59.83-14.14,90.5-15.36,58.36-2.32,116.26,13.65,174.4,4.58,47.49-7.41,89.75-30.13,135-44.88,53.45-17.42,108.96-18.35,163.36-4.55,113.16,28.69,208.36,107.68,324.57,126.49,28.95,4.69,58.51,5.02,87.43-.07,25.81-4.53,51.09-12.35,75.78-21.01,54.93-19.26,108.13-43.86,159.54-71.09,12.37-6.55,24.59-13.4,37.09-19.72,1.72-.87.21-3.46-1.51-2.59h0Z"/><path class="cls-2" d="m1468.79,207.76c-26.35,12.6-52.06,26.47-78.57,38.76-28.4,13.17-57.24,25.43-86.58,36.38-54.69,20.4-111.97,38.02-171.01,33.72-120.14-8.75-220.56-86.37-334.04-118.79-53.49-15.28-109.03-18.94-163.39-5.88-47.8,11.49-92.21,34.08-140.74,42.97-60.24,11.04-120.74-3.67-181.35.09-49.84,3.1-99.01,15.94-142.84,40.16-4.44,2.46-7.44,6.83-10.76,10.63-4.84,5.54-9.62,11.14-14.3,16.81-8.43,10.23-16.56,20.71-24.17,31.57-17.35,24.78-30.97,51.3-40.31,80.09-7.72,23.8-12.3,48.62-21.02,72.09-9.53,25.65-22.35,49.95-39.18,71.6-.52.67-3.53,3.38-3.61,4.29-.22,2.55,3.13-1.65,2.48-.91.54-.61.98-1.99,1.38-2.76,2.96-5.73,6.29-11.28,9.66-16.78,1.01-1.65-1.58-3.16-2.59-1.51-3.77,6.15-7.62,12.37-10.72,18.89-.77,1.63-2.48,4.1-1.07,5.78.31.37,1.01.57,1.46.39,5.5-2.22,10.56-12.53,13.63-17.02,8.07-11.8,15.41-24.06,21.49-37.02,9.99-21.29,16.39-43.67,22.36-66.34,7.67-29.13,17.15-57.49,32.26-83.7,14.48-25.12,32.46-48.05,51.4-69.93,4-4.63,7.9-10.34,13.13-13.59,3.83-2.38,8.09-4.27,12.13-6.27,9.77-4.83,19.76-9.19,29.96-13,27.62-10.32,56.59-16.59,85.92-19.43s59.32-2.08,88.9.28,60.2,4.75,90.41.95c47.96-6.03,91.44-26.46,137.33-40.17,54.23-16.19,109.91-17.16,164.89-3.78,113.11,27.54,210.08,102.35,326.03,120.35,28.82,4.47,58.17,4.98,87.02.47,26.61-4.16,52.74-11.73,78.27-20.18,55.08-18.22,108.52-41.73,160.3-67.81,12.45-6.27,24.77-12.82,37.35-18.84,1.74-.83.22-3.42-1.51-2.59h0Z"/><path class="cls-17" d="m1468.8,207.68c-26.74,12.09-52.85,25.46-79.74,37.26-28.59,12.55-57.59,24.21-87.05,34.55-55.82,19.6-113.86,35.86-173.57,31.39-120.83-9.05-223.31-83.27-338.38-113.71-54.12-14.32-109.74-17.05-164.5-4.54-49.45,11.3-96.21,32.18-146.83,38.59-29.63,3.75-59.2,2.13-88.91.55s-62.37-1.6-93.32,2.35c-27.75,3.54-55.07,10-81.14,20.21-9.59,3.76-18.99,7.98-28.17,12.64-7.83,3.97-15.62,7.45-21.51,14.01-17.52,19.51-34.43,39.68-48.96,61.55-16.54,24.89-28.76,51.63-37.42,80.21-7.3,24.11-12.44,48.79-21.82,72.24-5.49,13.71-12.06,26.92-19.87,39.46-3.64,5.84-7.48,11.57-11.49,17.16-1.74,2.43-3.52,4.84-5.36,7.2-1.12,1.43-3.45,3.21-4.12,4.88-.98,2.45.94.38,1.69-1.37.95-2.19,2.07-4.32,3.17-6.44,3.27-6.28,6.79-12.43,10.37-18.54.98-1.67-1.61-3.18-2.59-1.51-4.37,7.46-8.77,14.98-12.51,22.79-.94,1.97-3.65,6.04-2.37,8.33.25.44.78.77,1.3.74,4.44-.22,9.53-9.77,11.81-12.9,8.2-11.25,15.75-23.04,22.15-35.41,11.35-21.92,18.82-45.26,25.1-69.06,7.53-28.56,16.09-56.74,30.32-82.79,13.61-24.93,30.85-47.67,49.31-69.18,7.26-8.46,14.06-17.88,23.93-23.29,8.34-4.58,16.85-8.83,25.55-12.69,24.82-11.01,51.07-18.57,77.83-23.05,30.94-5.18,62.44-6.36,93.76-5.2,30.1,1.12,60.08,4,90.2,1.49,49.29-4.11,94.68-22.33,141.93-35.32,55.25-15.19,111.32-16.61,167.24-3.78,113.86,26.13,212.96,97.47,329.36,114.68,28.69,4.24,57.87,4.86,86.63.87,27-3.74,53.59-10.89,79.6-18.93,55.66-17.22,109.75-39.77,162.29-64.88,12.54-5.99,24.95-12.24,37.61-17.96,1.76-.79.23-3.38-1.51-2.59h0Z"/><path class="cls-26" d="m1468.81,207.6c-28.63,12.23-56.65,25.77-85.46,37.6-28.51,11.7-57.4,22.54-86.71,32.07-56.72,18.44-115.11,32.72-175.16,27.72-121.65-10.13-226.27-81.18-343.32-109.12-54.53-13.02-109.92-14.37-164.77-2.49-50.84,11.01-99.65,29.46-151.9,33.49-31.32,2.41-62.64-.19-93.98-.05-31.05.15-62.16,2.57-92.6,8.87-24.78,5.13-48.96,13-71.86,23.77-8.68,4.08-17.15,8.58-25.45,13.39-8.71,5.05-14.81,13.32-21.43,20.84-17.12,19.46-33.23,39.94-46.57,62.21-15.12,25.24-25.31,52.51-33.11,80.79-6.72,24.36-12.96,48.59-23.69,71.6-6.08,13.04-13.34,25.43-21.47,37.29-3.6,5.25-7.32,10.44-11.32,15.39-1.08,1.33-2.83,2.73-3.64,4.24-.92,1.72-1.8,2.92-.16.67,2.79-3.81,4.38-9.67,6.6-13.92,3.36-6.44,6.9-12.8,10.49-19.11.96-1.68-1.63-3.19-2.59-1.51-5.99,10.53-12.65,21.27-16.97,32.63-1.05,2.78-1.98,7.7,2.51,5.45,2.31-1.16,4.29-4.38,5.87-6.32,3.69-4.54,7.14-9.29,10.48-14.1,8.2-11.77,15.59-24.07,21.77-37.03,10.89-22.83,17.5-46.87,24.11-71.18,8.04-29.58,18.43-58.11,34.35-84.43,14.5-23.99,32.2-45.83,50.89-66.64,3.5-3.9,6.92-8.67,11.17-11.79,3.67-2.7,8.12-4.75,12.11-6.93,9.6-5.26,19.45-10.05,29.55-14.27,58.08-24.3,120.92-28.13,183.13-26.35,30.42.87,60.59.83,90.73-3.93,25.33-4,50.07-10.76,74.75-17.61,25.29-7.02,50.66-13.84,76.67-17.6,29.9-4.32,60.29-4.51,90.27-.79,122.24,15.17,227.35,88.42,347.49,111.69,30.75,5.95,62.19,8.49,93.47,6.13,28.53-2.15,56.67-8.53,84.21-16.05,58.82-16.05,115.98-38.37,171.56-63.3,13.85-6.21,27.54-12.75,41.5-18.72,1.77-.76.24-3.34-1.51-2.59h0Z"/><path class="cls-10" d="m1469.18,207.37c-28.19,11.37-55.85,23.95-84.19,34.96-28.8,11.19-57.94,21.52-87.48,30.57-57.32,17.57-116.24,31.01-176.55,26.72-123.22-8.76-230.75-76.63-349.53-103.66-55.53-12.64-111.58-13.82-167.51-3.04-53.1,10.24-104.49,26.47-158.9,28.92-31.44,1.42-62.91-.17-94.34,1.69s-60.79,5.93-90.18,14.03c-22.65,6.24-44.6,14.92-65.29,26.05-7.1,3.82-15.65,7.64-21.68,13.03-8.23,7.34-15.45,16.65-22.65,24.98-17.21,19.92-33.06,41.16-45.71,64.29-14.09,25.75-22.89,53.5-30.46,81.73-6.86,25.6-14.86,50.59-27.56,73.97-6.67,12.28-14.39,24.02-22.83,35.15-2.84,3.75-7.25,7.51-9.64,11.51-.32.53-1.18.9-1.56,1.32.75-.85-.03,2.14,1.18-.2,1.08-2.09,1.65-4.64,2.62-6.82,5.21-11.74,11.57-23.02,17.81-34.23.94-1.69-1.65-3.2-2.59-1.51-1.95,3.51-25.84,44.42-19.3,45.83,4.08.88,10.36-9.56,12.22-11.97,8.64-11.13,16.54-22.92,23.39-35.23,27.92-50.16,32.14-108.87,59.91-159.14,13.44-24.32,30.4-46.49,48.75-67.29,7.09-8.04,14.26-17.93,23.47-23.55,8.31-5.07,16.81-9.82,25.53-14.13,54.57-26.99,115.85-35.3,176.15-35.9,31.19-.31,62.34.59,93.39-3.11,26.17-3.12,51.87-8.85,77.47-14.95,26.25-6.26,52.51-12.62,79.3-16.12,29.21-3.81,58.79-4.18,88.08-.99,124.12,13.53,232.55,84.22,354.59,106.46,30.26,5.52,61.13,8,91.87,6.22,29.43-1.71,58.5-7.6,87.04-14.77,59.25-14.9,116.96-36.05,173.2-59.77,14.27-6.02,28.4-12.38,42.77-18.17,1.77-.71,1-3.62-.8-2.89h0Z"/><path class="cls-21" d="m1469.19,207.3c-28.6,10.87-56.74,22.86-85.51,33.33-28.99,10.56-58.31,20.27-87.98,28.73-58.86,16.78-119.02,28.97-180.51,24.59-123.94-8.82-233.74-72.96-353.8-98.54-55.98-11.92-112.23-12.73-168.61-3.23-25.73,4.33-51.19,10.13-76.85,14.84-29.26,5.37-58.62,8.68-88.35,9.71-61.19,2.12-122.18,3.52-180.67,23.87-20.72,7.21-40.63,16.59-59.36,28.02-7.51,4.58-13.2,9.19-19.23,15.59-7.8,8.29-15.44,16.72-22.75,25.45-17,20.29-32.32,42.14-44.11,65.89-12.68,25.54-20.24,52.78-27.75,80.16-7.23,26.38-16.75,51.83-30.87,75.36-7.04,11.73-14.91,23.18-23.7,33.67-1.51,1.8-6.97,6.45-6.52,8.07-.86-3.12,3.54-10,4.73-12.57,5.73-12.38,12.26-24.39,18.81-36.35.93-1.69-1.66-3.21-2.59-1.51-6.84,12.5-13.72,25.07-19.59,38.07-1.16,2.56-6.62,11.63-3.64,14.34,5.61,5.1,30.13-34.17,32.42-37.81,14.55-23.15,24.79-48.39,32.24-74.63,8.13-28.62,15.31-57.27,28.5-84.13,12.54-25.54,29.12-48.88,47.6-70.44,7.19-8.4,14.69-16.53,22.3-24.55,6.5-6.85,14.41-11.4,22.56-16.09,50.57-29.16,108.26-41.08,165.99-45.04,31.97-2.19,64.07-1.38,96.01-4.03,27.34-2.27,54.34-7.08,81.22-12.46s54.08-11.2,81.52-14.42c29.55-3.47,59.37-3.91,88.99-.94,124.56,12.49,235.17,79.25,357.7,100.77,31.12,5.46,62.78,8.06,94.37,6.61,29.8-1.36,59.25-6.66,88.28-13.32,60.76-13.95,120.05-34.31,177.93-57.3,14.03-5.57,27.94-11.42,42.05-16.78,1.79-.68,1.01-3.58-.8-2.89h0Z"/><path class="cls-3" d="m1469.2,207.22c-116.57,41.74-237.73,90.66-364.06,80.81-124.98-9.74-237.27-70.74-359.22-94.17-56.47-10.85-112.89-10.72-169.66-2.35-26.43,3.9-52.67,8.9-79.11,12.76-30.43,4.44-60.93,6.4-91.62,7.94-58.75,2.96-118.28,9.69-172.83,33.09-18.15,7.79-37.06,17.16-52.81,29.25-6.79,5.22-12.58,12.46-18.4,18.74-7.98,8.62-15.7,17.49-22.99,26.7-16.86,21.31-31.45,44.42-42.19,69.43s-16.76,51.05-24.48,76.91c-7.98,26.71-19.15,52.06-34.6,75.33-6.91,10.41-14.23,21.09-23.03,30.02-.3.3-3.92,3.34-3.13,3.69-.34-.15.8-3.47.89-3.78,1.64-5.18,4.1-10.15,6.43-15.04,5.98-12.59,12.55-24.9,19.17-37.16.92-1.7-1.67-3.22-2.59-1.51-6.95,12.86-13.85,25.79-20.06,39.04-1.84,3.93-8.49,14.4-6.78,19.15,1.37,3.82,4.86.89,6.83-.9,8.1-7.41,14.65-17.19,20.88-26.14,15.66-22.47,27.78-47.03,36.14-73.1,8.57-26.71,14.33-54.18,24.94-80.24,11.22-27.56,27.09-52.95,45.72-76.1,7.44-9.25,15.31-18.15,23.43-26.8,6.46-6.89,12.63-13.91,20.54-19.13,44.67-29.5,95.86-44.96,148.57-52.35,32.83-4.6,65.87-5.6,98.92-7.57,28.87-1.72,57.44-5.34,85.97-10.01,57.11-9.35,113.55-19.03,171.67-14.34,126.66,10.21,240.61,74.17,364.93,95.54,31.53,5.42,63.53,8.22,95.53,7.37,30.69-.81,61.05-5.38,91.08-11.54,61.97-12.71,122.59-31.99,181.87-53.89,14.96-5.53,29.81-11.37,44.83-16.75,1.8-.65,1.03-3.55-.8-2.89h0Z"/><path class="cls-37" d="m1469.21,207.14c-118.35,39.84-240.43,84.16-367.39,75.58-126.14-8.52-240.86-65.64-363.93-88.9-57.8-10.93-115.59-11.47-173.88-4.48-27.44,3.29-54.74,7.61-82.17,10.94-31.02,3.77-62.19,5.44-93.29,8.2-56.51,5-113.94,15.17-165.11,40.71-16.03,8-33.92,17.24-46.68,30.04-14.64,14.69-28.71,29.92-41.32,46.41-17.03,22.27-31.2,46.55-41.49,72.65-10.01,25.41-15.63,52.12-24.07,78.03-8.93,27.43-22.19,52.96-39.1,76.31-3.94,5.44-8.01,10.79-12.37,15.89-.98,1.15-7.44,9.63-9.13,9.05-.81-.28,8.74-21.67,9.91-24.11,6.26-13.03,12.99-25.83,19.81-38.57.91-1.7-1.68-3.22-2.59-1.51-7.16,13.4-14.25,26.85-20.77,40.58-2.99,6.31-9.12,15.82-9.04,23.12.04,3.47,1.81,4.34,4.83,2.69,7.22-3.96,12.99-13.68,17.82-20.05,16.79-22.18,30.68-46.55,40.17-72.74,9.4-25.95,14.76-53.14,24.12-79.11,17.82-49.42,49.75-93.11,87.84-129,6.46-6.08,14.85-10.79,22.41-15.38,9.86-6,20.09-11.4,30.59-16.19,27.11-12.37,55.95-20.56,85.13-26.32,61.98-12.23,125.64-12.5,188.16-21.05,58.67-8.02,116.92-16.02,176.26-10.73,127.59,11.39,244.04,72.06,370.1,91.23,62.62,9.52,124.75,7.4,186.91-4.24,62.53-11.71,123.82-29.76,183.93-50.42,15.07-5.18,30.04-10.64,45.14-15.72,1.82-.61,1.04-3.51-.8-2.89h0Z"/><path class="cls-4" d="m1469.22,207.06c-120.89,38.2-245.02,78.12-373.5,70.27-127.76-7.8-245.26-61.46-370.05-84.4-58.89-10.83-117.92-11.89-177.42-6.16-28.18,2.72-56.25,6.42-84.4,9.43-30.87,3.3-61.84,5.6-92.6,9.8-54.77,7.47-110.17,20.69-158.28,48.82-14.56,8.51-27.93,17.89-39.85,29.79-15.57,15.54-30.15,32.06-42.97,49.96-16.34,22.8-29.41,47.63-38.81,74.06-9.22,25.94-14.68,53.04-24.18,78.88-10.13,27.56-25.32,53.13-43.51,76.12-3.32,4.2-6.73,8.39-10.49,12.21-1.06,1.08-2.78,3.34-4.24,3.86s-.9.91-.63-1.39c1.16-9.76,7.96-20.31,12.18-29,6.36-13.12,13.11-26.05,19.93-38.92.9-1.7-1.68-3.22-2.59-1.51-7.19,13.56-14.29,27.18-20.94,41.01-4.08,8.5-8.92,17.47-11.23,26.68-.66,2.64-1.63,6.75,2.17,6.91,1.92.08,4.21-2.41,5.46-3.55,3.85-3.51,7.2-7.63,10.48-11.67,17.35-21.35,31.89-44.95,42.51-70.34s16.2-52.71,24.73-78.96c16.84-51.83,47.4-95.7,85.84-133.82,33-32.72,80.75-51.08,124.83-62.63,61.96-16.23,126.19-19.02,189.55-26.41,58.73-6.85,117.34-13.25,176.51-8.15,129.55,11.17,249.17,69.12,377.45,87.21,63.9,9.01,127.61,7.37,191.18-3.26,63.83-10.67,126.55-27.65,188.17-47.25,15.19-4.83,30.3-9.91,45.5-14.71,1.83-.58,1.05-3.48-.8-2.89h0Z"/><path class="cls-25" d="m1469.23,206.99c-123.85,36.67-250.76,72.14-381.25,65.02-130.3-7.1-251.38-57.87-378.76-80.83-59.03-10.64-118.61-12.18-178.32-7.57-59.68,4.61-120.22,10.38-179.04,21.67-51.73,9.93-103.51,25.79-147.57,55.43-31.66,21.3-58.22,51.46-79.24,83.08-15.77,23.72-27.76,49.49-36.43,76.6-8.71,27.23-14.56,55.29-26.13,81.56s-26.52,49.36-44.67,70.36c-2.69,3.12-5.75,7.37-9.31,9.56-3.76,2.32-1.77-1.37-.94-4.07,3.37-11.03,8.84-21.57,13.87-31.91,6.54-13.45,13.43-26.73,20.39-39.96.9-1.71-1.69-3.23-2.59-1.51-12.12,23.04-25.94,46.58-34.17,71.39-.78,2.34-3.45,8.67-.08,10.33,4.17,2.06,11.03-7.28,13.06-9.55,17.81-19.88,32.9-42.96,44.27-67.08,11.93-25.31,18.38-52.3,26.32-78.99,15.89-53.41,44.3-99.77,83.58-139.13,31.69-31.76,71.65-52.55,114.12-66.39,60.42-19.7,123.9-26.13,186.78-32.85,58.98-6.3,118.07-11.02,177.34-5.87,131.13,11.38,253.59,66.59,383.77,83.72,65.77,8.65,131.73,7.28,197.29-2.43,65.21-9.66,129.42-25.5,192.64-43.98,15.31-4.48,30.56-9.17,45.86-13.7,1.85-.55,1.06-3.44-.8-2.89h0Z"/><path class="cls-7" d="m1469.24,206.91c-126.75,35.09-256.72,66.13-389.22,60.02-130.82-6.03-253.47-52.53-381.1-76.68-58.68-11.1-118.28-14.55-177.88-11.12-61.11,3.52-122.95,11.21-182.5,25.58-49.6,11.97-98.81,29.93-139.89,60.86-31.1,23.42-57.96,54.36-78.24,87.45-15.33,25.01-26.23,51.98-34.45,80.08-7.94,27.14-14.79,54.42-27.43,79.89-11.98,24.13-27.76,48.35-46.78,67.57-1.31,1.32-2.64,2.64-4.09,3.81s-2.28,2.37-2.79,1.13c-.9-2.18,1.94-7.81,2.69-9.83,4.29-11.68,9.83-22.95,15.29-34.12,6.59-13.47,13.46-26.81,20.41-40.1.89-1.71-1.69-3.23-2.59-1.51-12.66,24.2-26.19,48.6-35.75,74.24-1.08,2.9-4.99,10.78-2.45,13.91s7.29-1.5,9.25-3.3c8.5-7.81,15.58-17.4,22.41-26.65,9-12.18,17.24-24.92,24.29-38.33,12.83-24.4,20.44-50.55,27.88-76.95,8.5-30.17,19.2-59.28,35.44-86.23,12.93-21.47,28.54-41.25,46.01-59.21,30.23-31.07,65.84-53.83,106.27-69.64,59.91-23.43,124.68-33.55,188.31-40.58,59.7-6.59,119.73-8.9,179.55-2.45,130.79,14.11,254.28,65.64,384.99,80.86,134.06,15.61,267.71-8.66,397-43.14,15.42-4.11,30.8-8.41,46.18-12.66,1.86-.51,1.07-3.41-.8-2.89h0Z"/><path class="cls-22" d="m1469.25,206.83c-135.21,34.91-274.65,62.08-414.96,54.32-68.85-3.81-136.37-17.49-203.26-33.62-66-15.92-131.71-34.6-198.88-45.07-61.03-9.51-122.97-11.42-184.42-4.98-59.24,6.21-119.38,17.93-175.39,38.47-34.74,12.74-68.13,29.64-96.8,53.23-31.94,26.28-59.63,57.89-79.86,94.05-13.28,23.74-22.56,49.04-30.02,75.13-7.34,25.67-14.29,51.29-26.25,75.3-12.55,25.19-29.41,51.44-50.01,70.89-1.07,1.01-3.37,3.7-4.83,3.93-1.63.26-.82.9-1.27-.7-.82-2.93,2.35-8.97,3.33-11.59,4.62-12.32,10.41-24.24,16.17-36.06,7.06-14.51,14.43-28.88,21.88-43.19.89-1.71-1.7-3.23-2.59-1.51-13.46,25.87-27.68,51.92-38.07,79.23-1.27,3.34-5.81,12.25-3.27,15.98,2.71,3.98,8.07-1.46,10.22-3.44,9.13-8.41,16.78-18.7,24.13-28.66,9.16-12.4,17.55-25.37,24.69-39.04,12.35-23.63,19.9-48.9,27.09-74.46,7.85-27.86,17.2-54.92,31.38-80.28,13.3-23.78,29.84-45.68,48.79-65.24,22.52-23.26,47.89-43.35,76.47-58.66,50.39-26.99,106.88-41.15,162.76-51.42,61.99-11.39,125.06-15.59,187.95-10.74,69.08,5.33,136.32,22.1,203.36,38.77,66.71,16.59,133.57,33.41,201.9,41.84,140.45,17.31,282.19-4.09,418.85-36.69,17.27-4.12,34.5-8.43,51.69-12.87,1.87-.48,1.08-3.38-.8-2.89h0Z"/><path class="cls-18" d="m42.2,494.86c-12.89,23.93-26.84,48.15-36.33,73.7-.94,2.52-4.69,10.3-1.67,12.8,3.44,2.84,9.32-4.29,11.22-6.24,19.23-19.74,35.33-44.16,47.91-68.55,11.63-22.55,19.36-46.53,26.96-70.66,8.42-26.73,18.21-52.81,32.56-76.99,13.38-22.57,29.93-43.22,48.89-61.35,32.11-30.72,71.25-55.04,112.96-70.18,57.7-20.94,119.25-30.53,179.91-38.3,61.12-7.84,122.89-9.87,184.29-3.98,68.33,6.55,135.99,22.03,201.94,40.71,62.53,17.71,124.51,36.58,189.59,42.03,131.29,11,262.89-13.91,388.11-52,16.72-5.08,33.35-10.43,49.93-15.96,1.82-.61,1.04-3.51-.8-2.89-124.74,41.63-255.23,72.65-387.49,70.35-32.32-.56-64.73-2.9-96.62-8.33-31.51-5.37-62.46-13.44-93.2-22.12-63.55-17.95-126.74-35.52-191.91-46.74-61.08-10.51-123.08-13.79-184.92-9.8-27.91,1.8-55.71,5-83.36,9.15-31.6,4.74-63.28,9.57-94.41,16.86-50.57,11.85-98.38,29.73-140.77,60.17-33.72,24.22-62.66,54.05-84.07,89.8-13.54,22.61-23.3,46.94-31.34,71.96-7.77,24.18-14.94,48.49-26.13,71.38-12.52,25.61-28.93,50.54-48.37,71.46-.71.76-7.61,8.68-8.97,7.83-.73-.45,1.97-7.68,2.18-8.28,4.16-11.76,9.95-23.02,15.52-34.16,6.76-13.5,13.82-26.85,20.99-40.15.92-1.7-1.67-3.22-2.59-1.51h0Z"/><path class="cls-35" d="m42.3,494.28c-7.78,13.86-15.49,27.78-22.72,41.94-4.59,8.98-9.9,18.37-12.61,28.16-.74,2.67-1.96,7.34,2.07,7.6,5.5.35,13.28-11.7,16.06-15.08,18.56-22.58,34.68-47.45,46.99-73.98,10.35-22.3,17.62-45.76,26.06-68.8,18.5-50.5,47.76-95.74,90.37-129.14,36.26-28.42,78.97-49.25,123.25-61.34,31.17-8.51,62.96-14.17,95-18.1,30.28-3.71,60.4-8.65,90.7-12.24,62.26-7.36,125.07-10.13,187.6-4.57,67.77,6.02,134.38,20.21,198.77,42.05,29.95,10.16,59.69,21.03,90.27,29.19,30.02,8.01,60.42,12.43,91.41,14.3,127.13,7.67,253.68-21.5,372.32-65.21,16.45-6.06,32.78-12.43,49.02-19.03,1.77-.72.99-3.62-.8-2.89-118.22,48.04-243.83,83.98-372.28,85.31-30.49.32-61.36-.9-91.54-5.39s-60.71-13.21-90.19-22.98c-29.86-9.9-59.38-20.85-89.6-29.63-31.73-9.21-64.21-15.83-96.82-21.02-62.83-9.99-126.05-12.9-189.54-8.64-28.22,1.89-56.35,5.01-84.38,8.78-30.75,4.14-61.69,7.7-92.31,12.64-54.12,8.74-107.05,22.36-154.28,50.97-34.3,20.77-64.5,44.57-88.65,77.09-16.17,21.77-28.55,45.93-38.28,71.19-9.04,23.49-16.13,47.69-26.35,70.73-12.24,27.62-28.54,53.43-47.52,76.91-3.17,3.92-6.4,7.84-9.96,11.41-1.98,1.98-5.77,6.92-4.8,1.67,1.94-10.49,8.86-21.21,13.68-30.56,6.92-13.42,14.24-26.64,21.63-39.81.95-1.69-1.64-3.2-2.59-1.51h0Z"/><path class="cls-19" d="m42.41,493.7c-7.94,13.48-15.76,27.04-23,40.91-2.64,5.06-5.24,10.16-7.49,15.4-1.07,2.5-2.86,5.71-2.85,8.52.02,3.73,2.25,4.1,5.15,2.26,7.86-4.98,14.04-15.1,19.58-22.33,18.26-23.88,33.73-49.68,45.82-77.21,10.11-23.02,17.89-46.99,28.08-69.98,21.32-48.11,54.95-90.96,100.43-118.29,16.93-10.17,34.98-19.49,52.94-27.66,27.58-12.56,57.09-19.62,86.82-24.98,32.42-5.84,65.22-8.67,97.95-12.09,29.18-3.05,58.17-7.78,87.31-11.24,65.16-7.73,130.88-11.25,196.33-4.94,34.38,3.31,68.7,8.28,102.26,16.54,30.3,7.46,59.31,18.85,88.15,30.6,28.44,11.58,56.95,23.27,86.8,30.75,28.31,7.1,57.45,9.57,86.56,10.38,122.54,3.4,243.12-30.4,354.77-78.63,16.02-6.92,31.89-14.17,47.65-21.68,1.74-.83.22-3.42-1.51-2.59-112.84,53.73-234.57,94.99-360.42,99.69-27.62,1.03-55.32.27-82.83-2.48-30.76-3.07-60.43-11.39-89.33-22.14-28.06-10.44-55.41-22.72-83.58-32.87-29.85-10.76-60.54-18.19-91.83-23.32-64.24-10.53-129.2-12.81-194.09-8.07-58.33,4.26-115.84,15.48-174.07,20.21-57.4,4.67-116.76,13.31-168.83,39.22-16.43,8.17-33.32,16.55-48.72,26.58-18.62,12.12-35.5,26.97-50.18,43.61-18.14,20.56-32.53,44.02-43.83,68.95-9.83,21.67-17.32,44.29-26.52,66.21-11.64,27.74-26.46,53.88-44.33,78.09-4.21,5.71-8.54,11.33-13.11,16.75-2.16,2.56-6.12,8.87-9.49,10.09-1.84.67-.75.98-.52-.98.22-1.83,1.44-4.02,2.15-5.69,2.36-5.52,5.13-10.87,7.92-16.19,7.1-13.51,14.73-26.75,22.47-39.9.98-1.67-1.61-3.18-2.59-1.51h0Z"/><path class="cls-36" d="m42.51,493.12c-8.23,13.19-16.38,26.48-23.69,40.2-1.54,2.9-9.07,13.83-6.79,17.65,3.91,6.55,28.42-28.61,30.8-31.95,17.37-24.32,31.7-50.46,43.64-77.83,10.29-23.6,19.23-47.81,31.34-70.57,23.7-44.55,60.28-84.57,106.98-105.42,21.56-9.63,42.76-20.38,65.28-27.67,30.71-9.94,63.42-14.21,95.44-17.39,31.35-3.11,62.83-3.45,94.1-7.66,29.65-4,59.23-8.57,88.91-12.37,66.86-8.56,133.9-12.43,201.15-6.07,33.71,3.18,67.62,8.43,99.85,19.12,28.72,9.53,55.76,23.14,83.1,35.93,26.3,12.31,53.18,23.66,81.68,29.75,26.82,5.73,54.82,6.91,82.18,6.83,119.28-.31,235.22-39.03,341.19-91.4,15.63-7.72,31.08-15.79,46.4-24.12,1.7-.92.18-3.51-1.51-2.59-107.47,58.39-224.88,105.09-347.99,113.71-55.98,3.92-112.74,1.21-165.43-19.48-26.93-10.58-52.56-24.12-78.98-35.85-27.55-12.24-55.77-21.61-85.42-27.28-64.81-12.39-131.73-13.37-197.33-7.9-58.81,4.9-116.82,16.25-175.54,21.54s-122.82,5.79-180.2,28.72c-38.4,15.34-76.26,32.91-106.61,61.59-20.03,18.93-36.3,41.27-49.3,65.51-12.03,22.42-20.91,46.25-30.99,69.56-11.49,26.57-25.1,52.08-41.69,75.84-7.58,10.85-15.42,21.83-24.48,31.51-1.03,1.1-2.07,2.38-3.3,3.27-1.41,1.02-.5.96.07-.66,1.78-5.09,4.47-9.9,7.03-14.62,7.08-13.07,14.85-25.78,22.71-38.39,1.02-1.64-1.57-3.15-2.59-1.51h0Z"/><path class="cls-32" d="m42.62,492.54c-2.56,3.83-32.95,47.72-26.59,50.04,3.87,1.41,10.6-9.32,12.32-11.46,8.41-10.45,16.29-21.36,23.7-32.53,16.86-25.4,30.41-52.54,42.86-80.31,10.76-24.02,21.5-48.01,35.87-70.15,16.32-25.15,37.02-47.19,61.7-64.31,17.27-11.98,35.51-19.4,54.91-26.97,25.9-10.1,51.14-20.35,78.71-25.14,16.67-2.9,33.37-5.85,50.21-7.6s34-1.32,51.22-.62c16.31.67,32.77-1.32,49.03-2.48,13.14-.94,26.27-3.17,39.3-5.13,30.1-4.51,60.11-9.62,90.26-13.88,68.5-9.67,137.95-14.43,206.88-6.28,32.49,3.84,64.03,11.32,93.91,24.8,26.1,11.78,50.56,26.77,76.08,39.69s51.26,22.98,79.14,27.03c25.01,3.63,50.71,4.26,75.94,3.39,116.57-4.02,228.29-47.9,329.16-103.94,15.27-8.48,30.34-17.31,45.27-26.38,1.65-1,.14-3.6-1.51-2.59-102.69,62.43-216.17,114.8-336.96,127.4-51.86,5.41-107.94,5.77-157.24-13-52.51-19.99-97.51-55.69-152.42-70.06-62.96-16.47-131.14-16.07-195.53-10.4-60.63,5.34-120.28,17.35-180.59,25.1-14.36,1.84-29.06,2.73-43.52,3.62-16.97,1.05-33.91-1.34-50.91-.59-14.9.65-29.7,2.63-44.42,4.98-15.91,2.55-31.93,4.97-47.5,9.18-23.38,6.33-45.4,16.47-68.12,24.68-18.75,6.78-36.21,17.17-51.96,29.31-43.35,33.4-67.58,79.96-89.47,128.82-12.11,27.03-25.27,53.47-41.52,78.29-7.81,11.93-16.17,23.59-25.16,34.67-2.52,3.11-5.25,5.95-7.89,8.93-1.89,2.13.4-.03,0,1.38.27-.94.61-1.9,1.08-2.76,1.23-2.26,2.31-4.59,3.56-6.84,6.96-12.5,14.87-24.49,22.82-36.38,1.08-1.61-1.52-3.11-2.59-1.51h0Z"/><path class="cls-40" d="m42.72,491.96c-6.79,9.29-13.46,18.71-19.58,28.46-1.43,2.27-6.81,8.61-5.56,11.68.28.69.72,1.01,1.45,1.1,4.2.51,10.76-10.79,12.7-13.3,8.19-10.62,15.98-21.58,23.3-32.81,15.99-24.53,29.28-50.53,41.9-76.9,23.92-49.99,50.88-97.76,98.39-129.02,17.48-11.5,35.93-19.16,55.87-25.12,24.91-7.45,48.8-17.23,74.56-21.69,32.94-5.71,68.02-10.18,101.42-6.73,28.25,2.92,56.84,1.28,84.98-2.54,61.09-8.29,121.47-20.98,182.76-27.93,64.65-7.33,133.85-11.58,196.47,9.7,50.35,17.1,90.32,54.04,139.27,73.96,44.46,18.1,95.92,17.72,143.03,12.9,109.22-11.17,211.95-58.58,304.42-115.64,14.45-8.92,28.71-18.15,42.81-27.6,1.6-1.07.1-3.67-1.51-2.59-97.99,65.68-207,122.97-325.05,140.26-24.01,3.52-48.3,5.25-72.57,4.95-26.15-.32-52.65-2.22-77.61-10.48-51.32-16.98-91.92-55.23-142-74.99-61.58-24.29-131.36-21.33-195.96-14.69-62,6.37-123.04,18.86-184.66,27.83-29.46,4.29-60.42,7.72-90.1,4.35-32.87-3.74-65.75.53-98.33,5.08-27.5,3.84-52.92,13.59-79.23,21.89-19.36,6.11-37.42,12.44-54.86,23.18-46.94,28.92-76.08,74.01-99.53,122.66-12.56,26.07-25.02,52.11-40.19,76.8-8.08,13.14-16.8,25.88-26.04,38.24-3.52,4.71-7.05,9.47-10.95,13.88-.77.87-2.03,1.76-2.58,2.75-.21.37-.53,2.33.89,1.38.61-.41,1.27-2.56,1.69-3.33,6.59-11.97,14.97-23.15,23.02-34.16,1.14-1.56-1.46-3.06-2.59-1.51h0Z"/><path class="cls-39" d="m43.06,491.08c-6.23,7.6-12.3,15.35-17.98,23.37-1.07,1.51-6.12,6.72-4.6,8.92.48.69,1.29.94,2.05.54,5.42-2.85,10.08-11.87,13.55-16.59,8.79-11.95,17.22-24.19,25.07-36.78,15.96-25.58,29.38-52.48,43.16-79.26,25.94-50.39,58.6-96.64,110.6-122.62,19.79-9.88,41-13.36,61.5-21.09,12.07-4.55,24.08-9.32,36.73-12.04,16.24-3.49,31.25-1.21,47.57-.82s31.14-1.69,46.69-2.74c16.67-1.13,31.77,1.01,48.14,3.72,6.13,1.01,11.89,1.07,17.97-.11,7.81-1.51,15.34-1.08,23.28-1.03,12.65.09,25.5-2.3,37.96-4.3,62.06-9.97,123.02-25.78,185.45-33.67,33.78-4.27,67.92-6.41,101.97-5.33,32.66,1.03,65.85,5.27,95.99,18.52,46.9,20.61,83.08,59.48,130.74,78.58,42.73,17.12,93.63,15.29,138.57,9.43,108.58-14.14,209.24-66.53,298.93-127,14.49-9.77,28.77-19.85,42.88-30.16,1.54-1.13.05-3.73-1.51-2.59-95.26,69.57-202.21,132.65-319.87,153.59-23.15,4.12-46.62,6.46-70.14,6.7-24.86.26-50.7-.83-74.6-8.11-52.06-15.87-89.91-57.8-138.4-80.71-26.58-12.56-55.41-18.14-84.58-20.31-34.77-2.59-69.97-1.1-104.6,2.6-63.48,6.77-125.39,22.17-188.14,33.29-14.2,2.52-28.57,5.07-42.96,6.25-7.6.62-15.22-.23-22.84.06-6.93.27-13.36,2.63-20.4,2.06-8.02-.65-15.79-3.09-23.77-4.09s-16.71-1.09-25.07-.68c-15.46.76-30.82,2.97-46.31,3.08s-31.12-2.81-46.91-.38c-13.1,2.02-25.58,6.46-37.92,11.16-19.76,7.52-40.61,11.22-59.97,19.82-51.58,22.91-86.91,66.17-113.03,114.92-13.78,25.71-26.2,52.09-40.95,77.27-8.05,13.74-16.67,27.1-25.82,40.12-3.77,5.36-7.61,10.69-11.56,15.92-.59.79-8.73,9.33-8.58,10.5.42,3.26,3.04-.34,3.59-1.18,1.59-2.44,3.32-4.8,5.04-7.15,4.87-6.67,9.96-13.16,15.19-19.54,1.21-1.48-.9-3.62-2.12-2.12h0Z"/><path class="cls-38" d="m43.17,490.5c-6.88,7.19-13.22,14.79-19.75,22.28l2.51,1.46c.92-2.38,4.27-5.42,5.83-7.55,3.76-5.11,7.43-10.28,11.06-15.48,9.34-13.39,18.26-27.05,26.63-41.07,14.98-25.1,28.01-51.26,42.38-76.7,28.7-50.79,67.49-95.49,124.03-115.16,9.98-3.47,20.07-5.69,30.44-7.54,12.29-2.19,24.03-6.78,35.95-10.39,14.49-4.38,29.4-7.52,44.62-6.75,16.91.86,33.4,4.08,50.45,4.19,15.48.09,30.97-.76,46.45-.22,14.27.5,28.2,6.68,42.33,3.93,7.24-1.41,14.72-.4,22.05-.22,6.74.16,13.35-.61,20.02-1.47,12.97-1.67,25.85-3.95,38.67-6.5,64.38-12.78,127.68-30.64,192.96-38.71,63.66-7.87,134.36-11.16,191.16,23.38,42.47,25.83,76.12,65.96,124.81,80.99,21.23,6.56,44.17,7.67,66.28,7.58,20.98-.08,41.94-2.03,62.63-5.52,107.97-18.23,206.45-76.18,293.5-140.12,13.47-9.89,26.73-20.05,39.85-30.39,1.52-1.19-.62-3.3-2.12-2.12-91.17,71.87-193.87,139.15-308.63,165.11-41.92,9.48-86.33,13.42-129.06,7.41-54.8-7.71-91.57-49.11-135.14-78.7-22.92-15.56-47.71-26.25-75.06-31.06-32.88-5.77-66.74-5.03-99.9-2.44-66.11,5.16-130.4,21.7-194.94,35.96-14.25,3.15-28.53,6.16-42.9,8.69s-28.08,5.24-42.13,4.89c-6.42-.16-13.14-1.12-19.55-.3-3.51.45-6.52,1.65-10.15,1.62-4.86-.04-9.6-1.48-14.29-2.58-14.31-3.38-29.34-2.74-43.96-2.48-16.15.28-32.31.62-48.41-.93s-29.72-4.19-45.29-1.97c-13.97,1.99-27.3,6.54-40.69,10.81-10.87,3.46-21.81,5.22-32.87,7.76-52.39,12.06-94.7,47.27-124.63,90.86-15.52,22.61-27.91,47.13-40.92,71.22-15.31,28.33-31.85,55.8-50.44,82.1-3.1,4.38-6.22,8.75-9.43,13.04-1.39,1.85-3.62,3.83-4.46,6.01-.54,1.4,1.55,2.55,2.51,1.46,6.53-7.49,12.88-15.09,19.75-22.28,1.33-1.4-.78-3.52-2.12-2.12h0Z"/><path class="cls-13" d="m43.27,489.92c-3.27,2.73-6.46,5.55-9.62,8.4-1.33,1.21-4.98,3.29-5.5,4.92-1.2,3.75,2.46-.82,2.46-.82.71-.74,1.29-1.91,1.87-2.75,1.5-2.18,3.01-4.36,4.51-6.54,8.77-12.73,17.47-25.53,25.66-38.64,17.01-27.22,31.84-55.68,48.05-83.37,14.52-24.8,30.87-48.74,51.39-69.01,21.89-21.63,48.91-38.05,78.28-47.29,11.44-3.6,22.98-5.68,34.85-7.18,13.12-1.66,25.77-5.81,38.58-8.94,16.81-4.1,33.96-6.44,51.17-3.53,16.05,2.71,31.77,4.96,48.06,5.6,14.91.58,29.86.39,44.74,1.66,8.89.76,16.78,3.55,25.4,5.46,6.57,1.46,11.68-.24,18.1-.69,7.1-.5,14.32.89,21.42.94,6.31.04,12.65-.82,18.9-1.66,13.75-1.83,27.37-4.48,40.91-7.45,65.19-14.29,128.97-34.42,195.12-44.26,35.71-5.31,72.61-8.54,108.65-4.93,30.38,3.04,58.19,12.59,83.23,30.14,40.11,28.09,71.14,69.97,119.52,84.92,21,6.49,43.96,7.31,65.82,6.84,20.07-.42,40.09-2.71,59.79-6.51,107.85-20.81,204.75-83.5,289.79-150.28,14.21-11.16,28.19-22.61,42-34.27,1.48-1.25-.65-3.36-2.12-2.12-89.43,75.5-190.75,148.45-305.76,178.19-39.81,10.3-81.23,14.64-122.23,10.47-28.03-2.85-52.77-14.43-75.04-31.31-20.21-15.32-38-33.53-57.88-49.26-19.7-15.59-41.42-28.29-65.93-34.5-32.77-8.3-67.27-7.7-100.72-4.92-67.98,5.67-133.68,24.05-199.61,40.5-28.25,7.05-56.84,14.11-85.87,16.94-7.27.71-14.39.17-21.67-.24-2.77-.16-5.56-.39-8.33-.24-3.94.21-7.65,1.72-11.61,1.64-8.32-.18-16.22-4.41-24.41-5.63-6.75-1-13.67-1.28-20.49-1.56-15.32-.62-30.66-.49-45.96-1.67-17.31-1.34-34.34-6.41-51.74-6.15-14.64.22-28.93,3.58-43.02,7.3-12.56,3.31-24.82,5.73-37.65,7.61-54.74,8.02-100.45,41.58-132.99,85.11-17.18,22.99-30.83,48.3-44.81,73.29-15.96,28.55-32.86,56.37-51.36,83.35-1.8,2.63-13.32,15.64-11.27,18.89.33.52,1.07.92,1.69.69,1.92-.72,3.52-2.48,5.01-3.81,4.22-3.76,8.37-7.59,12.72-11.21,1.48-1.24-.65-3.35-2.12-2.12h0Z"/><path class="cls-24" d="m43.68,489.1c-2.88,1.64-5.67,3.4-8.51,5.09-.81.48-1.77,1.16-2.67,1.55-3.42,1.47-.66.21.02-1.18,2.47-5.04,6.03-9.75,9.11-14.43,8.94-13.62,17.92-27.22,26.38-41.15,16.6-27.35,31.66-55.65,48.83-82.64,16.21-25.48,35.11-49.93,58.6-69.14,23.77-19.43,52.29-33.04,82.35-39.27,11.93-2.48,23.99-2.71,35.99-4.52,16.34-2.47,32.27-7.1,48.75-8.71,19.25-1.89,36.53,2.88,55.33,5.9,14.86,2.39,29.85,3.41,44.85,4.36s30.96,1.8,45.79,7.03c5.9,2.08,11.55,3.73,17.83,2.7,7.59-1.24,14.42-.6,22.14-.08,26.3,1.8,53.94-5.98,79.21-12.4,67.44-17.14,133.55-39.79,202.62-49.92,36.15-5.3,74.05-8.66,110.21-1.77,28.22,5.38,52.44,18.95,73.98,37.66,36.37,31.57,66.37,73.38,115.81,84.83,37.81,8.76,80.25,4.13,117.63-4.41,107.2-24.5,202.01-91.78,284.89-161.23,14.23-11.92,28.21-24.12,42.01-36.52,1.44-1.29-.69-3.41-2.12-2.12-51.94,46.65-106.64,90.72-166.1,127.49-44.03,27.23-91,50.7-140.98,64.77-38.91,10.95-79.82,15.96-120.13,11.5-28.49-3.15-53.04-16.41-74.54-34.88-18.96-16.28-35.48-35.17-54.36-51.55-19.75-17.15-42.08-30.77-67.74-36.82-34.79-8.2-71.34-5.95-106.5-1.58-70.03,8.71-137.09,30.97-205.05,48.95-14.39,3.81-28.85,7.4-43.46,10.29-13.86,2.74-28.43,5.7-42.62,4.9-6.91-.39-14.33-2.03-21.23-1.07-3,.41-5.44,1.47-8.62,1.38-5.4-.16-10.56-2.53-15.57-4.25-13.35-4.58-28.01-4.93-41.98-5.82-16.96-1.08-33.89-2.21-50.64-5.26-17.73-3.22-33.78-6.9-51.97-4.95-15.55,1.66-30.63,5.82-46.03,8.34-12.4,2.02-24.92,2.19-37.28,4.69-59.34,11.98-104.65,51.51-137.63,100.7-17.77,26.5-32.73,54.78-49.04,82.18-8.97,15.08-18.4,29.85-28.04,44.51-3.19,4.85-6.41,9.68-9.53,14.57-1.45,2.27-6.53,8.09-5.35,11.06,2.17,5.47,14.55-4.87,16.85-6.17,1.68-.95.17-3.55-1.51-2.59h0Z"/><path class="cls-5" d="m44.14,488.37c-1.98.46-4.98,1.87-7.05,1.71-5.39-.42-1.67-5.04.21-8.49,2.89-5.29,6.24-10.36,9.45-15.46,9.38-14.86,18.8-29.69,27.79-44.79,16.26-27.29,31.63-55.24,49.91-81.25,18.24-25.94,40.15-50.63,67.13-67.71,25.99-16.46,55.82-25.79,86.22-29.6,13.72-1.72,27.43-2.83,41.11-4.95,19.34-3,38.98-5.64,58.5-2.6,17.91,2.79,35.24,8.27,53.3,10.69,14.59,1.95,29.3,3,43.87,5.11,6.37.92,12.78,1.87,18.84,4.1,6.73,2.47,13.34,6.37,20.72,6.2,2.61-.06,4.92-1.08,7.47-1.38,2.9-.34,6.09.17,8.96.44,7.74.74,15.39,1.72,23.16,1.1,27.34-2.19,54.19-9.66,80.42-17.28,67.22-19.54,133.42-43.6,202.91-54.09,36.29-5.48,75.05-8.92,110.87,1.21,26.04,7.36,47.53,23.63,66.32,42.61,34.45,34.8,64.36,78.6,116.51,86.26,36.22,5.32,73.94,1.04,109.14-8.22,45.43-11.95,88.28-32.63,128.38-56.82,54.75-33.03,105.18-73.01,152.9-115.44,14.25-12.67,28.24-25.61,42.06-38.74,1.4-1.33-.72-3.45-2.12-2.12-51.61,49.05-105.97,95.74-165.31,135.27-42.99,28.64-89.01,53.88-138.38,69.63-37.38,11.92-76.78,18.06-116.01,14.63-28.03-2.45-52.05-13.79-73.04-32.32-18.81-16.61-34.38-36.44-52-54.24s-38.25-33.82-62.67-41.86c-32.74-10.78-68.82-9.01-102.53-4.8-71.59,8.95-139.73,32.91-208.54,53.43-28.4,8.47-57.5,17.09-87.14,19.76-12.97,1.17-25.86-2.72-38.59-.3-8.76,1.66-16.92-4.01-24.9-6.59-6.13-1.98-12.72-2.78-19.09-3.65-15.38-2.1-30.88-3.2-46.24-5.43-18.34-2.67-36.14-8.87-54.52-10.81-17.24-1.82-34.47.38-51.5,2.99-15.22,2.34-30.5,3.55-45.74,5.61-29.09,3.94-57.63,12.88-82.73,28.31s-46.72,38.15-64.56,62.14c-19.04,25.6-34.61,53.61-50.81,81.03-9.35,15.81-18.98,31.42-28.82,46.93-3.6,5.68-7.24,11.34-10.71,17.11-2.14,3.57-6.71,9.37-6.4,13.76.5,7,10,2.76,14.05,1.83,1.88-.43,1.08-3.33-.8-2.89h0Z"/><path class="cls-14" d="m45.04,487.79c-6.18-1.32-10.08-2.38-7.59-9.75s7.02-13.9,10.89-20.34c9.18-15.25,18.63-30.33,27.72-45.63,16.67-28.07,32.88-56.66,52.58-82.76,19.53-25.87,43.06-49.88,71.59-65.72,27.8-15.44,59.31-22.94,90.88-24.94,36.31-2.3,74.14-9.76,109.78.45,30.67,8.79,62.2,11.18,93.18,18.15,8.11,1.82,15.99,4.42,24.01,6.59,6.78,1.84,12.7,2.35,19.52,2.93,13.69,1.17,26.39,2.2,40.05.26,28.49-4.05,56.26-12.96,83.54-21.86,68.88-22.47,137.19-48.59,209.34-58.63,35-4.87,73.69-6.8,106.68,8.09,23.26,10.5,41.47,28.65,57.79,47.83,15.94,18.73,30.54,38.89,49.13,55.16,18.29,16.01,39.76,26.27,64.06,28.79,35.18,3.65,70.73-1.29,104.46-11.5,45.18-13.67,87.37-36.2,126.75-61.93,53.79-35.16,103.19-76.85,149.98-120.78,14.33-13.45,28.41-27.18,42.3-41.08,1.37-1.37-.75-3.49-2.12-2.12-51.02,51.07-104.71,99.99-163.48,142.08-42.06,30.12-87.16,57.22-135.97,74.88-35.66,12.9-73.55,20.48-111.58,18.29-26.11-1.51-49.36-9.56-69.56-26.42-19.18-16.01-34.05-36.37-50.05-55.36-15.94-18.92-33.51-37.1-55.88-48.36-28.91-14.54-62.64-15.57-94.26-12.69-73.91,6.74-144.35,32.88-214.24,56.18-29,9.67-58.31,19.53-88.45,25.03-14.3,2.61-27.58,3.24-42.05,1.78-7.1-.72-14.22-.74-21.17-2.42-9.4-2.28-18.54-5.51-27.99-7.64-13.55-3.05-27.37-4.73-41.08-6.87-18.14-2.83-35.87-6.78-53.55-11.7-34.99-9.73-71.59-2.26-107.15-.25-29.46,1.66-58.82,7.94-85.47,20.85-28.88,13.99-53.02,36.06-73.21,60.75-19.89,24.32-36.01,51.43-52.02,78.38-9.29,15.65-18.61,31.27-28.15,46.76-4.17,6.77-8.36,13.53-12.36,20.41-3.17,5.46-7.23,11.55-8.29,17.88-1.26,7.58,4.5,8.82,10.64,10.13,1.88.4,2.69-2.49.8-2.89h0Z"/><path class="cls-23" d="m45.81,487.6c-3.69-3.03-7.05-5.87-7.09-11.06-.06-7.92,5.1-16.04,8.81-22.78,8.62-15.66,18.16-30.81,27.24-46.2,17.36-29.42,34.59-59.25,55.81-86.11,20.7-26.2,45.83-49.96,75.72-65.28,29.4-15.07,62.66-22.15,95.63-21.52,38.79.74,78.44.52,116.88,6.22,30.26,4.49,59.22,13.08,88.46,21.76,8.72,2.59,17.24,5.83,26.01,8.25,6.59,1.82,12.8,1.99,19.53,2.8,13.98,1.68,26.86,1.89,40.74-.43,29.22-4.88,57.56-14.89,85.39-24.77,69.29-24.57,138.22-53.03,211.38-63.88,34.71-5.15,73.26-6.74,105.24,10.05,23.17,12.16,40.38,32.31,55.93,52.85,14.55,19.23,28.15,39.61,46.03,55.98,17.79,16.29,38.93,26.18,63.01,28.5,34.47,3.32,69.21-2.51,101.9-13.45,44.55-14.91,85.8-38.72,124.23-65.44,54.34-37.78,103.99-82.13,151.02-128.57,14.36-14.19,28.47-28.63,42.4-43.24,1.33-1.4-.79-3.52-2.12-2.12-51.12,53.66-104.88,105.35-163.92,150.29-41.19,31.36-85.42,60.06-133.67,79.31-34.23,13.66-70.89,22.4-107.93,21.02-25.06-.94-48-7.72-67.57-23.87-19.62-16.19-34-37.59-49.14-57.75-14.51-19.32-30.12-38.45-50.75-51.53-26.32-16.69-58.01-19.88-88.51-17.89-75.12,4.92-147.24,33.85-217.28,59.28-30.14,10.94-60.47,22.22-91.77,29.4-12.57,2.88-25.84,5.6-38.8,4.9-7.82-.42-15.55-1.79-23.35-2.45-9.46-.8-18.13-4.03-27.11-6.99-29.46-9.69-59.6-18.47-90.22-23.59-38.3-6.4-76.71-5.23-115.32-7.18-31.22-1.58-62.3,2.33-91.46,14.03-30.36,12.18-56.44,32.36-78.42,56.37-21.64,23.63-38.97,50.78-55.46,78.13-9.75,16.17-19.29,32.47-28.98,48.68-7.58,12.67-17.09,25.98-21.34,40.28-2.66,8.95-.22,14.41,6.72,20.12,1.48,1.22,3.61-.89,2.12-2.12h0Z"/><path class="cls-33" d="m46.15,487.32c-8.65-14.74-3.78-28.03,3.64-42.49,8.37-16.3,18.01-31.96,27.25-47.77,17.83-30.52,36.14-61.18,59.21-88.09,22.83-26.64,50.73-49.77,83.42-63.15,32.54-13.32,67.52-16.78,102.32-13.84,41.38,3.49,82.7,4.42,123.43,13.39,29.82,6.56,58.89,16.74,87.46,27.43,25.22,9.44,52.51,11.53,78.92,6.06,29.81-6.18,58.58-17.29,86.93-28.18,69.95-26.87,140.15-58.01,214.89-68.74,34.62-4.97,72.51-4.95,102.82,14.77,21.59,14.04,36.95,35.33,51.18,56.34,13.68,20.2,26.79,41.44,44.92,58.05,17.39,15.93,38.2,24.69,61.69,26.55,33.75,2.67,67.57-4.27,99.1-16.03,44.07-16.43,84.54-41.72,122.18-69.62,54.23-40.19,103.63-86.71,150.47-135.19,14.4-14.91,28.55-30.06,42.52-45.38,1.3-1.42-.82-3.55-2.12-2.12-50.63,55.54-103.79,109.24-162.21,156.66-40.58,32.94-84.18,63.47-132.11,84.78-33.16,14.74-69.09,24.94-105.63,24.47-23.83-.31-46.38-5.75-65.39-20.78-19.92-15.75-33.84-37.64-47.84-58.46-13.77-20.47-28.06-41.34-47.8-56.56-23.56-18.17-52.44-23.92-81.74-23.14-38.82,1.04-77.43,11.14-114.28,22.77-35.87,11.33-70.89,25.11-105.9,38.81-30.67,12-61.4,24.42-93.14,33.34-26.94,7.57-54.38,10.89-81.91,3.74-15.54-4.03-30.69-10.77-45.87-16.05-14.16-4.93-28.42-9.52-42.95-13.22-39.23-10-79.08-12.66-119.32-15.32-17.38-1.15-34.63-3.09-52.07-2.29-16.96.78-33.87,3.45-50.18,8.2-32.96,9.6-61.92,28.19-86.45,51.98-23.5,22.8-42.25,49.89-59.39,77.64-9.94,16.09-19.4,32.47-28.93,48.8-8.47,14.52-18.47,29.51-23.38,45.74-3.19,10.53-1.8,19.08,3.68,28.42.98,1.66,3.57.16,2.59-1.51h0Z"/><path class="cls-43" d="m46.4,487.1c-5.34-16.57-3.16-31.32,3.87-47.15,7.82-17.62,18.02-34.27,27.63-50.95,18.12-31.43,37.28-62.76,61.76-89.72,24.08-26.51,53.5-48.77,87.49-60.78,34.67-12.25,70.83-13.47,107.02-9.32,43.32,4.97,86.73,8.38,128.97,19.87,29.5,8.03,57.45,20.12,85.82,31.33,56.17,22.21,115.09-5.54,166.99-26.93,71.3-29.38,143.85-64.3,221.1-74.33,33.37-4.33,68.95-2.62,96.85,18.15,21.34,15.89,35.66,39.1,49.31,61.46,12.81,20.99,25.44,42.98,43.8,59.72,16.89,15.4,37.31,23.29,60.02,24.74,33.02,2.11,65.91-5.87,96.29-18.32,43.09-17.65,82.33-43.9,118.88-72.45,54.95-42.91,104.78-92.24,152.06-143.36,14.45-15.62,28.65-31.48,42.66-47.5,1.27-1.45-.85-3.58-2.12-2.12-50.84,58.1-104.16,114.49-162.87,164.75-39.72,34.01-82.33,65.9-129.52,88.85-31.89,15.51-66.72,27.01-102.48,27.47-22.19.28-43.9-3.84-62.2-17.14-21.04-15.29-34.93-38.28-48.25-60.11-13.04-21.37-25.99-43.56-44.57-60.7-21.11-19.47-47.57-27.88-76.03-28.41-39.83-.74-79.81,10.34-117.32,22.72-36.5,12.04-72.02,26.82-107.47,41.63-31.76,13.27-63.5,27.09-96.37,37.45-12.97,4.09-26.26,7.72-39.79,9.37s-27.92-.86-41.93-2.93c-15.77-2.33-31.41-11.1-46.23-16.98-13.22-5.25-26.49-10.35-40.06-14.63-38.83-12.26-78.96-17.57-119.32-21.8-36.49-3.82-71.89-8.19-108.26-.59-34.71,7.25-65.89,23.92-92.56,47.1-24.99,21.72-44.99,48.38-62.72,76.18-10.53,16.51-20.29,33.49-29.98,50.5-8.84,15.51-18.58,31.39-23.92,48.54-3.97,12.73-3.49,24.57.57,37.16.59,1.83,3.49,1.05,2.89-.8h0Z"/><path class="cls-1" d="m46.51,486.52c-3.39-19.19-1.19-37.04,6.17-55.1s17.72-35.72,27.51-52.93c18.37-32.26,38.54-64.03,64.6-90.7,26.47-27.09,58.92-48.31,95.72-58.17,39.09-10.47,77.54-7.11,117-1.45,42.4,6.08,84.93,12.42,125.72,25.96,14.45,4.8,28.55,10.51,42.48,16.66,14.67,6.48,29.16,14.18,44.36,19.26,5.79,1.94,11.85,2.5,17.87,3.53,7.79,1.34,15.69,2.68,23.61,2.35,11.68-.5,23.25-3.12,34.46-6.28,30.44-8.6,59.61-21.61,88.5-34.33,35.99-15.84,71.74-32.25,108.39-46.51,38.36-14.92,78.62-28.76,119.8-32.79,32.45-3.17,65.28,1.41,90.27,23.78,19.61,17.56,32.35,41.29,44.93,64.03,11.93,21.57,23.99,44.14,42.33,61.05,16.68,15.38,37.24,22.82,59.74,23.82,31.59,1.4,62.78-7.29,91.48-19.9,43.63-19.18,83-47.47,119.56-77.72,54.7-45.24,104.24-96.61,151.32-149.61,14.55-16.38,28.85-32.99,42.97-49.75,1.24-1.47-.88-3.6-2.12-2.12-51,60.54-104.41,119.49-163.27,172.53-39.24,35.36-81.28,68.86-128.19,93.54-30.74,16.18-64.57,28.85-99.63,30.08-21.21.75-42.34-2.77-60.09-15.17-21.33-14.9-34.86-38.36-47.28-60.61-12.49-22.37-24.32-45.75-41.92-64.67-19.16-20.6-43.88-31.33-71.89-32.99-39.77-2.36-80.11,9.32-117.34,22.05-36.15,12.36-71.24,27.63-106.15,43.09-32.78,14.52-65.4,29.73-99.18,41.83-13.26,4.75-26.78,9.07-40.64,11.67-15.22,2.86-29.02,1.48-44.25-1.23-16.72-2.98-31.56-10.62-47.02-17.48-11.79-5.23-23.58-10.48-35.64-15.08-38.35-14.62-78.58-22.43-119.05-28.51-38.64-5.8-77.04-12.54-116.15-7.13-36.87,5.1-70.67,20.13-99.77,43.24-26.7,21.21-48.13,48.09-66.62,76.56-10.6,16.32-20.3,33.21-29.74,50.22s-18.98,33.84-24.24,52.32c-4.11,14.44-4.14,28.73-1.54,43.43.34,1.9,3.23,1.09,2.89-.8h0Z"/><path class="cls-29" d="m46.67,486.34c-1.64-19.36-.02-38.12,6.1-56.65,6.86-20.8,17.77-40.29,28.4-59.35,18.59-33.31,39.7-65.76,67.27-92.41,28.16-27.22,62.65-47.29,101.14-55.47,42.64-9.06,84.45-2.89,126.71,4.83s85.23,16.48,125.6,32.22c13.77,5.37,27.13,11.62,40.38,18.15,14.02,6.91,29.08,17.14,44.49,20.27,12.79,2.6,26.35,5.68,39.48,4.71,11.62-.86,23.06-3.76,34.16-7.2,31.38-9.73,61.36-24,91.07-37.88,36.42-17.02,72.64-34.55,109.87-49.76,39.09-15.97,80.57-31.14,122.98-34.36,32.95-2.5,64.22,4.92,87.3,29.5,18.21,19.4,29.6,44.13,41.46,67.64,10.99,21.79,22.55,44.57,40.83,61.26,16.12,14.72,36.21,21.64,57.85,22.28,31.11.92,61.63-8.84,89.4-22.13,43.13-20.65,81.78-50.25,117.69-81.52,54.88-47.79,104.52-101.52,151.76-156.77,14.61-17.08,28.96-34.38,43.14-51.82,1.21-1.49-.9-3.62-2.12-2.12-51.05,62.8-104.44,124.12-163.27,179.82-38.74,36.68-80.18,71.76-126.7,98.26-29.6,16.87-62.42,30.84-96.8,33.05-19.94,1.28-40.23-1.36-57.39-12.33-22.43-14.34-36.01-38.72-47.88-61.78-11.79-22.89-22.37-46.84-38.37-67.21-16.79-21.38-39.13-35.12-66.28-38.57-39.93-5.08-81.34,7.2-118.61,20.27-36.72,12.87-72.22,29-107.45,45.46s-67.04,32.24-101.59,45.93c-27.11,10.75-54.69,20.35-84.08,15.21-6.11-1.07-12.55-1.94-18.5-3.68-10.92-3.2-21.09-9.4-31.26-14.37-11.64-5.68-23.19-11.52-35.06-16.71-36.63-16.03-75.39-25.75-114.49-33.59s-81.74-17.09-123.24-14.31c-38.49,2.58-74.91,15.11-106.42,37.42-28.04,19.85-50.82,45.93-70.02,74.23-11.37,16.76-21.54,34.3-31.19,52.1-9.59,17.68-19.09,35.81-24.77,55.2-5.01,17.11-6.06,34.48-4.56,52.18.16,1.91,3.16,1.93,3,0h0Z"/><path class="cls-16" d="m46.77,485.76c-.48-22.38,2.1-44.35,9.02-65.7s17.07-40.9,27.69-60.23c18.79-34.21,41.07-67.08,70.29-93.28,30.3-27.17,67.29-45.49,107.67-51.43,44.97-6.61,89.16,1.96,132.94,11.84,42.72,9.64,85.79,20.53,125.87,38.53,12.41,5.57,24.43,11.89,36.37,18.37,13.96,7.58,28.55,17.82,44.33,20.84,13.73,2.63,27.04,6.12,41.11,4.44,12.52-1.5,24.73-5.19,36.58-9.38,31.23-11.06,61.05-26.06,90.7-40.71,35.94-17.76,71.74-35.9,108.57-51.75,39.8-17.13,82.63-33.84,126.32-36.27,32.68-1.81,62.24,7.7,83.5,33.16,17.39,20.82,27.78,46.58,39.01,70.97,10.42,22.63,21.65,46.46,40.46,63.44,15.83,14.29,35.84,20.76,56.96,20.9,30.29.21,59.76-10.53,86.32-24.3,42.5-22.03,80.37-52.77,115.57-84.91,55.22-50.42,105.09-106.62,152.62-164.23,14.71-17.83,29.18-35.87,43.47-54.04,1.18-1.5-.93-3.64-2.12-2.12-51.28,65.22-104.82,129.05-163.8,187.5-38.36,38.02-79.33,74.66-125.56,102.94-28.54,17.46-60.44,32.62-94.19,35.66-19.53,1.76-39.58-.65-56.47-11.35-22.24-14.09-35.29-38.53-46.3-61.61-21.73-45.57-41.34-102.64-97.61-113.21-39.97-7.51-82.45,5.46-119.69,18.94-37.36,13.52-73.35,30.63-108.98,48.12-33.93,16.65-67.52,34.16-102.24,49.14-23.88,10.3-52.29,23.25-79,20.31-19.13-2.1-35.54-7.36-52.44-16.58-12.53-6.84-25.01-13.8-37.8-20.14-35.43-17.59-73.25-28.97-111.51-38.58-41.9-10.52-85.1-21.41-128.55-21.36-40.48.04-79.89,10.16-114.2,31.92-30.23,19.17-54.88,45.66-75.19,74.92-11.49,16.56-21.63,34.01-31.03,51.82-10.01,18.97-19.37,38.51-25.09,59.25-5.25,19-7.04,38.5-6.62,58.17.04,1.93,3.04,1.93,3,0h0Z"/><path class="cls-15" d="m46.88,485.18c1.25-49.88,16.4-94.71,40.19-138.21,19.1-34.93,42.89-67.92,73.95-93.19,33.98-27.64,75.14-43.38,118.87-45.93,47.06-2.75,93.24,8.54,138.24,20.99,41.61,11.51,83.44,24.26,121.94,44.09,26,13.39,50.04,33.2,78.82,39.81,13.44,3.09,26.26,4.92,39.88,2.55,13.03-2.27,25.67-6.71,37.93-11.57,32.59-12.91,63.67-29.54,94.72-45.7,36.12-18.81,72.2-37.82,109.48-54.27,39.77-17.55,83.74-35.27,127.89-35.13,32.32.1,58.82,13.81,77.16,40.26,15.49,22.34,24.68,48.38,35.23,73.23,9.73,22.92,20.71,47.2,39.91,63.85,15.43,13.38,34.96,19.21,55.16,18.85,29.8-.54,58.5-12.46,84.11-26.86,42.37-23.83,79.86-56.16,114.78-89.69,55.17-52.96,105.03-111.4,152.65-171.14,14.55-18.25,28.86-36.69,43.01-55.26,1.17-1.54-1.43-3.03-2.59-1.51-51.75,67.91-105.73,134.51-165.18,195.88-37.85,39.07-78.19,76.97-123.9,106.79-27.66,18.04-58.81,34.37-92.11,38.08-18.24,2.03-37.09,0-53.14-9.55-22.69-13.5-35.61-38.22-46.02-61.56-19.93-44.72-35.78-105.03-88.92-120.4-40.12-11.6-85.16,2.52-122.75,16.51-37.17,13.84-72.86,31.45-108.12,49.53-34.22,17.55-68.02,36.03-102.85,52.37-24.34,11.42-52.33,25.42-79.87,25.62-34.24.25-60.97-19.46-89.39-35.53-34.27-19.38-71.03-32.53-108.61-43.92-82.7-25.08-175.27-48.85-255.94-4.53-31.88,17.52-58.29,43.28-79.66,72.49-25.31,34.6-46.89,74.82-58.44,116.22-6.08,21.8-8.86,44.22-9.43,66.81-.05,1.93,2.95,1.93,3,0h0Z"/><path class="cls-9" d="m46.98,484.6c3.11-51.43,16.98-100.31,41.13-145.81,19.2-36.18,44.27-69.98,77.03-95,35.21-26.89,77.45-40.75,121.64-41.84,49.93-1.23,98.93,11.95,146.1,27.06,41.13,13.17,82.53,27.31,120.35,48.45,25.62,14.32,48.85,35.07,77.78,42.05,13.45,3.24,26.28,5.12,39.92,2.55,12.8-2.41,25.17-7.01,37.16-11.99,33.7-14.01,65.69-32.05,97.68-49.52,36.48-19.92,72.94-40.01,110.71-57.41,39.85-18.36,84.45-37.45,129.16-36.7,32.06.54,57.54,15.61,74.65,42.35,15.42,24.11,23.88,51.93,34.23,78.39,8.98,22.98,19.32,47.34,38.11,64.12,14.93,13.34,34.29,19.43,54.12,18.83,29.36-.88,57.43-13.85,82.17-28.74,41.97-25.27,78.88-58.81,113.35-93.35,55.23-55.35,105.16-115.94,152.93-177.76,14.89-19.26,29.54-38.71,44.02-58.28,1.15-1.55-1.45-3.05-2.59-1.51-52.03,70.32-106.19,139.41-165.79,203.52-37.85,40.72-78.11,80.47-123.97,112.19-26.53,18.34-56.54,35.51-89,39.99-18.12,2.5-36.94.39-52.81-9.33-23-14.07-35.37-40.1-45.13-64.17-18.39-45.36-32.39-108.31-85.47-124.94-39.94-12.51-85.28,2.43-122.51,17-37.85,14.81-74.07,33.42-109.84,52.63-35.27,18.94-70.04,38.9-105.99,56.56-23.9,11.74-52.04,26.72-79.45,26.57-16.56-.09-35.12-5.25-49.6-13.29-13.32-7.4-25.71-16.45-38.71-24.4-33.53-20.52-69.89-34.66-106.93-47.47-84.5-29.22-182.18-57.54-266.95-13.75-72.59,37.5-120.55,117.84-140.22,194.95-5.68,22.29-8.89,45.08-10.28,68.03-.12,1.93,2.88,1.92,3,0h0Z"/><path class="cls-20" d="m47.08,484.02c7.83-89.38,40.87-185.44,113.06-243.25,37.33-29.9,82.76-44.53,130.47-44.73,53.28-.22,105.58,14.88,155.27,32.86,43.99,15.92,88.39,32.7,128.02,57.91,19.72,12.54,38.44,30.38,61.18,37.27,13.41,4.07,27.83,7.6,41.91,5.76,10.96-1.44,21.59-4.99,31.85-8.98,27.95-10.88,54.39-25.64,80.51-40.27,63.88-35.76,126.84-75.88,195.99-100.89,27.02-9.77,56.68-18.06,85.69-14.81,32.74,3.67,54.91,25.68,69.07,54.13,14.67,29.48,22.08,61.88,34.85,92.14,10.67,25.29,26.17,50.45,53.28,60.16,25.62,9.18,53.61,2,77.47-8.92,45.43-20.8,84.39-55.76,119.73-90.36,62.73-61.42,118.09-130.35,170.94-200.29,17.37-22.99,34.42-46.21,51.25-69.59,1.13-1.57-1.47-3.07-2.59-1.51-58.55,81.36-119.59,161.62-188.16,234.88-39.29,41.98-81.78,84.06-131.74,113.32-25.41,14.88-56.46,28.38-86.56,22.25-24.54-5-41.73-23.24-53.14-44.67-15.72-29.52-23.08-62.65-35.78-93.44-11.11-26.93-27.06-53.84-55.25-65.34-24.61-10.05-52.67-6.88-77.82-.69-32.92,8.1-64.32,22.13-94.59,37.15-33.33,16.53-65.67,34.96-97.98,53.38-29.63,16.89-59.18,34.14-89.92,48.98-20.06,9.69-43.86,21.73-66.81,20.94-29.55-1.01-51.4-15.33-74.56-31.55-34.53-24.18-72.08-41.4-111.26-56.69-88.75-34.62-194.88-70.47-286.33-24.54-76.5,38.43-120.9,120.91-140.16,201.26-5.37,22.4-8.89,45.18-10.9,68.12-.17,1.92,2.83,1.91,3,0h0Z"/></g></svg>