<?xml version="1.0" encoding="UTF-8"?><svg id="Layer_2" xmlns="http://www.w3.org/2000/svg" width="113.65" height="521.13" viewBox="0 0 113.65 521.13"><defs><style>.cls-1{fill:none;stroke:#fc9a2b;stroke-miterlimit:10;stroke-width:.75px;}</style></defs><g id="Layer_4"><path class="cls-1" d="m41.74,504.86c12.68-12.46,25.33-79.51,14.3-92.99-11.03-13.48-24.35-11.07-32.09-28.65-7.97-18.09-5.97-47.89,2.03-65.07,8-17.18-1.54-52.03,20.43-53.54,24.9-1.71,27.46-66.24,5.87-95.41-12.13-16.39-31.8-29.96-35.31-49.02-1.75-9.49-3.89-25.18,17.11-42.89C46.61,66.73,73.98-1.37,45.25,1.96"/><path class="cls-1" d="m42.78,503.4c8.19-8.06,17.4-39.81,18.88-63.01.89-13.91-.57-25.32-4.8-30.13-8.54-9.68-18.29-10.72-25.96-17.4-2.95-2.56-5.43-5.56-7.31-9.77-3.8-8.46-2.37-18.94-2.46-30.74-.09-12.6,1.56-24.1,6.04-33.54,4.74-10,6.66-25.88,9.52-37.73,2.38-9.87,6.45-18.2,15.53-20.05,14.99-3.06,20.4-30.24,15.86-56.66-2.33-13.58-7.31-26.86-14.59-36.56-2.41-3.21-5.07-6.32-7.81-9.41-10.9-12.24-22.35-24-24.42-39.34-1.27-9.61-2.57-24.67,16.12-42.55C48.91,65.49,73.01,1.36,45.25,1.96"/><path class="cls-1" d="m43.82,501.94c8.27-8.15,18.53-41.25,19.65-63.29.72-14.16-1.27-25.23-5.8-30-8.84-9.31-18.92-10.12-26.7-16.28-3.34-2.65-5.96-5.47-7.75-9.41-3.72-8.19.64-17.65.1-29.78-.57-12.94.21-23.7,5.04-33.71,5.06-10.52,9.86-27.38,13.57-39.42,3.18-10.29,7.7-19.55,16.09-22.61,13.39-4.89,17.61-30.67,12.17-55.81-2.82-13.03-8.22-25.68-15.49-35.22-2.39-3.14-5-6.21-7.64-9.27-10.44-12-20.21-23.76-21.51-39.2-.82-9.74-1.26-24.26,15.13-42.2,10.56-11.56,31.36-71.67,4.58-73.81"/><path class="cls-1" d="m44.86,500.48c8.34-8.23,19.64-42.69,20.41-63.56.53-14.41-1.98-25.15-6.79-29.87-9.13-8.95-19.6-9.48-27.44-15.16-3.76-2.72-6.5-5.38-8.19-9.05-3.66-7.91,3.64-16.36,2.66-28.81-1.05-13.28-1.14-23.29,4.04-33.87,5.38-11.03,13.07-28.89,17.62-41.1,3.98-10.71,8.88-20.82,16.65-25.18,11.73-6.58,14.81-31.11,8.47-54.95-3.32-12.48-9.14-24.5-16.4-33.88-2.38-3.08-4.92-6.11-7.48-9.13-9.95-11.77-18.05-23.54-18.59-39.06-.35-9.86,0-23.95,14.14-41.85,9.59-12.15,27.1-68.18,1.29-73.05"/><path class="cls-1" d="m45.9,499.02c8.41-8.31,20.72-44.13,21.18-63.84.34-14.67-2.68-25.07-7.79-29.74-9.4-8.59-20.32-8.81-28.17-14.04-4.18-2.79-7.03-5.29-8.63-8.69-3.6-7.63,6.65-15.07,5.21-27.85-1.52-13.62-2.49-22.89,3.03-34.04,5.71-11.54,16.31-30.39,21.67-42.78,4.81-11.12,10.05-21.98,17.22-27.74,10.07-8.09,12-31.55,4.78-54.09-3.82-11.92-10.06-23.32-17.3-32.54-2.36-3.01-4.84-6-7.31-9-9.49-11.53-15.88-23.31-15.68-38.93.13-9.99,1.21-23.75,13.15-41.5,8.61-12.8,22.84-64.69-2-72.29"/><path class="cls-1" d="m46.94,497.56c8.49-8.39,21.77-45.58,21.94-64.12.14-14.93-3.37-24.99-8.78-29.61-9.67-8.25-21.05-8.1-28.91-12.92-4.62-2.83-7.57-5.2-9.08-8.33-3.54-7.35,9.66-13.78,7.77-26.89-2-13.96-3.84-22.49,2.03-34.21,6.03-12.05,19.56-31.88,25.72-44.46,5.64-11.52,11.26-23.05,17.78-30.3,8.49-9.45,9.17-31.99,1.09-53.24-4.32-11.37-10.97-22.14-18.21-31.21-2.35-2.95-4.77-5.89-7.15-8.86-9.02-11.29-13.7-23.09-12.77-38.79.6-10.11,2.33-23.66,12.16-41.15,7.59-13.51,18.58-61.19-5.28-71.54"/><path class="cls-1" d="m47.98,496.1c8.56-8.47,22.8-47.03,22.71-64.4-.09-15.19-4.06-24.92-9.77-29.48-9.93-7.92-21.81-7.36-29.64-11.8-5.06-2.87-8.11-5.11-9.52-7.97-3.48-7.07,12.66-12.48,10.33-25.93-2.48-14.3-5.19-22.09,1.03-34.38,6.35-12.57,22.81-33.37,29.77-46.14,6.49-11.93,12.57-24.05,18.34-32.86,7.02-10.72,6.32-32.42-2.61-52.38-4.84-10.82-11.89-20.96-19.11-29.87-2.33-2.88-4.7-5.78-6.98-8.72-8.56-11.05-11.52-22.86-9.85-38.65,1.08-10.24,3.36-23.64,11.17-40.8,6.5-14.28,14.32-57.7-8.57-70.78"/><path class="cls-1" d="m49.01,494.64c8.63-8.55,23.81-48.47,23.47-64.67s-4.74-24.85-10.77-29.35c-10.18-7.6-22.57-6.6-30.38-10.68-5.52-2.88-8.65-5.02-9.96-7.61-3.43-6.79,15.67-11.19,12.88-24.96-2.96-14.64-6.54-21.69.02-34.55,6.67-13.08,26.08-34.85,33.81-47.83s13.98-25.02,18.91-35.42c5.67-11.97,3.46-32.85-6.3-51.52-5.36-10.26-12.81-19.78-20.02-28.53-2.32-2.82-4.62-5.67-6.81-8.58-8.1-10.8-9.34-22.64-6.94-38.52,1.56-10.37,4.26-23.68,10.18-40.45,5.32-15.09,10.05-54.21-11.86-70.02"/><path class="cls-1" d="m50.05,493.18c8.71-8.63,24.8-49.92,24.24-64.95-.59-15.7-5.42-24.79-11.76-29.22-10.43-7.28-23.34-5.82-31.11-9.56-5.98-2.87-9.2-4.92-10.41-7.25-3.38-6.51,18.68-9.9,15.44-24-3.43-14.98-7.89-21.29-.98-34.71,6.99-13.59,29.35-36.33,37.86-49.51,8.2-12.71,15.49-26,19.47-37.98,4.41-13.26.59-33.27-9.99-50.66-5.89-9.69-13.72-18.6-20.92-27.19-2.3-2.75-4.55-5.56-6.65-8.45-7.65-10.56-7.15-22.41-4.03-38.38,2.05-10.49,5.06-23.74,9.19-40.1,4.02-15.93,5.79-50.72-15.15-69.26"/><path class="cls-1" d="m51.09,491.72c8.78-8.71,25.77-51.36,25-65.23-.88-15.96-6.1-24.74-12.75-29.08-10.67-6.97-24.11-5.03-31.85-8.44-6.45-2.84-9.74-4.83-10.85-6.89-3.34-6.22,21.68-8.61,18-23.04-3.91-15.32-9.24-20.89-1.98-34.88,7.31-14.1,32.63-37.8,41.91-51.19s17.06-27.01,20.03-40.54c3.21-14.6-2.31-33.67-13.69-49.81-6.43-9.12-14.64-17.42-21.83-25.86-2.29-2.69-4.48-5.44-6.48-8.31-7.19-10.31-4.95-22.18-1.11-38.24,2.54-10.61,5.74-23.77,8.2-39.75,2.58-16.76,1.53-47.22-18.44-68.51"/><path class="cls-1" d="m52.13,490.26c8.85-8.79,26.72-52.8,25.77-65.5-1.21-16.21-6.78-24.69-13.75-28.95-10.91-6.68-24.88-4.21-32.58-7.32-6.92-2.79-10.29-4.73-11.29-6.53-3.31-5.92,24.69-7.32,20.55-22.07-4.39-15.66-10.59-20.49-2.99-35.05,7.63-14.62,35.91-39.26,45.96-52.87,9.94-13.47,18.67-28.07,20.6-43.1,2.04-15.99-5.21-34.06-17.38-48.95-6.98-8.54-15.56-16.24-22.73-24.52-2.27-2.62-4.41-5.33-6.31-8.17-6.75-10.05-2.74-21.94,1.8-38.11,3.04-10.73,6.32-23.76,7.21-39.4.99-17.56-2.73-43.73-21.73-67.75"/><path class="cls-1" d="m53.17,488.8c8.93-8.87,27.65-54.24,26.53-65.78-4.02-41.62-35.38-30.37-48.06-35.02-34.55-12.66,17.21-8.08,11.38-27.28-4.86-16-11.94-20.09-3.99-35.22,7.96-15.13,39.2-40.72,50.01-54.56,10.81-13.84,20.31-29.16,21.16-45.66.9-17.43-8.12-34.43-21.07-48.09-9.91-10.45-22.24-19.46-29.78-31.22-15.48-24.14,41.85-60.98-14.09-144.01"/><path class="cls-1" d="m44.9,1.82c16.91,21.73,22.06,44.9,23.61,62.2.96,10.73,2.16,20.53.68,29.17-4.26,24.26-16.04,41.4-8.48,54.95,3.19,5.71,7.45,10.84,12.27,15.68,5.31,5.34,10.54,11.32,15.13,17.38,1.34,1.77,2.65,3.54,3.91,5.26,9.99,13.57,19.91,28.19,18.3,42.97-1.71,15.7-11.51,30.09-22.97,42.8s-42.64,36.54-50.77,51.56c-3.46,6.38-4.18,10.46-3.6,15.02.77,6.07,4.84,11.91,7.64,21.28,1.08,3.66.21,6.5-2,8.65-9.81,9.58-35.38,9.87-7.54,20.23,10.3,3.87,31.21-.98,43.2,13.84,3.58,4.41,5.63,11.58,5.59,21.64-.05,13.14-20.11,58.33-28.78,67.3"/><path class="cls-1" d="m44.55,1.67c17.71,19.55,21.31,45.8,22.62,63.34.79,10.49,4.14,20.38,2.93,28.96-3.37,23.89-14.99,41.91-8.01,56.31,2.9,5.98,6.91,11.4,11.73,16.41s9.43,12.01,13.29,18.49c1.16,1.94,2.29,3.82,3.41,5.55,9.44,14.48,22.37,28.63,19.93,42.82-2.56,14.88-12.74,28.34-24.78,39.93-12.88,12.39-43.22,33.65-51.54,48.56-3.67,6.57-4.36,10.4-3.81,15.44.68,6.26,5.17,12.65,7.89,21.93,1.09,3.75.24,6.69-2.22,8.82-11.01,9.56-33,11.19-5.49,21.66,10.84,4.13,31.79.32,44.88,13.79,3.91,4.01,5.58,11.61,4.65,22.15-1.3,14.77-22.61,59.76-31.03,68.81"/><path class="cls-1" d="m44.2,1.53c18.51,17.37,20.56,46.7,21.63,64.48.62,10.24,6.09,20.22,5.17,28.76-2.55,23.5-13.92,42.42-7.55,57.67,2.61,6.25,6.38,11.96,11.19,17.15s8.3,12.72,11.44,19.59c.97,2.12,1.92,4.11,2.91,5.83,8.87,15.43,24.85,29.07,21.57,42.67s-14,26.56-26.59,37.06c-13.98,11.66-43.82,30.76-52.3,45.56-3.87,6.76-4.53,10.33-4.01,15.86.6,6.45,5.52,13.39,8.15,22.59,1.1,3.84.26,6.88-2.43,8.98-12.21,9.53-30.64,12.57-3.44,23.1,11.38,4.41,32.37,1.62,46.55,13.74,4.25,3.61,5.46,11.63,3.71,22.65-2.61,16.4-25.11,61.18-33.28,70.33"/><path class="cls-1" d="m43.86,1.38c19.31,15.18,19.82,47.59,20.65,65.62.46,10,8.05,20.05,7.41,28.55-1.73,23.12-12.84,42.92-7.09,59.03,2.33,6.52,5.85,12.51,10.66,17.88,4.46,4.98,7.16,13.45,9.6,20.7.77,2.29,1.55,4.4,2.41,6.12,8.26,16.43,27.35,29.5,23.21,42.52s-15.31,24.76-28.4,34.19c-15.12,10.9-44.42,27.87-53.07,42.56-4.09,6.95-4.7,10.26-4.22,16.29.53,6.64,5.85,14.13,8.4,23.25,1.1,3.94.29,7.07-2.65,9.15-13.42,9.5-28.28,13.95-1.38,24.54,11.91,4.69,32.95,2.92,48.23,13.7,4.58,3.21,5.3,11.66,2.77,23.16-3.98,18.04-27.61,62.61-35.53,71.85"/><path class="cls-1" d="m43.51,1.24c20.11,13,19.08,48.48,19.66,66.76.31,9.75,10,19.89,9.66,28.35-.92,22.73-11.76,43.41-6.62,60.38,2.05,6.79,5.33,13.06,10.12,18.62,4.18,4.85,5.99,14.19,7.76,21.81.57,2.48,1.17,4.69,1.91,6.4,7.59,17.47,29.86,29.93,24.85,42.37-5,12.42-16.66,22.92-30.21,31.32-16.3,10.1-45.03,24.97-53.83,39.56-4.3,7.13-4.87,10.19-4.43,16.71s6.19,14.87,8.65,23.9c1.1,4.03.31,7.26-2.87,9.31-14.63,9.46-25.93,15.34.67,25.98,12.44,4.98,33.52,4.21,49.9,13.65,4.91,2.81,5.12,11.68,1.83,23.66-5.39,19.66-30.11,64.03-37.78,73.36"/><path class="cls-1" d="m43.16,1.1c20.91,10.81,18.36,49.37,18.67,67.91.16,9.51,11.94,19.73,11.9,28.14-.11,22.34-10.66,43.91-6.16,61.74,1.78,7.05,4.81,13.61,9.58,19.35,3.91,4.71,4.81,14.93,5.91,22.92.37,2.66.78,4.99,1.41,6.69,6.87,18.54,32.39,30.37,26.49,42.23s-18.03,21.05-32.02,28.45c-17.51,9.26-45.64,22.07-54.59,36.56-4.52,7.32-5.03,10.12-4.63,17.13s6.51,15.62,8.91,24.56c1.1,4.13.33,7.44-3.08,9.48-15.85,9.42-23.57,16.74,2.72,27.42,12.97,5.26,34.1,5.51,51.58,13.61,5.25,2.42,4.91,11.68.89,24.17-6.85,21.26-32.61,65.46-40.02,74.88"/><path class="cls-1" d="m42.81.95c21.71,8.63,17.65,50.27,17.69,69.05.02,9.26,13.88,19.57,14.14,27.94.68,21.95-9.56,44.4-5.69,63.1,1.51,7.32,4.3,14.14,9.04,20.09,3.65,4.57,3.62,15.67,4.07,24.02.15,2.84.39,5.29.91,6.97,6.07,19.63,34.95,30.81,28.12,42.08s-19.41,19.14-33.83,25.59c-18.74,8.37-46.26,19.16-55.36,33.56-4.74,7.5-5.19,10.05-4.84,17.55s6.84,16.36,9.16,25.21c1.11,4.22.36,7.63-3.3,9.64-17.07,9.38-21.23,18.15,4.78,28.86,13.5,5.56,34.68,6.81,53.25,13.56,5.58,2.02,4.69,11.68-.05,24.67-8.34,22.85-35.11,66.88-42.27,76.39"/><path class="cls-1" d="m42.46.81c22.51,6.44,16.95,51.16,16.7,70.19-.12,9.02,15.82,19.41,16.39,27.74,1.46,21.57-8.44,44.89-5.23,64.46,1.24,7.58,3.8,14.67,8.51,20.82,3.39,4.43,2.41,16.41,2.22,25.13-.06,3.02,0,5.59.41,7.26,5.19,20.74,37.52,31.27,29.76,41.93-7.27,10-20.8,17.2-35.64,22.72-19.97,7.43-46.88,16.26-56.12,30.56-4.96,7.68-5.35,9.99-5.04,17.98.28,7.4,7.17,17.1,9.42,25.87,1.11,4.32.38,7.82-3.52,9.8-18.28,9.33-18.88,19.57,6.83,30.3,14.02,5.85,35.26,8.11,54.93,13.52,5.91,1.62,4.46,11.67-.99,25.18-9.85,24.41-37.61,68.31-44.52,77.91"/><path class="cls-1" d="m42.11.66c23.31,4.26,16.27,52.05,15.71,71.33-.25,8.77,17.76,19.24,18.63,27.53,2.23,21.18-7.32,45.38-4.77,65.82.98,7.85,3.3,15.2,7.97,21.56,3.14,4.28,1.19,17.13.38,26.24-.28,3.2-.41,5.89-.09,7.54,4.22,21.84,40.1,31.75,31.4,41.78-8,9.22-22.18,15.22-37.45,19.85-21.21,6.44-47.51,13.35-56.88,27.56-5.18,7.86-5.5,9.92-5.25,18.4.22,7.58,7.48,17.85,9.67,26.53,1.1,4.41.4,7.99-3.74,9.97-19.52,9.24-16.54,20.98,8.88,31.74,14.55,6.15,35.84,9.4,56.6,13.47,6.25,1.22,4.22,11.65-1.93,25.69-11.39,25.96-40.11,69.73-46.77,79.42"/><path class="cls-1" d="m41.76.52c24.11,2.07,15.59,52.95,14.73,72.47-.38,8.53,19.69,19.09,20.87,27.33,2.99,20.8-6.15,45.87-4.3,67.18.74,8.11,2.82,15.71,7.43,22.29,2.89,4.13-.04,17.85-1.47,27.34-.51,3.37-.82,6.19-.59,7.83,3.17,22.94,42.7,32.26,33.04,41.63-8.72,8.47-23.56,13.21-39.26,16.98-22.45,5.39-48.16,10.42-57.65,24.56-5.42,8.03-5.63,9.85-5.46,18.82.18,7.77,7.81,18.59,9.92,27.18,1.1,4.51.42,8.18-3.95,10.13-20.73,9.2-14.21,22.44,10.93,33.18,15.06,6.48,36.42,10.7,58.28,13.43,6.58.82,3.98,11.62-2.88,26.19-12.94,27.5-42.61,71.16-49.02,80.94"/><path class="cls-1" d="m41.41.38c24.91-.11,14.94,53.84,13.74,73.61-.5,8.28,21.61,18.93,23.11,27.12,5.16,28.14-13.5,66.77,3.06,91.57,3.61,5.4-4.92,30.39-4.4,36.56,2.02,24.01,45.3,32.78,34.68,41.49-23.28,19.07-83.26,12.05-99.48,35.68-5.64,8.22-5.8,9.78-5.66,19.24.17,12.28,19.15,32.65,6.01,38.14-35.71,14.92,13.42,44.42,72.94,47.99,20.19,1.21-45.71,94.14-55.08,109.15"/></g></svg>