<?xml version="1.0" encoding="UTF-8"?><svg id="Layer_2" xmlns="http://www.w3.org/2000/svg" width="1957.38" height="301.7" xmlns:xlink="http://www.w3.org/1999/xlink" viewBox="0 0 1957.38 301.7"><defs><style>.cls-1{stroke:url(#linear-gradient-2);}.cls-1,.cls-2,.cls-3,.cls-4,.cls-5,.cls-6,.cls-7,.cls-8,.cls-9,.cls-10,.cls-11,.cls-12,.cls-13,.cls-14,.cls-15,.cls-16,.cls-17,.cls-18,.cls-19,.cls-20,.cls-21,.cls-22,.cls-23,.cls-24,.cls-25,.cls-26,.cls-27,.cls-28,.cls-29,.cls-30,.cls-31,.cls-32,.cls-33,.cls-34,.cls-35,.cls-36,.cls-37,.cls-38,.cls-39,.cls-40,.cls-41,.cls-42,.cls-43{fill:none;stroke-miterlimit:10;}.cls-2{stroke:url(#linear-gradient-3);}.cls-3{stroke:url(#linear-gradient-28);}.cls-4{stroke:url(#linear-gradient-9);}.cls-5{stroke:url(#linear-gradient-37);}.cls-6{stroke:url(#linear-gradient-22);}.cls-7{stroke:url(#linear-gradient-19);}.cls-8{stroke:url(#linear-gradient-26);}.cls-9{stroke:url(#linear-gradient-4);}.cls-10{stroke:url(#linear-gradient-6);}.cls-11{stroke:url(#linear-gradient-18);}.cls-12{stroke:url(#linear-gradient-13);}.cls-13{stroke:url(#linear-gradient-29);}.cls-14{stroke:url(#linear-gradient-16);}.cls-15{stroke:url(#linear-gradient-17);}.cls-16{stroke:url(#linear-gradient-30);}.cls-17{stroke:url(#linear-gradient-7);}.cls-18{stroke:url(#linear-gradient-39);}.cls-19{stroke:url(#linear-gradient-21);}.cls-20{stroke:url(#linear-gradient-12);}.cls-21{stroke:url(#linear-gradient-5);}.cls-22{stroke:url(#linear-gradient-38);}.cls-23{stroke:url(#linear-gradient-32);}.cls-24{stroke:url(#linear-gradient-36);}.cls-25{stroke:url(#linear-gradient-20);}.cls-26{stroke:url(#linear-gradient-24);}.cls-27{stroke:url(#linear-gradient-33);}.cls-28{stroke:url(#linear-gradient-31);}.cls-29{stroke:url(#linear-gradient);}.cls-30{stroke:url(#linear-gradient-25);}.cls-31{stroke:url(#linear-gradient-35);}.cls-32{stroke:url(#linear-gradient-27);}.cls-33{stroke:url(#linear-gradient-23);}.cls-34{stroke:url(#linear-gradient-14);}.cls-35{stroke:url(#linear-gradient-41);}.cls-36{stroke:url(#linear-gradient-42);}.cls-37{stroke:url(#linear-gradient-34);}.cls-38{stroke:url(#linear-gradient-11);}.cls-39{stroke:url(#linear-gradient-8);}.cls-40{stroke:url(#linear-gradient-40);}.cls-41{stroke:url(#linear-gradient-10);}.cls-42{stroke:url(#linear-gradient-15);}.cls-43{stroke:url(#linear-gradient-43);}</style><linearGradient id="linear-gradient" x1="0" y1="146.78" x2="1782.76" y2="146.78" gradientUnits="userSpaceOnUse"><stop offset="0" stop-color="#fb8500" stop-opacity="0"/><stop offset=".51" stop-color="#fb8500"/><stop offset="1" stop-color="#fb8500" stop-opacity="0"/></linearGradient><linearGradient id="linear-gradient-2" x1="2.48" y1="145.44" x2="1791.07" y2="145.44" xlink:href="#linear-gradient"/><linearGradient id="linear-gradient-3" x1="4.95" y1="144.1" x2="1799.39" y2="144.1" xlink:href="#linear-gradient"/><linearGradient id="linear-gradient-4" x1="7.43" y1="142.78" x2="1807.7" y2="142.78" xlink:href="#linear-gradient"/><linearGradient id="linear-gradient-5" x1="9.91" y1="141.46" x2="1816.01" y2="141.46" xlink:href="#linear-gradient"/><linearGradient id="linear-gradient-6" x1="12.38" y1="140.16" x2="1824.33" y2="140.16" xlink:href="#linear-gradient"/><linearGradient id="linear-gradient-7" x1="14.86" y1="140.13" x2="1832.64" y2="140.13" xlink:href="#linear-gradient"/><linearGradient id="linear-gradient-8" x1="17.34" y1="140.91" x2="1840.96" y2="140.91" xlink:href="#linear-gradient"/><linearGradient id="linear-gradient-9" x1="19.82" y1="141.78" x2="1849.27" y2="141.78" xlink:href="#linear-gradient"/><linearGradient id="linear-gradient-10" x1="22.29" y1="142.76" x2="1857.59" y2="142.76" xlink:href="#linear-gradient"/><linearGradient id="linear-gradient-11" x1="24.77" y1="143.85" x2="1865.9" y2="143.85" xlink:href="#linear-gradient"/><linearGradient id="linear-gradient-12" x1="27.25" y1="145.05" x2="1874.22" y2="145.05" xlink:href="#linear-gradient"/><linearGradient id="linear-gradient-13" x1="29.73" y1="146.35" x2="1882.53" y2="146.35" xlink:href="#linear-gradient"/><linearGradient id="linear-gradient-14" x1="32.2" y1="147.73" x2="1890.85" y2="147.73" xlink:href="#linear-gradient"/><linearGradient id="linear-gradient-15" x1="34.68" y1="149.2" x2="1899.16" y2="149.2" xlink:href="#linear-gradient"/><linearGradient id="linear-gradient-16" x1="37.16" y1="150.75" x2="1907.48" y2="150.75" xlink:href="#linear-gradient"/><linearGradient id="linear-gradient-17" x1="39.64" y1="152.39" x2="1915.79" y2="152.39" xlink:href="#linear-gradient"/><linearGradient id="linear-gradient-18" x1="42.12" y1="154.12" x2="1924.11" y2="154.12" xlink:href="#linear-gradient"/><linearGradient id="linear-gradient-19" x1="44.6" y1="155.94" x2="1932.43" y2="155.94" xlink:href="#linear-gradient"/><linearGradient id="linear-gradient-20" x1="47.08" y1="157.85" x2="1940.74" y2="157.85" xlink:href="#linear-gradient"/><linearGradient id="linear-gradient-21" x1="49.56" y1="159.88" x2="1949.06" y2="159.88" xlink:href="#linear-gradient"/><linearGradient id="linear-gradient-22" x1="52.04" y1="162.01" x2="1957.38" y2="162.01" xlink:href="#linear-gradient"/><linearGradient id="linear-gradient-23" x1="53.76" y1="163.64" x2="1956.19" y2="163.64" xlink:href="#linear-gradient"/><linearGradient id="linear-gradient-24" x1="55.48" y1="165.31" x2="1954.99" y2="165.31" xlink:href="#linear-gradient"/><linearGradient id="linear-gradient-25" x1="57.2" y1="166.97" x2="1953.78" y2="166.97" xlink:href="#linear-gradient"/><linearGradient id="linear-gradient-26" x1="58.92" y1="168.57" x2="1952.56" y2="168.57" xlink:href="#linear-gradient"/><linearGradient id="linear-gradient-27" x1="60.65" y1="169.61" x2="1951.34" y2="169.61" xlink:href="#linear-gradient"/><linearGradient id="linear-gradient-28" x1="62.37" y1="169.59" x2="1950.11" y2="169.59" xlink:href="#linear-gradient"/><linearGradient id="linear-gradient-29" x1="64.09" y1="169.4" x2="1948.88" y2="169.4" xlink:href="#linear-gradient"/><linearGradient id="linear-gradient-30" x1="65.81" y1="169.4" x2="1947.65" y2="169.4" xlink:href="#linear-gradient"/><linearGradient id="linear-gradient-31" x1="67.53" y1="168.47" x2="1946.42" y2="168.47" xlink:href="#linear-gradient"/><linearGradient id="linear-gradient-32" x1="69.25" y1="167.51" x2="1945.19" y2="167.51" xlink:href="#linear-gradient"/><linearGradient id="linear-gradient-33" x1="70.97" y1="166.54" x2="1943.96" y2="166.54" xlink:href="#linear-gradient"/><linearGradient id="linear-gradient-34" x1="72.69" y1="166.4" x2="1942.72" y2="166.4" xlink:href="#linear-gradient"/><linearGradient id="linear-gradient-35" x1="74.41" y1="165.4" x2="1941.49" y2="165.4" xlink:href="#linear-gradient"/><linearGradient id="linear-gradient-36" x1="76.13" y1="163.6" x2="1940.25" y2="163.6" xlink:href="#linear-gradient"/><linearGradient id="linear-gradient-37" x1="77.85" y1="161.79" x2="1939.02" y2="161.79" xlink:href="#linear-gradient"/><linearGradient id="linear-gradient-38" x1="79.56" y1="159.97" x2="1937.78" y2="159.97" xlink:href="#linear-gradient"/><linearGradient id="linear-gradient-39" x1="81.28" y1="158.15" x2="1936.55" y2="158.15" xlink:href="#linear-gradient"/><linearGradient id="linear-gradient-40" x1="83" y1="156.33" x2="1935.31" y2="156.33" xlink:href="#linear-gradient"/><linearGradient id="linear-gradient-41" x1="84.72" y1="154.5" x2="1934.07" y2="154.5" xlink:href="#linear-gradient"/><linearGradient id="linear-gradient-42" x1="86.44" y1="152.68" x2="1932.84" y2="152.68" xlink:href="#linear-gradient"/><linearGradient id="linear-gradient-43" x1="88.16" y1="150.85" x2="1931.6" y2="150.85" xlink:href="#linear-gradient"/></defs><g id="Layer_5"><path class="cls-29" d="m.24,69.98c158,86,249.26,83,310.78,43.36,61.52-39.64,147.33,91.46,218.22,109.64,39.12,10.04,72-119,85-118,77.32,5.95,169.27,141.11,217,80,63.02-80.69,297,8,340.64-32.68,56.44-52.61,84.8-105.43,152.1-67.7,31.67,17.76,183.03,44.92,163.26,75.37-37,57,169.94,41.7,295.47,28.7"/><path class="cls-1" d="m2.72,71.17c153.46,83.22,246.12,80.37,307.91,42.02,61.53-38.3,146.33,87.21,216.57,105.81,40.05,10.61,73.46-110.88,88.76-109.35,78.75,7.84,173.54,135.31,223.38,75.14,64.04-77.32,288.86,4.21,333.72-34.58,57.43-49.66,86.94-97.68,154.13-60.24,33.61,18.6,181.44,44.41,166.15,73.29-28.92,54.63,174.44,38.06,297.68,24.62"/><path class="cls-2" d="m5.19,72.36c148.91,80.43,242.97,77.74,305.04,40.69,61.54-36.96,145.32,82.98,214.92,101.97,40.98,11.18,74.92-102.78,92.52-100.71,80.2,9.44,177.76,129.52,229.76,70.29,64.96-73.99,280.69.43,326.8-36.48,58.37-46.72,88.99-89.74,156.15-52.78,35.5,19.54,179.91,43.85,169.05,71.21-20.71,52.18,178.94,34.41,299.9,20.54"/><path class="cls-9" d="m7.67,73.55c144.37,77.65,239.83,75.12,302.17,39.35,61.56-35.62,144.3,78.77,213.27,98.14,41.91,11.77,76.38-94.7,96.28-92.06,81.65,10.83,181.9,123.73,236.14,65.43,65.77-70.69,272.49-3.36,319.89-38.38,59.27-43.79,91.1-81.93,158.18-45.33,37.42,20.42,178.43,43.18,171.94,69.13-12.4,49.55,183.44,30.77,302.11,16.46"/><path class="cls-21" d="m10.14,74.74c139.83,74.87,236.77,72.64,299.29,38.02,61.65-34.13,143.29,74.59,211.62,94.3,42.83,12.36,77.84-86.65,100.04-83.42,83.12,12.09,185.99,117.92,242.52,60.57,66.48-67.45,264.26-7.16,312.97-40.28,60.13-40.88,93.22-74.13,160.2-37.87,39.34,21.3,176.98,42.36,174.83,67.05-4.07,46.67,187.94,27.12,304.33,12.38"/><path class="cls-10" d="m12.62,75.93c135.29,72.08,233.63,70.04,296.42,36.68,61.67-32.76,142.27,70.42,209.97,90.47,43.76,12.96,79.3-78.61,103.8-74.77,84.6,13.25,190.02,112.1,248.9,55.71,67.1-64.25,255.99-10.98,306.05-42.18,60.95-37.99,95.34-66.34,162.23-30.41,41.27,22.17,175.48,41.35,177.72,64.97,4.13,43.47,192.44,23.48,306.55,8.29"/><path class="cls-17" d="m15.1,77.12c130.74,69.3,230.5,67.44,293.55,35.35,61.69-31.4,141.24,66.26,208.32,86.63,44.68,13.57,80.76-70.59,107.56-66.13,86.09,14.35,193.98,106.25,255.29,50.86,67.63-61.11,247.7-14.81,299.14-44.08,61.73-35.13,97.48-58.56,164.25-22.95,43.2,23.04,173.81,40.2,180.61,62.89,12,40.04,196.94,19.84,308.76,4.21"/><path class="cls-39" d="m17.57,78.31c126.2,66.52,227.36,64.83,290.68,34.01,61.71-30.04,140.21,62.12,206.67,82.8,45.6,14.19,82.22-62.59,111.32-57.48,87.58,15.39,197.88,100.37,261.67,46,68.08-58.03,239.38-18.66,292.22-45.98,62.48-32.3,99.62-50.8,166.28-15.5,45.13,23.9,171.93,39.02,183.51,60.81,19.43,36.57,201.44,16.19,310.98.13"/><path class="cls-4" d="m20.05,79.5c121.66,63.74,224.22,62.23,287.81,32.68,61.72-28.68,139.18,58,205.02,78.97,46.52,14.81,83.69-54.61,115.08-48.83,89.09,16.38,201.72,94.45,268.05,41.14,68.45-55.01,231.04-22.54,285.3-47.89,63.19-29.51,101.76-43.04,168.3-8.04,47.06,24.76,169.83,37.94,186.4,58.73,26.51,33.27,205.95,12.55,313.19-3.95"/><path class="cls-41" d="m22.52,80.69c117.12,60.95,221.08,59.61,284.94,31.34,61.73-27.33,138.15,53.89,203.37,75.13,47.44,15.45,85.16-46.64,118.84-40.19,90.6,17.35,205.5,88.47,274.43,36.29,68.76-52.05,222.68-26.45,278.38-49.79,63.88-26.76,103.91-35.29,170.33-.58,49,25.61,167.62,37.04,189.29,56.65,33.42,30.25,210.45,8.91,315.41-8.03"/><path class="cls-38" d="m25,81.88c112.57,58.17,217.93,57,282.07,30.01,61.74-25.98,137.11,49.79,201.71,71.3,48.35,16.09,86.64-38.68,122.6-31.54,92.12,18.29,209.23,82.43,280.81,31.43,69-49.17,214.29-30.4,271.47-51.69,64.56-24.04,106.06-27.55,172.35,6.88,50.94,26.45,165.38,36.32,192.18,54.57,40.34,27.48,214.95,5.26,317.63-12.11"/><path class="cls-20" d="m27.48,83.07c108.03,55.39,214.78,54.37,279.19,28.68s136.06,45.71,200.06,67.46c49.26,16.74,88.12-30.74,126.36-22.9,93.65,19.21,212.91,76.33,287.19,26.57,69.19-46.35,205.9-34.37,264.55-53.59,65.21-21.36,108.22-19.81,174.37,14.33,52.89,27.3,163.18,35.72,195.07,52.49,47.33,24.9,219.45,1.62,319.84-16.19"/><path class="cls-12" d="m29.95,84.26c103.49,52.6,211.63,51.75,276.32,27.34s135.01,41.63,198.41,63.63c50.17,17.4,89.6-22.81,130.12-14.25,95.18,20.11,216.54,70.15,293.57,21.71,69.34-43.6,197.49-38.39,257.63-55.49,65.86-18.73,110.38-12.08,176.4,21.79,54.83,28.13,161.04,35.2,197.97,50.41,54.42,22.42,223.95-2.03,322.06-20.27"/><path class="cls-34" d="m32.43,85.45c98.95,49.82,208.48,49.11,273.45,26.01,61.76-21.96,133.96,37.57,196.76,59.79,51.07,18.07,91.08-14.89,133.88-5.61,96.72,20.99,220.12,63.88,299.95,16.86,69.46-40.91,189.09-42.44,250.72-57.39,66.5-16.13,112.54-4.36,178.42,29.25,56.78,28.96,158.95,34.72,200.86,48.33,61.61,20.01,228.45-5.67,324.27-24.35"/><path class="cls-42" d="m34.91,86.64c94.4,47.04,205.32,46.47,270.58,24.67,61.76-20.64,132.91,33.51,195.11,55.96,51.97,18.75,92.57-6.99,137.64,3.04,98.26,21.87,223.67,57.53,306.33,12,69.55-38.3,180.67-46.53,243.8-59.29,67.14-13.57,114.7,3.36,180.45,36.71,58.73,29.78,156.91,34.26,203.75,46.25,68.89,17.63,232.95-9.31,326.49-28.43"/><path class="cls-14" d="m37.38,87.83c89.86,44.25,202.17,43.83,267.71,23.34,61.76-19.31,131.85,29.46,193.46,52.12,52.87,19.44,94.06.91,141.4,11.68,99.81,22.73,227.18,51.07,312.71,7.14,69.62-35.75,172.27-50.66,236.88-61.19,67.79-11.05,116.87,11.08,182.47,44.16,60.69,30.6,154.91,33.81,206.64,44.17,76.23,15.26,237.45-12.96,328.7-32.51"/><path class="cls-15" d="m39.86,89.02c85.32,41.47,199.01,41.18,264.84,22,61.76-17.99,130.78,25.43,191.81,48.29,53.76,20.14,95.56,8.79,145.16,20.33,101.36,23.58,230.66,44.52,319.1,2.29,69.68-33.27,163.87-54.83,229.97-63.1,68.44-8.56,119.03,18.79,184.5,51.62,62.65,31.41,152.94,33.36,209.53,42.09,83.61,12.9,241.95-16.6,330.92-36.6"/><path class="cls-11" d="m42.33,90.21c80.78,38.69,195.86,38.52,261.97,20.67,61.76-16.68,129.72,21.39,190.16,44.45,54.65,20.85,97.06,16.66,148.92,28.98,102.92,24.43,234.12,37.85,325.48-2.57,69.73-30.86,155.48-59.03,223.05-65,69.11-6.1,121.2,26.5,186.52,59.08,64.61,32.22,150.99,32.91,212.43,40.01,91.04,10.53,246.45-20.25,333.14-40.68"/><path class="cls-7" d="m44.81,91.4c76.23,35.91,192.7,35.86,259.09,19.33,61.76-15.38,128.65,17.37,188.51,40.62,55.53,21.56,98.56,24.53,152.68,37.62,104.48,25.27,237.57,31.07,331.86-7.43,69.8-28.5,147.1-63.26,216.13-66.9s123.37,34.2,188.55,66.53c66.57,33.02,149.06,32.45,215.32,37.93,98.5,8.16,250.96-23.89,335.35-44.76"/><path class="cls-25" d="m47.29,92.59c71.69,33.12,189.52,33.09,256.22,18,61.74-14.17,127.57,13.35,186.86,36.78,56.41,22.29,100.06,32.39,156.44,46.27,106.04,26.11,241.01,24.18,338.24-12.29,69.88-26.21,138.74-67.53,209.22-68.8,70.49-1.27,125.59,41.8,190.57,73.99,68.59,33.71,147.15,31.98,218.21,35.85,105.98,5.78,255.46-27.53,337.57-48.84"/><path class="cls-19" d="m49.76,93.79c67.15,30.34,186.38,30.46,253.35,16.66,61.75-12.83,126.45,9.44,185.21,32.95,57.24,23.12,101.6,40.12,160.2,54.91,107.66,26.73,244.45,17.17,344.62-17.14,69.97-23.97,130.39-71.82,202.3-70.7,71.21,1.11,127.74,49.55,192.6,81.45,70.53,34.55,145.24,31.51,221.1,33.78,113.48,3.39,259.96-31.18,339.78-52.92"/><path class="cls-6" d="m52.24,94.98c62.61,27.56,183.23,27.84,250.48,15.33,61.76-11.49,125.41,5.34,183.56,29.11,58.15,23.78,103.08,48.07,163.96,63.56,109.18,27.77,247.89,10.04,351-22,70.09-21.78,122.07-76.14,195.38-72.6,71.95,3.47,129.89,57.3,194.62,88.91,72.47,35.39,143.35,31.03,224,31.7,121,1,264.46-34.82,342-57"/><path class="cls-33" d="m53.95,95.88c27.67,11.73,65.01,15.61,104.44,17.7,51.41,2.72,107.65,5.34,146.28.29,6.62-.86,13.21-1.55,19.73-2.26,43.9-4.79,91.27,1.39,133.92,14.82,10.71,3.37,20.91,6.44,30.74,9.7,21.82,7.18,40.83,13.77,61.86,22.79,31.66,13.58,62.52,28.3,99.11,40.11,48.76,15.93,103.32,23.54,158.03,20.6,67.15-3.43,131.97-21.78,188.94-41.34,42.04-14.44,78.45-39.2,117.95-54.7,25.58-10.14,51.44-17.8,80.44-17.12,31.45.73,60,10.98,88.95,23.61,36.67,16,61.17,41.21,95.75,58.81,2.73,1.4,5.5,2.8,8.31,4.2,71.56,35.25,146.19,38,224.87,38.26,53.93.17,110.31-12.88,163.6-21.98,69.75-11.93,128.63-16.08,179.12-37.02"/><path class="cls-26" d="m55.67,96.78c28.53,11.66,65.75,12.64,105.27,13.86,50.27,1.56,106.92,9.76,145.69,6.79,6.75-.52,13.41-.99,19.92-1.81,43.11-5.42,92.59-2.48,134.78,9.53,10.97,3.12,21.03,5.35,30.54,7.7,21.09,5.2,38.56,9.03,60.37,18.25,31.3,13.23,61.77,29.75,97.61,44.01,47.98,19.09,101.34,31.1,155.09,28.59,67.4-3.14,130.18-26.41,187.86-48.09,41.65-15.66,78.73-39.96,119.79-54.1,26.48-9.12,52.56-16.89,81.61-16.94,31.51-.05,60.04,9.22,90.01,19.95,40.32,14.44,57.32,42.2,92.96,60.12,2.74,1.38,5.54,2.82,8.42,4.27,70.52,35.35,149.04,45.71,225.75,44.82,55.53-.65,111.76-19.73,164.77-28.68,69.19-11.7,121.7-3.03,178.66-32.32"/><path class="cls-30" d="m57.39,97.69c29.39,11.59,66.51,8.21,106.09,10.03,49.08,2.26,106.21,14.22,145.1,13.29,6.88-.16,13.61-.44,20.11-1.36,42.31-6.03,93.95-6.4,135.63,4.24,11.24,2.87,21.16,4.25,30.34,5.69,20.37,3.19,36.29,4.3,58.87,13.7,30.93,12.88,61,31.27,96.12,47.9,47.18,22.35,99.36,38.75,152.15,36.59,67.66-2.76,128.39-31.01,186.78-54.84,41.26-16.84,78.98-40.8,121.62-53.5,27.36-8.15,53.68-15.98,82.78-16.76,31.57-.84,60.18,7.34,91.07,16.29,44.1,12.79,53.44,43.25,90.17,61.43,2.75,1.36,5.59,2.84,8.54,4.33,69.56,35.3,151.9,52.92,226.63,51.38,57.13-1.18,113.22-26.58,165.94-35.38,68.62-11.48,114.77,10.03,178.2-27.62"/><path class="cls-8" d="m59.1,98.59c30.24,11.52,67.2,4.84,106.92,6.2,47.95,1.64,105.52,18.71,144.52,19.79,7.01.19,13.8.12,20.29-.91,41.5-6.63,95.34-10.37,136.48-1.05,11.52,2.61,21.29,3.15,30.13,3.68,19.66,1.19,34.01-.43,57.37,9.16,30.56,12.54,60.24,32.8,94.62,51.8,46.38,25.63,97.39,46.4,149.2,44.59,67.92-2.37,126.6-35.56,185.7-61.58,40.88-18,79.22-41.65,123.46-52.9,28.23-7.18,54.79-15.08,83.95-16.57,31.63-1.62,60.4,5.34,92.12,12.64,47.98,11.04,49.56,44.31,87.38,62.74,2.76,1.34,5.63,2.85,8.65,4.4,68.6,35.24,154.73,58.74,227.51,57.94,58.75-.65,114.68-33.44,167.11-42.08,68.06-11.25,107.84,23.08,177.75-22.92"/><path class="cls-32" d="m60.82,99.5c31.1,11.45,67.88,3.81,107.75,2.36,46.81-1.71,104.84,23.24,143.93,26.29,7.15.56,14,.68,20.48-.47,40.7-7.21,96.75-14.39,137.34-6.34,11.8,2.34,21.42,2.04,29.93,1.67,18.95-.82,31.74-5.16,55.88,4.61,30.19,12.22,59.47,34.34,93.13,55.69,45.59,28.92,95.41,54.06,146.26,52.59,68.19-1.97,124.81-40.09,184.62-68.33,40.5-19.12,79.46-42.51,125.29-52.3,29.1-6.22,55.91-14.17,85.13-16.39,31.69-2.4,60.66,3.24,93.18,8.98,51.92,9.17,45.68,45.37,84.6,64.05,2.76,1.33,5.67,2.86,8.76,4.47,67.65,35.16,157.58,65.6,228.38,64.5,60.36-.94,116.13-40.29,168.28-48.78,67.49-11.03,100.9,36.14,177.29-18.22"/><path class="cls-3" d="m62.53,100.4c31.96,11.38,68.57.91,108.57-1.47,45.63-2.72,104.17,27.8,143.34,32.79,7.29.93,14.19,1.25,20.67-.02,39.9-7.78,98.18-18.46,138.19-11.63,12.09,2.06,21.56.94,29.73-.33,18.25-2.84,29.46-9.88,54.38.07,29.81,11.9,58.7,35.89,91.64,59.59,44.78,32.22,93.44,61.73,143.31,60.59,68.45-1.57,123.03-44.58,183.54-75.08,40.13-20.23,79.69-43.38,127.13-51.7,29.97-5.26,57.03-13.26,86.3-16.21,31.75-3.19,60.95,1.05,94.24,5.32,55.91,7.18,41.79,46.44,81.81,65.36,2.77,1.31,5.72,2.87,8.88,4.53,66.71,35.07,160.43,72.44,229.26,71.06,61.97-1.24,117.59-47.15,169.45-55.48,66.93-10.8,93.97,49.19,176.84-13.52"/><path class="cls-13" d="m64.25,101.31c32.82,11.31,69.26-1.97,109.4-5.31,44.45-3.7,103.5,32.4,142.75,39.29,7.43,1.3,14.39,1.81,20.86.43,39.09-8.33,99.63-22.58,139.05-16.93,12.38,1.78,21.69-.17,29.53-2.34,17.55-4.86,27.18-14.6,52.88-4.48,29.43,11.59,57.93,37.45,90.14,63.48,43.98,35.53,91.47,69.41,140.37,68.59,68.71-1.15,121.27-49.04,182.46-81.82,39.77-21.3,79.92-44.25,128.96-51.11,30.83-4.31,58.14-12.36,87.47-16.02,31.81-3.97,61.26-1.22,95.3,1.66,59.92,5.07,37.9,47.51,79.02,66.67,2.78,1.29,5.76,2.88,8.99,4.6,65.77,34.97,163.28,79.26,230.14,77.62,63.58-1.56,119.05-54,170.62-62.19,66.36-10.58,87.04,62.24,176.38-8.81"/><path class="cls-16" d="m65.97,102.21c33.67,11.24,69.94-4.82,110.23-9.14,43.27-4.65,102.83,37.03,142.16,45.79,7.57,1.69,14.58,2.38,21.04.88,38.29-8.87,101.09-26.74,139.9-22.22,12.68,1.48,21.83-1.29,29.32-4.35,16.86-6.89,24.9-19.31,51.39-9.03,29.05,11.28,57.15,39.02,88.65,67.38,43.16,38.86,89.5,77.09,137.43,76.58,68.98-.73,119.51-53.47,181.39-88.57,39.42-22.36,80.14-45.13,130.8-50.51,31.7-3.36,59.26-11.45,88.64-15.84,31.86-4.76,61.7,1.44,96.36-1.99,63.7-6.3,34.01,48.59,76.23,67.98,2.79,1.28,5.81,2.9,9.1,4.66,64.84,34.85,166.13,86.06,231.02,84.18,65.19-1.88,120.5-60.85,171.79-68.89,65.79-10.35,80.11,75.3,175.93-4.11"/><path class="cls-28" d="m67.68,103.12c34.53,11.17,70.62-7.64,111.05-12.98,42.09-5.55,102.15,41.69,141.58,52.29,7.71,2.07,14.78,2.95,21.23,1.33,37.49-9.39,102.57-30.94,140.75-27.51,12.98,1.17,21.97-2.4,29.12-6.36,16.16-8.93,22.62-24.02,49.89-13.57,28.66,10.98,56.37,40.6,87.15,71.27,42.34,42.19,87.53,83.96,134.48,84.58,69.24.92,117.77-57.87,180.31-95.32,39.08-23.4,80.37-46.02,132.63-49.91,32.56-2.42,60.38-10.55,89.82-15.66,31.92-5.54,62.17-1.06,97.42-5.65,67.39-8.77,30.11,49.67,73.45,69.29,2.79,1.26,5.86,2.91,9.21,4.73,63.92,34.72,168.98,92.83,231.9,90.74,66.8-2.22,121.96-67.71,172.96-75.59,65.23-10.13,73.18,88.35,175.47.59"/><path class="cls-23" d="m69.4,104.02c35.39,11.1,71.29-10.44,111.88-16.81s101.47,46.38,140.99,58.79c7.84,2.46,14.98,3.52,21.42,1.78,36.7-9.9,104.05-35.19,141.61-32.8,13.29.84,22.1-3.52,28.92-8.36,15.46-10.97,20.34-28.72,48.39-18.12,28.27,10.69,55.58,42.17,85.66,75.16,41.51,45.53,85.56,91.64,131.54,92.58,69.5,1.41,116.04-62.24,179.23-102.06,38.75-24.42,80.6-46.92,134.47-49.31,33.42-1.48,61.49-9.64,90.99-15.47,31.98-6.32,62.59-3.68,98.47-9.31,71.11-11.15,26.22,50.76,70.66,70.6,2.8,1.25,5.9,2.92,9.33,4.8,63,34.59,171.82,99.6,232.77,97.3,68.41-2.57,123.42-74.56,174.13-82.29,64.66-9.9,66.25,101.41,175.01,5.29"/><path class="cls-27" d="m71.11,104.93c36.25,11.03,71.98-13.21,112.7-20.65,39.73-7.26,100.78,51.08,140.4,65.29,7.98,2.86,15.17,4.09,21.6,2.23,35.9-10.4,105.6-35.43,142.46-38.09,13.57-.98,22.23-4.65,28.72-10.37,14.75-13.03,18.05-33.42,46.9-22.66,27.88,10.4,54.78,43.76,84.17,79.06,40.67,48.87,83.6,99.36,128.59,100.58,69.75,1.9,114.34-66.59,178.15-108.81,38.42-25.42,80.82-47.82,136.3-48.71,34.29-.55,62.61-8.73,92.16-15.29,32.04-7.11,62.97-6.41,99.53-12.97,74.86-13.44,22.32,51.86,67.87,71.91,2.81,1.24,5.95,2.93,9.44,4.86,62.08,34.44,174.67,106.34,233.65,103.86,70.02-2.94,124.88-81.42,175.3-88.99,64.1-9.67,59.32,114.46,174.56,9.99"/><path class="cls-37" d="m72.83,105.83c37.1,10.96,72.66-15.94,113.53-24.48,38.55-8.06,100.07,55.81,139.81,71.79,8.11,3.26,15.37,4.67,21.79,2.68,35.11-10.88,107.17-39.91,143.32-43.38,13.83-1.33,22.36-5.77,28.51-12.38,14.03-15.08,15.76-38.11,45.4-27.21,27.49,10.11,53.98,45.34,82.67,82.95,39.83,52.22,81.61,107.91,125.65,108.58,70.04,1.07,112.65-70.91,177.07-115.56,38.11-26.42,81.05-48.73,138.14-48.11,35.15.38,63.73-7.83,93.33-15.11,32.1-7.89,62.72-13.29,100.59-16.62,79.87-7.03,18.42,52.95,65.09,73.22,2.81,1.22,5.99,2.94,9.55,4.93,61.17,34.28,177.52,113.07,234.53,110.42,71.62-3.33,126.33-88.27,176.47-95.69,63.53-9.45,52.38,127.51,174.1,14.69"/><path class="cls-31" d="m74.54,106.73c37.96,10.89,73.36-18.63,114.36-28.32,37.39-8.83,99.35,60.55,139.23,78.29,8.24,3.67,15.57,5.25,21.98,3.13,34.33-11.35,108.73-44.5,144.17-48.67,14.1-1.66,22.49-6.89,28.31-14.39,13.31-17.13,13.47-42.8,43.91-31.76,27.1,9.83,53.18,46.93,81.18,86.85,38.97,55.56,79.64,115.63,122.71,116.58,70.31,1.54,110.98-75.21,175.99-122.3,37.81-27.39,81.28-49.64,139.97-47.51,36.02,1.3,64.85-6.92,94.51-14.92,32.16-8.67,62.98-15.8,101.65-20.28,83.79-9.7,14.51,54.06,62.3,74.53,2.82,1.21,6.04,2.94,9.67,5,60.27,34.12,180.37,119.79,235.41,116.99,73.23-3.73,127.79-95.13,177.64-102.39,62.97-9.22,45.45,140.57,173.65,19.39"/><path class="cls-24" d="m76.26,107.64c38.82,10.82,74.06-21.29,115.18-32.15,36.23-9.57,98.62,65.3,138.64,84.79,8.37,4.07,15.77,5.83,22.17,3.58,33.55-11.8,110.26-49.18,145.02-53.96,14.38-1.98,22.61-8.02,28.11-16.39,12.59-19.19,11.18-47.48,42.41-36.3,26.7,9.56,52.36,48.51,79.68,90.74,38.11,58.91,77.67,123.36,119.76,124.57,70.57,2.03,109.34-79.49,174.91-129.05,37.53-28.36,81.51-50.56,141.81-46.91,36.88,2.23,65.96-6.01,95.68-14.74,32.22-9.46,63.21-18.33,102.71-23.94,87.68-12.45,10.61,55.17,59.51,75.84,2.83,1.19,6.09,2.95,9.78,5.06,59.37,33.95,183.21,126.5,236.28,123.55,74.84-4.16,129.25-101.98,178.81-109.09,62.4-9,38.52,153.62,173.19,24.09"/><path class="cls-5" d="m77.98,108.54c39.68,10.75,74.79-23.91,116.01-35.99,35.09-10.28,97.87,70.07,138.05,91.29,8.49,4.48,15.97,6.41,22.35,4.02,32.77-12.24,111.43-56.95,145.88-59.25,14.8-.99,22.73-9.14,27.91-18.4,11.86-21.24,8.88-52.16,40.91-40.85,26.31,9.29,51.55,50.1,78.19,94.64,37.25,62.26,75.69,131.1,116.82,132.57,70.84,2.54,107.72-83.75,173.83-135.8,37.25-29.32,81.75-51.48,143.64-46.32,37.75,3.15,67.08-5.11,96.85-14.56,32.28-10.24,63.44-20.88,103.76-27.6,91.53-15.25,6.7,56.28,56.72,77.14,2.83,1.18,6.13,2.96,9.89,5.13,58.47,33.77,186.06,133.19,237.16,130.11,76.44-4.61,130.7-108.83,179.98-115.79,61.84-8.77,31.59,166.68,172.73,28.79"/><path class="cls-22" d="m79.69,109.45c40.54,10.68,75.53-26.48,116.84-39.82,33.96-10.96,97.11,74.84,137.46,97.78,8.61,4.9,16.17,7,22.54,4.47,32.01-12.68,112.88-61.4,146.73-64.54,15.09-1.4,22.86-10.26,27.7-20.41,11.12-23.29,6.59-56.82,39.42-45.39,25.91,9.02,50.73,51.69,76.7,98.53,36.37,65.61,73.72,138.84,113.87,140.57,71.1,3.06,106.11-87.99,172.75-142.54,36.98-30.28,81.98-52.41,145.48-45.72,38.62,4.07,68.2-4.2,98.02-14.37,32.34-11.03,63.64-23.43,104.82-31.26,95.35-18.11,2.79,57.4,53.94,78.45,2.84,1.17,6.18,2.97,10.01,5.2,57.58,33.59,188.9,139.87,238.04,136.67,78.05-5.08,132.16-115.69,181.15-122.49,61.27-8.55,24.66,179.73,172.28,33.49"/><path class="cls-18" d="m81.41,110.35c41.39,10.61,76.29-29.02,117.66-43.66,32.85-11.62,96.33,79.62,136.87,104.28,8.73,5.31,16.37,7.59,22.73,4.92,31.25-13.1,114.33-65.87,147.58-69.84,15.38-1.83,22.98-11.38,27.5-22.42,10.39-25.34,4.29-61.48,37.92-49.94,25.51,8.76,49.9,53.27,75.2,102.43,35.49,68.96,71.75,146.6,110.93,148.57,71.36,3.59,104.53-92.21,171.67-149.29,36.73-31.22,82.22-53.34,147.31-45.12,39.49,4.99,69.31-3.3,99.2-14.19,32.4-11.81,63.83-26,105.88-34.91,99.14-21.02-1.12,58.53,51.15,79.76,2.85,1.16,6.23,2.97,10.12,5.26,56.69,33.39,191.74,146.54,238.92,143.23,79.65-5.59,133.62-122.54,182.32-129.2,60.7-8.32,17.73,192.78,171.82,38.2"/><path class="cls-40" d="m83.12,111.26c42.25,10.54,77.09-31.51,118.49-47.49,31.76-12.26,95.54,84.4,136.29,110.78,8.84,5.73,16.58,8.18,22.91,5.37,30.49-13.51,115.75-70.36,148.44-75.13,15.66-2.28,23.09-12.5,27.3-24.42,9.65-27.38,1.99-66.14,36.42-54.48,25.11,8.5,49.08,54.86,73.71,106.32,34.61,72.31,69.77,154.35,107.98,156.57,71.62,4.15,102.98-96.42,170.59-156.04,36.48-32.17,82.48-54.4,149.14-44.52,40.37,5.82,70.43-2.39,100.37-14.01,32.46-12.59,64.01-28.57,106.94-38.57,102.9-23.96-5.03,59.66,48.36,81.07,2.85,1.14,6.28,2.98,10.23,5.33,55.81,33.2,194.59,153.2,239.8,149.79,81.24-6.13,135.07-129.4,183.49-135.9,60.14-8.1,10.79,205.84,171.37,42.9"/><path class="cls-35" d="m84.84,112.16c43.11,10.47,77.91-33.95,119.32-51.33,30.69-12.88,94.74,89.19,135.7,117.28,8.95,6.14,16.79,8.77,23.1,5.82,29.75-13.91,117.16-74.87,149.29-80.42,15.94-2.75,23.2-13.63,27.09-26.43,8.88-29.43-.32-70.78,34.93-59.03,24.71,8.24,48.17,56.47,72.21,110.22,33.62,75.7,67.79,162.12,105.04,164.57,71.88,4.72,101.44-100.62,169.51-162.78,36.25-33.1,82.71-55.3,150.98-43.92,41.24,6.76,71.55-1.48,101.54-13.82,32.52-13.38,64.17-31.15,108-42.23,106.63-26.94-8.99,60.9,45.57,82.38,2.86,1.14,6.33,2.98,10.34,5.4,54.93,33,197.42,159.85,240.67,156.35,82.83-6.71,136.53-136.25,184.66-142.6,59.57-7.87,3.86,218.89,170.91,47.6"/><path class="cls-36" d="m86.56,113.07c43.97,10.4,78.78-36.36,120.14-55.16,29.65-13.48,93.93,93.98,135.11,123.78,9.06,6.56,17,9.37,23.29,6.27,29.02-14.3,118.55-79.4,150.15-85.71,16.2-3.24,23.32-14.74,26.89-28.44,8.16-31.47-2.65-75.35,33.43-63.58,24.3,8.03,47.37,58.04,70.72,114.11,32.78,79.02,65.82,169.89,102.1,172.56,72.14,5.31,99.93-104.8,168.43-169.53,36.02-34.04,82.95-56.19,152.81-43.32,42.11,7.7,72.66-.58,102.71-13.64,32.58-14.16,64.32-33.74,109.06-45.89,110.33-29.96-12.89,61.99,42.79,83.69,2.86,1.12,6.38,2.98,10.46,5.46,54.1,32.71,200.26,166.5,241.55,162.91,84.42-7.33,137.99-143.1,185.83-149.3,59.01-7.65-3.07,231.95,170.46,52.3"/><path class="cls-43" d="m88.27,113.97c44.82,10.33,79.68-38.71,120.97-59,34.97-17.18,123.42,154.94,158,137,28.29-14.68,119.92-83.94,151-91,54.24-12.32,5.7-115.68,58.62-98.57,57.63,18.64,108.01,293.63,168.38,298.57,110,9,113-261,322-219,89.58,18,126.24-37.59,214-63,114-33-16.79,63.09,40,85,39.73,15.33,210.6,178.94,253,175,86-8,139.44-149.96,187-156,58.44-7.42-10,245,170,57"/></g></svg>