<?xml version="1.0" encoding="UTF-8"?><svg id="Layer_2" xmlns="http://www.w3.org/2000/svg" width="799.75" height="204.16" xmlns:xlink="http://www.w3.org/1999/xlink" viewBox="0 0 799.75 204.16"><defs><style>.cls-1{stroke:url(#linear-gradient-2);}.cls-1,.cls-2,.cls-3,.cls-4,.cls-5,.cls-6,.cls-7,.cls-8,.cls-9,.cls-10,.cls-11,.cls-12,.cls-13,.cls-14,.cls-15,.cls-16,.cls-17,.cls-18,.cls-19,.cls-20,.cls-21,.cls-22,.cls-23,.cls-24,.cls-25,.cls-26,.cls-27,.cls-28,.cls-29,.cls-30,.cls-31,.cls-32,.cls-33,.cls-34,.cls-35,.cls-36,.cls-37,.cls-38,.cls-39,.cls-40,.cls-41,.cls-42,.cls-43{fill:none;stroke-miterlimit:10;}.cls-2{stroke:url(#linear-gradient-3);}.cls-3{stroke:url(#linear-gradient-28);}.cls-4{stroke:url(#linear-gradient-9);}.cls-5{stroke:url(#linear-gradient-37);}.cls-6{stroke:url(#linear-gradient-22);}.cls-7{stroke:url(#linear-gradient-19);}.cls-8{stroke:url(#linear-gradient-26);}.cls-9{stroke:url(#linear-gradient-4);}.cls-10{stroke:url(#linear-gradient-6);}.cls-11{stroke:url(#linear-gradient-18);}.cls-12{stroke:url(#linear-gradient-13);}.cls-13{stroke:url(#linear-gradient-29);}.cls-14{stroke:url(#linear-gradient-16);}.cls-15{stroke:url(#linear-gradient-17);}.cls-16{stroke:url(#linear-gradient-30);}.cls-17{stroke:url(#linear-gradient-7);}.cls-18{stroke:url(#linear-gradient-39);}.cls-19{stroke:url(#linear-gradient-21);}.cls-20{stroke:url(#linear-gradient-12);}.cls-21{stroke:url(#linear-gradient-5);}.cls-22{stroke:url(#linear-gradient-38);}.cls-23{stroke:url(#linear-gradient-32);}.cls-24{stroke:url(#linear-gradient-36);}.cls-25{stroke:url(#linear-gradient-20);}.cls-26{stroke:url(#linear-gradient-24);}.cls-27{stroke:url(#linear-gradient-33);}.cls-28{stroke:url(#linear-gradient-31);}.cls-29{stroke:url(#linear-gradient);}.cls-30{stroke:url(#linear-gradient-25);}.cls-31{stroke:url(#linear-gradient-35);}.cls-32{stroke:url(#linear-gradient-27);}.cls-33{stroke:url(#linear-gradient-23);}.cls-34{stroke:url(#linear-gradient-14);}.cls-35{stroke:url(#linear-gradient-41);}.cls-36{stroke:url(#linear-gradient-42);}.cls-37{stroke:url(#linear-gradient-34);}.cls-38{stroke:url(#linear-gradient-11);}.cls-39{stroke:url(#linear-gradient-8);}.cls-40{stroke:url(#linear-gradient-40);}.cls-41{stroke:url(#linear-gradient-10);}.cls-42{stroke:url(#linear-gradient-15);}.cls-43{stroke:url(#linear-gradient-43);}</style><linearGradient id="linear-gradient" x1="87.64" y1="96.11" x2="740.13" y2="96.11" gradientUnits="userSpaceOnUse"><stop offset="0" stop-color="#fffaf5"/><stop offset=".02" stop-color="#fef5eb"/><stop offset=".05" stop-color="#fee9d2"/><stop offset=".08" stop-color="#fdd5a8"/><stop offset=".13" stop-color="#fcba6f"/><stop offset=".15" stop-color="#fcab4f"/><stop offset=".32" stop-color="#fb931c"/><stop offset=".38" stop-color="#fb8500"/><stop offset=".49" stop-color="#fb8500"/><stop offset=".54" stop-color="#fb8500"/><stop offset=".63" stop-color="#fb8500"/><stop offset=".71" stop-color="#fcae55"/><stop offset=".79" stop-color="#fca23c"/><stop offset=".8" stop-color="#fcab4f"/><stop offset="1" stop-color="#fffaf5"/></linearGradient><linearGradient id="linear-gradient-2" x1="83.47" y1="97.89" x2="742.95" y2="97.89" xlink:href="#linear-gradient"/><linearGradient id="linear-gradient-3" x1="70.79" y1="99.65" x2="745.77" y2="99.65" xlink:href="#linear-gradient"/><linearGradient id="linear-gradient-4" x1="75.12" y1="101.39" x2="748.6" y2="101.39" xlink:href="#linear-gradient"/><linearGradient id="linear-gradient-5" x1="70.95" y1="103.03" x2="751.42" y2="103.03" xlink:href="#linear-gradient"/><linearGradient id="linear-gradient-6" x1="66.78" y1="104.81" x2="754.25" y2="104.81" xlink:href="#linear-gradient"/><linearGradient id="linear-gradient-7" x1="62.6" y1="106.61" x2="757.07" y2="106.61" xlink:href="#linear-gradient"/><linearGradient id="linear-gradient-8" x1="58.43" y1="108.37" x2="759.91" y2="108.37" xlink:href="#linear-gradient"/><linearGradient id="linear-gradient-9" x1="54.26" y1="110.15" x2="762.76" y2="110.15" xlink:href="#linear-gradient"/><linearGradient id="linear-gradient-10" x1="50.09" y1="111.96" x2="765.61" y2="111.96" xlink:href="#linear-gradient"/><linearGradient id="linear-gradient-11" x1="45.92" y1="113.83" x2="768.45" y2="113.83" xlink:href="#linear-gradient"/><linearGradient id="linear-gradient-12" x1="41.75" y1="115.78" x2="771.3" y2="115.78" xlink:href="#linear-gradient"/><linearGradient id="linear-gradient-13" x1="37.58" y1="117.89" x2="774.15" y2="117.89" xlink:href="#linear-gradient"/><linearGradient id="linear-gradient-14" x1="33.41" y1="120.89" x2="776.99" y2="120.89" xlink:href="#linear-gradient"/><linearGradient id="linear-gradient-15" x1="29.25" y1="124.29" x2="779.84" y2="124.29" xlink:href="#linear-gradient"/><linearGradient id="linear-gradient-16" x1="25.08" y1="127.62" x2="782.68" y2="127.62" xlink:href="#linear-gradient"/><linearGradient id="linear-gradient-17" x1="20.91" y1="130.89" x2="785.53" y2="130.89" xlink:href="#linear-gradient"/><linearGradient id="linear-gradient-18" x1="16.75" y1="134.06" x2="788.38" y2="134.06" xlink:href="#linear-gradient"/><linearGradient id="linear-gradient-19" x1="12.59" y1="137.12" x2="791.22" y2="137.12" xlink:href="#linear-gradient"/><linearGradient id="linear-gradient-20" x1="8.39" y1="140.06" x2="794.07" y2="140.06" xlink:href="#linear-gradient"/><linearGradient id="linear-gradient-21" x1="4.2" y1="142.84" x2="796.91" y2="142.84" xlink:href="#linear-gradient"/><linearGradient id="linear-gradient-22" x1="0" y1="145.48" x2="799.75" y2="145.48" xlink:href="#linear-gradient"/><linearGradient id="linear-gradient-23" x1="5.88" y1="144.8" x2="796.91" y2="144.8" xlink:href="#linear-gradient"/><linearGradient id="linear-gradient-24" x1="11.76" y1="144.13" x2="794.06" y2="144.13" xlink:href="#linear-gradient"/><linearGradient id="linear-gradient-25" x1="17.64" y1="143.45" x2="791.21" y2="143.45" xlink:href="#linear-gradient"/><linearGradient id="linear-gradient-26" x1="23.52" y1="142.78" x2="788.36" y2="142.78" xlink:href="#linear-gradient"/><linearGradient id="linear-gradient-27" x1="29.4" y1="142.1" x2="785.51" y2="142.1" xlink:href="#linear-gradient"/><linearGradient id="linear-gradient-28" x1="35.28" y1="141.43" x2="782.66" y2="141.43" xlink:href="#linear-gradient"/><linearGradient id="linear-gradient-29" x1="41.16" y1="140.76" x2="779.81" y2="140.76" xlink:href="#linear-gradient"/><linearGradient id="linear-gradient-30" x1="47.04" y1="140.1" x2="776.96" y2="140.1" xlink:href="#linear-gradient"/><linearGradient id="linear-gradient-31" x1="52.92" y1="139.43" x2="774.11" y2="139.43" xlink:href="#linear-gradient"/><linearGradient id="linear-gradient-32" x1="48.85" y1="138.78" x2="771.26" y2="138.78" xlink:href="#linear-gradient"/><linearGradient id="linear-gradient-33" x1="64.68" y1="138.13" x2="768.41" y2="138.13" xlink:href="#linear-gradient"/><linearGradient id="linear-gradient-34" x1="70.56" y1="137.48" x2="765.56" y2="137.48" xlink:href="#linear-gradient"/><linearGradient id="linear-gradient-35" x1="76.44" y1="136.84" x2="762.71" y2="136.84" xlink:href="#linear-gradient"/><linearGradient id="linear-gradient-36" x1="82.33" y1="135.84" x2="759.86" y2="135.84" xlink:href="#linear-gradient"/><linearGradient id="linear-gradient-37" x1="88.21" y1="135.44" x2="757.01" y2="135.44" xlink:href="#linear-gradient"/><linearGradient id="linear-gradient-38" x1="94.09" y1="136.35" x2="754.16" y2="136.35" xlink:href="#linear-gradient"/><linearGradient id="linear-gradient-39" x1="99.97" y1="137.31" x2="751.3" y2="137.31" xlink:href="#linear-gradient"/><linearGradient id="linear-gradient-40" x1="105.86" y1="138.3" x2="748.45" y2="138.3" xlink:href="#linear-gradient"/><linearGradient id="linear-gradient-41" x1="111.74" y1="139.3" x2="745.59" y2="139.3" xlink:href="#linear-gradient"/><linearGradient id="linear-gradient-42" x1="117.62" y1="139.7" x2="742.73" y2="139.7" xlink:href="#linear-gradient"/><linearGradient id="linear-gradient-43" x1="123.5" y1="139.56" x2="776.56" y2="139.56" xlink:href="#linear-gradient"/></defs><g id="Layer_4"><path class="cls-29" d="m87.79,162.55c18.76,5.81,40.31,2.99,58.72-3.48,18.41-6.47,34.5-16.3,51.25-25.12C232.72,115.53,343.29-9.03,383.36,1.08c41.53,10.48-25.45,182.46,17.09,190.04,38.94,6.94,62.63-48.52,125.73-44.15,276.81,19.16,134.14-102.99,166.02-100.78,33.72,2.34-74.46,100.78,47.86,82.14"/><path class="cls-1" d="m83.61,159.52c18.28,5.49,40.72,3.42,60.17-2.26s36.35-14.74,53.14-23.19c1.02-.51,2.09-1.1,3.17-1.78,6.26-3.94,13.1-10.42,21.69-17.18,10.5-8.26,21.78-16.43,35.06-26.81,13.66-10.67,24.8-21.79,39.91-32.45,5.03-3.56,12.24-8.89,17.19-12.31,15.39-10.62,30.34-20.68,42.58-27.92,12.48-7.32,21.86-11.48,29.95-9.92,17.92,3.46,16.73,37.78,12.62,75.74-5.29,48.36-15.97,103.15,6.7,108.12,23.18,5.08,40.89-13.98,66.3-27.42,14.98-7.92,32.69-14.04,55.57-12.47,48.25,3.31,83.82,1.76,109.08-2.58,114.61-19.71,25.11-98.85,50.59-97.74,32.59,1.42-67.95,95.45,55.52,79.69"/><path class="cls-2" d="m70.93,150.87c17.79,5.17,49.62,9.48,70.13,4.59s38.22-13.17,55.04-21.25c1.07-.52,2.18-1.1,3.28-1.8,6.73-4.3,13.06-11.51,21.77-17.86,10.84-7.91,21.62-13.61,35.68-23.07s28.66-23.38,45.23-33.11c5.5-3.25,9.6-6.23,15.04-9.44,16.25-9.58,32.25-19.54,44.39-27.16,12.25-7.69,20.02-12.52,28.15-11.44,17.51,2.32,17.92,35.14,14.86,71.71-4,46.56-14.84,100.26,6.7,105.97,21.83,5.79,38.81-11.97,63.57-24.27,14.62-7.26,32.07-12.89,54.45-11.37,47.03,3.2,82.08,1.2,106.55-3.41,109.44-20.61,21.99-96.85,46.78-96.45,31.45.5-61.44,90.12,63.18,77.24"/><path class="cls-9" d="m75.26,153.47c17.31,4.85,41.51,4.28,63.08.17,21.13-4.02,40.11-11.58,56.93-19.32,1.13-.52,2.28-1.1,3.38-1.81,7.2-4.66,13.03-12.59,21.84-18.54,11.2-7.56,21.45-10.79,36.31-19.33,15.03-8.63,29.67-22.99,47.66-31.82,5.98-2.93,9.81-5.52,15.76-8.52,17.03-8.57,34.17-18.39,46.19-26.41,12.05-8.05,18.14-13.55,26.35-12.96,17.04,1.23,19.11,32.49,17.1,67.69-2.72,44.77-13.76,97.35,6.7,103.82,20.46,6.47,36.73-9.96,60.84-21.11,14.26-6.59,31.45-11.73,53.32-10.27,45.81,3.08,80.33.64,104.02-4.24,104.24-21.46,18.85-95.63,42.97-95.16,30.29.59-54.92,84.8,70.84,74.8"/><path class="cls-21" d="m71.08,150.44c16.83,4.53,41.9,4.7,64.54,1.39,22.02-3.22,42.01-9.97,58.83-17.38,1.19-.52,2.38-1.1,3.49-1.83,7.67-5.03,13.01-13.66,21.92-19.21,11.57-7.21,21.25-7.97,36.94-15.59s30.65-22.62,50.1-30.54c6.45-2.62,10-4.82,16.48-7.6,17.73-7.59,36.09-17.23,47.99-25.66s16.45-16.02,24.55-14.48c16.03,3.05,20.3,29.85,19.33,63.66-1.43,42.97-12.7,94.41,6.69,101.66,19.06,7.12,34.65-7.95,58.11-17.95,13.9-5.93,30.83-10.58,52.2-9.17,44.59,2.97,78.58.08,101.49-5.07,99.03-22.26,15.7-92.83,39.16-93.88,29.13-1.3-48.41,79.47,78.5,72.35"/><path class="cls-10" d="m66.9,147.42c16.35,4.2,42.28,5.11,65.99,2.61,22.91-2.42,43.92-8.35,60.72-15.45,1.24-.52,2.47-1.1,3.59-1.84,8.13-5.4,13-14.74,21.99-19.89,11.96-6.86,21.03-5.16,37.57-11.85,16.32-6.61,31.63-22.26,52.54-29.25,6.92-2.31,10.17-4.13,17.21-6.67,18.38-6.65,38.01-16.07,49.8-24.91,11.65-8.74,14.42-17.35,22.74-16,15.6,2.54,21.59,27.21,21.57,59.63-.02,41.18-11.69,91.45,6.69,99.51s32.59-5.95,55.38-14.79c13.55-5.26,30.21-9.43,51.08-8.06,43.36,2.86,76.81-.46,98.96-5.9,93.81-23.01,12.53-90.81,35.35-92.59,27.95-2.18-41.89,74.14,86.16,69.9"/><path class="cls-17" d="m62.72,144.39c15.86,3.88,42.66,5.52,67.45,3.82,23.8-1.62,45.85-6.72,62.61-13.51,1.3-.53,2.57-1.1,3.69-1.86,8.6-5.76,13-15.8,22.07-20.57,12.36-6.5,20.79-2.35,38.19-8.11,16.94-5.61,32.61-21.89,54.98-27.96,7.39-2,10.33-3.44,17.93-5.75,18.98-5.76,39.94-14.9,51.6-24.16,11.45-9.09,12.3-18.63,20.94-17.52,15.22,1.97,22.79,24.56,23.81,55.6,1.29,39.38-10.7,88.45,6.69,97.36,16.21,8.31,30.52-3.94,52.64-11.64,13.2-4.59,29.58-8.28,49.95-6.96,42.14,2.74,75.04-1,96.43-6.73,88.57-23.7,9.35-88.78,31.53-91.3,26.75-3.04-35.38,68.81,93.82,67.45"/><path class="cls-39" d="m58.55,141.36c15.38,3.56,43.04,5.92,68.9,5.04,24.69-.84,47.78-5.08,64.51-11.58,1.36-.53,2.66-1.1,3.8-1.87,9.06-6.14,13.02-16.86,22.14-21.24,12.77-6.13,20.55.44,38.82-4.37,17.54-4.62,33.59-21.53,57.42-26.67,7.86-1.69,10.47-2.78,18.65-4.83,19.55-4.9,41.86-13.74,53.41-23.41,11.25-9.43,10.27-17.51,19.14-19.04,14.62-2.52,24,21.91,26.05,51.58,2.6,37.58-9.72,85.4,6.68,95.2,14.79,8.84,28.47-1.93,49.91-8.48,12.86-3.93,28.96-7.13,48.83-5.86,40.92,2.63,73.26-1.53,93.9-7.56,83.32-24.32,6.16-86.74,27.72-90.01,25.54-3.88-28.87,63.48,101.48,65"/><path class="cls-4" d="m54.37,138.33c14.9,3.24,43.43,6.69,70.36,6.26s49.72-3.43,66.4-9.64c1.42-.53,2.76-1.1,3.9-1.89,9.52-6.51,13.05-17.91,22.22-21.92,13.19-5.76,20.29,3.22,39.45-.63,18.13-3.65,34.57-21.18,59.86-25.38,8.33-1.39,10.61-2.12,19.37-3.9,20.11-4.09,43.79-12.57,55.21-22.66,11.05-9.77,8.26-18.43,17.33-20.56,13.97-3.27,25.2,19.27,28.28,47.55,3.9,35.78-8.75,82.31,6.68,93.05,13.37,9.31,26.43.08,47.18-5.32,12.52-3.26,28.34-5.97,47.7-4.76,39.7,2.51,71.47-2.05,91.37-8.38,78.07-24.86,2.95-84.68,23.91-88.73,24.32-4.7-22.35,58.15,109.15,62.55"/><path class="cls-41" d="m50.19,135.31c14.42,2.92,43.8,6.71,71.81,7.48,26.47.73,51.67-1.77,68.3-7.71,1.47-.53,2.85-1.11,4.01-1.9,9.98-6.88,13.08-18.96,22.29-22.6,13.63-5.38,20.02,5.99,40.08,3.11,18.72-2.69,35.54-20.82,62.29-24.1,8.8-1.08,10.74-1.49,20.1-2.98,20.66-3.3,45.72-11.4,57.01-21.91,10.86-10.11,6.25-19.31,15.53-22.08,13.33-3.97,26.4,16.62,30.52,43.52,5.21,33.98-7.76,79.16,6.68,90.9,11.98,9.74,24.39,2.1,44.45-2.17,12.19-2.59,27.72-4.82,46.58-3.66,38.48,2.4,69.67-2.55,88.84-9.21,72.82-25.32-.26-82.6,20.1-87.44,23.1-5.49-15.84,52.82,116.81,60.1"/><path class="cls-38" d="m46.01,132.28c13.93,2.6,44.18,7.1,73.27,8.69,27.35,1.5,53.62-.1,70.19-5.77,1.53-.53,2.95-1.11,4.11-1.92,10.44-7.26,13.12-19.99,22.37-23.27,14.07-4.99,19.76,8.74,40.7,6.85,19.31-1.74,36.52-20.46,64.73-22.81,9.27-.77,10.87-.86,20.82-2.06,21.21-2.55,47.66-10.23,58.82-21.15s4.26-20.16,13.73-23.6c12.72-4.62,27.6,13.97,32.76,39.5,6.5,32.18-6.74,75.97,6.68,88.74,10.63,10.12,22.37,4.12,41.72.99,11.86-1.92,27.1-3.67,45.45-2.56,37.26,2.29,67.87-3.03,86.31-10.04,67.58-25.69-3.47-80.5,16.29-86.15,21.87-6.25-9.32,47.5,124.47,57.65"/><path class="cls-20" d="m41.83,129.25c13.45,2.28,44.57,7.48,74.72,9.91,28.24,2.27,55.58,1.58,72.08-3.84,1.59-.52,3.04-1.11,4.21-1.93,10.89-7.63,13.17-21.02,22.44-23.95,14.52-4.58,19.49,11.48,41.33,10.59,19.89-.81,37.5-20.11,67.17-21.52,9.74-.46,11.01-.26,21.54-1.14,21.76-1.82,49.59-9.06,60.62-20.4,10.48-10.78,2.3-20.98,11.93-25.12,12.14-5.22,28.8,11.32,35,35.47,7.8,30.38-5.67,72.74,6.67,86.59,9.31,10.46,20.35,6.15,38.99,4.15,11.54-1.24,26.48-2.52,44.33-1.46,36.03,2.17,66.06-3.5,83.78-10.87,62.36-25.96-6.69-78.38,12.48-84.86,20.65-6.99-2.81,42.17,132.13,55.2"/><path class="cls-12" d="m37.66,126.23c12.97,1.96,44.95,7.86,76.18,11.13,29.14,3.04,57.54,3.27,73.98-1.9,1.65-.52,3.13-1.11,4.32-1.95,11.35-8.01,13.22-22.04,22.52-24.63,14.98-4.17,19.26,15.16,41.96,14.33,20.47-.75,38.48-19.76,69.61-20.23,10.21-.16,11.33,1.48,22.26-.21,21.95-3.4,51.53-7.88,62.42-19.65,10.29-11.12.38-21.76,10.12-26.64,11.59-5.8,29.99,8.67,37.23,31.44,9.09,28.57-4.52,69.46,6.67,84.44,8.06,10.78,18.34,8.19,36.25,7.31,11.22-.56,25.85-1.37,43.2-.35,34.81,2.06,64.26-3.94,81.25-11.7,57.18-26.12-9.89-76.23,8.67-83.57,19.44-7.69,3.7,36.84,139.79,52.75"/><path class="cls-34" d="m33.48,123.2c12.49,1.64,45.33,8.24,77.63,12.34,30.03,3.81,59.51,4.96,75.87.03,1.71-.52,3.23-1.11,4.42-1.96,11.8-8.39,13.27-23.05,22.59-25.3,15.45-3.73,18.98,16.92,42.59,18.07,21.09,1.03,39.46-19.45,72.05-18.94,10.68.13,11.4,2,22.99.71,22.68-2.53,53.47-6.71,64.23-18.9,10.11-11.45-1.51-22.52,8.32-28.15,11.09-6.36,31.18,6.01,39.47,27.42,10.38,26.77-3.3,66.17,6.67,82.28,6.85,11.08,16.4,9.33,33.52,10.46,10.87.72,25.23-.21,42.08.75,33.59,1.95,62.47-4.36,78.72-12.53,52.04-26.17-13.08-74.06,4.86-82.29,18.25-8.37,10.22,31.51,147.45,50.31"/><path class="cls-42" d="m29.3,120.17c12.01,1.31,45.72,8.62,79.09,13.56,30.92,4.58,61.47,6.67,77.77,1.97,1.77-.51,3.32-1.12,4.53-1.98,12.25-8.77,13.32-24.05,22.67-25.98,15.91-3.28,18.73,19.62,43.21,21.81,21.69,1.94,40.44-19.1,74.48-17.66,11.15.44,11.48,2.49,23.71,1.63,23.4-1.64,55.41-5.54,66.03-18.15,9.92-11.79-3.35-23.26,6.52-29.67,10.63-6.92,32.36,3.36,41.71,23.39,11.66,24.97-1.98,62.87,6.66,80.13,5.7,11.39,14.34,12.32,30.79,13.62,10.6.84,24.61.94,40.95,1.85,32.37,1.83,60.69-4.74,76.19-13.36,46.97-26.11-16.24-71.86,1.04-81,17.08-9.03,16.73,26.18,155.11,47.86"/><path class="cls-14" d="m25.12,117.15c11.52.99,46.11,9,80.54,14.78,31.82,5.34,63.44,8.37,79.66,3.9,1.84-.51,3.42-1.12,4.63-1.99,12.7-9.15,13.37-25.05,22.74-26.66,16.38-2.81,18.5,22.32,43.84,25.55,22.31,2.84,41.42-18.74,76.92-16.37,11.62.75,11.59,2.06,24.43,2.55,24.09.93,57.35-4.36,67.83-17.4,9.74-12.12-5.15-23.98,4.71-31.19s33.54.71,43.95,19.36c12.93,23.16-.57,59.57,6.66,77.98,4.59,11.7,12.33,14.41,28.06,16.78,10.29,1.55,23.99,2.09,39.83,2.95,31.15,1.72,58.94-5.1,73.66-14.19,41.99-25.94-19.38-69.64-2.77-79.71s23.25,20.85,162.77,45.41"/><path class="cls-15" d="m20.94,114.12c11.04.67,46.5,9.37,82,15.99,32.72,6.11,65.41,10.09,81.55,5.84,1.9-.5,3.51-1.12,4.73-2.01,13.15-9.53,13.42-26.03,22.82-27.33,16.84-2.33,18.27,25.02,44.47,29.29,22.93,3.74,42.4-18.38,79.36-15.08,12.09,1.06,11.75,2.62,25.15,3.48,24.71,1.58,59.3-3.19,69.64-16.65,9.56-12.45-6.9-24.69,2.91-32.71,9.83-8.03,34.71-1.94,46.19,15.34,14.2,21.36.92,56.28,6.66,75.82,3.53,12.03,10.32,16.51,25.33,19.94,9.96,2.27,23.37,3.24,38.7,4.05,29.92,1.61,57.23-5.41,71.12-15.01,37.12-25.66-22.47-67.39-6.58-78.42,14.82-10.28,29.76,15.53,170.43,42.96"/><path class="cls-11" d="m16.77,111.09c10.56.35,46.89,9.74,83.45,17.21,33.62,6.87,67.38,11.8,83.45,7.77,1.96-.49,3.6-1.12,4.84-2.02,13.6-9.91,13.47-27.01,22.89-28.01,17.3-1.83,18.05,27.71,45.1,33.03,23.56,4.64,43.38-18.03,81.8-13.79,12.56,1.37,11.92,3.17,25.88,4.4,25.34,2.24,61.25-2.01,71.44-15.89,9.39-12.79-8.62-25.41,1.11-34.23s35.88-4.58,48.42,11.31c15.45,19.57,2.48,53.03,6.65,73.67,2.5,12.38,8.29,18.63,22.6,23.09,9.63,3.01,22.75,4.39,37.58,5.15,28.7,1.49,55.58-5.68,68.59-15.84,32.39-25.3-25.53-65.14-10.39-77.14,13.75-10.9,36.27,10.2,178.1,40.51"/><path class="cls-7" d="m12.59,108.07c10.08.03,47.29,10.12,84.91,18.43,34.52,7.63,69.34,13.53,85.34,9.71,2.02-.48,3.7-1.13,4.94-2.04,14.05-10.3,13.51-27.98,22.97-28.68,17.76-1.32,17.84,30.39,45.72,36.77,24.2,5.53,44.36-17.67,84.24-12.5,13.03,1.67,12.09,3.71,26.6,5.32,25.99,2.88,63.2-.83,73.25-15.14,9.21-13.12-10.31-26.12-.69-35.75s37.04-7.22,50.66,7.28c16.71,17.78,4.1,49.8,6.65,71.52,1.5,12.77,6.24,20.75,19.86,26.25,9.29,3.75,22.12,5.54,36.46,6.26,27.48,1.38,54.02-5.91,66.06-16.67,27.84-24.87-28.54-62.87-14.2-75.85,12.71-11.51,42.79,4.87,185.76,38.06"/><path class="cls-25" d="m8.41,105.04c9.59-.29,47.7,10.44,86.36,19.65,35.44,8.35,71.31,15.26,87.24,11.64,2.08-.47,3.79-1.13,5.05-2.05,14.47-10.7,13.55-28.95,23.04-29.36,18.2-.79,17.63,33.08,46.35,40.51,24.84,6.43,45.35-17.31,86.68-11.21,13.5,1.98,12.27,4.25,27.32,6.24,26.64,3.52,65.15.34,75.05-14.39,9.04-13.45-11.96-26.83-2.5-37.27,8.87-9.78,38.19-9.85,52.9,3.25,17.95,16,5.77,46.61,6.65,69.37.51,13.18,4.17,22.88,17.13,29.41,8.93,4.49,21.5,6.7,35.33,7.36,26.26,1.27,52.57-6.1,63.53-17.5,23.48-24.42-31.5-60.6-18.01-74.56,11.71-12.12,49.3-.46,193.42,35.61"/><path class="cls-19" d="m4.23,102.01c9.11-.61,48.09,10.83,87.82,20.86,36.33,9.13,73.28,16.99,89.13,13.58,2.14-.46,3.88-1.13,5.15-2.07,14.92-11.08,13.58-29.91,23.12-30.04,18.64-.25,17.43,35.77,46.98,44.25,25.49,7.32,46.33-16.96,89.11-9.93,13.97,2.29,12.45,4.79,28.04,7.17,27.31,4.16,67.12,1.53,76.85-13.64,8.88-13.78-13.59-27.55-4.3-38.79,8.59-10.4,39.35-12.48,55.14-.77,19.2,14.23,7.46,43.46,6.64,67.21-.47,13.62,2.07,25.01,14.4,32.56,8.55,5.24,20.88,7.85,34.21,8.46,25.04,1.15,51.27-6.26,61-18.33,19.35-23.99-34.42-58.34-21.82-73.27,10.74-12.74,55.82-5.79,201.08,33.16"/><path class="cls-6" d="m.05,98.98c17.6-1.9,165.17,50.69,185.55,35.51,15.38-11.45,13.6-30.87,23.19-30.71,19.06.31,17.24,38.45,47.61,47.99,26.14,8.21,47.31-16.6,91.55-8.64,14.44,2.6,12.64,5.32,28.77,8.09,27.99,4.8,69.06,2.7,78.66-12.89,8.69-14.12-15.2-28.28-6.1-40.31,8.34-11.03,40.5-15.09,57.37-4.8,32.09,19.57-13.97,77.13,18.31,100.78,23.32,17.09,78.74,10.01,91.55-9.6,15.47-23.66-37.29-56.08-25.63-71.99,9.81-13.39,62.33-11.12,208.74,30.71"/><path class="cls-33" d="m5.94,100.33c18.01-2.22,163.41,50.61,183.85,36.41,15.26-10.61,13.42-30.04,22.53-30.55,18.07-1.01,16.06,34.66,45.48,43.1,2.59.74,5.17,1.15,7.75,1.36,22.42,1.9,43.16-15.18,81.58-7.36,14.02,2.85,12.54,5.8,28.15,8.5,2.04.36,4.15.64,6.31.87,26.91,2.85,61.89-.6,71.17-14.98,8.92-13.93-13.11-27.75-3.88-39.14,8.42-10.4,39.32-14.17,55.71-4.2,31.25,19.01-12.07,74.38,19.3,97.3,22.7,16.59,75.65,9.92,88.92-8.61,7.68-10.72,1.34-23.52-6.68-35.8-9-13.79-19.71-26.76-13.14-35.27,10.17-13.18,63.4-9.44,203.79,30.51"/><path class="cls-26" d="m11.83,101.67c18.42-2.53,161.63,50.55,182.15,37.3,15.13-9.76,13.2-29.21,21.86-30.39,17.01-2.32,14.9,30.86,43.36,38.2,2.53.65,5.09.97,7.67,1.18,22.01,1.82,42.37-13.01,79.43-4.53,13.6,3.11,12.45,6.23,27.53,8.9,2.03.36,4.13.62,6.27.8,26.32,2.24,60.43-1.79,70.04-16.14,9.2-13.73-11.01-27.21-1.66-37.97,8.49-9.77,38.14-13.25,54.04-3.6,30.42,18.45-10.16,71.62,20.3,93.82,22.09,16.09,72.6,9.82,86.29-7.61,8.1-10.31,3.25-22.83-3.68-35.01-7.75-13.64-17.3-26.55-10.32-35.16,10.51-12.98,64.47-7.77,198.83,30.3"/><path class="cls-30" d="m17.71,103.02c18.83-2.85,159.82,50.49,180.45,38.2,14.98-8.92,12.93-28.36,21.19-30.23,15.87-3.59,13.77,27.06,41.23,33.31,2.47.56,5.01.79,7.59.99,21.59,1.75,41.57-10.84,77.28-1.71,13.17,3.37,12.36,6.69,26.91,9.31,2.02.36,4.1.6,6.22.73,25.72,1.63,58.93-2.99,68.91-17.29,9.45-13.54-8.93-26.67.56-36.8,8.56-9.14,36.96-12.34,52.37-3,29.58,17.89-8.26,68.87,21.29,90.35,21.47,15.59,69.6,9.72,83.66-6.62,8.53-9.92,5.15-22.12-.68-34.21-6.5-13.5-14.89-26.34-7.51-35.05,10.85-12.79,65.54-6.09,193.88,30.09"/><path class="cls-8" d="m23.6,104.36c19.23-3.16,157.98,50.43,178.74,39.09,14.8-8.08,12.62-27.49,20.52-30.07,14.69-4.8,12.67,23.25,39.11,28.42,2.41.47,4.93.61,7.51.81,21.18,1.63,40.78-8.66,75.13,1.12,12.75,3.63,12.26,7.14,26.29,9.72,2.01.37,4.07.58,6.18.66,25.11,1.04,57.43-4.19,67.78-18.44,9.7-13.35-6.85-26.12,2.78-35.63,8.62-8.5,35.78-11.42,50.71-2.4,28.74,17.33-6.36,66.11,22.28,86.87,20.85,15.1,66.64,9.62,81.03-5.63,8.99-9.53,7.05-21.41,2.32-33.42-5.26-13.34-12.49-26.14-4.69-34.94,11.17-12.6,66.61-4.42,188.92,29.88"/><path class="cls-32" d="m29.48,105.71c19.64-3.48,156.1,50.38,177.04,39.99,14.61-7.25,12.28-26.58,19.86-29.91,13.47-5.93,11.59,19.43,36.98,23.52,2.36.38,4.85.43,7.43.62,20.76,1.55,39.99-6.47,72.99,3.94,12.34,3.89,12.16,7.6,25.67,10.13,2,.37,4.05.47,6.13.59,24.44,1.39,55.93-5.39,66.65-19.59,9.94-13.16-4.78-25.58,5-34.46,8.67-7.87,34.6-10.5,49.04-1.8,27.9,16.77-4.46,63.36,23.27,83.39,20.23,14.6,63.74,9.52,78.4-4.64,9.48-9.16,8.95-20.7,5.32-32.62-4.01-13.18-10.1-25.94-1.87-34.83,11.48-12.41,67.68-2.75,183.97,29.67"/><path class="cls-3" d="m35.37,107.05c20.05-3.79,154.19,50.33,175.34,40.88,14.38-6.42,11.93-25.62,19.19-29.75,12.25-6.97,10.55,15.58,34.86,18.63,2.32.29,4.77.25,7.35.43,20.34,1.47,39.2-4.28,70.84,6.77,11.92,4.16,12.07,8.06,25.05,10.53,1.99.38,4.02.44,6.09.52,23.85.94,54.42-6.6,65.52-20.75,10.18-12.97-2.72-25.03,7.22-33.29,8.71-7.23,33.42-9.58,47.38-1.2,27.07,16.21-2.55,60.6,24.26,79.91,19.61,14.1,60.89,9.44,75.77-3.65,9.99-8.78,10.85-19.98,8.32-31.82-2.77-13.02-7.71-25.74.95-34.72,11.78-12.22,68.76-1.07,179.02,29.47"/><path class="cls-13" d="m41.26,108.39c20.45-4.11,152.25,50.27,173.64,41.78,14.13-5.61,11.6-24.63,18.52-29.59,11.06-7.92,9.54,11.71,32.73,13.73,2.27.2,4.69.07,7.27.25,19.92,1.39,38.42-2.07,68.69,9.59,11.5,4.43,11.97,8.53,24.44,10.94,1.98.38,3.99.51,6.05.45,23.25-.69,52.91-7.8,64.39-21.9,10.41-12.78-.67-24.48,9.44-32.11,8.74-6.6,32.24-8.66,45.71-.61,26.23,15.65-.65,57.84,25.26,76.43,18.99,13.61,58.09,9.36,73.14-2.66,10.53-8.41,12.73-19.26,11.32-31.03-1.54-12.84-5.33-25.54,3.76-34.61,12.07-12.04,69.83.6,174.06,29.26"/><path class="cls-16" d="m47.14,109.74c20.86-4.42,150.26,50.21,171.94,42.68,13.85-4.81,11.29-23.6,17.85-29.43,9.93-8.82,8.8,11.56,30.61,8.84,2.21-.28,4.61-.11,7.19.06,19.5,1.31,37.63.14,66.54,12.42,11.08,4.71,11.87,8.99,23.82,11.35,1.97.39,3.96.49,6,.38,22.63-1.24,51.4-9.01,63.26-23.05,10.64-12.59,1.36-23.92,11.66-30.94,8.75-5.96,31.06-7.74,44.04,0,25.39,15.09,1.25,55.09,26.25,72.96,18.37,13.11,55.35,9.31,70.51-1.67,11.1-8.04,14.62-18.53,14.32-30.23-.32-12.67-2.95-25.34,6.58-34.5,12.35-11.87,70.9,2.27,169.11,29.05"/><path class="cls-28" d="m53.03,111.08c21.27-4.74,148.24,50.12,170.24,43.57,13.54-4.03,11.03-22.54,17.18-29.27,8.86-9.69,8.2,7.81,28.48,3.95,2.14-.41,4.53-.29,7.11-.12,19.09,1.23,36.84,2.37,64.39,15.25,10.66,4.98,11.77,9.46,23.2,11.76,1.95.39,3.93.48,5.96.31,21.99-1.78,49.88-10.21,62.13-24.2,10.87-12.41,3.38-23.38,13.88-29.77,8.76-5.33,29.88-6.83,42.38.59,24.55,14.53,3.16,52.33,27.24,69.48,17.75,12.61,52.66,9.28,67.88-.67,11.7-7.65,16.49-17.79,17.32-29.43.9-12.49-.58-25.15,9.4-34.39,12.63-11.7,71.97,3.95,164.16,28.84"/><path class="cls-23" d="m48.96,111.51c21.68-5.05,156.13,50.92,178.5,45.38,13.22-3.28,10.82-21.47,16.52-29.1,7.86-10.53,7.66,3.91,26.36-.95,2.06-.53,4.45-.47,7.03-.31,18.67,1.16,36.04,4.61,62.24,18.07,10.25,5.27,11.68,9.93,22.58,12.16,1.94.4,3.9.46,5.91.24,21.36-2.3,48.36-11.42,61-25.36,11.09-12.23,5.39-22.83,16.11-28.6,8.75-4.71,28.7-5.91,40.71,1.19,23.72,13.97,5.06,49.58,28.23,66,17.13,12.12,50.02,9.28,65.24.32,12.33-7.26,18.35-17.06,20.32-28.64,2.1-12.31,1.79-24.96,12.21-34.28,12.9-11.53,73.04,5.62,159.2,28.63"/><path class="cls-27" d="m64.8,113.77c22.08-5.37,144.09,49.86,166.84,45.36,12.87-2.55,10.66-20.39,15.85-28.94,6.91-11.38,7.14-.16,24.23-5.84,1.98-.66,4.37-.65,6.95-.5,18.25,1.08,35.25,6.86,60.09,20.9,9.82,5.55,11.58,10.4,21.96,12.57,1.93.4,3.87.44,5.87.17,20.73-2.81,46.84-12.63,59.87-26.51,11.32-12.04,7.37-22.29,18.33-27.43,8.73-4.09,27.52-4.99,39.05,1.79,22.88,13.41,6.96,46.82,29.23,62.52,16.51,11.62,47.42,9.31,62.61,1.31,12.99-6.84,20.2-16.33,23.32-27.84,3.29-12.13,4.15-24.77,15.03-34.17,13.17-11.37,74.11,7.3,154.25,28.43"/><path class="cls-37" d="m70.68,115.12c22.49-5.68,141.98,49.68,165.14,46.26,12.51-1.85,10.53-19.32,15.18-28.78,6.01-12.24,4.91-8.28,22.11-10.73,2.11-.3,4.29-.83,6.87-.68,17.83,1.01,34.44,9.12,57.95,23.72,9.4,5.84,11.48,10.87,21.34,12.98,1.92.41,3.84.43,5.83.1,20.1-3.3,45.31-13.84,58.74-27.66,11.54-11.86,9.35-21.77,20.55-26.26,8.69-3.49,26.34-4.07,37.38,2.39,22.04,12.84,8.86,44.07,30.22,59.05,15.89,11.12,44.85,9.37,59.98,2.3,13.68-6.39,22.04-15.6,26.32-27.05s6.51-24.59,17.85-34.06c13.43-11.21,75.18,8.97,149.29,28.22"/><path class="cls-31" d="m76.57,116.46c22.9-6,139.85,49.43,163.44,47.15,12.14-1.17,10.45-18.26,14.51-28.62,5.15-13.12,4.01-12.44,19.98-15.63,2.08-.42,4.21-1,6.79-.87,17.41.93,33.62,11.38,55.8,26.55,8.97,6.13,11.38,11.34,20.73,13.38,1.91.42,3.81.41,5.78.03,19.47-3.79,43.78-15.06,57.61-28.81,11.75-11.68,11.31-21.26,22.77-25.09,8.65-2.89,25.16-3.15,35.71,2.99,21.2,12.28,10.77,41.31,31.21,55.57,15.27,10.62,42.3,9.47,57.35,3.29s23.88-14.87,29.32-26.25c5.64-11.78,8.86-24.41,20.66-33.95,13.68-11.05,76.25,10.64,144.34,28.01"/><path class="cls-24" d="m82.46,117.8c23.3-6.32,138.59,53.21,161.74,48.05,11.34-2.53,10.38-17.21,13.85-28.46,4.31-14.01,3.11-16.66,17.86-20.52,2.05-.54,4.13-1.18,6.71-1.05,16.99.86,32.79,13.66,53.65,29.37,8.54,6.43,11.27,11.82,20.11,13.79,1.9.42,3.78.4,5.74-.04,18.85-4.26,42.25-16.28,56.49-29.97,11.97-11.51,13.27-20.76,24.99-23.92,8.6-2.31,23.98-2.23,34.05,3.59,20.37,11.72,12.67,38.55,32.2,52.09,14.65,10.13,39.77,9.61,54.72,4.28,15.12-5.39,25.7-14.15,32.32-25.45,6.81-11.61,11.21-24.24,23.48-33.84,13.94-10.9,77.32,12.32,139.39,27.8"/><path class="cls-5" d="m88.34,119.15c23.71-6.63,136.06,52.67,160.04,48.94,11.18-1.74,10.34-16.17,13.18-28.3,3.49-14.93,2.17-20.92,15.73-25.41,2.02-.67,4.06-1.36,6.63-1.24,16.57.79,31.95,15.95,51.5,32.2,8.1,6.73,11.17,12.3,19.49,14.2,1.88.43,3.75.39,5.69-.11,18.24-4.71,40.71-17.49,55.36-31.12,12.18-11.33,15.21-20.29,27.21-22.74,8.54-1.75,22.8-1.31,32.38,4.19,19.53,11.16,14.57,35.8,33.19,48.61,14.03,9.63,37.25,9.79,52.09,5.28,15.86-4.82,27.52-13.44,35.32-24.66,7.97-11.45,13.55-24.07,26.3-33.72,14.19-10.75,78.39,13.99,134.43,27.59"/><path class="cls-22" d="m94.23,120.49c24.12-6.95,133.57,51.9,158.34,49.84,11.02-.92,10.31-15.14,12.51-28.14,2.69-15.87,1.18-25.24,13.61-30.31,1.97-.81,3.98-1.54,6.55-1.42,16.16.72,31.09,18.24,49.35,35.03,7.65,7.04,11.07,12.78,18.87,14.61,1.87.44,3.72.38,5.65-.18,17.63-5.16,39.18-18.72,54.23-32.27,12.39-11.16,17.16-19.85,29.43-21.57,8.49-1.2,21.62-.4,30.72,4.79,18.69,10.6,16.48,33.04,34.19,45.13,13.41,9.13,34.72,10,49.46,6.27,16.61-4.2,29.34-12.73,38.33-23.86s15.9-23.9,29.12-33.61c14.43-10.61,79.46,15.66,129.48,27.39"/><path class="cls-18" d="m100.11,121.84c24.53-7.26,131.46,47.81,156.64,50.73,10.72,1.25,10.29-14.12,11.84-27.98,1.89-16.83.13-29.58,11.48-35.2,1.92-.95,3.9-1.72,6.47-1.61,15.74.65,30.22,20.53,47.2,37.85,7.2,7.34,10.97,13.27,18.25,15.01,1.86.45,3.7.38,5.6-.25,17.04-5.59,37.64-19.94,53.1-33.42,12.6-10.99,19.12-19.42,31.65-20.4,8.44-.66,20.44.52,29.05,5.38,17.85,10.04,18.38,30.29,35.18,41.66,12.8,8.64,32.17,10.24,46.83,7.26,17.35-3.53,31.15-12.03,41.33-23.07,10.28-11.15,18.24-23.73,31.93-33.5,14.68-10.47,80.53,17.34,124.52,27.18"/><path class="cls-40" d="m106,123.18c24.93-7.58,129.48,47.24,154.94,51.63,10.43,1.8,10.27-13.11,11.18-27.82,1.09-17.8-.99-33.93,9.36-40.1,1.85-1.1,3.82-1.89,6.39-1.8,15.32.59,29.33,22.83,45.06,40.68,6.74,7.65,10.86,13.75,17.63,15.42,1.85.46,3.67.37,5.56-.32,16.46-6.02,36.09-21.17,51.97-34.57,12.81-10.82,21.15-18.26,33.87-19.23,8.37-.64,19.26,1.44,27.38,5.98,17.02,9.48,20.28,27.53,36.17,38.18,12.18,8.14,29.6,10.51,44.2,8.25,18.08-2.8,32.97-11.33,44.33-22.27,11.43-11.01,20.57-23.58,34.75-33.39,14.92-10.33,81.61,19.01,119.57,26.97"/><path class="cls-35" d="m111.89,124.53c25.34-7.89,127.56,46.61,153.24,52.52,10.16,2.34,10.26-12.11,10.51-27.66.3-18.78-2.19-38.28,7.23-44.99,1.77-1.26,3.74-2.07,6.32-1.98,14.9.54,28.42,25.12,42.91,43.5,6.27,7.96,10.75,14.24,17.01,15.83,1.83.47,3.65.37,5.52-.39,15.9-6.44,34.55-22.39,50.84-35.73,13.01-10.65,23.08-18.64,36.09-18.06,8.39.38,18.07,2.36,25.72,6.58,16.18,8.92,22.18,24.78,37.16,34.7,11.56,7.64,27,10.81,41.57,9.24,18.78-2.02,34.78-10.64,47.33-21.47,12.59-10.87,22.91-23.42,37.57-33.28,15.16-10.2,82.68,20.68,114.62,26.76"/><path class="cls-36" d="m117.77,125.87c25.75-8.21,125.73,45.94,151.53,53.42,9.93,2.88,10.24-11.12,9.84-27.5-.49-19.78-3.47-42.61,5.11-49.88,1.67-1.42,3.66-2.25,6.24-2.17,14.48.47,27.49,27.42,40.76,46.33,5.79,8.26,10.65,14.73,16.4,16.23,1.82.48,3.63.36,5.47-.46,15.35-6.85,32.97-23.65,49.71-36.88,13.19-10.5,25.1-18.28,38.31-16.89,8.39.88,16.89,3.28,24.05,7.18,15.34,8.36,24.09,22.02,38.16,31.22,10.94,7.15,24.35,11.13,38.94,10.23,19.46-1.19,36.6-9.96,50.33-20.68,13.75-10.74,25.24-23.27,40.38-33.17,15.4-10.06,83.75,22.36,109.66,26.55"/><path class="cls-43" d="m123.66,127.21c26.15-8.52,123.98,45.24,149.83,54.31,23.87,8.38-7.81-85.19,18.31-84.46,22.39.63,40.8,74.59,59.81,65.27,26.43-12.96,58.63-58.78,89.11-53.75,41.01,6.76,55.94,47.42,97.84,46.75,20.1-.32,38.42-9.27,53.33-19.88,14.91-10.61,27.56-23.12,43.2-33.06s121.52,32.72,141.41,35.04"/></g></svg>