<?xml version="1.0" encoding="UTF-8"?><svg id="Layer_2" xmlns="http://www.w3.org/2000/svg" width="1957.38" height="301.7" xmlns:xlink="http://www.w3.org/1999/xlink" viewBox="0 0 1957.38 301.7"><defs><style>.cls-1{stroke:url(#linear-gradient-2);}.cls-1,.cls-2,.cls-3,.cls-4,.cls-5,.cls-6,.cls-7,.cls-8,.cls-9,.cls-10,.cls-11,.cls-12,.cls-13,.cls-14,.cls-15,.cls-16,.cls-17,.cls-18,.cls-19,.cls-20,.cls-21,.cls-22,.cls-23,.cls-24,.cls-25,.cls-26,.cls-27,.cls-28,.cls-29,.cls-30,.cls-31,.cls-32,.cls-33,.cls-34,.cls-35,.cls-36,.cls-37,.cls-38,.cls-39,.cls-40,.cls-41,.cls-42,.cls-43{fill:none;stroke-miterlimit:10;}.cls-2{stroke:url(#linear-gradient-3);}.cls-3{stroke:url(#linear-gradient-28);}.cls-4{stroke:url(#linear-gradient-9);}.cls-5{stroke:url(#linear-gradient-37);}.cls-6{stroke:url(#linear-gradient-22);}.cls-7{stroke:url(#linear-gradient-19);}.cls-8{stroke:url(#linear-gradient-26);}.cls-9{stroke:url(#linear-gradient-4);}.cls-10{stroke:url(#linear-gradient-6);}.cls-11{stroke:url(#linear-gradient-18);}.cls-12{stroke:url(#linear-gradient-13);}.cls-13{stroke:url(#linear-gradient-29);}.cls-14{stroke:url(#linear-gradient-16);}.cls-15{stroke:url(#linear-gradient-17);}.cls-16{stroke:url(#linear-gradient-30);}.cls-17{stroke:url(#linear-gradient-7);}.cls-18{stroke:url(#linear-gradient-39);}.cls-19{stroke:url(#linear-gradient-21);}.cls-20{stroke:url(#linear-gradient-12);}.cls-21{stroke:url(#linear-gradient-5);}.cls-22{stroke:url(#linear-gradient-38);}.cls-23{stroke:url(#linear-gradient-32);}.cls-24{stroke:url(#linear-gradient-36);}.cls-25{stroke:url(#linear-gradient-20);}.cls-26{stroke:url(#linear-gradient-24);}.cls-27{stroke:url(#linear-gradient-33);}.cls-28{stroke:url(#linear-gradient-31);}.cls-29{stroke:url(#linear-gradient);}.cls-30{stroke:url(#linear-gradient-25);}.cls-31{stroke:url(#linear-gradient-35);}.cls-32{stroke:url(#linear-gradient-27);}.cls-33{stroke:url(#linear-gradient-23);}.cls-34{stroke:url(#linear-gradient-14);}.cls-35{stroke:url(#linear-gradient-41);}.cls-36{stroke:url(#linear-gradient-42);}.cls-37{stroke:url(#linear-gradient-34);}.cls-38{stroke:url(#linear-gradient-11);}.cls-39{stroke:url(#linear-gradient-8);}.cls-40{stroke:url(#linear-gradient-40);}.cls-41{stroke:url(#linear-gradient-10);}.cls-42{stroke:url(#linear-gradient-15);}.cls-43{stroke:url(#linear-gradient-43);}</style><linearGradient id="linear-gradient" x1="0" y1="146.76" x2="1782.76" y2="146.76" gradientUnits="userSpaceOnUse"><stop offset="0" stop-color="#fb8500" stop-opacity=".1"/><stop offset=".51" stop-color="#fb8500"/><stop offset="1" stop-color="#fb8500" stop-opacity=".1"/></linearGradient><linearGradient id="linear-gradient-2" x1="2.48" y1="145.41" x2="1791.07" y2="145.41" xlink:href="#linear-gradient"/><linearGradient id="linear-gradient-3" x1="4.95" y1="144.06" x2="1799.39" y2="144.06" xlink:href="#linear-gradient"/><linearGradient id="linear-gradient-4" x1="7.43" y1="142.73" x2="1807.7" y2="142.73" xlink:href="#linear-gradient"/><linearGradient id="linear-gradient-5" x1="9.91" y1="141.4" x2="1816.01" y2="141.4" xlink:href="#linear-gradient"/><linearGradient id="linear-gradient-6" x1="12.38" y1="141.63" x2="1824.33" y2="141.63" xlink:href="#linear-gradient"/><linearGradient id="linear-gradient-7" x1="14.86" y1="142.4" x2="1832.64" y2="142.4" xlink:href="#linear-gradient"/><linearGradient id="linear-gradient-8" x1="17.34" y1="143.22" x2="1840.96" y2="143.22" xlink:href="#linear-gradient"/><linearGradient id="linear-gradient-9" x1="19.82" y1="144.1" x2="1849.27" y2="144.1" xlink:href="#linear-gradient"/><linearGradient id="linear-gradient-10" x1="22.29" y1="145.03" x2="1857.59" y2="145.03" xlink:href="#linear-gradient"/><linearGradient id="linear-gradient-11" x1="24.77" y1="146.02" x2="1865.9" y2="146.02" xlink:href="#linear-gradient"/><linearGradient id="linear-gradient-12" x1="27.25" y1="147.07" x2="1874.22" y2="147.07" xlink:href="#linear-gradient"/><linearGradient id="linear-gradient-13" x1="29.73" y1="148.19" x2="1882.53" y2="148.19" xlink:href="#linear-gradient"/><linearGradient id="linear-gradient-14" x1="32.2" y1="149.37" x2="1890.85" y2="149.37" xlink:href="#linear-gradient"/><linearGradient id="linear-gradient-15" x1="34.68" y1="150.63" x2="1899.16" y2="150.63" xlink:href="#linear-gradient"/><linearGradient id="linear-gradient-16" x1="37.16" y1="151.97" x2="1907.48" y2="151.97" xlink:href="#linear-gradient"/><linearGradient id="linear-gradient-17" x1="39.64" y1="153.38" x2="1915.79" y2="153.38" xlink:href="#linear-gradient"/><linearGradient id="linear-gradient-18" x1="42.12" y1="154.89" x2="1924.11" y2="154.89" xlink:href="#linear-gradient"/><linearGradient id="linear-gradient-19" x1="44.6" y1="156.5" x2="1932.43" y2="156.5" xlink:href="#linear-gradient"/><linearGradient id="linear-gradient-20" x1="47.08" y1="158.21" x2="1940.74" y2="158.21" xlink:href="#linear-gradient"/><linearGradient id="linear-gradient-21" x1="49.56" y1="160.04" x2="1949.06" y2="160.04" xlink:href="#linear-gradient"/><linearGradient id="linear-gradient-22" x1="52.04" y1="162.01" x2="1957.38" y2="162.01" xlink:href="#linear-gradient"/><linearGradient id="linear-gradient-23" x1="53.76" y1="163.64" x2="1956.19" y2="163.64" xlink:href="#linear-gradient"/><linearGradient id="linear-gradient-24" x1="55.48" y1="165.31" x2="1954.99" y2="165.31" xlink:href="#linear-gradient"/><linearGradient id="linear-gradient-25" x1="57.2" y1="166.97" x2="1953.78" y2="166.97" xlink:href="#linear-gradient"/><linearGradient id="linear-gradient-26" x1="58.92" y1="168.57" x2="1952.56" y2="168.57" xlink:href="#linear-gradient"/><linearGradient id="linear-gradient-27" x1="60.65" y1="169.58" x2="1951.34" y2="169.58" xlink:href="#linear-gradient"/><linearGradient id="linear-gradient-28" x1="62.37" y1="169.73" x2="1950.11" y2="169.73" xlink:href="#linear-gradient"/><linearGradient id="linear-gradient-29" x1="64.09" y1="170.24" x2="1948.88" y2="170.24" xlink:href="#linear-gradient"/><linearGradient id="linear-gradient-30" x1="65.81" y1="170.93" x2="1947.65" y2="170.93" xlink:href="#linear-gradient"/><linearGradient id="linear-gradient-31" x1="67.53" y1="169.88" x2="1946.42" y2="169.88" xlink:href="#linear-gradient"/><linearGradient id="linear-gradient-32" x1="69.25" y1="168.8" x2="1945.19" y2="168.8" xlink:href="#linear-gradient"/><linearGradient id="linear-gradient-33" x1="70.97" y1="167.71" x2="1943.96" y2="167.71" xlink:href="#linear-gradient"/><linearGradient id="linear-gradient-34" x1="72.69" y1="167.45" x2="1942.72" y2="167.45" xlink:href="#linear-gradient"/><linearGradient id="linear-gradient-35" x1="74.41" y1="166.3" x2="1941.49" y2="166.3" xlink:href="#linear-gradient"/><linearGradient id="linear-gradient-36" x1="76.13" y1="164.39" x2="1940.25" y2="164.39" xlink:href="#linear-gradient"/><linearGradient id="linear-gradient-37" x1="77.85" y1="162.46" x2="1939.02" y2="162.46" xlink:href="#linear-gradient"/><linearGradient id="linear-gradient-38" x1="79.56" y1="160.53" x2="1937.78" y2="160.53" xlink:href="#linear-gradient"/><linearGradient id="linear-gradient-39" x1="81.28" y1="158.6" x2="1936.55" y2="158.6" xlink:href="#linear-gradient"/><linearGradient id="linear-gradient-40" x1="83" y1="156.66" x2="1935.31" y2="156.66" xlink:href="#linear-gradient"/><linearGradient id="linear-gradient-41" x1="84.72" y1="154.73" x2="1934.07" y2="154.73" xlink:href="#linear-gradient"/><linearGradient id="linear-gradient-42" x1="86.44" y1="152.79" x2="1932.84" y2="152.79" xlink:href="#linear-gradient"/><linearGradient id="linear-gradient-43" x1="88.16" y1="150.85" x2="1931.6" y2="150.85" xlink:href="#linear-gradient"/></defs><g id="Layer_5"><path class="cls-29" d="m.24,69.98c158,86,249.26,83,310.78,43.36,61.52-39.64,147.33,91.46,218.22,109.64,39.12,10.04,57.18-134.65,90.34-111.59,63.66,44.27,166.46,136.59,211.66,73.59,66-92,249.79-1.34,340.64-32.68,72.95-25.16,84.8-105.43,152.1-67.7,31.67,17.76,167.03,45.79,174.26,81.37,13,64,158.94,35.7,284.47,22.7"/><path class="cls-1" d="m2.72,71.17c153.46,83.22,246.12,80.37,307.91,42.02,61.53-38.3,146.33,87.21,216.57,105.81,40.05,10.61,59.4-126.1,93.84-103.25,65.83,43.78,170.63,131.49,218.01,68.65,66.79-88.57,243.99-4.53,334-34.2,72.9-23.79,86.94-97.68,154.13-60.24,33.61,18.6,166.2,45,176.63,79.01,18.66,60.84,163.96,32.34,287.21,18.9"/><path class="cls-2" d="m5.19,72.36c148.91,80.43,242.97,77.74,305.04,40.69,61.54-36.96,145.32,82.98,214.92,101.97,40.98,11.18,61.63-117.55,97.35-94.91,68.01,43.3,174.74,126.38,224.36,63.72,67.45-85.18,238.12-7.96,327.37-35.72,72.79-22.64,88.99-89.74,156.15-52.78,35.5,19.54,165.32,44.15,179,76.64,24.25,57.6,168.99,28.98,289.95,15.11"/><path class="cls-9" d="m7.67,73.55c144.37,77.65,239.83,75.12,302.17,39.35,61.56-35.62,144.3,78.77,213.27,98.14,41.91,11.77,63.86-109,100.85-86.57,70.18,42.81,178.79,121.28,230.71,58.79,68-81.84,232.29-11.25,320.74-37.24,72.72-21.37,91.1-81.93,158.18-45.33,37.42,20.42,164.39,43.27,181.37,74.28,29.74,54.3,174.01,25.63,292.69,11.31"/><path class="cls-21" d="m10.14,74.74c139.83,74.87,236.77,72.64,299.29,38.02,61.65-34.13,143.29,74.59,211.62,94.3,42.83,12.36,66.09-100.45,104.36-78.22,72.35,42.32,182.79,116.16,237.06,53.86,68.43-78.56,226.48-14.53,314.11-38.76,72.65-20.09,93.22-74.13,160.2-37.87,39.34,21.3,163.39,42.36,183.73,71.91,35.1,50.98,179.04,22.27,295.43,7.52"/><path class="cls-10" d="m12.62,75.93c135.29,72.08,233.63,70.04,296.42,36.68,61.67-32.76,142.27,70.42,209.97,90.47,43.76,12.96,68.32-91.9,107.87-69.88,74.53,41.83,186.72,111.03,243.41,48.92,68.76-75.34,220.67-17.79,307.48-40.28,72.59-18.8,95.34-66.34,162.23-30.41,41.27,22.17,162.33,41.46,186.1,69.54,40.35,47.66,184.06,18.91,298.17,3.72"/><path class="cls-17" d="m15.1,77.12c130.74,69.3,230.5,67.44,293.55,35.35,61.69-31.4,141.24,66.26,208.32,86.63,44.68,13.57,70.55-83.35,111.37-61.54,76.7,41.34,190.6,105.88,249.76,43.99,68.99-72.18,214.86-21.05,300.85-41.8,72.54-17.5,97.48-58.56,164.25-22.95,43.2,23.04,161.21,40.57,188.47,67.18,45.49,44.39,189.09,15.55,300.91-.07"/><path class="cls-39" d="m17.57,78.31c126.2,66.52,227.36,64.83,290.68,34.01,61.71-30.04,140.21,62.12,206.67,82.8,45.6,14.19,72.77-74.8,114.88-53.2,78.87,40.85,194.42,100.69,256.11,39.06,69.13-69.08,209.06-24.29,294.22-43.32,72.49-16.2,99.62-50.8,166.28-15.5,45.13,23.9,160.04,39.72,190.84,64.81,50.55,41.17,194.11,12.19,303.64-3.87"/><path class="cls-4" d="m20.05,79.5c121.66,63.74,224.22,62.23,287.81,32.68,61.72-28.68,139.18,58,205.02,78.97,46.52,14.81,75.05-66.34,118.38-44.86,81.13,40.2,198.18,95.47,262.46,34.12,69.19-66.04,203.27-27.52,287.59-44.84,72.44-14.88,101.76-43.04,168.3-8.04,47.06,24.76,158.83,38.92,193.21,62.45,55.55,38.03,199.14,8.83,306.38-7.66"/><path class="cls-41" d="m22.52,80.69c117.12,60.95,221.08,59.61,284.94,31.34s138.15,53.89,203.37,75.13c47.44,15.45,77.27-57.79,121.89-36.52,83.3,39.7,201.89,90.2,268.81,29.19,69.18-63.06,197.48-30.73,280.96-46.36,72.4-13.55,103.91-35.29,170.33-.58,49,25.61,157.61,38.15,195.58,60.08,60.52,34.95,204.16,5.48,309.12-11.46"/><path class="cls-38" d="m25,81.88c112.57,58.17,217.93,57,282.07,30.01,61.74-25.98,137.11,49.79,201.71,71.3,48.35,16.09,79.46-49.15,125.4-28.18,85.39,39.38,205.53,84.87,275.16,24.26,69.09-60.15,191.69-33.93,274.32-47.88,72.36-12.21,106.06-27.55,172.35,6.88,50.94,26.45,156.38,37.44,197.94,57.72,65.47,31.94,209.19,2.12,311.86-15.25"/><path class="cls-20" d="m27.48,83.07c108.03,55.39,214.78,54.37,279.19,28.68,61.75-24.64,136.06,45.71,200.06,67.46,49.26,16.74,81.69-40.6,128.9-19.84,87.56,38.89,209.12,79.49,281.51,19.33,68.95-57.31,185.91-37.12,267.69-49.4,72.33-10.86,108.22-19.81,174.37,14.33,52.89,27.3,155.14,36.76,200.31,55.35,70.43,28.99,214.21-1.24,314.6-19.05"/><path class="cls-12" d="m29.95,84.26c103.49,52.6,211.63,51.75,276.32,27.34,61.76-23.3,135.01,41.63,198.41,63.63,50.17,17.4,83.92-32.05,132.41-11.5,89.74,38.4,212.65,74.03,287.86,14.39,68.76-54.53,180.13-40.29,261.06-50.92,72.29-9.49,110.38-12.08,176.4,21.79,54.83,28.13,153.91,36.11,202.68,52.99,75.4,26.09,219.23-4.6,317.34-22.84"/><path class="cls-34" d="m32.43,85.45c98.95,49.82,208.48,49.11,273.45,26.01,61.76-21.96,133.96,37.57,196.76,59.79,51.07,18.07,86.15-23.5,135.91-3.16,91.91,37.91,216.13,68.5,294.21,9.46,68.52-51.81,174.35-43.45,254.43-52.44,72.26-8.11,112.54-4.36,178.42,29.25,56.78,28.96,152.69,35.49,205.05,50.62,80.39,23.23,224.26-7.96,320.08-26.64"/><path class="cls-42" d="m34.91,86.64c94.4,47.04,205.32,46.47,270.58,24.67,61.76-20.64,132.91,33.51,195.11,55.96,51.97,18.75,88.37-14.95,139.42,5.18,94.08,37.42,219.55,62.88,300.55,4.53,68.24-49.16,168.57-46.59,247.8-53.96,72.23-6.72,114.7,3.36,180.45,36.71,58.73,29.78,151.48,34.9,207.42,48.25,85.4,20.4,229.28-11.31,322.82-30.43"/><path class="cls-14" d="m37.38,87.83c89.86,44.25,202.17,43.83,267.71,23.34,61.76-19.31,131.85,29.46,193.46,52.12,52.87,19.44,90.6-6.4,142.92,13.52,96.26,36.93,222.92,57.16,306.9-.4,67.94-46.57,162.8-49.71,241.17-55.48,72.2-5.31,116.87,11.08,182.47,44.16,60.69,30.6,150.29,34.32,209.79,45.89,90.43,17.59,234.31-14.67,325.56-34.23"/><path class="cls-15" d="m39.86,89.02c85.32,41.47,199.01,41.18,264.84,22,61.76-17.99,130.78,25.43,191.81,48.29,53.76,20.14,92.83,2.15,146.43,21.86,98.43,36.45,226.24,51.34,313.25-5.34,67.61-44.04,157.02-52.82,234.54-57,72.16-3.89,119.03,18.79,184.5,51.62,62.65,31.41,149.1,33.75,212.15,43.52,95.48,14.8,239.33-18.03,328.3-38.02"/><path class="cls-11" d="m42.33,90.21c80.78,38.69,195.86,38.52,261.97,20.67,61.76-16.68,129.72,21.39,190.16,44.45,54.65,20.85,95.06,10.7,149.94,30.2,100.6,35.96,229.52,45.41,319.6-10.27,67.27-41.58,151.24-55.92,227.91-58.52,72.13-2.45,121.2,26.5,186.52,59.08,64.61,32.22,147.93,33.19,214.52,41.16,100.55,12.02,244.36-21.39,331.04-41.82"/><path class="cls-7" d="m44.81,91.4c76.23,35.91,192.7,35.86,259.09,19.33,61.76-15.38,128.65,17.37,188.51,40.62,55.53,21.56,97.29,19.25,153.44,38.54,102.77,35.47,232.75,39.36,325.95-15.2,66.92-39.18,145.45-58.99,221.28-60.04,72.09-.99,123.37,34.2,188.55,66.53,66.57,33.02,146.77,32.65,216.89,38.79,105.64,9.26,249.38-24.75,333.78-45.61"/><path class="cls-25" d="m47.29,92.59c71.69,33.12,189.52,33.09,256.22,18,61.74-14.17,127.57,13.35,186.86,36.78,56.41,22.29,99.52,27.8,156.95,46.88,104.95,34.98,235.94,33.18,332.3-20.13,66.57-36.83,139.66-62.06,214.64-61.56,72.05.48,125.59,41.8,190.57,73.99,68.59,33.71,145.62,32.1,219.26,36.43,110.74,6.5,254.41-28.1,336.52-49.41"/><path class="cls-19" d="m49.76,93.79c67.15,30.34,186.38,30.46,253.35,16.66,61.75-12.83,126.45,9.44,185.21,32.95,57.24,23.12,101.74,36.35,160.45,55.22,107.12,34.49,239.1,26.86,338.65-25.07,66.23-34.55,133.86-64.96,208.01-63.08,72,2.11,127.74,49.55,192.6,81.45,70.53,34.55,144.48,31.56,221.63,34.06,115.87,3.75,259.43-31.46,339.26-53.2"/><path class="cls-6" d="m52.24,94.98c62.61,27.56,183.23,27.84,250.48,15.33,61.76-11.49,125.41,5.34,183.56,29.11,58.15,23.78,103.97,44.9,163.96,63.56,109.29,34,242.23,20.4,345-30,65.9-32.32,128.07-68.14,201.38-64.6,71.95,3.47,129.89,57.3,194.62,88.91,72.47,35.39,143.35,31.03,224,31.7,121,1,264.46-34.82,342-57"/><path class="cls-33" d="m53.95,95.88c27.69,11.74,65.08,15.62,104.54,17.71,51.37,2.71,107.56,5.3,146.16.28,6.71-.87,13.4-1.56,20.01-2.28,43.95-4.74,91.35,1.5,134.03,14.98,10.57,3.34,20.65,6.38,30.36,9.6,22.04,7.26,41.31,13.49,62.66,22.16,31.6,12.96,62.45,27.09,98.3,40.68,49.57,18.88,103.93,28.73,158.21,25.52,64.77-3.64,126.97-24.82,182.95-53.73,40.03-20.67,79.4-41.73,121.83-53.01,26.82-7.21,53.83-11.96,82.42-11.32,31.32.73,59.77,10.9,88.6,23.45,36.72,15.99,61.24,41.22,95.85,58.87,2.8,1.44,5.65,2.89,8.55,4.32,71.57,35.27,146.18,37.99,224.86,38.25,53.93.17,110.31-12.88,163.6-21.98,69.75-11.93,128.63-16.08,179.12-37.02"/><path class="cls-26" d="m55.67,96.78c28.55,11.67,65.81,12.65,105.37,13.87,50.24,1.55,106.82,9.7,145.57,6.77,6.84-.52,13.6-.99,20.2-1.82,43.15-5.37,92.67-2.38,134.88,9.68,10.83,3.09,20.77,5.3,30.17,7.63,21.31,5.27,39.02,8.71,61.13,17.62,31.25,12.59,61.64,28.69,96.82,44.5,48.69,22.06,101.93,36.06,155.28,33.31,65.1-3.36,125.43-29.04,182.05-59.73,39.77-21.55,79.66-42.54,123.6-52.62,27.66-6.35,54.85-11.35,83.52-11.44,31.37-.06,59.8,9.15,89.64,19.81,40.36,14.42,57.39,42.22,93.06,60.18,2.82,1.42,5.7,2.91,8.66,4.39,70.54,35.38,149.02,45.7,225.72,44.8,55.53-.65,111.76-19.73,164.77-28.68,69.19-11.7,121.7-3.03,178.66-32.32"/><path class="cls-30" d="m57.39,97.69c29.41,11.6,66.57,8.22,106.19,10.04,49.04,2.25,106.1,14.14,144.97,13.26,6.97-.16,13.8-.42,20.39-1.36,42.35-5.98,94.02-6.3,135.73,4.38,11.09,2.84,20.9,4.22,29.98,5.65,20.6,3.26,36.72,3.97,59.6,13.08,30.88,12.29,60.88,30.22,95.35,48.32,47.87,25.14,99.93,43.49,152.34,41.11,65.43-2.97,123.89-33.24,181.14-65.74,39.52-22.43,79.89-43.4,125.36-52.23,28.49-5.53,55.87-10.74,84.62-11.56,31.43-.84,59.94,7.28,90.69,16.18,44.14,12.78,53.51,43.27,90.27,61.48,2.82,1.4,5.74,2.92,8.78,4.46,69.59,35.35,151.87,52.89,226.59,51.35,57.13-1.18,113.22-26.58,165.94-35.38,68.62-11.48,114.77,10.03,178.2-27.62"/><path class="cls-8" d="m59.1,98.59c30.26,11.53,67.25,4.85,107.01,6.2,47.91,1.63,105.4,18.61,144.38,19.75,7.11.21,13.99.15,20.57-.9,41.54-6.58,95.41-10.28,136.58-.92,11.37,2.58,21.04,3.13,29.79,3.68,19.88,1.24,34.41-.77,58.07,8.53,30.5,11.99,60.09,31.8,93.88,52.14,47.02,28.3,97.93,50.92,149.4,48.9,65.77-2.58,122.35-37.42,180.24-71.74,39.27-23.28,80.12-44.28,127.12-51.84,29.31-4.71,56.88-10.14,85.72-11.68,31.48-1.62,60.15,5.29,91.74,12.54,48.02,11.02,49.63,44.32,87.47,62.79,2.83,1.38,5.79,2.93,8.89,4.53,68.64,35.31,154.69,58.71,227.45,57.91,58.75-.65,114.68-33.44,167.11-42.08,68.06-11.25,107.84,23.08,177.75-22.92"/><path class="cls-32" d="m60.82,99.5c31.12,11.46,67.93,3.82,107.83,2.37,46.77-1.71,104.71,23.12,143.78,26.24,7.25.58,14.19.72,20.76-.44,40.74-7.17,96.81-14.3,137.43-6.22,11.65,2.32,21.17,2.05,29.6,1.71,19.18-.78,32.11-5.51,56.54,3.99,30.12,11.71,59.3,33.39,92.41,55.97,46.16,31.47,95.94,58.36,146.47,56.7,66.11-2.18,120.82-41.59,179.34-77.75,39.04-24.12,80.35-45.16,128.89-51.44,30.13-3.9,57.9-9.53,86.83-11.8,31.54-2.41,60.41,3.2,92.78,8.9,51.96,9.16,45.74,45.38,84.68,64.1,2.84,1.36,5.83,2.95,9.01,4.6,67.71,35.25,157.53,65.56,228.32,64.46,60.36-.94,116.13-40.29,168.28-48.78,67.49-11.03,100.9,36.14,177.29-18.22"/><path class="cls-3" d="m62.53,100.4c31.98,11.39,68.62.92,108.65-1.47,45.59-2.72,104.03,27.66,143.18,32.73,7.39.96,14.39,1.3,20.95.02,39.93-7.74,98.24-18.38,138.28-11.52,11.93,2.04,21.31.96,29.41-.27,18.48-2.8,29.8-10.24,55.01-.55,29.73,11.42,58.51,34.98,90.94,59.79,45.3,34.64,93.95,65.81,143.53,64.5,66.44-1.76,119.3-45.73,178.43-83.75,38.8-24.95,80.57-46.04,130.65-51.05,30.95-3.1,58.92-8.92,87.93-11.92,31.6-3.19,60.7,1.02,93.83,5.27,55.95,7.17,41.85,46.45,81.89,65.4,2.85,1.35,5.87,2.96,9.12,4.67,66.77,35.17,160.37,72.39,229.18,71.01,61.97-1.24,117.59-47.15,169.45-55.48,66.93-10.8,93.97,49.19,176.84-13.52"/><path class="cls-13" d="m64.25,101.31c32.83,11.32,69.3-1.96,109.47-5.3,44.41-3.7,103.35,32.24,142.59,39.22,7.53,1.34,14.58,1.87,21.13.48,39.13-8.29,99.69-22.5,139.12-16.82,12.22,1.76,21.45-.13,29.22-2.24,17.78-4.83,27.49-14.97,53.48-5.09,29.35,11.15,57.71,36.58,89.47,63.61,44.44,37.82,91.96,73.27,140.6,72.29,66.78-1.35,117.79-49.86,177.53-89.76,38.58-25.77,80.8-46.93,132.42-50.66,31.77-2.29,59.94-8.31,89.03-12.04,31.65-3.97,61-1.23,94.88,1.63,59.96,5.06,37.96,47.52,79.1,66.71,2.85,1.33,5.92,2.97,9.24,4.74,65.85,35.08,163.21,79.2,230.05,77.56,63.58-1.56,119.05-54,170.62-62.19,66.36-10.58,87.04,62.24,176.38-8.81"/><path class="cls-16" d="m65.97,102.21c33.69,11.25,69.98-4.81,110.29-9.14,43.23-4.64,102.67,36.84,141.99,45.71,7.67,1.73,14.78,2.45,21.32.94,38.32-8.83,101.15-26.66,139.97-22.12,12.52,1.47,21.59-1.23,29.03-4.22,17.09-6.87,25.18-19.69,51.95-9.64,28.96,10.88,56.92,38.18,88,67.43,43.58,41.01,89.96,80.74,137.66,80.09,67.13-.92,116.29-53.97,176.63-95.76,38.36-26.57,81.02-47.83,134.18-50.27,32.58-1.49,60.95-7.7,90.13-12.16,31.71-4.75,61.44,1.41,95.92-2,63.72-6.31,34.06,48.6,76.3,68.02,2.86,1.31,5.97,2.98,9.35,4.81,64.93,34.98,166.05,85.99,230.91,84.12,65.19-1.88,120.5-60.85,171.79-68.89,65.79-10.35,80.11,75.3,175.93-4.11"/><path class="cls-28" d="m67.68,103.12c34.55,11.18,70.66-7.64,111.11-12.97,42.04-5.54,101.99,41.48,141.4,52.2,7.81,2.12,14.98,3.03,21.51,1.4,37.52-9.36,102.61-30.87,140.82-27.41,12.81,1.16,21.73-2.33,28.84-6.19,16.39-8.91,22.87-24.41,50.42-14.18s56.12,39.79,86.53,71.26c42.71,44.2,87.97,87.34,134.72,87.88,67.46.79,114.8-58.06,175.73-101.77,38.14-27.36,81.25-48.73,135.94-49.87,33.4-.7,61.97-7.09,91.24-12.28,31.76-5.54,61.9-1.07,96.97-5.64,67.41-8.78,30.16,49.68,73.51,69.32,2.87,1.3,6.01,2.99,9.47,4.87,64.01,34.87,168.89,92.76,231.78,90.67,66.8-2.22,121.96-67.71,172.96-75.59,65.23-10.13,73.18,88.35,175.47.59"/><path class="cls-23" d="m69.4,104.02c35.4,11.11,71.33-10.44,111.93-16.81s101.3,46.14,140.8,58.69c7.95,2.52,15.17,3.62,21.69,1.86,36.72-9.87,104.09-35.12,141.67-32.71,13.11.84,21.87-3.43,28.65-8.16,15.69-10.96,20.55-29.13,48.89-18.72s55.32,41.39,85.06,75.08c41.84,47.39,85.99,94.81,131.79,95.68,67.8,1.29,113.31-62.14,174.82-107.77,37.94-28.15,81.47-49.15,137.71-49.48,34.22-.2,62.99-6.48,92.34-12.4,31.82-6.32,62.32-3.68,98.02-9.28,71.13-11.16,26.26,50.77,70.72,70.63,2.87,1.28,6.06,3,9.58,4.94,63.11,34.75,171.72,99.51,232.64,97.22,68.41-2.57,123.42-74.56,174.13-82.29,64.66-9.9,66.25,101.41,175.01,5.29"/><path class="cls-27" d="m71.11,104.93c36.26,11.04,72.01-13.2,112.76-20.64,39.68-7.25,100.59,50.83,140.21,65.18,8.08,2.93,15.37,4.2,21.88,2.32,35.93-10.37,105.64-35.36,142.52-38.01,13.39-.96,22-4.53,28.46-10.14,14.98-13.02,18.24-33.84,47.36-23.26s54.51,43,83.59,78.9c40.97,50.58,84,102.3,128.85,103.48,68.13,1.78,111.84-66.2,173.92-113.78,37.74-28.92,81.69-50.56,139.47-49.09,35.04.89,64-5.87,93.44-12.52,31.88-7.1,62.7-6.38,99.06-12.91,74.88-13.45,22.36,51.86,67.93,71.94,2.88,1.27,6.1,3.01,9.7,5.01,62.2,34.62,174.56,106.25,233.5,103.77,70.02-2.94,124.88-81.42,175.3-88.99,64.1-9.67,59.32,114.46,174.56,9.99"/><path class="cls-37" d="m72.83,105.83c37.12,10.97,72.69-15.93,113.58-24.48,38.5-8.05,99.88,55.53,139.61,71.67,8.22,3.34,15.57,4.79,22.07,2.78,35.13-10.85,107.21-39.85,143.37-43.31,13.65-1.31,22.14-5.63,28.27-12.11,14.27-15.07,15.92-38.55,45.83-27.81,27.39,9.84,53.7,44.61,82.12,82.73,40.09,53.78,82,110.69,125.92,111.27,68.49.9,110.38-70.26,173.02-119.78,37.55-29.69,81.92-51.47,141.24-48.7,35.86,1.68,65.02-5.26,94.54-12.64,31.93-7.89,62.44-13.24,100.11-16.55,79.89-7.03,18.45,52.96,65.13,73.24,2.88,1.25,6.15,3.02,9.81,5.08,61.31,34.48,177.4,112.97,234.37,110.33,71.62-3.33,126.33-88.27,176.47-95.69,63.53-9.45,52.38,127.51,174.1,14.69"/><path class="cls-31" d="m74.54,106.73c37.97,10.9,73.38-18.63,114.4-28.31,37.34-8.82,99.15,60.25,139.02,78.16,8.35,3.75,15.77,5.38,22.25,3.24,34.35-11.32,108.76-44.44,144.21-48.61,13.92-1.64,22.27-6.74,28.08-14.09,13.55-17.13,13.6-43.26,44.3-32.35,26.99,9.59,52.9,46.22,80.65,86.55,39.21,56.97,80.01,118.2,122.98,119.07,68.84,1.39,108.94-74.29,172.11-125.79,37.36-30.45,82.15-52.39,143-48.31,36.68,2.46,66.04-4.65,95.65-12.76,31.99-8.67,62.69-15.73,101.16-20.19,83.81-9.71,14.55,54.06,62.34,74.55,2.89,1.24,6.2,3.03,9.93,5.15,60.41,34.33,180.24,119.68,235.23,116.88,73.23-3.73,127.79-95.13,177.64-102.39,62.97-9.22,45.45,140.57,173.65,19.39"/><path class="cls-24" d="m76.26,107.64c38.83,10.83,74.09-21.29,115.22-32.15,36.18-9.55,98.4,64.98,138.42,84.65,8.47,4.16,15.97,5.98,22.44,3.7,33.56-11.78,110.29-49.12,145.06-53.91,14.19-1.95,22.39-7.84,27.89-16.06,12.83-19.19,11.28-47.95,42.77-36.89,26.59,9.34,52.08,47.83,79.18,90.37,38.32,60.17,78.02,125.72,120.04,126.87,69.18,1.89,107.5-78.32,171.21-131.8,37.18-31.21,82.37-53.32,144.76-47.91,37.5,3.25,67.06-4.04,96.75-12.88,32.04-9.45,62.93-18.25,102.21-23.82,87.69-12.45,10.64,55.17,59.55,75.86,2.9,1.23,6.24,3.04,10.04,5.22,59.52,34.17,183.07,126.38,236.1,123.43,74.84-4.16,129.25-101.98,178.81-109.09,62.4-9,38.52,153.62,173.19,24.09"/><path class="cls-5" d="m77.98,108.54c39.68,10.76,74.8-23.91,116.04-35.98,35.04-10.26,97.65,69.72,137.83,91.14,8.6,4.58,16.17,6.57,22.63,4.16,32.79-12.23,111.45-56.92,145.91-59.21,14.61-.97,22.52-8.94,27.7-18.03,12.1-21.25,8.96-52.65,41.24-41.44,26.2,9.1,51.27,49.44,77.71,94.19,37.43,63.37,76.03,133.24,117.11,134.66,69.52,2.4,106.08-82.34,170.31-137.8,37.01-31.96,82.6-54.24,146.53-47.52,38.32,4.03,68.07-3.43,97.85-13,32.1-10.23,63.15-20.78,103.25-27.46,91.54-15.26,6.72,56.28,56.76,77.16,2.9,1.21,6.29,3.05,10.16,5.29,58.64,34.01,185.91,133.06,236.96,129.98,76.44-4.61,130.7-108.83,179.98-115.79,61.84-8.77,31.59,166.68,172.73,28.79"/><path class="cls-22" d="m79.69,109.45c40.54,10.69,75.54-26.48,116.86-39.82,33.91-10.94,96.87,74.47,137.23,97.63,8.72,5,16.37,7.17,22.81,4.62,32.02-12.66,112.91-61.37,146.76-64.51,14.9-1.38,22.65-10.04,27.51-20.01,11.37-23.3,6.63-57.34,39.71-45.98,25.8,8.86,50.37,51.09,76.24,98.02,36.43,66.63,74.03,140.77,114.17,142.46,69.86,2.93,104.67-86.34,169.4-143.81,36.84-32.7,82.83-55.17,148.29-47.13,39.14,4.81,69.09-2.82,98.95-13.12,32.15-11.02,63.35-23.32,104.3-31.1,95.36-18.11,2.81,57.4,53.96,78.47,2.91,1.2,6.34,3.05,10.27,5.36,57.76,33.84,188.74,139.73,237.83,136.54,78.05-5.08,132.16-115.69,181.15-122.49,61.27-8.55,24.66,179.73,172.28,33.49"/><path class="cls-18" d="m81.41,110.35c41.4,10.62,76.31-29.02,117.68-43.65,32.79-11.6,96.09,79.23,136.64,104.12,8.84,5.42,16.58,7.77,23,5.08,31.25-13.08,114.34-65.84,147.61-69.8,15.18-1.81,22.77-11.14,27.32-21.98,10.64-25.35,4.31-62.02,38.18-50.52,25.4,8.62,49.57,52.69,74.77,101.84,35.55,69.81,72.04,148.31,111.24,150.25,70.19,3.48,103.27-90.34,168.5-149.81,36.68-33.44,83.08-56.23,150.06-46.74,39.97,5.51,70.11-2.21,100.06-13.24,32.21-11.8,63.54-25.87,105.35-34.73,99.15-21.02-1.1,58.53,51.17,79.77,2.91,1.18,6.39,3.06,10.39,5.43,56.89,33.66,191.57,146.4,238.69,143.09,79.65-5.59,133.62-122.54,182.32-129.2,60.7-8.32,17.73,192.78,171.82,38.2"/><path class="cls-40" d="m83.12,111.26c42.25,10.54,77.1-31.51,118.5-47.49,31.7-12.23,95.29,83.98,136.04,110.61,8.95,5.85,16.78,8.38,23.19,5.54,30.5-13.5,115.76-70.34,148.46-75.1,15.46-2.25,22.87-12.25,27.13-23.95,9.86-27.42,1.98-66.69,36.65-55.06,25,8.39,48.76,54.29,73.3,105.66,34.68,72.99,70.04,155.86,108.3,158.05,70.53,4.04,101.89-94.33,167.6-155.82,36.52-34.18,83.31-57.14,151.82-46.34,40.79,6.31,71.12-1.61,101.16-13.36,32.27-12.58,63.71-28.43,106.39-38.37,102.91-23.96-5.02,59.66,48.38,81.08,2.92,1.17,6.44,3.06,10.51,5.49,56.02,33.48,194.4,153.05,239.56,149.64,81.24-6.13,135.07-129.4,183.49-135.9,60.14-8.1,10.79,205.84,171.37,42.9"/><path class="cls-35" d="m84.84,112.16c43.11,10.47,77.92-33.95,119.33-51.32,30.63-12.85,94.48,88.75,135.44,117.1,9.06,6.27,16.99,8.99,23.37,6,29.75-13.9,117.17-74.86,149.3-80.4,15.73-2.71,23-13.35,26.94-25.93,9.14-29.46-.35-71.36,35.12-59.61,24.6,8.15,47.96,55.89,71.83,109.48,33.8,76.18,68.05,163.41,105.36,165.85,70.86,4.62,100.52-98.3,166.69-161.82,36.37-34.91,83.54-58.05,153.58-45.95,41.61,7.1,72.14-1,102.26-13.48,32.32-13.37,63.87-31,107.44-42,106.63-26.94-8.98,60.9,45.59,82.39,2.92,1.16,6.49,3.07,10.62,5.56,55.15,33.29,197.23,159.69,240.42,156.19,82.83-6.71,136.53-136.25,184.66-142.6,59.57-7.87,3.86,218.89,170.91,47.6"/><path class="cls-36" d="m86.56,113.07c43.97,10.4,78.78-36.36,120.15-55.16,29.59-13.45,93.66,93.51,134.85,123.59,9.17,6.7,17.2,9.6,23.56,6.46,29.02-14.29,118.55-79.39,150.15-85.7,15.99-3.19,23.14-14.44,26.75-27.9,8.42-31.5-2.7-75.97,33.59-64.15,24.18,7.96,47.15,57.49,70.36,113.31,32.92,79.36,66.05,170.97,102.43,173.64,71.19,5.23,99.27-102.16,165.79-167.83,36.29-35.58,83.77-58.95,155.35-45.56,42.44,7.9,73.16-.39,103.36-13.6,32.38-14.15,64.02-33.57,108.49-45.64,110.33-29.96-12.88,61.99,42.79,83.69,2.93,1.15,6.54,3.07,10.74,5.63,54.34,33.02,200.06,166.33,241.28,162.75,84.42-7.33,137.99-143.1,185.83-149.3,59.01-7.65-3.07,231.95,170.46,52.3"/><path class="cls-43" d="m88.27,113.97c44.82,10.33,79.68-38.71,120.97-59,34.97-17.18,123.42,154.94,158,137,28.29-14.68,119.92-83.94,151-91,54.24-12.32,5.7-115.68,58.62-98.57,57.63,18.64,108.01,293.63,168.38,298.57,110,9,113-261,322-219,89.58,18,126.24-37.59,214-63,114-33-16.79,63.09,40,85,39.73,15.33,210.6,178.94,253,175,86-8,139.44-149.96,187-156,58.44-7.42-10,245,170,57"/></g></svg>