<?xml version="1.0" encoding="UTF-8"?><svg id="Layer_2" xmlns="http://www.w3.org/2000/svg" width="312.01" height="674.12" xmlns:xlink="http://www.w3.org/1999/xlink" viewBox="0 0 312.01 674.12"><defs><style>.cls-1{stroke:url(#linear-gradient-2);}.cls-1,.cls-2,.cls-3,.cls-4,.cls-5,.cls-6,.cls-7,.cls-8,.cls-9,.cls-10,.cls-11,.cls-12,.cls-13,.cls-14,.cls-15,.cls-16,.cls-17,.cls-18,.cls-19,.cls-20,.cls-21,.cls-22{fill:none;stroke-miterlimit:10;}.cls-2{stroke:url(#linear-gradient-3);}.cls-3{stroke:url(#linear-gradient-9);}.cls-4{stroke:url(#linear-gradient-22);}.cls-5{stroke:url(#linear-gradient-19);}.cls-6{stroke:url(#linear-gradient-4);}.cls-7{stroke:url(#linear-gradient-6);}.cls-8{stroke:url(#linear-gradient-18);}.cls-9{stroke:url(#linear-gradient-13);}.cls-10{stroke:url(#linear-gradient-16);}.cls-11{stroke:url(#linear-gradient-17);}.cls-12{stroke:url(#linear-gradient-7);}.cls-13{stroke:url(#linear-gradient-21);}.cls-14{stroke:url(#linear-gradient-12);}.cls-15{stroke:url(#linear-gradient-5);}.cls-16{stroke:url(#linear-gradient-20);}.cls-17{stroke:url(#linear-gradient);}.cls-18{stroke:url(#linear-gradient-14);}.cls-19{stroke:url(#linear-gradient-11);}.cls-20{stroke:url(#linear-gradient-8);}.cls-21{stroke:url(#linear-gradient-10);}.cls-22{stroke:url(#linear-gradient-15);}</style><linearGradient id="linear-gradient" x1="156" y1="674.12" x2="156" y2="0" gradientUnits="userSpaceOnUse"><stop offset="0" stop-color="#fffaf5" stop-opacity=".1"/><stop offset=".31" stop-color="#fb8500" stop-opacity=".36"/><stop offset=".52" stop-color="#fb8500"/><stop offset=".75" stop-color="#fb8500" stop-opacity=".3"/><stop offset="1" stop-color="#fffaf5" stop-opacity=".1"/></linearGradient><linearGradient id="linear-gradient-2" x1="155.46" y1="673.49" x2="155.46" y2="1.38" xlink:href="#linear-gradient"/><linearGradient id="linear-gradient-3" x1="154.92" y1="672.87" x2="154.92" y2="2.76" xlink:href="#linear-gradient"/><linearGradient id="linear-gradient-4" x1="154.38" y1="672.24" x2="154.38" y2="4.14" xlink:href="#linear-gradient"/><linearGradient id="linear-gradient-5" x1="153.84" y1="671.62" x2="153.84" y2="5.53" xlink:href="#linear-gradient"/><linearGradient id="linear-gradient-6" x1="153.31" y1="670.99" x2="153.31" y2="6.91" xlink:href="#linear-gradient"/><linearGradient id="linear-gradient-7" x1="152.78" y1="670.37" x2="152.78" y2="8.29" xlink:href="#linear-gradient"/><linearGradient id="linear-gradient-8" x1="152.25" y1="669.75" x2="152.25" y2="9.67" xlink:href="#linear-gradient"/><linearGradient id="linear-gradient-9" x1="151.72" y1="669.12" x2="151.72" y2="11.05" xlink:href="#linear-gradient"/><linearGradient id="linear-gradient-10" x1="151.2" y1="668.5" x2="151.2" y2="12.43" xlink:href="#linear-gradient"/><linearGradient id="linear-gradient-11" x1="150.69" y1="667.87" x2="150.69" y2="13.81" xlink:href="#linear-gradient"/><linearGradient id="linear-gradient-12" x1="150.18" y1="667.25" x2="150.18" y2="15.19" xlink:href="#linear-gradient"/><linearGradient id="linear-gradient-13" x1="149.69" y1="666.63" x2="149.69" y2="16.58" xlink:href="#linear-gradient"/><linearGradient id="linear-gradient-14" x1="148.88" y1="666" x2="148.88" y2="17.96" xlink:href="#linear-gradient"/><linearGradient id="linear-gradient-15" x1="147.44" y1="665.38" x2="147.44" y2="19.34" xlink:href="#linear-gradient"/><linearGradient id="linear-gradient-16" x1="146.01" y1="664.76" x2="146.01" y2="20.72" xlink:href="#linear-gradient"/><linearGradient id="linear-gradient-17" x1="144.58" y1="664.13" x2="144.58" y2="22.1" xlink:href="#linear-gradient"/><linearGradient id="linear-gradient-18" x1="143.18" y1="663.51" x2="143.18" y2="23.48" xlink:href="#linear-gradient"/><linearGradient id="linear-gradient-19" x1="141.81" y1="662.89" x2="141.81" y2="24.86" xlink:href="#linear-gradient"/><linearGradient id="linear-gradient-20" x1="140.47" y1="662.26" x2="140.47" y2="26.25" xlink:href="#linear-gradient"/><linearGradient id="linear-gradient-21" x1="139.18" y1="661.64" x2="139.18" y2="27.63" xlink:href="#linear-gradient"/><linearGradient id="linear-gradient-22" x1="137.92" y1="661.02" x2="137.92" y2="29.01" xlink:href="#linear-gradient"/></defs><g id="Layer_1-2"><path class="cls-17" d="M35.59.05c4,44,1.22,137.08,17,151,17,15-9,34,4,55,7.93,12.82-11,26-27,27-24.18,1.51,34.79,57.08,21,77-9,13-47.18,19.12-50,53-3,36,73-29,86-3,15.42,30.84,84.86-32.94,103-3,20,33,41.33-24.49,63-14,31,15,26,29,52,35,22.73,5.24-18.72,33.9-8,39,21,10-8.86,18.54-25.52,41.65-43.48,60.35-24.26,145.35-34.48,215.35"/><path class="cls-1" d="M35.68,1.43c3.95,43.78,1.31,134.85,16.5,149.65s-5.41,31.18,1.27,50.13c.51,1.46,1.18,2.93,2.03,4.4,7.33,12.71-11.04,25.66-26.54,27.22-16.26,1.64,5.01,27.78,16.23,50.32,5.14,10.31,7.9,19.85,3.96,26.12-8.37,13.31-44.84,20.06-47.46,53.36-2.8,35.19,70.88-25.73,84.65-.6,9.41,17.17,35.58,4.58,58.68-4.75,17.42-7.01,34.74-11.45,42.83.91,10.79,16.49,21.55,9.15,32.63-.09,9.95-8.29,20.06-17.95,30.17-13.26,30.5,14.24,26.44,27.55,51.83,33.65,22.25,5.37-17.36,33.54-7.17,38.94s7.71,9.75,1.07,16.09-17.83,14.47-25.9,25.92c-6.74,9.59-11.99,19.78-16.06,30.41-21.47,56.23-9.52,123.68-17.73,183.59"/><path class="cls-2" d="M35.78,2.81c3.9,43.56,1.38,132.56,16,148.3,13.56,14.59-5.3,31.04.74,49.71.47,1.44,1.07,2.9,1.85,4.37,6.73,12.61-11.09,25.33-26.08,27.44-15.92,2.24,3.99,27.97,15.11,50.06,5.12,10.15,7.84,19.5,4.26,25.81-7.74,13.64-42.51,20.99-44.92,53.71-2.59,34.38,68.78-22.45,83.3,1.8,10.04,16.76,36.03,4.74,57.83-4.9,16.45-7.21,33.79-11.65,42.17.2,10.99,15.53,21.58,8.7,32.57-.05,9.94-7.91,20.04-17.12,30.04-12.66,30.03,13.38,26.88,26.1,51.65,32.29,21.78,5.49-16.02,33.16-6.35,38.88,9.25,5.47,7.16,9.83.87,16.2s-17.16,14.79-25,26.17c-6.57,9.58-11.74,19.72-15.74,30.3-21.19,55.97-9.52,121.39-17.35,182.35"/><path class="cls-6" d="M35.87,4.19c3.84,43.33,1.44,130.22,15.5,146.95,12.47,14.83-5.19,30.91.22,49.28.42,1.43.96,2.88,1.67,4.33,6.12,12.51-11.14,25.01-25.62,27.66-15.59,2.85,2.98,28.15,13.98,49.81,5.1,9.99,7.78,19.17,4.56,25.51-7.11,13.98-40.17,21.93-42.38,54.07-2.39,33.57,66.69-19.17,81.95,4.2,10.67,16.35,36.46,4.85,56.99-5.04,15.46-7.45,32.82-11.85,41.52-.5,11.16,14.56,21.61,8.25,32.5-.01,9.94-7.54,20.01-16.27,29.91-12.05,29.55,12.58,27.32,24.65,51.48,30.94,21.31,5.61-14.69,32.77-5.52,38.82,8.59,5.66,6.61,9.93.66,16.31-6.29,6.74-16.49,15.11-24.1,26.42-6.39,9.57-11.48,19.67-15.43,30.19-20.92,55.7-9.52,119.1-16.96,181.12"/><path class="cls-15" d="M35.97,5.57c3.79,43.11,1.49,127.83,15,145.6,11.41,15-5.09,30.78-.3,48.85.38,1.42.85,2.85,1.5,4.29,5.52,12.41-11.2,24.7-25.16,27.88-15.27,3.48,1.96,28.34,12.86,49.55,5.08,9.83,7.72,18.85,4.86,25.2-6.47,14.35-37.84,22.87-39.84,54.43-2.18,32.77,64.62-15.9,80.6,6.6,11.32,15.94,36.9,5,56.14-5.18,14.48-7.67,31.84-12.07,40.87-1.21,11.3,13.6,21.65,7.8,32.43.03,9.94-7.16,19.98-15.41,29.78-11.44,29.06,11.78,27.75,23.2,51.3,29.59,20.84,5.74-13.39,32.36-4.7,38.76,7.93,5.84,6.07,10.03.45,16.42-6.07,6.91-15.84,15.41-23.2,26.67-6.24,9.55-11.22,19.61-15.12,30.07-20.64,55.44-9.52,116.81-16.57,179.89"/><path class="cls-7" d="M36.06,6.95c3.74,42.89,1.55,125.38,14.5,144.25,10.38,15.12-4.99,30.65-.83,48.43.33,1.41.74,2.83,1.32,4.25,4.92,12.31-11.27,24.4-24.71,28.1-14.96,4.11.95,28.53,11.74,49.3,5.06,9.67,7.67,18.53,5.16,24.89-5.82,14.73-35.5,23.81-37.3,54.78-1.98,31.96,62.57-12.63,79.25,9,11.98,15.53,37.34,5.15,55.3-5.33,13.5-7.88,30.84-12.29,40.22-1.91,11.42,12.64,21.68,7.36,32.37.07,9.94-6.78,19.95-14.56,29.66-10.83,28.56,10.98,28.21,21.7,51.13,28.24,20.38,5.81-12.09,31.92-3.87,38.7,7.26,5.99,5.52,10.13.24,16.53-5.85,7.09-15.18,15.72-22.3,26.91-6.07,9.54-10.96,19.56-14.81,29.96-20.37,55.17-9.52,114.53-16.19,178.65"/><path class="cls-12" d="M36.16,8.33c3.69,42.67,1.62,122.88,14,142.9,9.39,15.19-4.89,30.52-1.35,48,.28,1.39.64,2.8,1.14,4.21,4.34,12.2-11.34,24.12-24.25,28.32-14.65,4.76-.07,28.72,10.62,49.04,5.04,9.51,7.63,18.22,5.46,24.59-5.16,15.12-33.1,24.75-34.76,55.14s60.53-9.36,77.9,11.4c12.65,15.12,37.78,5.3,54.45-5.47,12.52-8.09,29.82-12.51,39.56-2.62,11.51,11.68,21.73,6.91,32.3.11,9.94-6.4,19.92-13.71,29.53-10.22,28.07,10.18,28.65,20.24,50.95,26.88,19.91,5.93-10.81,31.46-3.05,38.64,6.6,6.11,4.99,10.25.03,16.64-5.64,7.28-14.51,16.03-21.4,27.16-5.9,9.52-10.71,19.51-14.49,29.85-20.09,54.91-9.53,112.24-15.8,177.42"/><path class="cls-20" d="M36.25,9.71c3.64,42.44,1.73,120.33,13.5,141.55,8.44,15.22-4.8,30.4-1.88,47.57.23,1.38.53,2.78.96,4.18,3.74,12.1-11.41,23.86-23.79,28.54-14.35,5.42-1.08,28.91,9.5,48.79,5.02,9.35,7.6,17.92,5.77,24.28-4.49,15.54-30.75,25.69-32.22,55.5s58.51-6.1,76.55,13.8c13.33,14.7,38.21,5.46,53.61-5.61,11.54-8.3,28.78-12.73,38.91-3.32,11.57,10.74,21.77,6.47,32.23.15s19.89-12.86,29.4-9.62c27.57,9.39,29.09,18.79,50.78,25.53,19.44,6.04-9.53,30.97-2.22,38.58,5.95,6.2,4.45,10.37-.17,16.75-5.41,7.47-13.84,16.35-20.5,27.41-5.72,9.51-10.45,19.45-14.18,29.73-19.81,54.64-9.53,109.95-15.42,176.18"/><path class="cls-3" d="M36.35,11.09c3.59,42.22,1.87,117.75,13,140.2,7.54,15.21-4.71,30.28-2.4,47.15.19,1.37.42,2.75.79,4.14,3.14,12-11.48,23.61-23.33,28.75-14.05,6.1-2.09,29.09,8.38,48.54,4.99,9.19,7.58,17.62,6.07,23.97-3.79,15.96-28.41,26.63-29.68,55.85s56.5-2.85,75.2,16.2c14.02,14.28,38.65,5.61,52.76-5.75,10.56-8.5,27.72-12.94,38.26-4.02,11.6,9.82,21.82,6.04,32.17.19s19.85-12,29.27-9.01c27.07,8.61,29.53,17.33,50.6,24.18,18.97,6.16-8.25,30.45-1.4,38.52,5.31,6.26,3.93,10.49-.38,16.86-5.19,7.67-13.17,16.66-19.6,27.66-5.55,9.5-10.19,19.4-13.87,29.62-19.54,54.38-9.53,107.67-15.03,174.95"/><path class="cls-21" d="M36.44,12.47c3.53,42,2.07,115.12,12.5,138.85,6.67,15.17-4.63,30.17-2.92,46.72.14,1.36.31,2.73.61,4.1,2.54,11.9-11.55,23.38-22.87,28.97-13.74,6.79-3.11,29.28,7.26,48.28,4.97,9.03,7.56,17.33,6.37,23.66-3.08,16.39-26.07,27.57-27.14,56.21s54.51.4,73.85,18.6c14.72,13.85,39.09,5.77,51.92-5.9,9.58-8.71,26.64-13.15,37.61-4.73,11.6,8.91,21.87,5.6,32.1.23s19.82-11.15,29.14-8.4c26.56,7.82,29.97,15.88,50.43,22.82,18.5,6.28-6.96,29.89-.57,38.46,4.69,6.28,3.4,10.63-.59,16.97-4.95,7.87-12.5,16.98-18.7,27.91-5.38,9.49-9.93,19.34-13.56,29.51-19.26,54.12-9.53,105.38-14.65,173.71"/><path class="cls-19" d="M36.54,13.85c3.48,41.78,2.31,112.46,12.01,137.5,5.85,15.11-4.55,30.05-3.45,46.3.09,1.35.21,2.7.43,4.06,1.94,11.8-11.61,23.16-22.41,29.19-13.44,7.51-4.12,29.47,6.14,48.03,4.95,8.87,7.55,17.04,6.67,23.36-2.35,16.83-23.73,28.51-24.6,56.57-.86,27.92,52.52,3.63,72.5,21,15.43,13.42,39.52,5.94,51.08-6.04,8.59-8.91,25.54-13.34,36.95-5.43s21.93,5.17,32.03.27,19.79-10.29,29.01-7.79c26.06,7.05,30.41,14.43,50.25,21.47,18.03,6.4-5.66,29.31.25,38.4,4.09,6.29,2.89,10.77-.8,17.08-4.72,8.08-11.83,17.29-17.8,28.16-5.2,9.48-9.68,19.29-13.24,29.39-18.99,53.85-9.53,103.09-14.26,172.48"/><path class="cls-14" d="M36.63,15.24c3.43,41.55,2.63,109.79,11.51,136.15,5.06,15.04-4.48,29.94-3.97,45.87.04,1.34.1,2.68.25,4.02,1.33,11.7-11.67,22.96-21.95,29.41-13.12,8.24-5.18,29.68,5.02,47.77,4.91,8.72,7.56,16.75,6.97,23.05-1.6,17.27-21.39,29.44-22.06,56.93-.66,27.11,50.55,6.85,71.15,23.4,16.15,12.97,39.96,6.11,50.23-6.18,7.61-9.11,24.41-13.51,36.3-6.14s21.99,4.75,31.97.3,19.75-9.43,28.88-7.19c25.55,6.28,30.85,12.98,50.08,20.12,17.56,6.52-4.32,28.69,1.08,38.33,3.51,6.27,2.38,10.91-1.01,17.19-4.47,8.3-11.16,17.61-16.9,28.41-5.03,9.47-9.42,19.23-12.93,29.28-18.71,53.59-9.53,100.8-13.88,171.25"/><path class="cls-9" d="M36.73,16.62c3.38,41.33,3.02,107.09,11.01,134.8,4.31,14.96-4.42,29.82-4.5,45.44,0,1.33,0,2.65.07,3.99.73,11.6-11.72,22.77-21.49,29.63-12.79,8.98-6.19,29.87,3.9,47.52,4.89,8.56,7.56,16.46,7.27,22.74-.82,17.71-19.06,30.38-19.52,57.28-.45,26.3,48.59,10.06,69.8,25.8,16.87,12.52,40.4,6.28,49.39-6.33,6.63-9.3,23.27-13.66,35.65-6.84,11.47,6.32,22.05,4.33,31.9.34s19.72-8.57,28.75-6.58c25.04,5.51,31.29,11.53,49.9,18.77,17.09,6.64-2.95,28.06,1.9,38.27,2.96,6.23,1.88,11.06-1.21,17.3-4.21,8.52-10.49,17.92-16,28.65-4.85,9.46-9.16,19.18-12.62,29.17-18.44,53.32-9.53,98.52-13.49,170.01"/><path class="cls-18" d="M36.82,18c3.33,41.11,3.48,104.38,10.51,133.45,3.6,14.87-4.36,29.71-5.02,45.02-.06,1.31-.12,2.63-.1,3.95.13,11.5-11.76,22.59-21.04,29.85-12.45,9.75-7.2,30.05,2.78,47.27,4.87,8.4,7.58,16.17,7.58,22.43-.02,18.15-16.72,31.32-16.98,57.64s46.63,13.25,68.45,28.2c17.6,12.05,40.84,6.45,48.54-6.47,5.66-9.5,22.11-13.78,35-7.55,11.39,5.51,22.12,3.91,31.83.38s19.68-7.7,28.62-5.97c24.53,4.75,31.73,10.08,49.73,17.41,16.62,6.77-1.53,27.4,2.73,38.21,2.44,6.19,1.38,11.21-1.42,17.41-3.95,8.74-9.82,18.24-15.1,28.9-4.68,9.45-8.9,19.13-12.31,29.06-18.16,53.06-9.53,96.23-13.11,168.78"/><path class="cls-22" d="M36.92,19.38c3.28,40.89,4.03,101.68,10.01,132.1,2.91,14.79-4.31,29.6-5.54,44.59-.11,1.3-.23,2.6-.28,3.91-.48,11.4-11.78,22.42-20.58,30.07-12.1,10.52-8.22,30.24,1.66,47.01,4.85,8.24,7.61,15.87,7.88,22.13.81,18.58-14.39,32.26-14.44,58s44.67,16.43,67.1,30.6c18.33,11.58,41.29,6.63,47.7-6.61,4.68-9.69,20.94-13.86,34.34-8.25,11.3,4.73,22.18,3.5,31.77.42,10.09-3.25,19.64-6.84,28.49-5.36,24.01,4,32.17,8.64,49.55,16.06,16.14,6.89-.05,26.73,3.55,38.15,1.94,6.14.89,11.36-1.63,17.52-3.67,8.97-9.15,18.56-14.2,29.15-4.5,9.44-8.65,19.07-11.99,28.94-17.89,52.79-9.53,93.94-12.72,167.54"/><path class="cls-10" d="M37.02,20.76c3.22,40.67,4.65,98.98,9.51,130.75,2.25,14.72-4.27,29.48-6.07,44.16-.16,1.29-.34,2.58-.46,3.87-1.09,11.31-11.8,22.26-20.12,30.29-11.72,11.31-9.2,30.41.54,46.76,4.85,8.07,7.64,15.58,8.18,21.82,1.65,19-12.06,33.2-11.9,58.35s42.72,19.61,65.75,33c19.06,11.09,41.75,6.81,46.85-6.76,3.72-9.87,19.76-13.89,33.69-8.95,11.21,3.97,22.25,3.1,31.7.46,10.12-2.83,19.61-5.97,28.37-4.75,23.5,3.25,32.61,7.19,49.38,14.71,15.67,7.02,1.49,26.06,4.38,38.09,1.47,6.09.41,11.51-1.84,17.63-3.38,9.2-8.48,18.87-13.3,29.4-4.32,9.43-8.39,19.02-11.68,28.83-17.61,52.53-9.53,91.66-12.33,166.31"/><path class="cls-11" d="M37.11,22.14c3.17,40.44,5.37,96.29,9.01,129.4,1.61,14.67-4.23,29.36-6.59,43.74-.21,1.28-.44,2.56-.64,3.83-1.69,11.21-11.8,22.1-19.66,30.51-11.33,12.11-10.21,30.6-.58,46.5,4.83,7.91,7.67,15.28,8.48,21.51,2.52,19.42-9.73,34.13-9.36,58.71.35,23.06,40.78,22.76,64.4,35.4,19.8,10.59,42.21,6.99,46.01-6.9,2.75-10.06,18.58-13.89,33.04-9.66,11.11,3.25,22.32,2.7,31.63.5,10.15-2.4,19.57-5.09,28.24-4.15,22.98,2.51,33.05,5.75,49.2,13.35,15.2,7.15,3.09,25.4,5.2,38.03,1.02,6.05-.06,11.66-2.05,17.74-3.08,9.44-7.8,19.19-12.4,29.65-4.14,9.42-8.13,18.96-11.37,28.72-17.33,52.26-9.54,89.37-11.95,165.07"/><path class="cls-8" d="M37.21,23.52c3.12,40.22,6.16,93.63,8.51,128.05,1,14.63-4.2,29.24-7.11,43.31-.26,1.27-.55,2.53-.82,3.8-2.3,11.11-11.79,21.95-19.2,30.73-10.91,12.92-11.23,30.78-1.7,46.25,4.81,7.75,7.71,14.97,8.78,21.2,3.41,19.82-7.41,35.07-6.82,59.07.54,22.26,38.83,25.91,63.05,37.8,20.54,10.08,42.68,7.17,45.16-7.04,1.79-10.25,17.4-13.83,32.39-10.36,11.03,2.55,22.39,2.31,31.57.54,10.18-1.97,19.53-4.22,28.11-3.54,22.47,1.78,33.48,4.31,49.03,12,14.72,7.28,4.75,24.76,6.03,37.97.58,6.03-.53,11.82-2.26,17.85-2.77,9.67-7.13,19.51-11.5,29.9-3.96,9.42-7.87,18.91-11.06,28.6-17.06,52-9.54,87.08-11.56,163.84"/><path class="cls-5" d="M37.3,24.9c3.07,40,7.03,90.99,8.01,126.7.4,14.61-4.18,29.12-7.64,42.89-.32,1.26-.66,2.51-.99,3.76-2.93,11-11.76,21.79-18.74,30.95-10.47,13.73-12.24,30.97-2.82,45.99,4.79,7.59,7.75,14.66,9.08,20.9,4.32,20.2-5.08,36.01-4.28,59.42.74,21.45,36.88,29.04,61.7,40.2,21.28,9.56,43.15,7.35,44.32-7.18.84-10.44,16.23-13.73,31.73-11.07,10.96,1.88,22.45,1.93,31.5.58,10.21-1.53,19.5-3.34,27.98-2.93,21.96,1.06,33.92,2.87,48.85,10.65s6.47,24.15,6.86,37.91c.17,6.03-.99,11.97-2.46,17.96-2.44,9.9-6.45,19.83-10.6,30.14-3.78,9.41-7.62,18.85-10.74,28.49-16.78,51.73-9.54,84.79-11.18,162.61"/><path class="cls-16" d="M37.4,26.28c3.02,39.78,7.98,88.39,7.51,125.35-.18,14.61-4.16,28.98-8.16,42.46-.37,1.24-.77,2.48-1.17,3.72-3.53,10.9-11.72,21.64-18.28,31.17-10.01,14.54-13.25,31.16-3.94,45.74,4.77,7.43,7.8,14.35,9.39,20.59,5.23,20.57-2.81,36.95-1.74,59.78.89,20.64,34.92,32.17,60.35,42.6,22.02,9.03,43.63,7.52,43.47-7.33-.11-10.64,15.08-13.58,31.08-11.77,10.91,1.23,22.52,1.56,31.43.62,10.24-1.08,19.46-2.46,27.85-2.32,21.45.35,34.35,1.44,48.68,9.3s8.24,23.57,7.68,37.85c-.24,6.05-1.44,12.12-2.67,18.07-2.09,10.13-5.75,20.15-9.7,30.39-3.59,9.41-7.36,18.8-10.43,28.38-16.51,51.47-9.54,82.51-10.79,161.37"/><path class="cls-13" d="M37.49,27.66c2.97,39.55,8.99,85.83,7.01,124-.76,14.63-4.15,28.85-8.69,42.03-.42,1.23-.88,2.46-1.35,3.68-4.14,10.8-11.67,21.48-17.82,31.39-9.53,15.35-14.27,31.35-5.06,45.49,4.75,7.27,7.85,14.03,9.69,20.28,6.17,20.93-.47,37.89.8,60.14,1.09,19.83,32.97,35.28,59,45,22.75,8.49,44.11,7.69,42.63-7.47-1.06-10.84,13.95-13.38,30.43-12.48,10.89.6,22.58,1.19,31.37.66,10.26-.62,19.43-1.57,27.72-1.71,20.94-.36,34.77.02,48.51,7.94,13.28,7.7,10.05,23.04,8.51,37.79-.64,6.09-1.89,12.26-2.88,18.18-1.73,10.36-5.08,20.47-8.8,30.64-3.41,9.4-7.1,18.75-10.12,28.26-16.23,51.2-9.54,80.22-10.41,160.14"/><path class="cls-4" d="M37.59,29.05c4,54,15.98,116.75-2.7,164.26-11.3,28.74-40.63,57.07-25.07,80.48,20.77,31.26,11.42,52.42,13.33,80.47,2.44,35.79,105.44,72.79,99.44,39.79-3.3-18.15,38.94-12.17,61.08-12.48,35.92-.52,57.54-5.75,75.92,5.48,18,11,8.86,35.61,6.24,56.03-2.62,20.42-11.55,39.4-17.7,59.04-15.96,50.94-9.54,77.93-10.02,158.9"/></g></svg>