<?xml version="1.0" encoding="UTF-8"?><svg id="Layer_2" xmlns="http://www.w3.org/2000/svg" width="1605.99" height="497.68" xmlns:xlink="http://www.w3.org/1999/xlink" viewBox="0 0 1605.99 497.68"><defs><style>.cls-1{fill:url(#linear-gradient-38);}.cls-1,.cls-2,.cls-3,.cls-4,.cls-5,.cls-6,.cls-7,.cls-8,.cls-9,.cls-10,.cls-11,.cls-12,.cls-13,.cls-14,.cls-15,.cls-16,.cls-17,.cls-18,.cls-19,.cls-20,.cls-21,.cls-22,.cls-23,.cls-24,.cls-25,.cls-26,.cls-27,.cls-28,.cls-29,.cls-30,.cls-31,.cls-32,.cls-33,.cls-34,.cls-35,.cls-36,.cls-37,.cls-38,.cls-39,.cls-40,.cls-41,.cls-42,.cls-43{stroke-width:0px;}.cls-2{fill:url(#linear-gradient-12);}.cls-3{fill:url(#linear-gradient-17);}.cls-4{fill:url(#linear-gradient-19);}.cls-5{fill:url(#linear-gradient-33);}.cls-6{fill:url(#linear-gradient);}.cls-7{fill:url(#linear-gradient-21);}.cls-8{fill:url(#linear-gradient-6);}.cls-9{fill:url(#linear-gradient-42);}.cls-10{fill:url(#linear-gradient-15);}.cls-11{fill:url(#linear-gradient-11);}.cls-12{fill:url(#linear-gradient-5);}.cls-13{fill:url(#linear-gradient-31);}.cls-14{fill:url(#linear-gradient-34);}.cls-15{fill:url(#linear-gradient-41);}.cls-16{fill:url(#linear-gradient-40);}.cls-17{fill:url(#linear-gradient-13);}.cls-18{fill:url(#linear-gradient-23);}.cls-19{fill:url(#linear-gradient-25);}.cls-20{fill:url(#linear-gradient-43);}.cls-21{fill:url(#linear-gradient-16);}.cls-22{fill:url(#linear-gradient-22);}.cls-23{fill:url(#linear-gradient-35);}.cls-24{fill:url(#linear-gradient-32);}.cls-25{fill:url(#linear-gradient-20);}.cls-26{fill:url(#linear-gradient-14);}.cls-27{fill:url(#linear-gradient-2);}.cls-28{fill:url(#linear-gradient-7);}.cls-29{fill:url(#linear-gradient-39);}.cls-30{fill:url(#linear-gradient-3);}.cls-31{fill:url(#linear-gradient-9);}.cls-32{fill:url(#linear-gradient-27);}.cls-33{fill:url(#linear-gradient-36);}.cls-34{fill:url(#linear-gradient-8);}.cls-35{fill:url(#linear-gradient-24);}.cls-36{fill:url(#linear-gradient-26);}.cls-37{fill:url(#linear-gradient-18);}.cls-38{fill:url(#linear-gradient-30);}.cls-39{fill:url(#linear-gradient-29);}.cls-40{fill:url(#linear-gradient-28);}.cls-41{fill:url(#linear-gradient-10);}.cls-42{fill:url(#linear-gradient-4);}.cls-43{fill:url(#linear-gradient-37);}</style><linearGradient id="linear-gradient" x1=".31" y1="331.86" x2="1426.84" y2="331.86" gradientUnits="userSpaceOnUse"><stop offset="0" stop-color="#fafafa"/><stop offset=".04" stop-color="#faf5f0"/><stop offset=".12" stop-color="#fae9d7"/><stop offset=".21" stop-color="#fad6ad"/><stop offset=".32" stop-color="#fabb73"/><stop offset=".44" stop-color="#fa992b"/><stop offset=".51" stop-color="#fb8500"/><stop offset=".68" stop-color="#fb8500"/><stop offset=".87" stop-color="#fb8500"/><stop offset=".99" stop-color="#fb8500"/><stop offset="1" stop-color="#e87b00"/></linearGradient><linearGradient id="linear-gradient-2" x1=".3" y1="332.54" x2="1426.84" y2="332.54" xlink:href="#linear-gradient"/><linearGradient id="linear-gradient-3" x1=".28" y1="332.97" x2="1426.84" y2="332.97" xlink:href="#linear-gradient"/><linearGradient id="linear-gradient-4" x1=".27" y1="333.41" x2="1426.84" y2="333.41" xlink:href="#linear-gradient"/><linearGradient id="linear-gradient-5" x1=".25" y1="333.83" x2="1426.84" y2="333.83" xlink:href="#linear-gradient"/><linearGradient id="linear-gradient-6" x1=".24" y1="334.23" x2="1426.84" y2="334.23" xlink:href="#linear-gradient"/><linearGradient id="linear-gradient-7" x1=".22" y1="334.62" x2="1426.84" y2="334.62" xlink:href="#linear-gradient"/><linearGradient id="linear-gradient-8" x1=".21" y1="335.01" x2="1426.84" y2="335.01" xlink:href="#linear-gradient"/><linearGradient id="linear-gradient-9" x1=".19" y1="335.4" x2="1426.84" y2="335.4" xlink:href="#linear-gradient"/><linearGradient id="linear-gradient-10" x1=".18" y1="335.78" x2="1426.84" y2="335.78" xlink:href="#linear-gradient"/><linearGradient id="linear-gradient-11" x1=".16" y1="336.13" x2="1426.84" y2="336.13" xlink:href="#linear-gradient"/><linearGradient id="linear-gradient-12" x1=".15" y1="336.48" x2="1426.85" y2="336.48" xlink:href="#linear-gradient"/><linearGradient id="linear-gradient-13" x1=".13" y1="336.78" x2="1426.85" y2="336.78" xlink:href="#linear-gradient"/><linearGradient id="linear-gradient-14" x1=".12" y1="337.05" x2="1426.85" y2="337.05" xlink:href="#linear-gradient"/><linearGradient id="linear-gradient-15" x1=".1" y1="337.25" x2="1426.85" y2="337.25" xlink:href="#linear-gradient"/><linearGradient id="linear-gradient-16" x1=".09" y1="337.35" x2="1426.85" y2="337.35" xlink:href="#linear-gradient"/><linearGradient id="linear-gradient-17" x1=".07" y1="337.33" x2="1426.86" y2="337.33" xlink:href="#linear-gradient"/><linearGradient id="linear-gradient-18" x1=".06" y1="337.15" x2="1426.86" y2="337.15" xlink:href="#linear-gradient"/><linearGradient id="linear-gradient-19" x1=".04" y1="336.76" x2="1426.86" y2="336.76" xlink:href="#linear-gradient"/><linearGradient id="linear-gradient-20" x1=".03" y1="336.12" x2="1426.87" y2="336.12" xlink:href="#linear-gradient"/><linearGradient id="linear-gradient-21" x1=".01" y1="335.21" x2="1426.87" y2="335.21" xlink:href="#linear-gradient"/><linearGradient id="linear-gradient-22" x1="0" y1="333.94" x2="1426.88" y2="333.94" xlink:href="#linear-gradient"/><linearGradient id="linear-gradient-23" x1=".11" y1="337.03" x2="1435.33" y2="337.03" xlink:href="#linear-gradient"/><linearGradient id="linear-gradient-24" x1=".21" y1="339.84" x2="1443.78" y2="339.84" xlink:href="#linear-gradient"/><linearGradient id="linear-gradient-25" x1=".32" y1="336.6" x2="1452.22" y2="336.6" xlink:href="#linear-gradient"/><linearGradient id="linear-gradient-26" x1=".43" y1="331.37" x2="1460.66" y2="331.37" xlink:href="#linear-gradient"/><linearGradient id="linear-gradient-27" x1=".53" y1="326.14" x2="1469.1" y2="326.14" xlink:href="#linear-gradient"/><linearGradient id="linear-gradient-28" x1=".64" y1="320.91" x2="1477.53" y2="320.91" xlink:href="#linear-gradient"/><linearGradient id="linear-gradient-29" x1=".75" y1="315.68" x2="1485.97" y2="315.68" xlink:href="#linear-gradient"/><linearGradient id="linear-gradient-30" x1=".8" y1="310.52" x2="1494.34" y2="310.52" xlink:href="#linear-gradient"/><linearGradient id="linear-gradient-31" x1=".9" y1="305.29" x2="1502.77" y2="305.29" xlink:href="#linear-gradient"/><linearGradient id="linear-gradient-32" x1="1.01" y1="300.06" x2="1511.19" y2="300.06" xlink:href="#linear-gradient"/><linearGradient id="linear-gradient-33" x1="1.11" y1="294.84" x2="1519.62" y2="294.84" xlink:href="#linear-gradient"/><linearGradient id="linear-gradient-34" x1="1.22" y1="289.61" x2="1528.04" y2="289.61" xlink:href="#linear-gradient"/><linearGradient id="linear-gradient-35" x1="1.32" y1="284.39" x2="1536.46" y2="284.39" xlink:href="#linear-gradient"/><linearGradient id="linear-gradient-36" x1="1.43" y1="279.17" x2="1544.88" y2="279.17" xlink:href="#linear-gradient"/><linearGradient id="linear-gradient-37" x1="1.53" y1="273.95" x2="1553.31" y2="273.95" xlink:href="#linear-gradient"/><linearGradient id="linear-gradient-38" x1="1.64" y1="268.73" x2="1561.73" y2="268.73" xlink:href="#linear-gradient"/><linearGradient id="linear-gradient-39" x1="1.74" y1="263.51" x2="1570.14" y2="263.51" xlink:href="#linear-gradient"/><linearGradient id="linear-gradient-40" x1="1.85" y1="258.29" x2="1578.56" y2="258.29" xlink:href="#linear-gradient"/><linearGradient id="linear-gradient-41" x1="1.95" y1="253.17" x2="1586.98" y2="253.17" xlink:href="#linear-gradient"/><linearGradient id="linear-gradient-42" x1="2.06" y1="247.95" x2="1595.4" y2="247.95" xlink:href="#linear-gradient"/><linearGradient id="linear-gradient-43" x1="2.16" y1="242.73" x2="1603.82" y2="242.73" xlink:href="#linear-gradient"/></defs><g id="Layer_1-2"><path class="cls-6" d="m1426.46,208.85c-55.4,47.64-115.8,90.41-179.21,126.73-45.8,26.23-94.58,51.16-148.84,42.1-46.46-7.76-87.7-34.22-125.17-61.39-41.45-30.06-80.38-63.54-123.15-91.78-39.46-26.05-83.44-48.17-131.33-51.66-25.7-1.87-51.81,1.83-76.01,10.67-25.16,9.19-47.29,24.12-67.66,41.28-19.79,16.68-38.06,35.24-59.16,50.33-22.73,16.26-48.41,26.89-76.41,29.26-32.79,2.78-64.68-4.23-94.41-17.87-22.35-10.25-43.92-23.74-68.48-28.04-24.51-4.28-50.55,1.16-72.25,13.05-20.92,11.47-37.41,29.31-53.87,46.21-23.64,24.26-48.28,46.83-75.02,67.65-19.52,15.2-37.38,33.41-51.62,53.64-10.78,15.31-18.99,32.22-23.48,50.42-.46,1.87,2.43,2.67,2.89.8,8.85-35.9,32.55-65.51,59.38-90.02,20.17-18.42,42.53-34.16,62.43-52.97s38.07-40.29,59.2-58.09c20-16.85,44.6-27.87,70.97-29.08,26.45-1.22,49.67,10.04,72.74,21.48,25.52,12.66,51.46,23.04,80.11,25.65s57.62-1.43,83.62-14.03c22.51-10.91,41.61-27.3,60.11-43.87,19.91-17.84,39.73-35.98,63-49.43,24.58-14.21,52.34-22.65,80.71-24.25,49.27-2.78,95.8,16.14,137.16,41.35,43.75,26.66,82.97,59.89,123.83,90.62,36.89,27.74,76.27,55.47,121.15,68.39,20.75,5.98,42.52,8.3,64.01,5.68,24.4-2.97,47.17-12.48,69.09-23.22,63.61-31.16,123.32-72.15,179.03-115.67,13.19-10.3,26.12-20.92,38.8-31.83,1.47-1.26-.66-3.37-2.12-2.12h0Z"/><path class="cls-27" d="m1426.47,208.77c-47.79,38.84-98.15,74.38-151.06,105.94-24.35,14.52-49.25,28.34-75.15,39.93-25.52,11.42-51.96,19.81-80.23,19.48-64.15-.75-120.8-40-170.71-76.36-47.62-34.69-93.77-72.81-147.03-98.73-52.02-25.32-110.39-34.84-165.92-14.69-41.89,15.2-73.16,45.76-107.45,72.82-17.43,13.76-36.17,26.09-57.2,33.58-25.81,9.19-53.84,10.84-80.87,7.2-26.02-3.5-49.91-13.21-73.99-23.15-22.71-9.38-45.72-16.7-70.62-13.89-43.28,4.88-79.46,29.55-109.77,59.27-21.26,20.85-40.98,43.24-61.12,65.16-8.03,8.74-18.07,15.78-26.43,24.3-11.04,11.25-21.29,23.42-29.77,36.73-8.54,13.42-14.99,27.97-18.79,43.42-.46,1.87,2.43,2.67,2.89.8,8.36-34.01,30.11-62.3,55.12-86.04,8.98-8.52,18.11-16.01,26.47-25.16,10.76-11.78,21.5-23.57,32.43-35.19,30.1-31.98,61.44-61.66,104.29-74.87,28.02-8.64,54.62-6.89,81.8,3.32,22.5,8.45,44.05,19.02,67.55,24.63,48.49,11.59,98.14,4.53,139.78-23.09,35.96-23.85,65.08-56.74,103.64-76.87,53.37-27.86,114.36-26.13,169.18-3.47s102.32,60.68,149.74,95.81c47.41,35.12,98.51,73.45,157.8,84.54,29.06,5.44,58.4,2.84,86.22-7.03,22.99-8.15,44.97-19.22,66.37-30.85,53.72-29.2,105.28-63.29,153.7-100.6,10.54-8.12,20.92-16.42,31.24-24.81,1.5-1.22-.64-3.33-2.12-2.12h0Z"/><path class="cls-30" d="m1426.79,208.46c-47.98,36.89-97.51,71.32-149.99,101.55-23.87,13.75-48.24,26.77-73.48,37.84s-51.96,20.03-80.12,20.58c-62.98,1.22-119.58-34.13-169.62-68.59-48.41-33.33-94.79-70.52-147.59-96.89-51.47-25.7-108.89-37.93-165.27-21.4-43.73,12.82-77.28,41.98-112.94,68.8-17.4,13.09-35.77,25.15-56.19,33.02-25.23,9.72-52.29,12.46-79.14,10.44-26.96-2.02-52.25-9.99-77.69-18.61-22.48-7.62-45.2-14.02-69.19-11.46-43.63,4.66-80.71,28.74-111.46,58.61-20.69,20.1-39.84,41.77-59.23,63.1-8.23,9.05-18.19,16.44-26.75,25.24-11.17,11.48-21.56,23.91-30.01,37.53-8.06,12.98-14.15,26.99-17.78,41.84-.46,1.88,2.43,2.68,2.89.8,8.19-33.52,29.51-61.55,54.07-85.05,9.22-8.82,18.38-16.79,26.99-26.25,10.14-11.15,20.28-22.3,30.61-33.27,30.02-31.87,61.47-60.64,104.1-73.84,27.35-8.47,53.68-7.31,80.79,1.01,23.48,7.2,46.23,16.3,70.53,20.58,49.1,8.64,96.98.32,138.82-26.86,36.16-23.49,66.72-54.81,106.32-72.98,55.97-25.69,117.85-20.41,173.2,3.91,53.14,23.35,99.58,59.36,146.7,92.65,47.47,33.55,98.9,69.29,157.57,78.52,28.07,4.42,56.19,1.62,83.06-7.48,22.92-7.76,44.91-18.3,66.35-29.44,53.23-27.67,104.22-60.27,152.49-95.86,11.28-8.32,22.36-16.9,33.47-25.44,1.51-1.16.02-3.77-1.51-2.59h0Z"/><path class="cls-42" d="m1426.8,208.38c-47.96,34.88-96.69,68.07-148.57,96.93-24.92,13.86-50.38,26.96-76.72,37.93s-50.81,18.66-78.11,19.47c-62.94,1.86-120.03-31.42-170.91-64.86-48.29-31.74-94.57-67.24-146.55-92.94-51.4-25.41-108.36-38.77-165.1-24.48-44.52,11.21-79.6,38.79-116.31,64.8-18.08,12.81-36.99,24.68-57.81,32.54-24.94,9.41-51.39,12.42-77.92,11.23s-52.97-7.72-79.05-14.64c-22.54-5.98-45.14-10.69-68.56-7.55-43.91,5.9-80.98,29.89-112.03,60.26-20.43,19.98-39.24,41.55-58.5,62.65-7.7,8.43-17.05,15.39-24.95,23.73-10.48,11.06-20.22,22.98-28.2,35.99-7.79,12.71-13.68,26.43-17.2,40.93-.46,1.88,2.44,2.68,2.89.8,7.77-32.04,27.66-59.03,50.78-81.89,8.77-8.67,17.87-16.42,26.16-25.58,9.99-11.04,19.98-22.09,30.17-32.95,30.24-32.26,61.98-61.16,104.88-74.85,26.77-8.54,52.81-8.55,79.95-2.14,23.67,5.59,46.78,12.97,70.96,16.21,26.61,3.56,54.13,3.46,80.33-2.82,21.1-5.06,40.84-14.24,59.22-25.67,37.53-23.35,70.14-54.11,111.83-70.42,56.3-22.02,116.49-14.92,170.87,8.94,52.6,23.08,99.13,57.71,146.5,89.69,48.18,32.53,100.16,66.38,158.97,74.4,53.38,7.28,102.43-13.32,149.14-36.71,53.14-26.61,104.14-58.07,152.55-92.51,11.02-7.84,21.85-15.93,32.79-23.88,1.55-1.12.05-3.73-1.51-2.59h0Z"/><path class="cls-12" d="m1426.81,208.3c-48.82,33.61-97.84,66.15-150.24,94.04-24.84,13.22-50.19,25.66-76.36,36.04s-51.55,17.98-79.07,18.68c-61.99,1.6-118.7-29.26-169.74-61.19-48.15-30.13-94.29-63.94-145.44-88.99-50.93-24.94-107.14-39.35-163.72-27.62-45.44,9.42-82.24,35.24-120.13,60.46-18.52,12.33-37.67,23.91-58.54,31.83-25.15,9.54-51.59,13.02-78.4,12.58s-53.14-5.39-79.5-10.54c-22.04-4.31-44.22-7.62-66.65-4.25-43.87,6.6-81.39,29.93-112.69,60.35-20.01,19.45-38.48,40.47-57.11,61.22-7.49,8.34-16.5,15.27-24.2,23.46-10.48,11.14-20.2,23.16-28.11,36.27S3.72,476.52.3,490.67c-.45,1.88,2.44,2.68,2.89.8,7.69-31.79,27.32-58.7,50.24-81.42,8.52-8.45,17.13-16.14,25.17-25.08,9.83-10.93,19.68-21.85,29.74-32.56,15.47-16.46,31.48-32.76,49.79-46.1,16.58-12.08,34.98-21.12,54.48-27.47,26.17-8.52,51.92-9.42,78.87-4.83,23.26,3.96,46.18,9.51,69.72,11.78,27.14,2.61,54.98,2.07,81.54-4.55,21.38-5.33,41.45-14.58,60.32-25.83,38.06-22.71,72.13-51.75,114.63-66.3,56.86-19.46,116.36-10.85,170.46,12.82s98.65,56.09,146.25,86.71c47.94,30.84,99.39,62.16,156.94,69.8,53.47,7.1,102.96-12.39,150.3-35.03,53.07-25.39,104.08-55.64,152.65-88.79,11.42-7.8,22.65-15.87,34.04-23.71,1.58-1.09.08-3.69-1.51-2.59h0Z"/><path class="cls-8" d="m1426.82,208.22c-48.98,31.92-97.67,63.37-149.8,90.04-25.13,12.85-50.75,24.89-77.16,34.9-25.08,9.51-50.9,17.13-77.88,18.17-61.11,2.37-117.7-25.63-168.99-55.91-48.71-28.77-95.23-61.5-146.23-86.25-50.57-24.54-106.26-40.13-162.72-30.85-46.07,7.57-84.45,31.2-123.37,55.47-18.81,11.73-38.04,22.97-58.77,31-25.36,9.82-51.88,14-79.01,14.4-26.48.4-52.57-2.82-78.76-6.25-22.67-2.97-45.53-5.24-68.23-1.2-43.48,7.72-81.15,30.35-112.51,60.67-20.22,19.55-38.63,40.86-57.44,61.73-7.56,8.39-16.52,15.48-24.14,23.88-9.49,10.46-18.28,21.68-25.5,33.83S3.6,477.17.28,490.98c-.45,1.88,2.44,2.68,2.89.8,7.27-30.3,25.47-56.14,46.94-78.2,8.72-8.96,17.78-17.12,26.14-26.46,9.57-10.71,19.17-21.39,29-31.86,15.24-16.24,31.07-32.25,49.13-45.4s36.5-21.89,56.78-28.61c25.1-8.32,50.13-10.03,76.28-7.31,24.4,2.53,48.55,6.75,73.1,7.9,26.9,1.26,54.1-.02,80.21-6.98,21.15-5.63,41.09-14.8,60.05-25.61,38.68-22.06,74.25-49.27,117.57-62,57.79-16.98,117.1-6.56,171.27,17.29,51.47,22.66,98.06,54.7,145.9,83.9,48.16,29.39,99.75,58.36,156.78,64.78,53.03,5.97,102.71-13,150.04-34.76,52.56-24.16,103.18-53.02,151.54-84.72,11.53-7.56,22.88-15.4,34.43-22.92,1.61-1.05.11-3.65-1.51-2.59h0Z"/><path class="cls-28" d="m1426.83,208.15c-23.97,14.79-47.43,30.3-71.8,44.47-25.03,14.55-50.52,28.32-76.5,41.1s-50.32,23.73-76.41,33.32c-24.94,9.17-50.62,16.82-77.28,18.44-60.73,3.7-117.77-21.62-169.69-50.44-49.26-27.34-96.17-58.96-147.03-83.4-50.54-24.28-106.07-40.99-162.64-33.9-46.05,5.77-85.65,26.85-125.17,49.78-19.8,11.49-39.82,22.77-61.24,31.01-24.71,9.51-50.41,14.28-76.82,15.53s-53.15-.47-79.73-2.31c-22.48-1.56-45.26-2.65-67.52,1.66-43.45,8.41-82.11,30.7-113.8,61.03-19.68,18.84-37.67,39.43-55.71,59.81-7.4,8.36-16.03,15.52-23.55,23.81-9.97,11.01-19.18,22.85-26.62,35.74-6.78,11.74-11.9,24.28-15.04,37.47-.45,1.88,2.45,2.68,2.89.8,7.23-30.39,25.57-56.47,47.15-78.54,8.28-8.47,16.6-16.4,24.49-25.27,9.51-10.69,19.06-21.35,28.87-31.77,14.96-15.87,30.57-31.39,48.35-44.12,18.6-13.32,39.44-23,61.14-30.09,47.94-15.66,97.06-4.9,146.23-4.72,26.92.1,53.82-1.87,79.82-9.23,21.06-5.96,41.01-15.09,60.2-25.52,40.05-21.77,77.79-47.35,122.83-57.89,57.85-13.54,116.15-1.16,169.57,22.47,50.87,22.5,97.46,53.28,145.53,81,48.54,27.99,100.55,54.76,157.28,59.66,52.66,4.54,102.5-14.1,149.84-35.08,51.96-23.02,102.12-50.53,150.19-80.81,11.26-7.09,22.37-14.44,33.69-21.43,1.64-1.01.14-3.61-1.51-2.59h0Z"/><path class="cls-34" d="m1426.84,208.07c-23.72,13.85-46.86,28.6-70.86,41.99-25.18,14.06-50.8,27.35-76.89,39.65-25.2,11.88-50.85,22.93-77.15,32.17-24.81,8.71-50.34,16.04-76.68,17.85-60.7,4.17-118.17-19.25-170.89-46.88-49.01-25.68-95.72-55.64-145.81-79.27-49.71-23.45-103.96-40.66-159.56-36.33-46.96,3.66-88.57,22.69-129.52,44.61-20.15,10.79-40.35,21.63-61.71,29.88-24.53,9.47-49.98,15.02-76.19,17-27.2,2.06-54.39,1.64-81.63,1.36-22.37-.23-45.03.02-66.98,4.84-43.24,9.5-82.63,31.71-114.54,62.04-18.97,18.04-36.26,37.81-53.53,57.45-7.57,8.61-16.18,16.15-23.83,24.7-9.61,10.73-18.5,22.27-25.71,34.76-6.82,11.81-11.97,24.42-15.11,37.69-.44,1.88,2.45,2.68,2.89.8,7.05-29.89,24.94-55.74,46.04-77.57,8.44-8.73,16.81-17.12,24.87-26.23,9.07-10.26,18.21-20.47,27.62-30.42,14.76-15.61,30.24-30.76,47.83-43.2,18.88-13.36,40.07-23.14,61.88-30.7,47.36-16.41,97.45-9.51,146.54-11.22,26.59-.92,52.95-3.46,78.58-10.93,21.24-6.19,41.45-15.23,61.1-25.3,40.92-20.99,80.26-44.51,126.08-53.17,58.14-10.99,116.07,2.73,169.38,26.16,50.36,22.13,96.97,51.62,145.2,77.85,48.55,26.41,100.34,50.87,156.25,54.98,52.32,3.84,102.29-13.94,149.75-34.03,52.19-22.1,102.64-48.64,151.13-77.94,11-6.64,21.86-13.51,32.96-19.99,1.67-.97.16-3.57-1.51-2.59h0Z"/><path class="cls-31" d="m1426.85,207.99c-24.5,13.55-48.39,28.14-73.12,41.29-25.38,13.5-51.19,26.24-77.43,37.98-47.78,21.37-99.84,43.41-152.69,46.85-59.55,3.88-116.33-17.11-168.91-42.98-49.44-24.33-96.58-53.13-146.68-76.16-49.15-22.59-102.22-39.83-156.94-37.74-47.87,1.82-91.41,19.14-133.86,39.96-20.84,10.22-41.62,20.66-63.39,28.81-24.36,9.12-49.54,14.94-75.42,17.47-48.09,4.7-97.98,1.05-145.27,12.11-43.11,10.08-83.91,32.52-116.15,62.67-18.77,17.55-35.77,36.96-52.65,56.3-16.77,19.21-35.28,36.13-48.34,58.4-7.14,12.17-12.53,25.18-15.76,38.93-.44,1.88,2.45,2.68,2.89.8,6.97-29.67,24.61-55.58,45.56-77.28,17.62-18.25,33.93-37.67,51.42-56.06,14.74-15.51,30.31-30.39,47.95-42.59,19.5-13.48,41.49-23.63,63.74-31.63,46.13-16.6,96.14-13.46,144.31-16.79,26.39-1.82,52.38-4.91,77.81-12.46,21.44-6.37,41.98-15.3,62.11-24.97,41.88-20.12,82.85-41.49,129.43-48.28,57.41-8.37,114.28,6.02,166.82,28.63,50.32,21.65,97.32,50.03,145.99,74.99,48.74,25,100.5,47.48,155.86,50.92,51.98,3.23,102.02-13.58,149.59-32.77,51.41-20.74,101.22-45.73,149.26-73.36,11.8-6.79,23.46-13.84,35.37-20.43,1.69-.93.18-3.53-1.51-2.59h0Z"/><path class="cls-41" d="m1426.86,207.91c-24.46,12.81-48.3,26.74-72.92,39.26-24.95,12.69-50.28,24.64-76.01,35.66-48.44,20.75-100.77,41.67-153.84,45.53-59.07,4.29-115.98-14.66-168.93-39.04-49.86-22.96-97.45-50.57-147.57-72.98-49.06-21.93-101.52-39.16-155.81-38.83-48.2.29-93.1,15.71-136.62,35.11-21.56,9.61-42.96,19.63-65.18,27.66-24.7,8.93-50.09,14.98-76.18,18.03-48.11,5.63-97.82,5.62-144.77,18.57-42.13,11.62-82.75,34.09-114.74,63.82-18.71,17.39-35.6,36.69-52.29,55.98-16.43,18.99-34.32,35.93-46.92,58-6.72,11.76-11.78,24.29-14.85,37.49-.44,1.88,2.46,2.68,2.89.8,6.8-29.22,23.99-54.93,44.51-76.42,17.2-18.02,33.04-37.27,50.24-55.32,14.6-15.32,30.09-29.9,47.55-41.92,19.72-13.57,41.93-24.15,64.2-32.79,45.42-17.62,95.19-18.19,143.07-22.95,26.35-2.62,52.3-6.14,77.75-13.7,21.42-6.36,42.07-14.93,62.46-24,43.84-19.51,87.14-39.23,135.49-44.1,56.34-5.68,111.84,9.27,163.4,30.95,50.24,21.12,97.57,48.36,146.61,71.99,49.37,23.78,101.64,44.55,157.01,47.02,52.11,2.32,102.64-14.09,150.66-32.67,50.76-19.65,100.05-43.35,147.73-69.57,11.52-6.34,22.93-12.89,34.58-18.99,1.71-.9.2-3.49-1.51-2.59h0Z"/><path class="cls-11" d="m1426.87,207.84c-24.51,12.14-48.39,25.46-73.01,37.4s-51.89,24.21-78.42,34.94c-48.48,19.6-100.38,38.92-152.99,42.59-114.27,7.97-214.52-61.39-314.92-104.98-48.69-21.14-100.23-38.24-153.74-39.78-49.55-1.43-96.57,12.41-142.05,30.77-45.83,18.5-90.83,37.19-140.17,44.05s-98.09,9.89-144.96,24.61c-23.73,7.45-46.57,18.78-68.15,31.05-16.94,9.63-32.5,21.38-46.8,34.59-18.39,16.98-34.95,35.88-51.22,54.85-16.22,18.9-33.72,36.05-46,58.03-6.42,11.49-11.27,23.7-14.22,36.53-.43,1.88,2.46,2.68,2.89.8,6.44-27.99,22.46-52.85,41.76-73.78,16.99-18.42,33-37.76,50.31-55.91,14.73-15.44,30.43-30.03,48.08-42.09,19.62-13.41,41.5-24.31,63.36-33.53,44.73-18.88,94.09-22.97,141.75-29.07,25.86-3.31,51.42-7.08,76.52-14.36,22.71-6.59,44.71-15.28,66.57-24.24,44.77-18.36,89.47-35.68,138.29-38.85,55.87-3.63,110.8,11.87,162.01,32.9,98.33,40.37,192.56,107.48,302.02,111.82,52.04,2.06,102.72-13.28,151.08-30.99,51.37-18.81,101.32-41.74,149.75-67.14,11.25-5.9,22.4-11.98,33.78-17.61,1.73-.86.21-3.45-1.51-2.59h0Z"/><path class="cls-2" d="m1426.88,207.76c-24.05,11.27-47.52,23.72-71.63,34.87-25.68,11.87-51.7,23.02-78.1,33.19-48.29,18.62-99.55,36.62-151.47,40.98-113.95,9.57-215.2-54.09-316.1-96.78-48.17-20.38-98.64-37.48-151.17-41.1-50.41-3.47-99.24,7.85-146.39,24.74-46.53,16.66-92.07,35.28-141.13,43.33-48.56,7.97-97.94,13.63-144.64,29.9-24.03,8.37-46.5,20.35-68.6,32.87-17.24,9.77-33.18,21.55-47.82,34.9-18.02,16.43-34.21,34.79-50,53.33-16.04,18.82-33.3,36.31-45.43,58.1-6.42,11.54-11.25,23.8-14.19,36.68-.43,1.88,2.46,2.68,2.89.8,6.48-28.34,22.7-53.58,42.31-74.71,16.48-17.76,31.53-36.78,48.34-54.27,32.25-33.54,70.59-58.19,113.11-76.95,43.65-19.26,91.72-26.34,138.48-33.65,26.87-4.2,53.39-8.69,79.51-16.41,22.99-6.8,45.4-15.27,67.85-23.65,45.82-17.1,92.22-31.81,141.59-32.66,54.99-.95,108.71,14.99,159.25,35.34,98.3,39.58,193.82,101.91,302.93,104.11,51.32,1.03,101.67-13.58,149.71-30.33,50.67-17.67,100.04-39.23,148.05-63.16,11.37-5.67,22.67-11.5,34.18-16.89,1.75-.82.23-3.41-1.51-2.59h0Z"/><path class="cls-17" d="m1426.89,207.68c-24.82,11.01-49.1,23.2-73.99,34.07-25.89,11.31-52.11,21.88-78.68,31.5-48.95,17.72-100.63,34.45-152.87,38.18-111.77,7.98-212.18-49.57-312.23-90.34-48.53-19.78-98.98-36.71-151.47-41.37-50.89-4.51-100.84,5.03-149.17,20.4-48.03,15.27-94.95,33.19-144.77,42.05-47.65,8.48-95.65,17.03-140.87,34.84-23.83,9.38-45.87,22-67.92,34.94-17.34,10.18-33.5,21.99-48.35,35.55-17.45,15.94-33.17,33.69-48.41,51.73-15.81,18.72-32.72,36.43-44.47,58.15-6.1,11.27-10.71,23.19-13.53,35.7-.42,1.88,2.47,2.68,2.89.8,6.15-27.2,21.26-51.66,39.73-72.28,16.24-18.12,31.39-37.18,48.28-54.73,32.1-33.35,70.91-58.57,112.64-78.4,43.19-20.53,90.51-30.62,137.27-39.2,26.4-4.85,52.59-9.6,78.43-17,23.17-6.64,45.91-14.61,68.74-22.3,47.22-15.9,95.24-28.89,145.48-28.44,54.6.49,107.86,16.32,158.36,35.95,98.38,38.23,194.46,95.88,302.83,97.68,50.87.84,100.96-12.54,148.95-28.23,50.97-16.66,100.71-37.22,149.2-60.08,11.79-5.56,23.51-11.29,35.43-16.57,1.76-.78.24-3.37-1.51-2.59h0Z"/><path class="cls-26" d="m1427.26,207.45c-24.72,10.36-48.94,21.85-73.72,32.1-25.15,10.4-50.58,20.14-76.31,29.01-48.7,16.79-99.64,32.27-151.18,36.8-111.83,9.85-213.53-42.43-314.51-82.17-48.99-19.28-99.46-36.26-152-42.29-50.72-5.82-101.24,1.18-150.23,14.54s-95.65,30.46-144.96,40.46c-47.41,9.62-94.61,19.72-139.37,38.58-23.52,9.91-45.38,22.42-67.03,35.87-18.38,11.41-36.05,23.29-52.19,37.77-17.47,15.67-33.17,33.21-48.24,51.16-16.03,19.09-33.05,37.55-44.7,59.8-5.69,10.87-9.99,22.33-12.67,34.31-.42,1.88,2.47,2.68,2.89.8,6.05-27.14,20.98-51.5,39.24-72.19,15.93-18.05,30.7-37.02,47.51-54.31,14.97-15.4,31.15-29.56,48.95-41.61,21.12-14.29,43.34-28.07,66.27-39.27,42.45-20.72,88.04-33.2,134.12-42.81,26.14-5.45,52.16-10.67,77.88-17.91,23.44-6.6,46.61-14.13,69.94-21.11,48.38-14.47,97.89-25.15,148.69-22.99,53.74,2.29,106.02,17.97,156.06,36.76,98.54,37.01,195.42,90.1,303.27,90.86,50.3.35,99.97-11.98,147.76-26.65,50.22-15.41,99.31-34.53,147.32-55.82,12.66-5.61,25.22-11.45,38-16.8,1.75-.74.98-3.64-.8-2.89h0Z"/><path class="cls-10" d="m1427.27,207.37c-49.71,19.67-98.5,40.86-149.41,57.41-49.62,16.13-101.27,30.69-153.45,35.03-111.3,9.27-213.35-38.29-314.91-76.39-48.83-18.32-98.83-34.76-150.73-41.54-51.26-6.7-102.7-1.51-152.83,10.23-49.94,11.7-98.61,28.17-148.77,39.01-46.84,10.13-93.01,22.74-136.54,43.12-22.79,10.67-44.11,23.54-65.11,37.37-18.39,12.11-36.41,24.29-52.81,39.06-17.62,15.86-33.45,33.59-48.55,51.83-15.23,18.4-31.1,36.38-42,57.83-5.38,10.6-9.46,21.72-12.01,33.34-.41,1.88,2.48,2.69,2.89.8,5.77-26.25,19.79-49.97,37.1-70.28,15.33-18,29.86-36.59,46.32-53.61,15.04-15.56,31.34-29.83,49.14-42.16,20.97-14.52,42.52-28.9,65.07-40.87,41.51-22.03,85.97-36.97,131.6-47.81,26.33-6.25,52.75-11.76,78.87-18.85,23.86-6.48,47.55-13.53,71.45-19.85,49.74-13.15,100.74-21.95,152.36-18.54,53.5,3.54,105.5,19.03,155.68,37.14,98.49,35.56,195.71,84,302.7,84.38,50.78.18,101.05-11.39,149.59-25.4,51.11-14.74,101.14-33.22,150.16-53.83,11.64-4.89,23.23-9.91,34.97-14.55,1.77-.7,1-3.6-.8-2.89h0Z"/><path class="cls-21" d="m1427.28,207.3c-49.84,18.62-98.9,38.57-149.86,54.09-49.45,15.06-100.59,28.3-152.25,32.69-110.33,9.37-212.51-32.75-314.17-69.18-49.68-17.8-100.25-34.25-152.62-41.9-50.71-7.4-101.95-4.46-152.15,5.15-50.46,9.66-99.65,24.91-149.61,36.75-46.73,11.07-92.34,24.92-135.41,46.47-21.73,10.87-42.39,23.41-62.38,37.22-18.76,12.96-37.7,25.72-54.88,40.77-17.75,15.55-33.76,32.96-48.81,51.11s-32.01,37.94-43.1,60.04c-5.35,10.65-9.38,21.83-11.92,33.48-.41,1.88,2.48,2.69,2.89.8,5.76-26.43,19.67-49.85,36.75-70.53,15.38-18.63,30.21-37.55,47.22-54.77,15.75-15.95,32.9-30.13,51.29-42.93,20.9-14.54,41.59-29.28,63.85-41.7,41.12-22.94,85.16-39.47,130.72-51.15,25.74-6.6,51.65-12.51,77.35-19.28,24.2-6.37,48.38-12.87,72.8-18.37,50.44-11.35,102.21-17.57,153.89-12.67s103.85,20.19,153.64,37.46c98.7,34.22,196.54,78.12,303.02,77.63,50.57-.23,100.75-10.93,149.38-24.06,50.87-13.73,100.77-31.05,149.76-50.4,11.77-4.65,23.51-9.4,35.37-13.84,1.79-.67,1.02-3.57-.8-2.89h0Z"/><path class="cls-3" d="m1427.29,207.22c-98.7,34.77-198.46,72.93-303.77,81.33-55.56,4.43-111.13-2.39-165.03-15.98-50.73-12.79-99.93-30.74-149.42-47.53s-100.56-32.93-152.8-41.13c-50.91-7.99-102.57-6.73-153.41,1.16-51.47,7.99-101.74,22.08-152.17,34.81-46.57,11.75-91.6,27.65-133.85,50.69-21.3,11.62-41.67,24.72-61.29,39.01-19.18,13.97-38.64,27.77-56.33,43.63s-33.05,32.73-47.73,50.75c-14.82,18.19-29.88,36.63-40.17,57.86-5.02,10.37-8.82,21.21-11.23,32.47-.4,1.88,2.49,2.69,2.89.8,5.46-25.5,18.43-48.28,34.5-68.56,14.59-18.42,29.08-36.76,45.52-53.6,16.1-16.49,33.68-30.96,52.19-44.63,20.44-15.09,40.77-30.16,62.54-43.3,40.48-24.43,83.98-42.97,129.46-55.84,49.86-14.11,100.72-27.13,151.62-36.88,51.33-9.83,103.92-14.06,156.01-8.26,52.48,5.85,103.53,20.72,153.51,37.23,99.08,32.73,197.48,72.49,303.57,71.67,51.1-.4,101.88-10.32,151.27-22.76,50.55-12.73,100.23-28.88,149.12-46.94,11.91-4.4,23.79-8.9,35.76-13.12,1.81-.64,1.03-3.54-.8-2.89h0Z"/><path class="cls-37" d="m1427.3,207.14c-99.9,33.17-200.96,68.38-306.81,75.99-54.72,3.93-109.53-1.71-162.95-13.81-51-11.56-100.63-28.23-150.38-44.17s-100.34-31.42-152.15-40.16-104.51-9.2-156.59-2.83c-51.17,6.27-101.3,18.68-151.01,32.03-45.64,12.26-89.4,29.28-130.42,52.88-20.93,12.04-41.09,25.42-60.36,39.96-19.56,14.75-39.32,29.6-57.62,45.92-17.26,15.39-33.08,32.31-47.68,50.24-15.01,18.42-30.04,37.45-40.26,59.03-4.9,10.35-8.62,21.16-10.97,32.37-.4,1.88,2.5,2.69,2.89.8,5.19-24.69,17.33-46.89,32.47-66.87s30.25-38.78,47.61-56.31c16.04-16.19,33.59-30.35,51.51-44.36,20.59-16.1,41.34-31.82,63.44-45.81,39.36-24.91,81.68-44.6,126.25-58.19,49.46-15.08,100.58-27.51,151.68-35.53,52.2-8.2,105.55-10.28,158.04-3.47,52.31,6.79,103.29,21.4,153.49,37.2,99.02,31.15,197.58,66.5,302.83,65.33,50.33-.56,100.39-9.26,149.33-20.53,51.26-11.8,101.7-27.01,151.43-44.1,12.35-4.24,24.66-8.59,37.05-12.7,1.82-.61,1.04-3.5-.8-2.89h0Z"/><path class="cls-4" d="m1427.31,207.06c-101.19,31.61-203.69,63.81-310.2,70.65-54.74,3.51-109.59-1.24-163.26-12.25-51.66-10.6-102.08-26.24-152.53-41.42-50.65-15.24-101.6-30.16-153.82-39.03-50.89-8.65-102.8-10.41-154.2-5.73-50.61,4.61-100.43,15.38-149.27,29.21-45.59,12.92-88.93,31.42-129.39,56.14-40.84,24.95-78.96,55.08-114.7,86.85-17.6,15.65-33.94,32.67-48.84,50.9-15.18,18.59-30.09,38.14-40.23,60-4.83,10.42-8.47,21.26-10.8,32.51-.39,1.88,2.5,2.69,2.89.8,5.17-24.92,17.19-46.94,32.03-67.37,14.45-19.91,30.14-38.84,47.52-56.27,16.79-16.84,35.19-31.81,53.55-46.89,19.51-16.02,39.45-31.39,60.46-45.39,82.41-54.91,179.64-83.57,277.43-95.43,51.82-6.28,104.52-6.35,156.23.99,51.74,7.34,102.3,21.36,152.3,36.21s99.12,30.57,149.66,42.25c50.61,11.69,102.24,18.59,154.25,18.06,51.11-.52,102-8.38,151.92-18.93,51.47-10.87,102.22-25.04,152.33-41,12.49-3.98,24.94-8.05,37.45-11.96,1.84-.57,1.05-3.47-.8-2.89h0Z"/><path class="cls-25" d="m1427.32,206.99c-101.94,29.93-205.27,58.74-311.87,65.19-54.8,3.32-109.66-.44-163.66-10.17-51.07-9.2-101.07-23.28-150.95-37.39-50.47-14.28-101.03-28.68-152.67-38.17-50.9-9.35-102.83-13.13-154.54-10.44-98.03,5.1-196.22,31.55-279.31,84.62-41.1,26.25-78.7,57.71-114.84,90.35-17.98,16.25-34.92,33.66-50.2,52.49s-28.47,36.98-38.16,58.03c-4.97,10.8-8.7,22.04-11.07,33.7-.38,1.88,2.51,2.69,2.89.8,9.77-48.19,44.57-89.64,78.41-123.63,17.24-17.32,35.88-33.18,54.45-49.04,19.36-16.54,39.32-32.35,60.23-46.89,38.73-26.93,80.58-49.31,125.33-64.46,49.16-16.64,100.75-27.29,152.46-31.61,52.33-4.38,105.26-2.19,157.1,6.15,51.14,8.23,101.21,21.86,151.01,35.89,49.49,13.94,98.9,28.4,149.31,38.7,50.99,10.42,102.82,16.08,154.9,15.21,103.11-1.72,205.64-26.31,304.11-55.22,12.62-3.71,25.22-7.51,37.84-11.22,1.85-.54,1.06-3.44-.8-2.89h0Z"/><path class="cls-7" d="m1427.33,206.91c-103.51,28.52-208.69,54.18-316.32,59.89-54.35,2.88-108.83.06-162.58-8.5-51.31-8.18-101.71-21.05-151.91-34.31-101.17-26.72-202.49-53.18-308.02-50.8-51.19,1.16-102.25,8.7-151.23,23.78-44.89,13.82-86.97,34.87-125.9,61.05-40.82,27.45-77.88,59.91-113.77,93.43-34.09,31.84-68.42,68.19-87.32,111.47-4.58,10.49-8.02,21.34-10.24,32.56-.37,1.89,2.52,2.69,2.89.8,9.6-48.52,43.31-89.35,77.19-123.69s72.93-68.89,113.11-98.2c37.76-27.55,78.62-51.05,122.62-67.1,48.88-17.83,100.7-27.47,152.59-30.33,52.7-2.91,105.74,1.02,157.73,9.89,50.66,8.64,100.43,21.73,150.07,34.87,49.75,13.17,99.54,26.51,150.19,35.82,51.24,9.42,103.19,14.12,155.3,13.27,104.77-1.71,208.68-23.76,309.49-50.91,12.32-3.32,24.61-6.72,36.91-10.11,1.86-.51,1.07-3.41-.8-2.89h0Z"/><path class="cls-22" d="m1427.34,206.83c-105.36,27.21-212.7,49.58-321.68,54.61-53.7,2.47-107.57.57-160.84-6.83-52.43-7.28-104.06-19.24-155.42-31.89-99.05-24.39-198.51-51.04-301.2-52.46-49.68-.68-99.72,4.56-147.44,18.79-45.77,13.65-88.45,35.83-127.66,62.91s-76.67,60.17-111.65,94.02c-35.26,34.12-71.81,70.73-91.28,116.62-4.54,10.71-7.94,21.77-10.14,33.19-.36,1.89,2.53,2.69,2.89.8,9.76-50.61,44.14-91.59,79.29-127.37,35.16-35.8,72.34-70.21,112.52-100.34,38.56-28.91,80.5-53.73,125.96-70.08,47.43-17.06,97.76-24.58,148.03-25.5,102.65-1.87,202.59,23.18,301.46,47.75,50.43,12.53,100.99,24.86,152.32,33.2,51.06,8.3,102.66,11.96,154.38,11.09,105.42-1.77,209.79-20.83,311.97-45.74,13.12-3.2,26.21-6.5,39.28-9.88,1.87-.48,1.08-3.38-.8-2.89h0Z"/><path class="cls-18" d="m3.03,496.02c9.19-50.14,40.8-92.03,75.9-127.48,35.65-36.02,74.97-69.36,116.57-98.31,41.12-28.61,85.94-53.12,134.01-67.79,49.83-15.21,102.98-20.88,154.89-22.2,105.31-2.68,210.39,15.32,312.04,41.63,49.59,12.84,98.36,29.09,148.76,38.65,48.89,9.27,99.15,11.64,148.81,9.89,103.75-3.66,205.96-26.79,304.63-58.06,12.68-4.02,25.31-8.19,37.9-12.46,1.82-.62,1.04-3.52-.8-2.89-101.61,34.49-206.7,61.63-314.09,68.97-51.32,3.51-103.46,2.8-154.41-4.75-51.2-7.58-100.59-23.35-150.38-37-101.46-27.82-206.74-47.26-312.22-47.24-50.92,0-102.22,4.55-151.87,16.13-49.04,11.43-95.18,33.33-137.5,60.32-42.56,27.14-81.5,59.46-118.49,93.71-34.57,32-67.8,68.13-86.06,112.21-4.8,11.58-8.34,23.56-10.6,35.89-.35,1.89,2.54,2.7,2.89.8h0Z"/><path class="cls-35" d="m3.13,495.44c8.88-50.98,39.41-94.6,75.32-130.61,36.28-36.39,77.88-68.69,121.23-96.19,43.53-27.62,91.18-51.12,141.49-63.31,26.35-6.39,53.89-10.12,80.86-12.82,26.03-2.6,52.17-4.58,78.32-5.56,107.68-4.02,218.98,5.6,322.61,36.26,47.73,14.12,93.83,33.86,142.75,43.82,46.77,9.53,95.72,10.83,143.26,8.22,102.33-5.62,202.41-32.99,297.65-69.79,12.86-4.97,25.64-10.13,38.36-15.43,1.76-.73.99-3.64-.8-2.89-98.28,40.96-201.51,73.26-307.95,83.1-48.74,4.51-98.19,4.36-146.75-2.2-50.89-6.87-98.55-26.27-147.1-41.95-102.48-33.08-212.98-44.64-320.32-42.74-52.09.92-104.34,5.24-155.73,13.85-51.23,8.58-99.96,28.93-144.83,54.73-45.05,25.91-86.73,57.48-125.42,92.11-35.26,31.56-67.45,68.62-85.19,113.03-4.85,12.14-8.39,24.69-10.63,37.56-.33,1.89,2.56,2.7,2.89.8h0Z"/><path class="cls-19" d="m3.24,494.86c8.86-53.29,39.72-99.58,77.75-136.82,38.12-37.34,83.05-69.07,129.53-95.08,46.82-26.2,98.56-48.12,151.94-56,26.01-3.84,52.72-6.52,78.96-8.09,26.04-1.57,52.01-4.23,78.08-5.59,55.37-2.88,110.98-3.17,166.29,1.14s110.42,12.37,162.44,30.71c46.55,16.42,90.8,39.76,139.62,49.14,44.69,8.59,91.59,9.07,136.83,5.5,100.94-7.97,198.65-39.85,290.43-81.48,12.97-5.88,25.84-11.99,38.63-18.26,1.73-.85.21-3.44-1.51-2.59-95.73,46.93-197.82,84.75-304.27,97.06-46.56,5.39-93.78,5.75-140.31-.16-50.74-6.45-96.19-28.39-143.43-46.5-50.1-19.2-102.95-29.03-156.2-34.44-55.86-5.67-112.15-6.28-168.22-4.06-52.38,2.07-104.6,6.82-156.73,12.12s-103.43,22.69-150.79,46.54c-47.62,23.98-91.94,54.28-132.5,88.85-37.68,32.11-70.81,71.32-88.76,117.95-4.89,12.71-8.43,25.83-10.67,39.27-.31,1.89,2.58,2.7,2.89.8h0Z"/><path class="cls-36" d="m3.34,494.28c8.59-54.16,38.48-102.18,77.19-140.15,39.28-38.53,87.29-69.68,136.38-94.16,50.27-25.08,106.2-45.34,162.61-49.34,26.02-1.84,52.08-3.05,78.1-4.86s53.32-4.57,80-6.51c56.35-4.1,112.95-6.71,169.43-3.97s113.64,10.45,165.93,32.84c44.2,18.92,85.9,44.65,133.96,52.88,42.83,7.34,87.14,7.63,130.29,3.25,100.55-10.19,196.8-46.83,285.99-93.05,13.1-6.79,26.07-13.82,38.94-21.03,1.68-.94.17-3.54-1.51-2.59-92.72,51.96-192.76,95.13-298.59,110.6-45.11,6.6-91.06,7.82-136.36,2.44-25.2-2.99-49.21-9.23-72.68-18.88-22.99-9.46-44.98-21.11-67.6-31.39-101.47-46.12-218.85-42.59-327.74-35.49-52.9,3.45-105.67,9.24-158.62,11.7-27.7,1.29-54.3,4.68-81.13,11.84-26.34,7.03-52.05,16.02-77.01,26.99-50.66,22.27-98.44,51.73-140.97,87.17-38.86,32.38-71.65,73.18-89.17,121.03-4.74,12.94-8.15,26.27-10.31,39.88-.3,1.89,2.59,2.7,2.89.8h0Z"/><path class="cls-32" d="m3.45,493.7c17.59-115.69,119.25-192.42,219.84-236.72,53.47-23.55,112.63-41.41,171.43-41.69,53.33-.25,106.07-5.1,159.12-10.3,58.37-5.72,117.02-10.94,175.73-9.44,56.85,1.45,113.29,9.27,164.44,35.29,42.44,21.59,81.88,49.06,129.95,56.49,41.41,6.4,83.65,6.47,125.2,1.26,100.4-12.6,195.3-54.08,282.15-104.51,13.23-7.68,26.31-15.62,39.27-23.75,1.63-1.02.13-3.62-1.51-2.59-90.53,56.78-189.33,105.65-295.44,124.18-43.52,7.6-88.05,9.67-131.99,4.76-24.71-2.76-48.19-8.38-70.93-18.59-22.1-9.92-42.81-22.57-64.12-34.03s-44.53-22.06-68.71-28.15c-27.22-6.86-55.23-10.49-83.22-12.25-59.35-3.74-118.95.64-178.05,6.16-28.07,2.62-56.11,5.6-84.19,8.16-25.75,2.34-51.95,4.24-77.82,4.36-28.03.13-54.99,1-82.53,6.74-28.82,6-57.09,14.18-84.58,24.73-52.53,20.17-102.74,47.99-146.44,83.58-39.74,32.36-72.22,74.23-89.67,122.7-5.01,13.91-8.58,28.22-10.8,42.83-.29,1.89,2.6,2.7,2.89.8h0Z"/><path class="cls-40" d="m3.55,493.12c8.34-57.31,37.69-109.78,79.05-149.87,42.52-41.21,97.24-70.75,152.36-91.28,27.98-10.42,56.79-18.63,86.1-24.31,15.85-3.07,32.03-7.39,48.23-7.77,14.12-.33,28.37,1.86,42.51,2.21,13.48.33,26.77-.62,40.21-1.3s25.73-.35,38.62-1.46c27.49-2.38,54.88-5.9,82.26-9.35,59.84-7.54,120.01-15.32,180.44-14.78,30.28.27,60.7,2.72,90.27,9.49,25.5,5.83,48.86,16.53,71.21,29.97,20.26,12.18,39.58,25.92,60.43,37.11,20.49,11,41.89,18.36,64.92,21.75,39.52,5.82,79.7,5.24,119.18-.57,100.93-14.85,195.11-61.66,280.18-116.18,13.31-8.53,26.44-17.32,39.44-26.3,1.58-1.09.08-3.69-1.51-2.59-88.8,61.36-186.73,116.07-293.53,137.73-41.53,8.42-84.22,11.35-126.43,7.07-24.11-2.45-47.24-7.31-69.27-17.7-21.69-10.23-41.47-23.91-61.72-36.64s-41.29-24.46-64.19-31.74c-27.06-8.6-55.94-12.11-84.21-13.63-60.99-3.29-122.16,3.71-182.6,11.19-28.24,3.5-56.45,7.27-84.75,10.24-25.98,2.73-52.05,3.68-78.15,4.61-28.38,1.02-56.8-4.65-84.9.43-29.55,5.35-58.92,11.58-87.57,20.67-105.47,33.49-211.38,99.32-249.03,208.79-4.86,14.13-8.31,28.64-10.46,43.42-.27,1.89,2.62,2.7,2.89.8h0Z"/><path class="cls-39" d="m3.66,492.54c8.37-59.85,38.27-115.24,81.99-156.71,44.76-42.46,103.16-70.51,161.63-88.48,29.56-9.09,59.7-15.25,90.29-19.67,15.22-2.2,30.65-5.62,46.11-4.19,14.32,1.33,28.37,4.86,42.7,6.24,6.03.58,12.11.83,18.16.36s12.34-2.57,18.57-2.91c6.55-.35,13.13.53,19.67.57s13.63-.68,20.39-1.31c27.61-2.56,55.05-6.77,82.44-11.03,62.25-9.68,124.86-20.57,188.04-21.09,31.4-.26,63.39,2.01,93.74,10.52,24.22,6.78,45.94,19.46,66.42,33.77,19.04,13.31,37.23,27.94,57.44,39.51,19.62,11.23,40.27,18,62.62,21.24,38.48,5.57,77.63,4.36,115.91-2.23,101.38-17.46,194.63-69.44,277.97-127.7,13.39-9.36,26.59-18.99,39.65-28.81,1.52-1.15.03-3.75-1.51-2.59-87.3,65.65-184.41,126.2-292.01,151.17-40.25,9.34-81.84,13.11-123.04,9.2-22.64-2.15-44.76-6.27-65.4-16.19-21.59-10.37-40.66-25-59.98-38.97s-38.45-26.77-60.25-35.5c-26.43-10.58-55.58-14.39-83.84-15.84-62.76-3.22-125.65,6.47-187.48,16.09-29.91,4.65-59.8,9.6-89.87,13.22-12.68,1.53-25.62,3.29-38.41,3.58-7.16.16-14.31-.82-21.47-.62-5.91.17-11.47,2.1-17.34,2.72-28.84,3.07-56.62-9.17-85.58-5.7-29.57,3.53-59.25,8.51-88.13,15.82-59.58,15.09-118.06,39.81-167.03,77.46-43.36,33.34-76.74,79-94.33,130.86-5.12,15.1-8.73,30.62-10.94,46.41-.26,1.89,2.63,2.7,2.89.8h0Z"/><path class="cls-38" d="m3.81,491.56c8.31-61.9,38.65-120.01,84.28-162.59,45.85-42.79,106.16-68.99,166.3-84.33,32.41-8.27,65.14-12.51,98.33-16.14,16.07-1.75,31.48-3.28,47.48-.06,13.69,2.76,27.25,6.61,41.17,8.03,12.54,1.27,24.07-2.87,36.37-2.28,13.96.67,27.19.51,41.1-1,27.82-3.02,55.4-8.05,82.9-13.18,64.55-12.04,129.61-26.1,195.54-27,30.46-.42,62.3,1.73,91.25,11.89,24.29,8.53,45.27,23.53,65.12,39.59,17.83,14.43,35.17,29.75,55.06,41.35,18.89,11.01,39.05,16.71,60.6,19.6,37.36,5.02,75.34,2.89,112.23-4.6,102.19-20.74,194.65-78.35,276.63-140.52,12.82-9.72,25.45-19.67,37.95-29.8,1.5-1.22-.63-3.33-2.12-2.12-86.33,69.96-183.27,136.63-292.29,164.72-38.73,9.98-78.95,14.43-118.87,10.84-22.1-1.98-43.92-5.91-63.9-15.98-21.83-11-40.44-27.07-59.26-42.44-18.02-14.72-36.65-29.03-58.01-38.6-25.76-11.55-54.55-15.48-82.55-16.64-64.44-2.68-128.9,10.02-191.92,21.89-29.71,5.6-59.4,11.42-89.35,15.63-13.38,1.88-26.94,3.68-40.45,4.18-7.69.28-15.33-.84-23.01-.93-6.12-.07-11.7,2-17.76,2.57-28.84,2.74-56.07-11.99-85.08-10-31.26,2.14-62.8,6.11-93.48,12.46-61.19,12.67-122.19,35.46-172.12,73.84-44.93,34.53-78.33,82.8-95.28,136.84-4.59,14.63-7.79,29.58-9.83,44.77-.26,1.91,2.75,1.89,3,0h0Z"/><path class="cls-13" d="m3.92,490.98c8.28-64,38.79-124.8,86.34-168.61,48.47-44.66,112.97-69.15,176.83-81.53,34.25-6.64,69.15-9.97,104.03-10.62,15.92-.3,32.1-.16,47.73,3.18,12.75,2.73,25.09,7.59,38.05,9.26,11.46,1.48,22.18-2.12,33.64-1.19,14.06,1.14,27.53.36,41.51-1.37,28.4-3.52,56.47-9.49,84.41-15.58,66.22-14.43,133.21-31.77,201.33-33.1,31.29-.61,64.49,1.86,93.33,14.97,22.49,10.22,41.34,26.33,59.4,42.87,16.76,15.35,33.3,31.34,52.89,43.12,17.94,10.78,37.41,16,58.01,18.71,36.7,4.84,74,1.98,109.98-6.34,102.02-23.58,192.93-85.62,273.12-150.52,13.53-10.95,26.84-22.16,39.99-33.55,1.46-1.27-.67-3.38-2.12-2.12-49.35,42.75-101.17,83.05-157.11,116.86-41.81,25.27-86.18,47.1-133.19,60.82-37.68,10.99-77.1,16.48-116.33,13.37-21.14-1.68-42.53-5.15-61.65-14.75-21.36-10.72-39.03-27.08-56.47-43.12s-34.53-31.64-55.06-42.94c-24.56-13.52-52.49-18.55-80.24-20.01-67.05-3.54-134.27,12.44-199.28,26.81-30.67,6.78-61.33,13.81-92.35,18.82-13.81,2.23-27.72,4.05-41.7,4.82-12.42.68-24.19-2.14-36.46.22-13.68,2.64-27.37-2.23-40.41-5.82-14.11-3.88-28.06-5.92-42.68-6.36-32.71-.97-65.87,1.68-98.22,6.43-64.13,9.43-128.83,29.66-181.45,68.65-47.08,34.88-81.25,85.13-98.59,140.93-4.84,15.58-8.18,31.53-10.27,47.7-.25,1.91,2.76,1.89,3,0h0Z"/><path class="cls-24" d="m4.02,490.4c8.25-66.21,39.05-129.85,88.68-174.89,50.88-46.17,119.37-68.34,186.09-78.92,18.04-2.86,36.27-4.67,54.53-4.98,16.94-.28,33.82,1.28,50.75,1.62,16.47.33,32.48,1.13,48.38,5.81,12.18,3.59,24.1,9.1,36.8,10.57,5.31.61,10.35.19,15.55-.89,7.2-1.5,14.21-.17,21.5.46,13.08,1.13,26.21-.45,39.17-2.3,30.19-4.3,59.91-11.72,89.46-19.13,67.81-17.01,137.08-37.65,207.54-38.24,30.56-.25,62.36,3.44,89.39,18.64,21.29,11.97,38.54,29.45,55.43,46.8,15.96,16.39,32.11,33.18,51.96,44.93,17.11,10.12,36.01,14.61,55.57,17.01,35.79,4.38,72.14.61,106.92-8.52,43.86-11.51,85.35-31.11,124.31-54.06,52.34-30.83,100.8-68.06,146.75-107.66,13.58-11.7,26.94-23.66,40.13-35.8,1.42-1.31-.7-3.43-2.12-2.12-49.15,45.21-100.77,88.14-156.77,124.67-41.42,27.01-85.55,50.82-132.73,66.1-36.21,11.73-74.34,18.19-112.46,15.71-19.73-1.28-40.29-4.2-58.3-12.71-21.78-10.29-39.23-27.25-55.88-44.27-16.4-16.76-32.59-34.06-52.25-47.11-22.83-15.15-48.93-21.72-76.03-23.81-68.94-5.33-138.65,13.9-204.87,30.65-31.41,7.94-62.79,16.24-94.63,22.31-13.71,2.61-27.53,4.82-41.45,5.9-7.36.57-14.43.48-21.79-.22-5.62-.53-11.51-1.69-17.13-.77-7.26,1.18-13.22,2.28-20.63.92-6.36-1.16-12.51-3.3-18.62-5.36-13.94-4.72-27.74-8.69-42.49-9.74-17.1-1.22-34.34-1.22-51.47-2.05s-34.3-.13-51.34,1.63c-65.99,6.81-135.2,25.82-189.55,65.13-48.89,35.36-83.58,87.66-101,145.12-4.92,16.21-8.3,32.8-10.39,49.6-.24,1.91,2.76,1.89,3,0h0Z"/><path class="cls-5" d="m4.13,489.82c8.26-68.66,39.53-135.41,91.59-181.68,54.13-48.11,127.92-68.01,198.6-74.55,35.85-3.32,70.83.11,106.58,2.58,16.13,1.12,31.29,3.83,46.44,9.57,11.33,4.29,22.72,10.08,35,10.89,5.61.37,10.16-1.36,15.58-1.93,6.83-.71,14.32,1.39,21.12,1.96,12.59,1.06,25.51-.85,37.94-2.83,30.43-4.86,60.26-13.23,89.88-21.58,69.39-19.56,140.71-43.85,213.5-44.74,30.93-.38,62.53,4.13,88.88,21.3,20.62,13.44,36.77,32.32,52.86,50.66,15.04,17.13,30.55,34.54,50.25,46.44,16.39,9.9,34.75,14.19,53.57,16.44,34.7,4.14,69.91-.22,103.39-9.82,44.03-12.64,85.33-33.82,123.95-58.18,52.86-33.34,101.54-73.18,147.65-115.25,13.69-12.49,27.15-25.23,40.45-38.14,1.39-1.35-.74-3.47-2.12-2.12-49.71,48.28-101.96,94.43-158.95,134-40.65,28.23-84.1,53.51-130.9,70.1-34.92,12.38-71.94,19.68-109.1,17.66-18.92-1.03-38.86-3.76-56.17-11.8-22.05-10.24-39.14-28.02-55.04-45.94-15.56-17.53-30.56-35.83-49.25-50.19-21.47-16.5-46.19-24.49-72.99-27.1-35.56-3.46-71.63,1.52-106.45,8.59-34.91,7.09-69.26,16.68-103.5,26.43-32.12,9.15-64.21,18.71-96.87,25.8-14.02,3.04-28.19,5.64-42.5,6.91-6.65.59-13.15.85-19.81.24s-14.28-2.7-20.98-1.74c-5.2.75-9.9,2.25-15.28,1.76-6.73-.61-13.22-2.92-19.49-5.3-14.42-5.49-28.39-11.29-43.8-13.44-16.02-2.23-32.27-2.31-48.35-3.97-17.63-1.82-35.26-2.47-52.98-1.77-68.79,2.73-142.24,18.76-199.63,58.38-51.91,35.83-87.9,91.07-105.64,151.11-4.95,16.76-8.34,33.89-10.43,51.24-.23,1.91,2.77,1.9,3,0h0Z"/><path class="cls-14" d="m4.23,489.24c8.08-69.6,38.63-138.01,91.08-185.43,56.16-50.78,132.56-68.47,206.42-70.72,37.46-1.14,75.74.44,112.82,6.06,16.67,2.53,31.97,6.95,47.35,13.9,10.34,4.67,21.21,10.42,32.84,10.48,5.02.03,9.69-2.02,14.62-1.9,8.32.21,16.52,2.56,24.87,2.72,12.15.24,24.6-1.8,36.5-4.02,31.61-5.89,62.46-15.65,93.09-25.28,34.69-10.9,69.27-22.23,104.43-31.59,37.01-9.85,75.22-18.2,113.71-18.06,30.41.11,60.25,6.13,84.82,24.83,19.82,15.08,34.82,35.32,50.22,54.63,14.19,17.78,29.21,35.7,48.94,47.56,15.96,9.6,34.16,13.61,52.5,15.57,33.96,3.64,68.29-1.66,100.67-12.02,43.57-13.95,84.09-36.52,121.9-61.99,52.81-35.59,101.23-77.53,147.12-121.56,14.11-13.54,27.97-27.33,41.66-41.3,1.35-1.38-.77-3.5-2.12-2.12-49.64,50.66-101.79,99.35-158.85,141.63-40.37,29.91-83.64,57.15-130.63,75.4-33.97,13.19-70.29,21.52-106.91,19.93-17.04-.74-35.08-3.07-50.94-9.61-22.91-9.44-40.19-27.82-55.58-46.64-15.37-18.79-29.55-38.82-47.82-54.99-19.73-17.47-42.76-27.26-68.84-30.66-35.86-4.68-72.59.74-107.64,8.44s-71.42,18.82-106.62,29.92c-32.5,10.25-64.92,21.02-98,29.29-14.6,3.65-29.39,6.86-44.35,8.53-5.68.64-11.51,1.22-17.23,1.1-8.6-.17-17.08-2.71-25.66-2.77-4.99-.04-9.58,2.08-14.69,1.92-7.34-.22-14.38-2.94-21.04-5.81-13.54-5.83-26.56-12.28-41.06-15.48-34.33-7.57-70.69-9.04-105.73-9.37-72.22-.68-148.1,10.56-208.71,52.64-52.43,36.4-87.98,92.87-105.57,153.61-5.04,17.39-8.45,35.17-10.54,53.14-.22,1.91,2.78,1.9,3,0h0Z"/><path class="cls-23" d="m4.34,488.66c8.14-72.53,39.53-144.6,95.1-193.25,58.77-51.46,138.21-65.62,214.13-64.07,37.7.77,76.17,3.96,113.16,11.43,16.76,3.39,31.84,9.1,47.05,16.86,9.82,5.01,20.38,10.95,31.75,10.68,5.44-.13,10.06-2.18,15.54-1.5,8.15,1.01,16.3,2.79,24.54,2.84,12.49.07,25.14-2.13,37.32-4.69,31.96-6.72,63.02-17.55,93.84-28.18,35.92-12.4,71.72-25.26,108.23-35.85,37.45-10.86,76.42-20.23,115.66-19.69,30.74.42,59.68,8.05,83.04,28.67,19.13,16.89,33.09,38.53,48.06,58.96,13.28,18.13,27.78,36.25,47.34,47.92,15.25,9.1,32.85,12.9,50.35,14.65,33.15,3.32,66.57-2.74,97.84-13.66,43.66-15.25,83.9-39.41,121.35-66.25,53.53-38.36,102.39-83.09,148.71-129.79,13.83-13.95,27.43-28.13,40.85-42.46,1.32-1.41-.8-3.53-2.12-2.12-49.73,53.11-101.93,104.36-159.18,149.4-39.76,31.27-82.42,60.11-129.1,80.05-32.98,14.1-68.61,23.62-104.71,22.69-16.36-.42-33.61-2.56-48.96-8.48-24.07-9.27-41.55-29.02-56.61-49.18-14.29-19.12-27.21-39.47-44.01-56.56-18.61-18.93-41.06-30.8-67.38-34.81-35.66-5.43-72.41.36-107.18,8.56-37.35,8.81-73.79,21.11-110.02,33.63-33.62,11.62-67.12,23.89-101.43,33.37-14.56,4.02-29.33,7.6-44.32,9.52-14.79,1.9-28.13-.05-42.87-1.65-5.31-.58-9.47,1.47-14.75,1.61-6.9.18-13.52-2.26-19.71-5.06-13.39-6.07-25.91-13.66-40.06-17.99-33.87-10.35-71.42-12.79-106.58-14.88-74.11-4.42-152.83,2.68-216.42,44.5-55.41,36.45-92.37,95.63-110.44,158.61-5.28,18.39-8.84,37.17-10.97,56.17-.22,1.92,2.79,1.9,3,0h0Z"/><path class="cls-33" d="m4.44,488.08c8.07-74.36,39.44-148.91,96.57-198.81,60.93-53.22,143.39-64.49,221.5-59.47,38.62,2.48,78,7.28,115.59,16.68,16.93,4.24,33.27,10.17,49.43,16.71,11.9,4.82,24.41,10.59,37.23,12.18,13.44,1.67,26.7,4.31,40.31,3.17,12.83-1.07,25.5-3.79,37.94-7.03,33.31-8.7,65.58-21.23,97.75-33.37,35.88-13.54,71.75-27.26,108.49-38.35,37.73-11.38,77.68-21.13,117.38-18.39,30.43,2.1,56.34,13.71,77.03,36.16,17.01,18.46,29.41,40.5,43.52,61.12,12.68,18.52,27.2,36.81,47.22,47.77,14.54,7.96,31.41,11.24,47.81,12.56,32.65,2.61,65.34-4.65,95.65-16.45,42.76-16.65,81.89-41.9,118.3-69.54,53.49-40.6,102.17-87.37,148.37-135.98,14.25-14.99,28.25-30.22,42.07-45.61,1.29-1.43-.83-3.56-2.12-2.12-49.78,55.44-101.98,109.15-159.33,156.84-39.24,32.63-81.31,63.07-127.69,84.76-31.98,14.96-66.83,25.76-102.43,25.63-14.74-.05-29.77-1.86-43.89-6.22-24.81-7.68-42.74-26.89-57.39-47.46-27.73-38.92-50.28-87.28-100.6-100.31-34.98-9.06-72.61-3.74-107.25,4.26-38.59,8.92-76.05,22.31-113.12,36.1-34.18,12.71-68.1,26.26-102.8,37.5-28.65,9.28-58.89,18.38-89.24,14.13-12.63-1.77-24.6-3.62-36.65-8.04-15.39-5.64-30.32-12.38-45.95-17.41-34.59-11.13-71.27-16.03-107.3-19.86-76.78-8.16-159.73-4.97-226.4,38.53-57.11,37.26-94.38,98.81-112.31,163.61-5.14,18.58-8.6,37.54-10.68,56.69-.21,1.92,2.79,1.9,3,0h0Z"/><path class="cls-43" d="m4.54,487.5c8.04-76.37,39.48-153.85,98.58-204.88,63.19-54.57,148.32-62.8,228.33-54.22,38.91,4.17,78.59,10.53,116.21,21.49,17.88,5.21,34.97,12.32,51.93,19.93,11.31,5.07,23.07,10.68,35.41,12.44,14.36,2.04,28.11,4.96,42.68,3.38,13.45-1.46,26.67-4.73,39.62-8.56,33.74-9.96,66.34-23.69,98.88-36.93,37.3-15.18,74.64-30.49,113.07-42.65,37.91-12,78.98-22.48,119.03-17.75,29.16,3.44,52.62,17.46,70.99,40.08,16.35,20.14,27.92,43.57,41.87,65.32,12.13,18.92,26.57,37.49,46.91,48.04,13.76,7.14,29.67,10.16,45.04,11.2,31.79,2.15,63.44-5.91,92.57-18.13,42.41-17.79,80.89-44.24,116.71-72.79,54.7-43.59,104.24-93.54,151.28-145.19,14-15.37,27.76-30.95,41.35-46.68,1.26-1.45-.86-3.59-2.12-2.12-49.89,57.75-102.14,113.87-159.59,164.21-39.12,34.28-81.08,66.61-127.7,90.08-30.97,15.59-64.99,27.47-100,27.95-13.77.19-27.62-1.41-40.89-5.17-25.17-7.13-43.04-26.12-57.23-47.21-26.35-39.14-45.7-90.36-94.07-107.12-33.47-11.6-71.39-6.41-105.08,1.35-40.32,9.29-79.25,24.13-117.62,39.42-35.44,14.12-70.51,29.27-106.45,42.08-26.85,9.57-57.57,21.03-86.56,17.66-14.45-1.68-28.76-3.99-42.31-9.35-15.28-6.05-29.94-13.5-45.37-19.23-36.08-13.41-74.73-20.01-112.71-25.47-77.75-11.19-162.53-11.28-230.89,32.78-57.88,37.3-95.16,99.63-113.37,164.92-5.59,20.02-9.31,40.48-11.49,61.14-.2,1.92,2.8,1.9,3,0h0Z"/><path class="cls-1" d="m4.65,486.92c7.97-78.18,39.4-158.2,100.04-210.46,66.6-57.39,156.39-61.64,239.57-48.77,39.22,6.07,79.2,13.96,116.77,26.92,18.2,6.28,35.35,14.66,52.63,23.04,11.11,5.39,22.1,9.93,34.26,12.07,14.31,2.52,27.76,4.87,42.28,2.92s27.45-5.7,40.73-10.06c34.37-11.29,67.49-26.3,100.62-40.73,37.77-16.46,75.63-32.98,114.74-46.04,38.63-12.89,81.8-24.7,122.76-17.48,58.05,10.24,78.04,67.07,104.83,111.86,11.71,19.58,26.1,38.81,46.96,49.25,12.93,6.47,27.76,9.33,42.12,10.19,31.12,1.87,61.93-6.95,90.08-19.58,42.47-19.05,80.71-47.01,116.25-76.76,54.8-45.88,104.34-97.95,151.44-151.59,14.46-16.47,28.66-33.15,42.69-49.98,1.23-1.47-.88-3.61-2.12-2.12-50.39,60.46-103.12,119.39-161.17,172.63-38.89,35.66-80.56,69.61-127.21,94.67-29.91,16.06-63,28.88-97.31,29.91-13.18.39-26.41-1.03-39.12-4.59-24.75-6.92-42.12-25.37-55.6-46.41-25.72-40.14-42.24-94.55-89.94-114.36-32.28-13.41-70.14-8.43-103.16-.7-40.53,9.49-79.49,25.11-117.75,41.27-36.78,15.54-73.05,32.36-110.24,46.9-26.35,10.3-56.37,22.75-85.23,21.73-14.92-.53-31.81-3.77-45.74-9.4-15.57-6.3-30.22-14.72-45.68-21.3-36.37-15.47-75.53-23.79-114.24-31.04-79.51-14.9-167.59-19.51-238.95,25.2-61.02,38.23-99.34,104.26-117.48,172.58-5.25,19.76-8.75,39.92-10.82,60.25-.2,1.92,2.81,1.91,3,0h0Z"/><path class="cls-29" d="m4.75,486.34c8-80.89,40.1-164.68,103.79-218,30.54-25.56,67.35-41.34,106.56-47.84,46.2-7.66,93.85-2.47,139.48,6.48,39.67,7.78,80.08,17.18,117.79,31.95,17.87,7,34.61,16.02,51.56,24.92,11.1,5.83,22.07,10.49,34.33,13.02,13.77,2.84,27.08,5.09,41.11,3.17,14.04-1.92,27.72-6.08,41.06-10.74,34.64-12.12,67.88-28.15,101.13-43.57,39.08-18.12,78.23-36.39,118.86-50.81,38.61-13.7,82.57-26.76,123.82-18.73,58.62,11.41,76.42,72.87,101.88,118.56,11.35,20.37,25.76,40.48,47.32,50.89,12.34,5.96,26.38,8.64,40.01,9.26,30.34,1.38,60.22-8.22,87.27-21.24,42.56-20.47,80.61-49.96,115.94-81,54.75-48.09,104.2-102.13,151.28-157.64,14.86-17.52,29.47-35.26,43.88-53.15,1.2-1.49-.91-3.63-2.12-2.12-50.79,63.01-103.87,124.58-162.35,180.62-38.62,37.01-79.96,72.54-126.53,99.27-29.1,16.7-61.57,30.66-95.52,32.24-12.56.58-25.17-.63-37.29-4.01-25.02-6.98-42.14-25.78-55.13-47.41-24.95-41.53-39.32-99.29-87.42-120.81-32.28-14.44-70.71-8.87-103.82-.54-41.31,10.41-80.86,27.33-119.62,44.76-37.48,16.85-74.37,35.07-112.31,50.89-26.13,10.89-56.52,24.5-85.51,23.21-14.9-.67-31.47-4.07-45.21-10.06-14.85-6.47-28.68-15.1-43.3-22.08-36.48-17.42-76-27.42-115.26-36.39-80.4-18.38-170.54-27.86-244.75,16-63.82,37.72-103.57,106.1-122.35,176.17-5.69,21.22-9.44,42.88-11.6,64.73-.19,1.92,2.81,1.91,3,0h0Z"/><path class="cls-16" d="m4.86,485.76c7.94-82.72,40.03-169.01,105.26-223.6,32.06-26.82,71.04-42.77,112.43-48,48.05-6.08,96.99,1.45,143.74,12.62,41.07,9.81,83,21,121.52,38.52,28.1,12.78,53.02,32.75,83.51,39.4,14.13,3.08,27.42,4.6,41.68,2.06s28.92-7.57,42.77-12.96c35.27-13.73,69.09-31.08,103.03-47.74,39.76-19.52,79.72-39.09,121.4-54.23,38.62-14.03,84.5-27.98,125.49-16.18,54.66,15.74,69.53,79.75,92.8,124.2,11.12,21.24,25.72,42.12,48.23,52.29,11.53,5.21,24.42,7.6,37.02,7.97,29.81.89,58.98-9.65,85.11-23.15,42.43-21.92,80.11-52.79,115.11-84.97,55.41-50.93,105.38-107.71,153.03-165.86,14.63-17.86,29.03-35.92,43.24-54.11,1.18-1.5-.93-3.64-2.12-2.12-51.43,65.82-105.12,130.29-164.31,189.32-38.19,38.08-78.99,74.88-125.16,103.11-28.08,17.17-59.64,32.17-92.96,34.53-12.22.87-24.54-.1-36.36-3.39-23.89-6.64-40.41-24.26-52.68-45.07-25.3-42.93-36.49-104.19-84.25-129.26-30.14-15.82-67.01-11.49-98.82-3.79-43.3,10.48-84.51,28.99-124.65,47.97-37.15,17.56-73.64,36.53-111.04,53.56-27.54,12.54-59.05,28.03-90.01,28.48-14.68.21-32.15-3.52-45.76-9.41-14.97-6.47-28.59-15.77-42.95-23.43-36.06-19.23-75.26-30.88-114.54-41.57-82.74-22.5-177.08-37.66-255.35,7.18-67.06,38.42-107.82,110.81-126.48,183.82-5.35,20.95-8.89,42.29-10.96,63.81-.18,1.92,2.82,1.91,3,0h0Z"/><path class="cls-15" d="m4.96,485.18c7.95-85.2,40.52-174.98,108.46-230.64,33.41-27.38,74.15-42.87,117.1-46.59,49.11-4.26,98.54,5.34,145.68,18.44,41.83,11.62,84.49,24.51,123.38,44.04,27.9,14.01,52.31,34.91,83.22,41.8,14.48,3.23,27.77,4.39,42.3,1.35s28.8-8.44,42.57-14.2c36.85-15.42,72.06-34.62,107.52-52.93,40.68-21.01,81.67-42.03,124.68-57.92,37.61-13.89,83.8-28.06,123.41-13.91,53.64,19.16,65.54,86.71,88.15,131.82,10.81,21.57,25.52,42.48,48.49,52.14,10.69,4.5,22.39,6.57,33.96,6.72,29.7.39,58.53-11.4,84.03-25.64,42.42-23.68,79.85-56.13,114.69-89.69,55.49-53.45,105.57-112.47,153.41-172.77,14.5-18.28,28.77-36.74,42.88-55.33,1.17-1.54-1.44-3.03-2.59-1.51-52.01,68.53-106.24,135.77-166.04,197.71-38.08,39.44-78.72,77.8-124.96,107.62-27.04,17.44-57.64,33.24-90.2,36.17-11.61,1.04-23.38.3-34.63-2.82-23.85-6.6-40.13-24.53-51.88-45.52-24.62-43.98-33.33-106.54-79.6-134.72-29.52-17.98-66.95-13.92-98.98-5.99-43.47,10.77-84.69,30.1-124.68,49.89-38.76,19.19-76.71,40.01-115.65,58.84-16.89,8.16-34,16.04-51.7,22.29-12.55,4.43-25.84,8.49-39.24,8.86-34.32.94-60.38-18.17-88.5-34.5-36.4-21.13-76.24-34.4-116.28-46.77-83.58-25.81-180.23-45.6-261.06-.59-68.63,38.22-110.09,111.99-129.2,186.02-5.79,22.42-9.57,45.28-11.72,68.33-.18,1.92,2.82,1.91,3,0h0Z"/><path class="cls-9" d="m5.07,484.6c7.84-86.54,40.07-178.27,108.76-235.3,34.09-28.3,75.71-44.12,119.86-47.1,50.39-3.41,100.74,7.9,148.58,22.75,42.89,13.31,86.56,27.93,126.2,49.26,27.44,14.76,51.67,37.32,82.43,44.79,14.03,3.41,27.27,5.18,41.47,2.35s27.87-8.17,41.13-13.87c37.58-16.14,73.26-36.64,109.15-56.14,41.87-22.76,84.03-45.63,128.44-63.12,37.71-14.85,84.71-30.69,124.9-16.24,26.92,9.68,43.38,33.79,54.94,58.71s19.71,53.15,31.64,78.87c10.26,22.14,24.52,44.01,47.64,54.19,10.37,4.57,21.74,6.65,33.05,6.66,28.99.03,56.97-12.47,81.48-26.93,42.56-25.11,79.85-59.03,114.59-93.85,55.67-55.79,105.92-116.94,154.01-179.3,14.87-19.28,29.5-38.75,43.97-58.33,1.15-1.55-1.45-3.05-2.59-1.51-52.58,71.21-107.34,141.2-167.69,206.05-37.83,40.64-78.1,80.37-124.1,111.79-26.45,18.07-56.7,35.13-89.14,38.53-11.03,1.16-22.25.56-32.95-2.47-23.91-6.78-39.85-25.58-51.03-46.88-13.21-25.19-21.05-52.78-32.12-78.91-9.85-23.25-22.61-46.96-44.26-61.21-29.38-19.36-67.41-15.01-99.7-6.54-45.19,11.85-87.78,33.07-129.02,54.6-39,20.36-77.15,42.33-116.39,62.24-16.8,8.52-33.84,16.77-51.52,23.31-12.47,4.61-25.84,8.96-39.27,9.07-33.75.28-58.81-18.81-85.89-35.82-36.63-23.02-76.96-37.97-117.68-52.02-85.15-29.4-185.21-54.19-269.14-7.77-70.48,38.98-112.33,115.48-131.31,191.37-5.65,22.59-9.34,45.6-11.44,68.78-.17,1.92,2.83,1.91,3,0h0Z"/><path class="cls-20" d="m5.17,484.02c7.83-89.38,40.87-185.44,113.06-243.25,37.33-29.9,82.76-44.53,130.47-44.73,53.28-.22,105.58,14.88,155.27,32.86,43.99,15.92,88.39,32.7,128.02,57.91,19.72,12.54,38.44,30.38,61.18,37.27,13.41,4.07,27.83,7.6,41.91,5.76,10.96-1.44,21.59-4.99,31.85-8.98,27.95-10.88,54.39-25.64,80.51-40.27,63.88-35.76,126.84-75.88,195.99-100.89,27.02-9.77,56.68-18.06,85.69-14.81,32.74,3.67,54.91,25.68,69.07,54.13,14.67,29.48,22.08,61.88,34.85,92.14,10.67,25.29,26.17,50.45,53.28,60.16,25.62,9.18,53.61,2,77.47-8.92,45.43-20.8,84.39-55.76,119.73-90.36,62.73-61.42,118.09-130.35,170.94-200.29,17.37-22.99,34.42-46.21,51.25-69.59,1.13-1.57-1.47-3.07-2.59-1.51-58.55,81.36-119.59,161.62-188.16,234.88-39.29,41.98-81.78,84.06-131.74,113.32-25.41,14.88-56.46,28.38-86.56,22.25-24.54-5-41.73-23.24-53.14-44.67-15.72-29.52-23.08-62.65-35.78-93.44-11.11-26.93-27.06-53.84-55.25-65.34-24.61-10.05-52.67-6.88-77.82-.69-32.92,8.1-64.32,22.13-94.59,37.15-33.33,16.53-65.67,34.96-97.98,53.38-29.63,16.89-59.18,34.14-89.92,48.98-20.06,9.69-43.86,21.73-66.81,20.94-29.55-1.01-51.4-15.33-74.56-31.55-34.53-24.18-72.08-41.4-111.26-56.69-88.75-34.62-194.88-70.47-286.33-24.54-76.5,38.43-120.9,120.91-140.16,201.26-5.37,22.4-8.89,45.18-10.9,68.12-.17,1.92,2.83,1.91,3,0h0Z"/></g></svg>