<?xml version="1.0" encoding="UTF-8"?><svg id="Layer_2" xmlns="http://www.w3.org/2000/svg" width="94.63" height="1023.26" xmlns:xlink="http://www.w3.org/1999/xlink" viewBox="0 0 94.63 1023.26"><defs><style>.cls-1{stroke:url(#linear-gradient-2);}.cls-1,.cls-2,.cls-3,.cls-4,.cls-5,.cls-6,.cls-7,.cls-8,.cls-9,.cls-10,.cls-11,.cls-12,.cls-13,.cls-14,.cls-15,.cls-16,.cls-17,.cls-18,.cls-19,.cls-20,.cls-21,.cls-22,.cls-23,.cls-24,.cls-25,.cls-26,.cls-27,.cls-28,.cls-29,.cls-30,.cls-31,.cls-32,.cls-33,.cls-34,.cls-35,.cls-36,.cls-37,.cls-38,.cls-39,.cls-40,.cls-41,.cls-42,.cls-43{fill:none;stroke-miterlimit:10;}.cls-2{stroke:url(#linear-gradient-3);}.cls-3{stroke:url(#linear-gradient-28);}.cls-4{stroke:url(#linear-gradient-9);}.cls-5{stroke:url(#linear-gradient-37);}.cls-6{stroke:url(#linear-gradient-22);}.cls-7{stroke:url(#linear-gradient-19);}.cls-8{stroke:url(#linear-gradient-26);}.cls-9{stroke:url(#linear-gradient-4);}.cls-10{stroke:url(#linear-gradient-6);}.cls-11{stroke:url(#linear-gradient-18);}.cls-12{stroke:url(#linear-gradient-13);}.cls-13{stroke:url(#linear-gradient-29);}.cls-14{stroke:url(#linear-gradient-16);}.cls-15{stroke:url(#linear-gradient-17);}.cls-16{stroke:url(#linear-gradient-30);}.cls-17{stroke:url(#linear-gradient-7);}.cls-18{stroke:url(#linear-gradient-39);}.cls-19{stroke:url(#linear-gradient-21);}.cls-20{stroke:url(#linear-gradient-12);}.cls-21{stroke:url(#linear-gradient-5);}.cls-22{stroke:url(#linear-gradient-38);}.cls-23{stroke:url(#linear-gradient-32);}.cls-24{stroke:url(#linear-gradient-36);}.cls-25{stroke:url(#linear-gradient-20);}.cls-26{stroke:url(#linear-gradient-24);}.cls-27{stroke:url(#linear-gradient-33);}.cls-28{stroke:url(#linear-gradient-31);}.cls-29{stroke:url(#linear-gradient);}.cls-30{stroke:url(#linear-gradient-25);}.cls-31{stroke:url(#linear-gradient-35);}.cls-32{stroke:url(#linear-gradient-27);}.cls-33{stroke:url(#linear-gradient-23);}.cls-34{stroke:url(#linear-gradient-14);}.cls-35{stroke:url(#linear-gradient-41);}.cls-36{stroke:url(#linear-gradient-42);}.cls-37{stroke:url(#linear-gradient-34);}.cls-38{stroke:url(#linear-gradient-11);}.cls-39{stroke:url(#linear-gradient-8);}.cls-40{stroke:url(#linear-gradient-40);}.cls-41{stroke:url(#linear-gradient-10);}.cls-42{stroke:url(#linear-gradient-15);}.cls-43{stroke:url(#linear-gradient-43);}</style><linearGradient id="linear-gradient" x1="46.22" y1="1023.21" x2="46.22" y2="0" gradientUnits="userSpaceOnUse"><stop offset="0" stop-color="#fffaf5" stop-opacity="0"/><stop offset="0" stop-color="#fed" stop-opacity=".01"/><stop offset=".33" stop-color="#fb8500" stop-opacity=".36"/><stop offset=".43" stop-color="#fb8500" stop-opacity=".3"/><stop offset=".52" stop-color="#fb8500"/><stop offset="1" stop-color="#fffaf5" stop-opacity="0"/></linearGradient><linearGradient id="linear-gradient-2" x1="45.56" y1="1023.21" x2="45.56" y2="1" xlink:href="#linear-gradient"/><linearGradient id="linear-gradient-3" x1="44.9" y1="1023.22" x2="44.9" y2="2" xlink:href="#linear-gradient"/><linearGradient id="linear-gradient-4" x1="44.21" y1="1023.22" x2="44.21" y2="3" xlink:href="#linear-gradient"/><linearGradient id="linear-gradient-5" x1="43.55" y1="1023.22" x2="43.55" y2="4" xlink:href="#linear-gradient"/><linearGradient id="linear-gradient-6" x1="42.89" y1="1023.22" x2="42.89" y2="4.99" xlink:href="#linear-gradient"/><linearGradient id="linear-gradient-7" x1="42.23" y1="1023.22" x2="42.23" y2="5.99" xlink:href="#linear-gradient"/><linearGradient id="linear-gradient-8" x1="41.57" y1="1023.22" x2="41.57" y2="6.99" xlink:href="#linear-gradient"/><linearGradient id="linear-gradient-9" x1="40.92" y1="1023.22" x2="40.92" y2="7.99" xlink:href="#linear-gradient"/><linearGradient id="linear-gradient-10" x1="40.27" y1="1023.23" x2="40.27" y2="8.99" xlink:href="#linear-gradient"/><linearGradient id="linear-gradient-11" x1="39.63" y1="1023.23" x2="39.63" y2="9.99" xlink:href="#linear-gradient"/><linearGradient id="linear-gradient-12" x1="39.03" y1="1023.23" x2="39.03" y2="10.99" xlink:href="#linear-gradient"/><linearGradient id="linear-gradient-13" x1="39.13" y1="1023.23" x2="39.13" y2="11.98" xlink:href="#linear-gradient"/><linearGradient id="linear-gradient-14" x1="39.22" y1="1023.24" x2="39.22" y2="12.98" xlink:href="#linear-gradient"/><linearGradient id="linear-gradient-15" x1="39.32" y1="1023.24" x2="39.32" y2="13.98" xlink:href="#linear-gradient"/><linearGradient id="linear-gradient-16" x1="39.41" y1="1023.24" x2="39.41" y2="14.98" xlink:href="#linear-gradient"/><linearGradient id="linear-gradient-17" x1="39.51" y1="1023.24" x2="39.51" y2="15.98" xlink:href="#linear-gradient"/><linearGradient id="linear-gradient-18" x1="39.6" y1="1023.25" x2="39.6" y2="16.98" xlink:href="#linear-gradient"/><linearGradient id="linear-gradient-19" x1="39.7" y1="1023.25" x2="39.7" y2="17.98" xlink:href="#linear-gradient"/><linearGradient id="linear-gradient-20" x1="39.79" y1="1023.26" x2="39.79" y2="18.97" xlink:href="#linear-gradient"/><linearGradient id="linear-gradient-21" x1="39.89" y1="1023.26" x2="39.89" y2="19.97" xlink:href="#linear-gradient"/><linearGradient id="linear-gradient-22" x1="39.98" y1="1023.26" x2="39.98" y2="20.97" xlink:href="#linear-gradient"/><linearGradient id="linear-gradient-23" x1="39.84" y1="1022.15" x2="39.84" y2="20.78" xlink:href="#linear-gradient"/><linearGradient id="linear-gradient-24" x1="39.7" y1="1021.05" x2="39.7" y2="20.59" xlink:href="#linear-gradient"/><linearGradient id="linear-gradient-25" x1="39.56" y1="1019.94" x2="39.56" y2="20.4" xlink:href="#linear-gradient"/><linearGradient id="linear-gradient-26" x1="39.42" y1="1018.84" x2="39.42" y2="20.21" xlink:href="#linear-gradient"/><linearGradient id="linear-gradient-27" x1="39.28" y1="1017.74" x2="39.28" y2="20.02" xlink:href="#linear-gradient"/><linearGradient id="linear-gradient-28" x1="39.13" y1="1016.64" x2="39.13" y2="19.83" xlink:href="#linear-gradient"/><linearGradient id="linear-gradient-29" x1="38.99" y1="1015.54" x2="38.99" y2="19.64" xlink:href="#linear-gradient"/><linearGradient id="linear-gradient-30" x1="38.85" y1="1014.44" x2="38.85" y2="19.45" xlink:href="#linear-gradient"/><linearGradient id="linear-gradient-31" x1="38.71" y1="1013.34" x2="38.71" y2="19.26" xlink:href="#linear-gradient"/><linearGradient id="linear-gradient-32" x1="38.56" y1="1012.24" x2="38.56" y2="19.08" xlink:href="#linear-gradient"/><linearGradient id="linear-gradient-33" x1="38.42" y1="1011.14" x2="38.42" y2="18.89" xlink:href="#linear-gradient"/><linearGradient id="linear-gradient-34" x1="38.28" y1="1010.04" x2="38.28" y2="18.7" xlink:href="#linear-gradient"/><linearGradient id="linear-gradient-35" x1="38.14" y1="1008.94" x2="38.14" y2="18.51" xlink:href="#linear-gradient"/><linearGradient id="linear-gradient-36" x1="37.99" y1="1007.85" x2="37.99" y2="18.32" xlink:href="#linear-gradient"/><linearGradient id="linear-gradient-37" x1="37.85" y1="1006.75" x2="37.85" y2="18.13" xlink:href="#linear-gradient"/><linearGradient id="linear-gradient-38" x1="39.62" y1="1005.65" x2="39.62" y2="17.94" xlink:href="#linear-gradient"/><linearGradient id="linear-gradient-39" x1="41.42" y1="1004.56" x2="41.42" y2="17.75" xlink:href="#linear-gradient"/><linearGradient id="linear-gradient-40" x1="43.25" y1="1003.46" x2="43.25" y2="17.56" xlink:href="#linear-gradient"/><linearGradient id="linear-gradient-41" x1="45.1" y1="1002.36" x2="45.1" y2="17.37" xlink:href="#linear-gradient"/><linearGradient id="linear-gradient-42" x1="46.95" y1="1001.27" x2="46.95" y2="17.18" xlink:href="#linear-gradient"/><linearGradient id="linear-gradient-43" x1="48.82" y1="1000.17" x2="48.82" y2="16.99" xlink:href="#linear-gradient"/></defs><g id="Layer_1-2"><path class="cls-29" d="M.49.09c13,74,34,185,24,254-7.71,53.21,89,77,63,174-11.12,41.49-93.41,43.59-83.1,73.63,14.31,41.69,38.9,94.89,46.1,138.37,7.21,43.48,16.83,68.71-5,107-8.34,14.63-39.32,41.22-38,58,.93,11.76,7.06,19.67,13.13,29.78,18.88,31.44,23.87,70.22,54.87,188.22"/><path class="cls-1" d="M.68,1.09c13.01,73.09,34.04,183.84,25.29,253.11-3.36,26.58,17.51,45.87,35.95,69.59,19.51,25.1,36.91,56.05,24.12,104.77-10.79,41.38-88.81,44.94-80.87,75.02,9.9,37.53,34.25,78.75,41.43,119.15,1.06,5.97,2.25,11.76,2.9,17.42,4.83,41.8,16.89,65.3-.41,100.12-.96,1.92-1.99,3.91-3.11,5.95-8.06,14.69-37.74,41.56-36.66,58.61.52,8.05,3.36,14.29,6.78,20.5,1.66,3.01,3.46,6.06,5.24,9.36,17.38,32.3,23.68,73.55,54.15,188.4"/><path class="cls-2" d="M.87,2.09c13.02,72.19,34.1,182.68,26.59,252.21-2.92,27.02,17.39,46.59,34.59,69.9,18.64,25.25,34.89,56.73,22.55,104.82C74.13,470.3.31,475.44,5.96,505.43c7.35,39.04,35.93,76.3,40.44,117.57.65,5.92,1.75,11.63,2.12,17.2,2.8,42.47,17.96,64.58,1,99.16-.94,1.9-1.94,3.91-3.03,5.99-7.78,14.76-36.15,41.9-35.32,59.22.41,8.15,3.08,14.44,6.16,20.55,1.52,3,3.15,6.07,4.75,9.4,15.88,33.2,23.49,76.87,53.42,188.57"/><path class="cls-9" d="M1.06,3.09c13.03,71.28,34.18,181.53,27.88,251.32-2.48,27.47,17.25,47.34,33.24,70.21,17.77,25.43,32.77,57.39,20.97,104.87-10.23,41.15-79.88,48-76.42,77.8,4.74,40.7,37.67,73.73,39.45,115.98.25,5.85,1.24,11.5,1.33,16.99.73,43.2,19.02,63.87,2.41,98.19-.91,1.89-1.89,3.9-2.96,6.02-7.5,14.82-34.57,42.24-33.97,59.84.3,8.24,2.8,14.6,5.54,20.61,1.37,3,2.84,6.09,4.25,9.43,14.36,34.14,23.3,80.2,52.7,188.75"/><path class="cls-21" d="M1.25,4.09c13.04,70.38,34.28,180.38,29.17,250.42-2.03,27.92,17.1,48.11,31.89,70.52,16.91,25.63,30.73,58.06,19.4,104.93-9.92,41.04-75.6,49.66-74.19,79.19,2.03,42.5,39.48,71.07,38.46,114.39-.14,5.77.72,11.37.55,16.77-1.4,43.99,20.09,63.15,3.82,97.23-.89,1.87-1.84,3.9-2.88,6.05-7.23,14.88-32.98,42.58-32.63,60.45.19,8.34,2.51,14.77,4.93,20.66,1.23,3,2.53,6.11,3.76,9.47,12.83,35.12,23.11,83.53,51.97,188.93"/><path class="cls-10" d="M1.44,5.09c13.05,69.47,34.39,179.24,30.46,249.53-1.58,28.36,16.93,48.9,30.53,70.83,16.04,25.86,28.69,58.74,17.82,104.98-9.62,40.93-71.44,51.38-71.96,80.58-.78,44.39,41.39,68.34,37.47,112.8-.5,5.68.19,11.25-.24,16.56-3.59,44.81,21.15,62.43,5.23,96.27-.87,1.85-1.79,3.9-2.81,6.08-6.96,14.94-31.4,42.92-31.29,61.06.08,8.43,2.22,14.94,4.31,20.71,1.09,3.01,2.21,6.13,3.26,9.5,11.26,36.14,22.91,86.85,51.25,189.11"/><path class="cls-17" d="M1.64,6.09c13.06,68.57,34.51,178.1,31.76,248.63-1.13,28.81,16.74,49.72,29.18,71.14,15.16,26.11,26.65,59.42,16.25,105.03-9.31,40.82-67.41,53.13-69.73,81.97-3.73,46.34,43.41,65.57,36.48,111.21-.85,5.59-.35,11.13-1.02,16.35-5.85,45.67,22.22,61.72,6.64,95.31-.85,1.83-1.74,3.89-2.73,6.12-6.69,14.99-29.81,43.26-29.95,61.67-.03,8.53,1.93,15.12,3.69,20.76.94,3.01,1.89,6.15,2.77,9.54,9.67,37.2,22.72,90.18,50.52,189.28"/><path class="cls-39" d="M1.83,7.09c13.07,67.66,34.65,176.97,33.05,247.74-.66,29.27,16.53,50.57,27.82,71.45,14.27,26.39,24.62,60.1,14.68,105.08-9,40.72-63.48,54.89-67.5,83.36-6.83,48.31,45.53,62.78,35.5,109.62-1.18,5.5-.91,11.02-1.81,16.13-8.18,46.54,23.28,61,8.05,94.34-.83,1.81-1.7,3.89-2.66,6.15-6.42,15.04-28.23,43.6-28.61,62.29-.14,8.63,1.62,15.3,3.08,20.81.8,3.03,1.56,6.18,2.27,9.57,8.04,38.28,22.53,93.51,49.8,189.46"/><path class="cls-4" d="M2.02,8.09c13.08,66.76,34.8,175.83,34.34,246.84-.19,29.72,16.29,51.44,26.47,71.76,13.37,26.7,22.59,60.78,13.1,105.14-8.69,40.61-59.65,56.65-65.27,84.74-10.07,50.29,47.78,59.99,34.51,108.03-1.49,5.41-1.47,10.9-2.59,15.92-10.59,47.42,24.35,60.28,9.46,93.38-.81,1.8-1.65,3.89-2.59,6.18-6.16,15.1-26.68,43.94-27.27,62.9-.27,8.72,1.31,15.49,2.46,20.86.65,3.04,1.23,6.21,1.78,9.6,6.37,39.38,22.34,96.84,49.07,189.64"/><path class="cls-41" d="M2.21,9.09c13.09,65.85,34.97,174.7,35.63,245.95.28,30.17,16.02,52.34,25.11,72.07,12.45,27.03,20.57,61.46,11.53,105.19-8.37,40.5-55.9,58.39-63.04,86.13-13.46,52.24,50.14,57.23,33.52,106.44-1.8,5.32-2.04,10.78-3.38,15.7-13.08,48.29,25.41,59.57,10.87,92.42-.79,1.78-1.6,3.88-2.51,6.21-5.9,15.15-25.1,44.28-25.92,63.51-.38,8.82.99,15.69,1.84,20.92.5,3.06.9,6.24,1.29,9.64,4.64,40.49,22.15,100.16,48.35,189.82"/><path class="cls-38" d="M2.4,10.09c13.1,64.95,35.15,173.56,36.93,245.05.76,30.62,15.73,53.26,23.76,72.38,11.51,27.39,18.54,62.14,9.95,105.24-8.05,40.4-52.21,60.11-60.81,87.52-16.98,54.13,52.6,54.52,32.53,104.85-2.09,5.24-2.62,10.66-4.16,15.49-15.66,49.14,26.48,58.85,12.28,91.46-.77,1.76-1.56,3.88-2.44,6.25-5.65,15.2-23.51,44.62-24.58,64.12-.49,8.91.67,15.89,1.23,20.97.34,3.08.56,6.27.79,9.67,2.87,41.62,21.96,103.49,47.62,190"/><path class="cls-20" d="M2.59,11.09c13.11,64.04,35.35,172.43,38.22,244.16,1.24,31.07,15.4,54.21,22.4,72.69,10.53,27.78,16.53,62.83,8.38,105.29-7.73,40.29-48.58,61.8-58.58,88.91-20.64,55.96,55.16,51.86,31.54,103.26-2.37,5.16-3.21,10.54-4.95,15.27-18.3,49.96,27.54,58.14,13.69,90.49-.75,1.74-1.51,3.87-2.36,6.28-5.4,15.24-21.89,44.97-23.24,64.74-.58,9.01.33,16.09.61,21.02.18,3.1.21,6.3.3,9.71,1.06,42.74,21.77,106.82,46.9,190.17"/><path class="cls-12" d="M2.78,12.09c13.12,63.14,35.55,171.29,39.51,243.27,1.74,31.52,15.03,55.17,21.05,73,9.51,28.19,14.51,63.51,6.81,105.35s-44.99,63.45-56.35,90.3c-24.41,57.7,57.81,49.27,30.55,101.67-2.65,5.09-3.81,10.42-5.73,15.06-21.03,50.74,28.61,57.42,15.1,89.53-.73,1.73-1.47,3.87-2.29,6.31-5.15,15.29-20.3,45.31-21.9,65.35-.69,9.11-.02,16.3,0,21.07,0,3.13-.13,6.33-.2,9.74-.81,43.86,21.58,110.14,46.17,190.35"/><path class="cls-34" d="M2.97,13.09c13.13,62.23,35.77,170.15,40.8,242.37,2.23,31.97,14.63,56.14,19.69,73.31,8.44,28.62,12.5,64.2,5.23,105.4-7.07,40.09-41.43,65.06-54.13,91.69-28.29,59.36,60.54,46.76,29.56,100.08-2.92,5.02-4.41,10.29-6.52,14.85-23.82,51.48,29.67,56.7,16.51,88.57-.71,1.71-1.42,3.86-2.21,6.34-4.9,15.34-18.72,45.65-20.56,65.96-.8,9.2-.38,16.5-.62,21.12-.17,3.15-.49,6.37-.69,9.78-2.73,44.97,21.38,113.47,45.45,190.53"/><path class="cls-42" d="M3.16,14.09c13.14,61.33,35.99,169.01,42.1,241.48,2.73,32.42,14.2,57.13,18.34,73.62,7.3,29.07,10.49,64.88,3.66,105.45s-37.89,66.63-51.9,93.08c-32.25,60.92,63.33,44.33,28.58,98.49-3.18,4.96-5.01,10.15-7.3,14.63-26.68,52.16,30.74,55.99,17.92,87.61-.69,1.69-1.38,3.86-2.14,6.38-4.66,15.38-17.13,45.99-19.21,66.57-.91,9.3-.75,16.7-1.24,21.17-.35,3.17-.84,6.39-1.19,9.81-4.69,46.06,21.19,116.8,44.72,190.71"/><path class="cls-14" d="M3.35,15.09c13.15,60.42,36.23,167.87,43.39,240.58,3.24,32.87,13.72,58.12,16.98,73.93,6.09,29.54,8.49,65.57,2.08,105.5s-34.37,68.17-49.67,94.47c-36.29,62.38,66.16,41.98,27.59,96.9-3.45,4.91-5.62,10.01-8.09,14.42-29.6,52.78,31.8,55.27,19.33,86.64-.67,1.67-1.33,3.85-2.07,6.41-4.42,15.43-15.55,46.33-17.87,67.19-1.02,9.4-1.13,16.9-1.86,21.23-.54,3.19-1.19,6.42-1.68,9.84-6.7,47.14,21,120.13,44,190.88"/><path class="cls-15" d="M3.54,16.09c13.16,59.52,36.48,166.72,44.68,239.69,3.75,33.32,13.21,59.11,15.63,74.24,4.8,30,6.49,66.25.51,105.56s-30.84,69.67-47.44,95.86c-40.38,63.75,69.04,39.71,26.6,95.31-3.71,4.87-6.23,9.87-8.87,14.2-32.56,53.33,32.87,54.55,20.74,85.68-.65,1.65-1.29,3.84-1.99,6.44-4.18,15.47-13.96,46.67-16.53,67.8-1.13,9.49-1.51,17.1-2.47,21.28-.74,3.21-1.55,6.45-2.18,9.88-8.75,48.18,20.81,123.45,43.27,191.06"/><path class="cls-11" d="M3.73,17.09c13.18,58.61,36.73,165.58,45.97,238.79,4.26,33.77,12.66,60.1,14.27,74.55,3.4,30.47,4.5,66.94-1.07,105.61-5.71,39.68-27.32,71.13-45.21,97.25-44.53,65.03,71.94,37.51,25.61,93.72-3.98,4.83-6.84,9.72-9.66,13.99-35.57,53.83,33.93,53.84,22.15,84.72-.63,1.64-1.25,3.84-1.92,6.48-3.94,15.52-12.38,47.01-15.19,68.41-1.24,9.59-1.91,17.28-3.09,21.33-.94,3.22-1.91,6.47-2.67,9.91-10.83,49.21,20.62,126.78,42.55,191.24"/><path class="cls-7" d="M3.92,18.09c13.19,57.71,37,164.42,47.27,237.9,4.78,34.21,12.08,61.07,12.92,74.86,1.89,30.91,2.51,67.63-2.64,105.66-5.36,39.58-23.8,72.56-42.98,98.64-48.7,66.23,74.86,35.39,24.62,92.14-4.24,4.79-7.45,9.57-10.44,13.77-38.62,54.26,35,53.12,23.57,83.76-.61,1.62-1.21,3.83-1.84,6.51-3.71,15.56-10.79,47.35-13.85,69.02-1.35,9.69-2.3,17.46-3.71,21.38-1.15,3.22-2.27,6.49-3.16,9.95-12.94,50.2,20.43,130.11,41.82,191.42"/><path class="cls-25" d="M4.11,19.09c13.2,56.8,37.27,163.27,48.56,237,5.31,34.65,11.46,62.02,11.56,75.17.25,31.33.52,68.31-4.21,105.71-5,39.48-20.27,73.96-40.75,100.03-52.9,67.35,77.79,33.32,23.63,90.55-4.51,4.77-8.06,9.41-11.23,13.56-41.7,54.62,36.06,52.4,24.98,82.79-.59,1.6-1.16,3.83-1.77,6.54-3.48,15.61-9.21,47.69-12.5,69.63-1.46,9.78-2.7,17.63-4.32,21.43-1.37,3.22-2.64,6.51-3.66,9.98-15.08,51.17,20.24,133.43,41.1,191.59"/><path class="cls-19" d="M4.3,20.09c13.21,55.9,37.65,162.09,49.85,236.11,5.88,35.09,10.82,62.93,10.21,75.48-1.53,31.69-1.42,69.01-5.79,105.77-4.59,39.38-16.73,75.34-38.52,101.42-57.12,68.39,80.72,31.32,22.64,88.96-4.78,4.74-8.67,9.25-12.01,13.35-44.8,54.93,37.13,51.69,26.39,81.83-.56,1.58-1.13,3.82-1.7,6.57-3.28,15.64-7.62,48.03-11.16,70.25-1.57,9.88-3.11,17.79-4.94,21.48-1.6,3.21-3,6.53-4.15,10.02-17.25,52.1,20.05,136.76,40.37,191.77"/><path class="cls-6" d="M4.49,21.09c19.54,81.31,64,274,60,311-7.21,66.73.71,158.47-43.66,208.63-61.34,69.37,83.66,29.37,21.66,87.37-73.87,69.1,26.16,61.91,15,94-4.96,14.27-9.51,85.88-17,99-29.35,51.39,13.9,146.71,35,202"/><path class="cls-33" d="M4.44,20.9c19.19,80.54,63.55,269,59.83,308.24-4.02,42.42-2.6,94.24-13.34,138.62-6.43,26.59-13.76,49.68-29.7,67.92-38.13,43.84,3.86,44.77,25.13,53.88,12.88,5.52,18.82,13.75-2.72,35.05-35.27,34.86-26.97,50.79-13.11,62.26,13.05,10.8,32.99,17.36,27.8,33.04-1.65,5-3.25,16.09-5.08,29.16-3.7,26.23-7.68,60.63-12.55,70.04-2.49,4.82-4.5,9.91-5.87,15.32-2.11,8.35-2.89,17.38-2.76,26.86.67,50.86,26.45,112.34,43.18,160.7"/><path class="cls-26" d="M4.4,20.71c18.84,79.77,63.08,264,59.66,305.49-3.51,42.53-2.21,93.82-14.03,137.12-7.36,26.95-12.79,49.16-28.39,67.32-37.96,44.18,3.67,45.56,24.28,55.2,12.66,5.92,18.76,14.4-1.13,35.3-32.59,34.23-23.97,50.68-11.41,62.74,11.71,11.25,30.76,18.11,25.8,33.85-1.65,5.25-3.23,16.3-5.21,29.24-4.02,26.03-8.32,60.07-13.05,70.17-2.29,4.9-4.22,10-5.42,15.43-1.84,8.39-2.3,17.4-1.96,26.82,1.81,50.11,24.17,107.17,41.47,161.51"/><path class="cls-30" d="M4.35,20.52c18.49,79,62.59,258.99,59.49,302.73s-1.88,93.4-14.71,135.63c-8.31,27.33-11.8,48.67-27.08,66.72-37.73,44.57,3.48,46.36,23.44,56.52,12.44,6.33,18.71,15.06.46,35.54-29.92,33.6-20.99,50.53-9.72,63.23,10.36,11.67,28.54,18.85,23.79,34.67-1.65,5.49-3.22,16.51-5.34,29.32-4.35,25.84-8.97,59.49-13.54,70.29-2.11,4.98-3.93,10.1-4.97,15.53-1.57,8.42-1.71,17.42-1.16,26.78,2.93,49.36,21.9,102,39.77,162.33"/><path class="cls-8" d="M4.3,20.32c18.14,78.23,62.09,253.98,59.32,299.97-2.58,42.73-1.62,92.97-15.4,134.13-9.28,27.72-10.81,48.17-25.77,66.12-37.5,44.96,3.29,47.18,22.59,57.84,12.22,6.75,18.64,15.72,2.06,35.79-27.25,32.98-18.03,50.33-8.02,63.72,9,12.04,26.34,19.6,21.79,35.48-1.64,5.74-3.2,16.72-5.47,29.4-4.67,25.64-9.62,58.9-14.04,70.41-1.93,5.04-3.65,10.19-4.51,15.64-1.3,8.46-1.13,17.43-.36,26.74,4.04,48.6,19.63,96.84,38.06,163.14"/><path class="cls-32" d="M4.25,20.13c17.78,77.47,61.57,248.97,59.15,297.21-2.15,42.82-1.42,92.55-16.09,132.63-10.28,28.1-9.81,47.68-24.47,65.52-37.27,45.36,3.1,48.01,21.75,59.16,12,7.18,18.58,16.38,3.65,36.04-24.59,32.37-15.07,50.07-6.32,64.21,7.66,12.36,24.14,20.35,19.79,36.29-1.64,5.99-3.19,16.92-5.61,29.47-5,25.45-10.29,58.29-14.54,70.54-1.77,5.1-3.38,10.28-4.06,15.74-1.05,8.49-.55,17.45.44,26.7,5.14,47.84,17.36,91.67,36.35,163.96"/><path class="cls-3" d="M4.21,19.94c17.43,76.7,61.03,243.95,58.98,294.46-1.74,42.92-1.28,92.11-16.78,131.14-11.31,28.49-8.81,47.19-23.16,64.92-37.03,45.76,2.9,48.86,20.9,60.48,11.78,7.61,18.52,17.06,5.25,36.28-21.93,31.78-12.11,49.76-4.62,64.7,6.33,12.63,21.95,21.11,17.78,37.1-1.63,6.24-3.17,17.13-5.74,29.55-5.32,25.25-10.98,57.68-15.03,70.66-1.61,5.16-3.1,10.37-3.6,15.85-.78,8.53.03,17.46,1.25,26.66,6.22,47.08,15.08,86.5,34.64,164.77"/><path class="cls-13" d="M4.16,19.75c17.08,75.93,60.47,238.93,58.81,291.7-1.35,43.01-1.19,91.66-17.46,129.64-12.37,28.88-7.81,46.7-21.85,64.32-36.79,46.16,2.71,49.72,20.06,61.8,11.56,8.05,18.45,17.74,6.84,36.53-19.28,31.2-9.11,49.4-2.93,65.18,5.04,12.86,19.76,21.87,15.78,37.91-1.61,6.5-3.13,17.35-5.87,29.63-5.59,25.07-11.68,57.06-15.53,70.78-1.46,5.21-2.82,10.47-3.15,15.95-.52,8.56.61,17.48,2.05,26.62,7.29,46.31,12.81,81.34,32.93,165.59"/><path class="cls-16" d="M4.11,19.56c16.73,75.16,59.89,233.92,58.64,288.94-.98,43.1-1.15,91.2-18.15,128.15-13.46,29.25-6.81,46.22-20.55,63.72-36.55,46.57,2.5,50.59,19.21,63.12,11.33,8.5,18.39,18.43,8.44,36.78-16.62,30.64-6.07,49-1.23,65.67,3.79,13.05,17.59,22.63,13.77,38.72-1.6,6.75-3.11,17.56-6,29.71-5.91,24.88-12.4,56.44-16.03,70.91-1.32,5.26-2.54,10.56-2.7,16.06-.25,8.6,1.18,17.49,2.85,26.58,8.35,45.55,10.54,76.17,31.22,166.4"/><path class="cls-28" d="M4.06,19.37c16.38,74.39,59.29,228.9,58.46,286.19-.63,43.19-1.15,90.72-18.84,126.65-14.58,29.62-5.81,45.73-19.24,63.12-36.3,46.98,2.29,51.48,18.37,64.44,11.11,8.96,18.32,19.14,10.03,37.02-13.96,30.1-2.98,48.56.47,66.16,2.59,13.22,15.42,23.39,11.77,39.53-1.58,7-3.1,17.77-6.13,29.79-6.23,24.69-13.13,55.81-16.52,71.03-1.18,5.31-2.25,10.65-2.24,16.16.02,8.63,1.76,17.5,3.65,26.54,9.39,44.78,8.27,71,29.51,167.22"/><path class="cls-23" d="M4.02,19.18c16.03,73.63,58.68,223.88,58.29,283.43-.28,43.28-1.19,90.22-19.53,125.16-15.73,29.98-4.8,45.25-17.93,62.52-36.04,47.4,2.07,52.38,17.52,65.76,10.87,9.42,18.27,19.86,11.63,37.27-11.29,29.59.18,48.12,2.16,66.65,1.44,13.38,13.25,24.15,9.76,40.34-1.56,7.26-3.08,17.98-6.26,29.87-6.56,24.49-13.89,55.17-17.02,71.15-1.05,5.36-1.97,10.75-1.79,16.27.29,8.67,2.33,17.52,4.45,26.5,10.42,44.02,6,65.84,27.8,168.03"/><path class="cls-27" d="M3.97,18.99c15.68,72.86,58.05,218.86,58.12,280.67.05,43.37-1.27,89.71-20.21,123.66-16.91,30.31-3.8,44.77-16.63,61.92-35.78,47.82,1.85,53.29,16.68,67.08,10.63,9.89,18.23,20.6,13.22,37.52-8.61,29.1,3.4,47.68,3.86,67.14.32,13.54,11.09,24.92,7.76,41.15-1.54,7.51-3.07,18.19-6.4,29.95-6.88,24.3-14.65,54.54-17.52,71.28-.93,5.41-1.69,10.84-1.33,16.37.56,8.7,2.89,17.53,5.26,26.46,11.44,43.26,3.72,60.67,26.09,168.85"/><path class="cls-37" d="M3.92,18.8c15.33,72.09,57.4,213.84,57.95,277.91.37,43.46-1.38,89.18-20.9,122.17-18.12,30.63-2.79,44.29-15.32,61.31-35.51,48.25,1.61,54.21,15.83,68.4,10.39,10.37,18.2,21.35,14.82,37.76-5.9,28.64,6.68,47.26,5.56,67.62-.75,13.71,8.93,25.68,5.75,41.97-1.52,7.76-3.05,18.4-6.53,30.03-7.21,24.11-15.44,53.91-18.01,71.4-.8,5.46-1.41,10.93-.88,16.47.83,8.74,3.46,17.55,6.06,26.43,12.45,42.5,1.45,55.5,24.38,169.66"/><path class="cls-31" d="M3.87,18.61c14.98,71.32,56.74,208.82,57.78,275.16.69,43.55-1.52,88.62-21.59,120.67s-1.77,43.81-14.01,60.71c-35.24,48.68,1.37,55.13,14.99,69.72,10.13,10.86,18.19,22.11,16.41,38.01-3.16,28.19,10.01,46.87,7.26,68.11-1.8,13.91,6.78,26.45,3.75,42.78-1.49,8.02-3.04,18.61-6.66,30.1-7.53,23.91-16.24,53.27-18.51,71.52-.69,5.51-1.12,11.03-.43,16.58,1.1,8.77,4.02,17.56,6.86,26.39,13.44,41.75-.82,50.33,22.67,170.48"/><path class="cls-24" d="M3.83,18.42c14.63,70.55,56.05,203.8,57.61,272.4.99,43.64-1.68,88.04-22.28,119.17-20.64,31.2-.76,43.33-12.7,60.11-34.96,49.11,1.11,56.07,14.14,71.04,9.87,11.35,18.21,22.88,18,38.26-.37,27.75,13.38,46.51,8.95,68.6-2.83,14.13,4.63,27.21,1.75,43.59-1.46,8.27-3.03,18.82-6.79,30.18-7.86,23.72-17.06,52.64-19.01,71.65-.57,5.56-.84,11.12.03,16.68,1.37,8.81,4.58,17.58,7.66,26.35,14.42,41-3.09,45.17,20.96,171.29"/><path class="cls-5" d="M3.78,18.23c14.27,69.79,55.35,198.79,57.44,269.64,1.29,43.74-1.87,87.44-22.96,117.68-21.94,31.44.26,42.86-11.4,59.51-34.67,49.55.84,57.01,13.3,72.36,9.6,11.84,18.26,23.64,19.6,38.5,2.47,27.31,16.78,46.18,10.65,69.09-3.85,14.38,2.49,27.98-.26,44.4-1.43,8.53-3.01,19.03-6.92,30.26-8.19,23.52-17.89,52-19.5,71.77-.46,5.61-.55,11.21.48,16.79,1.64,8.85,5.14,17.6,8.46,26.31,15.39,40.26-5.37,40,19.26,172.11"/><path class="cls-22" d="M3.73,18.04c13.92,69.02,54.63,193.78,57.27,266.88,1.58,43.83-2.07,86.82-23.65,116.18-23.27,31.66,1.28,42.38-10.09,58.91-34.37,50,.57,57.95,12.45,73.68,9.32,12.34,18.33,24.4,21.19,38.75,5.36,26.85,20.2,45.89,12.35,69.58-4.86,14.65.35,28.74-2.26,45.21-1.39,8.78-3.02,19.23-7.06,30.34-8.57,23.31-18.74,51.38-20,71.89-.35,5.66-.27,11.3.94,16.89,1.92,8.88,5.69,17.62,9.27,26.27,16.35,39.53-7.64,34.83,17.55,172.92"/><path class="cls-18" d="M3.68,17.85c13.57,68.25,53.9,188.77,57.1,264.13,1.87,43.93-2.28,86.17-24.34,114.69-24.63,31.84,2.3,41.91-8.78,58.31-34.07,50.45.28,58.89,11.61,75,9.03,12.85,18.43,25.13,22.79,39,8.29,26.36,23.64,45.64,14.05,70.06-5.87,14.94-1.79,29.51-4.27,46.02-1.36,9.04-3.01,19.44-7.19,30.42-8.89,23.12-19.6,50.75-20.5,72.02-.24,5.71.03,11.39,1.39,17,2.2,8.91,6.24,17.64,10.07,26.23,17.29,38.8-9.91,29.67,15.84,173.74"/><path class="cls-40" d="M3.64,17.66c13.22,67.48,53.15,183.76,56.93,261.37,2.15,44.02-2.5,85.5-25.03,113.19-26.02,31.98,3.32,41.44-7.48,57.71-33.76,50.9-.02,59.84,10.76,76.32,8.73,13.35,18.53,25.84,24.38,39.24,11.26,25.81,27.08,45.41,15.74,70.55-6.88,15.25-3.92,30.27-6.27,46.83-1.32,9.3-2.99,19.65-7.32,30.5-9.22,22.93-20.47,50.12-20.99,72.14-.14,5.76.31,11.49,1.84,17.1,2.47,8.95,6.79,17.67,10.87,26.19,18.23,38.09-12.18,24.5,14.13,174.55"/><path class="cls-35" d="M3.59,17.47c12.87,66.71,52.38,178.75,56.76,258.61,2.42,44.12-2.73,84.81-25.71,111.7-27.43,32.09,4.34,40.97-6.17,57.11-33.44,51.36-.33,60.78,9.92,77.64,8.42,13.86,18.65,26.52,25.98,39.49,14.24,25.21,30.52,45.21,17.44,71.04-7.89,15.58-6.06,31.04-8.28,47.64-1.28,9.55-2.98,19.86-7.45,30.58-9.54,22.73-21.36,49.5-21.49,72.26-.03,5.82.59,11.58,2.3,17.21,2.74,8.98,7.34,17.7,11.67,26.15,19.16,37.38-14.46,19.33,12.42,175.37"/><path class="cls-36" d="M3.54,17.28c12.52,65.95,51.59,173.75,56.59,255.86,2.69,44.22-2.96,84.09-26.4,110.2-28.87,32.16,5.39,40.51-4.86,56.51-33.04,51.86-.65,61.73,9.07,78.96,8.1,14.36,18.76,27.17,27.57,39.74,17.22,24.56,33.95,45.03,19.14,71.53-8.91,15.93-8.19,31.8-10.28,48.45-1.23,9.81-2.96,20.07-7.58,30.66-9.86,22.54-22.26,48.89-21.99,72.39.07,5.88.87,11.67,2.75,17.31,3.01,9.02,7.88,17.72,12.48,26.11,20.08,36.69-16.73,14.17,10.71,176.18"/><path class="cls-43" d="M3.49,17.09c18.56,99.43,98.68,288.18,29.33,361.8-30.33,32.2,6.4,40.03-3.55,55.91-32.78,52.29-.99,62.67,8.22,80.29,23,44,75,71,50,112-15.91,26.1-7.32,52.19-20,80-12.68,27.81-29.7,61.19-19.28,89.93,3.28,9.05,8.43,17.76,13.28,26.07,21,36-19,9,9,177"/></g></svg>