<?xml version="1.0" encoding="UTF-8"?><svg id="Layer_2" xmlns="http://www.w3.org/2000/svg" width="347.86" height="674.12" xmlns:xlink="http://www.w3.org/1999/xlink" viewBox="0 0 347.86 674.12"><defs><style>.cls-1{stroke:url(#linear-gradient-2);}.cls-1,.cls-2,.cls-3,.cls-4,.cls-5,.cls-6,.cls-7,.cls-8,.cls-9,.cls-10,.cls-11,.cls-12,.cls-13,.cls-14,.cls-15,.cls-16,.cls-17,.cls-18,.cls-19,.cls-20,.cls-21,.cls-22{fill:none;stroke-miterlimit:10;}.cls-2{stroke:url(#linear-gradient-3);}.cls-3{stroke:url(#linear-gradient-9);}.cls-4{stroke:url(#linear-gradient-22);}.cls-5{stroke:url(#linear-gradient-19);}.cls-6{stroke:url(#linear-gradient-4);}.cls-7{stroke:url(#linear-gradient-6);}.cls-8{stroke:url(#linear-gradient-18);}.cls-9{stroke:url(#linear-gradient-13);}.cls-10{stroke:url(#linear-gradient-16);}.cls-11{stroke:url(#linear-gradient-17);}.cls-12{stroke:url(#linear-gradient-7);}.cls-13{stroke:url(#linear-gradient-21);}.cls-14{stroke:url(#linear-gradient-12);}.cls-15{stroke:url(#linear-gradient-5);}.cls-16{stroke:url(#linear-gradient-20);}.cls-17{stroke:url(#linear-gradient);}.cls-18{stroke:url(#linear-gradient-14);}.cls-19{stroke:url(#linear-gradient-11);}.cls-20{stroke:url(#linear-gradient-8);}.cls-21{stroke:url(#linear-gradient-10);}.cls-22{stroke:url(#linear-gradient-15);}</style><linearGradient id="linear-gradient" x1="173.93" y1="674.12" x2="173.93" y2="0" gradientUnits="userSpaceOnUse"><stop offset="0" stop-color="#fffaf5" stop-opacity="0"/><stop offset=".45" stop-color="#fb8500" stop-opacity=".36"/><stop offset=".52" stop-color="#fb8500"/><stop offset=".81" stop-color="#fb8500" stop-opacity=".3"/><stop offset="1" stop-color="#fffaf5" stop-opacity="0"/></linearGradient><linearGradient id="linear-gradient-2" x1="172.79" y1="673.49" x2="172.79" y2="1.38" gradientUnits="userSpaceOnUse"><stop offset="0" stop-color="#fffaf5" stop-opacity="0"/><stop offset=".33" stop-color="#fca33e" stop-opacity=".36"/><stop offset=".45" stop-color="#fb8500" stop-opacity=".39"/><stop offset=".52" stop-color="#fb8500"/><stop offset=".75" stop-color="#fb8500" stop-opacity=".3"/><stop offset=".81" stop-color="#fb8603" stop-opacity=".29"/><stop offset="1" stop-color="#fffaf5" stop-opacity="0"/></linearGradient><linearGradient id="linear-gradient-3" x1="171.67" y1="672.87" x2="171.67" y2="2.76" gradientUnits="userSpaceOnUse"><stop offset="0" stop-color="#fffaf5" stop-opacity="0"/><stop offset=".33" stop-color="#fca13b" stop-opacity=".36"/><stop offset=".45" stop-color="#fb8500" stop-opacity=".42"/><stop offset=".52" stop-color="#fb8500"/><stop offset=".75" stop-color="#fb8500" stop-opacity=".3"/><stop offset=".81" stop-color="#fb8806" stop-opacity=".27"/><stop offset="1" stop-color="#fffaf5" stop-opacity="0"/></linearGradient><linearGradient id="linear-gradient-4" x1="170.56" y1="672.24" x2="170.56" y2="4.14" gradientUnits="userSpaceOnUse"><stop offset="0" stop-color="#fffaf5" stop-opacity="0"/><stop offset=".33" stop-color="#fca038" stop-opacity=".36"/><stop offset=".45" stop-color="#fb8500" stop-opacity=".45"/><stop offset=".52" stop-color="#fb8500"/><stop offset=".75" stop-color="#fb8500" stop-opacity=".3"/><stop offset=".81" stop-color="#fb8909" stop-opacity=".26"/><stop offset="1" stop-color="#fffaf5" stop-opacity="0"/></linearGradient><linearGradient id="linear-gradient-5" x1="169.45" y1="671.62" x2="169.45" y2="5.53" gradientUnits="userSpaceOnUse"><stop offset="0" stop-color="#fffaf5" stop-opacity="0"/><stop offset=".33" stop-color="#fc9e35" stop-opacity=".36"/><stop offset=".45" stop-color="#fb8500" stop-opacity=".48"/><stop offset=".52" stop-color="#fb8500"/><stop offset=".75" stop-color="#fb8500" stop-opacity=".3"/><stop offset=".81" stop-color="#fb8b0c" stop-opacity=".25"/><stop offset="1" stop-color="#fffaf5" stop-opacity="0"/></linearGradient><linearGradient id="linear-gradient-6" x1="168.35" y1="670.99" x2="168.35" y2="6.91" gradientUnits="userSpaceOnUse"><stop offset="0" stop-color="#fffaf5" stop-opacity="0"/><stop offset=".33" stop-color="#fc9d32" stop-opacity=".36"/><stop offset=".45" stop-color="#fb8500" stop-opacity=".51"/><stop offset=".52" stop-color="#fb8500"/><stop offset=".75" stop-color="#fb8500" stop-opacity=".3"/><stop offset=".81" stop-color="#fb8c0f" stop-opacity=".23"/><stop offset="1" stop-color="#fffaf5" stop-opacity="0"/></linearGradient><linearGradient id="linear-gradient-7" x1="167.59" y1="670.37" x2="167.59" y2="8.29" gradientUnits="userSpaceOnUse"><stop offset="0" stop-color="#fffaf5" stop-opacity="0"/><stop offset=".33" stop-color="#fc9b2e" stop-opacity=".36"/><stop offset=".45" stop-color="#fb8500" stop-opacity=".54"/><stop offset=".52" stop-color="#fb8500"/><stop offset=".75" stop-color="#fb8500" stop-opacity=".3"/><stop offset=".81" stop-color="#fb8e12" stop-opacity=".22"/><stop offset="1" stop-color="#fffaf5" stop-opacity="0"/></linearGradient><linearGradient id="linear-gradient-8" x1="167" y1="669.75" x2="167" y2="9.67" gradientUnits="userSpaceOnUse"><stop offset="0" stop-color="#fffaf5" stop-opacity="0"/><stop offset=".33" stop-color="#fc9a2b" stop-opacity=".36"/><stop offset=".45" stop-color="#fb8500" stop-opacity=".57"/><stop offset=".52" stop-color="#fb8500"/><stop offset=".75" stop-color="#fb8500" stop-opacity=".3"/><stop offset=".81" stop-color="#fb8f15" stop-opacity=".2"/><stop offset="1" stop-color="#fffaf5" stop-opacity="0"/></linearGradient><linearGradient id="linear-gradient-9" x1="166.41" y1="669.12" x2="166.41" y2="11.05" gradientUnits="userSpaceOnUse"><stop offset="0" stop-color="#fffaf5" stop-opacity="0"/><stop offset=".33" stop-color="#fc9828" stop-opacity=".36"/><stop offset=".45" stop-color="#fb8500" stop-opacity=".6"/><stop offset=".52" stop-color="#fb8500"/><stop offset=".75" stop-color="#fb8500" stop-opacity=".3"/><stop offset=".81" stop-color="#fb9018" stop-opacity=".19"/><stop offset="1" stop-color="#fffaf5" stop-opacity="0"/></linearGradient><linearGradient id="linear-gradient-10" x1="165.81" y1="668.5" x2="165.81" y2="12.43" gradientUnits="userSpaceOnUse"><stop offset="0" stop-color="#fffaf5" stop-opacity="0"/><stop offset=".33" stop-color="#fc9725" stop-opacity=".36"/><stop offset=".45" stop-color="#fb8500" stop-opacity=".63"/><stop offset=".52" stop-color="#fb8500"/><stop offset=".75" stop-color="#fb8500" stop-opacity=".3"/><stop offset=".81" stop-color="#fb921b" stop-opacity=".17"/><stop offset="1" stop-color="#fffaf5" stop-opacity="0"/></linearGradient><linearGradient id="linear-gradient-11" x1="165.21" y1="667.87" x2="165.21" y2="13.81" gradientUnits="userSpaceOnUse"><stop offset="0" stop-color="#fffaf5" stop-opacity="0"/><stop offset=".33" stop-color="#fc9522" stop-opacity=".36"/><stop offset=".45" stop-color="#fb8500" stop-opacity=".66"/><stop offset=".52" stop-color="#fb8500"/><stop offset=".75" stop-color="#fb8500" stop-opacity=".3"/><stop offset=".81" stop-color="#fb931e" stop-opacity=".16"/><stop offset="1" stop-color="#fffaf5" stop-opacity="0"/></linearGradient><linearGradient id="linear-gradient-12" x1="164.61" y1="667.25" x2="164.61" y2="15.19" gradientUnits="userSpaceOnUse"><stop offset="0" stop-color="#fffaf5" stop-opacity="0"/><stop offset=".33" stop-color="#fb941f" stop-opacity=".36"/><stop offset=".45" stop-color="#fb8500" stop-opacity=".69"/><stop offset=".52" stop-color="#fb8500"/><stop offset=".75" stop-color="#fb8500" stop-opacity=".3"/><stop offset=".81" stop-color="#fc9520" stop-opacity=".14"/><stop offset="1" stop-color="#fffaf5" stop-opacity="0"/></linearGradient><linearGradient id="linear-gradient-13" x1="164" y1="666.63" x2="164" y2="16.58" gradientUnits="userSpaceOnUse"><stop offset="0" stop-color="#fffaf5" stop-opacity="0"/><stop offset=".33" stop-color="#fb921c" stop-opacity=".36"/><stop offset=".45" stop-color="#fb8500" stop-opacity=".72"/><stop offset=".52" stop-color="#fb8500"/><stop offset=".75" stop-color="#fb8500" stop-opacity=".3"/><stop offset=".81" stop-color="#fc9623" stop-opacity=".13"/><stop offset="1" stop-color="#fffaf5" stop-opacity="0"/></linearGradient><linearGradient id="linear-gradient-14" x1="163.38" y1="666" x2="163.38" y2="17.96" gradientUnits="userSpaceOnUse"><stop offset="0" stop-color="#fffaf5" stop-opacity="0"/><stop offset=".33" stop-color="#fb9119" stop-opacity=".36"/><stop offset=".45" stop-color="#fb8500" stop-opacity=".76"/><stop offset=".52" stop-color="#fb8500"/><stop offset=".75" stop-color="#fb8500" stop-opacity=".3"/><stop offset=".81" stop-color="#fc9826" stop-opacity=".12"/><stop offset="1" stop-color="#fffaf5" stop-opacity="0"/></linearGradient><linearGradient id="linear-gradient-15" x1="162.23" y1="665.38" x2="162.23" y2="19.34" gradientUnits="userSpaceOnUse"><stop offset="0" stop-color="#fffaf5" stop-opacity="0"/><stop offset=".33" stop-color="#fb8f16" stop-opacity=".36"/><stop offset=".45" stop-color="#fb8500" stop-opacity=".79"/><stop offset=".52" stop-color="#fb8500"/><stop offset=".75" stop-color="#fb8500" stop-opacity=".3"/><stop offset=".81" stop-color="#fc9929" stop-opacity=".1"/><stop offset="1" stop-color="#fffaf5" stop-opacity="0"/></linearGradient><linearGradient id="linear-gradient-16" x1="160.68" y1="664.76" x2="160.68" y2="20.72" gradientUnits="userSpaceOnUse"><stop offset="0" stop-color="#fffaf5" stop-opacity="0"/><stop offset=".33" stop-color="#fb8e13" stop-opacity=".36"/><stop offset=".45" stop-color="#fb8500" stop-opacity=".82"/><stop offset=".52" stop-color="#fb8500"/><stop offset=".75" stop-color="#fb8500" stop-opacity=".3"/><stop offset=".81" stop-color="#fc9a2c" stop-opacity=".09"/><stop offset="1" stop-color="#fffaf5" stop-opacity="0"/></linearGradient><linearGradient id="linear-gradient-17" x1="159.1" y1="664.13" x2="159.1" y2="22.1" gradientUnits="userSpaceOnUse"><stop offset="0" stop-color="#fffaf5" stop-opacity="0"/><stop offset=".33" stop-color="#fb8c0f" stop-opacity=".36"/><stop offset=".45" stop-color="#fb8500" stop-opacity=".85"/><stop offset=".52" stop-color="#fb8500"/><stop offset=".75" stop-color="#fb8500" stop-opacity=".3"/><stop offset=".81" stop-color="#fc9c2f" stop-opacity=".07"/><stop offset="1" stop-color="#fffaf5" stop-opacity="0"/></linearGradient><linearGradient id="linear-gradient-18" x1="157.51" y1="663.51" x2="157.51" y2="23.48" gradientUnits="userSpaceOnUse"><stop offset="0" stop-color="#fffaf5" stop-opacity="0"/><stop offset=".33" stop-color="#fb8b0c" stop-opacity=".36"/><stop offset=".45" stop-color="#fb8500" stop-opacity=".88"/><stop offset=".52" stop-color="#fb8500"/><stop offset=".75" stop-color="#fb8500" stop-opacity=".3"/><stop offset=".81" stop-color="#fc9d32" stop-opacity=".06"/><stop offset="1" stop-color="#fffaf5" stop-opacity="0"/></linearGradient><linearGradient id="linear-gradient-19" x1="155.88" y1="662.89" x2="155.88" y2="24.86" gradientUnits="userSpaceOnUse"><stop offset="0" stop-color="#fffaf5" stop-opacity="0"/><stop offset=".33" stop-color="#fb8909" stop-opacity=".36"/><stop offset=".45" stop-color="#fb8500" stop-opacity=".91"/><stop offset=".52" stop-color="#fb8500"/><stop offset=".75" stop-color="#fb8500" stop-opacity=".3"/><stop offset=".81" stop-color="#fc9f35" stop-opacity=".04"/><stop offset="1" stop-color="#fffaf5" stop-opacity="0"/></linearGradient><linearGradient id="linear-gradient-20" x1="154.23" y1="662.26" x2="154.23" y2="26.25" gradientUnits="userSpaceOnUse"><stop offset="0" stop-color="#fffaf5" stop-opacity="0"/><stop offset=".33" stop-color="#fb8806" stop-opacity=".36"/><stop offset=".45" stop-color="#fb8500" stop-opacity=".94"/><stop offset=".52" stop-color="#fb8500"/><stop offset=".75" stop-color="#fb8500" stop-opacity=".3"/><stop offset=".81" stop-color="#fca038" stop-opacity=".03"/><stop offset="1" stop-color="#fffaf5" stop-opacity="0"/></linearGradient><linearGradient id="linear-gradient-21" x1="152.55" y1="661.64" x2="152.55" y2="27.63" gradientUnits="userSpaceOnUse"><stop offset="0" stop-color="#fffaf5" stop-opacity="0"/><stop offset=".33" stop-color="#fb8603" stop-opacity=".36"/><stop offset=".45" stop-color="#fb8500" stop-opacity=".97"/><stop offset=".52" stop-color="#fb8500"/><stop offset=".75" stop-color="#fb8500" stop-opacity=".3"/><stop offset=".81" stop-color="#fca23b" stop-opacity=".01"/><stop offset="1" stop-color="#fffaf5" stop-opacity="0"/></linearGradient><linearGradient id="linear-gradient-22" x1="150.85" y1="661.02" x2="150.85" y2="29.01" gradientUnits="userSpaceOnUse"><stop offset="0" stop-color="#fffaf5" stop-opacity="0"/><stop offset=".33" stop-color="#fb8500" stop-opacity=".36"/><stop offset=".52" stop-color="#fb8500"/><stop offset=".75" stop-color="#fb8500" stop-opacity=".3"/><stop offset="1" stop-color="#fffaf5" stop-opacity="0"/></linearGradient></defs><g id="Layer_1-2"><path class="cls-17" d="M35.84.05c4,44,1.22,137.08,17,151,17,15-9,34,4,55,7.93,12.82-11,26-27,27-24.18,1.51,34.79,57.08,21,77-9,13-54.71,19.33-50,53,7,50,73-29,86-3,15.42,30.84,84.86-32.94,103-3,20,33,41.33-24.49,63-14,31,15,69.6,11.68,89,30,18,17-14.72,23.9-4,29,21,10-49.86,33.54-66.52,56.65-43.48,60.35-24.26,145.35-34.48,215.35"/><path class="cls-1" d="M35.94,1.43c3.95,43.76,1.31,134.81,16.5,149.61s-6.42,32.02,1.82,51.52c.42,1,.91,2,1.49,3,7.34,12.71-11.03,25.65-26.53,27.21-16.74,1.68,6.25,29.31,17.1,52.28,4.5,9.53,6.67,18.28,2.92,24.17-8.47,13.28-52.17,20.39-47.33,53.41,6.97,48.44,71.02-25.84,84.68-.68,9.87,18.17,38.42,3.2,62.52-6.07,15.95-6.09,31.24-9.1,38.68,2.31,13.3,20.41,26.76,4.24,40.54-6.72,7.3-5.78,14.67-10.06,22.07-6.65,30.86,14.11,68.74,10.5,88,28.28,17.68,16.42-12.88,23.12-2.57,28.4,15.06,7.71-19.76,22.88-45.7,40.3-8.33,5.6-15.52,11.38-19.54,17.17-8.29,11.94-14.2,24.81-18.58,38.26-17.83,54.82-7.27,118.83-15.11,176.2"/><path class="cls-2" d="M36.03,2.81c3.89,43.53,1.38,132.49,16.01,148.22,13.9,14.94-6.25,31.86,1.27,51.07.39.99.83,1.98,1.37,2.98,6.74,12.61-11.06,25.32-26.06,27.42-16.39,2.3,5.13,29.46,15.9,51.99,4.47,9.35,6.61,17.97,3.14,23.91-7.93,13.57-49.54,21.45-44.67,53.82,7.06,46.87,69.05-22.69,83.37,1.63,10.46,17.77,38.68,3.5,61.45-6.06,15.05-6.31,30.29-9.37,37.95,1.54,13.47,19.2,26.74,4.03,40.36-6.35,7.23-5.51,14.54-9.57,21.86-6.39,30.68,13.31,67.93,9.26,87,26.56,17.4,15.79-11.05,22.34-1.14,27.8,14.3,7.87-19.02,22.99-44.9,40.92-8.15,5.65-15.13,11.5-19.06,17.38-8,11.98-13.69,24.86-18.04,38.23-17.74,54.62-7.38,116.78-14.86,175.33"/><path class="cls-6" d="M36.13,4.19c3.84,43.29,1.43,130.12,15.51,146.82,12.79,15.18-6.08,31.71.71,50.62.35.98.75,1.97,1.24,2.95,6.15,12.51-11.1,24.99-25.58,27.64-16.06,2.93,4.01,29.62,14.7,51.7,4.44,9.17,6.55,17.66,3.36,23.64-7.4,13.87-46.96,22.51-42,54.22,7.09,45.3,67.1-19.53,82.05,3.95,11.07,17.38,38.94,3.82,60.38-6.05,14.15-6.51,29.33-9.65,37.23.77,13.62,17.99,26.72,3.84,40.18-5.99,7.17-5.23,14.41-9.09,21.66-6.13,30.52,12.46,67.09,8.06,85.99,24.84,17.1,15.18-9.23,21.56.29,27.2,13.54,8.02-18.29,23.1-44.11,41.53-7.97,5.69-14.74,11.61-18.58,17.58-7.72,12.01-13.19,24.91-17.5,38.21-17.65,54.43-7.5,114.74-14.6,174.47"/><path class="cls-15" d="M36.22,5.57c3.79,43.05,1.49,127.69,15.02,145.43,11.71,15.35-5.91,31.57.16,50.17.32.97.68,1.95,1.12,2.93,5.55,12.4-11.15,24.68-25.11,27.85-15.73,3.57,2.89,29.77,13.49,51.41,4.41,9,6.5,17.35,3.58,23.38-6.85,14.18-44.38,23.57-39.33,54.63,7.11,43.73,65.16-16.37,80.73,6.26,11.68,16.98,39.21,4.15,59.31-6.03,13.25-6.72,28.36-9.94,36.5,0,13.75,16.79,26.71,3.65,40-5.62,7.11-4.96,14.28-8.61,21.45-5.86,30.37,11.6,66.25,6.85,84.99,23.12,16.79,14.58-7.41,20.77,1.72,26.6,12.77,8.16-17.56,23.2-43.31,42.15-7.8,5.74-14.35,11.72-18.1,17.79-7.44,12.04-12.68,24.95-16.96,38.18-17.55,54.24-7.61,112.69-14.35,173.61"/><path class="cls-7" d="M36.32,6.95c3.74,42.82,1.55,125.21,14.52,144.04,10.66,15.47-5.75,31.42-.4,49.72.28.96.6,1.93.99,2.9,4.96,12.3-11.2,24.38-24.64,28.06-15.41,4.22,1.77,29.92,12.29,51.13,4.38,8.82,6.44,17.05,3.8,23.12-6.31,14.5-41.8,24.62-36.67,55.04,7.12,42.17,63.24-13.22,79.41,8.58,12.31,16.59,39.47,4.49,58.24-6.02,12.35-6.92,27.37-10.23,35.77-.77,13.84,15.58,26.71,3.46,39.82-5.25,7.04-4.68,14.15-8.13,21.25-5.6,30.22,10.75,65.41,5.65,83.99,21.4,16.49,13.98-5.59,19.97,3.15,26,12.01,8.29-16.83,23.29-42.52,42.77-7.62,5.78-13.96,11.83-17.62,17.99-7.16,12.06-12.17,25-16.42,38.16-17.46,54.04-7.72,110.65-14.09,172.74"/><path class="cls-12" d="M36.41,8.33c3.68,42.58,1.62,122.68,14.03,142.65,9.66,15.54-5.6,31.29-.95,49.26.25.95.52,1.92.86,2.88,4.37,12.2-11.25,24.09-24.17,28.27-15.1,4.88.65,30.08,11.09,50.84,4.35,8.65,6.39,16.75,4.02,22.85-5.75,14.83-39.23,25.68-34,55.45,7.13,40.6,61.33-10.07,78.1,10.89,12.95,16.19,39.73,4.82,57.17-6.01,11.45-7.11,26.36-10.52,35.05-1.54,13.9,14.38,26.7,3.27,39.64-4.89,6.98-4.4,14.02-7.65,21.04-5.34,30.07,9.89,64.56,4.44,82.99,19.68,16.18,13.38-3.77,19.16,4.58,25.4,11.25,8.4-16.1,23.38-41.72,43.38-7.45,5.82-13.57,11.94-17.14,18.2-6.89,12.09-11.66,25.05-15.88,38.14-17.36,53.85-7.84,108.6-13.84,171.88"/><path class="cls-20" d="M36.51,9.71c3.63,42.35,1.73,120.11,13.53,141.25,8.69,15.57-5.45,31.15-1.51,48.81.21.95.44,1.9.74,2.86,3.77,12.09-11.31,23.82-23.7,28.48-14.79,5.56-.47,30.23,9.89,50.55,4.32,8.47,6.34,16.45,4.24,22.59-5.19,15.16-36.66,26.74-31.33,55.86,7.14,39.04,59.44-6.93,76.78,13.21,13.59,15.79,39.99,5.16,56.1-6,10.55-7.31,25.34-10.82,34.32-2.31,13.92,13.2,26.69,3.09,39.46-4.52,6.93-4.13,13.9-7.17,20.84-5.07,29.92,9.03,63.72,3.24,81.99,17.96,15.87,12.78-1.95,18.34,6.01,24.8,10.48,8.5-15.38,23.45-40.93,44-7.28,5.86-13.18,12.05-16.66,18.4-6.62,12.11-11.15,25.09-15.34,38.11-17.27,53.66-7.95,106.56-13.58,171.01"/><path class="cls-3" d="M36.6,11.09c3.58,42.11,1.87,117.49,13.03,139.86,7.77,15.56-5.3,31.02-2.07,48.36.18.94.36,1.88.61,2.83,3.18,11.99-11.36,23.57-23.23,28.7-14.48,6.26-1.59,30.38,8.68,50.26,4.29,8.29,6.3,16.16,4.46,22.33-4.62,15.5-34.09,27.8-28.67,56.26,7.13,37.47,57.57-3.79,75.46,15.52,14.25,15.39,40.25,5.5,55.03-5.99,9.65-7.5,24.3-11.11,33.59-3.08,13.91,12.02,26.69,2.9,39.28-4.16,6.87-3.85,13.77-6.69,20.63-4.81,29.78,8.16,62.87,2.04,80.98,16.24,15.55,12.18-.14,17.52,7.44,24.2,9.73,8.58-14.67,23.52-40.13,44.62-7.11,5.89-12.8,12.15-16.18,18.61-6.35,12.13-10.64,25.14-14.8,38.09-17.18,53.46-8.07,104.51-13.33,170.15"/><path class="cls-21" d="M36.7,12.47c3.52,41.87,2.06,114.83,12.54,138.47,6.88,15.52-5.17,30.9-2.62,47.91.14.93.28,1.87.48,2.81,2.58,11.89-11.42,23.33-22.75,28.91-14.17,6.97-2.71,30.54,7.48,49.98,4.26,8.12,6.26,15.87,4.68,22.06-4.04,15.84-31.52,28.86-26,56.67,7.13,35.91,55.7-.67,74.14,17.84,14.92,14.97,40.5,5.85,53.96-5.98,8.75-7.69,23.24-11.4,32.87-3.85,13.87,10.87,26.69,2.72,39.1-3.79,6.81-3.57,13.65-6.21,20.43-4.55,29.64,7.29,62.01.85,79.98,14.52,15.23,11.59,1.68,16.68,8.87,23.6,8.98,8.64-13.96,23.58-39.34,45.23-6.94,5.92-12.41,12.26-15.69,18.81-6.08,12.15-10.13,25.19-14.26,38.06-17.08,53.27-8.18,102.47-13.08,169.28"/><path class="cls-19" d="M36.79,13.85c3.47,41.64,2.3,112.15,12.04,137.08,6.04,15.46-5.03,30.77-3.18,47.46.1.92.2,1.85.36,2.78,1.99,11.78-11.46,23.11-22.28,29.12-13.85,7.7-3.83,30.69,6.28,49.69,4.23,7.94,6.23,15.58,4.9,21.8-3.45,16.19-28.96,29.92-23.33,57.08,7.11,34.34,53.85,2.45,72.83,20.15,15.59,14.55,40.76,6.2,52.89-5.96,7.85-7.88,22.15-11.67,32.14-4.62,13.79,9.75,26.69,2.53,38.92-3.42,6.75-3.29,13.53-5.74,20.22-4.28,29.51,6.41,61.16-.35,78.98,12.8,14.91,11,3.5,15.83,10.3,23,8.24,8.69-13.25,23.64-38.54,45.85-6.78,5.95-12.03,12.37-15.21,19.02-5.82,12.16-9.62,25.23-13.72,38.04-16.99,53.07-8.29,100.43-12.82,168.42"/><path class="cls-14" d="M36.89,15.24c3.42,41.4,2.61,109.44,11.55,135.69,5.24,15.38-4.91,30.65-3.73,47.01.07.92.12,1.84.23,2.76,1.39,11.68-11.51,22.9-21.81,29.33-13.53,8.45-4.95,30.85,5.08,49.4,4.2,7.76,6.2,15.29,5.13,21.54-2.85,16.54-26.4,30.98-20.67,57.49,7.09,32.78,52.01,5.55,71.51,22.47,16.28,14.13,41.02,6.56,51.82-5.95,6.95-8.06,21.05-11.93,31.42-5.39,13.68,8.65,26.69,2.35,38.73-3.06,6.7-3.01,13.4-5.27,20.02-4.02,29.37,5.53,60.3-1.54,77.98,11.08,14.59,10.41,5.33,14.96,11.73,22.4,7.5,8.72-12.55,23.69-37.74,46.46-6.61,5.98-11.65,12.47-14.73,19.22-5.56,12.18-9.11,25.28-13.18,38.01-16.89,52.88-8.41,98.38-12.57,167.55"/><path class="cls-9" d="M36.98,16.62c3.37,41.16,2.99,106.72,11.05,134.29,4.47,15.3-4.79,30.53-4.29,46.56.03.91.04,1.82.11,2.73.8,11.58-11.54,22.7-21.34,29.54-13.2,9.22-6.07,31,3.87,49.11,4.17,7.59,6.18,15,5.35,21.27-2.23,16.89-23.85,32.04-18,57.9,7.06,31.22,50.18,8.65,70.19,24.79,16.97,13.69,41.28,6.93,50.74-5.94,6.05-8.24,19.93-12.17,30.69-6.15,13.55,7.58,26.69,2.18,38.55-2.69,6.64-2.73,13.28-4.79,19.81-3.76,29.24,4.64,59.44-2.72,76.98,9.36,14.27,9.83,7.17,14.09,13.16,21.8,6.79,8.73-11.86,23.73-36.95,47.08-6.45,6.01-11.27,12.57-14.25,19.43-5.3,12.19-8.6,25.33-12.64,37.99-16.8,52.69-8.52,96.34-12.31,166.69"/><path class="cls-18" d="M37.08,18c3.31,40.93,3.45,103.98,10.56,132.9,3.74,15.22-4.69,30.41-4.84,46.11,0,.9-.04,1.8-.02,2.71.2,11.47-11.57,22.52-20.87,29.76-12.85,10-7.19,31.15,2.67,48.82,4.14,7.41,6.16,14.71,5.57,21.01-1.61,17.24-21.3,33.1-15.34,58.3,7.02,29.66,48.36,11.73,68.87,27.1,17.67,13.24,41.55,7.3,49.67-5.93,5.16-8.41,18.8-12.38,29.96-6.92,13.39,6.55,26.7,2,38.37-2.33,6.59-2.44,13.16-4.32,19.61-3.49,29.11,3.74,58.57-3.91,75.97,7.63,13.94,9.25,9.02,13.2,14.59,21.2,6.08,8.74-11.18,23.76-36.15,47.7-6.29,6.03-10.9,12.68-13.77,19.63-5.05,12.2-8.09,25.37-12.1,37.96-16.71,52.49-8.63,94.29-12.06,165.82"/><path class="cls-22" d="M37.17,19.38c3.26,40.69,3.99,101.24,10.06,131.51,3.04,15.13-4.59,30.29-5.4,45.66-.05.89-.12,1.79-.15,2.68-.39,11.37-11.58,22.35-20.39,29.97-12.49,10.8-8.31,31.31,1.47,48.54,4.11,7.24,6.14,14.42,5.79,20.74-.97,17.59-18.76,34.16-12.67,58.71,6.98,28.1,46.54,14.8,67.56,29.42,18.38,12.78,41.83,7.68,48.6-5.92,4.27-8.58,17.65-12.56,29.24-7.69,13.22,5.55,26.7,1.83,38.19-1.96,6.54-2.16,13.03-3.85,19.4-3.23,28.98,2.83,57.7-5.08,74.97,5.91,13.61,8.67,10.89,12.31,16.02,20.6,5.4,8.73-10.5,23.78-35.36,48.31-6.13,6.05-10.52,12.78-13.29,19.84-4.79,12.21-7.58,25.42-11.56,37.94-16.61,52.3-8.75,92.25-11.8,164.96"/><path class="cls-10" d="M37.27,20.76c3.21,40.45,4.61,98.51,9.56,130.12,2.36,15.06-4.5,30.17-5.95,45.2-.09.89-.2,1.77-.27,2.66-.99,11.27-11.58,22.18-19.92,30.18-12.11,11.61-9.43,31.46.27,48.25,4.08,7.06,6.12,14.13,6.01,20.48-.33,17.93-16.23,35.23-10,59.12,6.92,26.54,44.72,17.85,66.24,31.73,19.08,12.31,42.12,8.06,47.53-5.9,3.39-8.74,16.49-12.7,28.51-8.46,13.04,4.6,26.71,1.66,38.01-1.6,6.48-1.87,12.91-3.39,19.2-2.97,28.85,1.92,56.83-6.26,73.97,4.19,13.27,8.1,12.78,11.4,17.45,20s-9.84,23.8-34.56,48.93c-5.97,6.07-10.15,12.88-12.81,20.04-4.55,12.22-7.07,25.47-11.02,37.91-16.52,52.1-8.86,90.2-11.55,164.09"/><path class="cls-11" d="M37.36,22.14c3.16,40.22,5.31,95.8,9.07,128.72,1.71,15-4.42,30.05-6.51,44.75-.13.88-.28,1.75-.4,2.63-1.58,11.16-11.57,22.02-19.45,30.39-11.7,12.43-10.55,31.61-.94,47.96,4.05,6.88,6.11,13.84,6.23,20.22.33,18.28-13.71,36.3-7.34,59.53,6.86,24.99,42.91,20.9,64.92,34.05,19.8,11.82,42.41,8.45,46.46-5.89,2.52-8.91,15.33-12.8,27.78-9.23s26.72,1.5,37.83-1.23c6.43-1.58,12.79-2.92,18.99-2.7,28.71,1,55.96-7.42,72.97,2.47,12.94,7.53,14.69,10.49,18.88,19.4s-9.18,23.81-33.77,49.55c-5.82,6.09-9.78,12.98-12.33,20.25-4.3,12.23-6.56,25.51-10.48,37.89-16.43,51.91-8.97,88.16-11.29,163.23"/><path class="cls-8" d="M37.46,23.52c3.1,39.98,6.09,93.1,8.57,127.33,1.08,14.96-4.34,29.92-7.07,44.3-.16.87-.36,1.74-.53,2.61-2.18,11.06-11.54,21.86-18.98,30.6-11.28,13.26-11.67,31.77-2.14,47.67,4.02,6.71,6.11,13.54,6.45,19.95,1,18.62-11.2,37.37-4.67,59.94s41.1,23.93,63.6,36.36c20.51,11.33,42.72,8.83,45.39-5.88,1.65-9.08,14.17-12.84,27.06-10s26.72,1.34,37.65-.86c6.38-1.29,12.66-2.36,18.79-2.44,28.58-.39,55.08-8.58,71.96.75,12.6,6.97,16.63,9.58,20.31,18.8,3.46,8.67-8.53,23.81-32.97,50.16-5.67,6.11-9.41,13.08-11.85,20.45-4.06,12.24-6.05,25.56-9.94,37.87-16.33,51.72-9.09,86.11-11.04,162.36"/><path class="cls-5" d="M37.55,24.9c3.05,39.74,6.96,90.43,8.08,125.94.47,14.93-4.28,29.78-7.62,43.85-.21.86-.43,1.72-.65,2.58-2.77,10.96-11.5,21.7-18.51,30.82-10.83,14.09-12.79,31.92-3.34,47.39,3.99,6.53,6.1,13.25,6.67,19.69,1.68,18.95-8.7,38.44-2,60.34s39.29,26.95,62.29,38.68c21.23,10.82,43.04,9.2,44.32-5.87.78-9.25,13.02-12.84,26.33-10.77,12.56,1.95,26.73,1.18,37.47-.5,6.33-.99,12.54-1.99,18.58-2.18,28.44-.86,54.2-9.73,70.96-.97,12.26,6.41,18.6,8.66,21.74,18.2,2.86,8.65-7.89,23.81-32.17,50.78-5.52,6.13-9.04,13.18-11.37,20.66-3.82,12.25-5.54,25.61-9.4,37.84-16.24,51.52-9.2,84.07-10.78,161.5"/><path class="cls-16" d="M37.65,26.28c3,39.51,7.89,87.8,7.58,124.55-.13,14.93-4.22,29.64-8.18,43.4-.25.85-.51,1.7-.78,2.56-3.37,10.85-11.45,21.54-18.04,31.03-10.35,14.92-13.91,32.07-4.54,47.1,3.96,6.36,6.1,12.95,6.89,19.43,2.37,19.28-6.22,39.52.66,60.75s37.47,29.96,60.97,40.99c21.94,10.3,43.37,9.57,43.25-5.86-.07-9.43,11.89-12.79,25.6-11.54,12.44,1.13,26.74,1.03,37.29-.13,6.28-.69,12.41-1.53,18.38-1.91,28.3-1.81,53.31-10.87,69.96-2.69,11.92,5.86,20.59,7.75,23.17,17.6,2.27,8.65-7.27,23.8-31.38,51.4-5.37,6.14-8.67,13.28-10.89,20.86-3.58,12.26-5.03,25.65-8.86,37.82-16.14,51.33-9.31,82.02-10.53,160.63"/><path class="cls-13" d="M37.74,27.66c2.94,39.27,8.89,85.2,7.09,123.16-.71,14.95-4.16,29.49-8.73,42.95-.29.85-.59,1.69-.9,2.53-3.96,10.75-11.39,21.37-17.56,31.24-9.86,15.76-15.03,32.23-5.75,46.81,3.93,6.18,6.1,12.65,7.11,19.16,3.06,19.6-3.75,40.61,3.33,61.16,6.49,18.82,35.66,32.96,59.65,43.31,22.66,9.77,43.7,9.93,42.18-5.85-.93-9.61,10.79-12.7,24.88-12.31,12.35.34,26.74.89,37.11.23,6.22-.39,12.29-1.07,18.17-1.65,28.16-2.76,52.42-12,68.96-4.41,11.58,5.31,22.61,6.86,24.6,17,1.7,8.65-6.65,23.78-30.58,52.01-5.22,6.16-8.31,13.38-10.41,21.07-3.35,12.27-4.52,25.7-8.32,37.79-16.05,51.13-9.43,79.98-10.28,159.77"/><path class="cls-4" d="M37.84,29.05c4,54,15.98,116.75-2.7,164.26-11.3,28.74-40.4,56.91-25.07,80.48s3.62,54.08,13.33,80.47c12.44,33.79,105.44,72.79,99.44,39.79-3.3-18.15,38.94-12.17,61.08-12.48,35.92-.52,66.1-15.95,85.92-7.52,20.58,8.75,48.51,5.47-3.76,69.03-13.07,15.9-11.55,39.4-17.7,59.04-15.96,50.94-9.54,77.93-10.02,158.9"/></g></svg>